<svg width="22" height="23" viewBox="0 0 22 23" fill="none" xmlns="http://www.w3.org/2000/svg">
<path d="M3.00012 14.5885V18.5887M11.0006 8.58812V18.5887M21.0012 21.5889H1.00001M19.001 12.5884V18.5887M4.60021 8.38811C4.44262 8.17798 4.24518 8.00096 4.01917 7.86713C3.79316 7.73331 3.543 7.64531 3.28298 7.60817C3.02296 7.57102 2.75817 7.58545 2.50373 7.65064C2.24929 7.71583 2.01018 7.83049 1.80005 7.98809C1.58993 8.14568 1.4129 8.34312 1.27908 8.56914C1.14525 8.79515 1.05726 9.0453 1.02011 9.30532C0.945091 9.83045 1.08175 10.3639 1.40003 10.7882C1.71831 11.2126 2.19213 11.4932 2.71726 11.5682C3.2424 11.6432 3.77582 11.5066 4.20019 11.1883C4.62456 10.87 4.90512 10.3962 4.98014 9.87104C5.05515 9.34591 4.91849 8.81248 4.60021 8.38811ZM4.60021 8.38811L9.40049 4.78791M9.40049 4.78791C9.60496 5.06094 9.87586 5.27714 10.1874 5.41597C10.499 5.55479 10.8409 5.61162 11.1807 5.58105C11.5204 5.55048 11.8467 5.43354 12.1285 5.24133C12.4103 5.04912 12.6382 4.78803 12.7907 4.48289M9.40049 4.78791C9.18704 4.50288 9.05355 4.16604 9.01382 3.81217C8.97408 3.45831 9.02954 3.10025 9.17446 2.77498C9.31938 2.44972 9.54851 2.16904 9.83818 1.96194C10.1278 1.75484 10.4676 1.62882 10.8222 1.59691C11.1769 1.56501 11.5336 1.62836 11.8556 1.78043C12.1776 1.9325 12.4531 2.16777 12.6538 2.46195C12.8544 2.75612 12.9729 3.09853 12.997 3.45381C13.021 3.80908 12.9498 4.16434 12.7907 4.48289M12.7907 4.48289L17.2109 6.69301C17.0934 6.92796 17.0233 7.18376 17.0046 7.44581C16.9859 7.70785 17.019 7.97101 17.1021 8.22026C17.2697 8.72363 17.6305 9.13979 18.105 9.37717C18.5795 9.61455 19.1289 9.65372 19.6322 9.48605C20.1356 9.31838 20.5518 8.95762 20.7891 8.48312C21.0216 8.00932 21.0575 7.46284 20.8888 6.96276C20.7201 6.46267 20.3606 6.04952 19.8886 5.81334C19.4167 5.57716 18.8705 5.53709 18.3691 5.70187C17.8677 5.86664 17.4518 6.2229 17.2119 6.69301" stroke="#003A69" stroke-width="1.5" stroke-linecap="round" stroke-linejoin="round"/>
</svg>
