<svg width="17" height="17" viewBox="0 0 17 17" fill="none" xmlns="http://www.w3.org/2000/svg">
<path d="M4.71981 5.31223H1C0.706484 5.31223 0.46875 5.54997 0.46875 5.84348V16.4688C0.46875 16.7623 0.706484 17 1 17H4.71981C5.01333 17 5.25106 16.7623 5.25106 16.4688V5.84348C5.25106 5.54997 5.01333 5.31223 4.71981 5.31223ZM4.18856 15.9375H1.53125V6.37473H4.18856V15.9375ZM10.5583 8.47105H6.83817C6.54466 8.47105 6.30692 8.70878 6.30692 9.0023V16.4688C6.30692 16.7623 6.54466 17 6.83817 17H10.5583C10.8518 17 11.0895 16.7623 11.0895 16.4688V9.0023C11.0895 8.70852 10.852 8.47105 10.5583 8.47105ZM10.027 15.9375H7.36942V9.53355H10.027V15.9375ZM16.4062 0H12.692C12.3985 0 12.1608 0.237734 12.1608 0.53125V16.4688C12.1608 16.7623 12.3985 17 12.692 17H16.4062C16.6998 17 16.9375 16.7623 16.9375 16.4688V0.53125C16.9375 0.237734 16.6998 0 16.4062 0ZM15.875 15.9375H13.2233V1.0625H15.875V15.9375Z" fill="#003A69"/>
</svg>
