<svg width="21" height="23" viewBox="0 0 21 23" fill="none" xmlns="http://www.w3.org/2000/svg">
<path d="M2.00001 14.5877V18.5877M10 8.58772V18.5877M20 21.5877H8.11172e-06M18 12.5877V18.5877M3.60001 8.38772C3.44242 8.17761 3.24499 8.00059 3.019 7.86677C2.793 7.73296 2.54285 7.64497 2.28285 7.60782C2.02285 7.57068 1.75807 7.58511 1.50365 7.65029C1.24922 7.71548 1.01012 7.83014 0.800008 7.98772C0.589893 8.14531 0.412874 8.34274 0.279059 8.56874C0.145244 8.79473 0.0572526 9.04488 0.0201092 9.30488C-0.0549054 9.82998 0.0817484 10.3634 0.400008 10.7877C0.718268 11.2121 1.19206 11.4926 1.71717 11.5676C2.24227 11.6426 2.77566 11.506 3.20001 11.1877C3.62435 10.8695 3.90489 10.3957 3.97991 9.87056C4.05492 9.34546 3.91827 8.81207 3.60001 8.38772ZM3.60001 8.38772L8.40001 4.78772M8.40001 4.78772C8.60447 5.06074 8.87535 5.27693 9.18692 5.41575C9.49848 5.55456 9.84037 5.61139 10.1801 5.58082C10.5198 5.55026 10.8461 5.43332 11.1278 5.24112C11.4096 5.04892 11.6376 4.78785 11.79 4.48272M8.40001 4.78772C8.18657 4.50271 8.05309 4.16589 8.01336 3.81205C7.97363 3.4582 8.02908 3.10016 8.17399 2.77492C8.3189 2.44967 8.54802 2.169 8.83767 1.96192C9.12733 1.75483 9.46701 1.62882 9.82165 1.59691C10.1763 1.56501 10.533 1.62836 10.855 1.78042C11.1769 1.93248 11.4525 2.16774 11.6531 2.4619C11.8538 2.75605 11.9722 3.09844 11.9963 3.4537C12.0204 3.80895 11.9491 4.16419 11.79 4.48272M11.79 4.48272L16.21 6.69272C16.0925 6.92766 16.0224 7.18344 16.0037 7.44547C15.985 7.7075 16.0181 7.97064 16.1011 8.21988C16.2688 8.72322 16.6295 9.13935 17.104 9.37672C17.5785 9.61409 18.1278 9.65325 18.6312 9.4856C19.1345 9.31794 19.5506 8.95719 19.788 8.48272C20.0205 8.00896 20.0563 7.4625 19.8876 6.96245C19.719 6.46239 19.3595 6.04927 18.8876 5.8131C18.4156 5.57693 17.8695 5.53687 17.3681 5.70163C16.8668 5.86639 16.4508 6.22264 16.211 6.69272" stroke="#9B9081" stroke-width="1.5" stroke-linecap="round" stroke-linejoin="round"/>
</svg>
