<svg width="17" height="17" viewBox="0 0 17 17" fill="none" xmlns="http://www.w3.org/2000/svg">
<path d="M4.25106 5.31223H0.53125C0.237734 5.31223 0 5.54997 0 5.84348V16.4688C0 16.7623 0.237734 17 0.53125 17H4.25106C4.54458 17 4.78231 16.7623 4.78231 16.4688V5.84348C4.78231 5.54997 4.54458 5.31223 4.25106 5.31223ZM3.71981 15.9375H1.0625V6.37473H3.71981V15.9375ZM10.0895 8.47105H6.36942C6.07591 8.47105 5.83817 8.70878 5.83817 9.0023V16.4688C5.83817 16.7623 6.07591 17 6.36942 17H10.0895C10.383 17 10.6208 16.7623 10.6208 16.4688V9.0023C10.6208 8.70852 10.3833 8.47105 10.0895 8.47105ZM9.55825 15.9375H6.90067V9.53355H9.55825V15.9375ZM15.9375 0H12.2233C11.9297 0 11.692 0.237734 11.692 0.53125V16.4688C11.692 16.7623 11.9297 17 12.2233 17H15.9375C16.231 17 16.4688 16.7623 16.4688 16.4688V0.53125C16.4688 0.237734 16.231 0 15.9375 0ZM15.4062 15.9375H12.7545V1.0625H15.4062V15.9375Z" fill="#9B9081"/>
</svg>
