<svg width="1920" height="1080" viewBox="0 0 1920 1080" fill="none" xmlns="http://www.w3.org/2000/svg">
<g clip-path="url(#clip0_3019_7384)">
<rect width="1920" height="1080" fill="#F5F5F5"/>
<mask id="path-1-inside-1_3019_7384" fill="white">
<path d="M24 1038H1896V1065H24V1038Z"/>
</mask>
<path d="M24 1039H1896V1037H24V1039Z" fill="#99B0C3" mask="url(#path-1-inside-1_3019_7384)"/>
<path d="M1359.42 101.768C1359.95 101.768 1360.39 101.784 1360.75 101.816C1361.13 101.837 1361.47 101.875 1361.78 101.928C1362.09 101.981 1362.41 102.051 1362.74 102.136L1362.54 103.944C1362.19 103.923 1361.87 103.907 1361.57 103.896C1361.28 103.885 1360.97 103.875 1360.62 103.864C1360.29 103.853 1359.89 103.848 1359.42 103.848C1358.88 103.848 1358.45 103.96 1358.14 104.184C1357.85 104.397 1357.63 104.765 1357.5 105.288C1357.38 105.811 1357.31 106.541 1357.31 107.48C1357.31 108.408 1357.38 109.139 1357.5 109.672C1357.63 110.195 1357.85 110.563 1358.14 110.776C1358.45 110.989 1358.88 111.096 1359.42 111.096C1360.16 111.096 1360.78 111.085 1361.28 111.064C1361.78 111.043 1362.28 111.005 1362.77 110.952L1362.98 112.744C1362.46 112.904 1361.94 113.016 1361.41 113.08C1360.87 113.155 1360.21 113.192 1359.42 113.192C1358.28 113.192 1357.37 113.011 1356.69 112.648C1356.01 112.275 1355.51 111.672 1355.2 110.84C1354.9 110.008 1354.75 108.888 1354.75 107.48C1354.75 106.072 1354.9 104.952 1355.2 104.12C1355.51 103.288 1356.01 102.691 1356.69 102.328C1357.37 101.955 1358.28 101.768 1359.42 101.768ZM1368.13 104.888C1369.12 104.888 1369.91 105.027 1370.51 105.304C1371.11 105.571 1371.53 106.008 1371.79 106.616C1372.06 107.224 1372.19 108.04 1372.19 109.064C1372.19 110.067 1372.06 110.872 1371.79 111.48C1371.53 112.088 1371.11 112.525 1370.51 112.792C1369.91 113.059 1369.12 113.192 1368.13 113.192C1367.14 113.192 1366.36 113.059 1365.76 112.792C1365.16 112.525 1364.73 112.088 1364.46 111.48C1364.2 110.872 1364.06 110.067 1364.06 109.064C1364.06 108.04 1364.2 107.224 1364.46 106.616C1364.73 106.008 1365.16 105.571 1365.76 105.304C1366.36 105.027 1367.14 104.888 1368.13 104.888ZM1368.13 106.6C1367.72 106.6 1367.4 106.669 1367.17 106.808C1366.93 106.947 1366.77 107.192 1366.67 107.544C1366.57 107.896 1366.53 108.403 1366.53 109.064C1366.53 109.704 1366.57 110.2 1366.67 110.552C1366.77 110.904 1366.93 111.149 1367.17 111.288C1367.4 111.416 1367.72 111.48 1368.13 111.48C1368.54 111.48 1368.87 111.416 1369.1 111.288C1369.34 111.149 1369.5 110.904 1369.58 110.552C1369.68 110.2 1369.73 109.704 1369.73 109.064C1369.73 108.403 1369.68 107.896 1369.58 107.544C1369.5 107.192 1369.34 106.947 1369.1 106.808C1368.87 106.669 1368.54 106.6 1368.13 106.6ZM1383.82 104.888C1384.53 104.888 1385.08 105.075 1385.45 105.448C1385.83 105.821 1386.01 106.365 1386.01 107.08V113H1383.68V107.816C1383.67 107.485 1383.6 107.251 1383.47 107.112C1383.34 106.963 1383.12 106.888 1382.8 106.888C1382.61 106.888 1382.43 106.915 1382.25 106.968C1382.08 107.011 1381.88 107.091 1381.66 107.208C1381.44 107.325 1381.16 107.485 1380.84 107.688L1380.72 106.392C1381.23 105.891 1381.73 105.517 1382.22 105.272C1382.72 105.016 1383.25 104.888 1383.82 104.888ZM1375.69 105.096L1375.93 106.664L1376.17 106.872V113H1373.82V105.096H1375.69ZM1378.89 104.888C1379.6 104.888 1380.13 105.075 1380.49 105.448C1380.87 105.811 1381.05 106.355 1381.05 107.08V113H1378.78V107.816C1378.78 107.475 1378.71 107.235 1378.56 107.096C1378.42 106.957 1378.2 106.888 1377.9 106.888C1377.72 106.888 1377.54 106.915 1377.36 106.968C1377.19 107.011 1376.98 107.091 1376.75 107.208C1376.52 107.325 1376.25 107.485 1375.92 107.688L1375.77 106.392C1376.29 105.891 1376.8 105.517 1377.29 105.272C1377.78 105.016 1378.32 104.888 1378.89 104.888ZM1393.1 104.904C1394.09 104.904 1394.8 105.267 1395.23 105.992C1395.65 106.717 1395.87 107.757 1395.87 109.112C1395.87 110.168 1395.75 110.995 1395.53 111.592C1395.32 112.179 1394.99 112.595 1394.54 112.84C1394.1 113.085 1393.55 113.208 1392.89 113.208C1392.32 113.208 1391.79 113.128 1391.27 112.968C1390.76 112.808 1390.31 112.541 1389.91 112.168L1390.07 111.112C1390.43 111.219 1390.75 111.315 1391.03 111.4C1391.33 111.475 1391.67 111.512 1392.04 111.512C1392.38 111.512 1392.65 111.453 1392.86 111.336C1393.06 111.219 1393.21 110.989 1393.31 110.648C1393.4 110.296 1393.45 109.789 1393.45 109.128C1393.45 108.477 1393.4 107.976 1393.31 107.624C1393.22 107.272 1393.08 107.032 1392.89 106.904C1392.71 106.776 1392.46 106.712 1392.15 106.712C1391.8 106.712 1391.48 106.776 1391.19 106.904C1390.91 107.032 1390.58 107.224 1390.22 107.48L1389.91 106.392C1390.13 106.104 1390.4 105.848 1390.73 105.624C1391.07 105.4 1391.44 105.224 1391.85 105.096C1392.25 104.968 1392.67 104.904 1393.1 104.904ZM1389.82 105.096L1390.04 106.536L1390.27 106.776V111.912L1390.19 112.104C1390.22 112.424 1390.24 112.755 1390.25 113.096C1390.27 113.437 1390.28 113.779 1390.27 114.12V116.04H1387.91V105.096H1389.82ZM1399.88 101.8L1399.86 110.472C1399.86 110.739 1399.94 110.941 1400.1 111.08C1400.26 111.208 1400.49 111.272 1400.8 111.272H1401.44L1401.72 112.872C1401.59 112.936 1401.41 112.989 1401.17 113.032C1400.94 113.085 1400.7 113.123 1400.45 113.144C1400.21 113.165 1400 113.176 1399.83 113.176C1399.11 113.176 1398.55 112.995 1398.13 112.632C1397.73 112.259 1397.52 111.736 1397.52 111.064V101.8H1399.88ZM1406.92 104.888C1407.58 104.888 1408.14 104.979 1408.6 105.16C1409.06 105.331 1409.4 105.629 1409.64 106.056C1409.88 106.472 1410.01 107.043 1410.01 107.768V113H1408.13L1407.8 111.288L1407.64 111.048V107.768C1407.63 107.384 1407.53 107.112 1407.35 106.952C1407.18 106.781 1406.85 106.696 1406.37 106.696C1405.96 106.696 1405.45 106.712 1404.84 106.744C1404.23 106.765 1403.61 106.797 1402.97 106.84L1402.76 105.272C1403.14 105.197 1403.58 105.133 1404.07 105.08C1404.57 105.027 1405.07 104.984 1405.57 104.952C1406.07 104.909 1406.52 104.888 1406.92 104.888ZM1409.03 108.136L1409.01 109.464H1405.49C1405.21 109.475 1405 109.549 1404.87 109.688C1404.75 109.827 1404.69 110.013 1404.69 110.248V110.632C1404.69 110.899 1404.77 111.107 1404.92 111.256C1405.07 111.395 1405.31 111.464 1405.64 111.464C1405.91 111.464 1406.21 111.405 1406.53 111.288C1406.86 111.171 1407.19 111.005 1407.51 110.792C1407.83 110.579 1408.12 110.328 1408.37 110.04V111.064C1408.28 111.224 1408.13 111.427 1407.94 111.672C1407.75 111.907 1407.51 112.141 1407.22 112.376C1406.93 112.6 1406.6 112.792 1406.21 112.952C1405.83 113.101 1405.39 113.176 1404.9 113.176C1404.43 113.176 1404 113.096 1403.61 112.936C1403.22 112.765 1402.92 112.515 1402.69 112.184C1402.47 111.853 1402.36 111.443 1402.36 110.952V110.136C1402.36 109.507 1402.57 109.016 1403 108.664C1403.42 108.312 1404.01 108.136 1404.76 108.136H1409.03ZM1414.28 105.096V113H1411.95V105.096H1414.28ZM1413.63 101.608C1414.1 101.608 1414.33 101.843 1414.33 102.312V103.176C1414.33 103.645 1414.1 103.88 1413.63 103.88H1412.6C1412.13 103.88 1411.9 103.645 1411.9 103.176V102.312C1411.9 101.843 1412.13 101.608 1412.6 101.608H1413.63ZM1421.79 104.888C1423.29 104.888 1424.03 105.619 1424.03 107.08V113H1421.66V107.816C1421.66 107.464 1421.6 107.224 1421.47 107.096C1421.34 106.957 1421.13 106.888 1420.82 106.888C1420.47 106.888 1420.12 106.957 1419.76 107.096C1419.4 107.224 1418.95 107.421 1418.42 107.688L1418.3 106.376C1418.87 105.896 1419.45 105.528 1420.03 105.272C1420.63 105.016 1421.22 104.888 1421.79 104.888ZM1418.19 105.096L1418.46 106.664L1418.66 106.872V113H1416.3V105.096H1418.19ZM1428.99 102.904V110.472C1428.99 110.76 1429.05 110.968 1429.18 111.096C1429.32 111.213 1429.54 111.272 1429.85 111.272H1430.87L1431.13 112.872C1430.94 112.936 1430.7 112.989 1430.43 113.032C1430.15 113.085 1429.87 113.123 1429.59 113.144C1429.32 113.165 1429.08 113.176 1428.89 113.176C1428.17 113.176 1427.61 112.989 1427.21 112.616C1426.81 112.232 1426.62 111.693 1426.62 111V102.904H1428.99ZM1431.19 105.096V106.648H1425.24V105.176L1426.78 105.096H1431.19ZM1435.47 104.888C1435.85 104.888 1436.27 104.904 1436.72 104.936C1437.16 104.957 1437.6 104.989 1438.03 105.032C1438.45 105.075 1438.83 105.128 1439.16 105.192L1439 106.664C1438.49 106.653 1437.97 106.643 1437.45 106.632C1436.94 106.621 1436.44 106.616 1435.95 106.616C1435.53 106.616 1435.21 106.627 1434.99 106.648C1434.76 106.659 1434.6 106.707 1434.51 106.792C1434.42 106.867 1434.38 107.005 1434.38 107.208C1434.38 107.453 1434.46 107.619 1434.62 107.704C1434.78 107.779 1435.05 107.864 1435.42 107.96L1437.48 108.456C1438.15 108.627 1438.64 108.883 1438.96 109.224C1439.28 109.555 1439.44 110.056 1439.44 110.728C1439.44 111.389 1439.31 111.896 1439.07 112.248C1438.82 112.6 1438.43 112.845 1437.9 112.984C1437.37 113.112 1436.68 113.176 1435.84 113.176C1435.51 113.176 1435.01 113.16 1434.36 113.128C1433.71 113.096 1433 113.016 1432.24 112.888L1432.38 111.416C1432.58 111.427 1432.83 111.437 1433.12 111.448C1433.41 111.448 1433.74 111.448 1434.09 111.448C1434.44 111.448 1434.8 111.448 1435.15 111.448C1435.7 111.448 1436.12 111.437 1436.41 111.416C1436.7 111.384 1436.9 111.32 1437 111.224C1437.11 111.128 1437.16 110.984 1437.16 110.792C1437.16 110.547 1437.07 110.387 1436.89 110.312C1436.71 110.227 1436.42 110.131 1436.03 110.024L1434.03 109.528C1433.52 109.389 1433.12 109.213 1432.84 109C1432.57 108.787 1432.37 108.531 1432.25 108.232C1432.15 107.923 1432.09 107.555 1432.09 107.128C1432.09 106.584 1432.2 106.147 1432.43 105.816C1432.65 105.485 1433.01 105.251 1433.5 105.112C1433.99 104.963 1434.65 104.888 1435.47 104.888ZM1448.6 104.888C1449.27 104.888 1449.83 104.979 1450.28 105.16C1450.74 105.331 1451.09 105.629 1451.32 106.056C1451.57 106.472 1451.69 107.043 1451.69 107.768V113H1449.82L1449.48 111.288L1449.32 111.048V107.768C1449.31 107.384 1449.22 107.112 1449.04 106.952C1448.87 106.781 1448.54 106.696 1448.06 106.696C1447.64 106.696 1447.13 106.712 1446.52 106.744C1445.92 106.765 1445.29 106.797 1444.65 106.84L1444.44 105.272C1444.83 105.197 1445.27 105.133 1445.76 105.08C1446.26 105.027 1446.76 104.984 1447.26 104.952C1447.76 104.909 1448.21 104.888 1448.6 104.888ZM1450.72 108.136L1450.7 109.464H1447.18C1446.89 109.475 1446.68 109.549 1446.56 109.688C1446.44 109.827 1446.38 110.013 1446.38 110.248V110.632C1446.38 110.899 1446.46 111.107 1446.6 111.256C1446.75 111.395 1446.99 111.464 1447.32 111.464C1447.6 111.464 1447.9 111.405 1448.22 111.288C1448.55 111.171 1448.88 111.005 1449.2 110.792C1449.52 110.579 1449.8 110.328 1450.06 110.04V111.064C1449.96 111.224 1449.82 111.427 1449.63 111.672C1449.44 111.907 1449.2 112.141 1448.91 112.376C1448.62 112.6 1448.28 112.792 1447.9 112.952C1447.52 113.101 1447.08 113.176 1446.59 113.176C1446.12 113.176 1445.69 113.096 1445.29 112.936C1444.91 112.765 1444.6 112.515 1444.38 112.184C1444.16 111.853 1444.04 111.443 1444.04 110.952V110.136C1444.04 109.507 1444.26 109.016 1444.68 108.664C1445.11 108.312 1445.7 108.136 1446.44 108.136H1450.72ZM1459.06 104.888C1460.55 104.888 1461.3 105.619 1461.3 107.08V113H1458.93V107.816C1458.93 107.464 1458.87 107.224 1458.74 107.096C1458.61 106.957 1458.39 106.888 1458.08 106.888C1457.74 106.888 1457.39 106.957 1457.03 107.096C1456.66 107.224 1456.22 107.421 1455.68 107.688L1455.57 106.376C1456.14 105.896 1456.71 105.528 1457.3 105.272C1457.9 105.016 1458.48 104.888 1459.06 104.888ZM1455.46 105.096L1455.73 106.664L1455.92 106.872V113H1453.57V105.096H1455.46ZM1465.87 104.888C1466.43 104.888 1466.97 104.968 1467.48 105.128C1468 105.288 1468.45 105.549 1468.84 105.912L1468.68 106.984C1468.33 106.877 1468.01 106.787 1467.71 106.712C1467.42 106.627 1467.08 106.584 1466.7 106.584C1466.37 106.584 1466.1 106.643 1465.9 106.76C1465.7 106.877 1465.55 107.107 1465.45 107.448C1465.36 107.789 1465.31 108.296 1465.31 108.968C1465.31 109.597 1465.35 110.077 1465.44 110.408C1465.53 110.728 1465.68 110.952 1465.87 111.08C1466.07 111.197 1466.33 111.256 1466.64 111.256C1466.91 111.256 1467.15 111.229 1467.36 111.176C1467.56 111.112 1467.76 111.021 1467.96 110.904C1468.17 110.776 1468.4 110.621 1468.67 110.44L1468.83 111.608C1468.51 112.056 1468.09 112.435 1467.58 112.744C1467.07 113.043 1466.44 113.192 1465.69 113.192C1464.68 113.192 1463.95 112.829 1463.52 112.104C1463.09 111.379 1462.88 110.339 1462.88 108.984C1462.88 107.928 1462.99 107.107 1463.21 106.52C1463.44 105.923 1463.77 105.501 1464.2 105.256C1464.65 105.011 1465.21 104.888 1465.87 104.888ZM1470.78 101.8V113H1468.91L1468.67 111.544L1468.41 111.368V106.184L1468.51 105.96C1468.48 105.64 1468.45 105.315 1468.43 104.984C1468.42 104.643 1468.41 104.296 1468.41 103.944V101.8H1470.78ZM1478.03 105.096L1478.32 106.664L1478.55 106.872V113H1476.19V105.096H1478.03ZM1481.89 104.888L1481.67 107.064H1481.01C1480.64 107.064 1480.25 107.117 1479.84 107.224C1479.44 107.331 1478.93 107.496 1478.31 107.72L1478.15 106.392C1478.7 105.901 1479.26 105.528 1479.83 105.272C1480.39 105.016 1480.94 104.888 1481.47 104.888H1481.89ZM1486.63 104.888C1487.96 104.888 1488.91 105.117 1489.49 105.576C1490.08 106.024 1490.37 106.696 1490.37 107.592C1490.38 108.307 1490.2 108.845 1489.83 109.208C1489.45 109.571 1488.81 109.752 1487.89 109.752H1483.47V108.424H1487.25C1487.6 108.424 1487.83 108.349 1487.92 108.2C1488.03 108.04 1488.08 107.821 1488.08 107.544C1488.08 107.171 1487.98 106.915 1487.76 106.776C1487.56 106.627 1487.21 106.552 1486.71 106.552C1486.27 106.541 1485.93 106.6 1485.68 106.728C1485.44 106.845 1485.27 107.069 1485.17 107.4C1485.07 107.731 1485.03 108.211 1485.03 108.84C1485.03 109.501 1485.08 110.013 1485.2 110.376C1485.32 110.728 1485.52 110.973 1485.79 111.112C1486.08 111.251 1486.48 111.32 1486.98 111.32C1487.34 111.32 1487.79 111.309 1488.32 111.288C1488.87 111.256 1489.41 111.208 1489.95 111.144L1490.18 112.6C1489.87 112.749 1489.52 112.867 1489.12 112.952C1488.73 113.037 1488.32 113.096 1487.91 113.128C1487.49 113.171 1487.09 113.192 1486.71 113.192C1485.7 113.192 1484.9 113.048 1484.29 112.76C1483.68 112.461 1483.24 112.008 1482.96 111.4C1482.7 110.792 1482.56 110.013 1482.56 109.064C1482.56 108.029 1482.7 107.208 1482.96 106.6C1483.24 105.992 1483.68 105.555 1484.27 105.288C1484.87 105.021 1485.66 104.888 1486.63 104.888ZM1495 102.904V110.472C1495 110.76 1495.07 110.968 1495.19 111.096C1495.33 111.213 1495.56 111.272 1495.87 111.272H1496.89L1497.15 112.872C1496.95 112.936 1496.72 112.989 1496.44 113.032C1496.16 113.085 1495.89 113.123 1495.61 113.144C1495.33 113.165 1495.1 113.176 1494.91 113.176C1494.19 113.176 1493.63 112.989 1493.23 112.616C1492.83 112.232 1492.63 111.693 1492.63 111V102.904H1495ZM1497.21 105.096V106.648H1491.26V105.176L1492.79 105.096H1497.21ZM1500.8 105.096V110.296C1500.8 110.627 1500.86 110.861 1501 111C1501.15 111.139 1501.39 111.208 1501.71 111.208C1502.04 111.208 1502.36 111.149 1502.68 111.032C1503.01 110.904 1503.42 110.707 1503.92 110.44L1504.09 111.736C1503.52 112.227 1502.95 112.595 1502.4 112.84C1501.85 113.085 1501.28 113.208 1500.68 113.208C1499.19 113.208 1498.44 112.477 1498.44 111.016V105.096H1500.8ZM1506.03 105.096V113H1504.17L1503.9 111.448L1503.66 111.224V105.096H1506.03ZM1509.82 105.096L1510.1 106.664L1510.33 106.872V113H1507.98V105.096H1509.82ZM1513.67 104.888L1513.45 107.064H1512.79C1512.42 107.064 1512.03 107.117 1511.62 107.224C1511.22 107.331 1510.71 107.496 1510.09 107.72L1509.93 106.392C1510.48 105.901 1511.04 105.528 1511.61 105.272C1512.17 105.016 1512.72 104.888 1513.26 104.888H1513.67ZM1520.29 104.888C1521.79 104.888 1522.53 105.619 1522.53 107.08V113H1520.16V107.816C1520.16 107.464 1520.1 107.224 1519.97 107.096C1519.84 106.957 1519.63 106.888 1519.32 106.888C1518.97 106.888 1518.62 106.957 1518.26 107.096C1517.9 107.224 1517.45 107.421 1516.92 107.688L1516.8 106.376C1517.37 105.896 1517.95 105.528 1518.53 105.272C1519.13 105.016 1519.72 104.888 1520.29 104.888ZM1516.69 105.096L1516.96 106.664L1517.16 106.872V113H1514.8V105.096H1516.69ZM1527.41 104.888C1527.79 104.888 1528.21 104.904 1528.65 104.936C1529.1 104.957 1529.54 104.989 1529.97 105.032C1530.39 105.075 1530.77 105.128 1531.1 105.192L1530.94 106.664C1530.43 106.653 1529.91 106.643 1529.39 106.632C1528.88 106.621 1528.38 106.616 1527.89 106.616C1527.47 106.616 1527.15 106.627 1526.93 106.648C1526.7 106.659 1526.54 106.707 1526.45 106.792C1526.36 106.867 1526.32 107.005 1526.32 107.208C1526.32 107.453 1526.4 107.619 1526.56 107.704C1526.72 107.779 1526.98 107.864 1527.36 107.96L1529.42 108.456C1530.08 108.627 1530.57 108.883 1530.89 109.224C1531.21 109.555 1531.37 110.056 1531.37 110.728C1531.37 111.389 1531.25 111.896 1531.01 112.248C1530.76 112.6 1530.37 112.845 1529.84 112.984C1529.3 113.112 1528.62 113.176 1527.77 113.176C1527.44 113.176 1526.95 113.16 1526.3 113.128C1525.65 113.096 1524.94 113.016 1524.17 112.888L1524.32 111.416C1524.52 111.427 1524.77 111.437 1525.05 111.448C1525.35 111.448 1525.68 111.448 1526.03 111.448C1526.38 111.448 1526.73 111.448 1527.09 111.448C1527.64 111.448 1528.06 111.437 1528.35 111.416C1528.64 111.384 1528.83 111.32 1528.94 111.224C1529.05 111.128 1529.1 110.984 1529.1 110.792C1529.1 110.547 1529.01 110.387 1528.83 110.312C1528.65 110.227 1528.36 110.131 1527.97 110.024L1525.97 109.528C1525.45 109.389 1525.06 109.213 1524.78 109C1524.5 108.787 1524.31 108.531 1524.19 108.232C1524.08 107.923 1524.03 107.555 1524.03 107.128C1524.03 106.584 1524.14 106.147 1524.37 105.816C1524.59 105.485 1524.95 105.251 1525.44 105.112C1525.93 104.963 1526.58 104.888 1527.41 104.888ZM1359.94 123.888C1360.98 123.888 1361.73 124.208 1362.18 124.848C1362.63 125.477 1362.86 126.523 1362.86 127.984C1362.86 128.592 1362.81 129.152 1362.69 129.664C1362.58 130.176 1362.38 130.624 1362.1 131.008C1361.82 131.381 1361.43 131.675 1360.93 131.888C1360.43 132.091 1359.78 132.192 1358.98 132.192C1358.7 132.192 1358.38 132.176 1358.02 132.144C1357.65 132.123 1357.28 132.085 1356.9 132.032C1356.52 131.989 1356.17 131.931 1355.82 131.856C1355.48 131.771 1355.19 131.675 1354.94 131.568L1356.83 130.208C1357.03 130.272 1357.26 130.331 1357.5 130.384C1357.75 130.427 1358 130.459 1358.26 130.48C1358.51 130.491 1358.74 130.491 1358.93 130.48C1359.3 130.469 1359.59 130.395 1359.81 130.256C1360.02 130.107 1360.18 129.856 1360.27 129.504C1360.38 129.141 1360.43 128.64 1360.43 128C1360.43 127.413 1360.39 126.96 1360.3 126.64C1360.23 126.309 1360.09 126.08 1359.87 125.952C1359.67 125.813 1359.38 125.744 1358.99 125.744C1358.64 125.744 1358.32 125.819 1358.03 125.968C1357.74 126.117 1357.42 126.309 1357.07 126.544L1356.9 125.44C1357.17 125.141 1357.47 124.875 1357.79 124.64C1358.11 124.405 1358.45 124.224 1358.82 124.096C1359.18 123.957 1359.55 123.888 1359.94 123.888ZM1357.31 120.8L1357.33 123.36C1357.33 123.723 1357.31 124.075 1357.26 124.416C1357.23 124.747 1357.17 125.072 1357.07 125.392L1357.3 125.6L1357.31 131.68L1354.94 131.568V120.8H1357.31ZM1372.3 124.096L1369.47 132.096C1369.34 132.491 1369.16 132.885 1368.93 133.28C1368.7 133.685 1368.41 134.048 1368.06 134.368C1367.72 134.688 1367.31 134.928 1366.81 135.088C1366.33 135.248 1365.76 135.291 1365.1 135.216L1364.93 133.872C1365.58 133.701 1366.08 133.472 1366.45 133.184C1366.81 132.896 1367.09 132.517 1367.29 132.048L1367.79 130.944C1367.89 130.709 1367.98 130.427 1368.06 130.096C1368.16 129.755 1368.24 129.461 1368.3 129.216L1369.79 124.096H1372.3ZM1366.03 124.096L1367.53 129.216C1367.58 129.419 1367.62 129.621 1367.66 129.824C1367.71 130.027 1367.74 130.229 1367.77 130.432H1368.21L1367.45 132H1366.88C1366.7 132 1366.54 131.947 1366.4 131.84C1366.26 131.733 1366.16 131.595 1366.11 131.424L1363.52 124.096H1366.03ZM1379.34 121.904V129.472C1379.34 129.76 1379.41 129.968 1379.54 130.096C1379.68 130.213 1379.9 130.272 1380.21 130.272H1381.23L1381.49 131.872C1381.3 131.936 1381.06 131.989 1380.78 132.032C1380.51 132.085 1380.23 132.123 1379.95 132.144C1379.68 132.165 1379.44 132.176 1379.25 132.176C1378.53 132.176 1377.97 131.989 1377.57 131.616C1377.17 131.232 1376.98 130.693 1376.98 130V121.904H1379.34ZM1381.55 124.096V125.648H1375.6V124.176L1377.14 124.096H1381.55ZM1390.77 124.096L1387.94 132.096C1387.81 132.491 1387.63 132.885 1387.4 133.28C1387.17 133.685 1386.88 134.048 1386.53 134.368C1386.19 134.688 1385.77 134.928 1385.28 135.088C1384.8 135.248 1384.23 135.291 1383.57 135.216L1383.4 133.872C1384.05 133.701 1384.55 133.472 1384.92 133.184C1385.28 132.896 1385.56 132.517 1385.76 132.048L1386.26 130.944C1386.36 130.709 1386.45 130.427 1386.53 130.096C1386.63 129.755 1386.71 129.461 1386.77 129.216L1388.26 124.096H1390.77ZM1384.5 124.096L1386 129.216C1386.05 129.419 1386.09 129.621 1386.13 129.824C1386.17 130.027 1386.21 130.229 1386.24 130.432H1386.68L1385.92 132H1385.35C1385.17 132 1385.01 131.947 1384.87 131.84C1384.73 131.733 1384.63 131.595 1384.58 131.424L1381.99 124.096H1384.5ZM1397.08 123.904C1398.07 123.904 1398.78 124.267 1399.21 124.992C1399.64 125.717 1399.85 126.757 1399.85 128.112C1399.85 129.168 1399.74 129.995 1399.51 130.592C1399.3 131.179 1398.97 131.595 1398.52 131.84C1398.08 132.085 1397.54 132.208 1396.87 132.208C1396.31 132.208 1395.77 132.128 1395.26 131.968C1394.75 131.808 1394.29 131.541 1393.9 131.168L1394.06 130.112C1394.41 130.219 1394.73 130.315 1395.02 130.4C1395.32 130.475 1395.65 130.512 1396.03 130.512C1396.37 130.512 1396.64 130.453 1396.84 130.336C1397.04 130.219 1397.19 129.989 1397.29 129.648C1397.39 129.296 1397.43 128.789 1397.43 128.128C1397.43 127.477 1397.39 126.976 1397.29 126.624C1397.2 126.272 1397.07 126.032 1396.87 125.904C1396.69 125.776 1396.45 125.712 1396.14 125.712C1395.79 125.712 1395.47 125.776 1395.18 125.904C1394.89 126.032 1394.56 126.224 1394.2 126.48L1393.9 125.392C1394.11 125.104 1394.38 124.848 1394.71 124.624C1395.06 124.4 1395.43 124.224 1395.83 124.096C1396.24 123.968 1396.66 123.904 1397.08 123.904ZM1393.8 124.096L1394.03 125.536L1394.25 125.776V130.912L1394.17 131.104C1394.2 131.424 1394.22 131.755 1394.23 132.096C1394.26 132.437 1394.26 132.779 1394.25 133.12V135.04H1391.9V124.096H1393.8ZM1405.22 123.888C1406.55 123.888 1407.51 124.117 1408.08 124.576C1408.67 125.024 1408.96 125.696 1408.96 126.592C1408.97 127.307 1408.79 127.845 1408.42 128.208C1408.05 128.571 1407.4 128.752 1406.48 128.752H1402.07V127.424H1405.84C1406.2 127.424 1406.42 127.349 1406.52 127.2C1406.62 127.04 1406.68 126.821 1406.68 126.544C1406.68 126.171 1406.57 125.915 1406.36 125.776C1406.15 125.627 1405.8 125.552 1405.3 125.552C1404.86 125.541 1404.52 125.6 1404.28 125.728C1404.03 125.845 1403.86 126.069 1403.76 126.4C1403.67 126.731 1403.62 127.211 1403.62 127.84C1403.62 128.501 1403.68 129.013 1403.8 129.376C1403.91 129.728 1404.11 129.973 1404.39 130.112C1404.68 130.251 1405.07 130.32 1405.57 130.32C1405.93 130.32 1406.38 130.309 1406.92 130.288C1407.46 130.256 1408 130.208 1408.55 130.144L1408.77 131.6C1408.46 131.749 1408.11 131.867 1407.72 131.952C1407.32 132.037 1406.92 132.096 1406.5 132.128C1406.08 132.171 1405.68 132.192 1405.3 132.192C1404.3 132.192 1403.49 132.048 1402.88 131.76C1402.28 131.461 1401.83 131.008 1401.56 130.4C1401.29 129.792 1401.16 129.013 1401.16 128.064C1401.16 127.029 1401.29 126.208 1401.56 125.6C1401.83 124.992 1402.27 124.555 1402.87 124.288C1403.46 124.021 1404.25 123.888 1405.22 123.888Z" fill="#003A69"/>
<path d="M913.424 104.768C913.947 104.768 914.389 104.784 914.752 104.816C915.125 104.837 915.467 104.875 915.776 104.928C916.085 104.981 916.405 105.051 916.736 105.136L916.544 106.944C916.192 106.923 915.867 106.907 915.568 106.896C915.28 106.885 914.965 106.875 914.624 106.864C914.293 106.853 913.893 106.848 913.424 106.848C912.88 106.848 912.453 106.96 912.144 107.184C911.845 107.397 911.632 107.765 911.504 108.288C911.376 108.811 911.312 109.541 911.312 110.48C911.312 111.408 911.376 112.139 911.504 112.672C911.632 113.195 911.845 113.563 912.144 113.776C912.453 113.989 912.88 114.096 913.424 114.096C914.16 114.096 914.779 114.085 915.28 114.064C915.781 114.043 916.277 114.005 916.768 113.952L916.976 115.744C916.464 115.904 915.941 116.016 915.408 116.08C914.875 116.155 914.213 116.192 913.424 116.192C912.283 116.192 911.371 116.011 910.688 115.648C910.005 115.275 909.509 114.672 909.2 113.84C908.901 113.008 908.752 111.888 908.752 110.48C908.752 109.072 908.901 107.952 909.2 107.12C909.509 106.288 910.005 105.691 910.688 105.328C911.371 104.955 912.283 104.768 913.424 104.768ZM920.686 108.096V113.296C920.686 113.627 920.756 113.861 920.894 114C921.044 114.139 921.278 114.208 921.598 114.208C921.929 114.208 922.254 114.149 922.574 114.032C922.905 113.904 923.316 113.707 923.806 113.44L923.982 114.736C923.406 115.227 922.841 115.595 922.286 115.84C921.742 116.085 921.172 116.208 920.574 116.208C919.081 116.208 918.334 115.477 918.334 114.016V108.096H920.686ZM925.918 108.096V116H924.062L923.79 114.448L923.55 114.224V108.096H925.918ZM930.859 107.888C931.243 107.888 931.659 107.904 932.107 107.936C932.555 107.957 932.992 107.989 933.419 108.032C933.845 108.075 934.224 108.128 934.555 108.192L934.395 109.664C933.883 109.653 933.365 109.643 932.843 109.632C932.331 109.621 931.829 109.616 931.339 109.616C930.923 109.616 930.603 109.627 930.379 109.648C930.155 109.659 929.995 109.707 929.899 109.792C929.813 109.867 929.771 110.005 929.771 110.208C929.771 110.453 929.851 110.619 930.011 110.704C930.171 110.779 930.437 110.864 930.811 110.96L932.875 111.456C933.536 111.627 934.027 111.883 934.347 112.224C934.667 112.555 934.827 113.056 934.827 113.728C934.827 114.389 934.704 114.896 934.459 115.248C934.213 115.6 933.824 115.845 933.291 115.984C932.757 116.112 932.069 116.176 931.227 116.176C930.896 116.176 930.405 116.16 929.755 116.128C929.104 116.096 928.395 116.016 927.627 115.888L927.771 114.416C927.973 114.427 928.219 114.437 928.507 114.448C928.805 114.448 929.131 114.448 929.483 114.448C929.835 114.448 930.187 114.448 930.539 114.448C931.093 114.448 931.515 114.437 931.803 114.416C932.091 114.384 932.288 114.32 932.395 114.224C932.501 114.128 932.555 113.984 932.555 113.792C932.555 113.547 932.464 113.387 932.283 113.312C932.101 113.227 931.813 113.131 931.419 113.024L929.419 112.528C928.907 112.389 928.512 112.213 928.235 112C927.957 111.787 927.76 111.531 927.643 111.232C927.536 110.923 927.483 110.555 927.483 110.128C927.483 109.584 927.595 109.147 927.819 108.816C928.043 108.485 928.4 108.251 928.891 108.112C929.381 107.963 930.037 107.888 930.859 107.888ZM939.439 105.904V113.472C939.439 113.76 939.503 113.968 939.631 114.096C939.769 114.213 939.993 114.272 940.303 114.272H941.327L941.583 115.872C941.391 115.936 941.156 115.989 940.879 116.032C940.601 116.085 940.324 116.123 940.047 116.144C939.769 116.165 939.535 116.176 939.343 116.176C938.628 116.176 938.068 115.989 937.663 115.616C937.268 115.232 937.071 114.693 937.071 114V105.904H939.439ZM941.647 108.096V109.648H935.695V108.176L937.231 108.096H941.647ZM946.673 107.888C947.665 107.888 948.46 108.027 949.057 108.304C949.654 108.571 950.081 109.008 950.337 109.616C950.604 110.224 950.737 111.04 950.737 112.064C950.737 113.067 950.604 113.872 950.337 114.48C950.081 115.088 949.654 115.525 949.057 115.792C948.46 116.059 947.665 116.192 946.673 116.192C945.692 116.192 944.902 116.059 944.305 115.792C943.708 115.525 943.276 115.088 943.009 114.48C942.742 113.872 942.609 113.067 942.609 112.064C942.609 111.04 942.742 110.224 943.009 109.616C943.276 109.008 943.708 108.571 944.305 108.304C944.902 108.027 945.692 107.888 946.673 107.888ZM946.673 109.6C946.268 109.6 945.948 109.669 945.713 109.808C945.478 109.947 945.313 110.192 945.217 110.544C945.121 110.896 945.073 111.403 945.073 112.064C945.073 112.704 945.121 113.2 945.217 113.552C945.313 113.904 945.478 114.149 945.713 114.288C945.948 114.416 946.268 114.48 946.673 114.48C947.089 114.48 947.414 114.416 947.649 114.288C947.884 114.149 948.044 113.904 948.129 113.552C948.225 113.2 948.273 112.704 948.273 112.064C948.273 111.403 948.225 110.896 948.129 110.544C948.044 110.192 947.884 109.947 947.649 109.808C947.414 109.669 947.089 109.6 946.673 109.6ZM962.367 107.888C963.081 107.888 963.625 108.075 963.999 108.448C964.372 108.821 964.559 109.365 964.559 110.08V116H962.223V110.816C962.212 110.485 962.143 110.251 962.015 110.112C961.887 109.963 961.663 109.888 961.343 109.888C961.161 109.888 960.98 109.915 960.799 109.968C960.628 110.011 960.431 110.091 960.207 110.208C959.983 110.325 959.711 110.485 959.391 110.688L959.263 109.392C959.775 108.891 960.276 108.517 960.767 108.272C961.268 108.016 961.801 107.888 962.367 107.888ZM954.239 108.096L954.479 109.664L954.719 109.872V116H952.367V108.096H954.239ZM957.439 107.888C958.143 107.888 958.676 108.075 959.039 108.448C959.412 108.811 959.599 109.355 959.599 110.08V116H957.327V110.816C957.327 110.475 957.252 110.235 957.103 110.096C956.964 109.957 956.745 109.888 956.447 109.888C956.265 109.888 956.084 109.915 955.903 109.968C955.732 110.011 955.529 110.091 955.295 110.208C955.071 110.325 954.793 110.485 954.463 110.688L954.319 109.392C954.841 108.891 955.348 108.517 955.839 108.272C956.329 108.016 956.863 107.888 957.439 107.888ZM970.188 107.888C971.522 107.888 972.476 108.117 973.052 108.576C973.639 109.024 973.932 109.696 973.932 110.592C973.943 111.307 973.762 111.845 973.388 112.208C973.015 112.571 972.37 112.752 971.452 112.752H967.036V111.424H970.812C971.164 111.424 971.388 111.349 971.484 111.2C971.591 111.04 971.644 110.821 971.644 110.544C971.644 110.171 971.538 109.915 971.324 109.776C971.122 109.627 970.77 109.552 970.268 109.552C969.831 109.541 969.49 109.6 969.244 109.728C968.999 109.845 968.828 110.069 968.732 110.4C968.636 110.731 968.588 111.211 968.588 111.84C968.588 112.501 968.647 113.013 968.764 113.376C968.882 113.728 969.079 113.973 969.356 114.112C969.644 114.251 970.039 114.32 970.54 114.32C970.903 114.32 971.351 114.309 971.884 114.288C972.428 114.256 972.972 114.208 973.516 114.144L973.74 115.6C973.431 115.749 973.079 115.867 972.684 115.952C972.29 116.037 971.884 116.096 971.468 116.128C971.052 116.171 970.652 116.192 970.268 116.192C969.266 116.192 968.46 116.048 967.852 115.76C967.244 115.461 966.802 115.008 966.524 114.4C966.258 113.792 966.124 113.013 966.124 112.064C966.124 111.029 966.258 110.208 966.524 109.6C966.802 108.992 967.239 108.555 967.836 108.288C968.434 108.021 969.218 107.888 970.188 107.888ZM977.332 108.096L977.62 109.664L977.844 109.872V116H975.492V108.096H977.332ZM981.188 107.888L980.964 110.064H980.308C979.934 110.064 979.545 110.117 979.14 110.224C978.734 110.331 978.222 110.496 977.604 110.72L977.444 109.392C977.998 108.901 978.558 108.528 979.124 108.272C979.689 108.016 980.238 107.888 980.772 107.888H981.188Z" fill="#003A69"/>
<rect width="1920" height="89" fill="white"/>
<path d="M0 -9.91821e-05V89.0332H271.028L307 -9.91821e-05H0Z" fill="#003A69"/>
<path d="M175.01 54.2131H177.169V64.2302H182.027V66.0376H175.01V54.2131ZM169.877 61.055L168.949 58.143C168.72 57.4244 168.528 56.6162 168.353 55.9323H168.315C168.14 56.6162 167.965 57.4403 167.754 58.143L166.842 61.055H169.877ZM166.491 62.686L165.474 66.0376H163.246L167.034 54.2131H169.792L173.632 66.0376H171.316L170.246 62.686H166.491ZM158.71 56.0205H155.341V54.2131H164.271V56.0205H160.868V66.0376H158.71V56.0205ZM153.773 60.7919H149.315V64.2664H154.298V66.0376H147.158V54.2131H154.034V55.9843H149.315V59.038H153.773V60.7919ZM142.903 61.2127C142.832 59.6872 142.745 57.8452 142.762 56.2475H142.709C142.323 57.6861 141.833 59.2838 141.305 60.7745L139.587 65.8973H137.92L136.341 60.8454C135.884 59.3359 135.463 57.7223 135.148 56.2475H135.114C135.06 57.7917 134.989 59.6684 134.902 61.2849L134.639 66.0376H132.622L133.412 54.2131H136.253L137.797 58.9672C138.218 60.3538 138.587 61.7577 138.884 63.0721H138.936C139.253 61.7924 139.657 60.335 140.113 58.9498L141.744 54.2131H144.551L145.236 66.0376H143.131L142.903 61.2127ZM124.005 63.6866C124.708 64.09 125.76 64.4413 126.865 64.4413C128.25 64.4413 129.022 63.7921 129.022 62.8277C129.022 61.9327 128.425 61.4064 126.917 60.8627C124.969 60.16 123.724 59.1248 123.724 57.4244C123.724 55.4942 125.338 54.0208 127.9 54.0208C129.18 54.0208 130.128 54.3013 130.741 54.6165L130.215 56.353C129.794 56.126 128.97 55.7935 127.864 55.7935C126.496 55.7935 125.899 56.5294 125.899 57.2119C125.899 58.1257 126.583 58.5464 128.162 59.1609C130.215 59.933 131.214 60.9669 131.214 62.6701C131.214 64.5642 129.777 66.214 126.725 66.214C125.478 66.214 124.18 65.8626 123.532 65.4766L124.005 63.6866ZM118.574 61.055L117.644 58.143C117.417 57.4244 117.224 56.6162 117.049 55.9323H117.013C116.838 56.6162 116.663 57.4403 116.452 58.143L115.539 61.055H118.574ZM115.189 62.686L114.171 66.0376H111.942L115.731 54.2131H118.487L122.328 66.0376H120.013L118.943 62.686H115.189ZM104.776 59.599H106.057C107.513 59.599 108.425 58.8269 108.425 57.6514C108.425 56.353 107.513 55.7573 106.109 55.7573C105.425 55.7573 104.987 55.8094 104.776 55.8629V59.599ZM102.636 54.3707C103.443 54.2305 104.653 54.1249 105.898 54.1249C107.6 54.1249 108.758 54.4069 109.549 55.0734C110.198 55.6171 110.565 56.4412 110.565 57.4403C110.565 58.9672 109.53 60.0024 108.425 60.4073V60.4579C109.267 60.7745 109.776 61.5987 110.074 62.7381C110.442 64.2143 110.759 65.5807 111.003 66.0376H108.777C108.6 65.6877 108.32 64.7218 107.987 63.247C107.653 61.7057 107.092 61.2127 105.865 61.1779H104.776V66.0376H102.636V54.3707ZM94.9426 64.4775C95.2231 64.5107 95.5918 64.5295 96.0834 64.5295C97.4685 64.5295 98.6976 64.0018 98.6976 62.5472C98.6976 61.1779 97.5047 60.6169 96.0125 60.6169H94.9426V64.4775ZM94.9426 59.038H96.0472C97.538 59.038 98.3809 58.3368 98.3809 57.3362C98.3809 56.2316 97.5379 55.7212 96.1701 55.7212C95.5383 55.7212 95.171 55.7573 94.9426 55.8094V59.038ZM92.8027 54.3707C93.4866 54.2305 94.7329 54.1249 95.9417 54.1249C97.5379 54.1249 98.5212 54.3187 99.328 54.8797C100.065 55.3192 100.557 56.0899 100.557 57.0904C100.557 58.1777 99.8731 59.1783 98.5906 59.6525V59.6872C99.8369 60.0024 100.978 60.9856 100.978 62.6166C100.978 63.6692 100.521 64.4934 99.8369 65.0558C98.9954 65.7932 97.6088 66.1619 95.4515 66.1619C94.2572 66.1619 93.3463 66.0737 92.8027 66.0014V54.3707ZM79.1405 44.1368C79.1405 56.7449 68.9196 66.9658 56.3115 66.9658C43.7034 66.9658 33.4824 56.7449 33.4824 44.1368C33.4824 31.5301 43.7034 21.3077 56.3115 21.3077C68.9196 21.3077 79.1405 31.5301 79.1405 44.1368ZM216.695 48.0276V33.1799H212.549V51.4414H222.762V48.0276H216.695ZM150.45 48.0276V47.9741V33.1799H146.305V51.4414H156.516V48.0276H150.45ZM163.519 48.0291V47.9178L172.027 35.5641V33.1799H158.777V36.5936H166.664V36.702L158.687 48.1795V51.4414H172.164V48.0291H163.519ZM229.767 48.0291V47.9178L238.274 35.5641V33.1799H225.026V36.5936H232.91V36.702L224.933 48.1795V51.4414H238.41V48.0291H229.767ZM196.918 42.3656C196.918 45.9412 198.598 48.46 201.361 48.46C204.153 48.46 205.752 45.8082 205.752 42.2571C205.752 38.9793 204.182 36.1598 201.335 36.1598C198.544 36.1598 196.918 38.8159 196.918 42.3656ZM210.113 42.1212C210.113 48.1072 206.481 51.7392 201.144 51.7392C195.725 51.7392 192.556 47.6488 192.556 42.448C192.556 36.9739 196.05 32.8806 201.443 32.8806C207.051 32.8806 210.113 37.0809 210.113 42.1212ZM179.148 33.1799V40.1967H185.947V33.1799H190.067V51.4414H185.947V43.8013H179.148V51.4414H175.003V33.1799H179.148ZM142.064 43.7204H135.743V48.0537H143.25V51.4414H131.597V33.1799H142.869V36.5676H135.743V40.3587H142.064V43.7204ZM123.327 43.6654L122.189 39.7904C121.863 38.7075 121.538 37.3527 121.266 36.2683H121.214C120.942 37.3527 120.671 38.7335 120.373 39.7904L119.29 43.6654H123.327ZM118.694 46.7538L117.393 51.4414H113.112L118.694 33.1799H124.112L129.775 51.4414H125.334L123.922 46.7538H118.694ZM95.3474 51.4414L91.0127 33.1799H95.4299L96.8107 40.7129C97.2184 42.8803 97.5987 45.2371 97.8965 47.0791H97.9486C98.2479 45.1012 98.6816 42.9049 99.1429 40.658L100.687 33.1799H105.075L106.539 40.8734C106.946 43.0162 107.243 44.9667 107.516 46.9982H107.568C107.84 44.9667 108.246 42.8268 108.625 40.658L110.114 33.1799H114.315L109.6 51.4414H105.13L103.588 43.5844C103.233 41.7409 102.935 40.0348 102.719 37.9484H102.664C102.34 40.0073 102.042 41.7409 101.607 43.5844L99.8731 51.4414H95.3474Z" fill="white"/>
<path d="M73.6626 33.1797H70.9212L63.6224 50.9106L56.3221 33.1797H49.0161L61.3393 63.111L73.6626 33.1797ZM54.9413 54.2506L46.2675 33.1797H38.96L51.289 63.1211L54.9413 54.2506ZM59.5739 35.9182C59.5739 37.5825 59.7807 38.7637 61.4362 38.7637C63.0151 38.7637 63.1293 37.6056 63.1293 36.8089H62.0276C62.0276 37.6056 61.8656 37.9512 61.3668 37.9512C60.8174 37.9512 60.6815 37.409 60.6786 35.9182C60.6815 34.4275 60.8174 33.8868 61.3668 33.8868C61.8656 33.8868 62.0276 34.2323 62.0276 35.029H63.1293C63.1293 34.2323 63.0151 33.0742 61.4362 33.0742C59.7807 33.0742 59.5739 34.2555 59.5739 35.9182ZM64.1068 38.6553H65.8462C67.3108 38.6553 67.7258 37.7805 67.7258 35.8416C67.7258 34.2323 67.4496 33.1812 65.9156 33.1812H64.1068V38.6553ZM65.7016 37.8413H65.2114V33.9952H65.6784C66.5214 33.9952 66.6212 34.63 66.6212 35.872C66.6212 37.3583 66.4679 37.8413 65.7016 37.8413Z" fill="#003A69"/>
</g>
<defs>
<clipPath id="clip0_3019_7384">
<rect width="1920" height="1080" fill="white"/>
</clipPath>
</defs>
</svg>
