<svg width="1920" height="1080" viewBox="0 0 1920 1080" fill="none" xmlns="http://www.w3.org/2000/svg">
<g clip-path="url(#clip0_2606_10865)">
<rect width="1920" height="1080" fill="#F5F5F5"/>
<mask id="path-1-inside-1_2606_10865" fill="white">
<path d="M24 1038H1896V1065H24V1038Z"/>
</mask>
<path d="M24 1039H1896V1037H24V1039Z" fill="#99B0C3" mask="url(#path-1-inside-1_2606_10865)"/>
<path d="M1370.36 101.8C1371.33 101.8 1372.11 101.901 1372.71 102.104C1373.32 102.296 1373.76 102.627 1374.04 103.096C1374.33 103.565 1374.47 104.227 1374.47 105.08C1374.47 105.592 1374.4 106.045 1374.26 106.44C1374.14 106.824 1373.92 107.133 1373.61 107.368C1373.3 107.603 1372.88 107.752 1372.34 107.816V107.896C1372.54 107.928 1372.73 108.003 1372.94 108.12C1373.15 108.237 1373.35 108.413 1373.53 108.648C1373.71 108.872 1373.84 109.176 1373.93 109.56L1374.89 113H1372.33L1371.48 109.624C1371.37 109.261 1371.23 109.016 1371.05 108.888C1370.87 108.749 1370.61 108.68 1370.26 108.68C1369.54 108.669 1368.93 108.664 1368.44 108.664C1367.95 108.664 1367.53 108.659 1367.19 108.648C1366.86 108.637 1366.56 108.627 1366.28 108.616L1366.33 106.84H1370.31C1370.75 106.84 1371.09 106.797 1371.34 106.712C1371.58 106.616 1371.76 106.451 1371.86 106.216C1371.97 105.981 1372.02 105.651 1372.02 105.224C1372.02 104.797 1371.97 104.472 1371.86 104.248C1371.76 104.024 1371.58 103.869 1371.34 103.784C1371.09 103.688 1370.75 103.64 1370.31 103.64C1369.32 103.64 1368.47 103.645 1367.77 103.656C1367.07 103.667 1366.61 103.677 1366.36 103.688L1366.12 101.96C1366.57 101.907 1366.98 101.869 1367.37 101.848C1367.76 101.827 1368.19 101.816 1368.66 101.816C1369.13 101.805 1369.7 101.8 1370.36 101.8ZM1368.52 101.96V113H1366.12V101.96H1368.52ZM1379.99 104.888C1381.32 104.888 1382.27 105.117 1382.85 105.576C1383.44 106.024 1383.73 106.696 1383.73 107.592C1383.74 108.307 1383.56 108.845 1383.19 109.208C1382.81 109.571 1382.17 109.752 1381.25 109.752H1376.83V108.424H1380.61C1380.96 108.424 1381.19 108.349 1381.28 108.2C1381.39 108.04 1381.44 107.821 1381.44 107.544C1381.44 107.171 1381.33 106.915 1381.12 106.776C1380.92 106.627 1380.57 106.552 1380.07 106.552C1379.63 106.541 1379.29 106.6 1379.04 106.728C1378.8 106.845 1378.63 107.069 1378.53 107.4C1378.43 107.731 1378.39 108.211 1378.39 108.84C1378.39 109.501 1378.44 110.013 1378.56 110.376C1378.68 110.728 1378.88 110.973 1379.15 111.112C1379.44 111.251 1379.84 111.32 1380.34 111.32C1380.7 111.32 1381.15 111.309 1381.68 111.288C1382.23 111.256 1382.77 111.208 1383.31 111.144L1383.54 112.6C1383.23 112.749 1382.88 112.867 1382.48 112.952C1382.09 113.037 1381.68 113.096 1381.27 113.128C1380.85 113.171 1380.45 113.192 1380.07 113.192C1379.06 113.192 1378.26 113.048 1377.65 112.76C1377.04 112.461 1376.6 112.008 1376.32 111.4C1376.05 110.792 1375.92 110.013 1375.92 109.064C1375.92 108.029 1376.05 107.208 1376.32 106.6C1376.6 105.992 1377.04 105.555 1377.63 105.288C1378.23 105.021 1379.01 104.888 1379.99 104.888ZM1388.95 104.888C1389.24 104.888 1389.56 104.904 1389.9 104.936C1390.24 104.957 1390.58 105.005 1390.92 105.08C1391.27 105.144 1391.59 105.24 1391.88 105.368L1391.62 106.856C1391.2 106.835 1390.79 106.824 1390.39 106.824C1390.01 106.813 1389.66 106.808 1389.35 106.808C1388.87 106.808 1388.49 106.872 1388.22 107C1387.94 107.128 1387.74 107.352 1387.61 107.672C1387.49 107.992 1387.43 108.445 1387.43 109.032C1387.43 109.619 1387.49 110.077 1387.61 110.408C1387.74 110.739 1387.94 110.968 1388.22 111.096C1388.49 111.224 1388.87 111.288 1389.35 111.288C1389.52 111.288 1389.74 111.283 1390.01 111.272C1390.28 111.261 1390.56 111.251 1390.87 111.24C1391.18 111.219 1391.49 111.187 1391.78 111.144L1392.01 112.648C1391.58 112.84 1391.1 112.979 1390.55 113.064C1390.01 113.149 1389.47 113.192 1388.94 113.192C1387.97 113.192 1387.19 113.059 1386.6 112.792C1386.01 112.515 1385.59 112.072 1385.34 111.464C1385.08 110.856 1384.95 110.045 1384.95 109.032C1384.95 108.019 1385.08 107.208 1385.34 106.6C1385.6 105.992 1386.03 105.555 1386.62 105.288C1387.2 105.021 1387.98 104.888 1388.95 104.888ZM1395.8 101.8L1395.78 110.472C1395.78 110.739 1395.86 110.941 1396.02 111.08C1396.18 111.208 1396.42 111.272 1396.73 111.272H1397.37L1397.64 112.872C1397.51 112.936 1397.33 112.989 1397.09 113.032C1396.86 113.085 1396.62 113.123 1396.37 113.144C1396.13 113.165 1395.92 113.176 1395.75 113.176C1395.03 113.176 1394.47 112.995 1394.05 112.632C1393.65 112.259 1393.45 111.736 1393.45 111.064V101.8H1395.8ZM1402.84 104.888C1403.5 104.888 1404.06 104.979 1404.52 105.16C1404.98 105.331 1405.32 105.629 1405.56 106.056C1405.8 106.472 1405.93 107.043 1405.93 107.768V113H1404.06L1403.72 111.288L1403.56 111.048V107.768C1403.55 107.384 1403.45 107.112 1403.27 106.952C1403.1 106.781 1402.78 106.696 1402.3 106.696C1401.88 106.696 1401.37 106.712 1400.76 106.744C1400.15 106.765 1399.53 106.797 1398.89 106.84L1398.68 105.272C1399.06 105.197 1399.5 105.133 1399.99 105.08C1400.49 105.027 1400.99 104.984 1401.5 104.952C1402 104.909 1402.44 104.888 1402.84 104.888ZM1404.95 108.136L1404.94 109.464H1401.42C1401.13 109.475 1400.92 109.549 1400.79 109.688C1400.67 109.827 1400.62 110.013 1400.62 110.248V110.632C1400.62 110.899 1400.69 111.107 1400.84 111.256C1400.99 111.395 1401.23 111.464 1401.56 111.464C1401.84 111.464 1402.14 111.405 1402.46 111.288C1402.79 111.171 1403.11 111.005 1403.43 110.792C1403.75 110.579 1404.04 110.328 1404.3 110.04V111.064C1404.2 111.224 1404.06 111.427 1403.86 111.672C1403.67 111.907 1403.43 112.141 1403.14 112.376C1402.86 112.6 1402.52 112.792 1402.14 112.952C1401.75 113.101 1401.31 113.176 1400.82 113.176C1400.35 113.176 1399.92 113.096 1399.53 112.936C1399.14 112.765 1398.84 112.515 1398.62 112.184C1398.39 111.853 1398.28 111.443 1398.28 110.952V110.136C1398.28 109.507 1398.49 109.016 1398.92 108.664C1399.35 108.312 1399.93 108.136 1400.68 108.136H1404.95ZM1417.8 104.888C1418.52 104.888 1419.06 105.075 1419.44 105.448C1419.81 105.821 1420 106.365 1420 107.08V113H1417.66V107.816C1417.65 107.485 1417.58 107.251 1417.45 107.112C1417.32 106.963 1417.1 106.888 1416.78 106.888C1416.6 106.888 1416.42 106.915 1416.24 106.968C1416.07 107.011 1415.87 107.091 1415.64 107.208C1415.42 107.325 1415.15 107.485 1414.83 107.688L1414.7 106.392C1415.21 105.891 1415.71 105.517 1416.2 105.272C1416.71 105.016 1417.24 104.888 1417.8 104.888ZM1409.68 105.096L1409.92 106.664L1410.16 106.872V113H1407.8V105.096H1409.68ZM1412.88 104.888C1413.58 104.888 1414.11 105.075 1414.48 105.448C1414.85 105.811 1415.04 106.355 1415.04 107.08V113H1412.76V107.816C1412.76 107.475 1412.69 107.235 1412.54 107.096C1412.4 106.957 1412.18 106.888 1411.88 106.888C1411.7 106.888 1411.52 106.915 1411.34 106.968C1411.17 107.011 1410.97 107.091 1410.73 107.208C1410.51 107.325 1410.23 107.485 1409.9 107.688L1409.76 106.392C1410.28 105.891 1410.79 105.517 1411.28 105.272C1411.77 105.016 1412.3 104.888 1412.88 104.888ZM1426.06 104.888C1426.72 104.888 1427.28 104.979 1427.74 105.16C1428.2 105.331 1428.54 105.629 1428.78 106.056C1429.02 106.472 1429.15 107.043 1429.15 107.768V113H1427.27L1426.94 111.288L1426.78 111.048V107.768C1426.77 107.384 1426.67 107.112 1426.49 106.952C1426.32 106.781 1425.99 106.696 1425.51 106.696C1425.1 106.696 1424.59 106.712 1423.98 106.744C1423.37 106.765 1422.75 106.797 1422.11 106.84L1421.9 105.272C1422.28 105.197 1422.72 105.133 1423.21 105.08C1423.71 105.027 1424.21 104.984 1424.71 104.952C1425.22 104.909 1425.66 104.888 1426.06 104.888ZM1428.17 108.136L1428.15 109.464H1424.63C1424.35 109.475 1424.14 109.549 1424.01 109.688C1423.89 109.827 1423.83 110.013 1423.83 110.248V110.632C1423.83 110.899 1423.91 111.107 1424.06 111.256C1424.21 111.395 1424.45 111.464 1424.78 111.464C1425.06 111.464 1425.35 111.405 1425.67 111.288C1426 111.171 1426.33 111.005 1426.65 110.792C1426.97 110.579 1427.26 110.328 1427.51 110.04V111.064C1427.42 111.224 1427.27 111.427 1427.08 111.672C1426.89 111.907 1426.65 112.141 1426.36 112.376C1426.07 112.6 1425.74 112.792 1425.35 112.952C1424.97 113.101 1424.53 113.176 1424.04 113.176C1423.57 113.176 1423.14 113.096 1422.75 112.936C1422.36 112.765 1422.06 112.515 1421.83 112.184C1421.61 111.853 1421.5 111.443 1421.5 110.952V110.136C1421.5 109.507 1421.71 109.016 1422.14 108.664C1422.56 108.312 1423.15 108.136 1423.9 108.136H1428.17ZM1434.69 104.888C1434.97 104.888 1435.29 104.904 1435.63 104.936C1435.97 104.957 1436.31 105.005 1436.65 105.08C1437.01 105.144 1437.33 105.24 1437.61 105.368L1437.36 106.856C1436.93 106.835 1436.52 106.824 1436.13 106.824C1435.74 106.813 1435.4 106.808 1435.09 106.808C1434.61 106.808 1434.23 106.872 1433.95 107C1433.67 107.128 1433.47 107.352 1433.34 107.672C1433.23 107.992 1433.17 108.445 1433.17 109.032C1433.17 109.619 1433.23 110.077 1433.34 110.408C1433.47 110.739 1433.67 110.968 1433.95 111.096C1434.23 111.224 1434.61 111.288 1435.09 111.288C1435.26 111.288 1435.48 111.283 1435.74 111.272C1436.01 111.261 1436.3 111.251 1436.61 111.24C1436.92 111.219 1437.22 111.187 1437.52 111.144L1437.74 112.648C1437.32 112.84 1436.83 112.979 1436.29 113.064C1435.74 113.149 1435.2 113.192 1434.67 113.192C1433.7 113.192 1432.92 113.059 1432.33 112.792C1431.75 112.515 1431.33 112.072 1431.07 111.464C1430.81 110.856 1430.69 110.045 1430.69 109.032C1430.69 108.019 1430.81 107.208 1431.07 106.6C1431.34 105.992 1431.76 105.555 1432.35 105.288C1432.94 105.021 1433.72 104.888 1434.69 104.888ZM1433.6 113.832C1434.14 113.768 1434.59 113.747 1434.93 113.768C1435.27 113.8 1435.52 113.896 1435.68 114.056C1435.84 114.227 1435.91 114.499 1435.9 114.872C1435.88 115.395 1435.73 115.827 1435.44 116.168C1435.15 116.52 1434.77 116.765 1434.29 116.904C1433.82 117.053 1433.28 117.091 1432.69 117.016L1432.97 116.024C1433.37 116.035 1433.7 115.965 1433.97 115.816C1434.24 115.667 1434.39 115.416 1434.41 115.064C1434.43 114.915 1434.37 114.819 1434.24 114.776C1434.11 114.744 1433.82 114.728 1433.37 114.728L1433.6 113.832ZM1442.81 104.888C1443.81 104.888 1444.6 105.027 1445.2 105.304C1445.8 105.571 1446.22 106.008 1446.48 106.616C1446.74 107.224 1446.88 108.04 1446.88 109.064C1446.88 110.067 1446.74 110.872 1446.48 111.48C1446.22 112.088 1445.8 112.525 1445.2 112.792C1444.6 113.059 1443.81 113.192 1442.81 113.192C1441.83 113.192 1441.04 113.059 1440.45 112.792C1439.85 112.525 1439.42 112.088 1439.15 111.48C1438.88 110.872 1438.75 110.067 1438.75 109.064C1438.75 108.04 1438.88 107.224 1439.15 106.616C1439.42 106.008 1439.85 105.571 1440.45 105.304C1441.04 105.027 1441.83 104.888 1442.81 104.888ZM1442.81 106.6C1442.41 106.6 1442.09 106.669 1441.85 106.808C1441.62 106.947 1441.45 107.192 1441.36 107.544C1441.26 107.896 1441.21 108.403 1441.21 109.064C1441.21 109.704 1441.26 110.2 1441.36 110.552C1441.45 110.904 1441.62 111.149 1441.85 111.288C1442.09 111.416 1442.41 111.48 1442.81 111.48C1443.23 111.48 1443.56 111.416 1443.79 111.288C1444.02 111.149 1444.18 110.904 1444.27 110.552C1444.37 110.2 1444.41 109.704 1444.41 109.064C1444.41 108.403 1444.37 107.896 1444.27 107.544C1444.18 107.192 1444.02 106.947 1443.79 106.808C1443.56 106.669 1443.23 106.6 1442.81 106.6ZM1441.34 101.576C1441.61 101.597 1441.85 101.645 1442.06 101.72C1442.28 101.784 1442.48 101.859 1442.67 101.944C1442.87 102.029 1443.07 102.115 1443.26 102.2C1443.46 102.275 1443.67 102.328 1443.89 102.36C1444.16 102.403 1444.33 102.365 1444.4 102.248C1444.47 102.131 1444.51 101.933 1444.51 101.656H1445.53C1445.65 102.403 1445.58 102.973 1445.31 103.368C1445.04 103.763 1444.68 103.944 1444.22 103.912C1443.86 103.88 1443.53 103.805 1443.23 103.688C1442.94 103.571 1442.67 103.453 1442.41 103.336C1442.17 103.219 1441.92 103.144 1441.66 103.112C1441.4 103.069 1441.22 103.112 1441.15 103.24C1441.09 103.357 1441.05 103.56 1441.05 103.848H1440.05C1439.96 103.315 1439.97 102.877 1440.08 102.536C1440.2 102.195 1440.37 101.944 1440.59 101.784C1440.82 101.624 1441.08 101.555 1441.34 101.576ZM1452.24 104.888C1453.57 104.888 1454.52 105.117 1455.1 105.576C1455.69 106.024 1455.98 106.696 1455.98 107.592C1455.99 108.307 1455.81 108.845 1455.44 109.208C1455.06 109.571 1454.42 109.752 1453.5 109.752H1449.08V108.424H1452.86C1453.21 108.424 1453.44 108.349 1453.53 108.2C1453.64 108.04 1453.69 107.821 1453.69 107.544C1453.69 107.171 1453.58 106.915 1453.37 106.776C1453.17 106.627 1452.82 106.552 1452.32 106.552C1451.88 106.541 1451.54 106.6 1451.29 106.728C1451.05 106.845 1450.88 107.069 1450.78 107.4C1450.68 107.731 1450.64 108.211 1450.64 108.84C1450.64 109.501 1450.69 110.013 1450.81 110.376C1450.93 110.728 1451.13 110.973 1451.4 111.112C1451.69 111.251 1452.09 111.32 1452.59 111.32C1452.95 111.32 1453.4 111.309 1453.93 111.288C1454.48 111.256 1455.02 111.208 1455.56 111.144L1455.79 112.6C1455.48 112.749 1455.13 112.867 1454.73 112.952C1454.34 113.037 1453.93 113.096 1453.52 113.128C1453.1 113.171 1452.7 113.192 1452.32 113.192C1451.31 113.192 1450.51 113.048 1449.9 112.76C1449.29 112.461 1448.85 112.008 1448.57 111.4C1448.3 110.792 1448.17 110.013 1448.17 109.064C1448.17 108.029 1448.3 107.208 1448.57 106.6C1448.85 105.992 1449.29 105.555 1449.88 105.288C1450.48 105.021 1451.26 104.888 1452.24 104.888ZM1460.53 104.888C1460.91 104.888 1461.33 104.904 1461.78 104.936C1462.23 104.957 1462.66 104.989 1463.09 105.032C1463.52 105.075 1463.9 105.128 1464.23 105.192L1464.07 106.664C1463.55 106.653 1463.04 106.643 1462.51 106.632C1462 106.621 1461.5 106.616 1461.01 106.616C1460.59 106.616 1460.27 106.627 1460.05 106.648C1459.83 106.659 1459.67 106.707 1459.57 106.792C1459.49 106.867 1459.44 107.005 1459.44 107.208C1459.44 107.453 1459.52 107.619 1459.68 107.704C1459.84 107.779 1460.11 107.864 1460.48 107.96L1462.55 108.456C1463.21 108.627 1463.7 108.883 1464.02 109.224C1464.34 109.555 1464.5 110.056 1464.5 110.728C1464.5 111.389 1464.38 111.896 1464.13 112.248C1463.89 112.6 1463.5 112.845 1462.96 112.984C1462.43 113.112 1461.74 113.176 1460.9 113.176C1460.57 113.176 1460.08 113.16 1459.43 113.128C1458.78 113.096 1458.07 113.016 1457.3 112.888L1457.44 111.416C1457.65 111.427 1457.89 111.437 1458.18 111.448C1458.48 111.448 1458.8 111.448 1459.15 111.448C1459.51 111.448 1459.86 111.448 1460.21 111.448C1460.77 111.448 1461.19 111.437 1461.47 111.416C1461.76 111.384 1461.96 111.32 1462.07 111.224C1462.17 111.128 1462.23 110.984 1462.23 110.792C1462.23 110.547 1462.14 110.387 1461.95 110.312C1461.77 110.227 1461.49 110.131 1461.09 110.024L1459.09 109.528C1458.58 109.389 1458.18 109.213 1457.91 109C1457.63 108.787 1457.43 108.531 1457.31 108.232C1457.21 107.923 1457.15 107.555 1457.15 107.128C1457.15 106.584 1457.27 106.147 1457.49 105.816C1457.71 105.485 1458.07 105.251 1458.56 105.112C1459.05 104.963 1459.71 104.888 1460.53 104.888ZM1473.24 104.888C1474.57 104.888 1475.52 105.117 1476.1 105.576C1476.69 106.024 1476.98 106.696 1476.98 107.592C1476.99 108.307 1476.81 108.845 1476.44 109.208C1476.06 109.571 1475.42 109.752 1474.5 109.752H1470.08V108.424H1473.86C1474.21 108.424 1474.44 108.349 1474.53 108.2C1474.64 108.04 1474.69 107.821 1474.69 107.544C1474.69 107.171 1474.58 106.915 1474.37 106.776C1474.17 106.627 1473.82 106.552 1473.32 106.552C1472.88 106.541 1472.54 106.6 1472.29 106.728C1472.05 106.845 1471.88 107.069 1471.78 107.4C1471.68 107.731 1471.64 108.211 1471.64 108.84C1471.64 109.501 1471.69 110.013 1471.81 110.376C1471.93 110.728 1472.13 110.973 1472.4 111.112C1472.69 111.251 1473.09 111.32 1473.59 111.32C1473.95 111.32 1474.4 111.309 1474.93 111.288C1475.48 111.256 1476.02 111.208 1476.56 111.144L1476.79 112.6C1476.48 112.749 1476.13 112.867 1475.73 112.952C1475.34 113.037 1474.93 113.096 1474.52 113.128C1474.1 113.171 1473.7 113.192 1473.32 113.192C1472.31 113.192 1471.51 113.048 1470.9 112.76C1470.29 112.461 1469.85 112.008 1469.57 111.4C1469.3 110.792 1469.17 110.013 1469.17 109.064C1469.17 108.029 1469.3 107.208 1469.57 106.6C1469.85 105.992 1470.29 105.555 1470.88 105.288C1471.48 105.021 1472.26 104.888 1473.24 104.888ZM1484.7 104.888C1485.26 104.888 1485.8 104.968 1486.31 105.128C1486.82 105.288 1487.28 105.549 1487.67 105.912L1487.51 106.984C1487.16 106.877 1486.83 106.787 1486.54 106.712C1486.25 106.627 1485.91 106.584 1485.53 106.584C1485.2 106.584 1484.93 106.643 1484.73 106.76C1484.52 106.877 1484.38 107.107 1484.28 107.448C1484.18 107.789 1484.14 108.296 1484.14 108.968C1484.14 109.597 1484.18 110.077 1484.26 110.408C1484.36 110.728 1484.5 110.952 1484.7 111.08C1484.9 111.197 1485.15 111.256 1485.46 111.256C1485.74 111.256 1485.98 111.229 1486.18 111.176C1486.39 111.112 1486.59 111.021 1486.79 110.904C1486.99 110.776 1487.23 110.621 1487.5 110.44L1487.66 111.608C1487.34 112.056 1486.92 112.435 1486.41 112.744C1485.9 113.043 1485.27 113.192 1484.52 113.192C1483.51 113.192 1482.78 112.829 1482.34 112.104C1481.92 111.379 1481.7 110.339 1481.7 108.984C1481.7 107.928 1481.82 107.107 1482.04 106.52C1482.26 105.923 1482.59 105.501 1483.03 105.256C1483.48 105.011 1484.03 104.888 1484.7 104.888ZM1489.61 101.8V113H1487.74L1487.5 111.544L1487.24 111.368V106.184L1487.34 105.96C1487.3 105.64 1487.28 105.315 1487.26 104.984C1487.24 104.643 1487.24 104.296 1487.24 103.944V101.8H1489.61ZM1495.28 104.888C1496.62 104.888 1497.57 105.117 1498.15 105.576C1498.73 106.024 1499.03 106.696 1499.03 107.592C1499.04 108.307 1498.86 108.845 1498.48 109.208C1498.11 109.571 1497.46 109.752 1496.55 109.752H1492.13V108.424H1495.91C1496.26 108.424 1496.48 108.349 1496.58 108.2C1496.68 108.04 1496.74 107.821 1496.74 107.544C1496.74 107.171 1496.63 106.915 1496.42 106.776C1496.22 106.627 1495.86 106.552 1495.36 106.552C1494.92 106.541 1494.58 106.6 1494.34 106.728C1494.09 106.845 1493.92 107.069 1493.83 107.4C1493.73 107.731 1493.68 108.211 1493.68 108.84C1493.68 109.501 1493.74 110.013 1493.86 110.376C1493.98 110.728 1494.17 110.973 1494.45 111.112C1494.74 111.251 1495.13 111.32 1495.63 111.32C1496 111.32 1496.44 111.309 1496.98 111.288C1497.52 111.256 1498.07 111.208 1498.61 111.144L1498.83 112.6C1498.52 112.749 1498.17 112.867 1497.78 112.952C1497.38 113.037 1496.98 113.096 1496.56 113.128C1496.15 113.171 1495.75 113.192 1495.36 113.192C1494.36 113.192 1493.55 113.048 1492.95 112.76C1492.34 112.461 1491.9 112.008 1491.62 111.4C1491.35 110.792 1491.22 110.013 1491.22 109.064C1491.22 108.029 1491.35 107.208 1491.62 106.6C1491.9 105.992 1492.33 105.555 1492.93 105.288C1493.53 105.021 1494.31 104.888 1495.28 104.888ZM1508.46 105.096L1505.85 112.44C1505.79 112.611 1505.69 112.749 1505.55 112.856C1505.42 112.952 1505.26 113 1505.08 113H1503.04C1502.85 113 1502.69 112.952 1502.56 112.856C1502.42 112.749 1502.32 112.611 1502.27 112.44L1499.66 105.096H1502.16L1503.61 110.04C1503.68 110.275 1503.73 110.515 1503.79 110.76C1503.84 111.005 1503.89 111.24 1503.95 111.464H1504.16C1504.22 111.229 1504.28 110.995 1504.33 110.76C1504.4 110.515 1504.46 110.275 1504.52 110.04L1505.96 105.096H1508.46ZM1513.17 104.888C1514.17 104.888 1514.96 105.027 1515.56 105.304C1516.15 105.571 1516.58 106.008 1516.84 106.616C1517.1 107.224 1517.24 108.04 1517.24 109.064C1517.24 110.067 1517.1 110.872 1516.84 111.48C1516.58 112.088 1516.15 112.525 1515.56 112.792C1514.96 113.059 1514.17 113.192 1513.17 113.192C1512.19 113.192 1511.4 113.059 1510.81 112.792C1510.21 112.525 1509.78 112.088 1509.51 111.48C1509.24 110.872 1509.11 110.067 1509.11 109.064C1509.11 108.04 1509.24 107.224 1509.51 106.616C1509.78 106.008 1510.21 105.571 1510.81 105.304C1511.4 105.027 1512.19 104.888 1513.17 104.888ZM1513.17 106.6C1512.77 106.6 1512.45 106.669 1512.21 106.808C1511.98 106.947 1511.81 107.192 1511.72 107.544C1511.62 107.896 1511.57 108.403 1511.57 109.064C1511.57 109.704 1511.62 110.2 1511.72 110.552C1511.81 110.904 1511.98 111.149 1512.21 111.288C1512.45 111.416 1512.77 111.48 1513.17 111.48C1513.59 111.48 1513.91 111.416 1514.15 111.288C1514.38 111.149 1514.54 110.904 1514.63 110.552C1514.73 110.2 1514.77 109.704 1514.77 109.064C1514.77 108.403 1514.73 107.896 1514.63 107.544C1514.54 107.192 1514.38 106.947 1514.15 106.808C1513.91 106.669 1513.59 106.6 1513.17 106.6ZM1521.23 101.8L1521.22 110.472C1521.22 110.739 1521.3 110.941 1521.46 111.08C1521.62 111.208 1521.85 111.272 1522.16 111.272H1522.8L1523.07 112.872C1522.95 112.936 1522.77 112.989 1522.53 113.032C1522.3 113.085 1522.06 113.123 1521.81 113.144C1521.57 113.165 1521.36 113.176 1521.19 113.176C1520.47 113.176 1519.91 112.995 1519.49 112.632C1519.09 112.259 1518.88 111.736 1518.88 111.064V101.8H1521.23ZM1526.42 105.096V110.296C1526.42 110.627 1526.49 110.861 1526.63 111C1526.78 111.139 1527.01 111.208 1527.33 111.208C1527.66 111.208 1527.99 111.149 1528.31 111.032C1528.64 110.904 1529.05 110.707 1529.54 110.44L1529.72 111.736C1529.14 112.227 1528.58 112.595 1528.02 112.84C1527.48 113.085 1526.91 113.208 1526.31 113.208C1524.82 113.208 1524.07 112.477 1524.07 111.016V105.096H1526.42ZM1531.65 105.096V113H1529.8L1529.52 111.448L1529.28 111.224V105.096H1531.65ZM1537.27 104.888C1537.55 104.888 1537.87 104.904 1538.21 104.936C1538.55 104.957 1538.89 105.005 1539.23 105.08C1539.59 105.144 1539.91 105.24 1540.19 105.368L1539.94 106.856C1539.51 106.835 1539.1 106.824 1538.71 106.824C1538.32 106.813 1537.97 106.808 1537.67 106.808C1537.19 106.808 1536.81 106.872 1536.53 107C1536.25 107.128 1536.05 107.352 1535.92 107.672C1535.8 107.992 1535.75 108.445 1535.75 109.032C1535.75 109.619 1535.8 110.077 1535.92 110.408C1536.05 110.739 1536.25 110.968 1536.53 111.096C1536.81 111.224 1537.19 111.288 1537.67 111.288C1537.84 111.288 1538.05 111.283 1538.32 111.272C1538.59 111.261 1538.88 111.251 1539.19 111.24C1539.49 111.219 1539.8 111.187 1540.1 111.144L1540.32 112.648C1539.89 112.84 1539.41 112.979 1538.87 113.064C1538.32 113.149 1537.78 113.192 1537.25 113.192C1536.28 113.192 1535.5 113.059 1534.91 112.792C1534.33 112.515 1533.91 112.072 1533.65 111.464C1533.39 110.856 1533.27 110.045 1533.27 109.032C1533.27 108.019 1533.39 107.208 1533.65 106.6C1533.92 105.992 1534.34 105.555 1534.93 105.288C1535.52 105.021 1536.29 104.888 1537.27 104.888ZM1536.18 113.832C1536.72 113.768 1537.16 113.747 1537.51 113.768C1537.85 113.8 1538.1 113.896 1538.26 114.056C1538.42 114.227 1538.49 114.499 1538.48 114.872C1538.46 115.395 1538.31 115.827 1538.02 116.168C1537.73 116.52 1537.35 116.765 1536.87 116.904C1536.4 117.053 1535.86 117.091 1535.27 117.016L1535.55 116.024C1535.95 116.035 1536.28 115.965 1536.55 115.816C1536.82 115.667 1536.97 115.416 1536.99 115.064C1537 114.915 1536.95 114.819 1536.82 114.776C1536.69 114.744 1536.4 114.728 1535.95 114.728L1536.18 113.832ZM1545.39 104.888C1546.38 104.888 1547.18 105.027 1547.78 105.304C1548.37 105.571 1548.8 106.008 1549.06 106.616C1549.32 107.224 1549.46 108.04 1549.46 109.064C1549.46 110.067 1549.32 110.872 1549.06 111.48C1548.8 112.088 1548.37 112.525 1547.78 112.792C1547.18 113.059 1546.38 113.192 1545.39 113.192C1544.41 113.192 1543.62 113.059 1543.02 112.792C1542.43 112.525 1541.99 112.088 1541.73 111.48C1541.46 110.872 1541.33 110.067 1541.33 109.064C1541.33 108.04 1541.46 107.224 1541.73 106.616C1541.99 106.008 1542.43 105.571 1543.02 105.304C1543.62 105.027 1544.41 104.888 1545.39 104.888ZM1545.39 106.6C1544.99 106.6 1544.67 106.669 1544.43 106.808C1544.2 106.947 1544.03 107.192 1543.94 107.544C1543.84 107.896 1543.79 108.403 1543.79 109.064C1543.79 109.704 1543.84 110.2 1543.94 110.552C1544.03 110.904 1544.2 111.149 1544.43 111.288C1544.67 111.416 1544.99 111.48 1545.39 111.48C1545.81 111.48 1546.13 111.416 1546.37 111.288C1546.6 111.149 1546.76 110.904 1546.85 110.552C1546.94 110.2 1546.99 109.704 1546.99 109.064C1546.99 108.403 1546.94 107.896 1546.85 107.544C1546.76 107.192 1546.6 106.947 1546.37 106.808C1546.13 106.669 1545.81 106.6 1545.39 106.6ZM1543.92 101.576C1544.19 101.597 1544.43 101.645 1544.64 101.72C1544.85 101.784 1545.06 101.859 1545.25 101.944C1545.45 102.029 1545.65 102.115 1545.84 102.2C1546.04 102.275 1546.25 102.328 1546.46 102.36C1546.74 102.403 1546.91 102.365 1546.98 102.248C1547.05 102.131 1547.09 101.933 1547.09 101.656H1548.11C1548.23 102.403 1548.15 102.973 1547.89 103.368C1547.62 103.763 1547.26 103.944 1546.8 103.912C1546.44 103.88 1546.11 103.805 1545.81 103.688C1545.52 103.571 1545.25 103.453 1544.99 103.336C1544.75 103.219 1544.5 103.144 1544.24 103.112C1543.97 103.069 1543.8 103.112 1543.73 103.24C1543.66 103.357 1543.63 103.56 1543.63 103.848H1542.62C1542.54 103.315 1542.55 102.877 1542.66 102.536C1542.77 102.195 1542.94 101.944 1543.17 101.784C1543.4 101.624 1543.65 101.555 1543.92 101.576ZM1554.81 104.888C1556.15 104.888 1557.1 105.117 1557.68 105.576C1558.26 106.024 1558.56 106.696 1558.56 107.592C1558.57 108.307 1558.39 108.845 1558.01 109.208C1557.64 109.571 1556.99 109.752 1556.08 109.752H1551.66V108.424H1555.44C1555.79 108.424 1556.01 108.349 1556.11 108.2C1556.22 108.04 1556.27 107.821 1556.27 107.544C1556.27 107.171 1556.16 106.915 1555.95 106.776C1555.75 106.627 1555.39 106.552 1554.89 106.552C1554.46 106.541 1554.11 106.6 1553.87 106.728C1553.62 106.845 1553.45 107.069 1553.36 107.4C1553.26 107.731 1553.21 108.211 1553.21 108.84C1553.21 109.501 1553.27 110.013 1553.39 110.376C1553.51 110.728 1553.7 110.973 1553.98 111.112C1554.27 111.251 1554.66 111.32 1555.17 111.32C1555.53 111.32 1555.98 111.309 1556.51 111.288C1557.05 111.256 1557.6 111.208 1558.14 111.144L1558.37 112.6C1558.06 112.749 1557.7 112.867 1557.31 112.952C1556.91 113.037 1556.51 113.096 1556.09 113.128C1555.68 113.171 1555.28 113.192 1554.89 113.192C1553.89 113.192 1553.09 113.048 1552.48 112.76C1551.87 112.461 1551.43 112.008 1551.15 111.4C1550.88 110.792 1550.75 110.013 1550.75 109.064C1550.75 108.029 1550.88 107.208 1551.15 106.6C1551.43 105.992 1551.86 105.555 1552.46 105.288C1553.06 105.021 1553.84 104.888 1554.81 104.888ZM1563.11 104.888C1563.49 104.888 1563.91 104.904 1564.36 104.936C1564.8 104.957 1565.24 104.989 1565.67 105.032C1566.1 105.075 1566.47 105.128 1566.8 105.192L1566.64 106.664C1566.13 106.653 1565.62 106.643 1565.09 106.632C1564.58 106.621 1564.08 106.616 1563.59 106.616C1563.17 106.616 1562.85 106.627 1562.63 106.648C1562.4 106.659 1562.24 106.707 1562.15 106.792C1562.06 106.867 1562.02 107.005 1562.02 107.208C1562.02 107.453 1562.1 107.619 1562.26 107.704C1562.42 107.779 1562.69 107.864 1563.06 107.96L1565.12 108.456C1565.79 108.627 1566.28 108.883 1566.6 109.224C1566.92 109.555 1567.08 110.056 1567.08 110.728C1567.08 111.389 1566.95 111.896 1566.71 112.248C1566.46 112.6 1566.07 112.845 1565.54 112.984C1565.01 113.112 1564.32 113.176 1563.48 113.176C1563.15 113.176 1562.66 113.16 1562 113.128C1561.35 113.096 1560.64 113.016 1559.88 112.888L1560.02 111.416C1560.22 111.427 1560.47 111.437 1560.76 111.448C1561.06 111.448 1561.38 111.448 1561.73 111.448C1562.08 111.448 1562.44 111.448 1562.79 111.448C1563.34 111.448 1563.76 111.437 1564.05 111.416C1564.34 111.384 1564.54 111.32 1564.64 111.224C1564.75 111.128 1564.8 110.984 1564.8 110.792C1564.8 110.547 1564.71 110.387 1564.53 110.312C1564.35 110.227 1564.06 110.131 1563.67 110.024L1561.67 109.528C1561.16 109.389 1560.76 109.213 1560.48 109C1560.21 108.787 1560.01 108.531 1559.89 108.232C1559.79 107.923 1559.73 107.555 1559.73 107.128C1559.73 106.584 1559.84 106.147 1560.07 105.816C1560.29 105.485 1560.65 105.251 1561.14 105.112C1561.63 104.963 1562.29 104.888 1563.11 104.888ZM1371.16 123.904C1372.15 123.904 1372.86 124.267 1373.29 124.992C1373.71 125.717 1373.93 126.757 1373.93 128.112C1373.93 129.168 1373.82 129.995 1373.59 130.592C1373.38 131.179 1373.05 131.595 1372.6 131.84C1372.16 132.085 1371.61 132.208 1370.95 132.208C1370.39 132.208 1369.85 132.128 1369.34 131.968C1368.82 131.808 1368.37 131.541 1367.98 131.168L1368.14 130.112C1368.49 130.219 1368.81 130.315 1369.1 130.4C1369.39 130.475 1369.73 130.512 1370.1 130.512C1370.45 130.512 1370.72 130.453 1370.92 130.336C1371.12 130.219 1371.27 129.989 1371.37 129.648C1371.46 129.296 1371.51 128.789 1371.51 128.128C1371.51 127.477 1371.46 126.976 1371.37 126.624C1371.28 126.272 1371.14 126.032 1370.95 125.904C1370.77 125.776 1370.53 125.712 1370.22 125.712C1369.86 125.712 1369.54 125.776 1369.26 125.904C1368.97 126.032 1368.64 126.224 1368.28 126.48L1367.98 125.392C1368.19 125.104 1368.46 124.848 1368.79 124.624C1369.13 124.4 1369.51 124.224 1369.91 124.096C1370.32 123.968 1370.73 123.904 1371.16 123.904ZM1367.88 124.096L1368.1 125.536L1368.33 125.776V130.912L1368.25 131.104C1368.28 131.424 1368.3 131.755 1368.31 132.096C1368.33 132.437 1368.34 132.779 1368.33 133.12V135.04H1365.98V124.096H1367.88ZM1379.31 123.888C1380.31 123.888 1381.1 124.027 1381.7 124.304C1382.3 124.571 1382.72 125.008 1382.98 125.616C1383.24 126.224 1383.38 127.04 1383.38 128.064C1383.38 129.067 1383.24 129.872 1382.98 130.48C1382.72 131.088 1382.3 131.525 1381.7 131.792C1381.1 132.059 1380.31 132.192 1379.31 132.192C1378.33 132.192 1377.54 132.059 1376.95 131.792C1376.35 131.525 1375.92 131.088 1375.65 130.48C1375.38 129.872 1375.25 129.067 1375.25 128.064C1375.25 127.04 1375.38 126.224 1375.65 125.616C1375.92 125.008 1376.35 124.571 1376.95 124.304C1377.54 124.027 1378.33 123.888 1379.31 123.888ZM1379.31 125.6C1378.91 125.6 1378.59 125.669 1378.35 125.808C1378.12 125.947 1377.95 126.192 1377.86 126.544C1377.76 126.896 1377.71 127.403 1377.71 128.064C1377.71 128.704 1377.76 129.2 1377.86 129.552C1377.95 129.904 1378.12 130.149 1378.35 130.288C1378.59 130.416 1378.91 130.48 1379.31 130.48C1379.73 130.48 1380.06 130.416 1380.29 130.288C1380.52 130.149 1380.68 129.904 1380.77 129.552C1380.87 129.2 1380.91 128.704 1380.91 128.064C1380.91 127.403 1380.87 126.896 1380.77 126.544C1380.68 126.192 1380.52 125.947 1380.29 125.808C1380.06 125.669 1379.73 125.6 1379.31 125.6ZM1386.85 124.096L1387.14 125.664L1387.36 125.872V132H1385.01V124.096H1386.85ZM1390.7 123.888L1390.48 126.064H1389.82C1389.45 126.064 1389.06 126.117 1388.66 126.224C1388.25 126.331 1387.74 126.496 1387.12 126.72L1386.96 125.392C1387.51 124.901 1388.07 124.528 1388.64 124.272C1389.2 124.016 1389.75 123.888 1390.29 123.888H1390.7ZM1397.81 121.904V129.472C1397.81 129.76 1397.88 129.968 1398.01 130.096C1398.14 130.213 1398.37 130.272 1398.68 130.272H1399.7L1399.96 131.872C1399.77 131.936 1399.53 131.989 1399.25 132.032C1398.98 132.085 1398.7 132.123 1398.42 132.144C1398.14 132.165 1397.91 132.176 1397.72 132.176C1397 132.176 1396.44 131.989 1396.04 131.616C1395.64 131.232 1395.45 130.693 1395.45 130V121.904H1397.81ZM1400.02 124.096V125.648H1394.07V124.176L1395.61 124.096H1400.02ZM1403.7 124.096V132H1401.37V124.096H1403.7ZM1403.05 120.608C1403.52 120.608 1403.75 120.843 1403.75 121.312V122.176C1403.75 122.645 1403.52 122.88 1403.05 122.88H1402.02C1401.55 122.88 1401.32 122.645 1401.32 122.176V121.312C1401.32 120.843 1401.55 120.608 1402.02 120.608H1403.05ZM1410.91 123.904C1411.9 123.904 1412.61 124.267 1413.04 124.992C1413.46 125.717 1413.68 126.757 1413.68 128.112C1413.68 129.168 1413.57 129.995 1413.34 130.592C1413.13 131.179 1412.8 131.595 1412.35 131.84C1411.91 132.085 1411.36 132.208 1410.7 132.208C1410.14 132.208 1409.6 132.128 1409.09 131.968C1408.57 131.808 1408.12 131.541 1407.73 131.168L1407.89 130.112C1408.24 130.219 1408.56 130.315 1408.85 130.4C1409.14 130.475 1409.48 130.512 1409.85 130.512C1410.2 130.512 1410.47 130.453 1410.67 130.336C1410.87 130.219 1411.02 129.989 1411.12 129.648C1411.21 129.296 1411.26 128.789 1411.26 128.128C1411.26 127.477 1411.21 126.976 1411.12 126.624C1411.03 126.272 1410.89 126.032 1410.7 125.904C1410.52 125.776 1410.28 125.712 1409.97 125.712C1409.61 125.712 1409.29 125.776 1409.01 125.904C1408.72 126.032 1408.39 126.224 1408.03 126.48L1407.73 125.392C1407.94 125.104 1408.21 124.848 1408.54 124.624C1408.88 124.4 1409.26 124.224 1409.66 124.096C1410.07 123.968 1410.48 123.904 1410.91 123.904ZM1407.63 124.096L1407.85 125.536L1408.08 125.776V130.912L1408 131.104C1408.03 131.424 1408.05 131.755 1408.06 132.096C1408.08 132.437 1408.09 132.779 1408.08 133.12V135.04H1405.73V124.096H1407.63ZM1419.06 123.888C1420.06 123.888 1420.85 124.027 1421.45 124.304C1422.05 124.571 1422.47 125.008 1422.73 125.616C1422.99 126.224 1423.13 127.04 1423.13 128.064C1423.13 129.067 1422.99 129.872 1422.73 130.48C1422.47 131.088 1422.05 131.525 1421.45 131.792C1420.85 132.059 1420.06 132.192 1419.06 132.192C1418.08 132.192 1417.29 132.059 1416.7 131.792C1416.1 131.525 1415.67 131.088 1415.4 130.48C1415.13 129.872 1415 129.067 1415 128.064C1415 127.04 1415.13 126.224 1415.4 125.616C1415.67 125.008 1416.1 124.571 1416.7 124.304C1417.29 124.027 1418.08 123.888 1419.06 123.888ZM1419.06 125.6C1418.66 125.6 1418.34 125.669 1418.1 125.808C1417.87 125.947 1417.7 126.192 1417.61 126.544C1417.51 126.896 1417.46 127.403 1417.46 128.064C1417.46 128.704 1417.51 129.2 1417.61 129.552C1417.7 129.904 1417.87 130.149 1418.1 130.288C1418.34 130.416 1418.66 130.48 1419.06 130.48C1419.48 130.48 1419.81 130.416 1420.04 130.288C1420.27 130.149 1420.43 129.904 1420.52 129.552C1420.62 129.2 1420.66 128.704 1420.66 128.064C1420.66 127.403 1420.62 126.896 1420.52 126.544C1420.43 126.192 1420.27 125.947 1420.04 125.808C1419.81 125.669 1419.48 125.6 1419.06 125.6Z" fill="#003A69"/>
<path d="M898.424 104.768C898.947 104.768 899.389 104.784 899.752 104.816C900.125 104.837 900.467 104.875 900.776 104.928C901.085 104.981 901.405 105.051 901.736 105.136L901.544 106.944C901.192 106.923 900.867 106.907 900.568 106.896C900.28 106.885 899.965 106.875 899.624 106.864C899.293 106.853 898.893 106.848 898.424 106.848C897.88 106.848 897.453 106.96 897.144 107.184C896.845 107.397 896.632 107.765 896.504 108.288C896.376 108.811 896.312 109.541 896.312 110.48C896.312 111.408 896.376 112.139 896.504 112.672C896.632 113.195 896.845 113.563 897.144 113.776C897.453 113.989 897.88 114.096 898.424 114.096C899.16 114.096 899.779 114.085 900.28 114.064C900.781 114.043 901.277 114.005 901.768 113.952L901.976 115.744C901.464 115.904 900.941 116.016 900.408 116.08C899.875 116.155 899.213 116.192 898.424 116.192C897.283 116.192 896.371 116.011 895.688 115.648C895.005 115.275 894.509 114.672 894.2 113.84C893.901 113.008 893.752 111.888 893.752 110.48C893.752 109.072 893.901 107.952 894.2 107.12C894.509 106.288 895.005 105.691 895.688 105.328C896.371 104.955 897.283 104.768 898.424 104.768ZM905.75 104.8L905.734 113.472C905.734 113.739 905.814 113.941 905.974 114.08C906.134 114.208 906.369 114.272 906.678 114.272H907.318L907.59 115.872C907.462 115.936 907.281 115.989 907.046 116.032C906.812 116.085 906.572 116.123 906.326 116.144C906.081 116.165 905.873 116.176 905.702 116.176C904.988 116.176 904.422 115.995 904.006 115.632C903.601 115.259 903.398 114.736 903.398 114.064V104.8H905.75ZM911.032 108.096V116H908.696V108.096H911.032ZM910.376 104.608C910.846 104.608 911.08 104.843 911.08 105.312V106.176C911.08 106.645 910.846 106.88 910.376 106.88H909.352C908.883 106.88 908.648 106.645 908.648 106.176V105.312C908.648 104.843 908.883 104.608 909.352 104.608H910.376ZM916.782 107.888C918.115 107.888 919.07 108.117 919.646 108.576C920.233 109.024 920.526 109.696 920.526 110.592C920.537 111.307 920.355 111.845 919.982 112.208C919.609 112.571 918.963 112.752 918.046 112.752H913.63V111.424H917.406C917.758 111.424 917.982 111.349 918.078 111.2C918.185 111.04 918.238 110.821 918.238 110.544C918.238 110.171 918.131 109.915 917.918 109.776C917.715 109.627 917.363 109.552 916.862 109.552C916.425 109.541 916.083 109.6 915.838 109.728C915.593 109.845 915.422 110.069 915.326 110.4C915.23 110.731 915.182 111.211 915.182 111.84C915.182 112.501 915.241 113.013 915.358 113.376C915.475 113.728 915.673 113.973 915.95 114.112C916.238 114.251 916.633 114.32 917.134 114.32C917.497 114.32 917.945 114.309 918.478 114.288C919.022 114.256 919.566 114.208 920.11 114.144L920.334 115.6C920.025 115.749 919.673 115.867 919.278 115.952C918.883 116.037 918.478 116.096 918.062 116.128C917.646 116.171 917.246 116.192 916.862 116.192C915.859 116.192 915.054 116.048 914.446 115.76C913.838 115.461 913.395 115.008 913.118 114.4C912.851 113.792 912.718 113.013 912.718 112.064C912.718 111.029 912.851 110.208 913.118 109.6C913.395 108.992 913.833 108.555 914.43 108.288C915.027 108.021 915.811 107.888 916.782 107.888ZM927.573 107.888C929.067 107.888 929.813 108.619 929.813 110.08V116H927.445V110.816C927.445 110.464 927.381 110.224 927.253 110.096C927.125 109.957 926.907 109.888 926.597 109.888C926.256 109.888 925.904 109.957 925.541 110.096C925.179 110.224 924.731 110.421 924.197 110.688L924.085 109.376C924.651 108.896 925.227 108.528 925.813 108.272C926.411 108.016 926.997 107.888 927.573 107.888ZM923.973 108.096L924.245 109.664L924.437 109.872V116H922.085V108.096H923.973ZM934.767 105.904V113.472C934.767 113.76 934.831 113.968 934.959 114.096C935.097 114.213 935.321 114.272 935.631 114.272H936.655L936.911 115.872C936.719 115.936 936.484 115.989 936.207 116.032C935.929 116.085 935.652 116.123 935.375 116.144C935.097 116.165 934.863 116.176 934.671 116.176C933.956 116.176 933.396 115.989 932.991 115.616C932.596 115.232 932.399 114.693 932.399 114V105.904H934.767ZM936.975 108.096V109.648H931.023V108.176L932.559 108.096H936.975ZM941.985 107.888C943.319 107.888 944.273 108.117 944.849 108.576C945.436 109.024 945.729 109.696 945.729 110.592C945.74 111.307 945.559 111.845 945.185 112.208C944.812 112.571 944.167 112.752 943.249 112.752H938.833V111.424H942.609C942.961 111.424 943.185 111.349 943.281 111.2C943.388 111.04 943.441 110.821 943.441 110.544C943.441 110.171 943.335 109.915 943.121 109.776C942.919 109.627 942.567 109.552 942.065 109.552C941.628 109.541 941.287 109.6 941.041 109.728C940.796 109.845 940.625 110.069 940.529 110.4C940.433 110.731 940.385 111.211 940.385 111.84C940.385 112.501 940.444 113.013 940.561 113.376C940.679 113.728 940.876 113.973 941.153 114.112C941.441 114.251 941.836 114.32 942.337 114.32C942.7 114.32 943.148 114.309 943.681 114.288C944.225 114.256 944.769 114.208 945.313 114.144L945.537 115.6C945.228 115.749 944.876 115.867 944.481 115.952C944.087 116.037 943.681 116.096 943.265 116.128C942.849 116.171 942.449 116.192 942.065 116.192C941.063 116.192 940.257 116.048 939.649 115.76C939.041 115.461 938.599 115.008 938.321 114.4C938.055 113.792 937.921 113.013 937.921 112.064C937.921 111.029 938.055 110.208 938.321 109.6C938.599 108.992 939.036 108.555 939.633 108.288C940.231 108.021 941.015 107.888 941.985 107.888ZM950.281 107.888C950.665 107.888 951.081 107.904 951.529 107.936C951.977 107.957 952.414 107.989 952.841 108.032C953.267 108.075 953.646 108.128 953.977 108.192L953.817 109.664C953.305 109.653 952.787 109.643 952.265 109.632C951.753 109.621 951.251 109.616 950.761 109.616C950.345 109.616 950.025 109.627 949.801 109.648C949.577 109.659 949.417 109.707 949.321 109.792C949.235 109.867 949.193 110.005 949.193 110.208C949.193 110.453 949.273 110.619 949.433 110.704C949.593 110.779 949.859 110.864 950.233 110.96L952.297 111.456C952.958 111.627 953.449 111.883 953.769 112.224C954.089 112.555 954.249 113.056 954.249 113.728C954.249 114.389 954.126 114.896 953.881 115.248C953.635 115.6 953.246 115.845 952.713 115.984C952.179 116.112 951.491 116.176 950.649 116.176C950.318 116.176 949.827 116.16 949.177 116.128C948.526 116.096 947.817 116.016 947.049 115.888L947.193 114.416C947.395 114.427 947.641 114.437 947.929 114.448C948.227 114.448 948.553 114.448 948.905 114.448C949.257 114.448 949.609 114.448 949.961 114.448C950.515 114.448 950.937 114.437 951.225 114.416C951.513 114.384 951.71 114.32 951.817 114.224C951.923 114.128 951.977 113.984 951.977 113.792C951.977 113.547 951.886 113.387 951.705 113.312C951.523 113.227 951.235 113.131 950.841 113.024L948.841 112.528C948.329 112.389 947.934 112.213 947.657 112C947.379 111.787 947.182 111.531 947.065 111.232C946.958 110.923 946.905 110.555 946.905 110.128C946.905 109.584 947.017 109.147 947.241 108.816C947.465 108.485 947.822 108.251 948.312 108.112C948.803 107.963 949.459 107.888 950.281 107.888Z" fill="#003A69"/>
<rect width="1920" height="89" fill="white"/>
<path d="M0 -9.91821e-05V89.0332H271.028L307 -9.91821e-05H0Z" fill="#003A69"/>
<path d="M175.01 54.2131H177.169V64.2302H182.027V66.0376H175.01V54.2131ZM169.877 61.055L168.949 58.143C168.72 57.4244 168.528 56.6162 168.353 55.9323H168.315C168.14 56.6162 167.965 57.4403 167.754 58.143L166.842 61.055H169.877ZM166.491 62.686L165.474 66.0376H163.246L167.034 54.2131H169.792L173.632 66.0376H171.316L170.246 62.686H166.491ZM158.71 56.0205H155.341V54.2131H164.271V56.0205H160.868V66.0376H158.71V56.0205ZM153.773 60.7919H149.315V64.2664H154.298V66.0376H147.158V54.2131H154.034V55.9843H149.315V59.038H153.773V60.7919ZM142.903 61.2127C142.832 59.6872 142.745 57.8452 142.762 56.2475H142.709C142.323 57.6861 141.833 59.2838 141.305 60.7745L139.587 65.8973H137.92L136.341 60.8454C135.884 59.3359 135.463 57.7223 135.148 56.2475H135.114C135.06 57.7917 134.989 59.6684 134.902 61.2849L134.639 66.0376H132.622L133.412 54.2131H136.253L137.797 58.9672C138.218 60.3538 138.587 61.7577 138.884 63.0721H138.936C139.253 61.7924 139.657 60.335 140.113 58.9498L141.744 54.2131H144.551L145.236 66.0376H143.131L142.903 61.2127ZM124.005 63.6866C124.708 64.09 125.76 64.4413 126.865 64.4413C128.25 64.4413 129.022 63.7921 129.022 62.8277C129.022 61.9327 128.425 61.4064 126.917 60.8627C124.969 60.16 123.724 59.1248 123.724 57.4244C123.724 55.4942 125.338 54.0208 127.9 54.0208C129.18 54.0208 130.128 54.3013 130.741 54.6165L130.215 56.353C129.794 56.126 128.97 55.7935 127.864 55.7935C126.496 55.7935 125.899 56.5294 125.899 57.2119C125.899 58.1257 126.583 58.5464 128.162 59.1609C130.215 59.933 131.214 60.9669 131.214 62.6701C131.214 64.5642 129.777 66.214 126.725 66.214C125.478 66.214 124.18 65.8626 123.532 65.4766L124.005 63.6866ZM118.574 61.055L117.644 58.143C117.417 57.4244 117.224 56.6162 117.049 55.9323H117.013C116.838 56.6162 116.663 57.4403 116.452 58.143L115.539 61.055H118.574ZM115.189 62.686L114.171 66.0376H111.942L115.731 54.2131H118.487L122.328 66.0376H120.013L118.943 62.686H115.189ZM104.776 59.599H106.057C107.513 59.599 108.425 58.8269 108.425 57.6514C108.425 56.353 107.513 55.7573 106.109 55.7573C105.425 55.7573 104.987 55.8094 104.776 55.8629V59.599ZM102.636 54.3707C103.443 54.2305 104.653 54.1249 105.898 54.1249C107.6 54.1249 108.758 54.4069 109.549 55.0734C110.198 55.6171 110.565 56.4412 110.565 57.4403C110.565 58.9672 109.53 60.0024 108.425 60.4073V60.4579C109.267 60.7745 109.776 61.5987 110.074 62.7381C110.442 64.2143 110.759 65.5807 111.003 66.0376H108.777C108.6 65.6877 108.32 64.7218 107.987 63.247C107.653 61.7057 107.092 61.2127 105.865 61.1779H104.776V66.0376H102.636V54.3707ZM94.9426 64.4775C95.2231 64.5107 95.5918 64.5295 96.0834 64.5295C97.4685 64.5295 98.6976 64.0018 98.6976 62.5472C98.6976 61.1779 97.5047 60.6169 96.0125 60.6169H94.9426V64.4775ZM94.9426 59.038H96.0472C97.538 59.038 98.3809 58.3368 98.3809 57.3362C98.3809 56.2316 97.5379 55.7212 96.1701 55.7212C95.5383 55.7212 95.171 55.7573 94.9426 55.8094V59.038ZM92.8027 54.3707C93.4866 54.2305 94.7329 54.1249 95.9417 54.1249C97.5379 54.1249 98.5212 54.3187 99.328 54.8797C100.065 55.3192 100.557 56.0899 100.557 57.0904C100.557 58.1777 99.8731 59.1783 98.5906 59.6525V59.6872C99.8369 60.0024 100.978 60.9856 100.978 62.6166C100.978 63.6692 100.521 64.4934 99.8369 65.0558C98.9954 65.7932 97.6088 66.1619 95.4515 66.1619C94.2572 66.1619 93.3463 66.0737 92.8027 66.0014V54.3707ZM79.1405 44.1368C79.1405 56.7449 68.9196 66.9658 56.3115 66.9658C43.7034 66.9658 33.4824 56.7449 33.4824 44.1368C33.4824 31.5301 43.7034 21.3077 56.3115 21.3077C68.9196 21.3077 79.1405 31.5301 79.1405 44.1368ZM216.695 48.0276V33.1799H212.549V51.4414H222.762V48.0276H216.695ZM150.45 48.0276V47.9741V33.1799H146.305V51.4414H156.516V48.0276H150.45ZM163.519 48.0291V47.9178L172.027 35.5641V33.1799H158.777V36.5936H166.664V36.702L158.687 48.1795V51.4414H172.164V48.0291H163.519ZM229.767 48.0291V47.9178L238.274 35.5641V33.1799H225.026V36.5936H232.91V36.702L224.933 48.1795V51.4414H238.41V48.0291H229.767ZM196.918 42.3656C196.918 45.9412 198.598 48.46 201.361 48.46C204.153 48.46 205.752 45.8082 205.752 42.2571C205.752 38.9793 204.182 36.1598 201.335 36.1598C198.544 36.1598 196.918 38.8159 196.918 42.3656ZM210.113 42.1212C210.113 48.1072 206.481 51.7392 201.144 51.7392C195.725 51.7392 192.556 47.6488 192.556 42.448C192.556 36.9739 196.05 32.8806 201.443 32.8806C207.051 32.8806 210.113 37.0809 210.113 42.1212ZM179.148 33.1799V40.1967H185.947V33.1799H190.067V51.4414H185.947V43.8013H179.148V51.4414H175.003V33.1799H179.148ZM142.064 43.7204H135.743V48.0537H143.25V51.4414H131.597V33.1799H142.869V36.5676H135.743V40.3587H142.064V43.7204ZM123.327 43.6654L122.189 39.7904C121.863 38.7075 121.538 37.3527 121.266 36.2683H121.214C120.942 37.3527 120.671 38.7335 120.373 39.7904L119.29 43.6654H123.327ZM118.694 46.7538L117.393 51.4414H113.112L118.694 33.1799H124.112L129.775 51.4414H125.334L123.922 46.7538H118.694ZM95.3474 51.4414L91.0127 33.1799H95.4299L96.8107 40.7129C97.2184 42.8803 97.5987 45.2371 97.8965 47.0791H97.9486C98.2479 45.1012 98.6816 42.9049 99.1429 40.658L100.687 33.1799H105.075L106.539 40.8734C106.946 43.0162 107.243 44.9667 107.516 46.9982H107.568C107.84 44.9667 108.246 42.8268 108.625 40.658L110.114 33.1799H114.315L109.6 51.4414H105.13L103.588 43.5844C103.233 41.7409 102.935 40.0348 102.719 37.9484H102.664C102.34 40.0073 102.042 41.7409 101.607 43.5844L99.8731 51.4414H95.3474Z" fill="white"/>
<path d="M73.6626 33.1797H70.9212L63.6224 50.9106L56.3221 33.1797H49.0161L61.3393 63.111L73.6626 33.1797ZM54.9413 54.2506L46.2675 33.1797H38.96L51.289 63.1211L54.9413 54.2506ZM59.5739 35.9182C59.5739 37.5825 59.7807 38.7637 61.4362 38.7637C63.0151 38.7637 63.1293 37.6056 63.1293 36.8089H62.0276C62.0276 37.6056 61.8656 37.9512 61.3668 37.9512C60.8174 37.9512 60.6815 37.409 60.6786 35.9182C60.6815 34.4275 60.8174 33.8868 61.3668 33.8868C61.8656 33.8868 62.0276 34.2323 62.0276 35.029H63.1293C63.1293 34.2323 63.0151 33.0742 61.4362 33.0742C59.7807 33.0742 59.5739 34.2555 59.5739 35.9182ZM64.1068 38.6553H65.8462C67.3108 38.6553 67.7258 37.7805 67.7258 35.8416C67.7258 34.2323 67.4496 33.1812 65.9156 33.1812H64.1068V38.6553ZM65.7016 37.8413H65.2114V33.9952H65.6784C66.5214 33.9952 66.6212 34.63 66.6212 35.872C66.6212 37.3583 66.4679 37.8413 65.7016 37.8413Z" fill="#003A69"/>
</g>
<defs>
<clipPath id="clip0_2606_10865">
<rect width="1920" height="1080" fill="white"/>
</clipPath>
</defs>
</svg>
