<svg width="1920" height="1080" viewBox="0 0 1920 1080" fill="none" xmlns="http://www.w3.org/2000/svg">
<g clip-path="url(#clip0_3015_7363)">
<rect width="1920" height="1080" fill="#F5F5F5"/>
<mask id="path-1-inside-1_3015_7363" fill="white">
<path d="M24 1038H1896V1065H24V1038Z"/>
</mask>
<path d="M24 1039H1896V1037H24V1039Z" fill="#99B0C3" mask="url(#path-1-inside-1_3015_7363)"/>
<path d="M1346.3 101.832C1347.26 101.832 1348.02 101.917 1348.58 102.088C1349.16 102.248 1349.58 102.536 1349.83 102.952C1350.09 103.368 1350.22 103.955 1350.22 104.712C1350.22 105.501 1350.06 106.104 1349.75 106.52C1349.45 106.925 1348.96 107.16 1348.26 107.224V107.304C1349.12 107.379 1349.71 107.667 1350.06 108.168C1350.4 108.669 1350.57 109.363 1350.57 110.248C1350.57 111.005 1350.43 111.592 1350.17 112.008C1349.91 112.424 1349.51 112.717 1348.95 112.888C1348.41 113.048 1347.69 113.128 1346.81 113.128C1346.09 113.128 1345.47 113.123 1344.94 113.112C1344.41 113.112 1343.93 113.101 1343.48 113.08C1343.04 113.059 1342.59 113.032 1342.12 113L1342.36 111.304C1342.62 111.315 1343.11 111.325 1343.83 111.336C1344.56 111.347 1345.41 111.352 1346.38 111.352C1346.83 111.352 1347.19 111.309 1347.43 111.224C1347.69 111.139 1347.86 110.984 1347.96 110.76C1348.07 110.525 1348.12 110.195 1348.12 109.768C1348.12 109.309 1348.07 108.957 1347.96 108.712C1347.85 108.467 1347.67 108.296 1347.42 108.2C1347.16 108.104 1346.8 108.056 1346.33 108.056H1342.34V106.504H1346.3C1346.7 106.493 1347.02 106.451 1347.24 106.376C1347.47 106.301 1347.64 106.157 1347.74 105.944C1347.83 105.731 1347.88 105.427 1347.88 105.032C1347.88 104.637 1347.83 104.339 1347.72 104.136C1347.62 103.933 1347.45 103.795 1347.19 103.72C1346.95 103.645 1346.61 103.608 1346.17 103.608C1345.57 103.608 1345.04 103.608 1344.58 103.608C1344.13 103.597 1343.71 103.597 1343.35 103.608C1343 103.608 1342.67 103.624 1342.36 103.656L1342.12 101.96C1342.55 101.917 1342.96 101.891 1343.35 101.88C1343.75 101.859 1344.18 101.848 1344.65 101.848C1345.12 101.837 1345.67 101.832 1346.3 101.832ZM1344.5 101.96V113H1342.12V101.96H1344.5ZM1355.94 104.888C1357.27 104.888 1358.23 105.117 1358.8 105.576C1359.39 106.024 1359.68 106.696 1359.68 107.592C1359.69 108.307 1359.51 108.845 1359.14 109.208C1358.77 109.571 1358.12 109.752 1357.2 109.752H1352.79V108.424H1356.56C1356.91 108.424 1357.14 108.349 1357.23 108.2C1357.34 108.04 1357.39 107.821 1357.39 107.544C1357.39 107.171 1357.29 106.915 1357.07 106.776C1356.87 106.627 1356.52 106.552 1356.02 106.552C1355.58 106.541 1355.24 106.6 1354.99 106.728C1354.75 106.845 1354.58 107.069 1354.48 107.4C1354.39 107.731 1354.34 108.211 1354.34 108.84C1354.34 109.501 1354.4 110.013 1354.51 110.376C1354.63 110.728 1354.83 110.973 1355.11 111.112C1355.39 111.251 1355.79 111.32 1356.29 111.32C1356.65 111.32 1357.1 111.309 1357.63 111.288C1358.18 111.256 1358.72 111.208 1359.27 111.144L1359.49 112.6C1359.18 112.749 1358.83 112.867 1358.43 112.952C1358.04 113.037 1357.63 113.096 1357.22 113.128C1356.8 113.171 1356.4 113.192 1356.02 113.192C1355.02 113.192 1354.21 113.048 1353.6 112.76C1352.99 112.461 1352.55 112.008 1352.27 111.4C1352.01 110.792 1351.87 110.013 1351.87 109.064C1351.87 108.029 1352.01 107.208 1352.27 106.6C1352.55 105.992 1352.99 105.555 1353.59 105.288C1354.18 105.021 1354.97 104.888 1355.94 104.888ZM1364.23 104.888C1364.62 104.888 1365.03 104.904 1365.48 104.936C1365.93 104.957 1366.37 104.989 1366.79 105.032C1367.22 105.075 1367.6 105.128 1367.93 105.192L1367.77 106.664C1367.26 106.653 1366.74 106.643 1366.22 106.632C1365.71 106.621 1365.2 106.616 1364.71 106.616C1364.3 106.616 1363.98 106.627 1363.75 106.648C1363.53 106.659 1363.37 106.707 1363.27 106.792C1363.19 106.867 1363.15 107.005 1363.15 107.208C1363.15 107.453 1363.23 107.619 1363.39 107.704C1363.55 107.779 1363.81 107.864 1364.19 107.96L1366.25 108.456C1366.91 108.627 1367.4 108.883 1367.72 109.224C1368.04 109.555 1368.2 110.056 1368.2 110.728C1368.2 111.389 1368.08 111.896 1367.83 112.248C1367.59 112.6 1367.2 112.845 1366.67 112.984C1366.13 113.112 1365.44 113.176 1364.6 113.176C1364.27 113.176 1363.78 113.16 1363.13 113.128C1362.48 113.096 1361.77 113.016 1361 112.888L1361.15 111.416C1361.35 111.427 1361.59 111.437 1361.88 111.448C1362.18 111.448 1362.51 111.448 1362.86 111.448C1363.21 111.448 1363.56 111.448 1363.91 111.448C1364.47 111.448 1364.89 111.437 1365.18 111.416C1365.47 111.384 1365.66 111.32 1365.77 111.224C1365.88 111.128 1365.93 110.984 1365.93 110.792C1365.93 110.547 1365.84 110.387 1365.66 110.312C1365.48 110.227 1365.19 110.131 1364.79 110.024L1362.79 109.528C1362.28 109.389 1361.89 109.213 1361.61 109C1361.33 108.787 1361.13 108.531 1361.02 108.232C1360.91 107.923 1360.86 107.555 1360.86 107.128C1360.86 106.584 1360.97 106.147 1361.19 105.816C1361.42 105.485 1361.77 105.251 1362.27 105.112C1362.76 104.963 1363.41 104.888 1364.23 104.888ZM1373.41 104.888C1373.69 104.888 1374.01 104.904 1374.35 104.936C1374.69 104.957 1375.03 105.005 1375.37 105.08C1375.73 105.144 1376.05 105.24 1376.33 105.368L1376.08 106.856C1375.65 106.835 1375.24 106.824 1374.85 106.824C1374.46 106.813 1374.11 106.808 1373.81 106.808C1373.33 106.808 1372.95 106.872 1372.67 107C1372.39 107.128 1372.19 107.352 1372.06 107.672C1371.94 107.992 1371.89 108.445 1371.89 109.032C1371.89 109.619 1371.94 110.077 1372.06 110.408C1372.19 110.739 1372.39 110.968 1372.67 111.096C1372.95 111.224 1373.33 111.288 1373.81 111.288C1373.98 111.288 1374.19 111.283 1374.46 111.272C1374.73 111.261 1375.02 111.251 1375.33 111.24C1375.63 111.219 1375.94 111.187 1376.24 111.144L1376.46 112.648C1376.03 112.84 1375.55 112.979 1375.01 113.064C1374.46 113.149 1373.92 113.192 1373.39 113.192C1372.42 113.192 1371.64 113.059 1371.05 112.792C1370.47 112.515 1370.05 112.072 1369.79 111.464C1369.53 110.856 1369.41 110.045 1369.41 109.032C1369.41 108.019 1369.53 107.208 1369.79 106.6C1370.06 105.992 1370.48 105.555 1371.07 105.288C1371.66 105.021 1372.43 104.888 1373.41 104.888ZM1383.37 104.888C1384.86 104.888 1385.61 105.619 1385.61 107.08V113H1383.24V107.816C1383.24 107.464 1383.18 107.224 1383.05 107.096C1382.92 106.957 1382.7 106.888 1382.39 106.888C1382.05 106.888 1381.7 106.952 1381.34 107.08C1380.98 107.208 1380.53 107.411 1379.99 107.688L1379.79 106.472C1380.37 105.96 1380.97 105.571 1381.58 105.304C1382.19 105.027 1382.78 104.888 1383.37 104.888ZM1380.23 101.8L1380.25 104.536C1380.25 104.952 1380.22 105.347 1380.17 105.72C1380.13 106.093 1380.07 106.408 1380.01 106.664L1380.23 106.872V113H1377.88V101.8H1380.23ZM1399.86 105.096L1397.91 112.376C1397.86 112.568 1397.77 112.723 1397.62 112.84C1397.47 112.947 1397.29 113 1397.09 113H1395.3C1395.09 113 1394.9 112.936 1394.74 112.808C1394.58 112.669 1394.49 112.493 1394.47 112.28L1393.59 107.816C1393.56 107.592 1393.53 107.373 1393.51 107.16C1393.49 106.947 1393.45 106.728 1393.41 106.504H1393.22C1393.19 106.728 1393.16 106.947 1393.12 107.16C1393.09 107.373 1393.06 107.592 1393.03 107.816L1392.16 112.28C1392.13 112.493 1392.04 112.669 1391.88 112.808C1391.72 112.936 1391.53 113 1391.32 113H1389.54C1389.35 113 1389.18 112.947 1389.03 112.84C1388.88 112.723 1388.78 112.568 1388.74 112.376L1386.79 105.096H1389.16L1390.24 110.216C1390.29 110.429 1390.32 110.648 1390.36 110.872C1390.39 111.085 1390.41 111.299 1390.44 111.512H1390.64C1390.68 111.299 1390.71 111.085 1390.74 110.872C1390.78 110.648 1390.82 110.429 1390.85 110.216L1391.73 105.8C1391.75 105.597 1391.84 105.432 1391.99 105.304C1392.15 105.165 1392.33 105.096 1392.55 105.096H1394.08C1394.3 105.096 1394.48 105.165 1394.63 105.304C1394.79 105.432 1394.88 105.603 1394.92 105.816L1395.76 110.216C1395.8 110.429 1395.83 110.643 1395.88 110.856C1395.92 111.069 1395.96 111.288 1395.99 111.512H1396.18C1396.22 111.288 1396.25 111.075 1396.28 110.872C1396.31 110.659 1396.34 110.44 1396.39 110.216L1397.48 105.096H1399.86ZM1404.74 104.888C1406.07 104.888 1407.02 105.117 1407.6 105.576C1408.19 106.024 1408.48 106.696 1408.48 107.592C1408.49 108.307 1408.31 108.845 1407.94 109.208C1407.56 109.571 1406.92 109.752 1406 109.752H1401.58V108.424H1405.36C1405.71 108.424 1405.94 108.349 1406.03 108.2C1406.14 108.04 1406.19 107.821 1406.19 107.544C1406.19 107.171 1406.08 106.915 1405.87 106.776C1405.67 106.627 1405.32 106.552 1404.82 106.552C1404.38 106.541 1404.04 106.6 1403.79 106.728C1403.55 106.845 1403.38 107.069 1403.28 107.4C1403.18 107.731 1403.14 108.211 1403.14 108.84C1403.14 109.501 1403.19 110.013 1403.31 110.376C1403.43 110.728 1403.63 110.973 1403.9 111.112C1404.19 111.251 1404.59 111.32 1405.09 111.32C1405.45 111.32 1405.9 111.309 1406.43 111.288C1406.98 111.256 1407.52 111.208 1408.06 111.144L1408.29 112.6C1407.98 112.749 1407.63 112.867 1407.23 112.952C1406.84 113.037 1406.43 113.096 1406.02 113.128C1405.6 113.171 1405.2 113.192 1404.82 113.192C1403.81 113.192 1403.01 113.048 1402.4 112.76C1401.79 112.461 1401.35 112.008 1401.07 111.4C1400.8 110.792 1400.67 110.013 1400.67 109.064C1400.67 108.029 1400.8 107.208 1401.07 106.6C1401.35 105.992 1401.79 105.555 1402.38 105.288C1402.98 105.021 1403.76 104.888 1404.74 104.888ZM1411.88 105.096L1412.17 106.664L1412.39 106.872V113H1410.04V105.096H1411.88ZM1415.73 104.888L1415.51 107.064H1414.85C1414.48 107.064 1414.09 107.117 1413.69 107.224C1413.28 107.331 1412.77 107.496 1412.15 107.72L1411.99 106.392C1412.55 105.901 1413.11 105.528 1413.67 105.272C1414.24 105.016 1414.79 104.888 1415.32 104.888H1415.73ZM1419.48 104.888C1420.04 104.888 1420.58 104.968 1421.09 105.128C1421.6 105.288 1422.06 105.549 1422.45 105.912L1422.29 106.984C1421.94 106.877 1421.62 106.787 1421.32 106.712C1421.03 106.627 1420.69 106.584 1420.31 106.584C1419.98 106.584 1419.71 106.643 1419.51 106.76C1419.31 106.877 1419.16 107.107 1419.06 107.448C1418.96 107.789 1418.92 108.296 1418.92 108.968C1418.92 109.597 1418.96 110.077 1419.04 110.408C1419.14 110.728 1419.28 110.952 1419.48 111.08C1419.68 111.197 1419.94 111.256 1420.24 111.256C1420.52 111.256 1420.76 111.229 1420.96 111.176C1421.17 111.112 1421.37 111.021 1421.57 110.904C1421.78 110.776 1422.01 110.621 1422.28 110.44L1422.44 111.608C1422.12 112.056 1421.7 112.435 1421.19 112.744C1420.68 113.043 1420.05 113.192 1419.3 113.192C1418.29 113.192 1417.56 112.829 1417.12 112.104C1416.7 111.379 1416.48 110.339 1416.48 108.984C1416.48 107.928 1416.6 107.107 1416.82 106.52C1417.04 105.923 1417.38 105.501 1417.81 105.256C1418.26 105.011 1418.82 104.888 1419.48 104.888ZM1424.39 101.8V113H1422.52L1422.28 111.544L1422.02 111.368V106.184L1422.12 105.96C1422.08 105.64 1422.06 105.315 1422.04 104.984C1422.03 104.643 1422.02 104.296 1422.02 103.944V101.8H1424.39ZM1430.06 104.888C1431.4 104.888 1432.35 105.117 1432.93 105.576C1433.51 106.024 1433.81 106.696 1433.81 107.592C1433.82 108.307 1433.64 108.845 1433.26 109.208C1432.89 109.571 1432.24 109.752 1431.33 109.752H1426.91V108.424H1430.69C1431.04 108.424 1431.26 108.349 1431.36 108.2C1431.47 108.04 1431.52 107.821 1431.52 107.544C1431.52 107.171 1431.41 106.915 1431.2 106.776C1431 106.627 1430.64 106.552 1430.14 106.552C1429.71 106.541 1429.36 106.6 1429.12 106.728C1428.87 106.845 1428.7 107.069 1428.61 107.4C1428.51 107.731 1428.46 108.211 1428.46 108.84C1428.46 109.501 1428.52 110.013 1428.64 110.376C1428.76 110.728 1428.95 110.973 1429.23 111.112C1429.52 111.251 1429.91 111.32 1430.42 111.32C1430.78 111.32 1431.23 111.309 1431.76 111.288C1432.3 111.256 1432.85 111.208 1433.39 111.144L1433.62 112.6C1433.31 112.749 1432.95 112.867 1432.56 112.952C1432.16 113.037 1431.76 113.096 1431.34 113.128C1430.93 113.171 1430.53 113.192 1430.14 113.192C1429.14 113.192 1428.34 113.048 1427.73 112.76C1427.12 112.461 1426.68 112.008 1426.4 111.4C1426.13 110.792 1426 110.013 1426 109.064C1426 108.029 1426.13 107.208 1426.4 106.6C1426.68 105.992 1427.11 105.555 1427.71 105.288C1428.31 105.021 1429.09 104.888 1430.06 104.888ZM1440.85 104.888C1442.35 104.888 1443.09 105.619 1443.09 107.08V113H1440.73V107.816C1440.73 107.464 1440.66 107.224 1440.53 107.096C1440.41 106.957 1440.19 106.888 1439.88 106.888C1439.54 106.888 1439.19 106.957 1438.82 107.096C1438.46 107.224 1438.01 107.421 1437.48 107.688L1437.37 106.376C1437.93 105.896 1438.51 105.528 1439.09 105.272C1439.69 105.016 1440.28 104.888 1440.85 104.888ZM1437.25 105.096L1437.53 106.664L1437.72 106.872V113H1435.37V105.096H1437.25ZM1450.75 105.096V110.296C1450.75 110.627 1450.82 110.861 1450.96 111C1451.11 111.139 1451.34 111.208 1451.66 111.208C1451.99 111.208 1452.32 111.149 1452.64 111.032C1452.97 110.904 1453.38 110.707 1453.87 110.44L1454.04 111.736C1453.47 112.227 1452.9 112.595 1452.35 112.84C1451.8 113.085 1451.23 113.208 1450.64 113.208C1449.14 113.208 1448.4 112.477 1448.4 111.016V105.096H1450.75ZM1455.98 105.096V113H1454.12L1453.85 111.448L1453.61 111.224V105.096H1455.98ZM1463.42 104.888C1464.91 104.888 1465.66 105.619 1465.66 107.08V113H1463.29V107.816C1463.29 107.464 1463.23 107.224 1463.1 107.096C1462.97 106.957 1462.75 106.888 1462.44 106.888C1462.1 106.888 1461.75 106.957 1461.39 107.096C1461.02 107.224 1460.57 107.421 1460.04 107.688L1459.93 106.376C1460.49 105.896 1461.07 105.528 1461.66 105.272C1462.25 105.016 1462.84 104.888 1463.42 104.888ZM1459.82 105.096L1460.09 106.664L1460.28 106.872V113H1457.93V105.096H1459.82ZM1470.23 104.888C1470.79 104.888 1471.33 104.968 1471.84 105.128C1472.35 105.288 1472.81 105.549 1473.2 105.912L1473.04 106.984C1472.69 106.877 1472.37 106.787 1472.07 106.712C1471.78 106.627 1471.44 106.584 1471.06 106.584C1470.73 106.584 1470.46 106.643 1470.26 106.76C1470.06 106.877 1469.91 107.107 1469.81 107.448C1469.71 107.789 1469.67 108.296 1469.67 108.968C1469.67 109.597 1469.71 110.077 1469.79 110.408C1469.89 110.728 1470.03 110.952 1470.23 111.08C1470.43 111.197 1470.69 111.256 1470.99 111.256C1471.27 111.256 1471.51 111.229 1471.71 111.176C1471.92 111.112 1472.12 111.021 1472.32 110.904C1472.53 110.776 1472.76 110.621 1473.03 110.44L1473.19 111.608C1472.87 112.056 1472.45 112.435 1471.94 112.744C1471.43 113.043 1470.8 113.192 1470.05 113.192C1469.04 113.192 1468.31 112.829 1467.87 112.104C1467.45 111.379 1467.23 110.339 1467.23 108.984C1467.23 107.928 1467.35 107.107 1467.57 106.52C1467.79 105.923 1468.13 105.501 1468.56 105.256C1469.01 105.011 1469.57 104.888 1470.23 104.888ZM1475.14 101.8V113H1473.27L1473.03 111.544L1472.77 111.368V106.184L1472.87 105.96C1472.83 105.64 1472.81 105.315 1472.79 104.984C1472.78 104.643 1472.77 104.296 1472.77 103.944V101.8H1475.14ZM1346.36 120.8C1347.33 120.8 1348.11 120.901 1348.71 121.104C1349.32 121.296 1349.76 121.627 1350.04 122.096C1350.33 122.565 1350.47 123.227 1350.47 124.08C1350.47 124.592 1350.4 125.045 1350.26 125.44C1350.14 125.824 1349.92 126.133 1349.61 126.368C1349.3 126.603 1348.88 126.752 1348.34 126.816V126.896C1348.54 126.928 1348.73 127.003 1348.94 127.12C1349.15 127.237 1349.35 127.413 1349.53 127.648C1349.71 127.872 1349.84 128.176 1349.93 128.56L1350.89 132H1348.33L1347.48 128.624C1347.37 128.261 1347.23 128.016 1347.05 127.888C1346.87 127.749 1346.61 127.68 1346.26 127.68C1345.54 127.669 1344.93 127.664 1344.44 127.664C1343.95 127.664 1343.53 127.659 1343.19 127.648C1342.86 127.637 1342.56 127.627 1342.28 127.616L1342.33 125.84H1346.31C1346.75 125.84 1347.09 125.797 1347.34 125.712C1347.58 125.616 1347.76 125.451 1347.86 125.216C1347.97 124.981 1348.02 124.651 1348.02 124.224C1348.02 123.797 1347.97 123.472 1347.86 123.248C1347.76 123.024 1347.58 122.869 1347.34 122.784C1347.09 122.688 1346.75 122.64 1346.31 122.64C1345.32 122.64 1344.47 122.645 1343.77 122.656C1343.07 122.667 1342.61 122.677 1342.36 122.688L1342.12 120.96C1342.57 120.907 1342.98 120.869 1343.37 120.848C1343.76 120.827 1344.19 120.816 1344.66 120.816C1345.13 120.805 1345.7 120.8 1346.36 120.8ZM1344.52 120.96V132H1342.12V120.96H1344.52ZM1354.64 124.096V129.296C1354.64 129.627 1354.71 129.861 1354.85 130C1355 130.139 1355.23 130.208 1355.55 130.208C1355.88 130.208 1356.21 130.149 1356.53 130.032C1356.86 129.904 1357.27 129.707 1357.76 129.44L1357.94 130.736C1357.36 131.227 1356.79 131.595 1356.24 131.84C1355.7 132.085 1355.12 132.208 1354.53 132.208C1353.03 132.208 1352.29 131.477 1352.29 130.016V124.096H1354.64ZM1359.87 124.096V132H1358.02L1357.74 130.448L1357.5 130.224V124.096H1359.87ZM1357.94 120.64C1358.28 120.64 1358.45 120.811 1358.45 121.152V122.096C1358.45 122.427 1358.28 122.592 1357.94 122.592H1357.17C1356.83 122.592 1356.66 122.427 1356.66 122.096V121.152C1356.66 120.811 1356.83 120.64 1357.17 120.64H1357.94ZM1355.01 120.64C1355.34 120.64 1355.5 120.811 1355.5 121.152V122.096C1355.5 122.427 1355.34 122.592 1355.01 122.592H1354.22C1353.89 122.592 1353.73 122.427 1353.73 122.096V121.152C1353.73 120.811 1353.89 120.64 1354.22 120.64H1355.01ZM1365.48 123.888C1365.77 123.888 1366.09 123.904 1366.43 123.936C1366.77 123.957 1367.11 124.005 1367.45 124.08C1367.8 124.144 1368.12 124.24 1368.41 124.368L1368.16 125.856C1367.73 125.835 1367.32 125.824 1366.92 125.824C1366.54 125.813 1366.19 125.808 1365.88 125.808C1365.4 125.808 1365.03 125.872 1364.75 126C1364.47 126.128 1364.27 126.352 1364.14 126.672C1364.02 126.992 1363.96 127.445 1363.96 128.032C1363.96 128.619 1364.02 129.077 1364.14 129.408C1364.27 129.739 1364.47 129.968 1364.75 130.096C1365.03 130.224 1365.4 130.288 1365.88 130.288C1366.05 130.288 1366.27 130.283 1366.54 130.272C1366.81 130.261 1367.09 130.251 1367.4 130.24C1367.71 130.219 1368.02 130.187 1368.32 130.144L1368.54 131.648C1368.11 131.84 1367.63 131.979 1367.08 132.064C1366.54 132.149 1366 132.192 1365.47 132.192C1364.5 132.192 1363.72 132.059 1363.13 131.792C1362.55 131.515 1362.12 131.072 1361.87 130.464C1361.61 129.856 1361.48 129.045 1361.48 128.032C1361.48 127.019 1361.61 126.208 1361.87 125.6C1362.13 124.992 1362.56 124.555 1363.15 124.288C1363.73 124.021 1364.51 123.888 1365.48 123.888ZM1377.59 124.096L1375.53 126.848C1375.43 126.997 1375.31 127.141 1375.16 127.28C1375.01 127.419 1374.89 127.52 1374.79 127.584V127.632C1374.89 127.696 1375.01 127.813 1375.16 127.984C1375.31 128.144 1375.43 128.309 1375.53 128.48L1377.86 132H1375.22L1372.52 127.552L1374.95 124.096H1377.59ZM1372.31 120.8L1372.33 125.424C1372.33 125.797 1372.31 126.16 1372.26 126.512C1372.22 126.864 1372.16 127.211 1372.07 127.552C1372.15 127.872 1372.21 128.208 1372.25 128.56C1372.29 128.912 1372.31 129.232 1372.31 129.52V132H1369.96V120.8H1372.31ZM1373.42 126.88V128.32H1371.58V126.88H1373.42ZM1382.4 123.888C1383.32 123.888 1384.04 123.973 1384.58 124.144C1385.12 124.315 1385.51 124.581 1385.75 124.944C1385.99 125.307 1386.11 125.792 1386.11 126.4C1386.11 126.987 1386 127.467 1385.76 127.84C1385.53 128.203 1385.13 128.469 1384.58 128.64C1384.03 128.811 1383.3 128.896 1382.39 128.896C1381.47 128.896 1380.73 128.811 1380.18 128.64C1379.63 128.469 1379.24 128.203 1379.01 127.84C1378.78 127.477 1378.66 126.997 1378.66 126.4C1378.66 125.803 1378.78 125.323 1379.01 124.96C1379.26 124.587 1379.65 124.315 1380.19 124.144C1380.75 123.973 1381.48 123.888 1382.4 123.888ZM1382.39 125.328C1381.8 125.328 1381.39 125.408 1381.17 125.568C1380.95 125.717 1380.83 125.995 1380.83 126.4C1380.83 126.795 1380.95 127.072 1381.17 127.232C1381.39 127.392 1381.8 127.472 1382.39 127.472C1382.97 127.472 1383.37 127.392 1383.59 127.232C1383.81 127.072 1383.92 126.795 1383.92 126.4C1383.92 125.995 1383.81 125.717 1383.59 125.568C1383.37 125.408 1382.97 125.328 1382.39 125.328ZM1387.03 124.096L1386.9 125.088L1384.79 125.36L1384.21 124.096H1387.03ZM1380.02 128.416L1381.19 128.608C1381.04 128.704 1380.93 128.843 1380.87 129.024C1380.81 129.205 1380.83 129.376 1380.91 129.536C1381 129.696 1381.19 129.792 1381.47 129.824L1384.39 130.16C1385.22 130.245 1385.8 130.48 1386.15 130.864C1386.49 131.237 1386.66 131.787 1386.66 132.512C1386.66 133.195 1386.52 133.717 1386.24 134.08C1385.96 134.453 1385.52 134.709 1384.91 134.848C1384.31 134.987 1383.5 135.056 1382.48 135.056C1381.65 135.056 1380.96 135.013 1380.42 134.928C1379.88 134.853 1379.46 134.725 1379.15 134.544C1378.84 134.363 1378.63 134.123 1378.5 133.824C1378.37 133.536 1378.31 133.173 1378.31 132.736C1378.31 132.405 1378.36 132.123 1378.48 131.888C1378.6 131.643 1378.8 131.424 1379.09 131.232C1379.38 131.04 1379.77 130.864 1380.27 130.704L1381.44 130.288L1382.29 130.608L1381.65 131.04C1381.38 131.232 1381.16 131.397 1380.99 131.536C1380.83 131.664 1380.72 131.792 1380.64 131.92C1380.58 132.048 1380.55 132.219 1380.55 132.432C1380.55 132.677 1380.6 132.864 1380.71 132.992C1380.81 133.131 1381 133.221 1381.28 133.264C1381.57 133.317 1381.96 133.344 1382.45 133.344C1382.97 133.344 1383.37 133.317 1383.65 133.264C1383.94 133.221 1384.14 133.136 1384.24 133.008C1384.36 132.88 1384.42 132.699 1384.42 132.464C1384.42 132.261 1384.38 132.112 1384.31 132.016C1384.23 131.92 1384.1 131.845 1383.91 131.792C1383.71 131.739 1383.45 131.696 1383.12 131.664L1380.64 131.392C1380.24 131.349 1379.91 131.237 1379.67 131.056C1379.43 130.864 1379.27 130.64 1379.19 130.384C1379.1 130.128 1379.07 129.867 1379.11 129.6C1379.15 129.333 1379.25 129.093 1379.41 128.88C1379.57 128.667 1379.77 128.512 1380.02 128.416ZM1392.29 123.888C1392.95 123.888 1393.51 123.979 1393.97 124.16C1394.43 124.331 1394.78 124.629 1395.01 125.056C1395.26 125.472 1395.38 126.043 1395.38 126.768V132H1393.51L1393.17 130.288L1393.01 130.048V126.768C1393 126.384 1392.91 126.112 1392.72 125.952C1392.55 125.781 1392.23 125.696 1391.75 125.696C1391.33 125.696 1390.82 125.712 1390.21 125.744C1389.6 125.765 1388.98 125.797 1388.34 125.84L1388.13 124.272C1388.52 124.197 1388.95 124.133 1389.44 124.08C1389.95 124.027 1390.45 123.984 1390.95 123.952C1391.45 123.909 1391.9 123.888 1392.29 123.888ZM1394.4 127.136L1394.39 128.464H1390.87C1390.58 128.475 1390.37 128.549 1390.24 128.688C1390.13 128.827 1390.07 129.013 1390.07 129.248V129.632C1390.07 129.899 1390.14 130.107 1390.29 130.256C1390.44 130.395 1390.68 130.464 1391.01 130.464C1391.29 130.464 1391.59 130.405 1391.91 130.288C1392.24 130.171 1392.56 130.005 1392.88 129.792C1393.2 129.579 1393.49 129.328 1393.75 129.04V130.064C1393.65 130.224 1393.51 130.427 1393.32 130.672C1393.12 130.907 1392.88 131.141 1392.6 131.376C1392.31 131.6 1391.97 131.792 1391.59 131.952C1391.2 132.101 1390.77 132.176 1390.28 132.176C1389.81 132.176 1389.37 132.096 1388.98 131.936C1388.6 131.765 1388.29 131.515 1388.07 131.184C1387.84 130.853 1387.73 130.443 1387.73 129.952V129.136C1387.73 128.507 1387.95 128.016 1388.37 127.664C1388.8 127.312 1389.39 127.136 1390.13 127.136H1394.4ZM1402.22 123.888C1403.26 123.888 1404.01 124.208 1404.46 124.848C1404.92 125.477 1405.15 126.523 1405.15 127.984C1405.15 128.592 1405.09 129.152 1404.97 129.664C1404.86 130.176 1404.67 130.624 1404.38 131.008C1404.1 131.381 1403.71 131.675 1403.21 131.888C1402.71 132.091 1402.06 132.192 1401.26 132.192C1400.98 132.192 1400.66 132.176 1400.3 132.144C1399.93 132.123 1399.56 132.085 1399.18 132.032C1398.8 131.989 1398.45 131.931 1398.11 131.856C1397.76 131.771 1397.47 131.675 1397.23 131.568L1399.11 130.208C1399.32 130.272 1399.54 130.331 1399.79 130.384C1400.03 130.427 1400.28 130.459 1400.54 130.48C1400.79 130.491 1401.02 130.491 1401.21 130.48C1401.58 130.469 1401.88 130.395 1402.09 130.256C1402.3 130.107 1402.46 129.856 1402.55 129.504C1402.66 129.141 1402.71 128.64 1402.71 128C1402.71 127.413 1402.67 126.96 1402.59 126.64C1402.51 126.309 1402.37 126.08 1402.15 125.952C1401.95 125.813 1401.66 125.744 1401.27 125.744C1400.92 125.744 1400.6 125.819 1400.31 125.968C1400.03 126.117 1399.71 126.309 1399.35 126.544L1399.18 125.44C1399.45 125.141 1399.75 124.875 1400.07 124.64C1400.39 124.405 1400.73 124.224 1401.1 124.096C1401.46 123.957 1401.83 123.888 1402.22 123.888ZM1399.59 120.8L1399.61 123.36C1399.61 123.723 1399.59 124.075 1399.55 124.416C1399.51 124.747 1399.45 125.072 1399.35 125.392L1399.58 125.6L1399.59 131.68L1397.23 131.568V120.8H1399.59ZM1410.49 123.888C1411.82 123.888 1412.77 124.117 1413.35 124.576C1413.94 125.024 1414.23 125.696 1414.23 126.592C1414.24 127.307 1414.06 127.845 1413.69 128.208C1413.31 128.571 1412.67 128.752 1411.75 128.752H1407.33V127.424H1411.11C1411.46 127.424 1411.69 127.349 1411.78 127.2C1411.89 127.04 1411.94 126.821 1411.94 126.544C1411.94 126.171 1411.83 125.915 1411.62 125.776C1411.42 125.627 1411.07 125.552 1410.57 125.552C1410.13 125.541 1409.79 125.6 1409.54 125.728C1409.3 125.845 1409.13 126.069 1409.03 126.4C1408.93 126.731 1408.89 127.211 1408.89 127.84C1408.89 128.501 1408.94 129.013 1409.06 129.376C1409.18 129.728 1409.38 129.973 1409.65 130.112C1409.94 130.251 1410.34 130.32 1410.84 130.32C1411.2 130.32 1411.65 130.309 1412.18 130.288C1412.73 130.256 1413.27 130.208 1413.81 130.144L1414.04 131.6C1413.73 131.749 1413.38 131.867 1412.98 131.952C1412.59 132.037 1412.18 132.096 1411.77 132.128C1411.35 132.171 1410.95 132.192 1410.57 132.192C1409.56 132.192 1408.76 132.048 1408.15 131.76C1407.54 131.461 1407.1 131.008 1406.82 130.4C1406.55 129.792 1406.42 129.013 1406.42 128.064C1406.42 127.029 1406.55 126.208 1406.82 125.6C1407.1 124.992 1407.54 124.555 1408.13 124.288C1408.73 124.021 1409.51 123.888 1410.49 123.888ZM1421.28 123.888C1422.77 123.888 1423.52 124.619 1423.52 126.08V132H1421.15V126.816C1421.15 126.464 1421.08 126.224 1420.96 126.096C1420.83 125.957 1420.61 125.888 1420.3 125.888C1419.96 125.888 1419.61 125.957 1419.24 126.096C1418.88 126.224 1418.43 126.421 1417.9 126.688L1417.79 125.376C1418.35 124.896 1418.93 124.528 1419.52 124.272C1420.11 124.016 1420.7 123.888 1421.28 123.888ZM1417.68 124.096L1417.95 125.664L1418.14 125.872V132H1415.79V124.096H1417.68ZM1434.35 123.888C1435.85 123.888 1436.59 124.619 1436.59 126.08V132H1434.23V126.816C1434.23 126.464 1434.16 126.224 1434.03 126.096C1433.91 125.957 1433.69 125.888 1433.38 125.888C1433.04 125.888 1432.69 125.957 1432.32 126.096C1431.96 126.224 1431.51 126.421 1430.98 126.688L1430.87 125.376C1431.43 124.896 1432.01 124.528 1432.59 124.272C1433.19 124.016 1433.78 123.888 1434.35 123.888ZM1430.75 124.096L1431.03 125.664L1431.22 125.872V132H1428.87V124.096H1430.75ZM1442.64 123.888C1443.3 123.888 1443.86 123.979 1444.32 124.16C1444.77 124.331 1445.12 124.629 1445.36 125.056C1445.6 125.472 1445.72 126.043 1445.72 126.768V132H1443.85L1443.52 130.288L1443.36 130.048V126.768C1443.35 126.384 1443.25 126.112 1443.07 125.952C1442.9 125.781 1442.57 125.696 1442.09 125.696C1441.68 125.696 1441.16 125.712 1440.56 125.744C1439.95 125.765 1439.32 125.797 1438.68 125.84L1438.48 124.272C1438.86 124.197 1439.3 124.133 1439.79 124.08C1440.29 124.027 1440.79 123.984 1441.29 123.952C1441.79 123.909 1442.24 123.888 1442.64 123.888ZM1444.75 127.136L1444.73 128.464H1441.21C1440.92 128.475 1440.72 128.549 1440.59 128.688C1440.47 128.827 1440.41 129.013 1440.41 129.248V129.632C1440.41 129.899 1440.49 130.107 1440.64 130.256C1440.79 130.395 1441.03 130.464 1441.36 130.464C1441.63 130.464 1441.93 130.405 1442.25 130.288C1442.58 130.171 1442.91 130.005 1443.23 129.792C1443.55 129.579 1443.84 129.328 1444.09 129.04V130.064C1444 130.224 1443.85 130.427 1443.66 130.672C1443.47 130.907 1443.23 131.141 1442.94 131.376C1442.65 131.6 1442.32 131.792 1441.93 131.952C1441.55 132.101 1441.11 132.176 1440.62 132.176C1440.15 132.176 1439.72 132.096 1439.32 131.936C1438.94 131.765 1438.64 131.515 1438.41 131.184C1438.19 130.853 1438.08 130.443 1438.08 129.952V129.136C1438.08 128.507 1438.29 128.016 1438.72 127.664C1439.14 127.312 1439.73 127.136 1440.48 127.136H1444.75ZM1451.27 123.888C1451.55 123.888 1451.87 123.904 1452.21 123.936C1452.55 123.957 1452.89 124.005 1453.23 124.08C1453.59 124.144 1453.91 124.24 1454.19 124.368L1453.94 125.856C1453.51 125.835 1453.1 125.824 1452.71 125.824C1452.32 125.813 1451.97 125.808 1451.67 125.808C1451.19 125.808 1450.81 125.872 1450.53 126C1450.25 126.128 1450.05 126.352 1449.92 126.672C1449.8 126.992 1449.75 127.445 1449.75 128.032C1449.75 128.619 1449.8 129.077 1449.92 129.408C1450.05 129.739 1450.25 129.968 1450.53 130.096C1450.81 130.224 1451.19 130.288 1451.67 130.288C1451.84 130.288 1452.05 130.283 1452.32 130.272C1452.59 130.261 1452.88 130.251 1453.19 130.24C1453.49 130.219 1453.8 130.187 1454.1 130.144L1454.32 131.648C1453.89 131.84 1453.41 131.979 1452.87 132.064C1452.32 132.149 1451.78 132.192 1451.25 132.192C1450.28 132.192 1449.5 132.059 1448.91 131.792C1448.33 131.515 1447.91 131.072 1447.65 130.464C1447.39 129.856 1447.27 129.045 1447.27 128.032C1447.27 127.019 1447.39 126.208 1447.65 125.6C1447.92 124.992 1448.34 124.555 1448.93 124.288C1449.52 124.021 1450.29 123.888 1451.27 123.888ZM1461.23 123.888C1462.72 123.888 1463.47 124.619 1463.47 126.08V132H1461.1V126.816C1461.1 126.464 1461.04 126.224 1460.91 126.096C1460.78 125.957 1460.56 125.888 1460.25 125.888C1459.91 125.888 1459.56 125.952 1459.2 126.08C1458.83 126.208 1458.39 126.411 1457.85 126.688L1457.65 125.472C1458.23 124.96 1458.83 124.571 1459.44 124.304C1460.05 124.027 1460.64 123.888 1461.23 123.888ZM1458.09 120.8L1458.11 123.536C1458.11 123.952 1458.08 124.347 1458.03 124.72C1457.99 125.093 1457.93 125.408 1457.87 125.664L1458.09 125.872V132H1455.74V120.8H1458.09ZM1473.52 120.96V132H1471.08V120.96H1473.52ZM1476.84 120.96V122.88H1467.76V120.96H1476.84ZM1485.13 124.096L1482.3 132.096C1482.17 132.491 1481.99 132.885 1481.75 133.28C1481.53 133.685 1481.24 134.048 1480.89 134.368C1480.55 134.688 1480.13 134.928 1479.64 135.088C1479.16 135.248 1478.59 135.291 1477.93 135.216L1477.75 133.872C1478.41 133.701 1478.91 133.472 1479.27 133.184C1479.64 132.896 1479.92 132.517 1480.12 132.048L1480.62 130.944C1480.71 130.709 1480.81 130.427 1480.89 130.096C1480.99 129.755 1481.07 129.461 1481.13 129.216L1482.62 124.096H1485.13ZM1478.86 124.096L1480.36 129.216C1480.41 129.419 1480.45 129.621 1480.49 129.824C1480.53 130.027 1480.57 130.229 1480.6 130.432H1481.03L1480.28 132H1479.71C1479.53 132 1479.37 131.947 1479.23 131.84C1479.09 131.733 1478.99 131.595 1478.94 131.424L1476.35 124.096H1478.86ZM1491.44 123.904C1492.43 123.904 1493.14 124.267 1493.57 124.992C1494 125.717 1494.21 126.757 1494.21 128.112C1494.21 129.168 1494.1 129.995 1493.87 130.592C1493.66 131.179 1493.33 131.595 1492.88 131.84C1492.44 132.085 1491.89 132.208 1491.23 132.208C1490.67 132.208 1490.13 132.128 1489.62 131.968C1489.11 131.808 1488.65 131.541 1488.26 131.168L1488.42 130.112C1488.77 130.219 1489.09 130.315 1489.38 130.4C1489.68 130.475 1490.01 130.512 1490.39 130.512C1490.73 130.512 1491 130.453 1491.2 130.336C1491.4 130.219 1491.55 129.989 1491.65 129.648C1491.75 129.296 1491.79 128.789 1491.79 128.128C1491.79 127.477 1491.75 126.976 1491.65 126.624C1491.56 126.272 1491.43 126.032 1491.23 125.904C1491.05 125.776 1490.81 125.712 1490.5 125.712C1490.15 125.712 1489.83 125.776 1489.54 125.904C1489.25 126.032 1488.92 126.224 1488.56 126.48L1488.26 125.392C1488.47 125.104 1488.74 124.848 1489.07 124.624C1489.41 124.4 1489.79 124.224 1490.19 124.096C1490.6 123.968 1491.01 123.904 1491.44 123.904ZM1488.16 124.096L1488.39 125.536L1488.61 125.776V130.912L1488.53 131.104C1488.56 131.424 1488.58 131.755 1488.59 132.096C1488.61 132.437 1488.62 132.779 1488.61 133.12V135.04H1486.26V124.096H1488.16Z" fill="#003A69"/>
<path d="M902.872 104.96L899.992 109.408C899.875 109.6 899.747 109.765 899.608 109.904C899.469 110.032 899.331 110.144 899.192 110.24V110.288C899.341 110.384 899.501 110.517 899.672 110.688C899.843 110.859 899.981 111.035 900.088 111.216L903.064 116H900.344L896.92 110.224L900.232 104.96H902.872ZM896.552 104.96V108.08C896.552 108.443 896.525 108.805 896.472 109.168C896.419 109.52 896.333 109.867 896.216 110.208C896.301 110.528 896.376 110.864 896.44 111.216C896.515 111.568 896.552 111.893 896.552 112.192V116H894.12V104.96H896.552ZM897.8 109.408V111.104H895.816V109.408H897.8ZM906.343 108.096V113.296C906.343 113.627 906.412 113.861 906.551 114C906.7 114.139 906.935 114.208 907.255 114.208C907.585 114.208 907.911 114.149 908.231 114.032C908.561 113.904 908.972 113.707 909.463 113.44L909.639 114.736C909.063 115.227 908.497 115.595 907.943 115.84C907.399 116.085 906.828 116.208 906.231 116.208C904.737 116.208 903.991 115.477 903.991 114.016V108.096H906.343ZM911.575 108.096V116H909.719L909.447 114.448L909.207 114.224V108.096H911.575ZM919.011 107.888C920.504 107.888 921.251 108.619 921.251 110.08V116H918.883V110.816C918.883 110.464 918.819 110.224 918.691 110.096C918.563 109.957 918.344 109.888 918.035 109.888C917.694 109.888 917.342 109.957 916.979 110.096C916.616 110.224 916.168 110.421 915.635 110.688L915.523 109.376C916.088 108.896 916.664 108.528 917.251 108.272C917.848 108.016 918.435 107.888 919.011 107.888ZM915.411 108.096L915.683 109.664L915.875 109.872V116H913.523V108.096H915.411ZM925.82 107.888C926.386 107.888 926.924 107.968 927.436 108.128C927.948 108.288 928.402 108.549 928.796 108.912L928.636 109.984C928.284 109.877 927.959 109.787 927.66 109.712C927.372 109.627 927.036 109.584 926.652 109.584C926.322 109.584 926.055 109.643 925.852 109.76C925.65 109.877 925.5 110.107 925.404 110.448C925.308 110.789 925.26 111.296 925.26 111.968C925.26 112.597 925.303 113.077 925.388 113.408C925.484 113.728 925.628 113.952 925.82 114.08C926.023 114.197 926.279 114.256 926.588 114.256C926.866 114.256 927.106 114.229 927.308 114.176C927.511 114.112 927.714 114.021 927.916 113.904C928.119 113.776 928.354 113.621 928.62 113.44L928.78 114.608C928.46 115.056 928.044 115.435 927.532 115.744C927.02 116.043 926.391 116.192 925.644 116.192C924.631 116.192 923.906 115.829 923.468 115.104C923.042 114.379 922.828 113.339 922.828 111.984C922.828 110.928 922.94 110.107 923.164 109.52C923.388 108.923 923.719 108.501 924.156 108.256C924.604 108.011 925.159 107.888 925.82 107.888ZM930.732 104.8V116H928.86L928.62 114.544L928.364 114.368V109.184L928.46 108.96C928.428 108.64 928.402 108.315 928.38 107.984C928.37 107.643 928.364 107.296 928.364 106.944V104.8H930.732ZM936.407 107.888C937.74 107.888 938.695 108.117 939.271 108.576C939.858 109.024 940.151 109.696 940.151 110.592C940.162 111.307 939.98 111.845 939.607 112.208C939.234 112.571 938.588 112.752 937.671 112.752H933.255V111.424H937.031C937.383 111.424 937.607 111.349 937.703 111.2C937.81 111.04 937.863 110.821 937.863 110.544C937.863 110.171 937.756 109.915 937.543 109.776C937.34 109.627 936.988 109.552 936.487 109.552C936.05 109.541 935.708 109.6 935.463 109.728C935.218 109.845 935.047 110.069 934.951 110.4C934.855 110.731 934.807 111.211 934.807 111.84C934.807 112.501 934.866 113.013 934.983 113.376C935.1 113.728 935.298 113.973 935.575 114.112C935.863 114.251 936.258 114.32 936.759 114.32C937.122 114.32 937.57 114.309 938.103 114.288C938.647 114.256 939.191 114.208 939.735 114.144L939.959 115.6C939.65 115.749 939.298 115.867 938.903 115.952C938.508 116.037 938.103 116.096 937.687 116.128C937.271 116.171 936.871 116.192 936.487 116.192C935.484 116.192 934.679 116.048 934.071 115.76C933.463 115.461 933.02 115.008 932.743 114.4C932.476 113.792 932.343 113.013 932.343 112.064C932.343 111.029 932.476 110.208 932.743 109.6C933.02 108.992 933.458 108.555 934.055 108.288C934.652 108.021 935.436 107.888 936.407 107.888ZM947.198 107.888C948.692 107.888 949.438 108.619 949.438 110.08V116H947.07V110.816C947.07 110.464 947.006 110.224 946.878 110.096C946.75 109.957 946.532 109.888 946.222 109.888C945.881 109.888 945.529 109.957 945.166 110.096C944.804 110.224 944.356 110.421 943.822 110.688L943.71 109.376C944.276 108.896 944.852 108.528 945.438 108.272C946.036 108.016 946.622 107.888 947.198 107.888ZM943.598 108.096L943.87 109.664L944.062 109.872V116H941.71V108.096H943.598Z" fill="#003A69"/>
<rect width="1920" height="89" fill="white"/>
<path d="M0 -9.91821e-05V89.0332H271.028L307 -9.91821e-05H0Z" fill="#003A69"/>
<path d="M175.01 54.2131H177.169V64.2302H182.027V66.0376H175.01V54.2131ZM169.877 61.055L168.949 58.143C168.72 57.4244 168.528 56.6162 168.353 55.9323H168.315C168.14 56.6162 167.965 57.4403 167.754 58.143L166.842 61.055H169.877ZM166.491 62.686L165.474 66.0376H163.246L167.034 54.2131H169.792L173.632 66.0376H171.316L170.246 62.686H166.491ZM158.71 56.0205H155.341V54.2131H164.271V56.0205H160.868V66.0376H158.71V56.0205ZM153.773 60.7919H149.315V64.2664H154.298V66.0376H147.158V54.2131H154.034V55.9843H149.315V59.038H153.773V60.7919ZM142.903 61.2127C142.832 59.6872 142.745 57.8452 142.762 56.2475H142.709C142.323 57.6861 141.833 59.2838 141.305 60.7745L139.587 65.8973H137.92L136.341 60.8454C135.884 59.3359 135.463 57.7223 135.148 56.2475H135.114C135.06 57.7917 134.989 59.6684 134.902 61.2849L134.639 66.0376H132.622L133.412 54.2131H136.253L137.797 58.9672C138.218 60.3538 138.587 61.7577 138.884 63.0721H138.936C139.253 61.7924 139.657 60.335 140.113 58.9498L141.744 54.2131H144.551L145.236 66.0376H143.131L142.903 61.2127ZM124.005 63.6866C124.708 64.09 125.76 64.4413 126.865 64.4413C128.25 64.4413 129.022 63.7921 129.022 62.8277C129.022 61.9327 128.425 61.4064 126.917 60.8627C124.969 60.16 123.724 59.1248 123.724 57.4244C123.724 55.4942 125.338 54.0208 127.9 54.0208C129.18 54.0208 130.128 54.3013 130.741 54.6165L130.215 56.353C129.794 56.126 128.97 55.7935 127.864 55.7935C126.496 55.7935 125.899 56.5294 125.899 57.2119C125.899 58.1257 126.583 58.5464 128.162 59.1609C130.215 59.933 131.214 60.9669 131.214 62.6701C131.214 64.5642 129.777 66.214 126.725 66.214C125.478 66.214 124.18 65.8626 123.532 65.4766L124.005 63.6866ZM118.574 61.055L117.644 58.143C117.417 57.4244 117.224 56.6162 117.049 55.9323H117.013C116.838 56.6162 116.663 57.4403 116.452 58.143L115.539 61.055H118.574ZM115.189 62.686L114.171 66.0376H111.942L115.731 54.2131H118.487L122.328 66.0376H120.013L118.943 62.686H115.189ZM104.776 59.599H106.057C107.513 59.599 108.425 58.8269 108.425 57.6514C108.425 56.353 107.513 55.7573 106.109 55.7573C105.425 55.7573 104.987 55.8094 104.776 55.8629V59.599ZM102.636 54.3707C103.443 54.2305 104.653 54.1249 105.898 54.1249C107.6 54.1249 108.758 54.4069 109.549 55.0734C110.198 55.6171 110.565 56.4412 110.565 57.4403C110.565 58.9672 109.53 60.0024 108.425 60.4073V60.4579C109.267 60.7745 109.776 61.5987 110.074 62.7381C110.442 64.2143 110.759 65.5807 111.003 66.0376H108.777C108.6 65.6877 108.32 64.7218 107.987 63.247C107.653 61.7057 107.092 61.2127 105.865 61.1779H104.776V66.0376H102.636V54.3707ZM94.9426 64.4775C95.2231 64.5107 95.5918 64.5295 96.0834 64.5295C97.4685 64.5295 98.6976 64.0018 98.6976 62.5472C98.6976 61.1779 97.5047 60.6169 96.0125 60.6169H94.9426V64.4775ZM94.9426 59.038H96.0472C97.538 59.038 98.3809 58.3368 98.3809 57.3362C98.3809 56.2316 97.5379 55.7212 96.1701 55.7212C95.5383 55.7212 95.171 55.7573 94.9426 55.8094V59.038ZM92.8027 54.3707C93.4866 54.2305 94.7329 54.1249 95.9417 54.1249C97.5379 54.1249 98.5212 54.3187 99.328 54.8797C100.065 55.3192 100.557 56.0899 100.557 57.0904C100.557 58.1777 99.8731 59.1783 98.5906 59.6525V59.6872C99.8369 60.0024 100.978 60.9856 100.978 62.6166C100.978 63.6692 100.521 64.4934 99.8369 65.0558C98.9954 65.7932 97.6088 66.1619 95.4515 66.1619C94.2572 66.1619 93.3463 66.0737 92.8027 66.0014V54.3707ZM79.1405 44.1368C79.1405 56.7449 68.9196 66.9658 56.3115 66.9658C43.7034 66.9658 33.4824 56.7449 33.4824 44.1368C33.4824 31.5301 43.7034 21.3077 56.3115 21.3077C68.9196 21.3077 79.1405 31.5301 79.1405 44.1368ZM216.695 48.0276V33.1799H212.549V51.4414H222.762V48.0276H216.695ZM150.45 48.0276V47.9741V33.1799H146.305V51.4414H156.516V48.0276H150.45ZM163.519 48.0291V47.9178L172.027 35.5641V33.1799H158.777V36.5936H166.664V36.702L158.687 48.1795V51.4414H172.164V48.0291H163.519ZM229.767 48.0291V47.9178L238.274 35.5641V33.1799H225.026V36.5936H232.91V36.702L224.933 48.1795V51.4414H238.41V48.0291H229.767ZM196.918 42.3656C196.918 45.9412 198.598 48.46 201.361 48.46C204.153 48.46 205.752 45.8082 205.752 42.2571C205.752 38.9793 204.182 36.1598 201.335 36.1598C198.544 36.1598 196.918 38.8159 196.918 42.3656ZM210.113 42.1212C210.113 48.1072 206.481 51.7392 201.144 51.7392C195.725 51.7392 192.556 47.6488 192.556 42.448C192.556 36.9739 196.05 32.8806 201.443 32.8806C207.051 32.8806 210.113 37.0809 210.113 42.1212ZM179.148 33.1799V40.1967H185.947V33.1799H190.067V51.4414H185.947V43.8013H179.148V51.4414H175.003V33.1799H179.148ZM142.064 43.7204H135.743V48.0537H143.25V51.4414H131.597V33.1799H142.869V36.5676H135.743V40.3587H142.064V43.7204ZM123.327 43.6654L122.189 39.7904C121.863 38.7075 121.538 37.3527 121.266 36.2683H121.214C120.942 37.3527 120.671 38.7335 120.373 39.7904L119.29 43.6654H123.327ZM118.694 46.7538L117.393 51.4414H113.112L118.694 33.1799H124.112L129.775 51.4414H125.334L123.922 46.7538H118.694ZM95.3474 51.4414L91.0127 33.1799H95.4299L96.8107 40.7129C97.2184 42.8803 97.5987 45.2371 97.8965 47.0791H97.9486C98.2479 45.1012 98.6816 42.9049 99.1429 40.658L100.687 33.1799H105.075L106.539 40.8734C106.946 43.0162 107.243 44.9667 107.516 46.9982H107.568C107.84 44.9667 108.246 42.8268 108.625 40.658L110.114 33.1799H114.315L109.6 51.4414H105.13L103.588 43.5844C103.233 41.7409 102.935 40.0348 102.719 37.9484H102.664C102.34 40.0073 102.042 41.7409 101.607 43.5844L99.8731 51.4414H95.3474Z" fill="white"/>
<path d="M73.6626 33.1797H70.9212L63.6224 50.9106L56.3221 33.1797H49.0161L61.3393 63.111L73.6626 33.1797ZM54.9413 54.2506L46.2675 33.1797H38.96L51.289 63.1211L54.9413 54.2506ZM59.5739 35.9182C59.5739 37.5825 59.7807 38.7637 61.4362 38.7637C63.0151 38.7637 63.1293 37.6056 63.1293 36.8089H62.0276C62.0276 37.6056 61.8656 37.9512 61.3668 37.9512C60.8174 37.9512 60.6815 37.409 60.6786 35.9182C60.6815 34.4275 60.8174 33.8868 61.3668 33.8868C61.8656 33.8868 62.0276 34.2323 62.0276 35.029H63.1293C63.1293 34.2323 63.0151 33.0742 61.4362 33.0742C59.7807 33.0742 59.5739 34.2555 59.5739 35.9182ZM64.1068 38.6553H65.8462C67.3108 38.6553 67.7258 37.7805 67.7258 35.8416C67.7258 34.2323 67.4496 33.1812 65.9156 33.1812H64.1068V38.6553ZM65.7016 37.8413H65.2114V33.9952H65.6784C66.5214 33.9952 66.6212 34.63 66.6212 35.872C66.6212 37.3583 66.4679 37.8413 65.7016 37.8413Z" fill="#003A69"/>
</g>
<defs>
<clipPath id="clip0_3015_7363">
<rect width="1920" height="1080" fill="white"/>
</clipPath>
</defs>
</svg>
