<svg width="1920" height="1080" viewBox="0 0 1920 1080" fill="none" xmlns="http://www.w3.org/2000/svg">
<g clip-path="url(#clip0_3079_8040)">
<rect width="1920" height="1080" fill="#F5F5F5"/>
<mask id="path-1-inside-1_3079_8040" fill="white">
<path d="M24 1038H1896V1065H24V1038Z"/>
</mask>
<path d="M24 1039H1896V1037H24V1039Z" fill="#99B0C3" mask="url(#path-1-inside-1_3079_8040)"/>
<path d="M40.768 146.72V155H39.712V146.72H40.768ZM43.444 146.72V147.656H37.048V146.72H43.444ZM45.793 149.012C46.465 149.012 47.001 149.112 47.401 149.312C47.809 149.512 48.101 149.84 48.277 150.296C48.453 150.744 48.541 151.34 48.541 152.084C48.541 152.828 48.453 153.428 48.277 153.884C48.101 154.332 47.809 154.656 47.401 154.856C47.001 155.056 46.465 155.156 45.793 155.156C45.129 155.156 44.593 155.056 44.185 154.856C43.785 154.656 43.493 154.332 43.309 153.884C43.133 153.428 43.045 152.828 43.045 152.084C43.045 151.34 43.133 150.744 43.309 150.296C43.493 149.84 43.785 149.512 44.185 149.312C44.593 149.112 45.129 149.012 45.793 149.012ZM45.793 149.876C45.369 149.876 45.033 149.944 44.785 150.08C44.545 150.208 44.373 150.432 44.269 150.752C44.165 151.072 44.113 151.516 44.113 152.084C44.113 152.652 44.165 153.096 44.269 153.416C44.373 153.736 44.545 153.964 44.785 154.1C45.033 154.228 45.369 154.292 45.793 154.292C46.217 154.292 46.553 154.228 46.801 154.1C47.049 153.964 47.225 153.736 47.329 153.416C47.433 153.096 47.485 152.652 47.485 152.084C47.485 151.516 47.433 151.072 47.329 150.752C47.225 150.432 47.049 150.208 46.801 150.08C46.553 149.944 46.217 149.876 45.793 149.876ZM52.6133 149.012C53.2853 149.012 53.8213 149.112 54.2213 149.312C54.6293 149.512 54.9213 149.84 55.0973 150.296C55.2733 150.744 55.3613 151.34 55.3613 152.084C55.3613 152.828 55.2733 153.428 55.0973 153.884C54.9213 154.332 54.6293 154.656 54.2213 154.856C53.8213 155.056 53.2853 155.156 52.6133 155.156C51.9493 155.156 51.4133 155.056 51.0053 154.856C50.6053 154.656 50.3133 154.332 50.1293 153.884C49.9533 153.428 49.8653 152.828 49.8653 152.084C49.8653 151.34 49.9533 150.744 50.1293 150.296C50.3133 149.84 50.6053 149.512 51.0053 149.312C51.4133 149.112 51.9493 149.012 52.6133 149.012ZM52.6133 149.876C52.1893 149.876 51.8533 149.944 51.6053 150.08C51.3653 150.208 51.1933 150.432 51.0893 150.752C50.9853 151.072 50.9333 151.516 50.9333 152.084C50.9333 152.652 50.9853 153.096 51.0893 153.416C51.1933 153.736 51.3653 153.964 51.6053 154.1C51.8533 154.228 52.1893 154.292 52.6133 154.292C53.0373 154.292 53.3733 154.228 53.6213 154.1C53.8693 153.964 54.0453 153.736 54.1493 153.416C54.2533 153.096 54.3053 152.652 54.3053 152.084C54.3053 151.516 54.2533 151.072 54.1493 150.752C54.0453 150.432 53.8693 150.208 53.6213 150.08C53.3733 149.944 53.0373 149.876 52.6133 149.876ZM57.9936 146.6L57.9816 153.392C57.9816 153.648 58.0496 153.844 58.1856 153.98C58.3296 154.108 58.5296 154.172 58.7856 154.172H59.3496L59.4696 154.952C59.3976 154.984 59.2936 155.012 59.1576 155.036C59.0296 155.06 58.8936 155.076 58.7496 155.084C58.6136 155.1 58.4976 155.108 58.4016 155.108C57.9696 155.108 57.6216 154.98 57.3576 154.724C57.1016 154.468 56.9736 154.1 56.9736 153.62V146.6H57.9936ZM61.9061 147.428V153.392C61.9061 153.672 61.9661 153.872 62.0861 153.992C62.2061 154.112 62.4101 154.172 62.6981 154.172H63.5861L63.7061 154.952C63.5781 154.984 63.4301 155.012 63.2621 155.036C63.0941 155.06 62.9301 155.076 62.7701 155.084C62.6101 155.1 62.4821 155.108 62.3861 155.108C61.8981 155.108 61.5261 154.972 61.2701 154.7C61.0141 154.428 60.8861 154.036 60.8861 153.524V147.428H61.9061ZM63.7661 149.156V149.96H59.8301V149.216L60.9821 149.156H63.7661ZM66.0684 149.156V155H65.0604V149.156H66.0684ZM65.8044 146.672C66.0124 146.672 66.1164 146.776 66.1164 146.984V147.668C66.1164 147.876 66.0124 147.98 65.8044 147.98H65.3244C65.1164 147.98 65.0124 147.876 65.0124 147.668V146.984C65.0124 146.776 65.1164 146.672 65.3244 146.672H65.8044ZM71.3369 149.012C72.0489 149.012 72.5609 149.276 72.8729 149.804C73.1849 150.324 73.3409 151.092 73.3409 152.108C73.3409 152.86 73.2609 153.46 73.1009 153.908C72.9409 154.348 72.6969 154.664 72.3689 154.856C72.0489 155.048 71.6369 155.144 71.1329 155.144C70.7489 155.144 70.3689 155.092 69.9929 154.988C69.6249 154.884 69.2649 154.724 68.9129 154.508L68.9729 153.896C69.3489 154 69.6809 154.088 69.9689 154.16C70.2569 154.224 70.5609 154.256 70.8809 154.256C71.2249 154.256 71.4969 154.196 71.6969 154.076C71.9049 153.956 72.0569 153.74 72.1529 153.428C72.2489 153.116 72.2969 152.676 72.2969 152.108C72.2969 151.556 72.2529 151.12 72.1649 150.8C72.0769 150.48 71.9369 150.252 71.7449 150.116C71.5609 149.972 71.3129 149.9 71.0009 149.9C70.6809 149.9 70.3649 149.976 70.0529 150.128C69.7409 150.28 69.3769 150.512 68.9609 150.824L68.8649 150.14C69.0809 149.908 69.3249 149.708 69.5969 149.54C69.8689 149.372 70.1529 149.244 70.4489 149.156C70.7529 149.06 71.0489 149.012 71.3369 149.012ZM68.8289 149.156L68.9369 150.368L69.0089 150.524V154.268L68.9609 154.412C68.9849 154.636 68.9969 154.852 68.9969 155.06C69.0049 155.268 69.0089 155.488 69.0089 155.72V157.412H67.9889V149.156H68.8289ZM75.5619 149.72C75.7059 149.72 75.8059 149.748 75.8619 149.804C75.9179 149.86 75.9459 149.96 75.9459 150.104V150.752C75.9459 150.896 75.9179 150.996 75.8619 151.052C75.8059 151.108 75.7059 151.136 75.5619 151.136H75.2259C75.0899 151.136 74.9899 151.108 74.9259 151.052C74.8699 150.996 74.8419 150.896 74.8419 150.752V150.104C74.8419 149.96 74.8699 149.86 74.9259 149.804C74.9899 149.748 75.0899 149.72 75.2259 149.72H75.5619ZM75.5619 153.584C75.7059 153.584 75.8059 153.612 75.8619 153.668C75.9179 153.724 75.9459 153.824 75.9459 153.968V154.616C75.9459 154.76 75.9179 154.86 75.8619 154.916C75.8059 154.972 75.7059 155 75.5619 155H75.2259C75.0899 155 74.9899 154.972 74.9259 154.916C74.8699 154.86 74.8419 154.76 74.8419 154.616V153.968C74.8419 153.824 74.8699 153.724 74.9259 153.668C74.9899 153.612 75.0899 153.584 75.2259 153.584H75.5619Z" fill="black"/>
<rect width="1920" height="89" fill="white"/>
<path d="M0 -9.65086e-05V89.0332H271.028L307 -9.65086e-05H0Z" fill="#003A69"/>
<path d="M175.01 54.2131H177.169V64.2302H182.027V66.0376H175.01V54.2131ZM169.877 61.055L168.949 58.143C168.72 57.4244 168.528 56.6162 168.353 55.9323H168.315C168.14 56.6162 167.965 57.4403 167.754 58.143L166.842 61.055H169.877ZM166.491 62.686L165.474 66.0376H163.246L167.034 54.2131H169.792L173.632 66.0376H171.316L170.246 62.686H166.491ZM158.71 56.0205H155.341V54.2131H164.271V56.0205H160.868V66.0376H158.71V56.0205ZM153.773 60.7919H149.315V64.2664H154.298V66.0376H147.158V54.2131H154.034V55.9843H149.315V59.038H153.773V60.7919ZM142.903 61.2127C142.832 59.6872 142.745 57.8452 142.762 56.2475H142.709C142.323 57.6861 141.833 59.2838 141.305 60.7745L139.587 65.8973H137.92L136.341 60.8454C135.884 59.3359 135.463 57.7223 135.148 56.2475H135.114C135.06 57.7917 134.989 59.6684 134.902 61.2849L134.639 66.0376H132.622L133.412 54.2131H136.253L137.797 58.9672C138.218 60.3538 138.587 61.7577 138.884 63.0721H138.936C139.253 61.7924 139.657 60.335 140.113 58.9498L141.744 54.2131H144.551L145.236 66.0376H143.131L142.903 61.2127ZM124.005 63.6866C124.708 64.09 125.76 64.4413 126.865 64.4413C128.25 64.4413 129.022 63.7921 129.022 62.8277C129.022 61.9327 128.425 61.4064 126.917 60.8627C124.969 60.16 123.724 59.1248 123.724 57.4244C123.724 55.4942 125.338 54.0208 127.9 54.0208C129.18 54.0208 130.128 54.3013 130.741 54.6165L130.215 56.353C129.794 56.126 128.97 55.7935 127.864 55.7935C126.496 55.7935 125.899 56.5294 125.899 57.2119C125.899 58.1257 126.583 58.5464 128.162 59.1609C130.215 59.933 131.214 60.9669 131.214 62.6701C131.214 64.5642 129.777 66.214 126.725 66.214C125.478 66.214 124.18 65.8626 123.532 65.4766L124.005 63.6866ZM118.574 61.055L117.644 58.143C117.417 57.4244 117.224 56.6162 117.049 55.9323H117.013C116.838 56.6162 116.663 57.4403 116.452 58.143L115.539 61.055H118.574ZM115.189 62.686L114.171 66.0376H111.942L115.732 54.2131H118.487L122.328 66.0376H120.013L118.943 62.686H115.189ZM104.776 59.599H106.057C107.513 59.599 108.425 58.8269 108.425 57.6514C108.425 56.353 107.513 55.7573 106.109 55.7573C105.425 55.7573 104.987 55.8094 104.776 55.8629V59.599ZM102.636 54.3707C103.443 54.2305 104.653 54.1249 105.898 54.1249C107.6 54.1249 108.758 54.4069 109.549 55.0734C110.198 55.6171 110.565 56.4412 110.565 57.4403C110.565 58.9672 109.53 60.0024 108.425 60.4073V60.4579C109.267 60.7745 109.776 61.5987 110.074 62.7381C110.442 64.2143 110.759 65.5807 111.003 66.0376H108.777C108.6 65.6877 108.32 64.7218 107.987 63.247C107.653 61.7057 107.092 61.2127 105.865 61.1779H104.776V66.0376H102.636V54.3707ZM94.9426 64.4775C95.2231 64.5107 95.5918 64.5295 96.0834 64.5295C97.4685 64.5295 98.6976 64.0018 98.6976 62.5472C98.6976 61.1779 97.5047 60.6169 96.0125 60.6169H94.9426V64.4775ZM94.9426 59.038H96.0472C97.538 59.038 98.3809 58.3368 98.3809 57.3362C98.3809 56.2316 97.538 55.7212 96.1701 55.7212C95.5383 55.7212 95.171 55.7573 94.9426 55.8094V59.038ZM92.8027 54.3707C93.4866 54.2305 94.7329 54.1249 95.9417 54.1249C97.538 54.1249 98.5212 54.3187 99.328 54.8797C100.065 55.3192 100.557 56.0899 100.557 57.0904C100.557 58.1777 99.8731 59.1783 98.5906 59.6525V59.6872C99.8369 60.0024 100.978 60.9856 100.978 62.6166C100.978 63.6692 100.521 64.4934 99.8369 65.0558C98.9954 65.7932 97.6088 66.1619 95.4515 66.1619C94.2572 66.1619 93.3463 66.0737 92.8027 66.0014V54.3707ZM79.1405 44.1368C79.1405 56.7449 68.9196 66.9658 56.3115 66.9658C43.7034 66.9658 33.4824 56.7449 33.4824 44.1368C33.4824 31.5301 43.7034 21.3077 56.3115 21.3077C68.9196 21.3077 79.1405 31.5301 79.1405 44.1368ZM216.695 48.0276V33.1799H212.549V51.4414H222.762V48.0276H216.695ZM150.45 48.0276V47.9741V33.1799H146.305V51.4414H156.516V48.0276H150.45ZM163.519 48.0291V47.9178L172.027 35.5641V33.1799H158.777V36.5936H166.664V36.702L158.687 48.1795V51.4414H172.164V48.0291H163.519ZM229.767 48.0291V47.9178L238.274 35.5641V33.1799H225.026V36.5936H232.91V36.702L224.933 48.1795V51.4414H238.41V48.0291H229.767ZM196.918 42.3656C196.918 45.9412 198.598 48.46 201.361 48.46C204.153 48.46 205.752 45.8082 205.752 42.2571C205.752 38.9793 204.182 36.1598 201.335 36.1598C198.544 36.1598 196.918 38.8159 196.918 42.3656ZM210.113 42.1212C210.113 48.1072 206.481 51.7392 201.144 51.7392C195.725 51.7392 192.556 47.6488 192.556 42.448C192.556 36.9739 196.05 32.8806 201.443 32.8806C207.051 32.8806 210.113 37.0809 210.113 42.1212ZM179.148 33.1799V40.1967H185.946V33.1799H190.067V51.4414H185.946V43.8013H179.148V51.4414H175.003V33.1799H179.148ZM142.064 43.7204H135.743V48.0537H143.25V51.4414H131.597V33.1799H142.869V36.5676H135.743V40.3587H142.064V43.7204ZM123.327 43.6654L122.189 39.7904C121.863 38.7075 121.538 37.3527 121.266 36.2683H121.214C120.942 37.3527 120.671 38.7335 120.373 39.7904L119.29 43.6654H123.327ZM118.694 46.7538L117.393 51.4414H113.112L118.694 33.1799H124.112L129.775 51.4414H125.334L123.922 46.7538H118.694ZM95.3474 51.4414L91.0127 33.1799H95.4299L96.8107 40.7129C97.2184 42.8803 97.5987 45.2371 97.8965 47.0791H97.9486C98.2479 45.1012 98.6816 42.9049 99.1429 40.658L100.687 33.1799H105.075L106.539 40.8734C106.946 43.0162 107.243 44.9667 107.516 46.9982H107.568C107.84 44.9667 108.246 42.8268 108.625 40.658L110.114 33.1799H114.315L109.6 51.4414H105.13L103.588 43.5844C103.233 41.7409 102.935 40.0348 102.719 37.9484H102.664C102.34 40.0073 102.042 41.7409 101.607 43.5844L99.8731 51.4414H95.3474Z" fill="white"/>
<path d="M73.6626 33.1797H70.9212L63.6224 50.9106L56.3221 33.1797H49.0161L61.3393 63.111L73.6626 33.1797ZM54.9413 54.2506L46.2675 33.1797H38.96L51.289 63.1211L54.9413 54.2506ZM59.5739 35.9182C59.5739 37.5825 59.7807 38.7637 61.4362 38.7637C63.0151 38.7637 63.1293 37.6056 63.1293 36.8089H62.0276C62.0276 37.6056 61.8656 37.9512 61.3668 37.9512C60.8174 37.9512 60.6815 37.409 60.6786 35.9182C60.6815 34.4275 60.8174 33.8868 61.3668 33.8868C61.8656 33.8868 62.0276 34.2323 62.0276 35.029H63.1293C63.1293 34.2323 63.0151 33.0742 61.4362 33.0742C59.7807 33.0742 59.5739 34.2555 59.5739 35.9182ZM64.1068 38.6553H65.8462C67.3108 38.6553 67.7258 37.7805 67.7258 35.8416C67.7258 34.2323 67.4496 33.1812 65.9156 33.1812H64.1068V38.6553ZM65.7016 37.8413H65.2114V33.9952H65.6784C66.5214 33.9952 66.6212 34.63 66.6212 35.872C66.6212 37.3583 66.4679 37.8413 65.7016 37.8413Z" fill="#003A69"/>
<path d="M31.664 93.736C32.144 93.736 32.5813 93.752 32.976 93.784C33.3707 93.816 33.744 93.8587 34.096 93.912C34.4587 93.9653 34.8107 94.0453 35.152 94.152L34.96 95.928C34.5867 95.9067 34.224 95.8907 33.872 95.88C33.52 95.8693 33.168 95.864 32.816 95.864C32.464 95.8533 32.096 95.848 31.712 95.848C31.2533 95.848 30.8693 95.896 30.56 95.992C30.2613 96.088 30.0213 96.2693 29.84 96.536C29.6587 96.792 29.5253 97.1653 29.44 97.656C29.3653 98.136 29.328 98.7547 29.328 99.512C29.328 100.429 29.3867 101.149 29.504 101.672C29.6213 102.195 29.8187 102.568 30.096 102.792C30.3733 103.005 30.7467 103.112 31.216 103.112C31.536 103.112 31.8293 103.08 32.096 103.016C32.3627 102.952 32.608 102.867 32.832 102.76C33.056 102.643 33.264 102.531 33.456 102.424L33.712 103.576C33.552 103.8 33.312 104.04 32.992 104.296C32.6827 104.552 32.304 104.771 31.856 104.952C31.408 105.133 30.896 105.224 30.32 105.224C29.488 105.224 28.8053 105.027 28.272 104.632C27.7493 104.237 27.3653 103.619 27.12 102.776C26.8747 101.923 26.752 100.819 26.752 99.464C26.752 98.024 26.9067 96.888 27.216 96.056C27.536 95.224 28.0533 94.632 28.768 94.28C29.4933 93.9173 30.4587 93.736 31.664 93.736ZM35.536 98.632V105H33.728L33.392 103.32L33.168 102.872V98.632H35.536ZM39.191 97.096L39.479 98.664L39.703 98.872V105H37.335V97.096H39.191ZM43.047 96.888L42.823 99.08H42.167C41.7937 99.08 41.4043 99.1333 40.999 99.24C40.5937 99.3467 40.0817 99.5067 39.463 99.72L39.303 98.392C39.8577 97.9013 40.4177 97.528 40.983 97.272C41.5483 97.016 42.0977 96.888 42.631 96.888H43.047ZM47.7981 96.888C48.7901 96.888 49.5848 97.0267 50.1821 97.304C50.7795 97.5707 51.2061 98.008 51.4621 98.616C51.7288 99.224 51.8621 100.04 51.8621 101.064C51.8621 102.067 51.7288 102.872 51.4621 103.48C51.2061 104.088 50.7795 104.525 50.1821 104.792C49.5848 105.059 48.7901 105.192 47.7981 105.192C46.8168 105.192 46.0221 105.059 45.4141 104.792C44.8168 104.525 44.3848 104.088 44.1181 103.48C43.8515 102.872 43.7181 102.067 43.7181 101.064C43.7181 100.04 43.8515 99.224 44.1181 98.616C44.3848 98.008 44.8168 97.5707 45.4141 97.304C46.0221 97.0267 46.8168 96.888 47.7981 96.888ZM47.7981 98.616C47.3928 98.616 47.0728 98.6853 46.8381 98.824C46.6035 98.9627 46.4381 99.208 46.3421 99.56C46.2461 99.912 46.1981 100.413 46.1981 101.064C46.1981 101.704 46.2461 102.2 46.3421 102.552C46.4381 102.904 46.6035 103.149 46.8381 103.288C47.0728 103.416 47.3928 103.48 47.7981 103.48C48.2035 103.48 48.5235 103.416 48.7581 103.288C48.9928 103.149 49.1581 102.904 49.2541 102.552C49.3501 102.2 49.3981 101.704 49.3981 101.064C49.3981 100.413 49.3501 99.912 49.2541 99.56C49.1581 99.208 48.9928 98.9627 48.7581 98.824C48.5235 98.6853 48.2035 98.616 47.7981 98.616ZM56.4836 96.888C56.8676 96.888 57.2836 96.904 57.7316 96.936C58.1796 96.9573 58.617 96.9893 59.0436 97.032C59.4703 97.0747 59.849 97.128 60.1796 97.192L60.0196 98.664C59.5076 98.6533 58.9903 98.648 58.4676 98.648C57.9556 98.6373 57.4543 98.632 56.9636 98.632C56.5476 98.6213 56.2276 98.6267 56.0036 98.648C55.7796 98.6693 55.6196 98.7227 55.5236 98.808C55.4383 98.8827 55.3956 99.0213 55.3956 99.224C55.3956 99.4587 55.4756 99.6187 55.6356 99.704C55.7956 99.7787 56.0623 99.864 56.4356 99.96L58.4996 100.456C59.161 100.627 59.6516 100.883 59.9716 101.224C60.2916 101.555 60.4516 102.056 60.4516 102.728C60.4516 103.389 60.329 103.896 60.0836 104.248C59.8383 104.6 59.449 104.845 58.9156 104.984C58.3823 105.112 57.6943 105.176 56.8516 105.176C56.521 105.176 56.0303 105.16 55.3796 105.128C54.729 105.096 54.0143 105.016 53.2356 104.888L53.3956 103.416C53.5876 103.427 53.833 103.437 54.1316 103.448C54.4303 103.448 54.7556 103.448 55.1076 103.448C55.4596 103.448 55.8116 103.448 56.1636 103.448C56.7076 103.448 57.1236 103.437 57.4116 103.416C57.6996 103.384 57.897 103.32 58.0036 103.224C58.1103 103.128 58.1636 102.984 58.1636 102.792C58.1636 102.557 58.073 102.397 57.8916 102.312C57.7103 102.227 57.4223 102.136 57.0276 102.04L55.0276 101.544C54.5263 101.405 54.137 101.229 53.8596 101.016C53.5823 100.803 53.385 100.541 53.2676 100.232C53.161 99.9227 53.1076 99.5547 53.1076 99.128C53.1076 98.584 53.2143 98.152 53.4276 97.832C53.6516 97.5013 54.009 97.2613 54.4996 97.112C55.001 96.9627 55.6623 96.888 56.4836 96.888ZM64.9836 96.888C65.3676 96.888 65.7836 96.904 66.2316 96.936C66.6796 96.9573 67.117 96.9893 67.5436 97.032C67.9703 97.0747 68.349 97.128 68.6796 97.192L68.5196 98.664C68.0076 98.6533 67.4903 98.648 66.9676 98.648C66.4556 98.6373 65.9543 98.632 65.4636 98.632C65.0476 98.6213 64.7276 98.6267 64.5036 98.648C64.2796 98.6693 64.1196 98.7227 64.0236 98.808C63.9383 98.8827 63.8956 99.0213 63.8956 99.224C63.8956 99.4587 63.9756 99.6187 64.1356 99.704C64.2956 99.7787 64.5623 99.864 64.9356 99.96L66.9996 100.456C67.661 100.627 68.1516 100.883 68.4716 101.224C68.7916 101.555 68.9516 102.056 68.9516 102.728C68.9516 103.389 68.829 103.896 68.5836 104.248C68.3383 104.6 67.949 104.845 67.4156 104.984C66.8823 105.112 66.1943 105.176 65.3516 105.176C65.021 105.176 64.5303 105.16 63.8796 105.128C63.229 105.096 62.5143 105.016 61.7356 104.888L61.8956 103.416C62.0876 103.427 62.333 103.437 62.6316 103.448C62.9303 103.448 63.2556 103.448 63.6076 103.448C63.9596 103.448 64.3116 103.448 64.6636 103.448C65.2076 103.448 65.6236 103.437 65.9116 103.416C66.1996 103.384 66.397 103.32 66.5036 103.224C66.6103 103.128 66.6636 102.984 66.6636 102.792C66.6636 102.557 66.573 102.397 66.3916 102.312C66.2103 102.227 65.9223 102.136 65.5276 102.04L63.5276 101.544C63.0263 101.405 62.637 101.229 62.3596 101.016C62.0823 100.803 61.885 100.541 61.7676 100.232C61.661 99.9227 61.6076 99.5547 61.6076 99.128C61.6076 98.584 61.7143 98.152 61.9276 97.832C62.1516 97.5013 62.509 97.2613 62.9996 97.112C63.501 96.9627 64.1623 96.888 64.9836 96.888ZM79.1288 96.904C80.1208 96.904 80.8301 97.2667 81.2568 97.992C81.6834 98.7173 81.8968 99.7573 81.8968 101.112C81.8968 102.168 81.7848 102.995 81.5608 103.592C81.3474 104.189 81.0168 104.611 80.5688 104.856C80.1314 105.091 79.5821 105.208 78.9208 105.208C78.3554 105.208 77.8168 105.128 77.3048 104.968C76.7928 104.808 76.3394 104.541 75.9448 104.168L76.1048 103.112C76.4568 103.219 76.7768 103.315 77.0648 103.4C77.3634 103.475 77.6994 103.512 78.0728 103.512C78.4141 103.512 78.6861 103.453 78.8888 103.336C79.0914 103.219 79.2354 102.989 79.3208 102.648C79.4168 102.296 79.4648 101.789 79.4648 101.128C79.4648 100.477 79.4221 99.9813 79.3368 99.64C79.2514 99.288 79.1128 99.048 78.9208 98.92C78.7288 98.7813 78.4781 98.712 78.1688 98.712C77.8274 98.712 77.5128 98.7813 77.2248 98.92C76.9368 99.048 76.6114 99.2347 76.2488 99.48L75.9448 98.392C76.1581 98.104 76.4301 97.848 76.7608 97.624C77.1021 97.4 77.4754 97.224 77.8808 97.096C78.2861 96.968 78.7021 96.904 79.1288 96.904ZM75.8488 97.096L76.0728 98.536L76.2968 98.776V103.912L76.2168 104.104C76.2488 104.424 76.2701 104.755 76.2808 105.096C76.3021 105.448 76.3074 105.795 76.2968 106.136V108.04H73.9288V97.096H75.8488ZM85.3785 97.096L85.6665 98.664L85.8905 98.872V105H83.5225V97.096H85.3785ZM89.2345 96.888L89.0105 99.08H88.3545C87.9812 99.08 87.5918 99.1333 87.1865 99.24C86.7812 99.3467 86.2692 99.5067 85.6505 99.72L85.4905 98.392C86.0452 97.9013 86.6052 97.528 87.1705 97.272C87.7358 97.016 88.2852 96.888 88.8185 96.888H89.2345ZM93.9856 96.888C94.9776 96.888 95.7723 97.0267 96.3696 97.304C96.967 97.5707 97.3936 98.008 97.6496 98.616C97.9163 99.224 98.0496 100.04 98.0496 101.064C98.0496 102.067 97.9163 102.872 97.6496 103.48C97.3936 104.088 96.967 104.525 96.3696 104.792C95.7723 105.059 94.9776 105.192 93.9856 105.192C93.0043 105.192 92.2096 105.059 91.6016 104.792C91.0043 104.525 90.5723 104.088 90.3056 103.48C90.039 102.872 89.9056 102.067 89.9056 101.064C89.9056 100.04 90.039 99.224 90.3056 98.616C90.5723 98.008 91.0043 97.5707 91.6016 97.304C92.2096 97.0267 93.0043 96.888 93.9856 96.888ZM93.9856 98.616C93.5803 98.616 93.2603 98.6853 93.0256 98.824C92.791 98.9627 92.6256 99.208 92.5296 99.56C92.4336 99.912 92.3856 100.413 92.3856 101.064C92.3856 101.704 92.4336 102.2 92.5296 102.552C92.6256 102.904 92.791 103.149 93.0256 103.288C93.2603 103.416 93.5803 103.48 93.9856 103.48C94.391 103.48 94.711 103.416 94.9456 103.288C95.1803 103.149 95.3456 102.904 95.4416 102.552C95.5376 102.2 95.5856 101.704 95.5856 101.064C95.5856 100.413 95.5376 99.912 95.4416 99.56C95.3456 99.208 95.1803 98.9627 94.9456 98.824C94.711 98.6853 94.391 98.616 93.9856 98.616ZM102.912 93.464C103.179 93.464 103.52 93.48 103.936 93.512C104.352 93.5333 104.72 93.576 105.04 93.64V95.16H103.76C103.355 95.16 103.072 95.2453 102.912 95.416C102.763 95.5867 102.688 95.8853 102.688 96.312V105H100.304V96.008C100.304 95.496 100.39 95.048 100.56 94.664C100.731 94.28 101.003 93.9867 101.376 93.784C101.76 93.5707 102.272 93.464 102.912 93.464ZM106.016 97.096V98.648H98.9443V97.176L100.352 97.096H106.016ZM108.288 97.096V105H105.936V97.096H108.288ZM107.616 93.528C108.086 93.528 108.32 93.7627 108.32 94.232V95.096C108.32 95.576 108.086 95.816 107.616 95.816H106.608C106.139 95.816 105.904 95.576 105.904 95.096V94.232C105.904 93.7627 106.139 93.528 106.608 93.528H107.616ZM113.376 94.904V102.472C113.376 102.76 113.44 102.968 113.568 103.096C113.707 103.213 113.931 103.272 114.24 103.272H115.264L115.52 104.872C115.328 104.936 115.093 104.989 114.816 105.032C114.539 105.085 114.261 105.123 113.984 105.144C113.707 105.176 113.472 105.192 113.28 105.192C112.565 105.192 112.005 105 111.6 104.616C111.205 104.232 111.008 103.693 111.008 103L110.992 94.904H113.376ZM115.584 97.096V98.648H109.616V97.176L111.152 97.096H115.584ZM123.984 96.888C124.272 96.888 124.586 96.904 124.928 96.936C125.269 96.9573 125.61 97.0053 125.952 97.08C126.304 97.144 126.624 97.24 126.912 97.368L126.656 98.856C126.229 98.8453 125.818 98.8347 125.424 98.824C125.04 98.8133 124.693 98.808 124.384 98.808C123.904 98.808 123.525 98.872 123.248 99C122.97 99.128 122.768 99.3573 122.64 99.688C122.522 100.008 122.464 100.456 122.464 101.032C122.464 101.619 122.522 102.077 122.64 102.408C122.768 102.739 122.97 102.968 123.248 103.096C123.525 103.224 123.904 103.288 124.384 103.288C124.554 103.288 124.773 103.283 125.04 103.272C125.306 103.261 125.594 103.251 125.904 103.24C126.213 103.219 126.517 103.187 126.816 103.144L127.04 104.648C126.613 104.84 126.128 104.979 125.584 105.064C125.04 105.149 124.501 105.192 123.968 105.192C122.986 105.192 122.202 105.059 121.616 104.792C121.04 104.515 120.624 104.072 120.368 103.464C120.112 102.856 119.984 102.045 119.984 101.032C119.984 100.019 120.112 99.208 120.368 98.6C120.634 97.992 121.061 97.5547 121.648 97.288C122.234 97.0213 123.013 96.888 123.984 96.888ZM132.111 96.888C133.103 96.888 133.897 97.0267 134.495 97.304C135.092 97.5707 135.519 98.008 135.775 98.616C136.041 99.224 136.175 100.04 136.175 101.064C136.175 102.067 136.041 102.872 135.775 103.48C135.519 104.088 135.092 104.525 134.495 104.792C133.897 105.059 133.103 105.192 132.111 105.192C131.129 105.192 130.335 105.059 129.727 104.792C129.129 104.525 128.697 104.088 128.431 103.48C128.164 102.872 128.031 102.067 128.031 101.064C128.031 100.04 128.164 99.224 128.431 98.616C128.697 98.008 129.129 97.5707 129.727 97.304C130.335 97.0267 131.129 96.888 132.111 96.888ZM132.111 98.616C131.705 98.616 131.385 98.6853 131.151 98.824C130.916 98.9627 130.751 99.208 130.655 99.56C130.559 99.912 130.511 100.413 130.511 101.064C130.511 101.704 130.559 102.2 130.655 102.552C130.751 102.904 130.916 103.149 131.151 103.288C131.385 103.416 131.705 103.48 132.111 103.48C132.516 103.48 132.836 103.416 133.071 103.288C133.305 103.149 133.471 102.904 133.567 102.552C133.663 102.2 133.711 101.704 133.711 101.064C133.711 100.413 133.663 99.912 133.567 99.56C133.471 99.208 133.305 98.9627 133.071 98.824C132.836 98.6853 132.516 98.616 132.111 98.616ZM143.292 96.888C144.785 96.888 145.532 97.6187 145.532 99.08V105H143.164V99.816C143.164 99.464 143.1 99.224 142.972 99.096C142.844 98.9573 142.625 98.888 142.316 98.888C141.975 98.888 141.623 98.9573 141.26 99.096C140.897 99.224 140.449 99.4267 139.916 99.704L139.804 98.376C140.369 97.896 140.945 97.528 141.532 97.272C142.129 97.016 142.716 96.888 143.292 96.888ZM139.692 97.096L139.964 98.664L140.156 98.872V105H137.788V97.096H139.692ZM150.406 96.888C150.79 96.888 151.206 96.904 151.654 96.936C152.102 96.9573 152.539 96.9893 152.966 97.032C153.392 97.0747 153.771 97.128 154.102 97.192L153.942 98.664C153.43 98.6533 152.912 98.648 152.39 98.648C151.878 98.6373 151.376 98.632 150.886 98.632C150.47 98.6213 150.15 98.6267 149.926 98.648C149.702 98.6693 149.542 98.7227 149.446 98.808C149.36 98.8827 149.318 99.0213 149.318 99.224C149.318 99.4587 149.398 99.6187 149.558 99.704C149.718 99.7787 149.984 99.864 150.358 99.96L152.422 100.456C153.083 100.627 153.574 100.883 153.894 101.224C154.214 101.555 154.374 102.056 154.374 102.728C154.374 103.389 154.251 103.896 154.006 104.248C153.76 104.6 153.371 104.845 152.838 104.984C152.304 105.112 151.616 105.176 150.774 105.176C150.443 105.176 149.952 105.16 149.302 105.128C148.651 105.096 147.936 105.016 147.158 104.888L147.318 103.416C147.51 103.427 147.755 103.437 148.054 103.448C148.352 103.448 148.678 103.448 149.03 103.448C149.382 103.448 149.734 103.448 150.086 103.448C150.63 103.448 151.046 103.437 151.334 103.416C151.622 103.384 151.819 103.32 151.926 103.224C152.032 103.128 152.086 102.984 152.086 102.792C152.086 102.557 151.995 102.397 151.814 102.312C151.632 102.227 151.344 102.136 150.95 102.04L148.95 101.544C148.448 101.405 148.059 101.229 147.782 101.016C147.504 100.803 147.307 100.541 147.19 100.232C147.083 99.9227 147.03 99.5547 147.03 99.128C147.03 98.584 147.136 98.152 147.35 97.832C147.574 97.5013 147.931 97.2613 148.422 97.112C148.923 96.9627 149.584 96.888 150.406 96.888ZM158.314 97.096V105H155.962V97.096H158.314ZM157.658 93.608C158.127 93.608 158.362 93.848 158.362 94.328V95.176C158.362 95.656 158.127 95.896 157.658 95.896H156.634C156.164 95.896 155.93 95.656 155.93 95.176V94.328C155.93 93.848 156.164 93.608 156.634 93.608H157.658ZM163.023 96.888C163.578 96.888 164.111 96.968 164.623 97.128C165.146 97.288 165.605 97.5493 165.999 97.912L165.839 99C165.477 98.8933 165.151 98.7973 164.863 98.712C164.575 98.6267 164.239 98.584 163.855 98.584C163.525 98.584 163.258 98.6427 163.055 98.76C162.853 98.8773 162.703 99.1067 162.607 99.448C162.511 99.7893 162.463 100.296 162.463 100.968C162.463 101.597 162.506 102.077 162.591 102.408C162.687 102.728 162.831 102.952 163.023 103.08C163.226 103.197 163.482 103.256 163.791 103.256C164.069 103.256 164.309 103.229 164.511 103.176C164.714 103.112 164.917 103.021 165.119 102.904C165.322 102.776 165.551 102.621 165.807 102.44L165.983 103.608C165.663 104.056 165.247 104.435 164.735 104.744C164.223 105.043 163.594 105.192 162.847 105.192C161.834 105.192 161.109 104.829 160.671 104.104C160.245 103.379 160.031 102.339 160.031 100.984C160.031 99.928 160.138 99.1067 160.351 98.52C160.575 97.9227 160.911 97.5013 161.359 97.256C161.807 97.0107 162.362 96.888 163.023 96.888ZM167.935 93.8V105H166.063L165.823 103.544L165.567 103.368V98.184L165.663 97.976C165.631 97.6453 165.605 97.3147 165.583 96.984C165.573 96.6427 165.567 96.296 165.567 95.944V93.8H167.935ZM173.61 96.888C174.944 96.888 175.898 97.1173 176.474 97.576C177.061 98.024 177.354 98.696 177.354 99.592C177.365 100.317 177.184 100.861 176.81 101.224C176.437 101.576 175.792 101.752 174.874 101.752H170.458V100.424H174.218C174.581 100.424 174.81 100.349 174.906 100.2C175.013 100.04 175.066 99.8213 175.066 99.544C175.056 99.1707 174.944 98.9147 174.73 98.776C174.528 98.6267 174.181 98.552 173.69 98.552C173.253 98.552 172.912 98.6107 172.666 98.728C172.421 98.8453 172.25 99.0693 172.154 99.4C172.058 99.7307 172.01 100.211 172.01 100.84C172.01 101.501 172.069 102.013 172.186 102.376C172.304 102.728 172.501 102.973 172.778 103.112C173.066 103.251 173.461 103.32 173.962 103.32C174.325 103.32 174.773 103.309 175.306 103.288C175.85 103.256 176.394 103.208 176.938 103.144L177.162 104.6C176.853 104.749 176.501 104.867 176.106 104.952C175.712 105.037 175.306 105.096 174.89 105.128C174.474 105.171 174.074 105.192 173.69 105.192C172.688 105.192 171.877 105.048 171.258 104.76C170.65 104.461 170.208 104.008 169.93 103.4C169.664 102.792 169.53 102.013 169.53 101.064C169.53 100.029 169.669 99.208 169.946 98.6C170.224 97.992 170.661 97.5547 171.258 97.288C171.856 97.0213 172.64 96.888 173.61 96.888ZM180.754 97.096L181.042 98.664L181.266 98.872V105H178.898V97.096H180.754ZM184.61 96.888L184.386 99.08H183.73C183.356 99.08 182.967 99.1333 182.562 99.24C182.156 99.3467 181.644 99.5067 181.026 99.72L180.866 98.392C181.42 97.9013 181.98 97.528 182.546 97.272C183.111 97.016 183.66 96.888 184.194 96.888H184.61ZM188.142 97.096V105H185.79V97.096H188.142ZM187.486 93.608C187.955 93.608 188.19 93.848 188.19 94.328V95.176C188.19 95.656 187.955 95.896 187.486 95.896H186.462C185.992 95.896 185.758 95.656 185.758 95.176V94.328C185.758 93.848 185.992 93.608 186.462 93.608H187.486ZM195.652 96.888C197.145 96.888 197.892 97.6187 197.892 99.08V105H195.524V99.816C195.524 99.464 195.46 99.224 195.332 99.096C195.204 98.9573 194.985 98.888 194.676 98.888C194.334 98.888 193.982 98.9573 193.62 99.096C193.257 99.224 192.809 99.4267 192.276 99.704L192.164 98.376C192.729 97.896 193.305 97.528 193.891 97.272C194.489 97.016 195.076 96.888 195.652 96.888ZM192.052 97.096L192.324 98.664L192.516 98.872V105H190.148V97.096H192.052ZM203.277 96.888C204.194 96.888 204.92 96.9733 205.453 97.144C205.997 97.3147 206.386 97.5813 206.621 97.944C206.866 98.3067 206.989 98.792 206.989 99.4C206.989 99.9867 206.872 100.467 206.637 100.84C206.402 101.203 206.008 101.469 205.453 101.64C204.909 101.811 204.178 101.896 203.261 101.896C202.344 101.896 201.608 101.811 201.053 101.64C200.509 101.469 200.114 101.203 199.869 100.84C199.634 100.477 199.517 99.9973 199.517 99.4C199.517 98.8027 199.634 98.3227 199.869 97.96C200.114 97.5867 200.514 97.3147 201.069 97.144C201.624 96.9733 202.36 96.888 203.277 96.888ZM203.261 98.344C202.674 98.344 202.269 98.424 202.045 98.584C201.821 98.7333 201.709 99.0053 201.709 99.4C201.709 99.7947 201.821 100.072 202.045 100.232C202.269 100.392 202.674 100.472 203.261 100.472C203.848 100.472 204.248 100.392 204.461 100.232C204.674 100.072 204.781 99.7947 204.781 99.4C204.781 99.0053 204.674 98.7333 204.461 98.584C204.248 98.424 203.848 98.344 203.261 98.344ZM207.901 97.096L207.773 98.104L205.661 98.376L205.085 97.096H207.901ZM200.877 101.416L202.061 101.624C201.912 101.709 201.805 101.843 201.741 102.024C201.688 102.205 201.704 102.376 201.789 102.536C201.874 102.696 202.061 102.792 202.349 102.824L205.261 103.16C206.093 103.245 206.68 103.48 207.021 103.864C207.362 104.237 207.533 104.787 207.533 105.512C207.533 106.195 207.394 106.717 207.117 107.08C206.84 107.453 206.397 107.709 205.789 107.848C205.181 107.987 204.37 108.056 203.357 108.056C202.525 108.056 201.837 108.013 201.293 107.928C200.76 107.853 200.333 107.725 200.013 107.544C199.704 107.363 199.485 107.123 199.357 106.824C199.24 106.536 199.181 106.173 199.181 105.736C199.181 105.405 199.24 105.123 199.357 104.888C199.474 104.643 199.672 104.424 199.949 104.232C200.237 104.04 200.637 103.864 201.149 103.704L202.317 103.288L203.165 103.624L202.525 104.04C202.258 104.232 202.04 104.397 201.869 104.536C201.709 104.664 201.592 104.792 201.517 104.92C201.453 105.048 201.421 105.219 201.421 105.432C201.421 105.677 201.474 105.864 201.581 105.992C201.688 106.131 201.88 106.221 202.157 106.264C202.445 106.317 202.834 106.344 203.325 106.344C203.837 106.344 204.237 106.317 204.525 106.264C204.813 106.221 205.01 106.136 205.117 106.008C205.234 105.88 205.293 105.699 205.293 105.464C205.293 105.261 205.25 105.112 205.165 105.016C205.09 104.92 204.957 104.851 204.765 104.808C204.584 104.755 204.328 104.707 203.997 104.664L201.517 104.392C201.101 104.349 200.776 104.237 200.541 104.056C200.306 103.875 200.141 103.656 200.045 103.4C199.96 103.133 199.938 102.867 199.981 102.6C200.024 102.333 200.12 102.093 200.269 101.88C200.429 101.667 200.632 101.512 200.877 101.416ZM216.267 96.888C217.259 96.888 218.054 97.0267 218.651 97.304C219.248 97.5707 219.675 98.008 219.931 98.616C220.198 99.224 220.331 100.04 220.331 101.064C220.331 102.067 220.198 102.872 219.931 103.48C219.675 104.088 219.248 104.525 218.651 104.792C218.054 105.059 217.259 105.192 216.267 105.192C215.286 105.192 214.491 105.059 213.883 104.792C213.286 104.525 212.854 104.088 212.587 103.48C212.32 102.872 212.187 102.067 212.187 101.064C212.187 100.04 212.32 99.224 212.587 98.616C212.854 98.008 213.286 97.5707 213.883 97.304C214.491 97.0267 215.286 96.888 216.267 96.888ZM216.267 98.616C215.862 98.616 215.542 98.6853 215.307 98.824C215.072 98.9627 214.907 99.208 214.811 99.56C214.715 99.912 214.667 100.413 214.667 101.064C214.667 101.704 214.715 102.2 214.811 102.552C214.907 102.904 215.072 103.149 215.307 103.288C215.542 103.416 215.862 103.48 216.267 103.48C216.672 103.48 216.992 103.416 217.227 103.288C217.462 103.149 217.627 102.904 217.723 102.552C217.819 102.2 217.867 101.704 217.867 101.064C217.867 100.413 217.819 99.912 217.723 99.56C217.627 99.208 217.462 98.9627 217.227 98.824C216.992 98.6853 216.672 98.616 216.267 98.616ZM227.448 96.888C228.942 96.888 229.688 97.6187 229.688 99.08V105H227.32V99.816C227.32 99.464 227.256 99.224 227.128 99.096C227 98.9573 226.782 98.888 226.472 98.888C226.131 98.888 225.779 98.9573 225.416 99.096C225.054 99.224 224.606 99.4267 224.072 99.704L223.96 98.376C224.526 97.896 225.102 97.528 225.688 97.272C226.286 97.016 226.872 96.888 227.448 96.888ZM223.848 97.096L224.12 98.664L224.312 98.872V105H221.944V97.096H223.848ZM233.938 93.8L233.922 102.472C233.922 102.739 234.002 102.941 234.162 103.08C234.322 103.208 234.556 103.272 234.866 103.272H235.506L235.778 104.872C235.65 104.936 235.468 104.989 235.234 105.032C234.999 105.085 234.759 105.123 234.514 105.144C234.268 105.176 234.06 105.192 233.89 105.192C233.175 105.192 232.61 105.005 232.194 104.632C231.778 104.259 231.57 103.736 231.57 103.064V93.8H233.938ZM244.35 97.096L241.518 105.096C241.39 105.491 241.208 105.885 240.974 106.28C240.75 106.685 240.462 107.048 240.11 107.368C239.768 107.688 239.352 107.928 238.862 108.088C238.382 108.259 237.811 108.301 237.15 108.216L236.974 106.872C237.624 106.701 238.131 106.472 238.494 106.184C238.856 105.896 239.139 105.517 239.342 105.048L239.838 103.944C239.934 103.709 240.024 103.427 240.11 103.096C240.206 102.755 240.286 102.461 240.35 102.216L241.822 97.096H244.35ZM238.078 97.096L239.582 102.216C239.624 102.419 239.667 102.621 239.71 102.824C239.752 103.027 239.79 103.229 239.822 103.432H240.254L239.502 105H238.926C238.744 105 238.584 104.947 238.446 104.84C238.307 104.733 238.211 104.595 238.158 104.424L235.55 97.096H238.078ZM252.234 96.888C252.522 96.888 252.836 96.904 253.178 96.936C253.519 96.9573 253.86 97.0053 254.202 97.08C254.554 97.144 254.874 97.24 255.162 97.368L254.906 98.856C254.479 98.8453 254.068 98.8347 253.674 98.824C253.29 98.8133 252.943 98.808 252.634 98.808C252.154 98.808 251.775 98.872 251.498 99C251.22 99.128 251.018 99.3573 250.89 99.688C250.772 100.008 250.714 100.456 250.714 101.032C250.714 101.619 250.772 102.077 250.89 102.408C251.018 102.739 251.22 102.968 251.498 103.096C251.775 103.224 252.154 103.288 252.634 103.288C252.804 103.288 253.023 103.283 253.29 103.272C253.556 103.261 253.844 103.251 254.154 103.24C254.463 103.219 254.767 103.187 255.066 103.144L255.29 104.648C254.863 104.84 254.378 104.979 253.834 105.064C253.29 105.149 252.751 105.192 252.218 105.192C251.236 105.192 250.452 105.059 249.866 104.792C249.29 104.515 248.874 104.072 248.618 103.464C248.362 102.856 248.234 102.045 248.234 101.032C248.234 100.019 248.362 99.208 248.618 98.6C248.884 97.992 249.311 97.5547 249.898 97.288C250.484 97.0213 251.263 96.888 252.234 96.888ZM260.361 96.888C261.353 96.888 262.147 97.0267 262.745 97.304C263.342 97.5707 263.769 98.008 264.025 98.616C264.291 99.224 264.425 100.04 264.425 101.064C264.425 102.067 264.291 102.872 264.025 103.48C263.769 104.088 263.342 104.525 262.745 104.792C262.147 105.059 261.353 105.192 260.361 105.192C259.379 105.192 258.585 105.059 257.977 104.792C257.379 104.525 256.947 104.088 256.681 103.48C256.414 102.872 256.281 102.067 256.281 101.064C256.281 100.04 256.414 99.224 256.681 98.616C256.947 98.008 257.379 97.5707 257.977 97.304C258.585 97.0267 259.379 96.888 260.361 96.888ZM260.361 98.616C259.955 98.616 259.635 98.6853 259.401 98.824C259.166 98.9627 259.001 99.208 258.905 99.56C258.809 99.912 258.761 100.413 258.761 101.064C258.761 101.704 258.809 102.2 258.905 102.552C259.001 102.904 259.166 103.149 259.401 103.288C259.635 103.416 259.955 103.48 260.361 103.48C260.766 103.48 261.086 103.416 261.321 103.288C261.555 103.149 261.721 102.904 261.817 102.552C261.913 102.2 261.961 101.704 261.961 101.064C261.961 100.413 261.913 99.912 261.817 99.56C261.721 99.208 261.555 98.9627 261.321 98.824C261.086 98.6853 260.766 98.616 260.361 98.616ZM267.894 97.096L268.182 98.664L268.406 98.872V105H266.038V97.096H267.894ZM271.75 96.888L271.526 99.08H270.87C270.497 99.08 270.107 99.1333 269.702 99.24C269.297 99.3467 268.785 99.5067 268.166 99.72L268.006 98.392C268.561 97.9013 269.121 97.528 269.686 97.272C270.251 97.016 270.801 96.888 271.334 96.888H271.75ZM278.066 96.904C279.058 96.904 279.768 97.2667 280.194 97.992C280.621 98.7173 280.834 99.7573 280.834 101.112C280.834 102.168 280.722 102.995 280.498 103.592C280.285 104.189 279.954 104.611 279.506 104.856C279.069 105.091 278.52 105.208 277.858 105.208C277.293 105.208 276.754 105.128 276.242 104.968C275.73 104.808 275.277 104.541 274.882 104.168L275.042 103.112C275.394 103.219 275.714 103.315 276.002 103.4C276.301 103.475 276.637 103.512 277.01 103.512C277.352 103.512 277.624 103.453 277.826 103.336C278.029 103.219 278.173 102.989 278.258 102.648C278.354 102.296 278.402 101.789 278.402 101.128C278.402 100.477 278.36 99.9813 278.274 99.64C278.189 99.288 278.05 99.048 277.858 98.92C277.666 98.7813 277.416 98.712 277.106 98.712C276.765 98.712 276.45 98.7813 276.162 98.92C275.874 99.048 275.549 99.2347 275.186 99.48L274.882 98.392C275.096 98.104 275.368 97.848 275.698 97.624C276.04 97.4 276.413 97.224 276.818 97.096C277.224 96.968 277.64 96.904 278.066 96.904ZM274.786 97.096L275.01 98.536L275.234 98.776V103.912L275.154 104.104C275.186 104.424 275.208 104.755 275.218 105.096C275.24 105.448 275.245 105.795 275.234 106.136V108.04H272.866V97.096H274.786ZM286.22 96.888C287.212 96.888 288.007 97.0267 288.604 97.304C289.201 97.5707 289.628 98.008 289.884 98.616C290.151 99.224 290.284 100.04 290.284 101.064C290.284 102.067 290.151 102.872 289.884 103.48C289.628 104.088 289.201 104.525 288.604 104.792C288.007 105.059 287.212 105.192 286.22 105.192C285.239 105.192 284.444 105.059 283.836 104.792C283.239 104.525 282.807 104.088 282.54 103.48C282.273 102.872 282.14 102.067 282.14 101.064C282.14 100.04 282.273 99.224 282.54 98.616C282.807 98.008 283.239 97.5707 283.836 97.304C284.444 97.0267 285.239 96.888 286.22 96.888ZM286.22 98.616C285.815 98.616 285.495 98.6853 285.26 98.824C285.025 98.9627 284.86 99.208 284.764 99.56C284.668 99.912 284.62 100.413 284.62 101.064C284.62 101.704 284.668 102.2 284.764 102.552C284.86 102.904 285.025 103.149 285.26 103.288C285.495 103.416 285.815 103.48 286.22 103.48C286.625 103.48 286.945 103.416 287.18 103.288C287.415 103.149 287.58 102.904 287.676 102.552C287.772 102.2 287.82 101.704 287.82 101.064C287.82 100.413 287.772 99.912 287.676 99.56C287.58 99.208 287.415 98.9627 287.18 98.824C286.945 98.6853 286.625 98.616 286.22 98.616ZM293.754 97.096L294.042 98.664L294.266 98.872V105H291.898V97.096H293.754ZM297.61 96.888L297.386 99.08H296.73C296.356 99.08 295.967 99.1333 295.562 99.24C295.156 99.3467 294.644 99.5067 294.026 99.72L293.866 98.392C294.42 97.9013 294.98 97.528 295.546 97.272C296.111 97.016 296.66 96.888 297.194 96.888H297.61ZM302.855 96.888C303.516 96.888 304.076 96.9787 304.535 97.16C304.993 97.3307 305.34 97.6293 305.575 98.056C305.82 98.472 305.943 99.048 305.943 99.784V105H304.055L303.719 103.288L303.559 103.048V99.768C303.559 99.3947 303.468 99.1227 303.287 98.952C303.116 98.7813 302.785 98.696 302.295 98.696C301.889 98.696 301.383 98.712 300.775 98.744C300.167 98.7653 299.543 98.7973 298.903 98.84L298.679 97.272C299.063 97.1973 299.505 97.1333 300.007 97.08C300.508 97.0267 301.009 96.984 301.511 96.952C302.012 96.9093 302.46 96.888 302.855 96.888ZM304.967 100.136L304.951 101.464L301.431 101.48C301.143 101.48 300.935 101.549 300.807 101.688C300.689 101.827 300.631 102.013 300.631 102.248V102.632C300.631 102.899 300.705 103.107 300.855 103.256C301.004 103.395 301.244 103.464 301.575 103.464C301.852 103.464 302.151 103.405 302.471 103.288C302.801 103.171 303.127 103.005 303.447 102.792C303.767 102.579 304.049 102.328 304.295 102.04V103.064C304.199 103.224 304.055 103.427 303.863 103.672C303.681 103.907 303.447 104.141 303.159 104.376C302.871 104.6 302.535 104.792 302.151 104.952C301.767 105.112 301.329 105.192 300.839 105.192C300.359 105.192 299.927 105.107 299.543 104.936C299.159 104.765 298.855 104.515 298.631 104.184C298.407 103.853 298.295 103.443 298.295 102.952V102.136C298.295 101.507 298.508 101.016 298.935 100.664C299.361 100.312 299.948 100.136 300.695 100.136H304.967ZM310.892 94.904V102.472C310.892 102.76 310.956 102.968 311.084 103.096C311.222 103.213 311.446 103.272 311.756 103.272H312.78L313.036 104.872C312.844 104.936 312.609 104.989 312.332 105.032C312.054 105.085 311.777 105.123 311.5 105.144C311.222 105.176 310.988 105.192 310.796 105.192C310.081 105.192 309.521 105 309.116 104.616C308.721 104.232 308.524 103.693 308.524 103L308.508 94.904H310.892ZM313.1 97.096V98.648H307.132V97.176L308.668 97.096H313.1ZM318.11 96.888C319.444 96.888 320.398 97.1173 320.974 97.576C321.561 98.024 321.854 98.696 321.854 99.592C321.865 100.317 321.684 100.861 321.31 101.224C320.937 101.576 320.292 101.752 319.374 101.752H314.958V100.424H318.718C319.081 100.424 319.31 100.349 319.406 100.2C319.513 100.04 319.566 99.8213 319.566 99.544C319.556 99.1707 319.444 98.9147 319.23 98.776C319.028 98.6267 318.681 98.552 318.19 98.552C317.753 98.552 317.412 98.6107 317.166 98.728C316.921 98.8453 316.75 99.0693 316.654 99.4C316.558 99.7307 316.51 100.211 316.51 100.84C316.51 101.501 316.569 102.013 316.686 102.376C316.804 102.728 317.001 102.973 317.278 103.112C317.566 103.251 317.961 103.32 318.462 103.32C318.825 103.32 319.273 103.309 319.806 103.288C320.35 103.256 320.894 103.208 321.438 103.144L321.662 104.6C321.353 104.749 321.001 104.867 320.606 104.952C320.212 105.037 319.806 105.096 319.39 105.128C318.974 105.171 318.574 105.192 318.19 105.192C317.188 105.192 316.377 105.048 315.758 104.76C315.15 104.461 314.708 104.008 314.43 103.4C314.164 102.792 314.03 102.013 314.03 101.064C314.03 100.029 314.169 99.208 314.446 98.6C314.724 97.992 315.161 97.5547 315.758 97.288C316.356 97.0213 317.14 96.888 318.11 96.888ZM329.267 97.096V105H326.915V97.096H329.267ZM328.611 93.608C329.08 93.608 329.315 93.848 329.315 94.328V95.176C329.315 95.656 329.08 95.896 328.611 95.896H327.587C327.117 95.896 326.883 95.656 326.883 95.176V94.328C326.883 93.848 327.117 93.608 327.587 93.608H328.611ZM336.777 96.888C338.27 96.888 339.017 97.6187 339.017 99.08V105H336.649V99.816C336.649 99.464 336.585 99.224 336.457 99.096C336.329 98.9573 336.11 98.888 335.801 98.888C335.459 98.888 335.107 98.9573 334.745 99.096C334.382 99.224 333.934 99.4267 333.401 99.704L333.289 98.376C333.854 97.896 334.43 97.528 335.016 97.272C335.614 97.016 336.201 96.888 336.777 96.888ZM333.177 97.096L333.449 98.664L333.641 98.872V105H331.273V97.096H333.177ZM344.194 93.464C344.386 93.464 344.637 93.4693 344.946 93.48C345.266 93.4907 345.586 93.512 345.906 93.544C346.237 93.5653 346.519 93.5973 346.754 93.64L346.546 95.16H345.042C344.637 95.16 344.354 95.24 344.194 95.4C344.034 95.56 343.954 95.8373 343.954 96.232V105H341.586V95.928C341.586 95.4267 341.666 94.9947 341.826 94.632C341.997 94.2693 342.274 93.9867 342.658 93.784C343.042 93.5707 343.554 93.464 344.194 93.464ZM346.162 97.096V98.648H340.21V97.176L341.634 97.096H346.162ZM351.017 96.888C352.009 96.888 352.804 97.0267 353.401 97.304C353.998 97.5707 354.425 98.008 354.681 98.616C354.948 99.224 355.081 100.04 355.081 101.064C355.081 102.067 354.948 102.872 354.681 103.48C354.425 104.088 353.998 104.525 353.401 104.792C352.804 105.059 352.009 105.192 351.017 105.192C350.036 105.192 349.241 105.059 348.633 104.792C348.036 104.525 347.604 104.088 347.337 103.48C347.07 102.872 346.937 102.067 346.937 101.064C346.937 100.04 347.07 99.224 347.337 98.616C347.604 98.008 348.036 97.5707 348.633 97.304C349.241 97.0267 350.036 96.888 351.017 96.888ZM351.017 98.616C350.612 98.616 350.292 98.6853 350.057 98.824C349.822 98.9627 349.657 99.208 349.561 99.56C349.465 99.912 349.417 100.413 349.417 101.064C349.417 101.704 349.465 102.2 349.561 102.552C349.657 102.904 349.822 103.149 350.057 103.288C350.292 103.416 350.612 103.48 351.017 103.48C351.422 103.48 351.742 103.416 351.977 103.288C352.212 103.149 352.377 102.904 352.473 102.552C352.569 102.2 352.617 101.704 352.617 101.064C352.617 100.413 352.569 99.912 352.473 99.56C352.377 99.208 352.212 98.9627 351.977 98.824C351.742 98.6853 351.422 98.616 351.017 98.616ZM358.55 97.096L358.838 98.664L359.062 98.872V105H356.694V97.096H358.55ZM362.406 96.888L362.182 99.08H361.526C361.153 99.08 360.764 99.1333 360.358 99.24C359.953 99.3467 359.441 99.5067 358.822 99.72L358.662 98.392C359.217 97.9013 359.777 97.528 360.342 97.272C360.908 97.016 361.457 96.888 361.99 96.888H362.406ZM373.539 96.888C374.253 96.888 374.797 97.0747 375.171 97.448C375.544 97.8213 375.731 98.3653 375.731 99.08V105H373.379V99.816C373.379 99.4853 373.315 99.2507 373.187 99.112C373.059 98.9627 372.835 98.888 372.515 98.888C372.323 98.888 372.141 98.9147 371.97 98.968C371.8 99.0213 371.603 99.1067 371.378 99.224C371.155 99.3413 370.883 99.5013 370.562 99.704L370.435 98.392C370.947 97.8907 371.448 97.5173 371.939 97.272C372.44 97.016 372.973 96.888 373.539 96.888ZM365.411 97.096L365.651 98.664L365.891 98.872V105H363.523V97.096H365.411ZM368.611 96.888C369.315 96.888 369.848 97.0747 370.211 97.448C370.584 97.8107 370.771 98.3547 370.771 99.08V105H368.499V99.816C368.499 99.4747 368.424 99.2347 368.275 99.096C368.136 98.9573 367.917 98.888 367.619 98.888C367.437 98.888 367.256 98.9147 367.075 98.968C366.904 99.0107 366.701 99.0907 366.467 99.208C366.243 99.3253 365.965 99.4907 365.635 99.704L365.491 98.392C366.013 97.8907 366.52 97.5173 367.011 97.272C367.501 97.016 368.035 96.888 368.611 96.888ZM381.792 96.888C382.454 96.888 383.014 96.9787 383.472 97.16C383.931 97.3307 384.278 97.6293 384.512 98.056C384.758 98.472 384.88 99.048 384.88 99.784V105H382.992L382.656 103.288L382.496 103.048V99.768C382.496 99.3947 382.406 99.1227 382.224 98.952C382.054 98.7813 381.723 98.696 381.232 98.696C380.827 98.696 380.32 98.712 379.712 98.744C379.104 98.7653 378.48 98.7973 377.84 98.84L377.616 97.272C378 97.1973 378.443 97.1333 378.944 97.08C379.446 97.0267 379.947 96.984 380.448 96.952C380.95 96.9093 381.398 96.888 381.792 96.888ZM383.904 100.136L383.888 101.464L380.368 101.48C380.08 101.48 379.872 101.549 379.744 101.688C379.627 101.827 379.568 102.013 379.568 102.248V102.632C379.568 102.899 379.643 103.107 379.792 103.256C379.942 103.395 380.182 103.464 380.512 103.464C380.79 103.464 381.088 103.405 381.408 103.288C381.739 103.171 382.064 103.005 382.384 102.792C382.704 102.579 382.987 102.328 383.232 102.04V103.064C383.136 103.224 382.992 103.427 382.8 103.672C382.619 103.907 382.384 104.141 382.096 104.376C381.808 104.6 381.472 104.792 381.088 104.952C380.704 105.112 380.267 105.192 379.776 105.192C379.296 105.192 378.864 105.107 378.48 104.936C378.096 104.765 377.792 104.515 377.568 104.184C377.344 103.853 377.232 103.443 377.232 102.952V102.136C377.232 101.507 377.446 101.016 377.872 100.664C378.299 100.312 378.886 100.136 379.632 100.136H383.904ZM389.829 94.904V102.472C389.829 102.76 389.893 102.968 390.021 103.096C390.16 103.213 390.384 103.272 390.693 103.272H391.717L391.973 104.872C391.781 104.936 391.547 104.989 391.269 105.032C390.992 105.085 390.715 105.123 390.437 105.144C390.16 105.176 389.925 105.192 389.733 105.192C389.019 105.192 388.459 105 388.053 104.616C387.659 104.232 387.461 103.693 387.461 103L387.445 94.904H389.829ZM392.037 97.096V98.648H386.069V97.176L387.605 97.096H392.037ZM395.72 97.096V105H393.368V97.096H395.72ZM395.064 93.608C395.533 93.608 395.768 93.848 395.768 94.328V95.176C395.768 95.656 395.533 95.896 395.064 95.896H394.04C393.57 95.896 393.336 95.656 393.336 95.176V94.328C393.336 93.848 393.57 93.608 394.04 93.608H395.064ZM401.486 96.888C402.478 96.888 403.272 97.0267 403.87 97.304C404.467 97.5707 404.894 98.008 405.15 98.616C405.416 99.224 405.55 100.04 405.55 101.064C405.55 102.067 405.416 102.872 405.15 103.48C404.894 104.088 404.467 104.525 403.87 104.792C403.272 105.059 402.478 105.192 401.486 105.192C400.504 105.192 399.71 105.059 399.102 104.792C398.504 104.525 398.072 104.088 397.806 103.48C397.539 102.872 397.406 102.067 397.406 101.064C397.406 100.04 397.539 99.224 397.806 98.616C398.072 98.008 398.504 97.5707 399.102 97.304C399.71 97.0267 400.504 96.888 401.486 96.888ZM401.486 98.616C401.08 98.616 400.76 98.6853 400.526 98.824C400.291 98.9627 400.126 99.208 400.03 99.56C399.934 99.912 399.886 100.413 399.886 101.064C399.886 101.704 399.934 102.2 400.03 102.552C400.126 102.904 400.291 103.149 400.526 103.288C400.76 103.416 401.08 103.48 401.486 103.48C401.891 103.48 402.211 103.416 402.446 103.288C402.68 103.149 402.846 102.904 402.942 102.552C403.038 102.2 403.086 101.704 403.086 101.064C403.086 100.413 403.038 99.912 402.942 99.56C402.846 99.208 402.68 98.9627 402.446 98.824C402.211 98.6853 401.891 98.616 401.486 98.616ZM412.667 96.888C414.16 96.888 414.907 97.6187 414.907 99.08V105H412.539V99.816C412.539 99.464 412.475 99.224 412.347 99.096C412.219 98.9573 412 98.888 411.691 98.888C411.35 98.888 410.998 98.9573 410.635 99.096C410.272 99.224 409.824 99.4267 409.291 99.704L409.179 98.376C409.744 97.896 410.32 97.528 410.907 97.272C411.504 97.016 412.091 96.888 412.667 96.888ZM409.067 97.096L409.339 98.664L409.531 98.872V105H407.163V97.096H409.067Z" fill="#023047" fill-opacity="0.72"/>
</g>
<defs>
<clipPath id="clip0_3079_8040">
<rect width="1920" height="1080" fill="white"/>
</clipPath>
</defs>
</svg>
