<svg width="1920" height="1080" viewBox="0 0 1920 1080" fill="none" xmlns="http://www.w3.org/2000/svg">
<g clip-path="url(#clip0_2286_8474)">
<rect width="1920" height="1080" fill="#F5F5F5"/>
<mask id="path-1-inside-1_2286_8474" fill="white">
<path d="M24 1038H1896V1065H24V1038Z"/>
</mask>
<path d="M24 1039H1896V1037H24V1039Z" fill="#99B0C3" mask="url(#path-1-inside-1_2286_8474)"/>
<path d="M40.768 146.72V155H39.712V146.72H40.768ZM43.444 146.72V147.656H37.048V146.72H43.444ZM45.793 149.012C46.465 149.012 47.001 149.112 47.401 149.312C47.809 149.512 48.101 149.84 48.277 150.296C48.453 150.744 48.541 151.34 48.541 152.084C48.541 152.828 48.453 153.428 48.277 153.884C48.101 154.332 47.809 154.656 47.401 154.856C47.001 155.056 46.465 155.156 45.793 155.156C45.129 155.156 44.593 155.056 44.185 154.856C43.785 154.656 43.493 154.332 43.309 153.884C43.133 153.428 43.045 152.828 43.045 152.084C43.045 151.34 43.133 150.744 43.309 150.296C43.493 149.84 43.785 149.512 44.185 149.312C44.593 149.112 45.129 149.012 45.793 149.012ZM45.793 149.876C45.369 149.876 45.033 149.944 44.785 150.08C44.545 150.208 44.373 150.432 44.269 150.752C44.165 151.072 44.113 151.516 44.113 152.084C44.113 152.652 44.165 153.096 44.269 153.416C44.373 153.736 44.545 153.964 44.785 154.1C45.033 154.228 45.369 154.292 45.793 154.292C46.217 154.292 46.553 154.228 46.801 154.1C47.049 153.964 47.225 153.736 47.329 153.416C47.433 153.096 47.485 152.652 47.485 152.084C47.485 151.516 47.433 151.072 47.329 150.752C47.225 150.432 47.049 150.208 46.801 150.08C46.553 149.944 46.217 149.876 45.793 149.876ZM52.6133 149.012C53.2853 149.012 53.8213 149.112 54.2213 149.312C54.6293 149.512 54.9213 149.84 55.0973 150.296C55.2733 150.744 55.3613 151.34 55.3613 152.084C55.3613 152.828 55.2733 153.428 55.0973 153.884C54.9213 154.332 54.6293 154.656 54.2213 154.856C53.8213 155.056 53.2853 155.156 52.6133 155.156C51.9493 155.156 51.4133 155.056 51.0053 154.856C50.6053 154.656 50.3133 154.332 50.1293 153.884C49.9533 153.428 49.8653 152.828 49.8653 152.084C49.8653 151.34 49.9533 150.744 50.1293 150.296C50.3133 149.84 50.6053 149.512 51.0053 149.312C51.4133 149.112 51.9493 149.012 52.6133 149.012ZM52.6133 149.876C52.1893 149.876 51.8533 149.944 51.6053 150.08C51.3653 150.208 51.1933 150.432 51.0893 150.752C50.9853 151.072 50.9333 151.516 50.9333 152.084C50.9333 152.652 50.9853 153.096 51.0893 153.416C51.1933 153.736 51.3653 153.964 51.6053 154.1C51.8533 154.228 52.1893 154.292 52.6133 154.292C53.0373 154.292 53.3733 154.228 53.6213 154.1C53.8693 153.964 54.0453 153.736 54.1493 153.416C54.2533 153.096 54.3053 152.652 54.3053 152.084C54.3053 151.516 54.2533 151.072 54.1493 150.752C54.0453 150.432 53.8693 150.208 53.6213 150.08C53.3733 149.944 53.0373 149.876 52.6133 149.876ZM57.9936 146.6L57.9816 153.392C57.9816 153.648 58.0496 153.844 58.1856 153.98C58.3296 154.108 58.5296 154.172 58.7856 154.172H59.3496L59.4696 154.952C59.3976 154.984 59.2936 155.012 59.1576 155.036C59.0296 155.06 58.8936 155.076 58.7496 155.084C58.6136 155.1 58.4976 155.108 58.4016 155.108C57.9696 155.108 57.6216 154.98 57.3576 154.724C57.1016 154.468 56.9736 154.1 56.9736 153.62V146.6H57.9936ZM61.9061 147.428V153.392C61.9061 153.672 61.9661 153.872 62.0861 153.992C62.2061 154.112 62.4101 154.172 62.6981 154.172H63.5861L63.7061 154.952C63.5781 154.984 63.4301 155.012 63.2621 155.036C63.0941 155.06 62.9301 155.076 62.7701 155.084C62.6101 155.1 62.4821 155.108 62.3861 155.108C61.8981 155.108 61.5261 154.972 61.2701 154.7C61.0141 154.428 60.8861 154.036 60.8861 153.524V147.428H61.9061ZM63.7661 149.156V149.96H59.8301V149.216L60.9821 149.156H63.7661ZM66.0684 149.156V155H65.0604V149.156H66.0684ZM65.8044 146.672C66.0124 146.672 66.1164 146.776 66.1164 146.984V147.668C66.1164 147.876 66.0124 147.98 65.8044 147.98H65.3244C65.1164 147.98 65.0124 147.876 65.0124 147.668V146.984C65.0124 146.776 65.1164 146.672 65.3244 146.672H65.8044ZM71.3369 149.012C72.0489 149.012 72.5609 149.276 72.8729 149.804C73.1849 150.324 73.3409 151.092 73.3409 152.108C73.3409 152.86 73.2609 153.46 73.1009 153.908C72.9409 154.348 72.6969 154.664 72.3689 154.856C72.0489 155.048 71.6369 155.144 71.1329 155.144C70.7489 155.144 70.3689 155.092 69.9929 154.988C69.6249 154.884 69.2649 154.724 68.9129 154.508L68.9729 153.896C69.3489 154 69.6809 154.088 69.9689 154.16C70.2569 154.224 70.5609 154.256 70.8809 154.256C71.2249 154.256 71.4969 154.196 71.6969 154.076C71.9049 153.956 72.0569 153.74 72.1529 153.428C72.2489 153.116 72.2969 152.676 72.2969 152.108C72.2969 151.556 72.2529 151.12 72.1649 150.8C72.0769 150.48 71.9369 150.252 71.7449 150.116C71.5609 149.972 71.3129 149.9 71.0009 149.9C70.6809 149.9 70.3649 149.976 70.0529 150.128C69.7409 150.28 69.3769 150.512 68.9609 150.824L68.8649 150.14C69.0809 149.908 69.3249 149.708 69.5969 149.54C69.8689 149.372 70.1529 149.244 70.4489 149.156C70.7529 149.06 71.0489 149.012 71.3369 149.012ZM68.8289 149.156L68.9369 150.368L69.0089 150.524V154.268L68.9609 154.412C68.9849 154.636 68.9969 154.852 68.9969 155.06C69.0049 155.268 69.0089 155.488 69.0089 155.72V157.412H67.9889V149.156H68.8289ZM75.5619 149.72C75.7059 149.72 75.8059 149.748 75.8619 149.804C75.9179 149.86 75.9459 149.96 75.9459 150.104V150.752C75.9459 150.896 75.9179 150.996 75.8619 151.052C75.8059 151.108 75.7059 151.136 75.5619 151.136H75.2259C75.0899 151.136 74.9899 151.108 74.9259 151.052C74.8699 150.996 74.8419 150.896 74.8419 150.752V150.104C74.8419 149.96 74.8699 149.86 74.9259 149.804C74.9899 149.748 75.0899 149.72 75.2259 149.72H75.5619ZM75.5619 153.584C75.7059 153.584 75.8059 153.612 75.8619 153.668C75.9179 153.724 75.9459 153.824 75.9459 153.968V154.616C75.9459 154.76 75.9179 154.86 75.8619 154.916C75.8059 154.972 75.7059 155 75.5619 155H75.2259C75.0899 155 74.9899 154.972 74.9259 154.916C74.8699 154.86 74.8419 154.76 74.8419 154.616V153.968C74.8419 153.824 74.8699 153.724 74.9259 153.668C74.9899 153.612 75.0899 153.584 75.2259 153.584H75.5619Z" fill="black"/>
<rect width="1920" height="89" fill="white"/>
<path d="M0 -9.91821e-05V89.0332H271.028L307 -9.91821e-05H0Z" fill="#003A69"/>
<path d="M175.01 54.2131H177.169V64.2302H182.027V66.0376H175.01V54.2131ZM169.877 61.055L168.949 58.143C168.72 57.4244 168.528 56.6162 168.353 55.9323H168.315C168.14 56.6162 167.965 57.4403 167.754 58.143L166.842 61.055H169.877ZM166.491 62.686L165.474 66.0376H163.246L167.034 54.2131H169.792L173.632 66.0376H171.316L170.246 62.686H166.491ZM158.71 56.0205H155.341V54.2131H164.271V56.0205H160.868V66.0376H158.71V56.0205ZM153.773 60.7919H149.315V64.2664H154.298V66.0376H147.158V54.2131H154.034V55.9843H149.315V59.038H153.773V60.7919ZM142.903 61.2127C142.832 59.6872 142.745 57.8452 142.762 56.2475H142.709C142.323 57.6861 141.833 59.2838 141.305 60.7745L139.587 65.8973H137.92L136.341 60.8454C135.884 59.3359 135.463 57.7223 135.148 56.2475H135.114C135.06 57.7917 134.989 59.6684 134.902 61.2849L134.639 66.0376H132.622L133.412 54.2131H136.253L137.797 58.9672C138.218 60.3538 138.587 61.7577 138.884 63.0721H138.936C139.253 61.7924 139.657 60.335 140.113 58.9498L141.744 54.2131H144.551L145.236 66.0376H143.131L142.903 61.2127ZM124.005 63.6866C124.708 64.09 125.76 64.4413 126.865 64.4413C128.25 64.4413 129.022 63.7921 129.022 62.8277C129.022 61.9327 128.425 61.4064 126.917 60.8627C124.969 60.16 123.724 59.1248 123.724 57.4244C123.724 55.4942 125.338 54.0208 127.9 54.0208C129.18 54.0208 130.128 54.3013 130.741 54.6165L130.215 56.353C129.794 56.126 128.97 55.7935 127.864 55.7935C126.496 55.7935 125.899 56.5294 125.899 57.2119C125.899 58.1257 126.583 58.5464 128.162 59.1609C130.215 59.933 131.214 60.9669 131.214 62.6701C131.214 64.5642 129.777 66.214 126.725 66.214C125.478 66.214 124.18 65.8626 123.532 65.4766L124.005 63.6866ZM118.574 61.055L117.644 58.143C117.417 57.4244 117.224 56.6162 117.049 55.9323H117.013C116.838 56.6162 116.663 57.4403 116.452 58.143L115.539 61.055H118.574ZM115.189 62.686L114.171 66.0376H111.942L115.731 54.2131H118.487L122.328 66.0376H120.013L118.943 62.686H115.189ZM104.776 59.599H106.057C107.513 59.599 108.425 58.8269 108.425 57.6514C108.425 56.353 107.513 55.7573 106.109 55.7573C105.425 55.7573 104.987 55.8094 104.776 55.8629V59.599ZM102.636 54.3707C103.443 54.2305 104.653 54.1249 105.898 54.1249C107.6 54.1249 108.758 54.4069 109.549 55.0734C110.198 55.6171 110.565 56.4412 110.565 57.4403C110.565 58.9672 109.53 60.0024 108.425 60.4073V60.4579C109.267 60.7745 109.776 61.5987 110.074 62.7381C110.442 64.2143 110.759 65.5807 111.003 66.0376H108.777C108.6 65.6877 108.32 64.7218 107.987 63.247C107.653 61.7057 107.092 61.2127 105.865 61.1779H104.776V66.0376H102.636V54.3707ZM94.9426 64.4775C95.2231 64.5107 95.5918 64.5295 96.0834 64.5295C97.4685 64.5295 98.6976 64.0018 98.6976 62.5472C98.6976 61.1779 97.5047 60.6169 96.0125 60.6169H94.9426V64.4775ZM94.9426 59.038H96.0472C97.538 59.038 98.3809 58.3368 98.3809 57.3362C98.3809 56.2316 97.5379 55.7212 96.1701 55.7212C95.5383 55.7212 95.171 55.7573 94.9426 55.8094V59.038ZM92.8027 54.3707C93.4866 54.2305 94.7329 54.1249 95.9417 54.1249C97.5379 54.1249 98.5212 54.3187 99.328 54.8797C100.065 55.3192 100.557 56.0899 100.557 57.0904C100.557 58.1777 99.8731 59.1783 98.5906 59.6525V59.6872C99.8369 60.0024 100.978 60.9856 100.978 62.6166C100.978 63.6692 100.521 64.4934 99.8369 65.0558C98.9954 65.7932 97.6088 66.1619 95.4515 66.1619C94.2572 66.1619 93.3463 66.0737 92.8027 66.0014V54.3707ZM79.1405 44.1368C79.1405 56.7449 68.9196 66.9658 56.3115 66.9658C43.7034 66.9658 33.4824 56.7449 33.4824 44.1368C33.4824 31.5301 43.7034 21.3077 56.3115 21.3077C68.9196 21.3077 79.1405 31.5301 79.1405 44.1368ZM216.695 48.0276V33.1799H212.549V51.4414H222.762V48.0276H216.695ZM150.45 48.0276V47.9741V33.1799H146.305V51.4414H156.516V48.0276H150.45ZM163.519 48.0291V47.9178L172.027 35.5641V33.1799H158.777V36.5936H166.664V36.702L158.687 48.1795V51.4414H172.164V48.0291H163.519ZM229.767 48.0291V47.9178L238.274 35.5641V33.1799H225.026V36.5936H232.91V36.702L224.933 48.1795V51.4414H238.41V48.0291H229.767ZM196.918 42.3656C196.918 45.9412 198.598 48.46 201.361 48.46C204.153 48.46 205.752 45.8082 205.752 42.2571C205.752 38.9793 204.182 36.1598 201.335 36.1598C198.544 36.1598 196.918 38.8159 196.918 42.3656ZM210.113 42.1212C210.113 48.1072 206.481 51.7392 201.144 51.7392C195.725 51.7392 192.556 47.6488 192.556 42.448C192.556 36.9739 196.05 32.8806 201.443 32.8806C207.051 32.8806 210.113 37.0809 210.113 42.1212ZM179.148 33.1799V40.1967H185.947V33.1799H190.067V51.4414H185.947V43.8013H179.148V51.4414H175.003V33.1799H179.148ZM142.064 43.7204H135.743V48.0537H143.25V51.4414H131.597V33.1799H142.869V36.5676H135.743V40.3587H142.064V43.7204ZM123.327 43.6654L122.189 39.7904C121.863 38.7075 121.538 37.3527 121.266 36.2683H121.214C120.942 37.3527 120.671 38.7335 120.373 39.7904L119.29 43.6654H123.327ZM118.694 46.7538L117.393 51.4414H113.112L118.694 33.1799H124.112L129.775 51.4414H125.334L123.922 46.7538H118.694ZM95.3474 51.4414L91.0127 33.1799H95.4299L96.8107 40.7129C97.2184 42.8803 97.5987 45.2371 97.8965 47.0791H97.9486C98.2479 45.1012 98.6816 42.9049 99.1429 40.658L100.687 33.1799H105.075L106.539 40.8734C106.946 43.0162 107.243 44.9667 107.516 46.9982H107.568C107.84 44.9667 108.246 42.8268 108.625 40.658L110.114 33.1799H114.315L109.6 51.4414H105.13L103.588 43.5844C103.233 41.7409 102.935 40.0348 102.719 37.9484H102.664C102.34 40.0073 102.042 41.7409 101.607 43.5844L99.8731 51.4414H95.3474Z" fill="white"/>
<path d="M73.6626 33.1797H70.9212L63.6224 50.9106L56.3221 33.1797H49.0161L61.3393 63.111L73.6626 33.1797ZM54.9413 54.2506L46.2675 33.1797H38.96L51.289 63.1211L54.9413 54.2506ZM59.5739 35.9182C59.5739 37.5825 59.7807 38.7637 61.4362 38.7637C63.0151 38.7637 63.1293 37.6056 63.1293 36.8089H62.0276C62.0276 37.6056 61.8656 37.9512 61.3668 37.9512C60.8174 37.9512 60.6815 37.409 60.6786 35.9182C60.6815 34.4275 60.8174 33.8868 61.3668 33.8868C61.8656 33.8868 62.0276 34.2323 62.0276 35.029H63.1293C63.1293 34.2323 63.0151 33.0742 61.4362 33.0742C59.7807 33.0742 59.5739 34.2555 59.5739 35.9182ZM64.1068 38.6553H65.8462C67.3108 38.6553 67.7258 37.7805 67.7258 35.8416C67.7258 34.2323 67.4496 33.1812 65.9156 33.1812H64.1068V38.6553ZM65.7016 37.8413H65.2114V33.9952H65.6784C66.5214 33.9952 66.6212 34.63 66.6212 35.872C66.6212 37.3583 66.4679 37.8413 65.7016 37.8413Z" fill="#003A69"/>
<path d="M29.52 93.96V102.216C29.52 102.483 29.5947 102.685 29.744 102.824C29.8933 102.963 30.1067 103.032 30.384 103.032H34.24L34.352 104.872C33.5947 104.957 32.8 105.005 31.968 105.016C31.1467 105.037 30.3253 105.048 29.504 105.048C28.704 105.048 28.096 104.835 27.68 104.408C27.2747 103.971 27.072 103.416 27.072 102.744V93.96H29.52ZM37.8581 97.096V102.296C37.8581 102.627 37.9275 102.861 38.0661 103C38.2155 103.139 38.4501 103.208 38.7701 103.208C39.1008 103.208 39.4261 103.149 39.7461 103.032C40.0768 102.904 40.4821 102.707 40.9621 102.44L41.1541 103.736C40.5781 104.237 40.0128 104.611 39.4581 104.856C38.9035 105.101 38.3328 105.224 37.7461 105.224C36.2421 105.224 35.4901 104.488 35.4901 103.016V97.096H37.8581ZM43.0901 97.096V105H41.2181L40.9461 103.448L40.7221 103.224V97.096H43.0901ZM48.7025 96.888C48.9905 96.888 49.3052 96.904 49.6465 96.936C49.9878 96.9573 50.3292 97.0053 50.6705 97.08C51.0225 97.144 51.3425 97.24 51.6305 97.368L51.3745 98.856C50.9478 98.8453 50.5372 98.8347 50.1425 98.824C49.7585 98.8133 49.4118 98.808 49.1025 98.808C48.6225 98.808 48.2438 98.872 47.9665 99C47.6892 99.128 47.4865 99.3573 47.3585 99.688C47.2412 100.008 47.1825 100.456 47.1825 101.032C47.1825 101.619 47.2412 102.077 47.3585 102.408C47.4865 102.739 47.6892 102.968 47.9665 103.096C48.2438 103.224 48.6225 103.288 49.1025 103.288C49.2732 103.288 49.4918 103.283 49.7585 103.272C50.0252 103.261 50.3132 103.251 50.6225 103.24C50.9318 103.219 51.2358 103.187 51.5345 103.144L51.7585 104.648C51.3318 104.84 50.8465 104.979 50.3025 105.064C49.7585 105.149 49.2198 105.192 48.6865 105.192C47.7052 105.192 46.9212 105.059 46.3345 104.792C45.7585 104.515 45.3425 104.072 45.0865 103.464C44.8305 102.856 44.7025 102.045 44.7025 101.032C44.7025 100.019 44.8305 99.208 45.0865 98.6C45.3532 97.992 45.7798 97.5547 46.3665 97.288C46.9532 97.0213 47.7318 96.888 48.7025 96.888ZM55.0191 97.096L55.3071 98.664L55.5311 98.872V105H53.1631V97.096H55.0191ZM58.8751 96.888L58.6511 99.08H57.9951C57.6218 99.08 57.2325 99.1333 56.8271 99.24C56.4218 99.3467 55.9098 99.5067 55.2911 99.72L55.1311 98.392C55.6858 97.9013 56.2458 97.528 56.8111 97.272C57.3765 97.016 57.9258 96.888 58.4591 96.888H58.8751ZM63.6263 96.888C64.6183 96.888 65.4129 97.0267 66.0103 97.304C66.6076 97.5707 67.0343 98.008 67.2903 98.616C67.5569 99.224 67.6903 100.04 67.6903 101.064C67.6903 102.067 67.5569 102.872 67.2903 103.48C67.0343 104.088 66.6076 104.525 66.0103 104.792C65.4129 105.059 64.6183 105.192 63.6263 105.192C62.6449 105.192 61.8503 105.059 61.2423 104.792C60.6449 104.525 60.2129 104.088 59.9463 103.48C59.6796 102.872 59.5463 102.067 59.5463 101.064C59.5463 100.04 59.6796 99.224 59.9463 98.616C60.2129 98.008 60.6449 97.5707 61.2423 97.304C61.8503 97.0267 62.6449 96.888 63.6263 96.888ZM63.6263 98.616C63.2209 98.616 62.9009 98.6853 62.6663 98.824C62.4316 98.9627 62.2663 99.208 62.1703 99.56C62.0743 99.912 62.0263 100.413 62.0263 101.064C62.0263 101.704 62.0743 102.2 62.1703 102.552C62.2663 102.904 62.4316 103.149 62.6663 103.288C62.9009 103.416 63.2209 103.48 63.6263 103.48C64.0316 103.48 64.3516 103.416 64.5863 103.288C64.8209 103.149 64.9863 102.904 65.0823 102.552C65.1783 102.2 65.2263 101.704 65.2263 101.064C65.2263 100.413 65.1783 99.912 65.0823 99.56C64.9863 99.208 64.8209 98.9627 64.5863 98.824C64.3516 98.6853 64.0316 98.616 63.6263 98.616ZM77.7329 96.888C78.7782 96.888 79.5249 97.208 79.9729 97.848C80.4315 98.4773 80.6609 99.5227 80.6609 100.984C80.6609 101.592 80.6022 102.152 80.4849 102.664C80.3782 103.176 80.1809 103.624 79.8929 104.008C79.6155 104.381 79.2262 104.675 78.7249 104.888C78.2235 105.091 77.5729 105.192 76.7729 105.192C76.4955 105.192 76.1755 105.176 75.8129 105.144C75.4502 105.123 75.0769 105.085 74.6929 105.032C74.3195 104.989 73.9622 104.931 73.6209 104.856C73.2795 104.771 72.9862 104.675 72.7409 104.568L74.6289 103.208C74.8315 103.272 75.0555 103.331 75.3009 103.384C75.5462 103.427 75.7969 103.459 76.0529 103.48C76.3089 103.491 76.5329 103.491 76.7249 103.48C77.0875 103.469 77.3755 103.395 77.5889 103.256C77.8129 103.107 77.9729 102.856 78.0689 102.504C78.1649 102.141 78.2129 101.64 78.2129 101C78.2129 100.413 78.1702 99.96 78.0849 99.64C78.0102 99.3093 77.8662 99.08 77.6529 98.952C77.4502 98.8133 77.1622 98.744 76.7889 98.744C76.4369 98.744 76.1169 98.8187 75.8289 98.968C75.5409 99.1173 75.2209 99.3147 74.8689 99.56L74.6929 98.44C74.9702 98.1413 75.2689 97.8747 75.5889 97.64C75.9089 97.4053 76.2502 97.224 76.6129 97.096C76.9755 96.9573 77.3489 96.888 77.7329 96.888ZM75.1089 93.8L75.1249 96.36C75.1249 96.7227 75.1035 97.0747 75.0609 97.416C75.0289 97.7467 74.9649 98.072 74.8689 98.392L75.0929 98.6L75.1089 104.68L72.7409 104.568V93.8H75.1089ZM84.1129 97.096L84.4009 98.664L84.6249 98.872V105H82.2569V97.096H84.1129ZM87.9689 96.888L87.7449 99.08H87.0889C86.7155 99.08 86.3262 99.1333 85.9209 99.24C85.5155 99.3467 85.0035 99.5067 84.3849 99.72L84.2249 98.392C84.7795 97.9013 85.3395 97.528 85.9049 97.272C86.4702 97.016 87.0195 96.888 87.5529 96.888H87.9689ZM91.405 97.096V102.296C91.405 102.627 91.4743 102.861 91.613 103C91.7623 103.139 91.997 103.208 92.317 103.208C92.6477 103.208 92.973 103.149 93.293 103.032C93.6237 102.904 94.029 102.707 94.509 102.44L94.701 103.736C94.125 104.237 93.5597 104.611 93.005 104.856C92.4503 105.101 91.8797 105.224 91.293 105.224C89.789 105.224 89.037 104.488 89.037 103.016V97.096H91.405ZM96.637 97.096V105H94.765L94.493 103.448L94.269 103.224V97.096H96.637ZM101.657 94.904V102.472C101.657 102.76 101.721 102.968 101.849 103.096C101.988 103.213 102.212 103.272 102.521 103.272H103.545L103.801 104.872C103.609 104.936 103.375 104.989 103.097 105.032C102.82 105.085 102.543 105.123 102.265 105.144C101.988 105.176 101.753 105.192 101.561 105.192C100.847 105.192 100.287 105 99.8814 104.616C99.4867 104.232 99.2894 103.693 99.2894 103L99.2734 94.904H101.657ZM103.865 97.096V98.648H97.8974V97.176L99.4334 97.096H103.865ZM108.892 96.888C109.884 96.888 110.679 97.0267 111.276 97.304C111.873 97.5707 112.3 98.008 112.556 98.616C112.823 99.224 112.956 100.04 112.956 101.064C112.956 102.067 112.823 102.872 112.556 103.48C112.3 104.088 111.873 104.525 111.276 104.792C110.679 105.059 109.884 105.192 108.892 105.192C107.911 105.192 107.116 105.059 106.508 104.792C105.911 104.525 105.479 104.088 105.212 103.48C104.945 102.872 104.812 102.067 104.812 101.064C104.812 100.04 104.945 99.224 105.212 98.616C105.479 98.008 105.911 97.5707 106.508 97.304C107.116 97.0267 107.911 96.888 108.892 96.888ZM108.892 98.616C108.487 98.616 108.167 98.6853 107.932 98.824C107.697 98.9627 107.532 99.208 107.436 99.56C107.34 99.912 107.292 100.413 107.292 101.064C107.292 101.704 107.34 102.2 107.436 102.552C107.532 102.904 107.697 103.149 107.932 103.288C108.167 103.416 108.487 103.48 108.892 103.48C109.297 103.48 109.617 103.416 109.852 103.288C110.087 103.149 110.252 102.904 110.348 102.552C110.444 102.2 110.492 101.704 110.492 101.064C110.492 100.413 110.444 99.912 110.348 99.56C110.252 99.208 110.087 98.9627 109.852 98.824C109.617 98.6853 109.297 98.616 108.892 98.616ZM121.703 96.888C121.991 96.888 122.305 96.904 122.647 96.936C122.988 96.9573 123.329 97.0053 123.671 97.08C124.023 97.144 124.343 97.24 124.631 97.368L124.375 98.856C123.948 98.8453 123.537 98.8347 123.143 98.824C122.759 98.8133 122.412 98.808 122.103 98.808C121.623 98.808 121.244 98.872 120.967 99C120.689 99.128 120.487 99.3573 120.359 99.688C120.241 100.008 120.183 100.456 120.183 101.032C120.183 101.619 120.241 102.077 120.359 102.408C120.487 102.739 120.689 102.968 120.967 103.096C121.244 103.224 121.623 103.288 122.103 103.288C122.273 103.288 122.492 103.283 122.759 103.272C123.025 103.261 123.313 103.251 123.623 103.24C123.932 103.219 124.236 103.187 124.535 103.144L124.759 104.648C124.332 104.84 123.847 104.979 123.303 105.064C122.759 105.149 122.22 105.192 121.687 105.192C120.705 105.192 119.921 105.059 119.335 104.792C118.759 104.515 118.343 104.072 118.087 103.464C117.831 102.856 117.703 102.045 117.703 101.032C117.703 100.019 117.831 99.208 118.087 98.6C118.353 97.992 118.78 97.5547 119.367 97.288C119.953 97.0213 120.732 96.888 121.703 96.888ZM129.829 96.888C130.821 96.888 131.616 97.0267 132.213 97.304C132.811 97.5707 133.237 98.008 133.493 98.616C133.76 99.224 133.893 100.04 133.893 101.064C133.893 102.067 133.76 102.872 133.493 103.48C133.237 104.088 132.811 104.525 132.213 104.792C131.616 105.059 130.821 105.192 129.829 105.192C128.848 105.192 128.053 105.059 127.445 104.792C126.848 104.525 126.416 104.088 126.149 103.48C125.883 102.872 125.749 102.067 125.749 101.064C125.749 100.04 125.883 99.224 126.149 98.616C126.416 98.008 126.848 97.5707 127.445 97.304C128.053 97.0267 128.848 96.888 129.829 96.888ZM129.829 98.616C129.424 98.616 129.104 98.6853 128.869 98.824C128.635 98.9627 128.469 99.208 128.373 99.56C128.277 99.912 128.229 100.413 128.229 101.064C128.229 101.704 128.277 102.2 128.373 102.552C128.469 102.904 128.635 103.149 128.869 103.288C129.104 103.416 129.424 103.48 129.829 103.48C130.235 103.48 130.555 103.416 130.789 103.288C131.024 103.149 131.189 102.904 131.285 102.552C131.381 102.2 131.429 101.704 131.429 101.064C131.429 100.413 131.381 99.912 131.285 99.56C131.189 99.208 131.024 98.9627 130.789 98.824C130.555 98.6853 130.235 98.616 129.829 98.616ZM141.011 96.888C142.504 96.888 143.251 97.6187 143.251 99.08V105H140.883V99.816C140.883 99.464 140.819 99.224 140.691 99.096C140.563 98.9573 140.344 98.888 140.035 98.888C139.694 98.888 139.342 98.9573 138.979 99.096C138.616 99.224 138.168 99.4267 137.635 99.704L137.523 98.376C138.088 97.896 138.664 97.528 139.251 97.272C139.848 97.016 140.435 96.888 141.011 96.888ZM137.411 97.096L137.683 98.664L137.875 98.872V105H135.507V97.096H137.411ZM148.124 96.888C148.508 96.888 148.924 96.904 149.372 96.936C149.82 96.9573 150.258 96.9893 150.684 97.032C151.111 97.0747 151.49 97.128 151.82 97.192L151.66 98.664C151.148 98.6533 150.631 98.648 150.108 98.648C149.596 98.6373 149.095 98.632 148.604 98.632C148.188 98.6213 147.868 98.6267 147.644 98.648C147.42 98.6693 147.26 98.7227 147.164 98.808C147.079 98.8827 147.036 99.0213 147.036 99.224C147.036 99.4587 147.116 99.6187 147.276 99.704C147.436 99.7787 147.703 99.864 148.076 99.96L150.14 100.456C150.802 100.627 151.292 100.883 151.612 101.224C151.932 101.555 152.092 102.056 152.092 102.728C152.092 103.389 151.97 103.896 151.724 104.248C151.479 104.6 151.09 104.845 150.556 104.984C150.023 105.112 149.335 105.176 148.492 105.176C148.162 105.176 147.671 105.16 147.02 105.128C146.37 105.096 145.655 105.016 144.876 104.888L145.036 103.416C145.228 103.427 145.474 103.437 145.772 103.448C146.071 103.448 146.396 103.448 146.748 103.448C147.1 103.448 147.452 103.448 147.804 103.448C148.348 103.448 148.764 103.437 149.052 103.416C149.34 103.384 149.538 103.32 149.644 103.224C149.751 103.128 149.804 102.984 149.804 102.792C149.804 102.557 149.714 102.397 149.532 102.312C149.351 102.227 149.063 102.136 148.668 102.04L146.668 101.544C146.167 101.405 145.778 101.229 145.5 101.016C145.223 100.803 145.026 100.541 144.908 100.232C144.802 99.9227 144.748 99.5547 144.748 99.128C144.748 98.584 144.855 98.152 145.068 97.832C145.292 97.5013 145.65 97.2613 146.14 97.112C146.642 96.9627 147.303 96.888 148.124 96.888ZM156.032 97.096V105H153.68V97.096H156.032ZM155.376 93.608C155.846 93.608 156.08 93.848 156.08 94.328V95.176C156.08 95.656 155.846 95.896 155.376 95.896H154.352C153.883 95.896 153.648 95.656 153.648 95.176V94.328C153.648 93.848 153.883 93.608 154.352 93.608H155.376ZM160.742 96.888C161.297 96.888 161.83 96.968 162.342 97.128C162.865 97.288 163.323 97.5493 163.718 97.912L163.558 99C163.195 98.8933 162.87 98.7973 162.582 98.712C162.294 98.6267 161.958 98.584 161.574 98.584C161.243 98.584 160.977 98.6427 160.774 98.76C160.571 98.8773 160.422 99.1067 160.326 99.448C160.23 99.7893 160.182 100.296 160.182 100.968C160.182 101.597 160.225 102.077 160.31 102.408C160.406 102.728 160.55 102.952 160.742 103.08C160.945 103.197 161.201 103.256 161.51 103.256C161.787 103.256 162.027 103.229 162.23 103.176C162.433 103.112 162.635 103.021 162.838 102.904C163.041 102.776 163.27 102.621 163.526 102.44L163.702 103.608C163.382 104.056 162.966 104.435 162.454 104.744C161.942 105.043 161.313 105.192 160.566 105.192C159.553 105.192 158.827 104.829 158.39 104.104C157.963 103.379 157.75 102.339 157.75 100.984C157.75 99.928 157.857 99.1067 158.07 98.52C158.294 97.9227 158.63 97.5013 159.078 97.256C159.526 97.0107 160.081 96.888 160.742 96.888ZM165.654 93.8V105H163.782L163.542 103.544L163.286 103.368V98.184L163.382 97.976C163.35 97.6453 163.323 97.3147 163.302 96.984C163.291 96.6427 163.286 96.296 163.286 95.944V93.8H165.654ZM171.329 96.888C172.662 96.888 173.617 97.1173 174.193 97.576C174.78 98.024 175.073 98.696 175.073 99.592C175.084 100.317 174.902 100.861 174.529 101.224C174.156 101.576 173.51 101.752 172.593 101.752H168.177V100.424H171.937C172.3 100.424 172.529 100.349 172.625 100.2C172.732 100.04 172.785 99.8213 172.785 99.544C172.774 99.1707 172.662 98.9147 172.449 98.776C172.246 98.6267 171.9 98.552 171.409 98.552C170.972 98.552 170.63 98.6107 170.385 98.728C170.14 98.8453 169.969 99.0693 169.873 99.4C169.777 99.7307 169.729 100.211 169.729 100.84C169.729 101.501 169.788 102.013 169.905 102.376C170.022 102.728 170.22 102.973 170.497 103.112C170.785 103.251 171.18 103.32 171.681 103.32C172.044 103.32 172.492 103.309 173.025 103.288C173.569 103.256 174.113 103.208 174.657 103.144L174.881 104.6C174.572 104.749 174.22 104.867 173.825 104.952C173.43 105.037 173.025 105.096 172.609 105.128C172.193 105.171 171.793 105.192 171.409 105.192C170.406 105.192 169.596 105.048 168.977 104.76C168.369 104.461 167.926 104.008 167.649 103.4C167.382 102.792 167.249 102.013 167.249 101.064C167.249 100.029 167.388 99.208 167.665 98.6C167.942 97.992 168.38 97.5547 168.977 97.288C169.574 97.0213 170.358 96.888 171.329 96.888ZM178.472 97.096L178.76 98.664L178.984 98.872V105H176.616V97.096H178.472ZM182.328 96.888L182.104 99.08H181.448C181.075 99.08 180.686 99.1333 180.28 99.24C179.875 99.3467 179.363 99.5067 178.744 99.72L178.584 98.392C179.139 97.9013 179.699 97.528 180.264 97.272C180.83 97.016 181.379 96.888 181.912 96.888H182.328ZM187.574 96.888C188.235 96.888 188.795 96.9787 189.254 97.16C189.712 97.3307 190.059 97.6293 190.294 98.056C190.539 98.472 190.661 99.048 190.661 99.784V105H188.774L188.438 103.288L188.278 103.048V99.768C188.278 99.3947 188.187 99.1227 188.006 98.952C187.835 98.7813 187.504 98.696 187.014 98.696C186.608 98.696 186.102 98.712 185.494 98.744C184.886 98.7653 184.262 98.7973 183.622 98.84L183.398 97.272C183.782 97.1973 184.224 97.1333 184.726 97.08C185.227 97.0267 185.728 96.984 186.23 96.952C186.731 96.9093 187.179 96.888 187.574 96.888ZM189.686 100.136L189.67 101.464L186.15 101.48C185.862 101.48 185.654 101.549 185.526 101.688C185.408 101.827 185.35 102.013 185.35 102.248V102.632C185.35 102.899 185.424 103.107 185.574 103.256C185.723 103.395 185.963 103.464 186.294 103.464C186.571 103.464 186.87 103.405 187.19 103.288C187.52 103.171 187.846 103.005 188.166 102.792C188.486 102.579 188.768 102.328 189.014 102.04V103.064C188.918 103.224 188.774 103.427 188.582 103.672C188.4 103.907 188.166 104.141 187.878 104.376C187.59 104.6 187.254 104.792 186.87 104.952C186.486 105.112 186.048 105.192 185.558 105.192C185.078 105.192 184.646 105.107 184.262 104.936C183.878 104.765 183.574 104.515 183.35 104.184C183.126 103.853 183.014 103.443 183.014 102.952V102.136C183.014 101.507 183.227 101.016 183.654 100.664C184.08 100.312 184.667 100.136 185.414 100.136H189.686ZM198.027 96.888C199.52 96.888 200.267 97.6187 200.267 99.08V105H197.899V99.816C197.899 99.464 197.835 99.224 197.707 99.096C197.579 98.9573 197.36 98.888 197.051 98.888C196.709 98.888 196.357 98.9573 195.995 99.096C195.632 99.224 195.184 99.4267 194.651 99.704L194.539 98.376C195.104 97.896 195.68 97.528 196.266 97.272C196.864 97.016 197.451 96.888 198.027 96.888ZM194.427 97.096L194.699 98.664L194.891 98.872V105H192.523V97.096H194.427ZM204.836 96.888C205.391 96.888 205.924 96.968 206.436 97.128C206.959 97.288 207.417 97.5493 207.812 97.912L207.652 99C207.289 98.8933 206.964 98.7973 206.676 98.712C206.388 98.6267 206.052 98.584 205.668 98.584C205.337 98.584 205.071 98.6427 204.868 98.76C204.665 98.8773 204.516 99.1067 204.42 99.448C204.324 99.7893 204.276 100.296 204.276 100.968C204.276 101.597 204.319 102.077 204.404 102.408C204.5 102.728 204.644 102.952 204.836 103.08C205.039 103.197 205.295 103.256 205.604 103.256C205.881 103.256 206.121 103.229 206.324 103.176C206.527 103.112 206.729 103.021 206.932 102.904C207.135 102.776 207.364 102.621 207.62 102.44L207.796 103.608C207.476 104.056 207.06 104.435 206.548 104.744C206.036 105.043 205.407 105.192 204.66 105.192C203.647 105.192 202.921 104.829 202.484 104.104C202.057 103.379 201.844 102.339 201.844 100.984C201.844 99.928 201.951 99.1067 202.164 98.52C202.388 97.9227 202.724 97.5013 203.172 97.256C203.62 97.0107 204.175 96.888 204.836 96.888ZM209.748 93.8V105H207.876L207.636 103.544L207.38 103.368V98.184L207.476 97.976C207.444 97.6453 207.417 97.3147 207.396 96.984C207.385 96.6427 207.38 96.296 207.38 95.944V93.8H209.748ZM215.439 96.888C216.431 96.888 217.225 97.0267 217.823 97.304C218.42 97.5707 218.847 98.008 219.103 98.616C219.369 99.224 219.503 100.04 219.503 101.064C219.503 102.067 219.369 102.872 219.103 103.48C218.847 104.088 218.42 104.525 217.823 104.792C217.225 105.059 216.431 105.192 215.439 105.192C214.457 105.192 213.663 105.059 213.055 104.792C212.457 104.525 212.025 104.088 211.759 103.48C211.492 102.872 211.359 102.067 211.359 101.064C211.359 100.04 211.492 99.224 211.759 98.616C212.025 98.008 212.457 97.5707 213.055 97.304C213.663 97.0267 214.457 96.888 215.439 96.888ZM215.439 98.616C215.033 98.616 214.713 98.6853 214.479 98.824C214.244 98.9627 214.079 99.208 213.983 99.56C213.887 99.912 213.839 100.413 213.839 101.064C213.839 101.704 213.887 102.2 213.983 102.552C214.079 102.904 214.244 103.149 214.479 103.288C214.713 103.416 215.033 103.48 215.439 103.48C215.844 103.48 216.164 103.416 216.399 103.288C216.633 103.149 216.799 102.904 216.895 102.552C216.991 102.2 217.039 101.704 217.039 101.064C217.039 100.413 216.991 99.912 216.895 99.56C216.799 99.208 216.633 98.9627 216.399 98.824C216.164 98.6853 215.844 98.616 215.439 98.616ZM228.745 96.888C229.407 96.888 229.967 96.9787 230.425 97.16C230.884 97.3307 231.231 97.6293 231.465 98.056C231.711 98.472 231.833 99.048 231.833 99.784V105H229.945L229.609 103.288L229.449 103.048V99.768C229.449 99.3947 229.359 99.1227 229.177 98.952C229.007 98.7813 228.676 98.696 228.185 98.696C227.78 98.696 227.273 98.712 226.665 98.744C226.057 98.7653 225.433 98.7973 224.793 98.84L224.569 97.272C224.953 97.1973 225.396 97.1333 225.897 97.08C226.399 97.0267 226.9 96.984 227.401 96.952C227.903 96.9093 228.351 96.888 228.745 96.888ZM230.857 100.136L230.841 101.464L227.321 101.48C227.033 101.48 226.825 101.549 226.697 101.688C226.58 101.827 226.521 102.013 226.521 102.248V102.632C226.521 102.899 226.596 103.107 226.745 103.256C226.895 103.395 227.135 103.464 227.465 103.464C227.743 103.464 228.041 103.405 228.361 103.288C228.692 103.171 229.017 103.005 229.337 102.792C229.657 102.579 229.94 102.328 230.185 102.04V103.064C230.089 103.224 229.945 103.427 229.753 103.672C229.572 103.907 229.337 104.141 229.049 104.376C228.761 104.6 228.425 104.792 228.041 104.952C227.657 105.112 227.22 105.192 226.729 105.192C226.249 105.192 225.817 105.107 225.433 104.936C225.049 104.765 224.745 104.515 224.521 104.184C224.297 103.853 224.185 103.443 224.185 102.952V102.136C224.185 101.507 224.399 101.016 224.825 100.664C225.252 100.312 225.839 100.136 226.585 100.136H230.857ZM238.894 96.904C239.886 96.904 240.596 97.2667 241.022 97.992C241.449 98.7173 241.662 99.7573 241.662 101.112C241.662 102.168 241.55 102.995 241.326 103.592C241.113 104.189 240.782 104.611 240.334 104.856C239.897 105.091 239.348 105.208 238.686 105.208C238.121 105.208 237.582 105.128 237.07 104.968C236.558 104.808 236.105 104.541 235.71 104.168L235.87 103.112C236.222 103.219 236.542 103.315 236.83 103.4C237.129 103.475 237.465 103.512 237.838 103.512C238.18 103.512 238.452 103.453 238.654 103.336C238.857 103.219 239.001 102.989 239.086 102.648C239.182 102.296 239.23 101.789 239.23 101.128C239.23 100.477 239.188 99.9813 239.102 99.64C239.017 99.288 238.878 99.048 238.686 98.92C238.494 98.7813 238.244 98.712 237.934 98.712C237.593 98.712 237.278 98.7813 236.99 98.92C236.702 99.048 236.377 99.2347 236.014 99.48L235.71 98.392C235.924 98.104 236.196 97.848 236.526 97.624C236.868 97.4 237.241 97.224 237.646 97.096C238.052 96.968 238.468 96.904 238.894 96.904ZM235.614 97.096L235.838 98.536L236.062 98.776V103.912L235.982 104.104C236.014 104.424 236.036 104.755 236.046 105.096C236.068 105.448 236.073 105.795 236.062 106.136V108.04H233.694V97.096H235.614ZM247.032 96.888C248.365 96.888 249.32 97.1173 249.896 97.576C250.483 98.024 250.776 98.696 250.776 99.592C250.787 100.317 250.605 100.861 250.232 101.224C249.859 101.576 249.213 101.752 248.296 101.752H243.88V100.424H247.64C248.003 100.424 248.232 100.349 248.328 100.2C248.435 100.04 248.488 99.8213 248.488 99.544C248.477 99.1707 248.365 98.9147 248.152 98.776C247.949 98.6267 247.603 98.552 247.112 98.552C246.675 98.552 246.333 98.6107 246.088 98.728C245.843 98.8453 245.672 99.0693 245.576 99.4C245.48 99.7307 245.432 100.211 245.432 100.84C245.432 101.501 245.491 102.013 245.608 102.376C245.725 102.728 245.923 102.973 246.2 103.112C246.488 103.251 246.883 103.32 247.384 103.32C247.747 103.32 248.195 103.309 248.728 103.288C249.272 103.256 249.816 103.208 250.36 103.144L250.584 104.6C250.275 104.749 249.923 104.867 249.528 104.952C249.133 105.037 248.728 105.096 248.312 105.128C247.896 105.171 247.496 105.192 247.112 105.192C246.109 105.192 245.299 105.048 244.68 104.76C244.072 104.461 243.629 104.008 243.352 103.4C243.085 102.792 242.952 102.013 242.952 101.064C242.952 100.029 243.091 99.208 243.368 98.6C243.645 97.992 244.083 97.5547 244.68 97.288C245.277 97.0213 246.061 96.888 247.032 96.888ZM257.823 96.888C259.317 96.888 260.063 97.6187 260.063 99.08V105H257.695V99.816C257.695 99.464 257.631 99.224 257.503 99.096C257.375 98.9573 257.157 98.888 256.847 98.888C256.506 98.888 256.154 98.9573 255.791 99.096C255.429 99.224 254.981 99.4267 254.447 99.704L254.335 98.376C254.901 97.896 255.477 97.528 256.063 97.272C256.661 97.016 257.247 96.888 257.823 96.888ZM254.223 97.096L254.495 98.664L254.687 98.872V105H252.319V97.096H254.223ZM266.105 96.888C266.766 96.888 267.326 96.9787 267.785 97.16C268.243 97.3307 268.59 97.6293 268.825 98.056C269.07 98.472 269.193 99.048 269.193 99.784V105H267.305L266.969 103.288L266.809 103.048V99.768C266.809 99.3947 266.718 99.1227 266.537 98.952C266.366 98.7813 266.035 98.696 265.545 98.696C265.139 98.696 264.633 98.712 264.025 98.744C263.417 98.7653 262.793 98.7973 262.153 98.84L261.929 97.272C262.313 97.1973 262.755 97.1333 263.257 97.08C263.758 97.0267 264.259 96.984 264.761 96.952C265.262 96.9093 265.71 96.888 266.105 96.888ZM268.217 100.136L268.201 101.464L264.681 101.48C264.393 101.48 264.185 101.549 264.057 101.688C263.939 101.827 263.881 102.013 263.881 102.248V102.632C263.881 102.899 263.955 103.107 264.105 103.256C264.254 103.395 264.494 103.464 264.825 103.464C265.102 103.464 265.401 103.405 265.721 103.288C266.051 103.171 266.377 103.005 266.697 102.792C267.017 102.579 267.299 102.328 267.545 102.04V103.064C267.449 103.224 267.305 103.427 267.113 103.672C266.931 103.907 266.697 104.141 266.409 104.376C266.121 104.6 265.785 104.792 265.401 104.952C265.017 105.112 264.579 105.192 264.089 105.192C263.609 105.192 263.177 105.107 262.793 104.936C262.409 104.765 262.105 104.515 261.881 104.184C261.657 103.853 261.545 103.443 261.545 102.952V102.136C261.545 101.507 261.758 101.016 262.185 100.664C262.611 100.312 263.198 100.136 263.945 100.136H268.217ZM274.062 96.888C274.446 96.888 274.862 96.904 275.31 96.936C275.758 96.9573 276.195 96.9893 276.622 97.032C277.048 97.0747 277.427 97.128 277.758 97.192L277.598 98.664C277.086 98.6533 276.568 98.648 276.046 98.648C275.534 98.6373 275.032 98.632 274.542 98.632C274.126 98.6213 273.806 98.6267 273.582 98.648C273.358 98.6693 273.198 98.7227 273.102 98.808C273.016 98.8827 272.974 99.0213 272.974 99.224C272.974 99.4587 273.054 99.6187 273.214 99.704C273.374 99.7787 273.64 99.864 274.014 99.96L276.078 100.456C276.739 100.627 277.23 100.883 277.55 101.224C277.87 101.555 278.03 102.056 278.03 102.728C278.03 103.389 277.907 103.896 277.662 104.248C277.416 104.6 277.027 104.845 276.494 104.984C275.96 105.112 275.272 105.176 274.43 105.176C274.099 105.176 273.608 105.16 272.958 105.128C272.307 105.096 271.592 105.016 270.814 104.888L270.974 103.416C271.166 103.427 271.411 103.437 271.71 103.448C272.008 103.448 272.334 103.448 272.686 103.448C273.038 103.448 273.39 103.448 273.742 103.448C274.286 103.448 274.702 103.437 274.99 103.416C275.278 103.384 275.475 103.32 275.582 103.224C275.688 103.128 275.742 102.984 275.742 102.792C275.742 102.557 275.651 102.397 275.47 102.312C275.288 102.227 275 102.136 274.606 102.04L272.606 101.544C272.104 101.405 271.715 101.229 271.438 101.016C271.16 100.803 270.963 100.541 270.846 100.232C270.739 99.9227 270.686 99.5547 270.686 99.128C270.686 98.584 270.792 98.152 271.006 97.832C271.23 97.5013 271.587 97.2613 272.078 97.112C272.579 96.9627 273.24 96.888 274.062 96.888ZM285.423 97.096V105H283.071V97.096H285.423ZM284.767 93.608C285.236 93.608 285.471 93.848 285.471 94.328V95.176C285.471 95.656 285.236 95.896 284.767 95.896H283.743C283.274 95.896 283.039 95.656 283.039 95.176V94.328C283.039 93.848 283.274 93.608 283.743 93.608H284.767ZM292.933 96.888C294.426 96.888 295.173 97.6187 295.173 99.08V105H292.805V99.816C292.805 99.464 292.741 99.224 292.613 99.096C292.485 98.9573 292.266 98.888 291.957 98.888C291.615 98.888 291.263 98.9573 290.901 99.096C290.538 99.224 290.09 99.4267 289.557 99.704L289.445 98.376C290.01 97.896 290.586 97.528 291.173 97.272C291.77 97.016 292.357 96.888 292.933 96.888ZM289.333 97.096L289.605 98.664L289.797 98.872V105H287.429V97.096H289.333ZM300.35 93.464C300.542 93.464 300.793 93.4693 301.102 93.48C301.422 93.4907 301.742 93.512 302.062 93.544C302.393 93.5653 302.675 93.5973 302.91 93.64L302.702 95.16H301.198C300.793 95.16 300.51 95.24 300.35 95.4C300.19 95.56 300.11 95.8373 300.11 96.232V105H297.742V95.928C297.742 95.4267 297.822 94.9947 297.982 94.632C298.153 94.2693 298.43 93.9867 298.814 93.784C299.198 93.5707 299.71 93.464 300.35 93.464ZM302.318 97.096V98.648H296.366V97.176L297.79 97.096H302.318ZM307.173 96.888C308.165 96.888 308.96 97.0267 309.557 97.304C310.154 97.5707 310.581 98.008 310.837 98.616C311.104 99.224 311.237 100.04 311.237 101.064C311.237 102.067 311.104 102.872 310.837 103.48C310.581 104.088 310.154 104.525 309.557 104.792C308.96 105.059 308.165 105.192 307.173 105.192C306.192 105.192 305.397 105.059 304.789 104.792C304.192 104.525 303.76 104.088 303.493 103.48C303.226 102.872 303.093 102.067 303.093 101.064C303.093 100.04 303.226 99.224 303.493 98.616C303.76 98.008 304.192 97.5707 304.789 97.304C305.397 97.0267 306.192 96.888 307.173 96.888ZM307.173 98.616C306.768 98.616 306.448 98.6853 306.213 98.824C305.978 98.9627 305.813 99.208 305.717 99.56C305.621 99.912 305.573 100.413 305.573 101.064C305.573 101.704 305.621 102.2 305.717 102.552C305.813 102.904 305.978 103.149 306.213 103.288C306.448 103.416 306.768 103.48 307.173 103.48C307.578 103.48 307.898 103.416 308.133 103.288C308.368 103.149 308.533 102.904 308.629 102.552C308.725 102.2 308.773 101.704 308.773 101.064C308.773 100.413 308.725 99.912 308.629 99.56C308.533 99.208 308.368 98.9627 308.133 98.824C307.898 98.6853 307.578 98.616 307.173 98.616ZM314.707 97.096L314.995 98.664L315.219 98.872V105H312.851V97.096H314.707ZM318.563 96.888L318.339 99.08H317.683C317.309 99.08 316.92 99.1333 316.515 99.24C316.109 99.3467 315.597 99.5067 314.979 99.72L314.819 98.392C315.373 97.9013 315.933 97.528 316.499 97.272C317.064 97.016 317.613 96.888 318.147 96.888H318.563ZM329.695 96.888C330.409 96.888 330.953 97.0747 331.327 97.448C331.7 97.8213 331.887 98.3653 331.887 99.08V105H329.535V99.816C329.535 99.4853 329.471 99.2507 329.343 99.112C329.215 98.9627 328.991 98.888 328.671 98.888C328.479 98.888 328.297 98.9147 328.127 98.968C327.956 99.0213 327.759 99.1067 327.535 99.224C327.311 99.3413 327.039 99.5013 326.719 99.704L326.591 98.392C327.103 97.8907 327.604 97.5173 328.095 97.272C328.596 97.016 329.129 96.888 329.695 96.888ZM321.567 97.096L321.807 98.664L322.047 98.872V105H319.679V97.096H321.567ZM324.767 96.888C325.471 96.888 326.004 97.0747 326.367 97.448C326.74 97.8107 326.927 98.3547 326.927 99.08V105H324.655V99.816C324.655 99.4747 324.58 99.2347 324.431 99.096C324.292 98.9573 324.073 98.888 323.775 98.888C323.593 98.888 323.412 98.9147 323.231 98.968C323.06 99.0107 322.857 99.0907 322.623 99.208C322.399 99.3253 322.121 99.4907 321.791 99.704L321.647 98.392C322.169 97.8907 322.676 97.5173 323.167 97.272C323.657 97.016 324.191 96.888 324.767 96.888ZM337.949 96.888C338.61 96.888 339.17 96.9787 339.629 97.16C340.087 97.3307 340.434 97.6293 340.669 98.056C340.914 98.472 341.036 99.048 341.036 99.784V105H339.149L338.813 103.288L338.653 103.048V99.768C338.653 99.3947 338.562 99.1227 338.381 98.952C338.21 98.7813 337.879 98.696 337.389 98.696C336.983 98.696 336.477 98.712 335.869 98.744C335.261 98.7653 334.637 98.7973 333.997 98.84L333.773 97.272C334.157 97.1973 334.599 97.1333 335.101 97.08C335.602 97.0267 336.103 96.984 336.605 96.952C337.106 96.9093 337.554 96.888 337.949 96.888ZM340.061 100.136L340.045 101.464L336.525 101.48C336.237 101.48 336.029 101.549 335.901 101.688C335.783 101.827 335.725 102.013 335.725 102.248V102.632C335.725 102.899 335.799 103.107 335.949 103.256C336.098 103.395 336.338 103.464 336.669 103.464C336.946 103.464 337.245 103.405 337.565 103.288C337.895 103.171 338.221 103.005 338.541 102.792C338.861 102.579 339.143 102.328 339.389 102.04V103.064C339.293 103.224 339.149 103.427 338.957 103.672C338.775 103.907 338.541 104.141 338.253 104.376C337.965 104.6 337.629 104.792 337.245 104.952C336.861 105.112 336.423 105.192 335.933 105.192C335.453 105.192 335.021 105.107 334.637 104.936C334.253 104.765 333.949 104.515 333.725 104.184C333.501 103.853 333.389 103.443 333.389 102.952V102.136C333.389 101.507 333.602 101.016 334.029 100.664C334.455 100.312 335.042 100.136 335.789 100.136H340.061ZM346.578 96.888C346.866 96.888 347.18 96.904 347.522 96.936C347.863 96.9573 348.204 97.0053 348.546 97.08C348.898 97.144 349.218 97.24 349.506 97.368L349.25 98.856C348.823 98.8453 348.412 98.8347 348.018 98.824C347.634 98.8133 347.287 98.808 346.978 98.808C346.498 98.808 346.119 98.872 345.842 99C345.564 99.128 345.362 99.3573 345.234 99.688C345.116 100.008 345.058 100.456 345.058 101.032C345.058 101.619 345.116 102.077 345.234 102.408C345.362 102.739 345.564 102.968 345.842 103.096C346.119 103.224 346.498 103.288 346.978 103.288C347.148 103.288 347.367 103.283 347.634 103.272C347.9 103.261 348.188 103.251 348.498 103.24C348.807 103.219 349.111 103.187 349.41 103.144L349.634 104.648C349.207 104.84 348.722 104.979 348.178 105.064C347.634 105.149 347.095 105.192 346.562 105.192C345.58 105.192 344.796 105.059 344.21 104.792C343.634 104.515 343.218 104.072 342.962 103.464C342.706 102.856 342.578 102.045 342.578 101.032C342.578 100.019 342.706 99.208 342.962 98.6C343.228 97.992 343.655 97.5547 344.242 97.288C344.828 97.0213 345.607 96.888 346.578 96.888ZM345.474 105.848C346.018 105.784 346.46 105.763 346.802 105.784C347.143 105.816 347.394 105.912 347.554 106.072C347.714 106.243 347.788 106.515 347.778 106.888C347.756 107.421 347.602 107.859 347.314 108.2C347.026 108.552 346.642 108.797 346.161 108.936C345.682 109.075 345.148 109.107 344.562 109.032L344.834 108.04C345.228 108.051 345.559 107.981 345.826 107.832C346.103 107.693 346.252 107.448 346.274 107.096C346.295 106.936 346.236 106.84 346.098 106.808C345.97 106.776 345.687 106.755 345.25 106.744L345.474 105.848ZM354.704 96.888C355.696 96.888 356.491 97.0267 357.088 97.304C357.686 97.5707 358.112 98.008 358.368 98.616C358.635 99.224 358.768 100.04 358.768 101.064C358.768 102.067 358.635 102.872 358.368 103.48C358.112 104.088 357.686 104.525 357.088 104.792C356.491 105.059 355.696 105.192 354.704 105.192C353.723 105.192 352.928 105.059 352.32 104.792C351.723 104.525 351.291 104.088 351.024 103.48C350.758 102.872 350.624 102.067 350.624 101.064C350.624 100.04 350.758 99.224 351.024 98.616C351.291 98.008 351.723 97.5707 352.32 97.304C352.928 97.0267 353.723 96.888 354.704 96.888ZM354.704 98.616C354.299 98.616 353.979 98.6853 353.744 98.824C353.51 98.9627 353.344 99.208 353.248 99.56C353.152 99.912 353.104 100.413 353.104 101.064C353.104 101.704 353.152 102.2 353.248 102.552C353.344 102.904 353.51 103.149 353.744 103.288C353.979 103.416 354.299 103.48 354.704 103.48C355.11 103.48 355.43 103.416 355.664 103.288C355.899 103.149 356.064 102.904 356.16 102.552C356.256 102.2 356.304 101.704 356.304 101.064C356.304 100.413 356.256 99.912 356.16 99.56C356.064 99.208 355.899 98.9627 355.664 98.824C355.43 98.6853 355.11 98.616 354.704 98.616ZM353.216 93.576C353.483 93.5973 353.723 93.6453 353.936 93.72C354.15 93.784 354.352 93.8587 354.544 93.944C354.747 94.0293 354.944 94.1147 355.136 94.2C355.339 94.2747 355.547 94.328 355.76 94.36C356.038 94.4027 356.208 94.3653 356.272 94.248C356.347 94.1307 356.384 93.9333 356.384 93.656H357.408C357.526 94.4133 357.451 94.9893 357.184 95.384C356.918 95.768 356.555 95.944 356.096 95.912C355.734 95.88 355.403 95.8107 355.104 95.704C354.816 95.5867 354.544 95.4693 354.288 95.352C354.043 95.224 353.792 95.144 353.536 95.112C353.27 95.08 353.099 95.1227 353.024 95.24C352.96 95.3573 352.928 95.56 352.928 95.848H351.904C351.83 95.3147 351.846 94.8773 351.952 94.536C352.059 94.1947 352.23 93.944 352.464 93.784C352.699 93.624 352.95 93.5547 353.216 93.576ZM364.126 96.888C365.459 96.888 366.414 97.1173 366.99 97.576C367.577 98.024 367.87 98.696 367.87 99.592C367.881 100.317 367.699 100.861 367.326 101.224C366.953 101.576 366.307 101.752 365.39 101.752H360.974V100.424H364.734C365.097 100.424 365.326 100.349 365.422 100.2C365.529 100.04 365.582 99.8213 365.582 99.544C365.571 99.1707 365.459 98.9147 365.246 98.776C365.043 98.6267 364.697 98.552 364.206 98.552C363.769 98.552 363.427 98.6107 363.182 98.728C362.937 98.8453 362.766 99.0693 362.67 99.4C362.574 99.7307 362.526 100.211 362.526 100.84C362.526 101.501 362.585 102.013 362.702 102.376C362.819 102.728 363.017 102.973 363.294 103.112C363.582 103.251 363.977 103.32 364.478 103.32C364.841 103.32 365.289 103.309 365.822 103.288C366.366 103.256 366.91 103.208 367.454 103.144L367.678 104.6C367.369 104.749 367.017 104.867 366.622 104.952C366.227 105.037 365.822 105.096 365.406 105.128C364.99 105.171 364.59 105.192 364.206 105.192C363.203 105.192 362.393 105.048 361.774 104.76C361.166 104.461 360.723 104.008 360.446 103.4C360.179 102.792 360.046 102.013 360.046 101.064C360.046 100.029 360.185 99.208 360.462 98.6C360.739 97.992 361.177 97.5547 361.774 97.288C362.371 97.0213 363.155 96.888 364.126 96.888ZM372.421 96.888C372.805 96.888 373.221 96.904 373.669 96.936C374.117 96.9573 374.554 96.9893 374.981 97.032C375.408 97.0747 375.786 97.128 376.117 97.192L375.957 98.664C375.445 98.6533 374.928 98.648 374.405 98.648C373.893 98.6373 373.392 98.632 372.901 98.632C372.485 98.6213 372.165 98.6267 371.941 98.648C371.717 98.6693 371.557 98.7227 371.461 98.808C371.376 98.8827 371.333 99.0213 371.333 99.224C371.333 99.4587 371.413 99.6187 371.573 99.704C371.733 99.7787 372 99.864 372.373 99.96L374.437 100.456C375.098 100.627 375.589 100.883 375.909 101.224C376.229 101.555 376.389 102.056 376.389 102.728C376.389 103.389 376.266 103.896 376.021 104.248C375.776 104.6 375.386 104.845 374.853 104.984C374.32 105.112 373.632 105.176 372.789 105.176C372.458 105.176 371.968 105.16 371.317 105.128C370.666 105.096 369.952 105.016 369.173 104.888L369.333 103.416C369.525 103.427 369.77 103.437 370.069 103.448C370.368 103.448 370.693 103.448 371.045 103.448C371.397 103.448 371.749 103.448 372.101 103.448C372.645 103.448 373.061 103.437 373.349 103.416C373.637 103.384 373.834 103.32 373.941 103.224C374.048 103.128 374.101 102.984 374.101 102.792C374.101 102.557 374.01 102.397 373.829 102.312C373.648 102.227 373.36 102.136 372.965 102.04L370.965 101.544C370.464 101.405 370.074 101.229 369.797 101.016C369.52 100.803 369.322 100.541 369.205 100.232C369.098 99.9227 369.045 99.5547 369.045 99.128C369.045 98.584 369.152 98.152 369.365 97.832C369.589 97.5013 369.946 97.2613 370.437 97.112C370.938 96.9627 371.6 96.888 372.421 96.888ZM384.374 96.888C384.758 96.888 385.174 96.904 385.622 96.936C386.07 96.9573 386.508 96.9893 386.934 97.032C387.361 97.0747 387.74 97.128 388.07 97.192L387.91 98.664C387.398 98.6533 386.881 98.648 386.358 98.648C385.846 98.6373 385.345 98.632 384.854 98.632C384.438 98.6213 384.118 98.6267 383.894 98.648C383.67 98.6693 383.51 98.7227 383.414 98.808C383.329 98.8827 383.286 99.0213 383.286 99.224C383.286 99.4587 383.366 99.6187 383.526 99.704C383.686 99.7787 383.953 99.864 384.326 99.96L386.39 100.456C387.052 100.627 387.542 100.883 387.862 101.224C388.182 101.555 388.342 102.056 388.342 102.728C388.342 103.389 388.22 103.896 387.974 104.248C387.729 104.6 387.34 104.845 386.806 104.984C386.273 105.112 385.585 105.176 384.742 105.176C384.412 105.176 383.921 105.16 383.27 105.128C382.62 105.096 381.905 105.016 381.126 104.888L381.286 103.416C381.478 103.427 381.724 103.437 382.022 103.448C382.321 103.448 382.646 103.448 382.998 103.448C383.35 103.448 383.702 103.448 384.054 103.448C384.598 103.448 385.014 103.437 385.302 103.416C385.59 103.384 385.788 103.32 385.894 103.224C386.001 103.128 386.054 102.984 386.054 102.792C386.054 102.557 385.964 102.397 385.782 102.312C385.601 102.227 385.313 102.136 384.918 102.04L382.918 101.544C382.417 101.405 382.028 101.229 381.75 101.016C381.473 100.803 381.276 100.541 381.158 100.232C381.052 99.9227 380.998 99.5547 380.998 99.128C380.998 98.584 381.105 98.152 381.318 97.832C381.542 97.5013 381.9 97.2613 382.39 97.112C382.892 96.9627 383.553 96.888 384.374 96.888ZM393.626 96.888C394.618 96.888 395.413 97.0267 396.01 97.304C396.608 97.5707 397.034 98.008 397.29 98.616C397.557 99.224 397.69 100.04 397.69 101.064C397.69 102.067 397.557 102.872 397.29 103.48C397.034 104.088 396.608 104.525 396.01 104.792C395.413 105.059 394.618 105.192 393.626 105.192C392.645 105.192 391.85 105.059 391.242 104.792C390.645 104.525 390.213 104.088 389.946 103.48C389.68 102.872 389.546 102.067 389.546 101.064C389.546 100.04 389.68 99.224 389.946 98.616C390.213 98.008 390.645 97.5707 391.242 97.304C391.85 97.0267 392.645 96.888 393.626 96.888ZM393.626 98.616C393.221 98.616 392.901 98.6853 392.666 98.824C392.432 98.9627 392.266 99.208 392.17 99.56C392.074 99.912 392.026 100.413 392.026 101.064C392.026 101.704 392.074 102.2 392.17 102.552C392.266 102.904 392.432 103.149 392.666 103.288C392.901 103.416 393.221 103.48 393.626 103.48C394.032 103.48 394.352 103.416 394.586 103.288C394.821 103.149 394.986 102.904 395.082 102.552C395.178 102.2 395.226 101.704 395.226 101.064C395.226 100.413 395.178 99.912 395.082 99.56C394.986 99.208 394.821 98.9627 394.586 98.824C394.352 98.6853 394.032 98.616 393.626 98.616ZM402.984 96.888C403.272 96.888 403.586 96.904 403.928 96.936C404.269 96.9573 404.61 97.0053 404.952 97.08C405.304 97.144 405.624 97.24 405.912 97.368L405.656 98.856C405.229 98.8453 404.818 98.8347 404.424 98.824C404.04 98.8133 403.693 98.808 403.384 98.808C402.904 98.808 402.525 98.872 402.248 99C401.97 99.128 401.768 99.3573 401.64 99.688C401.522 100.008 401.464 100.456 401.464 101.032C401.464 101.619 401.522 102.077 401.64 102.408C401.768 102.739 401.97 102.968 402.248 103.096C402.525 103.224 402.904 103.288 403.384 103.288C403.554 103.288 403.773 103.283 404.04 103.272C404.306 103.261 404.594 103.251 404.904 103.24C405.213 103.219 405.517 103.187 405.816 103.144L406.04 104.648C405.613 104.84 405.128 104.979 404.584 105.064C404.04 105.149 403.501 105.192 402.968 105.192C401.986 105.192 401.202 105.059 400.616 104.792C400.04 104.515 399.624 104.072 399.368 103.464C399.112 102.856 398.984 102.045 398.984 101.032C398.984 100.019 399.112 99.208 399.368 98.6C399.634 97.992 400.061 97.5547 400.648 97.288C401.234 97.0213 402.013 96.888 402.984 96.888ZM409.86 97.096V105H407.508V97.096H409.86ZM409.204 93.608C409.674 93.608 409.908 93.848 409.908 94.328V95.176C409.908 95.656 409.674 95.896 409.204 95.896H408.18C407.711 95.896 407.476 95.656 407.476 95.176V94.328C407.476 93.848 407.711 93.608 408.18 93.608H409.204ZM415.61 96.888C416.944 96.888 417.898 97.1173 418.474 97.576C419.061 98.024 419.354 98.696 419.354 99.592C419.365 100.317 419.184 100.861 418.81 101.224C418.437 101.576 417.792 101.752 416.874 101.752H412.458V100.424H416.218C416.581 100.424 416.81 100.349 416.906 100.2C417.013 100.04 417.066 99.8213 417.066 99.544C417.056 99.1707 416.944 98.9147 416.73 98.776C416.528 98.6267 416.181 98.552 415.69 98.552C415.253 98.552 414.912 98.6107 414.666 98.728C414.421 98.8453 414.25 99.0693 414.154 99.4C414.058 99.7307 414.01 100.211 414.01 100.84C414.01 101.501 414.069 102.013 414.186 102.376C414.304 102.728 414.501 102.973 414.778 103.112C415.066 103.251 415.461 103.32 415.962 103.32C416.325 103.32 416.773 103.309 417.306 103.288C417.85 103.256 418.394 103.208 418.938 103.144L419.162 104.6C418.853 104.749 418.501 104.867 418.106 104.952C417.712 105.037 417.306 105.096 416.89 105.128C416.474 105.171 416.074 105.192 415.69 105.192C414.688 105.192 413.877 105.048 413.258 104.76C412.65 104.461 412.208 104.008 411.93 103.4C411.664 102.792 411.53 102.013 411.53 101.064C411.53 100.029 411.669 99.208 411.946 98.6C412.224 97.992 412.661 97.5547 413.258 97.288C413.856 97.0213 414.64 96.888 415.61 96.888ZM423.986 94.904V102.472C423.986 102.76 424.05 102.968 424.178 103.096C424.316 103.213 424.54 103.272 424.85 103.272H425.874L426.13 104.872C425.938 104.936 425.703 104.989 425.426 105.032C425.148 105.085 424.871 105.123 424.594 105.144C424.316 105.176 424.082 105.192 423.89 105.192C423.175 105.192 422.615 105 422.21 104.616C421.815 104.232 421.618 103.693 421.618 103L421.602 94.904H423.986ZM426.194 97.096V98.648H420.226V97.176L421.762 97.096H426.194ZM431.636 96.888C432.297 96.888 432.857 96.9787 433.316 97.16C433.775 97.3307 434.121 97.6293 434.356 98.056C434.601 98.472 434.724 99.048 434.724 99.784V105H432.836L432.5 103.288L432.34 103.048V99.768C432.34 99.3947 432.249 99.1227 432.068 98.952C431.897 98.7813 431.567 98.696 431.076 98.696C430.671 98.696 430.164 98.712 429.556 98.744C428.948 98.7653 428.324 98.7973 427.684 98.84L427.46 97.272C427.844 97.1973 428.287 97.1333 428.788 97.08C429.289 97.0267 429.791 96.984 430.292 96.952C430.793 96.9093 431.241 96.888 431.636 96.888ZM433.748 100.136L433.732 101.464L430.212 101.48C429.924 101.48 429.716 101.549 429.588 101.688C429.471 101.827 429.412 102.013 429.412 102.248V102.632C429.412 102.899 429.487 103.107 429.636 103.256C429.785 103.395 430.025 103.464 430.356 103.464C430.633 103.464 430.932 103.405 431.252 103.288C431.583 103.171 431.908 103.005 432.228 102.792C432.548 102.579 432.831 102.328 433.076 102.04V103.064C432.98 103.224 432.836 103.427 432.644 103.672C432.463 103.907 432.228 104.141 431.94 104.376C431.652 104.6 431.316 104.792 430.932 104.952C430.548 105.112 430.111 105.192 429.62 105.192C429.14 105.192 428.708 105.107 428.324 104.936C427.94 104.765 427.636 104.515 427.412 104.184C427.188 103.853 427.076 103.443 427.076 102.952V102.136C427.076 101.507 427.289 101.016 427.716 100.664C428.143 100.312 428.729 100.136 429.476 100.136H433.748ZM432.964 92.776L433.988 94.376L430.42 96.152L429.716 95.144L432.964 92.776ZM438.441 97.096L438.729 98.664L438.953 98.872V105H436.585V97.096H438.441ZM442.297 96.888L442.073 99.08H441.417C441.044 99.08 440.654 99.1333 440.249 99.24C439.844 99.3467 439.332 99.5067 438.713 99.72L438.553 98.392C439.108 97.9013 439.668 97.528 440.233 97.272C440.798 97.016 441.348 96.888 441.881 96.888H442.297ZM445.829 97.096V105H443.477V97.096H445.829ZM445.173 93.608C445.642 93.608 445.877 93.848 445.877 94.328V95.176C445.877 95.656 445.642 95.896 445.173 95.896H444.149C443.68 95.896 443.445 95.656 443.445 95.176V94.328C443.445 93.848 443.68 93.608 444.149 93.608H445.173ZM452.011 96.888C452.672 96.888 453.232 96.9787 453.691 97.16C454.15 97.3307 454.496 97.6293 454.731 98.056C454.976 98.472 455.099 99.048 455.099 99.784V105H453.211L452.875 103.288L452.715 103.048V99.768C452.715 99.3947 452.624 99.1227 452.443 98.952C452.272 98.7813 451.942 98.696 451.451 98.696C451.046 98.696 450.539 98.712 449.931 98.744C449.323 98.7653 448.699 98.7973 448.059 98.84L447.835 97.272C448.219 97.1973 448.662 97.1333 449.163 97.08C449.664 97.0267 450.166 96.984 450.667 96.952C451.168 96.9093 451.616 96.888 452.011 96.888ZM454.123 100.136L454.107 101.464L450.587 101.48C450.299 101.48 450.091 101.549 449.963 101.688C449.846 101.827 449.787 102.013 449.787 102.248V102.632C449.787 102.899 449.862 103.107 450.011 103.256C450.16 103.395 450.4 103.464 450.731 103.464C451.008 103.464 451.307 103.405 451.627 103.288C451.958 103.171 452.283 103.005 452.603 102.792C452.923 102.579 453.206 102.328 453.451 102.04V103.064C453.355 103.224 453.211 103.427 453.019 103.672C452.838 103.907 452.603 104.141 452.315 104.376C452.027 104.6 451.691 104.792 451.307 104.952C450.923 105.112 450.486 105.192 449.995 105.192C449.515 105.192 449.083 105.107 448.699 104.936C448.315 104.765 448.011 104.515 447.787 104.184C447.563 103.853 447.451 103.443 447.451 102.952V102.136C447.451 101.507 447.664 101.016 448.091 100.664C448.518 100.312 449.104 100.136 449.851 100.136H454.123ZM459.968 96.888C460.352 96.888 460.768 96.904 461.216 96.936C461.664 96.9573 462.101 96.9893 462.528 97.032C462.955 97.0747 463.333 97.128 463.664 97.192L463.504 98.664C462.992 98.6533 462.475 98.648 461.952 98.648C461.44 98.6373 460.939 98.632 460.448 98.632C460.032 98.6213 459.712 98.6267 459.488 98.648C459.264 98.6693 459.104 98.7227 459.008 98.808C458.923 98.8827 458.88 99.0213 458.88 99.224C458.88 99.4587 458.96 99.6187 459.12 99.704C459.28 99.7787 459.547 99.864 459.92 99.96L461.984 100.456C462.645 100.627 463.136 100.883 463.456 101.224C463.776 101.555 463.936 102.056 463.936 102.728C463.936 103.389 463.813 103.896 463.568 104.248C463.323 104.6 462.933 104.845 462.4 104.984C461.867 105.112 461.179 105.176 460.336 105.176C460.005 105.176 459.515 105.16 458.864 105.128C458.213 105.096 457.499 105.016 456.72 104.888L456.88 103.416C457.072 103.427 457.317 103.437 457.616 103.448C457.915 103.448 458.24 103.448 458.592 103.448C458.944 103.448 459.296 103.448 459.648 103.448C460.192 103.448 460.608 103.437 460.896 103.416C461.184 103.384 461.381 103.32 461.488 103.224C461.595 103.128 461.648 102.984 461.648 102.792C461.648 102.557 461.557 102.397 461.376 102.312C461.195 102.227 460.907 102.136 460.512 102.04L458.512 101.544C458.011 101.405 457.621 101.229 457.344 101.016C457.067 100.803 456.869 100.541 456.752 100.232C456.645 99.9227 456.592 99.5547 456.592 99.128C456.592 98.584 456.699 98.152 456.912 97.832C457.136 97.5013 457.493 97.2613 457.984 97.112C458.485 96.9627 459.147 96.888 459.968 96.888ZM466.756 102.568C467.065 102.568 467.279 102.632 467.396 102.76C467.524 102.877 467.588 103.091 467.588 103.4V104.168C467.588 104.477 467.524 104.696 467.396 104.824C467.279 104.941 467.065 105 466.756 105H466.148C465.839 105 465.62 104.941 465.492 104.824C465.375 104.696 465.316 104.477 465.316 104.168V103.4C465.316 103.091 465.375 102.877 465.492 102.76C465.62 102.632 465.839 102.568 466.148 102.568H466.756Z" fill="#023047" fill-opacity="0.72"/>
</g>
<defs>
<clipPath id="clip0_2286_8474">
<rect width="1920" height="1080" fill="white"/>
</clipPath>
</defs>
</svg>
