<svg width="1920" height="1080" viewBox="0 0 1920 1080" fill="none" xmlns="http://www.w3.org/2000/svg">
<g clip-path="url(#clip0_3079_8069)">
<rect width="1920" height="1080" fill="#F5F5F5"/>
<mask id="path-1-inside-1_3079_8069" fill="white">
<path d="M24 1038H1896V1065H24V1038Z"/>
</mask>
<path d="M24 1039H1896V1037H24V1039Z" fill="#99B0C3" mask="url(#path-1-inside-1_3079_8069)"/>
<path d="M40.768 146.72V155H39.712V146.72H40.768ZM43.444 146.72V147.656H37.048V146.72H43.444ZM45.793 149.012C46.465 149.012 47.001 149.112 47.401 149.312C47.809 149.512 48.101 149.84 48.277 150.296C48.453 150.744 48.541 151.34 48.541 152.084C48.541 152.828 48.453 153.428 48.277 153.884C48.101 154.332 47.809 154.656 47.401 154.856C47.001 155.056 46.465 155.156 45.793 155.156C45.129 155.156 44.593 155.056 44.185 154.856C43.785 154.656 43.493 154.332 43.309 153.884C43.133 153.428 43.045 152.828 43.045 152.084C43.045 151.34 43.133 150.744 43.309 150.296C43.493 149.84 43.785 149.512 44.185 149.312C44.593 149.112 45.129 149.012 45.793 149.012ZM45.793 149.876C45.369 149.876 45.033 149.944 44.785 150.08C44.545 150.208 44.373 150.432 44.269 150.752C44.165 151.072 44.113 151.516 44.113 152.084C44.113 152.652 44.165 153.096 44.269 153.416C44.373 153.736 44.545 153.964 44.785 154.1C45.033 154.228 45.369 154.292 45.793 154.292C46.217 154.292 46.553 154.228 46.801 154.1C47.049 153.964 47.225 153.736 47.329 153.416C47.433 153.096 47.485 152.652 47.485 152.084C47.485 151.516 47.433 151.072 47.329 150.752C47.225 150.432 47.049 150.208 46.801 150.08C46.553 149.944 46.217 149.876 45.793 149.876ZM52.6133 149.012C53.2853 149.012 53.8213 149.112 54.2213 149.312C54.6293 149.512 54.9213 149.84 55.0973 150.296C55.2733 150.744 55.3613 151.34 55.3613 152.084C55.3613 152.828 55.2733 153.428 55.0973 153.884C54.9213 154.332 54.6293 154.656 54.2213 154.856C53.8213 155.056 53.2853 155.156 52.6133 155.156C51.9493 155.156 51.4133 155.056 51.0053 154.856C50.6053 154.656 50.3133 154.332 50.1293 153.884C49.9533 153.428 49.8653 152.828 49.8653 152.084C49.8653 151.34 49.9533 150.744 50.1293 150.296C50.3133 149.84 50.6053 149.512 51.0053 149.312C51.4133 149.112 51.9493 149.012 52.6133 149.012ZM52.6133 149.876C52.1893 149.876 51.8533 149.944 51.6053 150.08C51.3653 150.208 51.1933 150.432 51.0893 150.752C50.9853 151.072 50.9333 151.516 50.9333 152.084C50.9333 152.652 50.9853 153.096 51.0893 153.416C51.1933 153.736 51.3653 153.964 51.6053 154.1C51.8533 154.228 52.1893 154.292 52.6133 154.292C53.0373 154.292 53.3733 154.228 53.6213 154.1C53.8693 153.964 54.0453 153.736 54.1493 153.416C54.2533 153.096 54.3053 152.652 54.3053 152.084C54.3053 151.516 54.2533 151.072 54.1493 150.752C54.0453 150.432 53.8693 150.208 53.6213 150.08C53.3733 149.944 53.0373 149.876 52.6133 149.876ZM57.9936 146.6L57.9816 153.392C57.9816 153.648 58.0496 153.844 58.1856 153.98C58.3296 154.108 58.5296 154.172 58.7856 154.172H59.3496L59.4696 154.952C59.3976 154.984 59.2936 155.012 59.1576 155.036C59.0296 155.06 58.8936 155.076 58.7496 155.084C58.6136 155.1 58.4976 155.108 58.4016 155.108C57.9696 155.108 57.6216 154.98 57.3576 154.724C57.1016 154.468 56.9736 154.1 56.9736 153.62V146.6H57.9936ZM61.9061 147.428V153.392C61.9061 153.672 61.9661 153.872 62.0861 153.992C62.2061 154.112 62.4101 154.172 62.6981 154.172H63.5861L63.7061 154.952C63.5781 154.984 63.4301 155.012 63.2621 155.036C63.0941 155.06 62.9301 155.076 62.7701 155.084C62.6101 155.1 62.4821 155.108 62.3861 155.108C61.8981 155.108 61.5261 154.972 61.2701 154.7C61.0141 154.428 60.8861 154.036 60.8861 153.524V147.428H61.9061ZM63.7661 149.156V149.96H59.8301V149.216L60.9821 149.156H63.7661ZM66.0684 149.156V155H65.0604V149.156H66.0684ZM65.8044 146.672C66.0124 146.672 66.1164 146.776 66.1164 146.984V147.668C66.1164 147.876 66.0124 147.98 65.8044 147.98H65.3244C65.1164 147.98 65.0124 147.876 65.0124 147.668V146.984C65.0124 146.776 65.1164 146.672 65.3244 146.672H65.8044ZM71.3369 149.012C72.0489 149.012 72.5609 149.276 72.8729 149.804C73.1849 150.324 73.3409 151.092 73.3409 152.108C73.3409 152.86 73.2609 153.46 73.1009 153.908C72.9409 154.348 72.6969 154.664 72.3689 154.856C72.0489 155.048 71.6369 155.144 71.1329 155.144C70.7489 155.144 70.3689 155.092 69.9929 154.988C69.6249 154.884 69.2649 154.724 68.9129 154.508L68.9729 153.896C69.3489 154 69.6809 154.088 69.9689 154.16C70.2569 154.224 70.5609 154.256 70.8809 154.256C71.2249 154.256 71.4969 154.196 71.6969 154.076C71.9049 153.956 72.0569 153.74 72.1529 153.428C72.2489 153.116 72.2969 152.676 72.2969 152.108C72.2969 151.556 72.2529 151.12 72.1649 150.8C72.0769 150.48 71.9369 150.252 71.7449 150.116C71.5609 149.972 71.3129 149.9 71.0009 149.9C70.6809 149.9 70.3649 149.976 70.0529 150.128C69.7409 150.28 69.3769 150.512 68.9609 150.824L68.8649 150.14C69.0809 149.908 69.3249 149.708 69.5969 149.54C69.8689 149.372 70.1529 149.244 70.4489 149.156C70.7529 149.06 71.0489 149.012 71.3369 149.012ZM68.8289 149.156L68.9369 150.368L69.0089 150.524V154.268L68.9609 154.412C68.9849 154.636 68.9969 154.852 68.9969 155.06C69.0049 155.268 69.0089 155.488 69.0089 155.72V157.412H67.9889V149.156H68.8289ZM75.5619 149.72C75.7059 149.72 75.8059 149.748 75.8619 149.804C75.9179 149.86 75.9459 149.96 75.9459 150.104V150.752C75.9459 150.896 75.9179 150.996 75.8619 151.052C75.8059 151.108 75.7059 151.136 75.5619 151.136H75.2259C75.0899 151.136 74.9899 151.108 74.9259 151.052C74.8699 150.996 74.8419 150.896 74.8419 150.752V150.104C74.8419 149.96 74.8699 149.86 74.9259 149.804C74.9899 149.748 75.0899 149.72 75.2259 149.72H75.5619ZM75.5619 153.584C75.7059 153.584 75.8059 153.612 75.8619 153.668C75.9179 153.724 75.9459 153.824 75.9459 153.968V154.616C75.9459 154.76 75.9179 154.86 75.8619 154.916C75.8059 154.972 75.7059 155 75.5619 155H75.2259C75.0899 155 74.9899 154.972 74.9259 154.916C74.8699 154.86 74.8419 154.76 74.8419 154.616V153.968C74.8419 153.824 74.8699 153.724 74.9259 153.668C74.9899 153.612 75.0899 153.584 75.2259 153.584H75.5619Z" fill="black"/>
<rect width="1920" height="89" fill="white"/>
<path d="M0 -9.65086e-05V89.0332H271.028L307 -9.65086e-05H0Z" fill="#003A69"/>
<path d="M175.01 54.2131H177.169V64.2302H182.027V66.0376H175.01V54.2131ZM169.877 61.055L168.949 58.143C168.72 57.4244 168.528 56.6162 168.353 55.9323H168.315C168.14 56.6162 167.965 57.4403 167.754 58.143L166.842 61.055H169.877ZM166.491 62.686L165.474 66.0376H163.246L167.034 54.2131H169.792L173.632 66.0376H171.316L170.246 62.686H166.491ZM158.71 56.0205H155.341V54.2131H164.271V56.0205H160.868V66.0376H158.71V56.0205ZM153.773 60.7919H149.315V64.2664H154.298V66.0376H147.158V54.2131H154.034V55.9843H149.315V59.038H153.773V60.7919ZM142.903 61.2127C142.832 59.6872 142.745 57.8452 142.762 56.2475H142.709C142.323 57.6861 141.833 59.2838 141.305 60.7745L139.587 65.8973H137.92L136.341 60.8454C135.884 59.3359 135.463 57.7223 135.148 56.2475H135.114C135.06 57.7917 134.989 59.6684 134.902 61.2849L134.639 66.0376H132.622L133.412 54.2131H136.253L137.797 58.9672C138.218 60.3538 138.587 61.7577 138.884 63.0721H138.936C139.253 61.7924 139.657 60.335 140.113 58.9498L141.744 54.2131H144.551L145.236 66.0376H143.131L142.903 61.2127ZM124.005 63.6866C124.708 64.09 125.76 64.4413 126.865 64.4413C128.25 64.4413 129.022 63.7921 129.022 62.8277C129.022 61.9327 128.425 61.4064 126.917 60.8627C124.969 60.16 123.724 59.1248 123.724 57.4244C123.724 55.4942 125.338 54.0208 127.9 54.0208C129.18 54.0208 130.128 54.3013 130.741 54.6165L130.215 56.353C129.794 56.126 128.97 55.7935 127.864 55.7935C126.496 55.7935 125.899 56.5294 125.899 57.2119C125.899 58.1257 126.583 58.5464 128.162 59.1609C130.215 59.933 131.214 60.9669 131.214 62.6701C131.214 64.5642 129.777 66.214 126.725 66.214C125.478 66.214 124.18 65.8626 123.532 65.4766L124.005 63.6866ZM118.574 61.055L117.644 58.143C117.417 57.4244 117.224 56.6162 117.049 55.9323H117.013C116.838 56.6162 116.663 57.4403 116.452 58.143L115.539 61.055H118.574ZM115.189 62.686L114.171 66.0376H111.942L115.732 54.2131H118.487L122.328 66.0376H120.013L118.943 62.686H115.189ZM104.776 59.599H106.057C107.513 59.599 108.425 58.8269 108.425 57.6514C108.425 56.353 107.513 55.7573 106.109 55.7573C105.425 55.7573 104.987 55.8094 104.776 55.8629V59.599ZM102.636 54.3707C103.443 54.2305 104.653 54.1249 105.898 54.1249C107.6 54.1249 108.758 54.4069 109.549 55.0734C110.198 55.6171 110.565 56.4412 110.565 57.4403C110.565 58.9672 109.53 60.0024 108.425 60.4073V60.4579C109.267 60.7745 109.776 61.5987 110.074 62.7381C110.442 64.2143 110.759 65.5807 111.003 66.0376H108.777C108.6 65.6877 108.32 64.7218 107.987 63.247C107.653 61.7057 107.092 61.2127 105.865 61.1779H104.776V66.0376H102.636V54.3707ZM94.9426 64.4775C95.2231 64.5107 95.5918 64.5295 96.0834 64.5295C97.4685 64.5295 98.6976 64.0018 98.6976 62.5472C98.6976 61.1779 97.5047 60.6169 96.0125 60.6169H94.9426V64.4775ZM94.9426 59.038H96.0472C97.538 59.038 98.3809 58.3368 98.3809 57.3362C98.3809 56.2316 97.538 55.7212 96.1701 55.7212C95.5383 55.7212 95.171 55.7573 94.9426 55.8094V59.038ZM92.8027 54.3707C93.4866 54.2305 94.7329 54.1249 95.9417 54.1249C97.538 54.1249 98.5212 54.3187 99.328 54.8797C100.065 55.3192 100.557 56.0899 100.557 57.0904C100.557 58.1777 99.8731 59.1783 98.5906 59.6525V59.6872C99.8369 60.0024 100.978 60.9856 100.978 62.6166C100.978 63.6692 100.521 64.4934 99.8369 65.0558C98.9954 65.7932 97.6088 66.1619 95.4515 66.1619C94.2572 66.1619 93.3463 66.0737 92.8027 66.0014V54.3707ZM79.1405 44.1368C79.1405 56.7449 68.9196 66.9658 56.3115 66.9658C43.7034 66.9658 33.4824 56.7449 33.4824 44.1368C33.4824 31.5301 43.7034 21.3077 56.3115 21.3077C68.9196 21.3077 79.1405 31.5301 79.1405 44.1368ZM216.695 48.0276V33.1799H212.549V51.4414H222.762V48.0276H216.695ZM150.45 48.0276V47.9741V33.1799H146.305V51.4414H156.516V48.0276H150.45ZM163.519 48.0291V47.9178L172.027 35.5641V33.1799H158.777V36.5936H166.664V36.702L158.687 48.1795V51.4414H172.164V48.0291H163.519ZM229.767 48.0291V47.9178L238.274 35.5641V33.1799H225.026V36.5936H232.91V36.702L224.933 48.1795V51.4414H238.41V48.0291H229.767ZM196.918 42.3656C196.918 45.9412 198.598 48.46 201.361 48.46C204.153 48.46 205.752 45.8082 205.752 42.2571C205.752 38.9793 204.182 36.1598 201.335 36.1598C198.544 36.1598 196.918 38.8159 196.918 42.3656ZM210.113 42.1212C210.113 48.1072 206.481 51.7392 201.144 51.7392C195.725 51.7392 192.556 47.6488 192.556 42.448C192.556 36.9739 196.05 32.8806 201.443 32.8806C207.051 32.8806 210.113 37.0809 210.113 42.1212ZM179.148 33.1799V40.1967H185.946V33.1799H190.067V51.4414H185.946V43.8013H179.148V51.4414H175.003V33.1799H179.148ZM142.064 43.7204H135.743V48.0537H143.25V51.4414H131.597V33.1799H142.869V36.5676H135.743V40.3587H142.064V43.7204ZM123.327 43.6654L122.189 39.7904C121.863 38.7075 121.538 37.3527 121.266 36.2683H121.214C120.942 37.3527 120.671 38.7335 120.373 39.7904L119.29 43.6654H123.327ZM118.694 46.7538L117.393 51.4414H113.112L118.694 33.1799H124.112L129.775 51.4414H125.334L123.922 46.7538H118.694ZM95.3474 51.4414L91.0127 33.1799H95.4299L96.8107 40.7129C97.2184 42.8803 97.5987 45.2371 97.8965 47.0791H97.9486C98.2479 45.1012 98.6816 42.9049 99.1429 40.658L100.687 33.1799H105.075L106.539 40.8734C106.946 43.0162 107.243 44.9667 107.516 46.9982H107.568C107.84 44.9667 108.246 42.8268 108.625 40.658L110.114 33.1799H114.315L109.6 51.4414H105.13L103.588 43.5844C103.233 41.7409 102.935 40.0348 102.719 37.9484H102.664C102.34 40.0073 102.042 41.7409 101.607 43.5844L99.8731 51.4414H95.3474Z" fill="white"/>
<path d="M73.6626 33.1797H70.9212L63.6224 50.9106L56.3221 33.1797H49.0161L61.3393 63.111L73.6626 33.1797ZM54.9413 54.2506L46.2675 33.1797H38.96L51.289 63.1211L54.9413 54.2506ZM59.5739 35.9182C59.5739 37.5825 59.7807 38.7637 61.4362 38.7637C63.0151 38.7637 63.1293 37.6056 63.1293 36.8089H62.0276C62.0276 37.6056 61.8656 37.9512 61.3668 37.9512C60.8174 37.9512 60.6815 37.409 60.6786 35.9182C60.6815 34.4275 60.8174 33.8868 61.3668 33.8868C61.8656 33.8868 62.0276 34.2323 62.0276 35.029H63.1293C63.1293 34.2323 63.0151 33.0742 61.4362 33.0742C59.7807 33.0742 59.5739 34.2555 59.5739 35.9182ZM64.1068 38.6553H65.8462C67.3108 38.6553 67.7258 37.7805 67.7258 35.8416C67.7258 34.2323 67.4496 33.1812 65.9156 33.1812H64.1068V38.6553ZM65.7016 37.8413H65.2114V33.9952H65.6784C66.5214 33.9952 66.6212 34.63 66.6212 35.872C66.6212 37.3583 66.4679 37.8413 65.7016 37.8413Z" fill="#003A69"/>
<path d="M31.296 93.832C32.256 93.832 33.0187 93.9173 33.584 94.088C34.16 94.248 34.576 94.536 34.832 94.952C35.088 95.368 35.216 95.9547 35.216 96.712C35.216 97.5013 35.0613 98.104 34.752 98.52C34.4533 98.9253 33.9573 99.16 33.264 99.224V99.32C34.1173 99.3947 34.7147 99.6827 35.056 100.184C35.3973 100.675 35.568 101.363 35.568 102.248C35.568 103.005 35.4347 103.592 35.168 104.008C34.912 104.424 34.5067 104.717 33.952 104.888C33.408 105.048 32.6933 105.128 31.808 105.128C31.0933 105.128 30.4693 105.123 29.936 105.112C29.4133 105.112 28.928 105.101 28.48 105.08C28.032 105.059 27.5733 105.032 27.104 105L27.344 103.304C27.6 103.315 28.0907 103.325 28.816 103.336C29.552 103.347 30.4053 103.352 31.376 103.352C31.824 103.352 32.176 103.309 32.432 103.224C32.688 103.139 32.864 102.984 32.96 102.76C33.0667 102.525 33.12 102.195 33.12 101.768C33.12 101.309 33.0667 100.963 32.96 100.728C32.8533 100.483 32.6667 100.312 32.4 100.216C32.144 100.12 31.7867 100.067 31.328 100.056H27.328V98.504H31.296C31.6907 98.4933 32 98.4507 32.224 98.376C32.4587 98.3013 32.624 98.1573 32.72 97.944C32.816 97.7307 32.864 97.432 32.864 97.048C32.864 96.6533 32.8107 96.3547 32.704 96.152C32.608 95.9387 32.4373 95.7947 32.192 95.72C31.9467 95.6453 31.6053 95.608 31.168 95.608C30.5707 95.608 30.0427 95.608 29.584 95.608C29.1253 95.608 28.7147 95.6133 28.352 95.624C27.9893 95.624 27.6533 95.6347 27.344 95.656L27.104 93.96C27.5307 93.9173 27.9413 93.8907 28.336 93.88C28.7413 93.8587 29.1787 93.848 29.648 93.848C30.1173 93.8373 30.6667 93.832 31.296 93.832ZM29.504 93.96V105H27.104V93.96H29.504ZM39.0504 97.096L39.3384 98.664L39.5624 98.872V105H37.1944V97.096H39.0504ZM42.9064 96.888L42.6824 99.08H42.0264C41.653 99.08 41.2637 99.1333 40.8584 99.24C40.453 99.3467 39.941 99.5067 39.3224 99.72L39.1624 98.392C39.717 97.9013 40.277 97.528 40.8424 97.272C41.4077 97.016 41.957 96.888 42.4904 96.888H42.9064ZM46.3425 97.096V102.296C46.3425 102.627 46.4118 102.861 46.5505 103C46.6998 103.139 46.9345 103.208 47.2545 103.208C47.5852 103.208 47.9105 103.149 48.2305 103.032C48.5612 102.904 48.9665 102.707 49.4465 102.44L49.6385 103.736C49.0625 104.237 48.4972 104.611 47.9425 104.856C47.3878 105.101 46.8172 105.224 46.2305 105.224C44.7265 105.224 43.9745 104.488 43.9745 103.016V97.096H46.3425ZM51.5745 97.096V105H49.7025L49.4305 103.448L49.2065 103.224V97.096H51.5745ZM56.5949 94.904V102.472C56.5949 102.76 56.6589 102.968 56.7869 103.096C56.9255 103.213 57.1495 103.272 57.4589 103.272H58.4829L58.7389 104.872C58.5469 104.936 58.3122 104.989 58.0349 105.032C57.7575 105.085 57.4802 105.123 57.2029 105.144C56.9255 105.176 56.6909 105.192 56.4989 105.192C55.7842 105.192 55.2242 105 54.8189 104.616C54.4242 104.232 54.2269 103.693 54.2269 103L54.2109 94.904H56.5949ZM58.8029 97.096V98.648H52.8349V97.176L54.3709 97.096H58.8029ZM63.1574 94.904V102.472C63.1574 102.76 63.2214 102.968 63.3494 103.096C63.488 103.213 63.712 103.272 64.0214 103.272H65.0454L65.3014 104.872C65.1094 104.936 64.8747 104.989 64.5974 105.032C64.32 105.085 64.0427 105.123 63.7654 105.144C63.488 105.176 63.2534 105.192 63.0614 105.192C62.3467 105.192 61.7867 105 61.3814 104.616C60.9867 104.232 60.7894 103.693 60.7894 103L60.7734 94.904H63.1574ZM65.3654 97.096V98.648H59.3974V97.176L60.9334 97.096H65.3654ZM70.3919 96.888C71.3839 96.888 72.1785 97.0267 72.7759 97.304C73.3732 97.5707 73.7999 98.008 74.0559 98.616C74.3225 99.224 74.4559 100.04 74.4559 101.064C74.4559 102.067 74.3225 102.872 74.0559 103.48C73.7999 104.088 73.3732 104.525 72.7759 104.792C72.1785 105.059 71.3839 105.192 70.3919 105.192C69.4105 105.192 68.6159 105.059 68.0079 104.792C67.4105 104.525 66.9785 104.088 66.7119 103.48C66.4452 102.872 66.3119 102.067 66.3119 101.064C66.3119 100.04 66.4452 99.224 66.7119 98.616C66.9785 98.008 67.4105 97.5707 68.0079 97.304C68.6159 97.0267 69.4105 96.888 70.3919 96.888ZM70.3919 98.616C69.9865 98.616 69.6665 98.6853 69.4319 98.824C69.1972 98.9627 69.0319 99.208 68.9359 99.56C68.8399 99.912 68.7919 100.413 68.7919 101.064C68.7919 101.704 68.8399 102.2 68.9359 102.552C69.0319 102.904 69.1972 103.149 69.4319 103.288C69.6665 103.416 69.9865 103.48 70.3919 103.48C70.7972 103.48 71.1172 103.416 71.3519 103.288C71.5865 103.149 71.7519 102.904 71.8479 102.552C71.9439 102.2 71.9919 101.704 71.9919 101.064C71.9919 100.413 71.9439 99.912 71.8479 99.56C71.7519 99.208 71.5865 98.9627 71.3519 98.824C71.1172 98.6853 70.7972 98.616 70.3919 98.616ZM79.5894 96.888C80.5067 96.888 81.232 96.9733 81.7654 97.144C82.3094 97.3147 82.6987 97.5813 82.9334 97.944C83.1787 98.3067 83.3014 98.792 83.3014 99.4C83.3014 99.9867 83.184 100.467 82.9494 100.84C82.7147 101.203 82.32 101.469 81.7654 101.64C81.2214 101.811 80.4907 101.896 79.5734 101.896C78.656 101.896 77.92 101.811 77.3654 101.64C76.8214 101.469 76.4267 101.203 76.1814 100.84C75.9467 100.477 75.8294 99.9973 75.8294 99.4C75.8294 98.8027 75.9467 98.3227 76.1814 97.96C76.4267 97.5867 76.8267 97.3147 77.3814 97.144C77.936 96.9733 78.672 96.888 79.5894 96.888ZM79.5734 98.344C78.9867 98.344 78.5814 98.424 78.3574 98.584C78.1334 98.7333 78.0214 99.0053 78.0214 99.4C78.0214 99.7947 78.1334 100.072 78.3574 100.232C78.5814 100.392 78.9867 100.472 79.5734 100.472C80.16 100.472 80.56 100.392 80.7734 100.232C80.9867 100.072 81.0934 99.7947 81.0934 99.4C81.0934 99.0053 80.9867 98.7333 80.7734 98.584C80.56 98.424 80.16 98.344 79.5734 98.344ZM84.2134 97.096L84.0854 98.104L81.9734 98.376L81.3974 97.096H84.2134ZM77.1894 101.416L78.3734 101.624C78.224 101.709 78.1174 101.843 78.0534 102.024C78 102.205 78.016 102.376 78.1014 102.536C78.1867 102.696 78.3734 102.792 78.6614 102.824L81.5734 103.16C82.4054 103.245 82.992 103.48 83.3334 103.864C83.6747 104.237 83.8454 104.787 83.8454 105.512C83.8454 106.195 83.7067 106.717 83.4294 107.08C83.152 107.453 82.7094 107.709 82.1014 107.848C81.4934 107.987 80.6827 108.056 79.6694 108.056C78.8374 108.056 78.1494 108.013 77.6054 107.928C77.072 107.853 76.6454 107.725 76.3254 107.544C76.016 107.363 75.7974 107.123 75.6694 106.824C75.552 106.536 75.4934 106.173 75.4934 105.736C75.4934 105.405 75.552 105.123 75.6694 104.888C75.7867 104.643 75.984 104.424 76.2614 104.232C76.5494 104.04 76.9494 103.864 77.4614 103.704L78.6294 103.288L79.4774 103.624L78.8374 104.04C78.5707 104.232 78.352 104.397 78.1814 104.536C78.0214 104.664 77.904 104.792 77.8294 104.92C77.7654 105.048 77.7334 105.219 77.7334 105.432C77.7334 105.677 77.7867 105.864 77.8934 105.992C78 106.131 78.192 106.221 78.4694 106.264C78.7574 106.317 79.1467 106.344 79.6374 106.344C80.1494 106.344 80.5494 106.317 80.8374 106.264C81.1254 106.221 81.3227 106.136 81.4294 106.008C81.5467 105.88 81.6054 105.699 81.6054 105.464C81.6054 105.261 81.5627 105.112 81.4774 105.016C81.4027 104.92 81.2694 104.851 81.0774 104.808C80.896 104.755 80.64 104.707 80.3094 104.664L77.8294 104.392C77.4134 104.349 77.088 104.237 76.8534 104.056C76.6187 103.875 76.4534 103.656 76.3574 103.4C76.272 103.133 76.2507 102.867 76.2934 102.6C76.336 102.333 76.432 102.093 76.5814 101.88C76.7414 101.667 76.944 101.512 77.1894 101.416ZM89.0165 96.888C90.3498 96.888 91.3045 97.1173 91.8805 97.576C92.4672 98.024 92.7605 98.696 92.7605 99.592C92.7712 100.317 92.5898 100.861 92.2165 101.224C91.8432 101.576 91.1978 101.752 90.2805 101.752H85.8645V100.424H89.6245C89.9872 100.424 90.2165 100.349 90.3125 100.2C90.4192 100.04 90.4725 99.8213 90.4725 99.544C90.4618 99.1707 90.3498 98.9147 90.1365 98.776C89.9338 98.6267 89.5872 98.552 89.0965 98.552C88.6592 98.552 88.3178 98.6107 88.0725 98.728C87.8272 98.8453 87.6565 99.0693 87.5605 99.4C87.4645 99.7307 87.4165 100.211 87.4165 100.84C87.4165 101.501 87.4752 102.013 87.5925 102.376C87.7098 102.728 87.9072 102.973 88.1845 103.112C88.4725 103.251 88.8672 103.32 89.3685 103.32C89.7312 103.32 90.1792 103.309 90.7125 103.288C91.2565 103.256 91.8005 103.208 92.3445 103.144L92.5685 104.6C92.2592 104.749 91.9072 104.867 91.5125 104.952C91.1178 105.037 90.7125 105.096 90.2965 105.128C89.8805 105.171 89.4805 105.192 89.0965 105.192C88.0938 105.192 87.2832 105.048 86.6645 104.76C86.0565 104.461 85.6138 104.008 85.3365 103.4C85.0698 102.792 84.9365 102.013 84.9365 101.064C84.9365 100.029 85.0752 99.208 85.3525 98.6C85.6298 97.992 86.0672 97.5547 86.6645 97.288C87.2618 97.0213 88.0458 96.888 89.0165 96.888ZM106.657 97.096L104.705 104.376C104.662 104.568 104.566 104.723 104.417 104.84C104.267 104.947 104.091 105 103.889 105H102.097C101.883 105 101.697 104.936 101.536 104.808C101.377 104.669 101.281 104.493 101.249 104.28L100.385 99.832C100.353 99.608 100.326 99.3893 100.305 99.176C100.283 98.952 100.251 98.728 100.209 98.504H100.017C99.9845 98.728 99.9525 98.952 99.9205 99.176C99.8885 99.3893 99.8565 99.608 99.8245 99.832L98.9605 104.28C98.9285 104.493 98.8325 104.669 98.6725 104.808C98.5125 104.936 98.3258 105 98.1125 105H96.3365C96.1338 105 95.9578 104.947 95.8085 104.84C95.6592 104.723 95.5632 104.568 95.5205 104.376L93.5685 97.096H95.9525L97.0405 102.216C97.0832 102.429 97.1205 102.648 97.1525 102.872C97.1845 103.085 97.2112 103.299 97.2325 103.512H97.4405C97.4725 103.299 97.5045 103.085 97.5365 102.872C97.5792 102.648 97.6165 102.429 97.6485 102.216L98.5125 97.816C98.5445 97.6027 98.6352 97.432 98.7845 97.304C98.9338 97.1653 99.1205 97.096 99.3445 97.096H100.881C101.094 97.096 101.275 97.1653 101.425 97.304C101.585 97.432 101.681 97.608 101.713 97.832L102.561 102.216C102.593 102.429 102.63 102.643 102.673 102.856C102.715 103.069 102.753 103.288 102.785 103.512H102.977C103.019 103.288 103.051 103.075 103.073 102.872C103.105 102.659 103.142 102.44 103.185 102.216L104.273 97.096H106.657ZM110.282 97.096V105H107.93V97.096H110.282ZM109.626 93.608C110.096 93.608 110.33 93.848 110.33 94.328V95.176C110.33 95.656 110.096 95.896 109.626 95.896H108.602C108.133 95.896 107.898 95.656 107.898 95.176V94.328C107.898 93.848 108.133 93.608 108.602 93.608H109.626ZM117.792 96.888C119.285 96.888 120.032 97.6187 120.032 99.08V105H117.664V99.816C117.664 99.464 117.6 99.224 117.472 99.096C117.344 98.9573 117.125 98.888 116.816 98.888C116.475 98.888 116.123 98.9573 115.76 99.096C115.397 99.224 114.949 99.4267 114.416 99.704L114.304 98.376C114.869 97.896 115.445 97.528 116.032 97.272C116.629 97.016 117.216 96.888 117.792 96.888ZM114.192 97.096L114.464 98.664L114.656 98.872V105H112.288V97.096H114.192ZM127.402 96.888C128.895 96.888 129.642 97.6187 129.642 99.08V105H127.274V99.816C127.274 99.464 127.21 99.224 127.082 99.096C126.954 98.9573 126.735 98.888 126.426 98.888C126.084 98.888 125.732 98.9573 125.37 99.096C125.007 99.224 124.559 99.4267 124.026 99.704L123.914 98.376C124.479 97.896 125.055 97.528 125.641 97.272C126.239 97.016 126.826 96.888 127.402 96.888ZM123.802 97.096L124.074 98.664L124.266 98.872V105H121.898V97.096H123.802ZM137.28 97.096V102.296C137.28 102.627 137.349 102.861 137.488 103C137.637 103.139 137.872 103.208 138.192 103.208C138.523 103.208 138.848 103.149 139.168 103.032C139.499 102.904 139.904 102.707 140.384 102.44L140.576 103.736C140 104.237 139.435 104.611 138.88 104.856C138.325 105.101 137.755 105.224 137.168 105.224C135.664 105.224 134.912 104.488 134.912 103.016V97.096H137.28ZM142.512 97.096V105H140.64L140.368 103.448L140.144 103.224V97.096H142.512ZM149.948 96.888C151.442 96.888 152.188 97.6187 152.188 99.08V105H149.82V99.816C149.82 99.464 149.756 99.224 149.628 99.096C149.5 98.9573 149.282 98.888 148.972 98.888C148.631 98.888 148.279 98.9573 147.916 99.096C147.554 99.224 147.106 99.4267 146.572 99.704L146.46 98.376C147.026 97.896 147.602 97.528 148.188 97.272C148.786 97.016 149.372 96.888 149.948 96.888ZM146.348 97.096L146.62 98.664L146.812 98.872V105H144.444V97.096H146.348ZM157.142 94.904V102.472C157.142 102.76 157.206 102.968 157.334 103.096C157.472 103.213 157.696 103.272 158.006 103.272H159.03L159.286 104.872C159.094 104.936 158.859 104.989 158.582 105.032C158.304 105.085 158.027 105.123 157.75 105.144C157.472 105.176 157.238 105.192 157.046 105.192C156.331 105.192 155.771 105 155.366 104.616C154.971 104.232 154.774 103.693 154.774 103L154.758 94.904H157.142ZM159.35 97.096V98.648H153.382V97.176L154.918 97.096H159.35ZM164.36 96.888C165.694 96.888 166.648 97.1173 167.224 97.576C167.811 98.024 168.104 98.696 168.104 99.592C168.115 100.317 167.934 100.861 167.56 101.224C167.187 101.576 166.542 101.752 165.624 101.752H161.208V100.424H164.968C165.331 100.424 165.56 100.349 165.656 100.2C165.763 100.04 165.816 99.8213 165.816 99.544C165.806 99.1707 165.694 98.9147 165.48 98.776C165.278 98.6267 164.931 98.552 164.44 98.552C164.003 98.552 163.662 98.6107 163.416 98.728C163.171 98.8453 163 99.0693 162.904 99.4C162.808 99.7307 162.76 100.211 162.76 100.84C162.76 101.501 162.819 102.013 162.936 102.376C163.054 102.728 163.251 102.973 163.528 103.112C163.816 103.251 164.211 103.32 164.712 103.32C165.075 103.32 165.523 103.309 166.056 103.288C166.6 103.256 167.144 103.208 167.688 103.144L167.912 104.6C167.603 104.749 167.251 104.867 166.856 104.952C166.462 105.037 166.056 105.096 165.64 105.128C165.224 105.171 164.824 105.192 164.44 105.192C163.438 105.192 162.627 105.048 162.008 104.76C161.4 104.461 160.958 104.008 160.68 103.4C160.414 102.792 160.28 102.013 160.28 101.064C160.28 100.029 160.419 99.208 160.696 98.6C160.974 97.992 161.411 97.5547 162.008 97.288C162.606 97.0213 163.39 96.888 164.36 96.888ZM171.504 97.096L171.792 98.664L172.016 98.872V105H169.648V97.096H171.504ZM175.36 96.888L175.136 99.08H174.48C174.106 99.08 173.717 99.1333 173.312 99.24C172.906 99.3467 172.394 99.5067 171.776 99.72L171.616 98.392C172.17 97.9013 172.73 97.528 173.296 97.272C173.861 97.016 174.41 96.888 174.944 96.888H175.36ZM183.952 93.832C184.912 93.832 185.675 93.9173 186.24 94.088C186.816 94.248 187.232 94.536 187.488 94.952C187.744 95.368 187.872 95.9547 187.872 96.712C187.872 97.5013 187.718 98.104 187.408 98.52C187.11 98.9253 186.614 99.16 185.92 99.224V99.32C186.774 99.3947 187.371 99.6827 187.712 100.184C188.054 100.675 188.224 101.363 188.224 102.248C188.224 103.005 188.091 103.592 187.824 104.008C187.568 104.424 187.163 104.717 186.608 104.888C186.064 105.048 185.35 105.128 184.464 105.128C183.75 105.128 183.126 105.123 182.592 105.112C182.07 105.112 181.584 105.101 181.136 105.08C180.688 105.059 180.23 105.032 179.76 105L180 103.304C180.256 103.315 180.747 103.325 181.472 103.336C182.208 103.347 183.062 103.352 184.032 103.352C184.48 103.352 184.832 103.309 185.088 103.224C185.344 103.139 185.52 102.984 185.616 102.76C185.723 102.525 185.776 102.195 185.776 101.768C185.776 101.309 185.723 100.963 185.616 100.728C185.51 100.483 185.323 100.312 185.056 100.216C184.8 100.12 184.443 100.067 183.984 100.056H179.984V98.504H183.952C184.347 98.4933 184.656 98.4507 184.88 98.376C185.115 98.3013 185.28 98.1573 185.376 97.944C185.472 97.7307 185.52 97.432 185.52 97.048C185.52 96.6533 185.467 96.3547 185.36 96.152C185.264 95.9387 185.094 95.7947 184.848 95.72C184.603 95.6453 184.262 95.608 183.824 95.608C183.227 95.608 182.699 95.608 182.24 95.608C181.782 95.608 181.371 95.6133 181.008 95.624C180.646 95.624 180.31 95.6347 180 95.656L179.76 93.96C180.187 93.9173 180.598 93.8907 180.992 93.88C181.398 93.8587 181.835 93.848 182.304 93.848C182.774 93.8373 183.323 93.832 183.952 93.832ZM182.16 93.96V105H179.76V93.96H182.16ZM193.595 96.888C194.928 96.888 195.883 97.1173 196.459 97.576C197.045 98.024 197.339 98.696 197.339 99.592C197.349 100.317 197.168 100.861 196.795 101.224C196.421 101.576 195.776 101.752 194.859 101.752H190.443V100.424H194.203C194.565 100.424 194.795 100.349 194.891 100.2C194.997 100.04 195.051 99.8213 195.051 99.544C195.04 99.1707 194.928 98.9147 194.715 98.776C194.512 98.6267 194.165 98.552 193.675 98.552C193.237 98.552 192.896 98.6107 192.651 98.728C192.405 98.8453 192.235 99.0693 192.139 99.4C192.043 99.7307 191.995 100.211 191.995 100.84C191.995 101.501 192.053 102.013 192.171 102.376C192.288 102.728 192.485 102.973 192.763 103.112C193.051 103.251 193.445 103.32 193.947 103.32C194.309 103.32 194.757 103.309 195.291 103.288C195.835 103.256 196.379 103.208 196.923 103.144L197.147 104.6C196.837 104.749 196.485 104.867 196.091 104.952C195.696 105.037 195.291 105.096 194.875 105.128C194.459 105.171 194.059 105.192 193.675 105.192C192.672 105.192 191.861 105.048 191.243 104.76C190.635 104.461 190.192 104.008 189.915 103.4C189.648 102.792 189.515 102.013 189.515 101.064C189.515 100.029 189.653 99.208 189.931 98.6C190.208 97.992 190.645 97.5547 191.243 97.288C191.84 97.0213 192.624 96.888 193.595 96.888ZM200.738 97.096L201.026 98.664L201.25 98.872V105H198.882V97.096H200.738ZM204.594 96.888L204.37 99.08H203.714C203.341 99.08 202.951 99.1333 202.546 99.24C202.141 99.3467 201.629 99.5067 201.01 99.72L200.85 98.392C201.405 97.9013 201.965 97.528 202.53 97.272C203.095 97.016 203.645 96.888 204.178 96.888H204.594ZM208.03 97.096V102.296C208.03 102.627 208.099 102.861 208.238 103C208.387 103.139 208.622 103.208 208.942 103.208C209.273 103.208 209.598 103.149 209.918 103.032C210.249 102.904 210.654 102.707 211.134 102.44L211.326 103.736C210.75 104.237 210.185 104.611 209.63 104.856C209.075 105.101 208.505 105.224 207.918 105.224C206.414 105.224 205.662 104.488 205.662 103.016V97.096H208.03ZM213.262 97.096V105H211.39L211.118 103.448L210.894 103.224V97.096H213.262ZM211.326 93.64C211.667 93.64 211.838 93.8107 211.838 94.152V95.096C211.838 95.4373 211.667 95.608 211.326 95.608H210.542C210.211 95.608 210.046 95.4373 210.046 95.096V94.152C210.046 93.8107 210.211 93.64 210.542 93.64H211.326ZM208.398 93.64C208.729 93.64 208.894 93.8107 208.894 94.152V95.096C208.894 95.4373 208.729 95.608 208.398 95.608H207.614C207.283 95.608 207.118 95.4373 207.118 95.096V94.152C207.118 93.8107 207.283 93.64 207.614 93.64H208.398ZM218.874 96.888C219.162 96.888 219.477 96.904 219.818 96.936C220.16 96.9573 220.501 97.0053 220.842 97.08C221.194 97.144 221.514 97.24 221.802 97.368L221.546 98.856C221.12 98.8453 220.709 98.8347 220.314 98.824C219.93 98.8133 219.584 98.808 219.274 98.808C218.794 98.808 218.416 98.872 218.138 99C217.861 99.128 217.658 99.3573 217.53 99.688C217.413 100.008 217.354 100.456 217.354 101.032C217.354 101.619 217.413 102.077 217.53 102.408C217.658 102.739 217.861 102.968 218.138 103.096C218.416 103.224 218.794 103.288 219.274 103.288C219.445 103.288 219.664 103.283 219.93 103.272C220.197 103.261 220.485 103.251 220.794 103.24C221.104 103.219 221.408 103.187 221.706 103.144L221.93 104.648C221.504 104.84 221.018 104.979 220.474 105.064C219.93 105.149 219.392 105.192 218.858 105.192C217.877 105.192 217.093 105.059 216.506 104.792C215.93 104.515 215.514 104.072 215.258 103.464C215.002 102.856 214.874 102.045 214.874 101.032C214.874 100.019 215.002 99.208 215.258 98.6C215.525 97.992 215.952 97.5547 216.538 97.288C217.125 97.0213 217.904 96.888 218.874 96.888ZM230.983 97.096L228.919 99.848C228.823 99.9973 228.7 100.141 228.551 100.28C228.402 100.419 228.279 100.52 228.183 100.584V100.648C228.279 100.701 228.402 100.813 228.551 100.984C228.7 101.155 228.823 101.325 228.919 101.496L231.255 105H228.615L225.911 100.552L228.343 97.096H230.983ZM225.703 93.8L225.719 98.424C225.719 98.7973 225.698 99.16 225.655 99.512C225.612 99.864 225.548 100.211 225.463 100.552C225.538 100.883 225.596 101.224 225.639 101.576C225.682 101.917 225.703 102.237 225.703 102.536V105H223.335V93.8H225.703ZM226.807 99.88V101.32H224.967V99.88H226.807ZM235.281 96.888C235.665 96.888 236.081 96.904 236.529 96.936C236.977 96.9573 237.414 96.9893 237.841 97.032C238.267 97.0747 238.646 97.128 238.977 97.192L238.817 98.664C238.305 98.6533 237.787 98.648 237.265 98.648C236.753 98.6373 236.251 98.632 235.761 98.632C235.345 98.6213 235.025 98.6267 234.801 98.648C234.577 98.6693 234.417 98.7227 234.321 98.808C234.235 98.8827 234.193 99.0213 234.193 99.224C234.193 99.4587 234.273 99.6187 234.433 99.704C234.593 99.7787 234.859 99.864 235.233 99.96L237.297 100.456C237.958 100.627 238.449 100.883 238.769 101.224C239.089 101.555 239.249 102.056 239.249 102.728C239.249 103.389 239.126 103.896 238.881 104.248C238.635 104.6 238.246 104.845 237.713 104.984C237.179 105.112 236.491 105.176 235.649 105.176C235.318 105.176 234.827 105.16 234.177 105.128C233.526 105.096 232.811 105.016 232.033 104.888L232.193 103.416C232.385 103.427 232.63 103.437 232.929 103.448C233.227 103.448 233.553 103.448 233.905 103.448C234.257 103.448 234.609 103.448 234.961 103.448C235.505 103.448 235.921 103.437 236.209 103.416C236.497 103.384 236.694 103.32 236.801 103.224C236.907 103.128 236.961 102.984 236.961 102.792C236.961 102.557 236.87 102.397 236.689 102.312C236.507 102.227 236.219 102.136 235.825 102.04L233.825 101.544C233.323 101.405 232.934 101.229 232.657 101.016C232.379 100.803 232.182 100.541 232.065 100.232C231.958 99.9227 231.905 99.5547 231.905 99.128C231.905 98.584 232.011 98.152 232.225 97.832C232.449 97.5013 232.806 97.2613 233.297 97.112C233.798 96.9627 234.459 96.888 235.281 96.888ZM243.189 97.096V105H240.837V97.096H243.189ZM242.533 93.608C243.002 93.608 243.237 93.848 243.237 94.328V95.176C243.237 95.656 243.002 95.896 242.533 95.896H241.509C241.039 95.896 240.805 95.656 240.805 95.176V94.328C240.805 93.848 241.039 93.608 241.509 93.608H242.533ZM248.874 96.888C249.162 96.888 249.477 96.904 249.818 96.936C250.16 96.9573 250.501 97.0053 250.842 97.08C251.194 97.144 251.514 97.24 251.802 97.368L251.546 98.856C251.12 98.8453 250.709 98.8347 250.314 98.824C249.93 98.8133 249.584 98.808 249.274 98.808C248.794 98.808 248.416 98.872 248.138 99C247.861 99.128 247.658 99.3573 247.53 99.688C247.413 100.008 247.354 100.456 247.354 101.032C247.354 101.619 247.413 102.077 247.53 102.408C247.658 102.739 247.861 102.968 248.138 103.096C248.416 103.224 248.794 103.288 249.274 103.288C249.445 103.288 249.664 103.283 249.93 103.272C250.197 103.261 250.485 103.251 250.794 103.24C251.104 103.219 251.408 103.187 251.706 103.144L251.93 104.648C251.504 104.84 251.018 104.979 250.474 105.064C249.93 105.149 249.392 105.192 248.858 105.192C247.877 105.192 247.093 105.059 246.506 104.792C245.93 104.515 245.514 104.072 245.258 103.464C245.002 102.856 244.874 102.045 244.874 101.032C244.874 100.019 245.002 99.208 245.258 98.6C245.525 97.992 245.952 97.5547 246.538 97.288C247.125 97.0213 247.904 96.888 248.874 96.888ZM258.839 96.888C260.332 96.888 261.079 97.6187 261.079 99.08V105H258.695V99.816C258.695 99.464 258.631 99.224 258.503 99.096C258.386 98.9573 258.172 98.888 257.863 98.888C257.522 98.888 257.17 98.952 256.807 99.08C256.444 99.208 255.996 99.416 255.463 99.704L255.255 98.472C255.842 97.96 256.439 97.5707 257.047 97.304C257.655 97.0267 258.252 96.888 258.839 96.888ZM255.703 93.8L255.719 96.536C255.719 96.952 255.692 97.3467 255.639 97.72C255.596 98.0933 255.543 98.408 255.479 98.664L255.703 98.872V105H253.335V93.8H255.703ZM266.032 94.904V102.472C266.032 102.76 266.096 102.968 266.224 103.096C266.363 103.213 266.587 103.272 266.896 103.272H267.92L268.176 104.872C267.984 104.936 267.75 104.989 267.472 105.032C267.195 105.085 266.918 105.123 266.64 105.144C266.363 105.176 266.128 105.192 265.936 105.192C265.222 105.192 264.662 105 264.256 104.616C263.862 104.232 263.664 103.693 263.664 103L263.648 94.904H266.032ZM268.24 97.096V98.648H262.272V97.176L263.808 97.096H268.24ZM271.923 97.096V105H269.571V97.096H271.923ZM271.267 93.608C271.736 93.608 271.971 93.848 271.971 94.328V95.176C271.971 95.656 271.736 95.896 271.267 95.896H270.243C269.774 95.896 269.539 95.656 269.539 95.176V94.328C269.539 93.848 269.774 93.608 270.243 93.608H271.267ZM277.449 96.888C278.366 96.888 279.091 96.9733 279.625 97.144C280.169 97.3147 280.558 97.5813 280.793 97.944C281.038 98.3067 281.161 98.792 281.161 99.4C281.161 99.9867 281.043 100.467 280.809 100.84C280.574 101.203 280.179 101.469 279.625 101.64C279.081 101.811 278.35 101.896 277.433 101.896C276.515 101.896 275.779 101.811 275.225 101.64C274.681 101.469 274.286 101.203 274.041 100.84C273.806 100.477 273.689 99.9973 273.689 99.4C273.689 98.8027 273.806 98.3227 274.041 97.96C274.286 97.5867 274.686 97.3147 275.241 97.144C275.795 96.9733 276.531 96.888 277.449 96.888ZM277.433 98.344C276.846 98.344 276.441 98.424 276.217 98.584C275.993 98.7333 275.881 99.0053 275.881 99.4C275.881 99.7947 275.993 100.072 276.217 100.232C276.441 100.392 276.846 100.472 277.433 100.472C278.019 100.472 278.419 100.392 278.633 100.232C278.846 100.072 278.953 99.7947 278.953 99.4C278.953 99.0053 278.846 98.7333 278.633 98.584C278.419 98.424 278.019 98.344 277.433 98.344ZM282.073 97.096L281.945 98.104L279.833 98.376L279.257 97.096H282.073ZM275.049 101.416L276.233 101.624C276.083 101.709 275.977 101.843 275.913 102.024C275.859 102.205 275.875 102.376 275.961 102.536C276.046 102.696 276.233 102.792 276.521 102.824L279.433 103.16C280.265 103.245 280.851 103.48 281.193 103.864C281.534 104.237 281.705 104.787 281.705 105.512C281.705 106.195 281.566 106.717 281.289 107.08C281.011 107.453 280.569 107.709 279.961 107.848C279.353 107.987 278.542 108.056 277.529 108.056C276.697 108.056 276.009 108.013 275.465 107.928C274.931 107.853 274.505 107.725 274.185 107.544C273.875 107.363 273.657 107.123 273.529 106.824C273.411 106.536 273.353 106.173 273.353 105.736C273.353 105.405 273.411 105.123 273.529 104.888C273.646 104.643 273.843 104.424 274.121 104.232C274.409 104.04 274.809 103.864 275.321 103.704L276.489 103.288L277.337 103.624L276.697 104.04C276.43 104.232 276.211 104.397 276.041 104.536C275.881 104.664 275.763 104.792 275.689 104.92C275.625 105.048 275.593 105.219 275.593 105.432C275.593 105.677 275.646 105.864 275.753 105.992C275.859 106.131 276.051 106.221 276.329 106.264C276.617 106.317 277.006 106.344 277.497 106.344C278.009 106.344 278.409 106.317 278.697 106.264C278.985 106.221 279.182 106.136 279.289 106.008C279.406 105.88 279.465 105.699 279.465 105.464C279.465 105.261 279.422 105.112 279.337 105.016C279.262 104.92 279.129 104.851 278.937 104.808C278.755 104.755 278.499 104.707 278.169 104.664L275.689 104.392C275.273 104.349 274.947 104.237 274.713 104.056C274.478 103.875 274.313 103.656 274.217 103.4C274.131 103.133 274.11 102.867 274.153 102.6C274.195 102.333 274.291 102.093 274.441 101.88C274.601 101.667 274.803 101.512 275.049 101.416ZM285.546 97.096V102.296C285.546 102.627 285.615 102.861 285.754 103C285.903 103.139 286.138 103.208 286.458 103.208C286.788 103.208 287.114 103.149 287.434 103.032C287.764 102.904 288.17 102.707 288.65 102.44L288.842 103.736C288.266 104.237 287.7 104.611 287.146 104.856C286.591 105.101 286.02 105.224 285.434 105.224C283.93 105.224 283.178 104.488 283.178 103.016V97.096H285.546ZM290.778 97.096V105H288.906L288.634 103.448L288.41 103.224V97.096H290.778ZM298.214 96.888C299.707 96.888 300.454 97.6187 300.454 99.08V105H298.086V99.816C298.086 99.464 298.022 99.224 297.894 99.096C297.766 98.9573 297.547 98.888 297.238 98.888C296.897 98.888 296.545 98.9573 296.182 99.096C295.819 99.224 295.371 99.4267 294.838 99.704L294.726 98.376C295.291 97.896 295.867 97.528 296.454 97.272C297.051 97.016 297.638 96.888 298.214 96.888ZM294.614 97.096L294.886 98.664L295.078 98.872V105H292.71V97.096H294.614ZM305.839 96.888C306.757 96.888 307.482 96.9733 308.015 97.144C308.559 97.3147 308.949 97.5813 309.183 97.944C309.429 98.3067 309.551 98.792 309.551 99.4C309.551 99.9867 309.434 100.467 309.199 100.84C308.965 101.203 308.57 101.469 308.015 101.64C307.471 101.811 306.741 101.896 305.823 101.896C304.906 101.896 304.17 101.811 303.615 101.64C303.071 101.469 302.677 101.203 302.431 100.84C302.197 100.477 302.079 99.9973 302.079 99.4C302.079 98.8027 302.197 98.3227 302.431 97.96C302.677 97.5867 303.077 97.3147 303.631 97.144C304.186 96.9733 304.922 96.888 305.839 96.888ZM305.823 98.344C305.237 98.344 304.831 98.424 304.607 98.584C304.383 98.7333 304.271 99.0053 304.271 99.4C304.271 99.7947 304.383 100.072 304.607 100.232C304.831 100.392 305.237 100.472 305.823 100.472C306.41 100.472 306.81 100.392 307.023 100.232C307.237 100.072 307.343 99.7947 307.343 99.4C307.343 99.0053 307.237 98.7333 307.023 98.584C306.81 98.424 306.41 98.344 305.823 98.344ZM310.463 97.096L310.335 98.104L308.223 98.376L307.647 97.096H310.463ZM303.439 101.416L304.623 101.624C304.474 101.709 304.367 101.843 304.303 102.024C304.25 102.205 304.266 102.376 304.351 102.536C304.437 102.696 304.623 102.792 304.911 102.824L307.823 103.16C308.655 103.245 309.242 103.48 309.583 103.864C309.925 104.237 310.095 104.787 310.095 105.512C310.095 106.195 309.957 106.717 309.679 107.08C309.402 107.453 308.959 107.709 308.351 107.848C307.743 107.987 306.933 108.056 305.919 108.056C305.087 108.056 304.399 108.013 303.855 107.928C303.322 107.853 302.895 107.725 302.575 107.544C302.266 107.363 302.047 107.123 301.919 106.824C301.802 106.536 301.743 106.173 301.743 105.736C301.743 105.405 301.802 105.123 301.919 104.888C302.037 104.643 302.234 104.424 302.511 104.232C302.799 104.04 303.199 103.864 303.711 103.704L304.879 103.288L305.727 103.624L305.087 104.04C304.821 104.232 304.602 104.397 304.431 104.536C304.271 104.664 304.154 104.792 304.079 104.92C304.015 105.048 303.983 105.219 303.983 105.432C303.983 105.677 304.037 105.864 304.143 105.992C304.25 106.131 304.442 106.221 304.719 106.264C305.007 106.317 305.397 106.344 305.887 106.344C306.399 106.344 306.799 106.317 307.087 106.264C307.375 106.221 307.573 106.136 307.679 106.008C307.797 105.88 307.855 105.699 307.855 105.464C307.855 105.261 307.813 105.112 307.727 105.016C307.653 104.92 307.519 104.851 307.327 104.808C307.146 104.755 306.89 104.707 306.559 104.664L304.079 104.392C303.663 104.349 303.338 104.237 303.103 104.056C302.869 103.875 302.703 103.656 302.607 103.4C302.522 103.133 302.501 102.867 302.543 102.6C302.586 102.333 302.682 102.093 302.831 101.88C302.991 101.667 303.194 101.512 303.439 101.416ZM320.573 96.888C322.067 96.888 322.813 97.6187 322.813 99.08V105H320.445V99.816C320.445 99.464 320.381 99.224 320.253 99.096C320.125 98.9573 319.907 98.888 319.597 98.888C319.256 98.888 318.904 98.9573 318.541 99.096C318.179 99.224 317.731 99.4267 317.197 99.704L317.085 98.376C317.651 97.896 318.227 97.528 318.813 97.272C319.411 97.016 319.997 96.888 320.573 96.888ZM316.973 97.096L317.245 98.664L317.437 98.872V105H315.069V97.096H316.973ZM326.999 97.096V102.296C326.999 102.627 327.068 102.861 327.207 103C327.356 103.139 327.591 103.208 327.911 103.208C328.241 103.208 328.567 103.149 328.887 103.032C329.217 102.904 329.623 102.707 330.103 102.44L330.295 103.736C329.719 104.237 329.153 104.611 328.599 104.856C328.044 105.101 327.473 105.224 326.887 105.224C325.383 105.224 324.631 104.488 324.631 103.016V97.096H326.999ZM332.231 97.096V105H330.359L330.087 103.448L329.863 103.224V97.096H332.231ZM336.019 97.096L336.307 98.664L336.531 98.872V105H334.163V97.096H336.019ZM339.875 96.888L339.651 99.08H338.995C338.622 99.08 338.232 99.1333 337.827 99.24C337.422 99.3467 336.91 99.5067 336.291 99.72L336.131 98.392C336.686 97.9013 337.246 97.528 337.811 97.272C338.376 97.016 338.926 96.888 339.459 96.888H339.875ZM347.652 96.888C348.569 96.888 349.295 96.9733 349.828 97.144C350.372 97.3147 350.761 97.5813 350.996 97.944C351.241 98.3067 351.364 98.792 351.364 99.4C351.364 99.9867 351.247 100.467 351.012 100.84C350.777 101.203 350.383 101.469 349.828 101.64C349.284 101.811 348.553 101.896 347.636 101.896C346.719 101.896 345.983 101.811 345.428 101.64C344.884 101.469 344.489 101.203 344.244 100.84C344.009 100.477 343.892 99.9973 343.892 99.4C343.892 98.8027 344.009 98.3227 344.244 97.96C344.489 97.5867 344.889 97.3147 345.444 97.144C345.999 96.9733 346.735 96.888 347.652 96.888ZM347.636 98.344C347.049 98.344 346.644 98.424 346.42 98.584C346.196 98.7333 346.084 99.0053 346.084 99.4C346.084 99.7947 346.196 100.072 346.42 100.232C346.644 100.392 347.049 100.472 347.636 100.472C348.223 100.472 348.623 100.392 348.836 100.232C349.049 100.072 349.156 99.7947 349.156 99.4C349.156 99.0053 349.049 98.7333 348.836 98.584C348.623 98.424 348.223 98.344 347.636 98.344ZM352.276 97.096L352.148 98.104L350.036 98.376L349.46 97.096H352.276ZM345.252 101.416L346.436 101.624C346.287 101.709 346.18 101.843 346.116 102.024C346.063 102.205 346.079 102.376 346.164 102.536C346.249 102.696 346.436 102.792 346.724 102.824L349.636 103.16C350.468 103.245 351.055 103.48 351.396 103.864C351.737 104.237 351.908 104.787 351.908 105.512C351.908 106.195 351.769 106.717 351.492 107.08C351.215 107.453 350.772 107.709 350.164 107.848C349.556 107.987 348.745 108.056 347.732 108.056C346.9 108.056 346.212 108.013 345.668 107.928C345.135 107.853 344.708 107.725 344.388 107.544C344.079 107.363 343.86 107.123 343.732 106.824C343.615 106.536 343.556 106.173 343.556 105.736C343.556 105.405 343.615 105.123 343.732 104.888C343.849 104.643 344.047 104.424 344.324 104.232C344.612 104.04 345.012 103.864 345.524 103.704L346.692 103.288L347.54 103.624L346.9 104.04C346.633 104.232 346.415 104.397 346.244 104.536C346.084 104.664 345.967 104.792 345.892 104.92C345.828 105.048 345.796 105.219 345.796 105.432C345.796 105.677 345.849 105.864 345.956 105.992C346.063 106.131 346.255 106.221 346.532 106.264C346.82 106.317 347.209 106.344 347.7 106.344C348.212 106.344 348.612 106.317 348.9 106.264C349.188 106.221 349.385 106.136 349.492 106.008C349.609 105.88 349.668 105.699 349.668 105.464C349.668 105.261 349.625 105.112 349.54 105.016C349.465 104.92 349.332 104.851 349.14 104.808C348.959 104.755 348.703 104.707 348.372 104.664L345.892 104.392C345.476 104.349 345.151 104.237 344.916 104.056C344.681 103.875 344.516 103.656 344.42 103.4C344.335 103.133 344.313 102.867 344.356 102.6C344.399 102.333 344.495 102.093 344.644 101.88C344.804 101.667 345.007 101.512 345.252 101.416ZM357.079 96.888C358.412 96.888 359.367 97.1173 359.943 97.576C360.53 98.024 360.823 98.696 360.823 99.592C360.834 100.317 360.652 100.861 360.279 101.224C359.906 101.576 359.26 101.752 358.343 101.752H353.927V100.424H357.687C358.05 100.424 358.279 100.349 358.375 100.2C358.482 100.04 358.535 99.8213 358.535 99.544C358.524 99.1707 358.412 98.9147 358.199 98.776C357.996 98.6267 357.65 98.552 357.159 98.552C356.722 98.552 356.38 98.6107 356.135 98.728C355.89 98.8453 355.719 99.0693 355.623 99.4C355.527 99.7307 355.479 100.211 355.479 100.84C355.479 101.501 355.538 102.013 355.655 102.376C355.772 102.728 355.97 102.973 356.247 103.112C356.535 103.251 356.93 103.32 357.431 103.32C357.794 103.32 358.242 103.309 358.775 103.288C359.319 103.256 359.863 103.208 360.407 103.144L360.631 104.6C360.322 104.749 359.97 104.867 359.575 104.952C359.18 105.037 358.775 105.096 358.359 105.128C357.943 105.171 357.543 105.192 357.159 105.192C356.156 105.192 355.346 105.048 354.727 104.76C354.119 104.461 353.676 104.008 353.399 103.4C353.132 102.792 352.999 102.013 352.999 101.064C352.999 100.029 353.138 99.208 353.415 98.6C353.692 97.992 354.13 97.5547 354.727 97.288C355.324 97.0213 356.108 96.888 357.079 96.888ZM365.374 96.888C365.758 96.888 366.174 96.904 366.622 96.936C367.07 96.9573 367.508 96.9893 367.934 97.032C368.361 97.0747 368.74 97.128 369.07 97.192L368.91 98.664C368.398 98.6533 367.881 98.648 367.358 98.648C366.846 98.6373 366.345 98.632 365.854 98.632C365.438 98.6213 365.118 98.6267 364.894 98.648C364.67 98.6693 364.51 98.7227 364.414 98.808C364.329 98.8827 364.286 99.0213 364.286 99.224C364.286 99.4587 364.366 99.6187 364.526 99.704C364.686 99.7787 364.953 99.864 365.326 99.96L367.39 100.456C368.052 100.627 368.542 100.883 368.862 101.224C369.182 101.555 369.342 102.056 369.342 102.728C369.342 103.389 369.22 103.896 368.974 104.248C368.729 104.6 368.34 104.845 367.806 104.984C367.273 105.112 366.585 105.176 365.742 105.176C365.412 105.176 364.921 105.16 364.27 105.128C363.62 105.096 362.905 105.016 362.126 104.888L362.286 103.416C362.478 103.427 362.724 103.437 363.022 103.448C363.321 103.448 363.646 103.448 363.998 103.448C364.35 103.448 364.702 103.448 365.054 103.448C365.598 103.448 366.014 103.437 366.302 103.416C366.59 103.384 366.788 103.32 366.894 103.224C367.001 103.128 367.054 102.984 367.054 102.792C367.054 102.557 366.964 102.397 366.782 102.312C366.601 102.227 366.313 102.136 365.918 102.04L363.918 101.544C363.417 101.405 363.028 101.229 362.75 101.016C362.473 100.803 362.276 100.541 362.158 100.232C362.052 99.9227 361.998 99.5547 361.998 99.128C361.998 98.584 362.105 98.152 362.318 97.832C362.542 97.5013 362.9 97.2613 363.39 97.112C363.892 96.9627 364.553 96.888 365.374 96.888ZM374.61 96.888C375.944 96.888 376.898 97.1173 377.474 97.576C378.061 98.024 378.354 98.696 378.354 99.592C378.365 100.317 378.184 100.861 377.81 101.224C377.437 101.576 376.792 101.752 375.874 101.752H371.458V100.424H375.218C375.581 100.424 375.81 100.349 375.906 100.2C376.013 100.04 376.066 99.8213 376.066 99.544C376.056 99.1707 375.944 98.9147 375.73 98.776C375.528 98.6267 375.181 98.552 374.69 98.552C374.253 98.552 373.912 98.6107 373.666 98.728C373.421 98.8453 373.25 99.0693 373.154 99.4C373.058 99.7307 373.01 100.211 373.01 100.84C373.01 101.501 373.069 102.013 373.186 102.376C373.304 102.728 373.501 102.973 373.778 103.112C374.066 103.251 374.461 103.32 374.962 103.32C375.325 103.32 375.773 103.309 376.306 103.288C376.85 103.256 377.394 103.208 377.938 103.144L378.162 104.6C377.853 104.749 377.501 104.867 377.106 104.952C376.712 105.037 376.306 105.096 375.89 105.128C375.474 105.171 375.074 105.192 374.69 105.192C373.688 105.192 372.877 105.048 372.258 104.76C371.65 104.461 371.208 104.008 370.93 103.4C370.664 102.792 370.53 102.013 370.53 101.064C370.53 100.029 370.669 99.208 370.946 98.6C371.224 97.992 371.661 97.5547 372.258 97.288C372.856 97.0213 373.64 96.888 374.61 96.888ZM382.282 93.8L382.266 102.472C382.266 102.739 382.346 102.941 382.506 103.08C382.666 103.208 382.9 103.272 383.21 103.272H383.85L384.122 104.872C383.994 104.936 383.812 104.989 383.578 105.032C383.343 105.085 383.103 105.123 382.858 105.144C382.612 105.176 382.404 105.192 382.234 105.192C381.519 105.192 380.954 105.005 380.538 104.632C380.122 104.259 379.914 103.736 379.914 103.064V93.8H382.282ZM387.532 93.8L387.516 102.472C387.516 102.739 387.596 102.941 387.756 103.08C387.916 103.208 388.15 103.272 388.46 103.272H389.1L389.372 104.872C389.244 104.936 389.062 104.989 388.828 105.032C388.593 105.085 388.353 105.123 388.108 105.144C387.862 105.176 387.654 105.192 387.484 105.192C386.769 105.192 386.204 105.005 385.788 104.632C385.372 104.259 385.164 103.736 385.164 103.064V93.8H387.532ZM393.406 96.888C393.79 96.888 394.206 96.904 394.654 96.936C395.102 96.9573 395.539 96.9893 395.966 97.032C396.392 97.0747 396.771 97.128 397.102 97.192L396.942 98.664C396.43 98.6533 395.912 98.648 395.39 98.648C394.878 98.6373 394.376 98.632 393.886 98.632C393.47 98.6213 393.15 98.6267 392.926 98.648C392.702 98.6693 392.542 98.7227 392.446 98.808C392.36 98.8827 392.318 99.0213 392.318 99.224C392.318 99.4587 392.398 99.6187 392.558 99.704C392.718 99.7787 392.984 99.864 393.358 99.96L395.422 100.456C396.083 100.627 396.574 100.883 396.894 101.224C397.214 101.555 397.374 102.056 397.374 102.728C397.374 103.389 397.251 103.896 397.006 104.248C396.76 104.6 396.371 104.845 395.838 104.984C395.304 105.112 394.616 105.176 393.774 105.176C393.443 105.176 392.952 105.16 392.302 105.128C391.651 105.096 390.936 105.016 390.158 104.888L390.318 103.416C390.51 103.427 390.755 103.437 391.054 103.448C391.352 103.448 391.678 103.448 392.03 103.448C392.382 103.448 392.734 103.448 393.086 103.448C393.63 103.448 394.046 103.437 394.334 103.416C394.622 103.384 394.819 103.32 394.926 103.224C395.032 103.128 395.086 102.984 395.086 102.792C395.086 102.557 394.995 102.397 394.814 102.312C394.632 102.227 394.344 102.136 393.95 102.04L391.95 101.544C391.448 101.405 391.059 101.229 390.782 101.016C390.504 100.803 390.307 100.541 390.19 100.232C390.083 99.9227 390.03 99.5547 390.03 99.128C390.03 98.584 390.136 98.152 390.35 97.832C390.574 97.5013 390.931 97.2613 391.422 97.112C391.923 96.9627 392.584 96.888 393.406 96.888ZM402.578 96.888C402.866 96.888 403.18 96.904 403.522 96.936C403.863 96.9573 404.204 97.0053 404.546 97.08C404.898 97.144 405.218 97.24 405.506 97.368L405.25 98.856C404.823 98.8453 404.412 98.8347 404.018 98.824C403.634 98.8133 403.287 98.808 402.978 98.808C402.498 98.808 402.119 98.872 401.842 99C401.564 99.128 401.362 99.3573 401.234 99.688C401.116 100.008 401.058 100.456 401.058 101.032C401.058 101.619 401.116 102.077 401.234 102.408C401.362 102.739 401.564 102.968 401.842 103.096C402.119 103.224 402.498 103.288 402.978 103.288C403.148 103.288 403.367 103.283 403.634 103.272C403.9 103.261 404.188 103.251 404.498 103.24C404.807 103.219 405.111 103.187 405.41 103.144L405.634 104.648C405.207 104.84 404.722 104.979 404.178 105.064C403.634 105.149 403.095 105.192 402.562 105.192C401.58 105.192 400.796 105.059 400.21 104.792C399.634 104.515 399.218 104.072 398.962 103.464C398.706 102.856 398.578 102.045 398.578 101.032C398.578 100.019 398.706 99.208 398.962 98.6C399.228 97.992 399.655 97.5547 400.242 97.288C400.828 97.0213 401.607 96.888 402.578 96.888ZM412.542 96.888C414.035 96.888 414.782 97.6187 414.782 99.08V105H412.398V99.816C412.398 99.464 412.334 99.224 412.206 99.096C412.089 98.9573 411.875 98.888 411.566 98.888C411.225 98.888 410.873 98.952 410.51 99.08C410.147 99.208 409.699 99.416 409.166 99.704L408.958 98.472C409.545 97.96 410.142 97.5707 410.75 97.304C411.358 97.0267 411.955 96.888 412.542 96.888ZM409.406 93.8L409.422 96.536C409.422 96.952 409.395 97.3467 409.342 97.72C409.299 98.0933 409.246 98.408 409.182 98.664L409.406 98.872V105H407.038V93.8H409.406ZM420.824 96.888C421.485 96.888 422.045 96.9787 422.504 97.16C422.962 97.3307 423.309 97.6293 423.544 98.056C423.789 98.472 423.911 99.048 423.911 99.784V105H422.024L421.688 103.288L421.528 103.048V99.768C421.528 99.3947 421.437 99.1227 421.256 98.952C421.085 98.7813 420.754 98.696 420.264 98.696C419.858 98.696 419.352 98.712 418.744 98.744C418.136 98.7653 417.512 98.7973 416.872 98.84L416.648 97.272C417.032 97.1973 417.474 97.1333 417.976 97.08C418.477 97.0267 418.978 96.984 419.48 96.952C419.981 96.9093 420.429 96.888 420.824 96.888ZM422.936 100.136L422.92 101.464L419.4 101.48C419.112 101.48 418.904 101.549 418.776 101.688C418.658 101.827 418.6 102.013 418.6 102.248V102.632C418.6 102.899 418.674 103.107 418.824 103.256C418.973 103.395 419.213 103.464 419.544 103.464C419.821 103.464 420.12 103.405 420.44 103.288C420.77 103.171 421.096 103.005 421.416 102.792C421.736 102.579 422.018 102.328 422.264 102.04V103.064C422.168 103.224 422.024 103.427 421.832 103.672C421.65 103.907 421.416 104.141 421.128 104.376C420.84 104.6 420.504 104.792 420.12 104.952C419.736 105.112 419.298 105.192 418.808 105.192C418.328 105.192 417.896 105.107 417.512 104.936C417.128 104.765 416.824 104.515 416.6 104.184C416.376 103.853 416.264 103.443 416.264 102.952V102.136C416.264 101.507 416.477 101.016 416.904 100.664C417.33 100.312 417.917 100.136 418.664 100.136H422.936ZM429.085 93.464C429.277 93.464 429.527 93.4693 429.837 93.48C430.157 93.4907 430.477 93.512 430.797 93.544C431.127 93.5653 431.41 93.5973 431.645 93.64L431.437 95.16H429.933C429.527 95.16 429.245 95.24 429.085 95.4C428.925 95.56 428.845 95.8373 428.845 96.232V105H426.477V95.928C426.477 95.4267 426.557 94.9947 426.717 94.632C426.887 94.2693 427.165 93.9867 427.549 93.784C427.933 93.5707 428.445 93.464 429.085 93.464ZM431.053 97.096V98.648H425.101V97.176L426.525 97.096H431.053ZM435.329 94.904V102.472C435.329 102.76 435.393 102.968 435.521 103.096C435.66 103.213 435.884 103.272 436.193 103.272H437.217L437.473 104.872C437.281 104.936 437.047 104.989 436.769 105.032C436.492 105.085 436.215 105.123 435.937 105.144C435.66 105.176 435.425 105.192 435.233 105.192C434.519 105.192 433.959 105 433.553 104.616C433.159 104.232 432.961 103.693 432.961 103L432.945 94.904H435.329ZM437.537 97.096V98.648H431.569V97.176L433.105 97.096H437.537ZM441.812 96.888C442.196 96.888 442.612 96.904 443.06 96.936C443.508 96.9573 443.945 96.9893 444.372 97.032C444.798 97.0747 445.177 97.128 445.508 97.192L445.348 98.664C444.836 98.6533 444.318 98.648 443.796 98.648C443.284 98.6373 442.782 98.632 442.292 98.632C441.876 98.6213 441.556 98.6267 441.332 98.648C441.108 98.6693 440.948 98.7227 440.852 98.808C440.766 98.8827 440.724 99.0213 440.724 99.224C440.724 99.4587 440.804 99.6187 440.964 99.704C441.124 99.7787 441.39 99.864 441.764 99.96L443.828 100.456C444.489 100.627 444.98 100.883 445.3 101.224C445.62 101.555 445.78 102.056 445.78 102.728C445.78 103.389 445.657 103.896 445.412 104.248C445.166 104.6 444.777 104.845 444.244 104.984C443.71 105.112 443.022 105.176 442.18 105.176C441.849 105.176 441.358 105.16 440.708 105.128C440.057 105.096 439.342 105.016 438.564 104.888L438.724 103.416C438.916 103.427 439.161 103.437 439.46 103.448C439.758 103.448 440.084 103.448 440.436 103.448C440.788 103.448 441.14 103.448 441.492 103.448C442.036 103.448 442.452 103.437 442.74 103.416C443.028 103.384 443.225 103.32 443.332 103.224C443.438 103.128 443.492 102.984 443.492 102.792C443.492 102.557 443.401 102.397 443.22 102.312C443.038 102.227 442.75 102.136 442.356 102.04L440.356 101.544C439.854 101.405 439.465 101.229 439.188 101.016C438.91 100.803 438.713 100.541 438.596 100.232C438.489 99.9227 438.436 99.5547 438.436 99.128C438.436 98.584 438.542 98.152 438.756 97.832C438.98 97.5013 439.337 97.2613 439.828 97.112C440.329 96.9627 440.99 96.888 441.812 96.888ZM449.16 97.096L449.448 98.664L449.672 98.872V105H447.304V97.096H449.16ZM453.016 96.888L452.792 99.08H452.136C451.762 99.08 451.373 99.1333 450.968 99.24C450.562 99.3467 450.05 99.5067 449.432 99.72L449.272 98.392C449.826 97.9013 450.386 97.528 450.952 97.272C451.517 97.016 452.066 96.888 452.6 96.888H453.016ZM457.751 96.888C459.084 96.888 460.039 97.1173 460.615 97.576C461.202 98.024 461.495 98.696 461.495 99.592C461.506 100.317 461.324 100.861 460.951 101.224C460.578 101.576 459.932 101.752 459.015 101.752H454.599V100.424H458.359C458.722 100.424 458.951 100.349 459.047 100.2C459.154 100.04 459.207 99.8213 459.207 99.544C459.196 99.1707 459.084 98.9147 458.871 98.776C458.668 98.6267 458.322 98.552 457.831 98.552C457.394 98.552 457.052 98.6107 456.807 98.728C456.562 98.8453 456.391 99.0693 456.295 99.4C456.199 99.7307 456.151 100.211 456.151 100.84C456.151 101.501 456.21 102.013 456.327 102.376C456.444 102.728 456.642 102.973 456.919 103.112C457.207 103.251 457.602 103.32 458.103 103.32C458.466 103.32 458.914 103.309 459.447 103.288C459.991 103.256 460.535 103.208 461.079 103.144L461.303 104.6C460.994 104.749 460.642 104.867 460.247 104.952C459.852 105.037 459.447 105.096 459.031 105.128C458.615 105.171 458.215 105.192 457.831 105.192C456.828 105.192 456.018 105.048 455.399 104.76C454.791 104.461 454.348 104.008 454.071 103.4C453.804 102.792 453.671 102.013 453.671 101.064C453.671 100.029 453.81 99.208 454.087 98.6C454.364 97.992 454.802 97.5547 455.399 97.288C455.996 97.0213 456.78 96.888 457.751 96.888ZM466.718 96.888C467.006 96.888 467.321 96.904 467.662 96.936C468.003 96.9573 468.345 97.0053 468.686 97.08C469.038 97.144 469.358 97.24 469.646 97.368L469.39 98.856C468.963 98.8453 468.553 98.8347 468.158 98.824C467.774 98.8133 467.427 98.808 467.118 98.808C466.638 98.808 466.259 98.872 465.982 99C465.705 99.128 465.502 99.3573 465.374 99.688C465.257 100.008 465.198 100.456 465.198 101.032C465.198 101.619 465.257 102.077 465.374 102.408C465.502 102.739 465.705 102.968 465.982 103.096C466.259 103.224 466.638 103.288 467.118 103.288C467.289 103.288 467.507 103.283 467.774 103.272C468.041 103.261 468.329 103.251 468.638 103.24C468.947 103.219 469.251 103.187 469.55 103.144L469.774 104.648C469.347 104.84 468.862 104.979 468.318 105.064C467.774 105.149 467.235 105.192 466.702 105.192C465.721 105.192 464.937 105.059 464.35 104.792C463.774 104.515 463.358 104.072 463.102 103.464C462.846 102.856 462.718 102.045 462.718 101.032C462.718 100.019 462.846 99.208 463.102 98.6C463.369 97.992 463.795 97.5547 464.382 97.288C464.969 97.0213 465.747 96.888 466.718 96.888ZM476.683 96.888C478.176 96.888 478.923 97.6187 478.923 99.08V105H476.539V99.816C476.539 99.464 476.475 99.224 476.347 99.096C476.229 98.9573 476.016 98.888 475.707 98.888C475.365 98.888 475.013 98.952 474.651 99.08C474.288 99.208 473.84 99.416 473.307 99.704L473.099 98.472C473.685 97.96 474.283 97.5707 474.891 97.304C475.499 97.0267 476.096 96.888 476.683 96.888ZM473.547 93.8L473.563 96.536C473.563 96.952 473.536 97.3467 473.483 97.72C473.44 98.0933 473.387 98.408 473.323 98.664L473.547 98.872V105H471.179V93.8H473.547ZM483.876 94.904V102.472C483.876 102.76 483.94 102.968 484.068 103.096C484.207 103.213 484.431 103.272 484.74 103.272H485.764L486.02 104.872C485.828 104.936 485.593 104.989 485.316 105.032C485.039 105.085 484.761 105.123 484.484 105.144C484.207 105.176 483.972 105.192 483.78 105.192C483.065 105.192 482.505 105 482.1 104.616C481.705 104.232 481.508 103.693 481.508 103L481.492 94.904H483.876ZM486.084 97.096V98.648H480.116V97.176L481.652 97.096H486.084ZM489.735 93.8L489.719 102.472C489.719 102.739 489.799 102.941 489.959 103.08C490.119 103.208 490.353 103.272 490.663 103.272H491.303L491.575 104.872C491.447 104.936 491.265 104.989 491.031 105.032C490.796 105.085 490.556 105.123 490.311 105.144C490.065 105.176 489.857 105.192 489.687 105.192C488.972 105.192 488.407 105.005 487.991 104.632C487.575 104.259 487.367 103.736 487.367 103.064V93.8H489.735ZM495.017 97.096V105H492.665V97.096H495.017ZM494.361 93.608C494.83 93.608 495.065 93.848 495.065 94.328V95.176C495.065 95.656 494.83 95.896 494.361 95.896H493.337C492.867 95.896 492.633 95.656 492.633 95.176V94.328C492.633 93.848 492.867 93.608 493.337 93.608H494.361ZM500.703 96.888C500.991 96.888 501.305 96.904 501.647 96.936C501.988 96.9573 502.329 97.0053 502.671 97.08C503.023 97.144 503.343 97.24 503.631 97.368L503.375 98.856C502.948 98.8453 502.537 98.8347 502.143 98.824C501.759 98.8133 501.412 98.808 501.103 98.808C500.623 98.808 500.244 98.872 499.967 99C499.689 99.128 499.487 99.3573 499.359 99.688C499.241 100.008 499.183 100.456 499.183 101.032C499.183 101.619 499.241 102.077 499.359 102.408C499.487 102.739 499.689 102.968 499.967 103.096C500.244 103.224 500.623 103.288 501.103 103.288C501.273 103.288 501.492 103.283 501.759 103.272C502.025 103.261 502.313 103.251 502.623 103.24C502.932 103.219 503.236 103.187 503.535 103.144L503.759 104.648C503.332 104.84 502.847 104.979 502.303 105.064C501.759 105.149 501.22 105.192 500.687 105.192C499.705 105.192 498.921 105.059 498.335 104.792C497.759 104.515 497.343 104.072 497.087 103.464C496.831 102.856 496.703 102.045 496.703 101.032C496.703 100.019 496.831 99.208 497.087 98.6C497.353 97.992 497.78 97.5547 498.367 97.288C498.953 97.0213 499.732 96.888 500.703 96.888ZM510.667 96.888C512.16 96.888 512.907 97.6187 512.907 99.08V105H510.523V99.816C510.523 99.464 510.459 99.224 510.331 99.096C510.214 98.9573 510 98.888 509.691 98.888C509.35 98.888 508.998 98.952 508.635 99.08C508.272 99.208 507.824 99.416 507.291 99.704L507.083 98.472C507.67 97.96 508.267 97.5707 508.875 97.304C509.483 97.0267 510.08 96.888 510.667 96.888ZM507.531 93.8L507.547 96.536C507.547 96.952 507.52 97.3467 507.467 97.72C507.424 98.0933 507.371 98.408 507.307 98.664L507.531 98.872V105H505.163V93.8H507.531ZM518.516 96.888C519.85 96.888 520.805 97.1173 521.381 97.576C521.967 98.024 522.26 98.696 522.26 99.592C522.271 100.317 522.09 100.861 521.717 101.224C521.343 101.576 520.698 101.752 519.781 101.752H515.365V100.424H519.125C519.487 100.424 519.717 100.349 519.813 100.2C519.919 100.04 519.973 99.8213 519.973 99.544C519.962 99.1707 519.85 98.9147 519.637 98.776C519.434 98.6267 519.087 98.552 518.597 98.552C518.159 98.552 517.818 98.6107 517.573 98.728C517.327 98.8453 517.157 99.0693 517.061 99.4C516.965 99.7307 516.917 100.211 516.917 100.84C516.917 101.501 516.975 102.013 517.093 102.376C517.21 102.728 517.407 102.973 517.685 103.112C517.973 103.251 518.367 103.32 518.869 103.32C519.231 103.32 519.679 103.309 520.213 103.288C520.757 103.256 521.301 103.208 521.845 103.144L522.069 104.6C521.759 104.749 521.407 104.867 521.013 104.952C520.618 105.037 520.213 105.096 519.797 105.128C519.381 105.171 518.981 105.192 518.597 105.192C517.594 105.192 516.783 105.048 516.164 104.76C515.557 104.461 515.114 104.008 514.837 103.4C514.57 102.792 514.437 102.013 514.437 101.064C514.437 100.029 514.575 99.208 514.853 98.6C515.13 97.992 515.567 97.5547 516.164 97.288C516.762 97.0213 517.546 96.888 518.516 96.888ZM525.66 97.096L525.948 98.664L526.172 98.872V105H523.804V97.096H525.66ZM529.516 96.888L529.292 99.08H528.636C528.262 99.08 527.873 99.1333 527.468 99.24C527.062 99.3467 526.55 99.5067 525.932 99.72L525.772 98.392C526.326 97.9013 526.886 97.528 527.452 97.272C528.017 97.016 528.566 96.888 529.1 96.888H529.516ZM536.365 93.96V105H533.933V93.96H536.365ZM543.948 96.888C545.442 96.888 546.188 97.6187 546.188 99.08V105H543.82V99.816C543.82 99.464 543.756 99.224 543.628 99.096C543.5 98.9573 543.282 98.888 542.972 98.888C542.631 98.888 542.279 98.9573 541.916 99.096C541.554 99.224 541.106 99.4267 540.572 99.704L540.46 98.376C541.026 97.896 541.602 97.528 542.188 97.272C542.786 97.016 543.372 96.888 543.948 96.888ZM540.348 97.096L540.62 98.664L540.812 98.872V105H538.444V97.096H540.348ZM551.366 93.464C551.558 93.464 551.808 93.4693 552.118 93.48C552.438 93.4907 552.758 93.512 553.078 93.544C553.408 93.5653 553.691 93.5973 553.926 93.64L553.718 95.16H552.214C551.808 95.16 551.526 95.24 551.366 95.4C551.206 95.56 551.126 95.8373 551.126 96.232V105H548.758V95.928C548.758 95.4267 548.838 94.9947 548.998 94.632C549.168 94.2693 549.446 93.9867 549.83 93.784C550.214 93.5707 550.726 93.464 551.366 93.464ZM553.334 97.096V98.648H547.382V97.176L548.806 97.096H553.334ZM558.189 96.888C559.181 96.888 559.975 97.0267 560.573 97.304C561.17 97.5707 561.597 98.008 561.853 98.616C562.119 99.224 562.253 100.04 562.253 101.064C562.253 102.067 562.119 102.872 561.853 103.48C561.597 104.088 561.17 104.525 560.573 104.792C559.975 105.059 559.181 105.192 558.189 105.192C557.207 105.192 556.413 105.059 555.805 104.792C555.207 104.525 554.775 104.088 554.509 103.48C554.242 102.872 554.109 102.067 554.109 101.064C554.109 100.04 554.242 99.224 554.509 98.616C554.775 98.008 555.207 97.5707 555.805 97.304C556.413 97.0267 557.207 96.888 558.189 96.888ZM558.189 98.616C557.783 98.616 557.463 98.6853 557.229 98.824C556.994 98.9627 556.829 99.208 556.733 99.56C556.637 99.912 556.589 100.413 556.589 101.064C556.589 101.704 556.637 102.2 556.733 102.552C556.829 102.904 556.994 103.149 557.229 103.288C557.463 103.416 557.783 103.48 558.189 103.48C558.594 103.48 558.914 103.416 559.149 103.288C559.383 103.149 559.549 102.904 559.645 102.552C559.741 102.2 559.789 101.704 559.789 101.064C559.789 100.413 559.741 99.912 559.645 99.56C559.549 99.208 559.383 98.9627 559.149 98.824C558.914 98.6853 558.594 98.616 558.189 98.616ZM565.722 97.096L566.01 98.664L566.234 98.872V105H563.866V97.096H565.722ZM569.578 96.888L569.354 99.08H568.698C568.325 99.08 567.936 99.1333 567.53 99.24C567.125 99.3467 566.613 99.5067 565.994 99.72L565.834 98.392C566.389 97.9013 566.949 97.528 567.514 97.272C568.08 97.016 568.629 96.888 569.162 96.888H569.578ZM580.71 96.888C581.425 96.888 581.969 97.0747 582.342 97.448C582.716 97.8213 582.902 98.3653 582.902 99.08V105H580.55V99.816C580.55 99.4853 580.486 99.2507 580.358 99.112C580.23 98.9627 580.006 98.888 579.686 98.888C579.494 98.888 579.313 98.9147 579.142 98.968C578.972 99.0213 578.774 99.1067 578.55 99.224C578.326 99.3413 578.054 99.5013 577.734 99.704L577.606 98.392C578.118 97.8907 578.62 97.5173 579.11 97.272C579.612 97.016 580.145 96.888 580.71 96.888ZM572.582 97.096L572.822 98.664L573.062 98.872V105H570.694V97.096H572.582ZM575.782 96.888C576.486 96.888 577.02 97.0747 577.382 97.448C577.756 97.8107 577.942 98.3547 577.942 99.08V105H575.67V99.816C575.67 99.4747 575.596 99.2347 575.446 99.096C575.308 98.9573 575.089 98.888 574.79 98.888C574.609 98.888 574.428 98.9147 574.246 98.968C574.076 99.0107 573.873 99.0907 573.638 99.208C573.414 99.3253 573.137 99.4907 572.806 99.704L572.662 98.392C573.185 97.8907 573.692 97.5173 574.182 97.272C574.673 97.016 575.206 96.888 575.782 96.888ZM588.964 96.888C589.625 96.888 590.185 96.9787 590.644 97.16C591.103 97.3307 591.449 97.6293 591.684 98.056C591.929 98.472 592.052 99.048 592.052 99.784V105H590.164L589.828 103.288L589.668 103.048V99.768C589.668 99.3947 589.577 99.1227 589.396 98.952C589.225 98.7813 588.895 98.696 588.404 98.696C587.999 98.696 587.492 98.712 586.884 98.744C586.276 98.7653 585.652 98.7973 585.012 98.84L584.788 97.272C585.172 97.1973 585.615 97.1333 586.116 97.08C586.617 97.0267 587.119 96.984 587.62 96.952C588.121 96.9093 588.569 96.888 588.964 96.888ZM591.076 100.136L591.06 101.464L587.54 101.48C587.252 101.48 587.044 101.549 586.916 101.688C586.799 101.827 586.74 102.013 586.74 102.248V102.632C586.74 102.899 586.815 103.107 586.964 103.256C587.113 103.395 587.353 103.464 587.684 103.464C587.961 103.464 588.26 103.405 588.58 103.288C588.911 103.171 589.236 103.005 589.556 102.792C589.876 102.579 590.159 102.328 590.404 102.04V103.064C590.308 103.224 590.164 103.427 589.972 103.672C589.791 103.907 589.556 104.141 589.268 104.376C588.98 104.6 588.644 104.792 588.26 104.952C587.876 105.112 587.439 105.192 586.948 105.192C586.468 105.192 586.036 105.107 585.652 104.936C585.268 104.765 584.964 104.515 584.74 104.184C584.516 103.853 584.404 103.443 584.404 102.952V102.136C584.404 101.507 584.617 101.016 585.044 100.664C585.471 100.312 586.057 100.136 586.804 100.136H591.076ZM597.001 94.904V102.472C597.001 102.76 597.065 102.968 597.193 103.096C597.332 103.213 597.556 103.272 597.865 103.272H598.889L599.145 104.872C598.953 104.936 598.718 104.989 598.441 105.032C598.164 105.085 597.886 105.123 597.609 105.144C597.332 105.176 597.097 105.192 596.905 105.192C596.19 105.192 595.63 105 595.225 104.616C594.83 104.232 594.633 103.693 594.633 103L594.617 94.904H597.001ZM599.209 97.096V98.648H593.241V97.176L594.777 97.096H599.209ZM602.892 97.096V105H600.54V97.096H602.892ZM602.236 93.608C602.705 93.608 602.94 93.848 602.94 94.328V95.176C602.94 95.656 602.705 95.896 602.236 95.896H601.212C600.742 95.896 600.508 95.656 600.508 95.176V94.328C600.508 93.848 600.742 93.608 601.212 93.608H602.236ZM608.658 96.888C609.65 96.888 610.444 97.0267 611.042 97.304C611.639 97.5707 612.066 98.008 612.322 98.616C612.588 99.224 612.722 100.04 612.722 101.064C612.722 102.067 612.588 102.872 612.322 103.48C612.066 104.088 611.639 104.525 611.042 104.792C610.444 105.059 609.65 105.192 608.658 105.192C607.676 105.192 606.882 105.059 606.274 104.792C605.676 104.525 605.244 104.088 604.978 103.48C604.711 102.872 604.578 102.067 604.578 101.064C604.578 100.04 604.711 99.224 604.978 98.616C605.244 98.008 605.676 97.5707 606.274 97.304C606.882 97.0267 607.676 96.888 608.658 96.888ZM608.658 98.616C608.252 98.616 607.932 98.6853 607.698 98.824C607.463 98.9627 607.298 99.208 607.202 99.56C607.106 99.912 607.058 100.413 607.058 101.064C607.058 101.704 607.106 102.2 607.202 102.552C607.298 102.904 607.463 103.149 607.698 103.288C607.932 103.416 608.252 103.48 608.658 103.48C609.063 103.48 609.383 103.416 609.618 103.288C609.852 103.149 610.018 102.904 610.114 102.552C610.21 102.2 610.258 101.704 610.258 101.064C610.258 100.413 610.21 99.912 610.114 99.56C610.018 99.208 609.852 98.9627 609.618 98.824C609.383 98.6853 609.063 98.616 608.658 98.616ZM619.839 96.888C621.332 96.888 622.079 97.6187 622.079 99.08V105H619.711V99.816C619.711 99.464 619.647 99.224 619.519 99.096C619.391 98.9573 619.172 98.888 618.863 98.888C618.522 98.888 618.17 98.9573 617.807 99.096C617.444 99.224 616.996 99.4267 616.463 99.704L616.351 98.376C616.916 97.896 617.492 97.528 618.079 97.272C618.676 97.016 619.263 96.888 619.839 96.888ZM616.239 97.096L616.511 98.664L616.703 98.872V105H614.335V97.096H616.239ZM627.688 96.888C629.022 96.888 629.976 97.1173 630.552 97.576C631.139 98.024 631.432 98.696 631.432 99.592C631.443 100.317 631.262 100.861 630.888 101.224C630.515 101.576 629.87 101.752 628.952 101.752H624.536V100.424H628.296C628.659 100.424 628.888 100.349 628.984 100.2C629.091 100.04 629.144 99.8213 629.144 99.544C629.134 99.1707 629.022 98.9147 628.808 98.776C628.606 98.6267 628.259 98.552 627.768 98.552C627.331 98.552 626.99 98.6107 626.744 98.728C626.499 98.8453 626.328 99.0693 626.232 99.4C626.136 99.7307 626.088 100.211 626.088 100.84C626.088 101.501 626.147 102.013 626.264 102.376C626.382 102.728 626.579 102.973 626.856 103.112C627.144 103.251 627.539 103.32 628.04 103.32C628.403 103.32 628.851 103.309 629.384 103.288C629.928 103.256 630.472 103.208 631.016 103.144L631.24 104.6C630.931 104.749 630.579 104.867 630.184 104.952C629.79 105.037 629.384 105.096 628.968 105.128C628.552 105.171 628.152 105.192 627.768 105.192C626.766 105.192 625.955 105.048 625.336 104.76C624.728 104.461 624.286 104.008 624.008 103.4C623.742 102.792 623.608 102.013 623.608 101.064C623.608 100.029 623.747 99.208 624.024 98.6C624.302 97.992 624.739 97.5547 625.336 97.288C625.934 97.0213 626.718 96.888 627.688 96.888ZM638.48 96.888C639.973 96.888 640.72 97.6187 640.72 99.08V105H638.352V99.816C638.352 99.464 638.288 99.224 638.16 99.096C638.032 98.9573 637.813 98.888 637.504 98.888C637.162 98.888 636.81 98.9573 636.448 99.096C636.085 99.224 635.637 99.4267 635.104 99.704L634.992 98.376C635.557 97.896 636.133 97.528 636.72 97.272C637.317 97.016 637.904 96.888 638.48 96.888ZM634.88 97.096L635.152 98.664L635.344 98.872V105H632.976V97.096H634.88Z" fill="#023047" fill-opacity="0.72"/>
</g>
<defs>
<clipPath id="clip0_3079_8069">
<rect width="1920" height="1080" fill="white"/>
</clipPath>
</defs>
</svg>
