<svg width="1416" height="735" viewBox="0 0 1416 735" fill="none" xmlns="http://www.w3.org/2000/svg">
<g filter="url(#filter0_d_2967_9149)">
<mask id="path-1-inside-1_2967_9149" fill="white">
<path d="M6 14.4048C6 6.44926 12.4492 0 20.4048 0H1395.6C1403.55 0 1410 6.44923 1410 14.4048V701.595C1410 709.551 1403.55 716 1395.6 716H20.4048C12.4492 716 6 709.551 6 701.595V14.4048Z"/>
</mask>
<path d="M6 14.4048C6 6.44926 12.4492 0 20.4048 0H1395.6C1403.55 0 1410 6.44923 1410 14.4048V701.595C1410 709.551 1403.55 716 1395.6 716H20.4048C12.4492 716 6 709.551 6 701.595V14.4048Z" fill="white" shape-rendering="crispEdges"/>
<path d="M6 14.4048C6 4.06257 14.384 -4.32143 24.7262 -4.32143H1391.27C1401.62 -4.32143 1410 4.06257 1410 14.4048V14.4048C1410 8.83589 1403.55 4.32143 1395.6 4.32143H20.4048C12.4492 4.32143 6 8.83589 6 14.4048V14.4048ZM1410 716H6H1410ZM6 716V0V716ZM1410 0V716V0Z" fill="url(#paint0_linear_2967_9149)" mask="url(#path-1-inside-1_2967_9149)"/>
<path d="M20.9783 17.028C21.7926 17.028 22.6223 17.0357 23.4674 17.051C24.3279 17.051 25.1653 17.0741 25.9796 17.1202C26.8093 17.1509 27.5776 17.2047 28.2844 17.2815L28.1 19.8168H22.3381C21.9232 19.8168 21.6083 19.9166 21.3931 20.1164C21.178 20.3161 21.0705 20.6081 21.0705 20.9922V33H17.5442V20.2777C17.5442 19.2943 17.8592 18.5107 18.4891 17.9269C19.1191 17.3276 19.9488 17.028 20.9783 17.028ZM17.959 23.7579H27.2472V26.247H17.959V23.7579ZM33.6923 21.6145V33H30.3043V21.6145H33.6923ZM32.7473 16.5901C33.4234 16.5901 33.7614 16.9358 33.7614 17.6272V18.8488C33.7614 19.5402 33.4234 19.8859 32.7473 19.8859H31.2723C30.5962 19.8859 30.2582 19.5402 30.2582 18.8488V17.6272C30.2582 16.9358 30.5962 16.5901 31.2723 16.5901H32.7473ZM40.0158 16.8667L39.9928 29.3585C39.9928 29.7426 40.108 30.0345 40.3385 30.2343C40.5689 30.4187 40.907 30.5109 41.3526 30.5109H42.2745L42.6663 32.8156C42.4819 32.9078 42.2207 32.9846 41.8827 33.0461C41.5446 33.1229 41.1989 33.1767 40.8455 33.2074C40.4921 33.2535 40.1925 33.2766 39.9467 33.2766C38.9172 33.2766 38.1028 33.0077 37.5036 32.4699C36.9044 31.9321 36.6048 31.1792 36.6048 30.2112V16.8667H40.0158ZM48.2998 18.457V29.3585C48.2998 29.7733 48.392 30.073 48.5764 30.2573C48.7761 30.4263 49.0988 30.5109 49.5444 30.5109H51.0194L51.3882 32.8156C51.1116 32.9078 50.7736 32.9846 50.3741 33.0461C49.9746 33.1229 49.5751 33.1767 49.1756 33.2074C48.7761 33.2535 48.4381 33.2766 48.1615 33.2766C47.1321 33.2766 46.3254 33 45.7415 32.4469C45.173 31.8937 44.8888 31.1178 44.8888 30.119L44.8657 18.457H48.2998ZM51.4804 21.6145V23.8501H42.8836V21.7297L45.0962 21.6145H51.4804ZM58.6979 21.3149C60.6185 21.3149 61.9937 21.6452 62.8234 22.3059C63.6685 22.9512 64.091 23.9192 64.091 25.2099C64.1064 26.2547 63.8452 27.0383 63.3074 27.5608C62.7696 28.0678 61.84 28.3213 60.5186 28.3213H54.1575V26.4084H59.5737C60.0961 26.4084 60.4264 26.3008 60.5647 26.0857C60.7184 25.8552 60.7952 25.5403 60.7952 25.1408C60.7798 24.603 60.6185 24.2342 60.3112 24.0345C60.0193 23.8194 59.5199 23.7118 58.8131 23.7118C58.1831 23.7118 57.6915 23.7963 57.3381 23.9653C56.9847 24.1343 56.7388 24.457 56.6005 24.9333C56.4623 25.4097 56.3931 26.1011 56.3931 27.0076C56.3931 27.9603 56.4776 28.6978 56.6466 29.2202C56.8157 29.7272 57.0999 30.0806 57.4994 30.2804C57.9143 30.4801 58.4828 30.58 59.2049 30.58C59.7273 30.58 60.3727 30.5646 61.1409 30.5339C61.9245 30.4878 62.7082 30.4187 63.4918 30.3265L63.8144 32.4238C63.3689 32.6389 62.8618 32.8079 62.2933 32.9309C61.7248 33.0538 61.1409 33.1383 60.5417 33.1844C59.9424 33.2458 59.3663 33.2766 58.8131 33.2766C57.3688 33.2766 56.201 33.0691 55.3099 32.6543C54.4341 32.2241 53.7964 31.571 53.3969 30.6952C53.0128 29.8194 52.8207 28.6978 52.8207 27.3303C52.8207 25.8399 53.0205 24.6568 53.42 23.781C53.8195 22.9051 54.4494 22.2752 55.3099 21.891C56.1703 21.5069 57.2997 21.3149 58.6979 21.3149ZM68.9876 21.6145L69.4024 23.8731L69.7251 24.1728V33H66.314V21.6145H68.9876ZM74.542 21.3149L74.2194 24.4724H73.2744C72.7366 24.4724 72.1758 24.5492 71.5919 24.7029C71.0081 24.8565 70.2705 25.087 69.3794 25.3943L69.1489 23.4813C69.9479 22.7745 70.7545 22.2368 71.5689 21.868C72.3832 21.4992 73.1745 21.3149 73.9428 21.3149H74.542ZM80.4827 21.3149C81.0359 21.3149 81.6351 21.3379 82.2804 21.384C82.9258 21.4147 83.5558 21.4608 84.1704 21.5223C84.785 21.5837 85.3304 21.6606 85.8067 21.7528L85.5763 23.8731C84.8387 23.8578 84.0935 23.8501 83.3406 23.8501C82.6031 23.8347 81.881 23.827 81.1742 23.827C80.5749 23.8117 80.114 23.8194 79.7913 23.8501C79.4686 23.8808 79.2382 23.9577 79.0999 24.0806C78.977 24.1881 78.9155 24.3879 78.9155 24.6798C78.9155 25.0178 79.0307 25.2483 79.2612 25.3712C79.4917 25.4788 79.8758 25.6017 80.4136 25.74L83.3867 26.4545C84.3394 26.7003 85.0462 27.0691 85.5071 27.5608C85.9681 28.0371 86.1985 28.7592 86.1985 29.7272C86.1985 30.6799 86.0218 31.4097 85.6684 31.9168C85.3151 32.4238 84.7542 32.7772 83.986 32.977C83.2177 33.1613 82.2267 33.2535 81.0128 33.2535C80.5365 33.2535 79.8297 33.2305 78.8924 33.1844C77.9552 33.1383 76.9257 33.023 75.8041 32.8387L76.0345 30.7183C76.3111 30.7337 76.6645 30.749 77.0947 30.7644C77.525 30.7644 77.9936 30.7644 78.5006 30.7644C79.0077 30.7644 79.5147 30.7644 80.0218 30.7644C80.8054 30.7644 81.4046 30.749 81.8195 30.7183C82.2344 30.6722 82.5186 30.58 82.6723 30.4417C82.8259 30.3034 82.9027 30.096 82.9027 29.8194C82.9027 29.4814 82.7721 29.2509 82.5109 29.128C82.2497 29.0051 81.8349 28.8745 81.2664 28.7362L78.3854 28.0217C77.6632 27.822 77.1024 27.5684 76.7029 27.2611C76.3034 26.9538 76.0192 26.5774 75.8502 26.1318C75.6965 25.6862 75.6197 25.1561 75.6197 24.5415C75.6197 23.7579 75.7733 23.1356 76.0806 22.6747C76.4033 22.1983 76.918 21.8526 77.6248 21.6375C78.347 21.4224 79.2996 21.3149 80.4827 21.3149Z" fill="#023047"/>
<path d="M1385.99 17.1931C1386.12 17.0676 1386.27 16.9681 1386.43 16.9002C1386.59 16.8323 1386.77 16.7974 1386.95 16.7974C1387.12 16.7974 1387.3 16.8323 1387.46 16.9002C1387.63 16.9681 1387.77 17.0676 1387.9 17.1931L1392.8 22.0893L1397.7 17.1931C1397.82 17.0678 1397.97 16.9683 1398.13 16.9005C1398.3 16.8327 1398.47 16.7978 1398.65 16.7978C1398.83 16.7978 1399 16.8327 1399.17 16.9005C1399.33 16.9683 1399.48 17.0678 1399.61 17.1931C1399.73 17.3184 1399.83 17.4672 1399.9 17.631C1399.97 17.7947 1400 17.9702 1400 18.1475C1400 18.3247 1399.97 18.5002 1399.9 18.664C1399.83 18.8278 1399.73 18.9766 1399.61 19.1019L1394.71 23.9999L1399.61 28.898C1399.86 29.1511 1400 29.4944 1400 29.8524C1400 30.2104 1399.86 30.5537 1399.61 30.8068C1399.35 31.0599 1399.01 31.2021 1398.65 31.2021C1398.29 31.2021 1397.95 31.0599 1397.7 30.8068L1392.8 25.9105L1387.9 30.8068C1387.65 31.0599 1387.3 31.2021 1386.95 31.2021C1386.59 31.2021 1386.24 31.0599 1385.99 30.8068C1385.74 30.5537 1385.6 30.2104 1385.6 29.8524C1385.6 29.4944 1385.74 29.1511 1385.99 28.898L1390.89 23.9999L1385.99 19.1019C1385.87 18.9766 1385.77 18.8278 1385.7 18.6641C1385.63 18.5003 1385.6 18.3248 1385.6 18.1475C1385.6 17.9702 1385.63 17.7947 1385.7 17.6309C1385.77 17.4671 1385.87 17.3184 1385.99 17.1931Z" fill="#023047"/>
<g clip-path="url(#clip0_2967_9149)">
<rect width="407" height="21" transform="translate(34.25 53.0498)" fill="#99B0C3"/>
<path d="M212.453 58.58C212.681 58.58 212.879 58.646 213.047 58.778C213.227 58.898 213.347 59.072 213.407 59.3L217.007 71H214.199L211.661 61.856C211.613 61.664 211.565 61.466 211.517 61.262C211.469 61.046 211.427 60.842 211.391 60.65H210.905C210.869 60.842 210.827 61.046 210.779 61.262C210.743 61.466 210.695 61.664 210.635 61.856L208.097 71H205.289L208.889 59.3C208.949 59.072 209.063 58.898 209.231 58.778C209.411 58.646 209.615 58.58 209.843 58.58H212.453ZM214.361 65.654V67.706H207.917V65.654H214.361ZM224.302 61.874C225.982 61.874 226.822 62.696 226.822 64.34V71H224.158V65.168C224.158 64.772 224.086 64.502 223.942 64.358C223.798 64.202 223.552 64.124 223.204 64.124C222.82 64.124 222.424 64.202 222.016 64.358C221.608 64.502 221.104 64.724 220.504 65.024L220.378 63.548C221.014 63.008 221.662 62.594 222.322 62.306C222.994 62.018 223.654 61.874 224.302 61.874ZM220.252 62.108L220.558 63.872L220.774 64.106V71H218.128V62.108H220.252ZM232.305 61.874C232.737 61.874 233.205 61.892 233.709 61.928C234.213 61.952 234.705 61.988 235.185 62.036C235.665 62.084 236.091 62.144 236.463 62.216L236.283 63.872C235.707 63.86 235.125 63.848 234.537 63.836C233.961 63.824 233.397 63.818 232.845 63.818C232.377 63.818 232.017 63.83 231.765 63.854C231.513 63.866 231.333 63.92 231.225 64.016C231.129 64.1 231.081 64.256 231.081 64.484C231.081 64.76 231.171 64.946 231.351 65.042C231.531 65.126 231.831 65.222 232.251 65.33L234.573 65.888C235.317 66.08 235.869 66.368 236.229 66.752C236.589 67.124 236.769 67.688 236.769 68.444C236.769 69.188 236.631 69.758 236.355 70.154C236.079 70.55 235.641 70.826 235.041 70.982C234.441 71.126 233.667 71.198 232.719 71.198C232.347 71.198 231.795 71.18 231.063 71.144C230.331 71.108 229.533 71.018 228.669 70.874L228.831 69.218C229.059 69.23 229.335 69.242 229.659 69.254C229.995 69.254 230.361 69.254 230.757 69.254C231.153 69.254 231.549 69.254 231.945 69.254C232.569 69.254 233.043 69.242 233.367 69.218C233.691 69.182 233.913 69.11 234.033 69.002C234.153 68.894 234.213 68.732 234.213 68.516C234.213 68.24 234.111 68.06 233.907 67.976C233.703 67.88 233.379 67.772 232.935 67.652L230.685 67.094C230.109 66.938 229.665 66.74 229.353 66.5C229.041 66.26 228.819 65.972 228.687 65.636C228.567 65.288 228.507 64.874 228.507 64.394C228.507 63.782 228.633 63.29 228.885 62.918C229.137 62.546 229.539 62.282 230.091 62.126C230.643 61.958 231.381 61.874 232.305 61.874ZM241.201 62.108V71H238.573V62.108H241.201ZM240.463 58.184C240.991 58.184 241.255 58.448 241.255 58.976V59.948C241.255 60.476 240.991 60.74 240.463 60.74H239.311C238.783 60.74 238.519 60.476 238.519 59.948V58.976C238.519 58.448 238.783 58.184 239.311 58.184H240.463ZM247.598 61.874C247.922 61.874 248.276 61.892 248.66 61.928C249.044 61.952 249.428 62.006 249.812 62.09C250.208 62.162 250.568 62.27 250.892 62.414L250.604 64.088C250.124 64.064 249.662 64.052 249.218 64.052C248.786 64.04 248.396 64.034 248.048 64.034C247.508 64.034 247.082 64.106 246.77 64.25C246.458 64.394 246.23 64.646 246.086 65.006C245.954 65.366 245.888 65.876 245.888 66.536C245.888 67.196 245.954 67.712 246.086 68.084C246.23 68.456 246.458 68.714 246.77 68.858C247.082 69.002 247.508 69.074 248.048 69.074C248.24 69.074 248.486 69.068 248.786 69.056C249.086 69.044 249.41 69.032 249.758 69.02C250.106 68.996 250.448 68.96 250.784 68.912L251.036 70.604C250.556 70.82 250.01 70.976 249.398 71.072C248.786 71.168 248.18 71.216 247.58 71.216C246.488 71.216 245.612 71.066 244.952 70.766C244.292 70.454 243.818 69.956 243.53 69.272C243.242 68.588 243.098 67.676 243.098 66.536C243.098 65.396 243.242 64.484 243.53 63.8C243.83 63.116 244.31 62.624 244.97 62.324C245.63 62.024 246.506 61.874 247.598 61.874ZM258.808 61.874C260.488 61.874 261.328 62.696 261.328 64.34V71H258.664V65.168C258.664 64.772 258.592 64.502 258.448 64.358C258.304 64.202 258.058 64.124 257.71 64.124C257.326 64.124 256.93 64.196 256.522 64.34C256.114 64.484 255.61 64.712 255.01 65.024L254.776 63.656C255.436 63.08 256.108 62.642 256.792 62.342C257.476 62.03 258.148 61.874 258.808 61.874ZM255.28 58.4L255.298 61.478C255.298 61.946 255.268 62.39 255.208 62.81C255.16 63.23 255.1 63.584 255.028 63.872L255.28 64.106V71H252.634V58.4H255.28ZM266.901 59.642V68.156C266.901 68.48 266.973 68.714 267.117 68.858C267.273 68.99 267.525 69.056 267.873 69.056H269.025L269.313 70.856C269.097 70.928 268.833 70.988 268.521 71.036C268.209 71.096 267.897 71.138 267.585 71.162C267.273 71.186 267.009 71.198 266.793 71.198C265.989 71.198 265.359 70.988 264.903 70.568C264.459 70.136 264.237 69.53 264.237 68.75V59.642H266.901ZM269.385 62.108V63.854H262.689V62.198L264.417 62.108H269.385Z" fill="#003A69"/>
</g>
<g clip-path="url(#clip1_2967_9149)">
<rect width="328" height="21" transform="translate(452.25 53.0498)" fill="#99B0C3"/>
<path d="M594.14 58.4498C595.124 58.4498 595.952 58.5578 596.624 58.7738C597.308 58.9778 597.854 59.3198 598.262 59.7998C598.682 60.2798 598.988 60.9338 599.18 61.7618C599.372 62.5778 599.468 63.6038 599.468 64.8398C599.468 66.0638 599.372 67.0898 599.18 67.9178C598.988 68.7338 598.682 69.3878 598.262 69.8798C597.854 70.3598 597.308 70.7018 596.624 70.9058C595.952 71.1098 595.124 71.2118 594.14 71.2118C593.204 71.2118 592.334 71.1938 591.53 71.1578C590.738 71.1338 589.988 71.0978 589.28 71.0498L590.414 69.0158C590.87 69.0398 591.41 69.0638 592.034 69.0878C592.67 69.0998 593.372 69.1058 594.14 69.1058C594.764 69.1058 595.25 68.9858 595.598 68.7458C595.958 68.4938 596.21 68.0558 596.354 67.4318C596.498 66.8078 596.57 65.9438 596.57 64.8398C596.57 63.7238 596.498 62.8598 596.354 62.2478C596.21 61.6238 595.958 61.1858 595.598 60.9338C595.25 60.6818 594.764 60.5558 594.14 60.5558C593.408 60.5558 592.754 60.5618 592.178 60.5738C591.602 60.5738 591.038 60.5738 590.486 60.5738L589.28 58.6298C590 58.5818 590.75 58.5398 591.53 58.5038C592.322 58.4678 593.192 58.4498 594.14 58.4498ZM592.016 58.6298V71.0498H589.28V58.6298H592.016ZM606.085 61.9238C606.829 61.9238 607.459 62.0258 607.975 62.2298C608.491 62.4218 608.881 62.7578 609.145 63.2378C609.421 63.7058 609.559 64.3478 609.559 65.1638V71.0498H607.453L607.075 69.1238L606.895 68.8538V65.1638C606.883 64.7318 606.775 64.4258 606.571 64.2458C606.379 64.0538 606.013 63.9578 605.473 63.9578C605.005 63.9578 604.429 63.9758 603.745 64.0118C603.061 64.0358 602.359 64.0718 601.639 64.1198L601.405 62.3558C601.837 62.2718 602.329 62.1998 602.881 62.1398C603.445 62.0798 604.009 62.0318 604.573 61.9958C605.137 61.9478 605.641 61.9238 606.085 61.9238ZM608.461 65.5778L608.443 67.0718H604.483C604.159 67.0838 603.925 67.1678 603.781 67.3238C603.649 67.4798 603.583 67.6898 603.583 67.9538V68.3858C603.583 68.6858 603.667 68.9198 603.835 69.0878C604.003 69.2438 604.273 69.3218 604.645 69.3218C604.957 69.3218 605.293 69.2558 605.653 69.1238C606.025 68.9918 606.391 68.8058 606.751 68.5658C607.111 68.3258 607.435 68.0438 607.723 67.7198V68.8718C607.615 69.0518 607.453 69.2798 607.237 69.5558C607.021 69.8198 606.751 70.0838 606.427 70.3478C606.103 70.5998 605.725 70.8158 605.293 70.9958C604.861 71.1638 604.369 71.2478 603.817 71.2478C603.289 71.2478 602.803 71.1578 602.359 70.9778C601.927 70.7858 601.585 70.5038 601.333 70.1318C601.081 69.7598 600.955 69.2978 600.955 68.7458V67.8278C600.955 67.1198 601.195 66.5678 601.675 66.1718C602.155 65.7758 602.815 65.5778 603.655 65.5778H608.461ZM615.126 59.6918V68.2058C615.126 68.5298 615.198 68.7638 615.342 68.9078C615.498 69.0398 615.75 69.1058 616.098 69.1058H617.25L617.538 70.9058C617.322 70.9778 617.058 71.0378 616.746 71.0858C616.434 71.1458 616.122 71.1878 615.81 71.2118C615.498 71.2358 615.234 71.2478 615.018 71.2478C614.214 71.2478 613.584 71.0378 613.128 70.6178C612.684 70.1858 612.462 69.5798 612.462 68.7998V59.6918H615.126ZM617.61 62.1578V63.9038H610.914V62.2478L612.642 62.1578H617.61ZM621.645 62.1578V68.0078C621.645 68.3798 621.723 68.6438 621.879 68.7998C622.047 68.9558 622.311 69.0338 622.671 69.0338C623.043 69.0338 623.409 68.9678 623.769 68.8358C624.141 68.6918 624.603 68.4698 625.155 68.1698L625.353 69.6278C624.705 70.1798 624.069 70.5938 623.445 70.8698C622.833 71.1458 622.191 71.2838 621.519 71.2838C619.839 71.2838 618.999 70.4618 618.999 68.8178V62.1578H621.645ZM627.531 62.1578V71.0498H625.443L625.137 69.3038L624.867 69.0518V62.1578H627.531ZM640.973 61.9238C641.777 61.9238 642.389 62.1338 642.809 62.5538C643.229 62.9738 643.439 63.5858 643.439 64.3898V71.0498H640.811V65.2178C640.799 64.8458 640.721 64.5818 640.577 64.4258C640.433 64.2578 640.181 64.1738 639.821 64.1738C639.617 64.1738 639.413 64.2038 639.209 64.2638C639.017 64.3118 638.795 64.4018 638.543 64.5338C638.291 64.6658 637.985 64.8458 637.625 65.0738L637.481 63.6158C638.057 63.0518 638.621 62.6318 639.173 62.3558C639.737 62.0678 640.337 61.9238 640.973 61.9238ZM631.829 62.1578L632.099 63.9218L632.369 64.1558V71.0498H629.723V62.1578H631.829ZM635.429 61.9238C636.221 61.9238 636.821 62.1338 637.229 62.5538C637.649 62.9618 637.859 63.5738 637.859 64.3898V71.0498H635.303V65.2178C635.303 64.8338 635.219 64.5638 635.051 64.4078C634.895 64.2518 634.649 64.1738 634.313 64.1738C634.109 64.1738 633.905 64.2038 633.701 64.2638C633.509 64.3118 633.281 64.4018 633.017 64.5338C632.765 64.6658 632.453 64.8458 632.081 65.0738L631.919 63.6158C632.507 63.0518 633.077 62.6318 633.629 62.3558C634.181 62.0678 634.781 61.9238 635.429 61.9238Z" fill="#003A69"/>
</g>
<g clip-path="url(#clip2_2967_9149)">
<rect width="234" height="21" transform="translate(34.75 375)" fill="#99B0C3"/>
<path d="M106.156 380.59C106.804 380.59 107.14 380.926 107.164 381.598L107.632 393.01H105.094L104.68 382.696H104.356L102.357 390.454C102.25 391.03 101.89 391.318 101.277 391.318H99.5495C98.9375 391.318 98.5715 391.03 98.4515 390.454L96.4355 382.696H96.1295L95.7515 393.01H93.2135L93.6635 381.598C93.6995 380.926 94.0415 380.59 94.6895 380.59H97.2635C97.8515 380.59 98.2115 380.878 98.3435 381.454L99.9455 387.718C100.018 388.006 100.078 388.3 100.126 388.6C100.174 388.888 100.228 389.182 100.288 389.482H100.522C100.582 389.182 100.636 388.888 100.684 388.6C100.744 388.3 100.804 388 100.864 387.7L102.448 381.454C102.568 380.878 102.934 380.59 103.546 380.59H106.156ZM114.436 383.884C115.18 383.884 115.81 383.986 116.326 384.19C116.842 384.382 117.232 384.718 117.496 385.198C117.772 385.666 117.91 386.308 117.91 387.124V393.01H115.804L115.426 391.084L115.246 390.814V387.124C115.234 386.692 115.126 386.386 114.922 386.206C114.73 386.014 114.364 385.918 113.824 385.918C113.356 385.918 112.78 385.936 112.096 385.972C111.412 385.996 110.71 386.032 109.99 386.08L109.756 384.316C110.188 384.232 110.68 384.16 111.232 384.1C111.796 384.04 112.36 383.992 112.924 383.956C113.488 383.908 113.992 383.884 114.436 383.884ZM116.812 387.538L116.794 389.032H112.834C112.51 389.044 112.276 389.128 112.132 389.284C112 389.44 111.934 389.65 111.934 389.914V390.346C111.934 390.646 112.018 390.88 112.186 391.048C112.354 391.204 112.624 391.282 112.996 391.282C113.308 391.282 113.644 391.216 114.004 391.084C114.376 390.952 114.742 390.766 115.102 390.526C115.462 390.286 115.786 390.004 116.074 389.68V390.832C115.966 391.012 115.804 391.24 115.588 391.516C115.372 391.78 115.102 392.044 114.778 392.308C114.454 392.56 114.076 392.776 113.644 392.956C113.212 393.124 112.72 393.208 112.168 393.208C111.64 393.208 111.154 393.118 110.71 392.938C110.278 392.746 109.936 392.464 109.684 392.092C109.432 391.72 109.306 391.258 109.306 390.706V389.788C109.306 389.08 109.546 388.528 110.026 388.132C110.506 387.736 111.166 387.538 112.006 387.538H116.812ZM122.092 384.118L122.416 385.882L122.668 386.116V393.01H120.022V384.118H122.092ZM126.43 383.884L126.178 386.332H125.44C125.02 386.332 124.582 386.392 124.126 386.512C123.67 386.632 123.094 386.818 122.398 387.07L122.218 385.576C122.842 385.024 123.472 384.604 124.108 384.316C124.744 384.028 125.362 383.884 125.962 383.884H126.43ZM136.289 384.118L133.967 387.214C133.859 387.382 133.721 387.544 133.553 387.7C133.385 387.856 133.247 387.97 133.139 388.042V388.096C133.247 388.168 133.385 388.3 133.553 388.492C133.721 388.672 133.859 388.858 133.967 389.05L136.595 393.01H133.625L130.583 388.006L133.319 384.118H136.289ZM130.349 380.41L130.367 385.612C130.367 386.032 130.343 386.44 130.295 386.836C130.247 387.232 130.175 387.622 130.079 388.006C130.163 388.366 130.229 388.744 130.277 389.14C130.325 389.536 130.349 389.896 130.349 390.22V393.01H127.703V380.41H130.349ZM131.591 387.25V388.87H129.521V387.25H131.591ZM141.214 381.652V390.166C141.214 390.49 141.286 390.724 141.43 390.868C141.586 391 141.838 391.066 142.186 391.066H143.338L143.626 392.866C143.41 392.938 143.146 392.998 142.834 393.046C142.522 393.106 142.21 393.148 141.898 393.172C141.586 393.196 141.322 393.208 141.106 393.208C140.302 393.208 139.672 392.998 139.216 392.578C138.772 392.146 138.55 391.54 138.55 390.76V381.652H141.214ZM143.698 384.118V385.864H137.002V384.208L138.73 384.118H143.698ZM153.727 384.118L151.405 387.214C151.297 387.382 151.159 387.544 150.991 387.7C150.823 387.856 150.685 387.97 150.577 388.042V388.096C150.685 388.168 150.823 388.3 150.991 388.492C151.159 388.672 151.297 388.858 151.405 389.05L154.033 393.01H151.063L148.021 388.006L150.757 384.118H153.727ZM147.787 380.41L147.805 385.612C147.805 386.032 147.781 386.44 147.733 386.836C147.685 387.232 147.613 387.622 147.517 388.006C147.601 388.366 147.667 388.744 147.715 389.14C147.763 389.536 147.787 389.896 147.787 390.22V393.01H145.141V380.41H147.787ZM149.029 387.25V388.87H146.959V387.25H149.029ZM159.091 383.884C160.207 383.884 161.101 384.04 161.773 384.352C162.445 384.652 162.925 385.144 163.213 385.828C163.513 386.512 163.663 387.43 163.663 388.582C163.663 389.71 163.513 390.616 163.213 391.3C162.925 391.984 162.445 392.476 161.773 392.776C161.101 393.076 160.207 393.226 159.091 393.226C157.987 393.226 157.099 393.076 156.427 392.776C155.755 392.476 155.269 391.984 154.969 391.3C154.669 390.616 154.519 389.71 154.519 388.582C154.519 387.43 154.669 386.512 154.969 385.828C155.269 385.144 155.755 384.652 156.427 384.352C157.099 384.04 157.987 383.884 159.091 383.884ZM159.091 385.81C158.635 385.81 158.275 385.888 158.011 386.044C157.747 386.2 157.561 386.476 157.453 386.872C157.345 387.268 157.291 387.838 157.291 388.582C157.291 389.302 157.345 389.86 157.453 390.256C157.561 390.652 157.747 390.928 158.011 391.084C158.275 391.228 158.635 391.3 159.091 391.3C159.559 391.3 159.925 391.228 160.189 391.084C160.453 390.928 160.633 390.652 160.729 390.256C160.837 389.86 160.891 389.302 160.891 388.582C160.891 387.838 160.837 387.268 160.729 386.872C160.633 386.476 160.453 386.2 160.189 386.044C159.925 385.888 159.559 385.81 159.091 385.81ZM171.67 383.884C173.35 383.884 174.19 384.706 174.19 386.35V393.01H171.526V387.178C171.526 386.782 171.454 386.512 171.31 386.368C171.166 386.212 170.92 386.134 170.572 386.134C170.188 386.134 169.792 386.212 169.384 386.368C168.976 386.512 168.472 386.734 167.872 387.034L167.746 385.558C168.382 385.018 169.03 384.604 169.69 384.316C170.362 384.028 171.022 383.884 171.67 383.884ZM167.62 384.118L167.926 385.882L168.142 386.116V393.01H165.496V384.118H167.62ZM179.763 381.652V390.166C179.763 390.49 179.835 390.724 179.979 390.868C180.135 391 180.387 391.066 180.735 391.066H181.887L182.175 392.866C181.959 392.938 181.695 392.998 181.383 393.046C181.071 393.106 180.759 393.148 180.447 393.172C180.135 393.196 179.871 393.208 179.655 393.208C178.851 393.208 178.221 392.998 177.765 392.578C177.321 392.146 177.099 391.54 177.099 390.76V381.652H179.763ZM182.247 384.118V385.864H175.551V384.208L177.279 384.118H182.247ZM187.884 383.884C189.384 383.884 190.458 384.142 191.106 384.658C191.766 385.162 192.096 385.918 192.096 386.926C192.108 387.73 191.904 388.336 191.484 388.744C191.064 389.152 190.338 389.356 189.306 389.356H184.338V387.862H188.586C188.982 387.862 189.234 387.778 189.342 387.61C189.462 387.43 189.522 387.184 189.522 386.872C189.522 386.452 189.402 386.164 189.162 386.008C188.934 385.84 188.538 385.756 187.974 385.756C187.482 385.744 187.098 385.81 186.822 385.954C186.546 386.086 186.354 386.338 186.246 386.71C186.138 387.082 186.084 387.622 186.084 388.33C186.084 389.074 186.15 389.65 186.282 390.058C186.414 390.454 186.636 390.73 186.948 390.886C187.272 391.042 187.716 391.12 188.28 391.12C188.688 391.12 189.192 391.108 189.792 391.084C190.404 391.048 191.016 390.994 191.628 390.922L191.88 392.56C191.532 392.728 191.136 392.86 190.692 392.956C190.248 393.052 189.792 393.118 189.324 393.154C188.856 393.202 188.406 393.226 187.974 393.226C186.846 393.226 185.94 393.064 185.256 392.74C184.572 392.404 184.074 391.894 183.762 391.21C183.462 390.526 183.312 389.65 183.312 388.582C183.312 387.418 183.462 386.494 183.762 385.81C184.074 385.126 184.566 384.634 185.238 384.334C185.91 384.034 186.792 383.884 187.884 383.884ZM202.545 384.118L199.971 388.456L202.743 393.01H200.043L197.415 388.456L199.845 384.118H202.545ZM195.795 384.118L198.225 388.456L195.615 393.01H192.897L195.669 388.456L193.113 384.118H195.795ZM199.233 387.592V389.248H196.443V387.592H199.233ZM207.484 381.652V390.166C207.484 390.49 207.556 390.724 207.7 390.868C207.856 391 208.108 391.066 208.456 391.066H209.608L209.896 392.866C209.68 392.938 209.416 392.998 209.104 393.046C208.792 393.106 208.48 393.148 208.168 393.172C207.856 393.196 207.592 393.208 207.376 393.208C206.572 393.208 205.942 392.998 205.486 392.578C205.042 392.146 204.82 391.54 204.82 390.76V381.652H207.484ZM209.968 384.118V385.864H203.272V384.208L205 384.118H209.968Z" fill="#003A69"/>
</g>
<g clip-path="url(#clip3_2967_9149)">
<rect width="234" height="21" transform="translate(289.75 375)" fill="#99B0C3"/>
<path d="M364.942 380.59C365.59 380.59 365.926 380.926 365.95 381.598L366.418 393.01H363.88L363.466 382.696H363.142L361.144 390.454C361.036 391.03 360.676 391.318 360.064 391.318H358.336C357.724 391.318 357.358 391.03 357.238 390.454L355.222 382.696H354.916L354.538 393.01H352L352.45 381.598C352.486 380.926 352.828 380.59 353.476 380.59H356.05C356.638 380.59 356.998 380.878 357.13 381.454L358.732 387.718C358.804 388.006 358.864 388.3 358.912 388.6C358.96 388.888 359.014 389.182 359.074 389.482H359.308C359.368 389.182 359.422 388.888 359.47 388.6C359.53 388.3 359.59 388 359.65 387.7L361.234 381.454C361.354 380.878 361.72 380.59 362.332 380.59H364.942ZM373.222 383.884C373.966 383.884 374.596 383.986 375.112 384.19C375.628 384.382 376.018 384.718 376.282 385.198C376.558 385.666 376.696 386.308 376.696 387.124V393.01H374.59L374.212 391.084L374.032 390.814V387.124C374.02 386.692 373.912 386.386 373.708 386.206C373.516 386.014 373.15 385.918 372.61 385.918C372.142 385.918 371.566 385.936 370.882 385.972C370.198 385.996 369.496 386.032 368.776 386.08L368.542 384.316C368.974 384.232 369.466 384.16 370.018 384.1C370.582 384.04 371.146 383.992 371.71 383.956C372.274 383.908 372.778 383.884 373.222 383.884ZM375.598 387.538L375.58 389.032H371.62C371.296 389.044 371.062 389.128 370.918 389.284C370.786 389.44 370.72 389.65 370.72 389.914V390.346C370.72 390.646 370.804 390.88 370.972 391.048C371.14 391.204 371.41 391.282 371.782 391.282C372.094 391.282 372.43 391.216 372.79 391.084C373.162 390.952 373.528 390.766 373.888 390.526C374.248 390.286 374.572 390.004 374.86 389.68V390.832C374.752 391.012 374.59 391.24 374.374 391.516C374.158 391.78 373.888 392.044 373.564 392.308C373.24 392.56 372.862 392.776 372.43 392.956C371.998 393.124 371.506 393.208 370.954 393.208C370.426 393.208 369.94 393.118 369.496 392.938C369.064 392.746 368.722 392.464 368.47 392.092C368.218 391.72 368.092 391.258 368.092 390.706V389.788C368.092 389.08 368.332 388.528 368.812 388.132C369.292 387.736 369.952 387.538 370.792 387.538H375.598ZM384.982 383.884C386.662 383.884 387.502 384.706 387.502 386.35V393.01H384.838V387.178C384.838 386.782 384.766 386.512 384.622 386.368C384.478 386.212 384.232 386.134 383.884 386.134C383.5 386.134 383.104 386.212 382.696 386.368C382.288 386.512 381.784 386.734 381.184 387.034L381.058 385.558C381.694 385.018 382.342 384.604 383.002 384.316C383.674 384.028 384.334 383.884 384.982 383.884ZM380.932 384.118L381.238 385.882L381.454 386.116V393.01H378.808V384.118H380.932ZM394.299 383.884C395.043 383.884 395.673 383.986 396.189 384.19C396.705 384.382 397.095 384.718 397.359 385.198C397.635 385.666 397.773 386.308 397.773 387.124V393.01H395.667L395.289 391.084L395.109 390.814V387.124C395.097 386.692 394.989 386.386 394.785 386.206C394.593 386.014 394.227 385.918 393.687 385.918C393.219 385.918 392.643 385.936 391.959 385.972C391.275 385.996 390.573 386.032 389.853 386.08L389.619 384.316C390.051 384.232 390.543 384.16 391.095 384.1C391.659 384.04 392.223 383.992 392.787 383.956C393.351 383.908 393.855 383.884 394.299 383.884ZM396.675 387.538L396.657 389.032H392.697C392.373 389.044 392.139 389.128 391.995 389.284C391.863 389.44 391.797 389.65 391.797 389.914V390.346C391.797 390.646 391.881 390.88 392.049 391.048C392.217 391.204 392.487 391.282 392.859 391.282C393.171 391.282 393.507 391.216 393.867 391.084C394.239 390.952 394.605 390.766 394.965 390.526C395.325 390.286 395.649 390.004 395.937 389.68V390.832C395.829 391.012 395.667 391.24 395.451 391.516C395.235 391.78 394.965 392.044 394.641 392.308C394.317 392.56 393.939 392.776 393.507 392.956C393.075 393.124 392.583 393.208 392.031 393.208C391.503 393.208 391.017 393.118 390.573 392.938C390.141 392.746 389.799 392.464 389.547 392.092C389.295 391.72 389.169 391.258 389.169 390.706V389.788C389.169 389.08 389.409 388.528 389.889 388.132C390.369 387.736 391.029 387.538 391.869 387.538H396.675ZM403.826 383.884C404.858 383.884 405.674 383.98 406.274 384.172C406.886 384.364 407.324 384.664 407.588 385.072C407.864 385.48 408.002 386.026 408.002 386.71C408.002 387.37 407.87 387.91 407.606 388.33C407.342 388.738 406.898 389.038 406.274 389.23C405.662 389.422 404.84 389.518 403.808 389.518C402.776 389.518 401.948 389.422 401.324 389.23C400.712 389.038 400.274 388.738 400.01 388.33C399.746 387.922 399.614 387.382 399.614 386.71C399.614 386.038 399.746 385.498 400.01 385.09C400.286 384.67 400.73 384.364 401.342 384.172C401.966 383.98 402.794 383.884 403.826 383.884ZM403.808 385.504C403.148 385.504 402.692 385.594 402.44 385.774C402.188 385.942 402.062 386.254 402.062 386.71C402.062 387.154 402.188 387.466 402.44 387.646C402.692 387.826 403.148 387.916 403.808 387.916C404.468 387.916 404.918 387.826 405.158 387.646C405.41 387.466 405.536 387.154 405.536 386.71C405.536 386.254 405.41 385.942 405.158 385.774C404.918 385.594 404.468 385.504 403.808 385.504ZM409.028 384.118L408.884 385.234L406.508 385.54L405.86 384.118H409.028ZM401.144 388.978L402.458 389.194C402.29 389.302 402.17 389.458 402.098 389.662C402.038 389.866 402.056 390.058 402.152 390.238C402.248 390.418 402.458 390.526 402.782 390.562L406.058 390.94C406.994 391.036 407.654 391.3 408.038 391.732C408.422 392.152 408.614 392.77 408.614 393.586C408.614 394.354 408.458 394.942 408.146 395.35C407.834 395.77 407.336 396.058 406.652 396.214C405.968 396.37 405.056 396.448 403.916 396.448C402.98 396.448 402.206 396.4 401.594 396.304C400.994 396.22 400.52 396.076 400.172 395.872C399.824 395.668 399.578 395.398 399.434 395.062C399.29 394.738 399.218 394.33 399.218 393.838C399.218 393.466 399.284 393.148 399.416 392.884C399.548 392.608 399.776 392.362 400.1 392.146C400.424 391.93 400.868 391.732 401.432 391.552L402.746 391.084L403.7 391.444L402.98 391.93C402.68 392.146 402.434 392.332 402.242 392.488C402.062 392.632 401.93 392.776 401.846 392.92C401.774 393.064 401.738 393.256 401.738 393.496C401.738 393.772 401.798 393.982 401.918 394.126C402.038 394.282 402.254 394.384 402.566 394.432C402.89 394.492 403.328 394.522 403.88 394.522C404.468 394.522 404.918 394.492 405.23 394.432C405.554 394.384 405.776 394.288 405.896 394.144C406.028 394 406.094 393.796 406.094 393.532C406.094 393.304 406.052 393.136 405.968 393.028C405.884 392.92 405.734 392.836 405.518 392.776C405.302 392.716 405.008 392.668 404.636 392.632L401.846 392.326C401.39 392.278 401.024 392.152 400.748 391.948C400.484 391.732 400.304 391.48 400.208 391.192C400.112 390.904 400.082 390.61 400.118 390.31C400.166 390.01 400.28 389.74 400.46 389.5C400.64 389.26 400.868 389.086 401.144 388.978ZM414.449 383.884C415.949 383.884 417.023 384.142 417.671 384.658C418.331 385.162 418.661 385.918 418.661 386.926C418.673 387.73 418.469 388.336 418.049 388.744C417.629 389.152 416.903 389.356 415.871 389.356H410.903V387.862H415.151C415.547 387.862 415.799 387.778 415.907 387.61C416.027 387.43 416.087 387.184 416.087 386.872C416.087 386.452 415.967 386.164 415.727 386.008C415.499 385.84 415.103 385.756 414.539 385.756C414.047 385.744 413.663 385.81 413.387 385.954C413.111 386.086 412.919 386.338 412.811 386.71C412.703 387.082 412.649 387.622 412.649 388.33C412.649 389.074 412.715 389.65 412.847 390.058C412.979 390.454 413.201 390.73 413.513 390.886C413.837 391.042 414.281 391.12 414.845 391.12C415.253 391.12 415.757 391.108 416.357 391.084C416.969 391.048 417.581 390.994 418.193 390.922L418.445 392.56C418.097 392.728 417.701 392.86 417.257 392.956C416.813 393.052 416.357 393.118 415.889 393.154C415.421 393.202 414.971 393.226 414.539 393.226C413.411 393.226 412.505 393.064 411.821 392.74C411.137 392.404 410.639 391.894 410.327 391.21C410.027 390.526 409.877 389.65 409.877 388.582C409.877 387.418 410.027 386.494 410.327 385.81C410.639 385.126 411.131 384.634 411.803 384.334C412.475 384.034 413.357 383.884 414.449 383.884ZM431.665 383.884C432.469 383.884 433.081 384.094 433.501 384.514C433.921 384.934 434.131 385.546 434.131 386.35V393.01H431.503V387.178C431.491 386.806 431.413 386.542 431.269 386.386C431.125 386.218 430.873 386.134 430.513 386.134C430.309 386.134 430.105 386.164 429.901 386.224C429.709 386.272 429.487 386.362 429.235 386.494C428.983 386.626 428.677 386.806 428.317 387.034L428.173 385.576C428.749 385.012 429.313 384.592 429.865 384.316C430.429 384.028 431.029 383.884 431.665 383.884ZM422.521 384.118L422.791 385.882L423.061 386.116V393.01H420.415V384.118H422.521ZM426.121 383.884C426.913 383.884 427.513 384.094 427.921 384.514C428.341 384.922 428.551 385.534 428.551 386.35V393.01H425.995V387.178C425.995 386.794 425.911 386.524 425.743 386.368C425.587 386.212 425.341 386.134 425.005 386.134C424.801 386.134 424.597 386.164 424.393 386.224C424.201 386.272 423.973 386.362 423.709 386.494C423.457 386.626 423.145 386.806 422.773 387.034L422.611 385.576C423.199 385.012 423.769 384.592 424.321 384.316C424.873 384.028 425.473 383.884 426.121 383.884ZM440.465 383.884C441.965 383.884 443.039 384.142 443.687 384.658C444.347 385.162 444.677 385.918 444.677 386.926C444.689 387.73 444.485 388.336 444.065 388.744C443.645 389.152 442.919 389.356 441.887 389.356H436.919V387.862H441.167C441.563 387.862 441.815 387.778 441.923 387.61C442.043 387.43 442.103 387.184 442.103 386.872C442.103 386.452 441.983 386.164 441.743 386.008C441.515 385.84 441.119 385.756 440.555 385.756C440.063 385.744 439.679 385.81 439.403 385.954C439.127 386.086 438.935 386.338 438.827 386.71C438.719 387.082 438.665 387.622 438.665 388.33C438.665 389.074 438.731 389.65 438.863 390.058C438.995 390.454 439.217 390.73 439.529 390.886C439.853 391.042 440.297 391.12 440.861 391.12C441.269 391.12 441.773 391.108 442.373 391.084C442.985 391.048 443.597 390.994 444.209 390.922L444.461 392.56C444.113 392.728 443.717 392.86 443.273 392.956C442.829 393.052 442.373 393.118 441.905 393.154C441.437 393.202 440.987 393.226 440.555 393.226C439.427 393.226 438.521 393.064 437.837 392.74C437.153 392.404 436.655 391.894 436.343 391.21C436.043 390.526 435.893 389.65 435.893 388.582C435.893 387.418 436.043 386.494 436.343 385.81C436.655 385.126 437.147 384.634 437.819 384.334C438.491 384.034 439.373 383.884 440.465 383.884ZM452.605 383.884C454.285 383.884 455.125 384.706 455.125 386.35V393.01H452.461V387.178C452.461 386.782 452.389 386.512 452.245 386.368C452.101 386.212 451.855 386.134 451.507 386.134C451.123 386.134 450.727 386.212 450.319 386.368C449.911 386.512 449.407 386.734 448.807 387.034L448.681 385.558C449.317 385.018 449.965 384.604 450.625 384.316C451.297 384.028 451.957 383.884 452.605 383.884ZM448.555 384.118L448.861 385.882L449.077 386.116V393.01H446.431V384.118H448.555ZM460.698 381.652V390.166C460.698 390.49 460.77 390.724 460.914 390.868C461.07 391 461.322 391.066 461.67 391.066H462.822L463.11 392.866C462.894 392.938 462.63 392.998 462.318 393.046C462.006 393.106 461.694 393.148 461.382 393.172C461.07 393.196 460.806 393.208 460.59 393.208C459.786 393.208 459.156 392.998 458.7 392.578C458.256 392.146 458.034 391.54 458.034 390.76V381.652H460.698ZM463.182 384.118V385.864H456.486V384.208L458.214 384.118H463.182Z" fill="#003A69"/>
</g>
<g clip-path="url(#clip4_2967_9149)">
<rect width="246" height="21" transform="translate(538.75 375)" fill="#99B0C3"/>
<path d="M556.422 380.58L553.182 385.584C553.05 385.8 552.906 385.986 552.75 386.142C552.594 386.286 552.438 386.412 552.282 386.52V386.574C552.45 386.682 552.63 386.832 552.822 387.024C553.014 387.216 553.17 387.414 553.29 387.618L556.638 393H553.578L549.726 386.502L553.452 380.58H556.422ZM549.312 380.58V384.09C549.312 384.498 549.282 384.906 549.222 385.314C549.162 385.71 549.066 386.1 548.934 386.484C549.03 386.844 549.114 387.222 549.186 387.618C549.27 388.014 549.312 388.38 549.312 388.716V393H546.576V380.58H549.312ZM550.716 385.584V387.492H548.484V385.584H550.716ZM560.327 384.108V389.958C560.327 390.33 560.405 390.594 560.561 390.75C560.729 390.906 560.993 390.984 561.353 390.984C561.725 390.984 562.091 390.918 562.451 390.786C562.823 390.642 563.285 390.42 563.837 390.12L564.035 391.578C563.387 392.13 562.751 392.544 562.127 392.82C561.515 393.096 560.873 393.234 560.201 393.234C558.521 393.234 557.681 392.412 557.681 390.768V384.108H560.327ZM566.213 384.108V393H564.125L563.819 391.254L563.549 391.002V384.108H566.213ZM574.579 383.874C576.259 383.874 577.099 384.696 577.099 386.34V393H574.435V387.168C574.435 386.772 574.363 386.502 574.219 386.358C574.075 386.202 573.829 386.124 573.481 386.124C573.097 386.124 572.701 386.202 572.293 386.358C571.885 386.502 571.381 386.724 570.781 387.024L570.655 385.548C571.291 385.008 571.939 384.594 572.599 384.306C573.271 384.018 573.931 383.874 574.579 383.874ZM570.529 384.108L570.835 385.872L571.051 386.106V393H568.405V384.108H570.529ZM582.239 383.874C582.875 383.874 583.481 383.964 584.057 384.144C584.633 384.324 585.143 384.618 585.587 385.026L585.407 386.232C585.011 386.112 584.645 386.01 584.309 385.926C583.985 385.83 583.607 385.782 583.175 385.782C582.803 385.782 582.503 385.848 582.275 385.98C582.047 386.112 581.879 386.37 581.771 386.754C581.663 387.138 581.609 387.708 581.609 388.464C581.609 389.172 581.657 389.712 581.753 390.084C581.861 390.444 582.023 390.696 582.239 390.84C582.467 390.972 582.755 391.038 583.103 391.038C583.415 391.038 583.685 391.008 583.913 390.948C584.141 390.876 584.369 390.774 584.597 390.642C584.825 390.498 585.089 390.324 585.389 390.12L585.569 391.434C585.209 391.938 584.741 392.364 584.165 392.712C583.589 393.048 582.881 393.216 582.041 393.216C580.901 393.216 580.085 392.808 579.593 391.992C579.113 391.176 578.873 390.006 578.873 388.482C578.873 387.294 578.999 386.37 579.251 385.71C579.503 385.038 579.875 384.564 580.367 384.288C580.871 384.012 581.495 383.874 582.239 383.874ZM587.765 380.4V393H585.659L585.389 391.362L585.101 391.164V385.332L585.209 385.08C585.173 384.72 585.143 384.354 585.119 383.982C585.107 383.598 585.101 383.208 585.101 382.812V380.4H587.765ZM594.149 383.874C595.649 383.874 596.723 384.132 597.371 384.648C598.031 385.152 598.361 385.908 598.361 386.916C598.373 387.72 598.169 388.326 597.749 388.734C597.329 389.142 596.603 389.346 595.571 389.346H590.603V387.852H594.851C595.247 387.852 595.499 387.768 595.607 387.6C595.727 387.42 595.787 387.174 595.787 386.862C595.787 386.442 595.667 386.154 595.427 385.998C595.199 385.83 594.803 385.746 594.239 385.746C593.747 385.734 593.363 385.8 593.087 385.944C592.811 386.076 592.619 386.328 592.511 386.7C592.403 387.072 592.349 387.612 592.349 388.32C592.349 389.064 592.415 389.64 592.547 390.048C592.679 390.444 592.901 390.72 593.213 390.876C593.537 391.032 593.981 391.11 594.545 391.11C594.953 391.11 595.457 391.098 596.057 391.074C596.669 391.038 597.281 390.984 597.893 390.912L598.145 392.55C597.797 392.718 597.401 392.85 596.957 392.946C596.513 393.042 596.057 393.108 595.589 393.144C595.121 393.192 594.671 393.216 594.239 393.216C593.111 393.216 592.205 393.054 591.521 392.73C590.837 392.394 590.339 391.884 590.027 391.2C589.727 390.516 589.577 389.64 589.577 388.572C589.577 387.408 589.727 386.484 590.027 385.8C590.339 385.116 590.831 384.624 591.503 384.324C592.175 384.024 593.057 383.874 594.149 383.874ZM606.29 383.874C607.97 383.874 608.81 384.696 608.81 386.34V393H606.146V387.168C606.146 386.772 606.074 386.502 605.93 386.358C605.786 386.202 605.54 386.124 605.192 386.124C604.808 386.124 604.412 386.202 604.004 386.358C603.596 386.502 603.092 386.724 602.492 387.024L602.366 385.548C603.002 385.008 603.65 384.594 604.31 384.306C604.982 384.018 605.642 383.874 606.29 383.874ZM602.24 384.108L602.546 385.872L602.762 386.106V393H600.116V384.108H602.24ZM617.42 384.108V389.958C617.42 390.33 617.498 390.594 617.654 390.75C617.822 390.906 618.086 390.984 618.446 390.984C618.818 390.984 619.184 390.918 619.544 390.786C619.916 390.642 620.378 390.42 620.93 390.12L621.128 391.578C620.48 392.13 619.844 392.544 619.22 392.82C618.608 393.096 617.966 393.234 617.294 393.234C615.614 393.234 614.774 392.412 614.774 390.768V384.108H617.42ZM623.306 384.108V393H621.218L620.912 391.254L620.642 391.002V384.108H623.306ZM631.672 383.874C633.352 383.874 634.192 384.696 634.192 386.34V393H631.528V387.168C631.528 386.772 631.456 386.502 631.312 386.358C631.168 386.202 630.922 386.124 630.574 386.124C630.19 386.124 629.794 386.202 629.386 386.358C628.978 386.502 628.474 386.724 627.874 387.024L627.748 385.548C628.384 385.008 629.032 384.594 629.692 384.306C630.364 384.018 631.024 383.874 631.672 383.874ZM627.622 384.108L627.928 385.872L628.144 386.106V393H625.498V384.108H627.622ZM639.333 383.874C639.969 383.874 640.575 383.964 641.151 384.144C641.727 384.324 642.237 384.618 642.681 385.026L642.501 386.232C642.105 386.112 641.739 386.01 641.403 385.926C641.079 385.83 640.701 385.782 640.269 385.782C639.897 385.782 639.597 385.848 639.369 385.98C639.141 386.112 638.973 386.37 638.865 386.754C638.757 387.138 638.703 387.708 638.703 388.464C638.703 389.172 638.751 389.712 638.847 390.084C638.955 390.444 639.117 390.696 639.333 390.84C639.561 390.972 639.849 391.038 640.197 391.038C640.509 391.038 640.779 391.008 641.007 390.948C641.235 390.876 641.463 390.774 641.691 390.642C641.919 390.498 642.183 390.324 642.483 390.12L642.663 391.434C642.303 391.938 641.835 392.364 641.259 392.712C640.683 393.048 639.975 393.216 639.135 393.216C637.995 393.216 637.179 392.808 636.687 391.992C636.207 391.176 635.967 390.006 635.967 388.482C635.967 387.294 636.093 386.37 636.345 385.71C636.597 385.038 636.969 384.564 637.461 384.288C637.965 384.012 638.589 383.874 639.333 383.874ZM644.859 380.4V393H642.753L642.483 391.362L642.195 391.164V385.332L642.303 385.08C642.267 384.72 642.237 384.354 642.213 383.982C642.201 383.598 642.195 383.208 642.195 382.812V380.4H644.859ZM655.884 380.4C656.976 380.4 657.858 380.514 658.53 380.742C659.214 380.958 659.712 381.33 660.024 381.858C660.348 382.386 660.51 383.13 660.51 384.09C660.51 384.666 660.432 385.176 660.276 385.62C660.132 386.052 659.886 386.4 659.538 386.664C659.19 386.928 658.716 387.096 658.116 387.168V387.258C658.332 387.294 658.554 387.378 658.782 387.51C659.022 387.642 659.244 387.84 659.448 388.104C659.652 388.356 659.802 388.698 659.898 389.13L660.978 393H658.098L657.144 389.202C657.024 388.794 656.862 388.518 656.658 388.374C656.454 388.218 656.16 388.14 655.776 388.14C654.96 388.128 654.276 388.122 653.724 388.122C653.172 388.122 652.704 388.116 652.32 388.104C651.948 388.092 651.606 388.08 651.294 388.068L651.348 386.07H655.83C656.322 386.07 656.706 386.022 656.982 385.926C657.258 385.818 657.456 385.632 657.576 385.368C657.696 385.104 657.756 384.732 657.756 384.252C657.756 383.772 657.696 383.406 657.576 383.154C657.456 382.902 657.258 382.728 656.982 382.632C656.706 382.524 656.322 382.47 655.83 382.47C654.714 382.47 653.76 382.476 652.968 382.488C652.188 382.5 651.66 382.512 651.384 382.524L651.114 380.58C651.618 380.52 652.086 380.478 652.518 380.454C652.962 380.43 653.448 380.418 653.976 380.418C654.504 380.406 655.14 380.4 655.884 380.4ZM653.814 380.58V393H651.114V380.58H653.814ZM666.712 383.874C668.212 383.874 669.286 384.132 669.934 384.648C670.594 385.152 670.924 385.908 670.924 386.916C670.936 387.72 670.732 388.326 670.312 388.734C669.892 389.142 669.166 389.346 668.134 389.346H663.166V387.852H667.414C667.81 387.852 668.062 387.768 668.17 387.6C668.29 387.42 668.35 387.174 668.35 386.862C668.35 386.442 668.23 386.154 667.99 385.998C667.762 385.83 667.366 385.746 666.802 385.746C666.31 385.734 665.926 385.8 665.65 385.944C665.374 386.076 665.182 386.328 665.074 386.7C664.966 387.072 664.912 387.612 664.912 388.32C664.912 389.064 664.978 389.64 665.11 390.048C665.242 390.444 665.464 390.72 665.776 390.876C666.1 391.032 666.544 391.11 667.108 391.11C667.516 391.11 668.02 391.098 668.62 391.074C669.232 391.038 669.844 390.984 670.456 390.912L670.708 392.55C670.36 392.718 669.964 392.85 669.52 392.946C669.076 393.042 668.62 393.108 668.152 393.144C667.684 393.192 667.234 393.216 666.802 393.216C665.674 393.216 664.768 393.054 664.084 392.73C663.4 392.394 662.902 391.884 662.59 391.2C662.29 390.516 662.14 389.64 662.14 388.572C662.14 387.408 662.29 386.484 662.59 385.8C662.902 385.116 663.394 384.624 664.066 384.324C664.738 384.024 665.62 383.874 666.712 383.874ZM681.264 384.108L678.942 387.204C678.834 387.372 678.696 387.534 678.528 387.69C678.36 387.846 678.222 387.96 678.114 388.032V388.086C678.222 388.158 678.36 388.29 678.528 388.482C678.696 388.662 678.834 388.848 678.942 389.04L681.57 393H678.6L675.558 387.996L678.294 384.108H681.264ZM675.324 380.4L675.342 385.602C675.342 386.022 675.318 386.43 675.27 386.826C675.222 387.222 675.15 387.612 675.054 387.996C675.138 388.356 675.204 388.734 675.252 389.13C675.3 389.526 675.324 389.886 675.324 390.21V393H672.678V380.4H675.324ZM676.566 387.24V388.86H674.496V387.24H676.566ZM685.397 380.4L685.379 390.156C685.379 390.456 685.469 390.684 685.649 390.84C685.829 390.984 686.093 391.056 686.441 391.056H687.161L687.467 392.856C687.323 392.928 687.119 392.988 686.855 393.036C686.591 393.096 686.321 393.138 686.045 393.162C685.769 393.186 685.535 393.198 685.343 393.198C684.539 393.198 683.903 392.994 683.435 392.586C682.979 392.166 682.751 391.578 682.751 390.822V380.4H685.397ZM693.319 383.874C694.063 383.874 694.693 383.976 695.209 384.18C695.725 384.372 696.115 384.708 696.379 385.188C696.655 385.656 696.793 386.298 696.793 387.114V393H694.687L694.309 391.074L694.129 390.804V387.114C694.117 386.682 694.009 386.376 693.805 386.196C693.613 386.004 693.247 385.908 692.707 385.908C692.239 385.908 691.663 385.926 690.979 385.962C690.295 385.986 689.593 386.022 688.873 386.07L688.639 384.306C689.071 384.222 689.563 384.15 690.115 384.09C690.679 384.03 691.243 383.982 691.807 383.946C692.371 383.898 692.875 383.874 693.319 383.874ZM695.695 387.528L695.677 389.022H691.717C691.393 389.034 691.159 389.118 691.015 389.274C690.883 389.43 690.817 389.64 690.817 389.904V390.336C690.817 390.636 690.901 390.87 691.069 391.038C691.237 391.194 691.507 391.272 691.879 391.272C692.191 391.272 692.527 391.206 692.887 391.074C693.259 390.942 693.625 390.756 693.985 390.516C694.345 390.276 694.669 389.994 694.957 389.67V390.822C694.849 391.002 694.687 391.23 694.471 391.506C694.255 391.77 693.985 392.034 693.661 392.298C693.337 392.55 692.959 392.766 692.527 392.946C692.095 393.114 691.603 393.198 691.051 393.198C690.523 393.198 690.037 393.108 689.593 392.928C689.161 392.736 688.819 392.454 688.567 392.082C688.315 391.71 688.189 391.248 688.189 390.696V389.778C688.189 389.07 688.429 388.518 688.909 388.122C689.389 387.726 690.049 387.528 690.889 387.528H695.695ZM710.155 383.874C710.959 383.874 711.571 384.084 711.991 384.504C712.411 384.924 712.621 385.536 712.621 386.34V393H709.993V387.168C709.981 386.796 709.903 386.532 709.759 386.376C709.615 386.208 709.363 386.124 709.003 386.124C708.799 386.124 708.595 386.154 708.391 386.214C708.199 386.262 707.977 386.352 707.725 386.484C707.473 386.616 707.167 386.796 706.807 387.024L706.663 385.566C707.239 385.002 707.803 384.582 708.355 384.306C708.919 384.018 709.519 383.874 710.155 383.874ZM701.011 384.108L701.281 385.872L701.551 386.106V393H698.905V384.108H701.011ZM704.611 383.874C705.403 383.874 706.003 384.084 706.411 384.504C706.831 384.912 707.041 385.524 707.041 386.34V393H704.485V387.168C704.485 386.784 704.401 386.514 704.233 386.358C704.077 386.202 703.831 386.124 703.495 386.124C703.291 386.124 703.087 386.154 702.883 386.214C702.691 386.262 702.463 386.352 702.199 386.484C701.947 386.616 701.635 386.796 701.263 387.024L701.101 385.566C701.689 385.002 702.259 384.582 702.811 384.306C703.363 384.018 703.963 383.874 704.611 383.874ZM719.44 383.874C720.184 383.874 720.814 383.976 721.33 384.18C721.846 384.372 722.236 384.708 722.5 385.188C722.776 385.656 722.914 386.298 722.914 387.114V393H720.808L720.43 391.074L720.25 390.804V387.114C720.238 386.682 720.13 386.376 719.926 386.196C719.734 386.004 719.368 385.908 718.828 385.908C718.36 385.908 717.784 385.926 717.1 385.962C716.416 385.986 715.714 386.022 714.994 386.07L714.76 384.306C715.192 384.222 715.684 384.15 716.236 384.09C716.8 384.03 717.364 383.982 717.928 383.946C718.492 383.898 718.996 383.874 719.44 383.874ZM721.816 387.528L721.798 389.022H717.838C717.514 389.034 717.28 389.118 717.136 389.274C717.004 389.43 716.938 389.64 716.938 389.904V390.336C716.938 390.636 717.022 390.87 717.19 391.038C717.358 391.194 717.628 391.272 718 391.272C718.312 391.272 718.648 391.206 719.008 391.074C719.38 390.942 719.746 390.756 720.106 390.516C720.466 390.276 720.79 389.994 721.078 389.67V390.822C720.97 391.002 720.808 391.23 720.592 391.506C720.376 391.77 720.106 392.034 719.782 392.298C719.458 392.55 719.08 392.766 718.648 392.946C718.216 393.114 717.724 393.198 717.172 393.198C716.644 393.198 716.158 393.108 715.714 392.928C715.282 392.736 714.94 392.454 714.688 392.082C714.436 391.71 714.31 391.248 714.31 390.696V389.778C714.31 389.07 714.55 388.518 715.03 388.122C715.51 387.726 716.17 387.528 717.01 387.528H721.816ZM728.482 381.642V390.156C728.482 390.48 728.554 390.714 728.698 390.858C728.854 390.99 729.106 391.056 729.454 391.056H730.606L730.894 392.856C730.678 392.928 730.414 392.988 730.102 393.036C729.79 393.096 729.478 393.138 729.166 393.162C728.854 393.186 728.59 393.198 728.374 393.198C727.57 393.198 726.94 392.988 726.484 392.568C726.04 392.136 725.818 391.53 725.818 390.75V381.642H728.482ZM730.966 384.108V385.854H724.27V384.198L725.998 384.108H730.966ZM735.109 384.108V393H732.481V384.108H735.109ZM734.371 380.184C734.899 380.184 735.163 380.448 735.163 380.976V381.948C735.163 382.476 734.899 382.74 734.371 382.74H733.219C732.691 382.74 732.427 382.476 732.427 381.948V380.976C732.427 380.448 732.691 380.184 733.219 380.184H734.371ZM741.595 383.874C742.711 383.874 743.605 384.03 744.277 384.342C744.949 384.642 745.429 385.134 745.717 385.818C746.017 386.502 746.167 387.42 746.167 388.572C746.167 389.7 746.017 390.606 745.717 391.29C745.429 391.974 744.949 392.466 744.277 392.766C743.605 393.066 742.711 393.216 741.595 393.216C740.491 393.216 739.603 393.066 738.931 392.766C738.259 392.466 737.773 391.974 737.473 391.29C737.173 390.606 737.023 389.7 737.023 388.572C737.023 387.42 737.173 386.502 737.473 385.818C737.773 385.134 738.259 384.642 738.931 384.342C739.603 384.03 740.491 383.874 741.595 383.874ZM741.595 385.8C741.139 385.8 740.779 385.878 740.515 386.034C740.251 386.19 740.065 386.466 739.957 386.862C739.849 387.258 739.795 387.828 739.795 388.572C739.795 389.292 739.849 389.85 739.957 390.246C740.065 390.642 740.251 390.918 740.515 391.074C740.779 391.218 741.139 391.29 741.595 391.29C742.063 391.29 742.429 391.218 742.693 391.074C742.957 390.918 743.137 390.642 743.233 390.246C743.341 389.85 743.395 389.292 743.395 388.572C743.395 387.828 743.341 387.258 743.233 386.862C743.137 386.466 742.957 386.19 742.693 386.034C742.429 385.878 742.063 385.8 741.595 385.8ZM754.174 383.874C755.854 383.874 756.694 384.696 756.694 386.34V393H754.03V387.168C754.03 386.772 753.958 386.502 753.814 386.358C753.67 386.202 753.424 386.124 753.076 386.124C752.692 386.124 752.296 386.202 751.888 386.358C751.48 386.502 750.976 386.724 750.376 387.024L750.25 385.548C750.886 385.008 751.534 384.594 752.194 384.306C752.866 384.018 753.526 383.874 754.174 383.874ZM750.124 384.108L750.43 385.872L750.646 386.106V393H748V384.108H750.124ZM763.005 383.874C764.505 383.874 765.579 384.132 766.227 384.648C766.887 385.152 767.217 385.908 767.217 386.916C767.229 387.72 767.025 388.326 766.605 388.734C766.185 389.142 765.459 389.346 764.427 389.346H759.459V387.852H763.707C764.103 387.852 764.355 387.768 764.463 387.6C764.583 387.42 764.643 387.174 764.643 386.862C764.643 386.442 764.523 386.154 764.283 385.998C764.055 385.83 763.659 385.746 763.095 385.746C762.603 385.734 762.219 385.8 761.943 385.944C761.667 386.076 761.475 386.328 761.367 386.7C761.259 387.072 761.205 387.612 761.205 388.32C761.205 389.064 761.271 389.64 761.403 390.048C761.535 390.444 761.757 390.72 762.069 390.876C762.393 391.032 762.837 391.11 763.401 391.11C763.809 391.11 764.313 391.098 764.913 391.074C765.525 391.038 766.137 390.984 766.749 390.912L767.001 392.55C766.653 392.718 766.257 392.85 765.813 392.946C765.369 393.042 764.913 393.108 764.445 393.144C763.977 393.192 763.527 393.216 763.095 393.216C761.967 393.216 761.061 393.054 760.377 392.73C759.693 392.394 759.195 391.884 758.883 391.2C758.583 390.516 758.433 389.64 758.433 388.572C758.433 387.408 758.583 386.484 758.883 385.8C759.195 385.116 759.687 384.624 760.359 384.324C761.031 384.024 761.913 383.874 763.005 383.874ZM775.145 383.874C776.825 383.874 777.665 384.696 777.665 386.34V393H775.001V387.168C775.001 386.772 774.929 386.502 774.785 386.358C774.641 386.202 774.395 386.124 774.047 386.124C773.663 386.124 773.267 386.202 772.859 386.358C772.451 386.502 771.947 386.724 771.347 387.024L771.221 385.548C771.857 385.008 772.505 384.594 773.165 384.306C773.837 384.018 774.497 383.874 775.145 383.874ZM771.095 384.108L771.401 385.872L771.617 386.106V393H768.971V384.108H771.095Z" fill="#003A69"/>
</g>
<g clip-path="url(#clip5_2967_9149)">
<rect width="575" height="21" transform="translate(806.75 53.0498)" fill="#99B0C3"/>
<path d="M972.427 58.4596C973.591 58.4596 974.503 58.5796 975.163 58.8196C975.823 59.0596 976.291 59.4736 976.567 60.0616C976.855 60.6376 976.999 61.4596 976.999 62.5276C976.999 63.5836 976.861 64.4056 976.585 64.9936C976.321 65.5696 975.883 65.9776 975.271 66.2176C974.659 66.4456 973.831 66.5596 972.787 66.5596C972.235 66.5596 971.695 66.5416 971.167 66.5056C970.639 66.4576 970.147 66.3976 969.691 66.3256C969.235 66.2536 968.845 66.1756 968.521 66.0916C968.209 66.0076 967.987 65.9356 967.855 65.8756L967.909 64.5076C968.617 64.5076 969.349 64.5076 970.105 64.5076C970.873 64.5076 971.629 64.5076 972.373 64.5076C972.853 64.4956 973.231 64.4356 973.507 64.3276C973.783 64.2196 973.975 64.0216 974.083 63.7336C974.191 63.4456 974.245 63.0436 974.245 62.5276C974.245 61.9876 974.191 61.5736 974.083 61.2856C973.975 60.9976 973.783 60.7996 973.507 60.6916C973.231 60.5836 972.853 60.5296 972.373 60.5296C971.269 60.5296 970.321 60.5356 969.529 60.5476C968.749 60.5596 968.215 60.5776 967.927 60.6016L967.675 58.6396C968.179 58.5796 968.647 58.5376 969.079 58.5136C969.523 58.4896 970.003 58.4776 970.519 58.4776C971.047 58.4656 971.683 58.4596 972.427 58.4596ZM970.411 58.6396V71.0596H967.675V58.6396H970.411ZM980.71 62.1676L981.034 63.9316L981.286 64.1656V71.0596H978.64V62.1676H980.71ZM985.048 61.9336L984.796 64.3816H984.058C983.638 64.3816 983.2 64.4416 982.744 64.5616C982.288 64.6816 981.712 64.8676 981.016 65.1196L980.836 63.6256C981.46 63.0736 982.09 62.6536 982.726 62.3656C983.362 62.0776 983.98 61.9336 984.58 61.9336H985.048ZM990.393 61.9336C991.509 61.9336 992.403 62.0896 993.075 62.4016C993.747 62.7016 994.227 63.1936 994.515 63.8776C994.815 64.5616 994.965 65.4796 994.965 66.6316C994.965 67.7596 994.815 68.6656 994.515 69.3496C994.227 70.0336 993.747 70.5256 993.075 70.8256C992.403 71.1256 991.509 71.2756 990.393 71.2756C989.289 71.2756 988.401 71.1256 987.729 70.8256C987.057 70.5256 986.571 70.0336 986.271 69.3496C985.971 68.6656 985.821 67.7596 985.821 66.6316C985.821 65.4796 985.971 64.5616 986.271 63.8776C986.571 63.1936 987.057 62.7016 987.729 62.4016C988.401 62.0896 989.289 61.9336 990.393 61.9336ZM990.393 63.8596C989.937 63.8596 989.577 63.9376 989.313 64.0936C989.049 64.2496 988.863 64.5256 988.755 64.9216C988.647 65.3176 988.593 65.8876 988.593 66.6316C988.593 67.3516 988.647 67.9096 988.755 68.3056C988.863 68.7016 989.049 68.9776 989.313 69.1336C989.577 69.2776 989.937 69.3496 990.393 69.3496C990.861 69.3496 991.227 69.2776 991.491 69.1336C991.755 68.9776 991.935 68.7016 992.031 68.3056C992.139 67.9096 992.193 67.3516 992.193 66.6316C992.193 65.8876 992.139 65.3176 992.031 64.9216C991.935 64.5256 991.755 64.2496 991.491 64.0936C991.227 63.9376 990.861 63.8596 990.393 63.8596ZM999.822 61.9336C1000.46 61.9336 1001.06 62.0236 1001.64 62.2036C1002.22 62.3836 1002.73 62.6776 1003.17 63.0856L1002.99 64.2916C1002.59 64.1716 1002.23 64.0696 1001.89 63.9856C1001.57 63.8896 1001.19 63.8416 1000.76 63.8416C1000.39 63.8416 1000.09 63.9076 999.858 64.0396C999.63 64.1716 999.462 64.4296 999.354 64.8136C999.246 65.1976 999.192 65.7676 999.192 66.5236C999.192 67.2316 999.24 67.7716 999.336 68.1436C999.444 68.5036 999.606 68.7556 999.822 68.8996C1000.05 69.0316 1000.34 69.0976 1000.69 69.0976C1001 69.0976 1001.27 69.0676 1001.5 69.0076C1001.72 68.9356 1001.95 68.8336 1002.18 68.7016C1002.41 68.5576 1002.67 68.3836 1002.97 68.1796L1003.15 69.4936C1002.79 69.9976 1002.32 70.4236 1001.75 70.7716C1001.17 71.1076 1000.46 71.2756 999.624 71.2756C998.484 71.2756 997.668 70.8676 997.176 70.0516C996.696 69.2356 996.456 68.0656 996.456 66.5416C996.456 65.3536 996.582 64.4296 996.834 63.7696C997.086 63.0976 997.458 62.6236 997.95 62.3476C998.454 62.0716 999.078 61.9336 999.822 61.9336ZM1005.35 58.4596V71.0596H1003.24L1002.97 69.4216L1002.68 69.2236V63.3916L1002.79 63.1396C1002.76 62.7796 1002.73 62.4136 1002.7 62.0416C1002.69 61.6576 1002.68 61.2676 1002.68 60.8716V58.4596H1005.35ZM1010.13 62.1676V68.0176C1010.13 68.3896 1010.21 68.6536 1010.36 68.8096C1010.53 68.9656 1010.8 69.0436 1011.16 69.0436C1011.53 69.0436 1011.89 68.9776 1012.25 68.8456C1012.63 68.7016 1013.09 68.4796 1013.64 68.1796L1013.84 69.6376C1013.19 70.1896 1012.55 70.6036 1011.93 70.8796C1011.32 71.1556 1010.68 71.2936 1010 71.2936C1008.32 71.2936 1007.48 70.4716 1007.48 68.8276V62.1676H1010.13ZM1016.02 62.1676V71.0596H1013.93L1013.62 69.3136L1013.35 69.0616V62.1676H1016.02ZM1026.79 62.1676L1024.47 65.2636C1024.36 65.4316 1024.23 65.5936 1024.06 65.7496C1023.89 65.9056 1023.75 66.0196 1023.64 66.0916V66.1456C1023.75 66.2176 1023.89 66.3496 1024.06 66.5416C1024.23 66.7216 1024.36 66.9076 1024.47 67.0996L1027.1 71.0596H1024.13L1021.09 66.0556L1023.82 62.1676H1026.79ZM1020.85 58.4596L1020.87 63.6616C1020.87 64.0816 1020.85 64.4896 1020.8 64.8856C1020.75 65.2816 1020.68 65.6716 1020.58 66.0556C1020.67 66.4156 1020.73 66.7936 1020.78 67.1896C1020.83 67.5856 1020.85 67.9456 1020.85 68.2696V71.0596H1018.21V58.4596H1020.85ZM1022.1 65.2996V66.9196H1020.03V65.2996H1022.1ZM1031.72 59.7016V68.2156C1031.72 68.5396 1031.79 68.7736 1031.94 68.9176C1032.09 69.0496 1032.34 69.1156 1032.69 69.1156H1033.84L1034.13 70.9156C1033.92 70.9876 1033.65 71.0476 1033.34 71.0956C1033.03 71.1556 1032.72 71.1976 1032.4 71.2216C1032.09 71.2456 1031.83 71.2576 1031.61 71.2576C1030.81 71.2576 1030.18 71.0476 1029.72 70.6276C1029.28 70.1956 1029.06 69.5896 1029.06 68.8096V59.7016H1031.72ZM1034.2 62.1676V63.9136H1027.51V62.2576L1029.24 62.1676H1034.2ZM1037.01 68.3236C1037.36 68.3236 1037.6 68.3956 1037.73 68.5396C1037.87 68.6716 1037.94 68.9116 1037.95 69.2596V70.4116C1037.95 70.8796 1037.91 71.3056 1037.82 71.6896C1037.75 72.0736 1037.65 72.4276 1037.52 72.7516C1037.39 73.0756 1037.22 73.3936 1037.03 73.7056L1035.97 73.3636C1036.07 72.9796 1036.13 72.6016 1036.17 72.2296C1036.2 71.8696 1036.22 71.4796 1036.22 71.0596C1035.73 71.0596 1035.48 70.7836 1035.47 70.2316L1035.48 69.2596C1035.5 68.9116 1035.57 68.6716 1035.7 68.5396C1035.84 68.3956 1036.08 68.3236 1036.42 68.3236H1037.01ZM1049 58.3876C1049.99 58.3876 1050.82 58.4956 1051.5 58.7116C1052.19 58.9156 1052.74 59.2636 1053.16 59.7556C1053.58 60.2356 1053.88 60.8956 1054.06 61.7356C1054.25 62.5636 1054.35 63.6016 1054.35 64.8496C1054.35 66.0856 1054.25 67.1236 1054.06 67.9636C1053.88 68.7916 1053.58 69.4516 1053.16 69.9436C1052.74 70.4356 1052.19 70.7836 1051.5 70.9876C1050.82 71.1916 1049.99 71.2936 1049 71.2936C1048.02 71.2936 1047.18 71.1916 1046.5 70.9876C1045.83 70.7836 1045.28 70.4356 1044.86 69.9436C1044.44 69.4516 1044.14 68.7916 1043.94 67.9636C1043.75 67.1236 1043.66 66.0856 1043.66 64.8496C1043.66 63.6016 1043.75 62.5636 1043.94 61.7356C1044.14 60.8956 1044.44 60.2356 1044.86 59.7556C1045.28 59.2636 1045.83 58.9156 1046.5 58.7116C1047.18 58.4956 1048.02 58.3876 1049 58.3876ZM1048.1 71.6716C1048.91 71.9956 1049.75 72.2536 1050.62 72.4456C1051.5 72.6496 1052.44 72.8236 1053.45 72.9676L1052.73 75.3436C1051.65 75.0676 1050.67 74.7316 1049.79 74.3356C1048.92 73.9396 1048.14 73.5196 1047.47 73.0756L1048.1 71.6716ZM1049 60.5476C1048.38 60.5476 1047.89 60.6736 1047.53 60.9256C1047.17 61.1776 1046.91 61.6156 1046.77 62.2396C1046.63 62.8636 1046.55 63.7336 1046.55 64.8496C1046.55 65.9536 1046.63 66.8176 1046.77 67.4416C1046.91 68.0656 1047.17 68.5036 1047.53 68.7556C1047.89 69.0076 1048.38 69.1336 1049 69.1336C1049.64 69.1336 1050.13 69.0076 1050.48 68.7556C1050.84 68.5036 1051.09 68.0656 1051.23 67.4416C1051.39 66.8176 1051.47 65.9536 1051.47 64.8496C1051.47 63.7336 1051.39 62.8636 1051.23 62.2396C1051.09 61.6156 1050.84 61.1776 1050.48 60.9256C1050.13 60.6736 1049.64 60.5476 1049 60.5476ZM1058.89 62.1676V68.0176C1058.89 68.3896 1058.97 68.6536 1059.13 68.8096C1059.29 68.9656 1059.56 69.0436 1059.92 69.0436C1060.29 69.0436 1060.66 68.9776 1061.02 68.8456C1061.39 68.7016 1061.85 68.4796 1062.4 68.1796L1062.6 69.6376C1061.95 70.1896 1061.32 70.6036 1060.69 70.8796C1060.08 71.1556 1059.44 71.2936 1058.77 71.2936C1057.09 71.2936 1056.25 70.4716 1056.25 68.8276V62.1676H1058.89ZM1064.78 62.1676V71.0596H1062.69L1062.38 69.3136L1062.11 69.0616V62.1676H1064.78ZM1071.65 61.9336C1072.39 61.9336 1073.02 62.0356 1073.54 62.2396C1074.06 62.4316 1074.45 62.7676 1074.71 63.2476C1074.99 63.7156 1075.12 64.3576 1075.12 65.1736V71.0596H1073.02L1072.64 69.1336L1072.46 68.8636V65.1736C1072.45 64.7416 1072.34 64.4356 1072.14 64.2556C1071.94 64.0636 1071.58 63.9676 1071.04 63.9676C1070.57 63.9676 1069.99 63.9856 1069.31 64.0216C1068.63 64.0456 1067.92 64.0816 1067.2 64.1296L1066.97 62.3656C1067.4 62.2816 1067.89 62.2096 1068.45 62.1496C1069.01 62.0896 1069.57 62.0416 1070.14 62.0056C1070.7 61.9576 1071.21 61.9336 1071.65 61.9336ZM1074.03 65.5876L1074.01 67.0816H1070.05C1069.72 67.0936 1069.49 67.1776 1069.35 67.3336C1069.21 67.4896 1069.15 67.6996 1069.15 67.9636V68.3956C1069.15 68.6956 1069.23 68.9296 1069.4 69.0976C1069.57 69.2536 1069.84 69.3316 1070.21 69.3316C1070.52 69.3316 1070.86 69.2656 1071.22 69.1336C1071.59 69.0016 1071.96 68.8156 1072.32 68.5756C1072.68 68.3356 1073 68.0536 1073.29 67.7296V68.8816C1073.18 69.0616 1073.02 69.2896 1072.8 69.5656C1072.59 69.8296 1072.32 70.0936 1071.99 70.3576C1071.67 70.6096 1071.29 70.8256 1070.86 71.0056C1070.43 71.1736 1069.93 71.2576 1069.38 71.2576C1068.85 71.2576 1068.37 71.1676 1067.92 70.9876C1067.49 70.7956 1067.15 70.5136 1066.9 70.1416C1066.65 69.7696 1066.52 69.3076 1066.52 68.7556V67.8376C1066.52 67.1296 1066.76 66.5776 1067.24 66.1816C1067.72 65.7856 1068.38 65.5876 1069.22 65.5876H1074.03ZM1079.9 58.4596L1079.88 68.2156C1079.88 68.5156 1079.97 68.7436 1080.15 68.8996C1080.33 69.0436 1080.6 69.1156 1080.94 69.1156H1081.66L1081.97 70.9156C1081.83 70.9876 1081.62 71.0476 1081.36 71.0956C1081.09 71.1556 1080.82 71.1976 1080.55 71.2216C1080.27 71.2456 1080.04 71.2576 1079.85 71.2576C1079.04 71.2576 1078.41 71.0536 1077.94 70.6456C1077.48 70.2256 1077.25 69.6376 1077.25 68.8816V58.4596H1079.9ZM1085.84 62.1676V71.0596H1083.21V62.1676H1085.84ZM1085.1 58.2436C1085.63 58.2436 1085.9 58.5076 1085.9 59.0356V60.0076C1085.9 60.5356 1085.63 60.7996 1085.1 60.7996H1083.95C1083.42 60.7996 1083.16 60.5356 1083.16 60.0076V59.0356C1083.16 58.5076 1083.42 58.2436 1083.95 58.2436H1085.1ZM1091.57 59.7016V68.2156C1091.57 68.5396 1091.64 68.7736 1091.79 68.9176C1091.94 69.0496 1092.2 69.1156 1092.54 69.1156H1093.7L1093.98 70.9156C1093.77 70.9876 1093.5 71.0476 1093.19 71.0956C1092.88 71.1556 1092.57 71.1976 1092.26 71.2216C1091.94 71.2456 1091.68 71.2576 1091.46 71.2576C1090.66 71.2576 1090.03 71.0476 1089.57 70.6276C1089.13 70.1956 1088.91 69.5896 1088.91 68.8096V59.7016H1091.57ZM1094.06 62.1676V63.9136H1087.36V62.2576L1089.09 62.1676H1094.06ZM1100.18 61.9336C1100.92 61.9336 1101.55 62.0356 1102.07 62.2396C1102.59 62.4316 1102.98 62.7676 1103.24 63.2476C1103.52 63.7156 1103.65 64.3576 1103.65 65.1736V71.0596H1101.55L1101.17 69.1336L1100.99 68.8636V65.1736C1100.98 64.7416 1100.87 64.4356 1100.67 64.2556C1100.47 64.0636 1100.11 63.9676 1099.57 63.9676C1099.1 63.9676 1098.52 63.9856 1097.84 64.0216C1097.16 64.0456 1096.45 64.0816 1095.73 64.1296L1095.5 62.3656C1095.93 62.2816 1096.42 62.2096 1096.98 62.1496C1097.54 62.0896 1098.1 62.0416 1098.67 62.0056C1099.23 61.9576 1099.74 61.9336 1100.18 61.9336ZM1102.56 65.5876L1102.54 67.0816H1098.58C1098.25 67.0936 1098.02 67.1776 1097.88 67.3336C1097.74 67.4896 1097.68 67.6996 1097.68 67.9636V68.3956C1097.68 68.6956 1097.76 68.9296 1097.93 69.0976C1098.1 69.2536 1098.37 69.3316 1098.74 69.3316C1099.05 69.3316 1099.39 69.2656 1099.75 69.1336C1100.12 69.0016 1100.49 68.8156 1100.85 68.5756C1101.21 68.3356 1101.53 68.0536 1101.82 67.7296V68.8816C1101.71 69.0616 1101.55 69.2896 1101.33 69.5656C1101.12 69.8296 1100.85 70.0936 1100.52 70.3576C1100.2 70.6096 1099.82 70.8256 1099.39 71.0056C1098.96 71.1736 1098.46 71.2576 1097.91 71.2576C1097.38 71.2576 1096.9 71.1676 1096.45 70.9876C1096.02 70.7956 1095.68 70.5136 1095.43 70.1416C1095.18 69.7696 1095.05 69.3076 1095.05 68.7556V67.8376C1095.05 67.1296 1095.29 66.5776 1095.77 66.1816C1096.25 65.7856 1096.91 65.5876 1097.75 65.5876H1102.56ZM1101.66 58.2256C1102.04 58.2256 1102.23 58.4176 1102.23 58.8016V59.8636C1102.23 60.2356 1102.04 60.4216 1101.66 60.4216H1100.79C1100.41 60.4216 1100.22 60.2356 1100.22 59.8636V58.8016C1100.22 58.4176 1100.41 58.2256 1100.79 58.2256H1101.66ZM1098.36 58.2256C1098.73 58.2256 1098.92 58.4176 1098.92 58.8016V59.8636C1098.92 60.2356 1098.73 60.4216 1098.36 60.4216H1097.48C1097.11 60.4216 1096.92 60.2356 1096.92 59.8636V58.8016C1096.92 58.4176 1097.11 58.2256 1097.48 58.2256H1098.36ZM1109.22 59.7016V68.2156C1109.22 68.5396 1109.29 68.7736 1109.44 68.9176C1109.59 69.0496 1109.84 69.1156 1110.19 69.1156H1111.34L1111.63 70.9156C1111.42 70.9876 1111.15 71.0476 1110.84 71.0956C1110.53 71.1556 1110.22 71.1976 1109.9 71.2216C1109.59 71.2456 1109.33 71.2576 1109.11 71.2576C1108.31 71.2576 1107.68 71.0476 1107.22 70.6276C1106.78 70.1956 1106.56 69.5896 1106.56 68.8096V59.7016H1109.22ZM1111.7 62.1676V63.9136H1105.01V62.2576L1106.74 62.1676H1111.7ZM1119.64 62.1676V68.0176C1119.64 68.3896 1119.72 68.6536 1119.88 68.8096C1120.04 68.9656 1120.31 69.0436 1120.67 69.0436C1121.04 69.0436 1121.41 68.9776 1121.77 68.8456C1122.14 68.7016 1122.6 68.4796 1123.15 68.1796L1123.35 69.6376C1122.7 70.1896 1122.07 70.6036 1121.44 70.8796C1120.83 71.1556 1120.19 71.2936 1119.52 71.2936C1117.84 71.2936 1117 70.4716 1117 68.8276V62.1676H1119.64ZM1125.53 62.1676V71.0596H1123.44L1123.13 69.3136L1122.86 69.0616V62.1676H1125.53ZM1133.89 61.9336C1135.57 61.9336 1136.41 62.7556 1136.41 64.3996V71.0596H1133.75V65.2276C1133.75 64.8316 1133.68 64.5616 1133.53 64.4176C1133.39 64.2616 1133.14 64.1836 1132.8 64.1836C1132.41 64.1836 1132.02 64.2616 1131.61 64.4176C1131.2 64.5616 1130.7 64.7836 1130.1 65.0836L1129.97 63.6076C1130.61 63.0676 1131.25 62.6536 1131.91 62.3656C1132.59 62.0776 1133.25 61.9336 1133.89 61.9336ZM1129.84 62.1676L1130.15 63.9316L1130.37 64.1656V71.0596H1127.72V62.1676H1129.84ZM1141.55 61.9336C1142.19 61.9336 1142.8 62.0236 1143.37 62.2036C1143.95 62.3836 1144.46 62.6776 1144.9 63.0856L1144.72 64.2916C1144.33 64.1716 1143.96 64.0696 1143.62 63.9856C1143.3 63.8896 1142.92 63.8416 1142.49 63.8416C1142.12 63.8416 1141.82 63.9076 1141.59 64.0396C1141.36 64.1716 1141.19 64.4296 1141.09 64.8136C1140.98 65.1976 1140.92 65.7676 1140.92 66.5236C1140.92 67.2316 1140.97 67.7716 1141.07 68.1436C1141.18 68.5036 1141.34 68.7556 1141.55 68.8996C1141.78 69.0316 1142.07 69.0976 1142.42 69.0976C1142.73 69.0976 1143 69.0676 1143.23 69.0076C1143.46 68.9356 1143.68 68.8336 1143.91 68.7016C1144.14 68.5576 1144.4 68.3836 1144.7 68.1796L1144.88 69.4936C1144.52 69.9976 1144.06 70.4236 1143.48 70.7716C1142.9 71.1076 1142.2 71.2756 1141.36 71.2756C1140.22 71.2756 1139.4 70.8676 1138.91 70.0516C1138.43 69.2356 1138.19 68.0656 1138.19 66.5416C1138.19 65.3536 1138.31 64.4296 1138.57 63.7696C1138.82 63.0976 1139.19 62.6236 1139.68 62.3476C1140.19 62.0716 1140.81 61.9336 1141.55 61.9336ZM1147.08 58.4596V71.0596H1144.97L1144.7 69.4216L1144.42 69.2236V63.3916L1144.52 63.1396C1144.49 62.7796 1144.46 62.4136 1144.43 62.0416C1144.42 61.6576 1144.42 61.2676 1144.42 60.8716V58.4596H1147.08ZM1158.09 58.4596C1159.25 58.4596 1160.16 58.5796 1160.82 58.8196C1161.48 59.0596 1161.95 59.4736 1162.23 60.0616C1162.52 60.6376 1162.66 61.4596 1162.66 62.5276C1162.66 63.5836 1162.52 64.4056 1162.25 64.9936C1161.98 65.5696 1161.54 65.9776 1160.93 66.2176C1160.32 66.4456 1159.49 66.5596 1158.45 66.5596C1157.9 66.5596 1157.36 66.5416 1156.83 66.5056C1156.3 66.4576 1155.81 66.3976 1155.35 66.3256C1154.9 66.2536 1154.51 66.1756 1154.18 66.0916C1153.87 66.0076 1153.65 65.9356 1153.52 65.8756L1153.57 64.5076C1154.28 64.5076 1155.01 64.5076 1155.77 64.5076C1156.53 64.5076 1157.29 64.5076 1158.03 64.5076C1158.51 64.4956 1158.89 64.4356 1159.17 64.3276C1159.44 64.2196 1159.64 64.0216 1159.74 63.7336C1159.85 63.4456 1159.91 63.0436 1159.91 62.5276C1159.91 61.9876 1159.85 61.5736 1159.74 61.2856C1159.64 60.9976 1159.44 60.7996 1159.17 60.6916C1158.89 60.5836 1158.51 60.5296 1158.03 60.5296C1156.93 60.5296 1155.98 60.5356 1155.19 60.5476C1154.41 60.5596 1153.88 60.5776 1153.59 60.6016L1153.34 58.6396C1153.84 58.5796 1154.31 58.5376 1154.74 58.5136C1155.18 58.4896 1155.66 58.4776 1156.18 58.4776C1156.71 58.4656 1157.34 58.4596 1158.09 58.4596ZM1156.07 58.6396V71.0596H1153.34V58.6396H1156.07ZM1166.37 62.1676L1166.69 63.9316L1166.95 64.1656V71.0596H1164.3V62.1676H1166.37ZM1170.71 61.9336L1170.46 64.3816H1169.72C1169.3 64.3816 1168.86 64.4416 1168.4 64.5616C1167.95 64.6816 1167.37 64.8676 1166.68 65.1196L1166.5 63.6256C1167.12 63.0736 1167.75 62.6536 1168.39 62.3656C1169.02 62.0776 1169.64 61.9336 1170.24 61.9336H1170.71ZM1176.05 61.9336C1177.17 61.9336 1178.06 62.0896 1178.74 62.4016C1179.41 62.7016 1179.89 63.1936 1180.18 63.8776C1180.48 64.5616 1180.63 65.4796 1180.63 66.6316C1180.63 67.7596 1180.48 68.6656 1180.18 69.3496C1179.89 70.0336 1179.41 70.5256 1178.74 70.8256C1178.06 71.1256 1177.17 71.2756 1176.05 71.2756C1174.95 71.2756 1174.06 71.1256 1173.39 70.8256C1172.72 70.5256 1172.23 70.0336 1171.93 69.3496C1171.63 68.6656 1171.48 67.7596 1171.48 66.6316C1171.48 65.4796 1171.63 64.5616 1171.93 63.8776C1172.23 63.1936 1172.72 62.7016 1173.39 62.4016C1174.06 62.0896 1174.95 61.9336 1176.05 61.9336ZM1176.05 63.8596C1175.6 63.8596 1175.24 63.9376 1174.97 64.0936C1174.71 64.2496 1174.52 64.5256 1174.42 64.9216C1174.31 65.3176 1174.25 65.8876 1174.25 66.6316C1174.25 67.3516 1174.31 67.9096 1174.42 68.3056C1174.52 68.7016 1174.71 68.9776 1174.97 69.1336C1175.24 69.2776 1175.6 69.3496 1176.05 69.3496C1176.52 69.3496 1176.89 69.2776 1177.15 69.1336C1177.42 68.9776 1177.6 68.7016 1177.69 68.3056C1177.8 67.9096 1177.85 67.3516 1177.85 66.6316C1177.85 65.8876 1177.8 65.3176 1177.69 64.9216C1177.6 64.5256 1177.42 64.2496 1177.15 64.0936C1176.89 63.9376 1176.52 63.8596 1176.05 63.8596ZM1186.99 64.0036L1190.04 64.0216L1185.12 69.2416L1182.06 69.2236L1186.99 64.0036ZM1190.13 69.2236V71.0596H1182.06V69.2236H1190.13ZM1190.04 62.1676V64.0216H1182.15V62.1676H1190.04ZM1196.09 61.9336C1197.59 61.9336 1198.67 62.1916 1199.31 62.7076C1199.97 63.2116 1200.3 63.9676 1200.3 64.9756C1200.32 65.7796 1200.11 66.3856 1199.69 66.7936C1199.27 67.2016 1198.55 67.4056 1197.51 67.4056H1192.55V65.9116H1196.79C1197.19 65.9116 1197.44 65.8276 1197.55 65.6596C1197.67 65.4796 1197.73 65.2336 1197.73 64.9216C1197.73 64.5016 1197.61 64.2136 1197.37 64.0576C1197.14 63.8896 1196.75 63.8056 1196.18 63.8056C1195.69 63.7936 1195.31 63.8596 1195.03 64.0036C1194.75 64.1356 1194.56 64.3876 1194.45 64.7596C1194.35 65.1316 1194.29 65.6716 1194.29 66.3796C1194.29 67.1236 1194.36 67.6996 1194.49 68.1076C1194.62 68.5036 1194.84 68.7796 1195.16 68.9356C1195.48 69.0916 1195.92 69.1696 1196.49 69.1696C1196.9 69.1696 1197.4 69.1576 1198 69.1336C1198.61 69.0976 1199.22 69.0436 1199.84 68.9716L1200.09 70.6096C1199.74 70.7776 1199.34 70.9096 1198.9 71.0056C1198.46 71.1016 1198 71.1676 1197.53 71.2036C1197.06 71.2516 1196.61 71.2756 1196.18 71.2756C1195.05 71.2756 1194.15 71.1136 1193.46 70.7896C1192.78 70.4536 1192.28 69.9436 1191.97 69.2596C1191.67 68.5756 1191.52 67.6996 1191.52 66.6316C1191.52 65.4676 1191.67 64.5436 1191.97 63.8596C1192.28 63.1756 1192.77 62.6836 1193.45 62.3836C1194.12 62.0836 1195 61.9336 1196.09 61.9336ZM1205.42 61.9336C1205.86 61.9336 1206.32 61.9516 1206.83 61.9876C1207.33 62.0116 1207.82 62.0476 1208.3 62.0956C1208.78 62.1436 1209.21 62.2036 1209.58 62.2756L1209.4 63.9316C1208.83 63.9196 1208.24 63.9076 1207.66 63.8956C1207.08 63.8836 1206.52 63.8776 1205.96 63.8776C1205.5 63.8776 1205.14 63.8896 1204.88 63.9136C1204.63 63.9256 1204.45 63.9796 1204.34 64.0756C1204.25 64.1596 1204.2 64.3156 1204.2 64.5436C1204.2 64.8196 1204.29 65.0056 1204.47 65.1016C1204.65 65.1856 1204.95 65.2816 1205.37 65.3896L1207.69 65.9476C1208.44 66.1396 1208.99 66.4276 1209.35 66.8116C1209.71 67.1836 1209.89 67.7476 1209.89 68.5036C1209.89 69.2476 1209.75 69.8176 1209.47 70.2136C1209.2 70.6096 1208.76 70.8856 1208.16 71.0416C1207.56 71.1856 1206.79 71.2576 1205.84 71.2576C1205.47 71.2576 1204.91 71.2396 1204.18 71.2036C1203.45 71.1676 1202.65 71.0776 1201.79 70.9336L1201.95 69.2776C1202.18 69.2896 1202.45 69.3016 1202.78 69.3136C1203.11 69.3136 1203.48 69.3136 1203.88 69.3136C1204.27 69.3136 1204.67 69.3136 1205.06 69.3136C1205.69 69.3136 1206.16 69.3016 1206.49 69.2776C1206.81 69.2416 1207.03 69.1696 1207.15 69.0616C1207.27 68.9536 1207.33 68.7916 1207.33 68.5756C1207.33 68.2996 1207.23 68.1196 1207.03 68.0356C1206.82 67.9396 1206.5 67.8316 1206.05 67.7116L1203.8 67.1536C1203.23 66.9976 1202.78 66.7996 1202.47 66.5596C1202.16 66.3196 1201.94 66.0316 1201.81 65.6956C1201.69 65.3476 1201.63 64.9336 1201.63 64.4536C1201.63 63.8416 1201.75 63.3496 1202 62.9776C1202.26 62.6056 1202.66 62.3416 1203.21 62.1856C1203.76 62.0176 1204.5 61.9336 1205.42 61.9336ZM1214.99 61.9336C1215.42 61.9336 1215.89 61.9516 1216.39 61.9876C1216.89 62.0116 1217.39 62.0476 1217.87 62.0956C1218.35 62.1436 1218.77 62.2036 1219.14 62.2756L1218.96 63.9316C1218.39 63.9196 1217.81 63.9076 1217.22 63.8956C1216.64 63.8836 1216.08 63.8776 1215.53 63.8776C1215.06 63.8776 1214.7 63.8896 1214.45 63.9136C1214.19 63.9256 1214.01 63.9796 1213.91 64.0756C1213.81 64.1596 1213.76 64.3156 1213.76 64.5436C1213.76 64.8196 1213.85 65.0056 1214.03 65.1016C1214.21 65.1856 1214.51 65.2816 1214.93 65.3896L1217.25 65.9476C1218 66.1396 1218.55 66.4276 1218.91 66.8116C1219.27 67.1836 1219.45 67.7476 1219.45 68.5036C1219.45 69.2476 1219.31 69.8176 1219.04 70.2136C1218.76 70.6096 1218.32 70.8856 1217.72 71.0416C1217.12 71.1856 1216.35 71.2576 1215.4 71.2576C1215.03 71.2576 1214.48 71.2396 1213.74 71.2036C1213.01 71.1676 1212.21 71.0776 1211.35 70.9336L1211.51 69.2776C1211.74 69.2896 1212.02 69.3016 1212.34 69.3136C1212.68 69.3136 1213.04 69.3136 1213.44 69.3136C1213.83 69.3136 1214.23 69.3136 1214.63 69.3136C1215.25 69.3136 1215.72 69.3016 1216.05 69.2776C1216.37 69.2416 1216.59 69.1696 1216.71 69.0616C1216.83 68.9536 1216.89 68.7916 1216.89 68.5756C1216.89 68.2996 1216.79 68.1196 1216.59 68.0356C1216.38 67.9396 1216.06 67.8316 1215.62 67.7116L1213.37 67.1536C1212.79 66.9976 1212.35 66.7996 1212.03 66.5596C1211.72 66.3196 1211.5 66.0316 1211.37 65.6956C1211.25 65.3476 1211.19 64.9336 1211.19 64.4536C1211.19 63.8416 1211.31 63.3496 1211.57 62.9776C1211.82 62.6056 1212.22 62.3416 1212.77 62.1856C1213.32 62.0176 1214.06 61.9336 1214.99 61.9336Z" fill="#003A69"/>
</g>
</g>
<defs>
<filter id="filter0_d_2967_9149" x="0.238095" y="0" width="1415.52" height="734.524" filterUnits="userSpaceOnUse" color-interpolation-filters="sRGB">
<feFlood flood-opacity="0" result="BackgroundImageFix"/>
<feColorMatrix in="SourceAlpha" type="matrix" values="0 0 0 0 0 0 0 0 0 0 0 0 0 0 0 0 0 0 127 0" result="hardAlpha"/>
<feOffset dy="5.7619"/>
<feGaussianBlur stdDeviation="2.88095"/>
<feComposite in2="hardAlpha" operator="out"/>
<feColorMatrix type="matrix" values="0 0 0 0 0 0 0 0 0 0 0 0 0 0 0 0 0 0 0.25 0"/>
<feBlend mode="normal" in2="BackgroundImageFix" result="effect1_dropShadow_2967_9149"/>
<feBlend mode="normal" in="SourceGraphic" in2="effect1_dropShadow_2967_9149" result="shape"/>
</filter>
<linearGradient id="paint0_linear_2967_9149" x1="708" y1="0" x2="708" y2="716" gradientUnits="userSpaceOnUse">
<stop stop-color="#032664"/>
<stop offset="1" stop-color="#0C55AE"/>
</linearGradient>
<clipPath id="clip0_2967_9149">
<rect width="407" height="21" fill="white" transform="translate(34.25 53.0498)"/>
</clipPath>
<clipPath id="clip1_2967_9149">
<rect width="328" height="21" fill="white" transform="translate(452.25 53.0498)"/>
</clipPath>
<clipPath id="clip2_2967_9149">
<rect width="234" height="21" fill="white" transform="translate(34.75 375)"/>
</clipPath>
<clipPath id="clip3_2967_9149">
<rect width="234" height="21" fill="white" transform="translate(289.75 375)"/>
</clipPath>
<clipPath id="clip4_2967_9149">
<rect width="246" height="21" fill="white" transform="translate(538.75 375)"/>
</clipPath>
<clipPath id="clip5_2967_9149">
<rect width="575" height="21" fill="white" transform="translate(806.75 53.0498)"/>
</clipPath>
</defs>
</svg>
