<svg width="1416" height="735" viewBox="0 0 1416 735" fill="none" xmlns="http://www.w3.org/2000/svg">
<g filter="url(#filter0_d_2967_9094)">
<mask id="path-1-inside-1_2967_9094" fill="white">
<path d="M6 14.4048C6 6.44926 12.4492 0 20.4048 0H1395.6C1403.55 0 1410 6.44923 1410 14.4048V701.595C1410 709.551 1403.55 716 1395.6 716H20.4048C12.4492 716 6 709.551 6 701.595V14.4048Z"/>
</mask>
<path d="M6 14.4048C6 6.44926 12.4492 0 20.4048 0H1395.6C1403.55 0 1410 6.44923 1410 14.4048V701.595C1410 709.551 1403.55 716 1395.6 716H20.4048C12.4492 716 6 709.551 6 701.595V14.4048Z" fill="white" shape-rendering="crispEdges"/>
<path d="M6 14.4048C6 4.06257 14.384 -4.32143 24.7262 -4.32143H1391.27C1401.62 -4.32143 1410 4.06257 1410 14.4048V14.4048C1410 8.83589 1403.55 4.32143 1395.6 4.32143H20.4048C12.4492 4.32143 6 8.83589 6 14.4048V14.4048ZM1410 716H6H1410ZM6 716V0V716ZM1410 0V716V0Z" fill="url(#paint0_linear_2967_9094)" mask="url(#path-1-inside-1_2967_9094)"/>
<path d="M20.9783 17.028C21.7926 17.028 22.6223 17.0357 23.4674 17.051C24.3279 17.051 25.1653 17.0664 25.9796 17.0971C26.8093 17.1279 27.5776 17.1893 28.2844 17.2815L28.1 19.8168H22.3381C21.9232 19.8168 21.6083 19.9166 21.3931 20.1164C21.178 20.3008 21.0705 20.5927 21.0705 20.9922V33H17.5672V20.2777C17.5672 19.279 17.8822 18.4877 18.5122 17.9038C19.1422 17.3199 19.9642 17.028 20.9783 17.028ZM17.959 23.7579H27.2472V26.247H17.959V23.7579ZM33.6923 21.6145V33H30.3273V21.6145H33.6923ZM32.7473 16.5901C33.4234 16.5901 33.7614 16.9281 33.7614 17.6042V18.8488C33.7614 19.5248 33.4234 19.8629 32.7473 19.8629H31.2723C30.5962 19.8629 30.2582 19.5248 30.2582 18.8488V17.6042C30.2582 16.9281 30.5962 16.5901 31.2723 16.5901H32.7473ZM40.0158 16.8667L39.9928 29.3585C39.9928 29.7426 40.108 30.0345 40.3385 30.2343C40.5689 30.4187 40.907 30.5109 41.3526 30.5109H42.2745L42.6663 32.8156C42.4819 32.9078 42.2207 32.9846 41.8827 33.0461C41.5446 33.1229 41.1989 33.1767 40.8455 33.2074C40.4921 33.2382 40.1925 33.2535 39.9467 33.2535C38.9172 33.2535 38.1028 32.9923 37.5036 32.4699C36.9197 31.9321 36.6278 31.1792 36.6278 30.2112V16.8667H40.0158ZM48.2998 18.457V29.3585C48.2998 29.7733 48.392 30.073 48.5764 30.2573C48.7761 30.4263 49.0988 30.5109 49.5444 30.5109H51.0194L51.3882 32.8156C51.1116 32.9078 50.7736 32.9846 50.3741 33.0461C49.9746 33.1229 49.5751 33.1767 49.1756 33.2074C48.7761 33.2382 48.4381 33.2535 48.1615 33.2535C47.1321 33.2535 46.3254 32.9846 45.7415 32.4469C45.173 31.8937 44.8888 31.1178 44.8888 30.119V18.457H48.2998ZM51.4804 21.6145V23.8501H42.9067V21.7297L45.1192 21.6145H51.4804ZM55.9783 21.6145L56.3931 23.8731L56.7158 24.1728V33H53.3278V21.6145H55.9783ZM61.5327 21.3149L61.2101 24.4493H60.2651C59.7273 24.4493 59.1665 24.5262 58.5826 24.6798C57.9988 24.8335 57.2612 25.0716 56.3701 25.3943L56.1396 23.4813C56.9386 22.7745 57.7452 22.2368 58.5596 21.868C59.3739 21.4992 60.1652 21.3149 60.9335 21.3149H61.5327ZM68.3766 21.3149C69.8056 21.3149 70.9503 21.5146 71.8107 21.9141C72.6712 22.2982 73.2858 22.9282 73.6545 23.804C74.0386 24.6798 74.2307 25.8552 74.2307 27.3303C74.2307 28.7746 74.0386 29.9347 73.6545 30.8105C73.2858 31.6863 72.6712 32.3163 71.8107 32.7004C70.9503 33.0845 69.8056 33.2766 68.3766 33.2766C66.963 33.2766 65.826 33.0845 64.9656 32.7004C64.1051 32.3163 63.4828 31.6863 63.0987 30.8105C62.7146 29.9347 62.5225 28.7746 62.5225 27.3303C62.5225 25.8552 62.7146 24.6798 63.0987 23.804C63.4828 22.9282 64.1051 22.2982 64.9656 21.9141C65.826 21.5146 66.963 21.3149 68.3766 21.3149ZM68.3766 23.781C67.7927 23.781 67.3318 23.8808 66.9938 24.0806C66.6557 24.2803 66.4176 24.6337 66.2793 25.1408C66.141 25.6478 66.0719 26.3777 66.0719 27.3303C66.0719 28.2522 66.141 28.9667 66.2793 29.4737C66.4176 29.9808 66.6557 30.3342 66.9938 30.5339C67.3318 30.7183 67.7927 30.8105 68.3766 30.8105C68.9759 30.8105 69.4445 30.7183 69.7825 30.5339C70.1206 30.3342 70.351 29.9808 70.4739 29.4737C70.6122 28.9667 70.6814 28.2522 70.6814 27.3303C70.6814 26.3777 70.6122 25.6478 70.4739 25.1408C70.351 24.6337 70.1206 24.2803 69.7825 24.0806C69.4445 23.8808 68.9759 23.781 68.3766 23.781ZM80.8879 21.3149C81.441 21.3149 82.0403 21.3379 82.6856 21.384C83.3309 21.4147 83.9609 21.4608 84.5755 21.5223C85.1901 21.5837 85.7356 21.6606 86.2119 21.7528L85.9814 23.8731C85.2439 23.8578 84.4987 23.8424 83.7458 23.827C83.0083 23.8117 82.2861 23.804 81.5793 23.804C80.9801 23.804 80.5191 23.8194 80.1964 23.8501C79.8738 23.8655 79.6433 23.9346 79.505 24.0575C79.3821 24.1651 79.3206 24.3648 79.3206 24.6568C79.3206 25.0102 79.4359 25.2483 79.6663 25.3712C79.8968 25.4788 80.281 25.6017 80.8187 25.74L83.7919 26.4545C84.7445 26.7003 85.4513 27.0691 85.9123 27.5608C86.3732 28.0371 86.6037 28.7592 86.6037 29.7272C86.6037 30.6799 86.427 31.4097 86.0736 31.9168C85.7202 32.4238 85.1594 32.7772 84.3911 32.977C83.6229 33.1613 82.6318 33.2535 81.418 33.2535C80.9416 33.2535 80.2349 33.2305 79.2976 33.1844C78.3603 33.1383 77.3385 33.023 76.2323 32.8387L76.4397 30.7183C76.7316 30.7337 77.085 30.749 77.4999 30.7644C77.9301 30.7644 78.3987 30.7644 78.9058 30.7644C79.4128 30.7644 79.9199 30.7644 80.4269 30.7644C81.2259 30.7644 81.8328 30.749 82.2477 30.7183C82.6625 30.6722 82.9468 30.58 83.1004 30.4417C83.2541 30.3034 83.3309 30.096 83.3309 29.8194C83.3309 29.466 83.2003 29.2356 82.9391 29.128C82.6779 29.0051 82.263 28.8668 81.6945 28.7131L78.8136 27.9987C78.0761 27.7989 77.5076 27.5454 77.1081 27.2381C76.7086 26.9308 76.4243 26.562 76.2553 26.1318C76.1016 25.6862 76.0248 25.1561 76.0248 24.5415C76.0248 23.7579 76.1862 23.1279 76.5088 22.6516C76.8315 22.1753 77.3462 21.8373 78.053 21.6375C78.7598 21.4224 79.7048 21.3149 80.8879 21.3149Z" fill="#023047"/>
<path d="M1385.99 17.1931C1386.12 17.0676 1386.27 16.9681 1386.43 16.9002C1386.59 16.8323 1386.77 16.7974 1386.95 16.7974C1387.12 16.7974 1387.3 16.8323 1387.46 16.9002C1387.63 16.9681 1387.77 17.0676 1387.9 17.1931L1392.8 22.0893L1397.7 17.1931C1397.82 17.0678 1397.97 16.9683 1398.13 16.9005C1398.3 16.8327 1398.47 16.7978 1398.65 16.7978C1398.83 16.7978 1399 16.8327 1399.17 16.9005C1399.33 16.9683 1399.48 17.0678 1399.61 17.1931C1399.73 17.3184 1399.83 17.4672 1399.9 17.631C1399.97 17.7947 1400 17.9702 1400 18.1475C1400 18.3247 1399.97 18.5002 1399.9 18.664C1399.83 18.8278 1399.73 18.9766 1399.61 19.1019L1394.71 23.9999L1399.61 28.898C1399.86 29.1511 1400 29.4944 1400 29.8524C1400 30.2104 1399.86 30.5537 1399.61 30.8068C1399.35 31.0599 1399.01 31.2021 1398.65 31.2021C1398.29 31.2021 1397.95 31.0599 1397.7 30.8068L1392.8 25.9105L1387.9 30.8068C1387.65 31.0599 1387.3 31.2021 1386.95 31.2021C1386.59 31.2021 1386.24 31.0599 1385.99 30.8068C1385.74 30.5537 1385.6 30.2104 1385.6 29.8524C1385.6 29.4944 1385.74 29.1511 1385.99 28.898L1390.89 23.9999L1385.99 19.1019C1385.87 18.9766 1385.77 18.8278 1385.7 18.6641C1385.63 18.5003 1385.6 18.3248 1385.6 18.1475C1385.6 17.9702 1385.63 17.7947 1385.7 17.6309C1385.77 17.4671 1385.87 17.3184 1385.99 17.1931Z" fill="#023047"/>
<g clip-path="url(#clip0_2967_9094)">
<rect width="407" height="21" transform="translate(34.25 53.0498)" fill="#99B0C3"/>
<path d="M220.681 58.58L217.297 70.244C217.237 70.46 217.117 70.64 216.937 70.784C216.769 70.928 216.565 71 216.325 71H213.805C213.565 71 213.355 70.928 213.175 70.784C213.007 70.64 212.893 70.46 212.833 70.244L209.449 58.58H212.275L214.543 67.544C214.591 67.772 214.639 68.006 214.687 68.246C214.747 68.474 214.795 68.702 214.831 68.93H215.299C215.335 68.702 215.377 68.468 215.425 68.228C215.485 67.988 215.545 67.754 215.605 67.526L217.855 58.58H220.681ZM224.616 62.108V71H221.988V62.108H224.616ZM223.878 58.184C224.406 58.184 224.67 58.448 224.67 58.976V59.948C224.67 60.476 224.406 60.74 223.878 60.74H222.726C222.198 60.74 221.934 60.476 221.934 59.948V58.976C221.934 58.448 222.198 58.184 222.726 58.184H223.878ZM230.257 61.874C230.689 61.874 231.157 61.892 231.661 61.928C232.165 61.952 232.657 61.988 233.137 62.036C233.617 62.084 234.043 62.144 234.415 62.216L234.235 63.872C233.659 63.86 233.077 63.848 232.489 63.836C231.913 63.824 231.349 63.818 230.797 63.818C230.329 63.818 229.969 63.83 229.717 63.854C229.465 63.866 229.285 63.92 229.177 64.016C229.081 64.1 229.033 64.256 229.033 64.484C229.033 64.76 229.123 64.946 229.303 65.042C229.483 65.126 229.783 65.222 230.203 65.33L232.525 65.888C233.269 66.08 233.821 66.368 234.181 66.752C234.541 67.124 234.721 67.688 234.721 68.444C234.721 69.188 234.583 69.758 234.307 70.154C234.031 70.55 233.593 70.826 232.993 70.982C232.393 71.126 231.619 71.198 230.671 71.198C230.299 71.198 229.747 71.18 229.015 71.144C228.283 71.108 227.485 71.018 226.621 70.874L226.783 69.218C227.011 69.23 227.287 69.242 227.611 69.254C227.947 69.254 228.313 69.254 228.709 69.254C229.105 69.254 229.501 69.254 229.897 69.254C230.521 69.254 230.995 69.242 231.319 69.218C231.643 69.182 231.865 69.11 231.985 69.002C232.105 68.894 232.165 68.732 232.165 68.516C232.165 68.24 232.063 68.06 231.859 67.976C231.655 67.88 231.331 67.772 230.887 67.652L228.637 67.094C228.061 66.938 227.617 66.74 227.305 66.5C226.993 66.26 226.771 65.972 226.639 65.636C226.519 65.288 226.459 64.874 226.459 64.394C226.459 63.782 226.585 63.29 226.837 62.918C227.089 62.546 227.491 62.282 228.043 62.126C228.595 61.958 229.333 61.874 230.257 61.874ZM240.665 61.874C241.781 61.874 242.675 62.03 243.347 62.342C244.019 62.642 244.499 63.134 244.787 63.818C245.087 64.502 245.237 65.42 245.237 66.572C245.237 67.7 245.087 68.606 244.787 69.29C244.499 69.974 244.019 70.466 243.347 70.766C242.675 71.066 241.781 71.216 240.665 71.216C239.561 71.216 238.673 71.066 238.001 70.766C237.329 70.466 236.843 69.974 236.543 69.29C236.243 68.606 236.093 67.7 236.093 66.572C236.093 65.42 236.243 64.502 236.543 63.818C236.843 63.134 237.329 62.642 238.001 62.342C238.673 62.03 239.561 61.874 240.665 61.874ZM240.665 63.8C240.209 63.8 239.849 63.878 239.585 64.034C239.321 64.19 239.135 64.466 239.027 64.862C238.919 65.258 238.865 65.828 238.865 66.572C238.865 67.292 238.919 67.85 239.027 68.246C239.135 68.642 239.321 68.918 239.585 69.074C239.849 69.218 240.209 69.29 240.665 69.29C241.133 69.29 241.499 69.218 241.763 69.074C242.027 68.918 242.207 68.642 242.303 68.246C242.411 67.85 242.465 67.292 242.465 66.572C242.465 65.828 242.411 65.258 242.303 64.862C242.207 64.466 242.027 64.19 241.763 64.034C241.499 63.878 241.133 63.8 240.665 63.8ZM239.009 58.148C239.309 58.172 239.579 58.226 239.819 58.31C240.059 58.382 240.287 58.466 240.503 58.562C240.731 58.658 240.953 58.754 241.169 58.85C241.397 58.934 241.631 58.994 241.871 59.03C242.183 59.078 242.375 59.036 242.447 58.904C242.531 58.772 242.573 58.55 242.573 58.238H243.725C243.857 59.078 243.773 59.72 243.473 60.164C243.173 60.608 242.765 60.812 242.249 60.776C241.841 60.74 241.469 60.656 241.133 60.524C240.809 60.392 240.503 60.26 240.215 60.128C239.939 59.996 239.657 59.912 239.369 59.876C239.069 59.828 238.877 59.876 238.793 60.02C238.721 60.152 238.685 60.38 238.685 60.704H237.551C237.455 60.104 237.467 59.612 237.587 59.228C237.719 58.844 237.911 58.562 238.163 58.382C238.427 58.202 238.709 58.124 239.009 58.148ZM251.265 61.874C252.765 61.874 253.839 62.132 254.487 62.648C255.147 63.152 255.477 63.908 255.477 64.916C255.489 65.72 255.285 66.326 254.865 66.734C254.445 67.142 253.719 67.346 252.687 67.346H247.719V65.852H251.967C252.363 65.852 252.615 65.768 252.723 65.6C252.843 65.42 252.903 65.174 252.903 64.862C252.903 64.442 252.783 64.154 252.543 63.998C252.315 63.83 251.919 63.746 251.355 63.746C250.863 63.734 250.479 63.8 250.203 63.944C249.927 64.076 249.735 64.328 249.627 64.7C249.519 65.072 249.465 65.612 249.465 66.32C249.465 67.064 249.531 67.64 249.663 68.048C249.795 68.444 250.017 68.72 250.329 68.876C250.653 69.032 251.097 69.11 251.661 69.11C252.069 69.11 252.573 69.098 253.173 69.074C253.785 69.038 254.397 68.984 255.009 68.912L255.261 70.55C254.913 70.718 254.517 70.85 254.073 70.946C253.629 71.042 253.173 71.108 252.705 71.144C252.237 71.192 251.787 71.216 251.355 71.216C250.227 71.216 249.321 71.054 248.637 70.73C247.953 70.394 247.455 69.884 247.143 69.2C246.843 68.516 246.693 67.64 246.693 66.572C246.693 65.408 246.843 64.484 247.143 63.8C247.455 63.116 247.947 62.624 248.619 62.324C249.291 62.024 250.173 61.874 251.265 61.874ZM260.597 61.874C261.029 61.874 261.497 61.892 262.001 61.928C262.505 61.952 262.997 61.988 263.477 62.036C263.957 62.084 264.383 62.144 264.755 62.216L264.575 63.872C263.999 63.86 263.417 63.848 262.829 63.836C262.253 63.824 261.689 63.818 261.137 63.818C260.669 63.818 260.309 63.83 260.057 63.854C259.805 63.866 259.625 63.92 259.517 64.016C259.421 64.1 259.373 64.256 259.373 64.484C259.373 64.76 259.463 64.946 259.643 65.042C259.823 65.126 260.123 65.222 260.543 65.33L262.865 65.888C263.609 66.08 264.161 66.368 264.521 66.752C264.881 67.124 265.061 67.688 265.061 68.444C265.061 69.188 264.923 69.758 264.647 70.154C264.371 70.55 263.933 70.826 263.333 70.982C262.733 71.126 261.959 71.198 261.011 71.198C260.639 71.198 260.087 71.18 259.355 71.144C258.623 71.108 257.825 71.018 256.961 70.874L257.123 69.218C257.351 69.23 257.627 69.242 257.951 69.254C258.287 69.254 258.653 69.254 259.049 69.254C259.445 69.254 259.841 69.254 260.237 69.254C260.861 69.254 261.335 69.242 261.659 69.218C261.983 69.182 262.205 69.11 262.325 69.002C262.445 68.894 262.505 68.732 262.505 68.516C262.505 68.24 262.403 68.06 262.199 67.976C261.995 67.88 261.671 67.772 261.227 67.652L258.977 67.094C258.401 66.938 257.957 66.74 257.645 66.5C257.333 66.26 257.111 65.972 256.979 65.636C256.859 65.288 256.799 64.874 256.799 64.394C256.799 63.782 256.925 63.29 257.177 62.918C257.429 62.546 257.831 62.282 258.383 62.126C258.935 61.958 259.673 61.874 260.597 61.874Z" fill="#003A69"/>
</g>
<g clip-path="url(#clip1_2967_9094)">
<rect width="328" height="21" transform="translate(452.25 53.0498)" fill="#99B0C3"/>
<path d="M602.269 58.4498C603.253 58.4498 604.081 58.5578 604.753 58.7738C605.437 58.9778 605.983 59.3198 606.391 59.7998C606.811 60.2798 607.117 60.9338 607.309 61.7618C607.501 62.5778 607.597 63.6038 607.597 64.8398C607.597 66.0638 607.501 67.0898 607.309 67.9178C607.117 68.7338 606.811 69.3878 606.391 69.8798C605.983 70.3598 605.437 70.7018 604.753 70.9058C604.081 71.1098 603.253 71.2118 602.269 71.2118C601.333 71.2118 600.463 71.1938 599.659 71.1578C598.867 71.1338 598.117 71.0978 597.409 71.0498L598.543 69.0158C598.999 69.0398 599.539 69.0638 600.163 69.0878C600.799 69.0998 601.501 69.1058 602.269 69.1058C602.893 69.1058 603.379 68.9858 603.727 68.7458C604.087 68.4938 604.339 68.0558 604.483 67.4318C604.627 66.8078 604.699 65.9438 604.699 64.8398C604.699 63.7238 604.627 62.8598 604.483 62.2478C604.339 61.6238 604.087 61.1858 603.727 60.9338C603.379 60.6818 602.893 60.5558 602.269 60.5558C601.537 60.5558 600.883 60.5618 600.307 60.5738C599.731 60.5738 599.167 60.5738 598.615 60.5738L597.409 58.6298C598.129 58.5818 598.879 58.5398 599.659 58.5038C600.451 58.4678 601.321 58.4498 602.269 58.4498ZM600.145 58.6298V71.0498H597.409V58.6298H600.145ZM614.215 61.9238C614.959 61.9238 615.589 62.0258 616.105 62.2298C616.621 62.4218 617.011 62.7578 617.275 63.2378C617.551 63.7058 617.689 64.3478 617.689 65.1638V71.0498H615.583L615.205 69.1238L615.025 68.8538V65.1638C615.013 64.7318 614.905 64.4258 614.701 64.2458C614.509 64.0538 614.143 63.9578 613.603 63.9578C613.135 63.9578 612.559 63.9758 611.875 64.0118C611.191 64.0358 610.489 64.0718 609.769 64.1198L609.535 62.3558C609.967 62.2718 610.459 62.1998 611.011 62.1398C611.575 62.0798 612.139 62.0318 612.703 61.9958C613.267 61.9478 613.771 61.9238 614.215 61.9238ZM616.591 65.5778L616.573 67.0718H612.613C612.289 67.0838 612.055 67.1678 611.911 67.3238C611.779 67.4798 611.713 67.6898 611.713 67.9538V68.3858C611.713 68.6858 611.797 68.9198 611.965 69.0878C612.133 69.2438 612.403 69.3218 612.775 69.3218C613.087 69.3218 613.423 69.2558 613.783 69.1238C614.155 68.9918 614.521 68.8058 614.881 68.5658C615.241 68.3258 615.565 68.0438 615.853 67.7198V68.8718C615.745 69.0518 615.583 69.2798 615.367 69.5558C615.151 69.8198 614.881 70.0838 614.557 70.3478C614.233 70.5998 613.855 70.8158 613.423 70.9958C612.991 71.1638 612.499 71.2478 611.947 71.2478C611.419 71.2478 610.933 71.1578 610.489 70.9778C610.057 70.7858 609.715 70.5038 609.463 70.1318C609.211 69.7598 609.085 69.2978 609.085 68.7458V67.8278C609.085 67.1198 609.325 66.5678 609.805 66.1718C610.285 65.7758 610.945 65.5778 611.785 65.5778H616.591ZM623.256 59.6918V68.2058C623.256 68.5298 623.328 68.7638 623.472 68.9078C623.628 69.0398 623.88 69.1058 624.228 69.1058H625.38L625.668 70.9058C625.452 70.9778 625.188 71.0378 624.876 71.0858C624.564 71.1458 624.252 71.1878 623.94 71.2118C623.628 71.2358 623.364 71.2478 623.148 71.2478C622.344 71.2478 621.714 71.0378 621.258 70.6178C620.814 70.1858 620.592 69.5798 620.592 68.7998V59.6918H623.256ZM625.74 62.1578V63.9038H619.044V62.2478L620.772 62.1578H625.74ZM631.863 61.9238C632.607 61.9238 633.237 62.0258 633.753 62.2298C634.269 62.4218 634.659 62.7578 634.923 63.2378C635.199 63.7058 635.337 64.3478 635.337 65.1638V71.0498H633.231L632.853 69.1238L632.673 68.8538V65.1638C632.661 64.7318 632.553 64.4258 632.349 64.2458C632.157 64.0538 631.791 63.9578 631.251 63.9578C630.783 63.9578 630.207 63.9758 629.523 64.0118C628.839 64.0358 628.137 64.0718 627.417 64.1198L627.183 62.3558C627.615 62.2718 628.107 62.1998 628.659 62.1398C629.223 62.0798 629.787 62.0318 630.351 61.9958C630.915 61.9478 631.419 61.9238 631.863 61.9238ZM634.239 65.5778L634.221 67.0718H630.261C629.937 67.0838 629.703 67.1678 629.559 67.3238C629.427 67.4798 629.361 67.6898 629.361 67.9538V68.3858C629.361 68.6858 629.445 68.9198 629.613 69.0878C629.781 69.2438 630.051 69.3218 630.423 69.3218C630.735 69.3218 631.071 69.2558 631.431 69.1238C631.803 68.9918 632.169 68.8058 632.529 68.5658C632.889 68.3258 633.213 68.0438 633.501 67.7198V68.8718C633.393 69.0518 633.231 69.2798 633.015 69.5558C632.799 69.8198 632.529 70.0838 632.205 70.3478C631.881 70.5998 631.503 70.8158 631.071 70.9958C630.639 71.1638 630.147 71.2478 629.595 71.2478C629.067 71.2478 628.581 71.1578 628.137 70.9778C627.705 70.7858 627.363 70.5038 627.111 70.1318C626.859 69.7598 626.733 69.2978 626.733 68.7458V67.8278C626.733 67.1198 626.973 66.5678 627.453 66.1718C627.933 65.7758 628.593 65.5778 629.433 65.5778H634.239Z" fill="#003A69"/>
</g>
<g clip-path="url(#clip2_2967_9094)">
<rect width="234" height="21" transform="translate(34.75 375)" fill="#99B0C3"/>
<path d="M66.6577 380.374C67.2457 380.374 67.7437 380.392 68.1517 380.428C68.5717 380.452 68.9557 380.494 69.3037 380.554C69.6517 380.614 70.0117 380.692 70.3837 380.788L70.1677 382.822C69.7717 382.798 69.4057 382.78 69.0697 382.768C68.7457 382.756 68.3917 382.744 68.0077 382.732C67.6357 382.72 67.1857 382.714 66.6577 382.714C66.0457 382.714 65.5657 382.84 65.2177 383.092C64.8817 383.332 64.6417 383.746 64.4977 384.334C64.3537 384.922 64.2817 385.744 64.2817 386.8C64.2817 387.844 64.3537 388.666 64.4977 389.266C64.6417 389.854 64.8817 390.268 65.2177 390.508C65.5657 390.748 66.0457 390.868 66.6577 390.868C67.4857 390.868 68.1817 390.856 68.7457 390.832C69.3097 390.808 69.8677 390.766 70.4197 390.706L70.6537 392.722C70.0777 392.902 69.4897 393.028 68.8897 393.1C68.2897 393.184 67.5457 393.226 66.6577 393.226C65.3737 393.226 64.3477 393.022 63.5797 392.614C62.8117 392.194 62.2537 391.516 61.9057 390.58C61.5697 389.644 61.4017 388.384 61.4017 386.8C61.4017 385.216 61.5697 383.956 61.9057 383.02C62.2537 382.084 62.8117 381.412 63.5797 381.004C64.3477 380.584 65.3737 380.374 66.6577 380.374ZM76.4477 383.884C77.5637 383.884 78.4577 384.04 79.1297 384.352C79.8017 384.652 80.2817 385.144 80.5697 385.828C80.8697 386.512 81.0197 387.43 81.0197 388.582C81.0197 389.71 80.8697 390.616 80.5697 391.3C80.2817 391.984 79.8017 392.476 79.1297 392.776C78.4577 393.076 77.5637 393.226 76.4477 393.226C75.3437 393.226 74.4557 393.076 73.7837 392.776C73.1117 392.476 72.6257 391.984 72.3257 391.3C72.0257 390.616 71.8757 389.71 71.8757 388.582C71.8757 387.43 72.0257 386.512 72.3257 385.828C72.6257 385.144 73.1117 384.652 73.7837 384.352C74.4557 384.04 75.3437 383.884 76.4477 383.884ZM76.4477 385.81C75.9917 385.81 75.6317 385.888 75.3677 386.044C75.1037 386.2 74.9177 386.476 74.8097 386.872C74.7017 387.268 74.6477 387.838 74.6477 388.582C74.6477 389.302 74.7017 389.86 74.8097 390.256C74.9177 390.652 75.1037 390.928 75.3677 391.084C75.6317 391.228 75.9917 391.3 76.4477 391.3C76.9157 391.3 77.2817 391.228 77.5457 391.084C77.8097 390.928 77.9897 390.652 78.0857 390.256C78.1937 389.86 78.2477 389.302 78.2477 388.582C78.2477 387.838 78.1937 387.268 78.0857 386.872C77.9897 386.476 77.8097 386.2 77.5457 386.044C77.2817 385.888 76.9157 385.81 76.4477 385.81ZM89.0269 383.884C90.7069 383.884 91.5469 384.706 91.5469 386.35V393.01H88.8829V387.178C88.8829 386.782 88.8109 386.512 88.6669 386.368C88.5229 386.212 88.2769 386.134 87.9289 386.134C87.5449 386.134 87.1489 386.212 86.7409 386.368C86.3329 386.512 85.8289 386.734 85.2289 387.034L85.1029 385.558C85.7389 385.018 86.3869 384.604 87.0469 384.316C87.7189 384.028 88.3789 383.884 89.0269 383.884ZM84.9769 384.118L85.2829 385.882L85.4989 386.116V393.01H82.8529V384.118H84.9769ZM97.1194 381.652V390.166C97.1194 390.49 97.1914 390.724 97.3354 390.868C97.4914 391 97.7434 391.066 98.0914 391.066H99.2434L99.5314 392.866C99.3154 392.938 99.0514 392.998 98.7394 393.046C98.4274 393.106 98.1154 393.148 97.8034 393.172C97.4914 393.196 97.2274 393.208 97.0114 393.208C96.2074 393.208 95.5774 392.998 95.1214 392.578C94.6774 392.146 94.4554 391.54 94.4554 390.76V381.652H97.1194ZM99.6034 384.118V385.864H92.9074V384.208L94.6354 384.118H99.6034ZM105.24 383.884C106.74 383.884 107.814 384.142 108.462 384.658C109.122 385.162 109.452 385.918 109.452 386.926C109.464 387.73 109.26 388.336 108.84 388.744C108.42 389.152 107.694 389.356 106.662 389.356H101.694V387.862H105.942C106.338 387.862 106.59 387.778 106.698 387.61C106.818 387.43 106.878 387.184 106.878 386.872C106.878 386.452 106.758 386.164 106.518 386.008C106.29 385.84 105.894 385.756 105.33 385.756C104.838 385.744 104.454 385.81 104.178 385.954C103.902 386.086 103.71 386.338 103.602 386.71C103.494 387.082 103.44 387.622 103.44 388.33C103.44 389.074 103.506 389.65 103.638 390.058C103.77 390.454 103.992 390.73 104.304 390.886C104.628 391.042 105.072 391.12 105.636 391.12C106.044 391.12 106.548 391.108 107.148 391.084C107.76 391.048 108.372 390.994 108.984 390.922L109.236 392.56C108.888 392.728 108.492 392.86 108.048 392.956C107.604 393.052 107.148 393.118 106.68 393.154C106.212 393.202 105.762 393.226 105.33 393.226C104.202 393.226 103.296 393.064 102.612 392.74C101.928 392.404 101.43 391.894 101.118 391.21C100.818 390.526 100.668 389.65 100.668 388.582C100.668 387.418 100.818 386.494 101.118 385.81C101.43 385.126 101.922 384.634 102.594 384.334C103.266 384.034 104.148 383.884 105.24 383.884ZM119.901 384.118L117.327 388.456L120.099 393.01H117.399L114.771 388.456L117.201 384.118H119.901ZM113.151 384.118L115.581 388.456L112.971 393.01H110.253L113.025 388.456L110.469 384.118H113.151ZM116.589 387.592V389.248H113.799V387.592H116.589ZM124.84 381.652V390.166C124.84 390.49 124.912 390.724 125.056 390.868C125.212 391 125.464 391.066 125.812 391.066H126.964L127.252 392.866C127.036 392.938 126.772 392.998 126.46 393.046C126.148 393.106 125.836 393.148 125.524 393.172C125.212 393.196 124.948 393.208 124.732 393.208C123.928 393.208 123.298 392.998 122.842 392.578C122.398 392.146 122.176 391.54 122.176 390.76V381.652H124.84ZM127.324 384.118V385.864H120.628V384.208L122.356 384.118H127.324ZM132.979 383.884C134.095 383.884 134.989 384.04 135.661 384.352C136.333 384.652 136.813 385.144 137.101 385.828C137.401 386.512 137.551 387.43 137.551 388.582C137.551 389.71 137.401 390.616 137.101 391.3C136.813 391.984 136.333 392.476 135.661 392.776C134.989 393.076 134.095 393.226 132.979 393.226C131.875 393.226 130.987 393.076 130.315 392.776C129.643 392.476 129.157 391.984 128.857 391.3C128.557 390.616 128.407 389.71 128.407 388.582C128.407 387.43 128.557 386.512 128.857 385.828C129.157 385.144 129.643 384.652 130.315 384.352C130.987 384.04 131.875 383.884 132.979 383.884ZM132.979 385.81C132.523 385.81 132.163 385.888 131.899 386.044C131.635 386.2 131.449 386.476 131.341 386.872C131.233 387.268 131.179 387.838 131.179 388.582C131.179 389.302 131.233 389.86 131.341 390.256C131.449 390.652 131.635 390.928 131.899 391.084C132.163 391.228 132.523 391.3 132.979 391.3C133.447 391.3 133.813 391.228 134.077 391.084C134.341 390.928 134.521 390.652 134.617 390.256C134.725 389.86 134.779 389.302 134.779 388.582C134.779 387.838 134.725 387.268 134.617 386.872C134.521 386.476 134.341 386.2 134.077 386.044C133.813 385.888 133.447 385.81 132.979 385.81ZM146.31 383.884C146.946 383.884 147.552 383.974 148.128 384.154C148.704 384.334 149.214 384.628 149.658 385.036L149.478 386.242C149.082 386.122 148.716 386.02 148.38 385.936C148.056 385.84 147.678 385.792 147.246 385.792C146.874 385.792 146.574 385.858 146.346 385.99C146.118 386.122 145.95 386.38 145.842 386.764C145.734 387.148 145.68 387.718 145.68 388.474C145.68 389.182 145.728 389.722 145.824 390.094C145.932 390.454 146.094 390.706 146.31 390.85C146.538 390.982 146.826 391.048 147.174 391.048C147.486 391.048 147.756 391.018 147.984 390.958C148.212 390.886 148.44 390.784 148.668 390.652C148.896 390.508 149.16 390.334 149.46 390.13L149.64 391.444C149.28 391.948 148.812 392.374 148.236 392.722C147.66 393.058 146.952 393.226 146.112 393.226C144.972 393.226 144.156 392.818 143.664 392.002C143.184 391.186 142.944 390.016 142.944 388.492C142.944 387.304 143.07 386.38 143.322 385.72C143.574 385.048 143.946 384.574 144.438 384.298C144.942 384.022 145.566 383.884 146.31 383.884ZM151.836 380.41V393.01H149.73L149.46 391.372L149.172 391.174V385.342L149.28 385.09C149.244 384.73 149.214 384.364 149.19 383.992C149.178 383.608 149.172 383.218 149.172 382.822V380.41H151.836ZM158.221 383.884C159.721 383.884 160.795 384.142 161.443 384.658C162.103 385.162 162.433 385.918 162.433 386.926C162.445 387.73 162.241 388.336 161.821 388.744C161.401 389.152 160.675 389.356 159.643 389.356H154.675V387.862H158.923C159.319 387.862 159.571 387.778 159.679 387.61C159.799 387.43 159.859 387.184 159.859 386.872C159.859 386.452 159.739 386.164 159.499 386.008C159.271 385.84 158.875 385.756 158.311 385.756C157.819 385.744 157.435 385.81 157.159 385.954C156.883 386.086 156.691 386.338 156.583 386.71C156.475 387.082 156.421 387.622 156.421 388.33C156.421 389.074 156.487 389.65 156.619 390.058C156.751 390.454 156.973 390.73 157.285 390.886C157.609 391.042 158.053 391.12 158.617 391.12C159.025 391.12 159.529 391.108 160.129 391.084C160.741 391.048 161.353 390.994 161.965 390.922L162.217 392.56C161.869 392.728 161.473 392.86 161.029 392.956C160.585 393.052 160.129 393.118 159.661 393.154C159.193 393.202 158.743 393.226 158.311 393.226C157.183 393.226 156.277 393.064 155.593 392.74C154.909 392.404 154.411 391.894 154.099 391.21C153.799 390.526 153.649 389.65 153.649 388.582C153.649 387.418 153.799 386.494 154.099 385.81C154.411 385.126 154.903 384.634 155.575 384.334C156.247 384.034 157.129 383.884 158.221 383.884ZM180.959 380.59C181.607 380.59 181.943 380.926 181.967 381.598L182.435 393.01H179.897L179.483 382.696H179.159L177.161 390.454C177.053 391.03 176.693 391.318 176.081 391.318H174.353C173.741 391.318 173.375 391.03 173.255 390.454L171.239 382.696H170.933L170.555 393.01H168.017L168.467 381.598C168.503 380.926 168.845 380.59 169.493 380.59H172.067C172.655 380.59 173.015 380.878 173.147 381.454L174.749 387.718C174.821 388.006 174.881 388.3 174.929 388.6C174.977 388.888 175.031 389.182 175.091 389.482H175.325C175.385 389.182 175.439 388.888 175.487 388.6C175.547 388.3 175.607 388 175.667 387.7L177.251 381.454C177.371 380.878 177.737 380.59 178.349 380.59H180.959ZM188.754 383.884C190.254 383.884 191.328 384.142 191.976 384.658C192.636 385.162 192.966 385.918 192.966 386.926C192.978 387.73 192.774 388.336 192.354 388.744C191.934 389.152 191.208 389.356 190.176 389.356H185.208V387.862H189.456C189.852 387.862 190.104 387.778 190.212 387.61C190.332 387.43 190.392 387.184 190.392 386.872C190.392 386.452 190.272 386.164 190.032 386.008C189.804 385.84 189.408 385.756 188.844 385.756C188.352 385.744 187.968 385.81 187.692 385.954C187.416 386.086 187.224 386.338 187.116 386.71C187.008 387.082 186.954 387.622 186.954 388.33C186.954 389.074 187.02 389.65 187.152 390.058C187.284 390.454 187.506 390.73 187.818 390.886C188.142 391.042 188.586 391.12 189.15 391.12C189.558 391.12 190.062 391.108 190.662 391.084C191.274 391.048 191.886 390.994 192.498 390.922L192.75 392.56C192.402 392.728 192.006 392.86 191.562 392.956C191.118 393.052 190.662 393.118 190.194 393.154C189.726 393.202 189.276 393.226 188.844 393.226C187.716 393.226 186.81 393.064 186.126 392.74C185.442 392.404 184.944 391.894 184.632 391.21C184.332 390.526 184.182 389.65 184.182 388.582C184.182 387.418 184.332 386.494 184.632 385.81C184.944 385.126 185.436 384.634 186.108 384.334C186.78 384.034 187.662 383.884 188.754 383.884ZM196.79 384.118L197.114 385.882L197.366 386.116V393.01H194.72V384.118H196.79ZM201.128 383.884L200.876 386.332H200.138C199.718 386.332 199.28 386.392 198.824 386.512C198.368 386.632 197.792 386.818 197.096 387.07L196.916 385.576C197.54 385.024 198.17 384.604 198.806 384.316C199.442 384.028 200.06 383.884 200.66 383.884H201.128ZM206.383 383.884C206.707 383.884 207.061 383.902 207.445 383.938C207.829 383.962 208.213 384.016 208.597 384.1C208.993 384.172 209.353 384.28 209.677 384.424L209.389 386.098C208.909 386.074 208.447 386.062 208.003 386.062C207.571 386.05 207.181 386.044 206.833 386.044C206.293 386.044 205.867 386.116 205.555 386.26C205.243 386.404 205.015 386.656 204.871 387.016C204.739 387.376 204.673 387.886 204.673 388.546C204.673 389.206 204.739 389.722 204.871 390.094C205.015 390.466 205.243 390.724 205.555 390.868C205.867 391.012 206.293 391.084 206.833 391.084C207.025 391.084 207.271 391.078 207.571 391.066C207.871 391.054 208.195 391.042 208.543 391.03C208.891 391.006 209.233 390.97 209.569 390.922L209.821 392.614C209.341 392.83 208.795 392.986 208.183 393.082C207.571 393.178 206.965 393.226 206.365 393.226C205.273 393.226 204.397 393.076 203.737 392.776C203.077 392.464 202.603 391.966 202.315 391.282C202.027 390.598 201.883 389.686 201.883 388.546C201.883 387.406 202.027 386.494 202.315 385.81C202.615 385.126 203.095 384.634 203.755 384.334C204.415 384.034 205.291 383.884 206.383 383.884ZM216.099 383.884C216.843 383.884 217.473 383.986 217.989 384.19C218.505 384.382 218.895 384.718 219.159 385.198C219.435 385.666 219.573 386.308 219.573 387.124V393.01H217.467L217.089 391.084L216.909 390.814V387.124C216.897 386.692 216.789 386.386 216.585 386.206C216.393 386.014 216.027 385.918 215.487 385.918C215.019 385.918 214.443 385.936 213.759 385.972C213.075 385.996 212.373 386.032 211.653 386.08L211.419 384.316C211.851 384.232 212.343 384.16 212.895 384.1C213.459 384.04 214.023 383.992 214.587 383.956C215.151 383.908 215.655 383.884 216.099 383.884ZM218.475 387.538L218.457 389.032H214.497C214.173 389.044 213.939 389.128 213.795 389.284C213.663 389.44 213.597 389.65 213.597 389.914V390.346C213.597 390.646 213.681 390.88 213.849 391.048C214.017 391.204 214.287 391.282 214.659 391.282C214.971 391.282 215.307 391.216 215.667 391.084C216.039 390.952 216.405 390.766 216.765 390.526C217.125 390.286 217.449 390.004 217.737 389.68V390.832C217.629 391.012 217.467 391.24 217.251 391.516C217.035 391.78 216.765 392.044 216.441 392.308C216.117 392.56 215.739 392.776 215.307 392.956C214.875 393.124 214.383 393.208 213.831 393.208C213.303 393.208 212.817 393.118 212.373 392.938C211.941 392.746 211.599 392.464 211.347 392.092C211.095 391.72 210.969 391.258 210.969 390.706V389.788C210.969 389.08 211.209 388.528 211.689 388.132C212.169 387.736 212.829 387.538 213.669 387.538H218.475ZM224.709 383.884C225.345 383.884 225.951 383.974 226.527 384.154C227.103 384.334 227.613 384.628 228.057 385.036L227.877 386.242C227.481 386.122 227.115 386.02 226.779 385.936C226.455 385.84 226.077 385.792 225.645 385.792C225.273 385.792 224.973 385.858 224.745 385.99C224.517 386.122 224.349 386.38 224.241 386.764C224.133 387.148 224.079 387.718 224.079 388.474C224.079 389.182 224.127 389.722 224.223 390.094C224.331 390.454 224.493 390.706 224.709 390.85C224.937 390.982 225.225 391.048 225.573 391.048C225.885 391.048 226.155 391.018 226.383 390.958C226.611 390.886 226.839 390.784 227.067 390.652C227.295 390.508 227.559 390.334 227.859 390.13L228.039 391.444C227.679 391.948 227.211 392.374 226.635 392.722C226.059 393.058 225.351 393.226 224.511 393.226C223.371 393.226 222.555 392.818 222.063 392.002C221.583 391.186 221.343 390.016 221.343 388.492C221.343 387.304 221.469 386.38 221.721 385.72C221.973 385.048 222.345 384.574 222.837 384.298C223.341 384.022 223.965 383.884 224.709 383.884ZM230.235 380.41V393.01H228.129L227.859 391.372L227.571 391.174V385.342L227.679 385.09C227.643 384.73 227.613 384.364 227.589 383.992C227.577 383.608 227.571 383.218 227.571 382.822V380.41H230.235ZM236.637 383.884C237.753 383.884 238.647 384.04 239.319 384.352C239.991 384.652 240.471 385.144 240.759 385.828C241.059 386.512 241.209 387.43 241.209 388.582C241.209 389.71 241.059 390.616 240.759 391.3C240.471 391.984 239.991 392.476 239.319 392.776C238.647 393.076 237.753 393.226 236.637 393.226C235.533 393.226 234.645 393.076 233.973 392.776C233.301 392.476 232.815 391.984 232.515 391.3C232.215 390.616 232.065 389.71 232.065 388.582C232.065 387.43 232.215 386.512 232.515 385.828C232.815 385.144 233.301 384.652 233.973 384.352C234.645 384.04 235.533 383.884 236.637 383.884ZM236.637 385.81C236.181 385.81 235.821 385.888 235.557 386.044C235.293 386.2 235.107 386.476 234.999 386.872C234.891 387.268 234.837 387.838 234.837 388.582C234.837 389.302 234.891 389.86 234.999 390.256C235.107 390.652 235.293 390.928 235.557 391.084C235.821 391.228 236.181 391.3 236.637 391.3C237.105 391.3 237.471 391.228 237.735 391.084C237.999 390.928 238.179 390.652 238.275 390.256C238.383 389.86 238.437 389.302 238.437 388.582C238.437 387.838 238.383 387.268 238.275 386.872C238.179 386.476 237.999 386.2 237.735 386.044C237.471 385.888 237.105 385.81 236.637 385.81Z" fill="#003A69"/>
</g>
<g clip-path="url(#clip3_2967_9094)">
<rect width="234" height="21" transform="translate(293.75 375)" fill="#99B0C3"/>
<path d="M387.792 380.338C388.332 380.338 388.824 380.356 389.268 380.392C389.712 380.416 390.132 380.464 390.528 380.536C390.936 380.596 391.332 380.68 391.716 380.788L391.5 382.786C391.08 382.762 390.672 382.744 390.276 382.732C389.88 382.72 389.484 382.714 389.088 382.714C388.692 382.702 388.278 382.696 387.846 382.696C387.33 382.696 386.898 382.75 386.55 382.858C386.214 382.966 385.944 383.17 385.74 383.47C385.536 383.77 385.386 384.19 385.29 384.73C385.206 385.27 385.164 385.972 385.164 386.836C385.164 387.868 385.23 388.678 385.362 389.266C385.494 389.854 385.716 390.274 386.028 390.526C386.34 390.766 386.76 390.886 387.288 390.886C387.648 390.886 387.978 390.85 388.278 390.778C388.578 390.706 388.854 390.61 389.106 390.49C389.37 390.358 389.604 390.232 389.808 390.112L390.114 391.408C389.934 391.66 389.664 391.93 389.304 392.218C388.956 392.506 388.53 392.752 388.026 392.956C387.522 393.148 386.946 393.244 386.298 393.244C385.362 393.244 384.594 393.022 383.994 392.578C383.394 392.134 382.956 391.438 382.68 390.49C382.404 389.542 382.266 388.306 382.266 386.782C382.266 385.162 382.44 383.884 382.788 382.948C383.148 382.012 383.73 381.346 384.534 380.95C385.35 380.542 386.436 380.338 387.792 380.338ZM392.148 385.846V393.01H390.132L389.754 391.12L389.502 390.616V385.846H392.148ZM398.384 383.884C399.884 383.884 400.958 384.142 401.606 384.658C402.266 385.162 402.596 385.918 402.596 386.926C402.608 387.73 402.404 388.336 401.984 388.744C401.564 389.152 400.838 389.356 399.806 389.356H394.838V387.862H399.086C399.482 387.862 399.734 387.778 399.842 387.61C399.962 387.43 400.022 387.184 400.022 386.872C400.022 386.452 399.902 386.164 399.662 386.008C399.434 385.84 399.038 385.756 398.474 385.756C397.982 385.744 397.598 385.81 397.322 385.954C397.046 386.086 396.854 386.338 396.746 386.71C396.638 387.082 396.584 387.622 396.584 388.33C396.584 389.074 396.65 389.65 396.782 390.058C396.914 390.454 397.136 390.73 397.448 390.886C397.772 391.042 398.216 391.12 398.78 391.12C399.188 391.12 399.692 391.108 400.292 391.084C400.904 391.048 401.516 390.994 402.128 390.922L402.38 392.56C402.032 392.728 401.636 392.86 401.192 392.956C400.748 393.052 400.292 393.118 399.824 393.154C399.356 393.202 398.906 393.226 398.474 393.226C397.346 393.226 396.44 393.064 395.756 392.74C395.072 392.404 394.574 391.894 394.262 391.21C393.962 390.526 393.812 389.65 393.812 388.582C393.812 387.418 393.962 386.494 394.262 385.81C394.574 385.126 395.066 384.634 395.738 384.334C396.41 384.034 397.292 383.884 398.384 383.884ZM407.716 383.884C408.148 383.884 408.616 383.902 409.12 383.938C409.624 383.962 410.116 383.998 410.596 384.046C411.076 384.094 411.502 384.154 411.874 384.226L411.694 385.882C411.118 385.87 410.536 385.858 409.948 385.846C409.372 385.834 408.808 385.828 408.256 385.828C407.788 385.828 407.428 385.84 407.176 385.864C406.924 385.876 406.744 385.93 406.636 386.026C406.54 386.11 406.492 386.266 406.492 386.494C406.492 386.77 406.582 386.956 406.762 387.052C406.942 387.136 407.242 387.232 407.662 387.34L409.984 387.898C410.728 388.09 411.28 388.378 411.64 388.762C412 389.134 412.18 389.698 412.18 390.454C412.18 391.198 412.042 391.768 411.766 392.164C411.49 392.56 411.052 392.836 410.452 392.992C409.852 393.136 409.078 393.208 408.13 393.208C407.758 393.208 407.206 393.19 406.474 393.154C405.742 393.118 404.944 393.028 404.08 392.884L404.242 391.228C404.47 391.24 404.746 391.252 405.07 391.264C405.406 391.264 405.772 391.264 406.168 391.264C406.564 391.264 406.96 391.264 407.356 391.264C407.98 391.264 408.454 391.252 408.778 391.228C409.102 391.192 409.324 391.12 409.444 391.012C409.564 390.904 409.624 390.742 409.624 390.526C409.624 390.25 409.522 390.07 409.318 389.986C409.114 389.89 408.79 389.782 408.346 389.662L406.096 389.104C405.52 388.948 405.076 388.75 404.764 388.51C404.452 388.27 404.23 387.982 404.098 387.646C403.978 387.298 403.918 386.884 403.918 386.404C403.918 385.792 404.044 385.3 404.296 384.928C404.548 384.556 404.95 384.292 405.502 384.136C406.054 383.968 406.792 383.884 407.716 383.884ZM417.368 381.652V390.166C417.368 390.49 417.44 390.724 417.584 390.868C417.74 391 417.992 391.066 418.34 391.066H419.492L419.78 392.866C419.564 392.938 419.3 392.998 418.988 393.046C418.676 393.106 418.364 393.148 418.052 393.172C417.74 393.196 417.476 393.208 417.26 393.208C416.456 393.208 415.826 392.998 415.37 392.578C414.926 392.146 414.704 391.54 414.704 390.76V381.652H417.368ZM419.852 384.118V385.864H413.156V384.208L414.884 384.118H419.852ZM425.975 383.884C426.719 383.884 427.349 383.986 427.865 384.19C428.381 384.382 428.771 384.718 429.035 385.198C429.311 385.666 429.449 386.308 429.449 387.124V393.01H427.343L426.965 391.084L426.785 390.814V387.124C426.773 386.692 426.665 386.386 426.461 386.206C426.269 386.014 425.903 385.918 425.363 385.918C424.895 385.918 424.319 385.936 423.635 385.972C422.951 385.996 422.249 386.032 421.529 386.08L421.295 384.316C421.727 384.232 422.219 384.16 422.771 384.1C423.335 384.04 423.899 383.992 424.463 383.956C425.027 383.908 425.531 383.884 425.975 383.884ZM428.351 387.538L428.333 389.032H424.373C424.049 389.044 423.815 389.128 423.671 389.284C423.539 389.44 423.473 389.65 423.473 389.914V390.346C423.473 390.646 423.557 390.88 423.725 391.048C423.893 391.204 424.163 391.282 424.535 391.282C424.847 391.282 425.183 391.216 425.543 391.084C425.915 390.952 426.281 390.766 426.641 390.526C427.001 390.286 427.325 390.004 427.613 389.68V390.832C427.505 391.012 427.343 391.24 427.127 391.516C426.911 391.78 426.641 392.044 426.317 392.308C425.993 392.56 425.615 392.776 425.183 392.956C424.751 393.124 424.259 393.208 423.707 393.208C423.179 393.208 422.693 393.118 422.249 392.938C421.817 392.746 421.475 392.464 421.223 392.092C420.971 391.72 420.845 391.258 420.845 390.706V389.788C420.845 389.08 421.085 388.528 421.565 388.132C422.045 387.736 422.705 387.538 423.545 387.538H428.351ZM423.707 379.96C424.007 379.984 424.277 380.038 424.517 380.122C424.757 380.194 424.985 380.278 425.201 380.374C425.429 380.47 425.651 380.566 425.867 380.662C426.095 380.746 426.329 380.806 426.569 380.842C426.881 380.89 427.073 380.848 427.145 380.716C427.229 380.584 427.271 380.362 427.271 380.05H428.423C428.555 380.89 428.471 381.532 428.171 381.976C427.871 382.42 427.463 382.624 426.947 382.588C426.539 382.552 426.167 382.468 425.831 382.336C425.507 382.204 425.201 382.072 424.913 381.94C424.637 381.808 424.355 381.724 424.067 381.688C423.767 381.64 423.575 381.688 423.491 381.832C423.419 381.964 423.383 382.192 423.383 382.516H422.249C422.153 381.916 422.165 381.424 422.285 381.04C422.417 380.656 422.609 380.374 422.861 380.194C423.125 380.014 423.407 379.936 423.707 379.96ZM435.773 383.884C436.889 383.884 437.783 384.04 438.455 384.352C439.127 384.652 439.607 385.144 439.895 385.828C440.195 386.512 440.345 387.43 440.345 388.582C440.345 389.71 440.195 390.616 439.895 391.3C439.607 391.984 439.127 392.476 438.455 392.776C437.783 393.076 436.889 393.226 435.773 393.226C434.669 393.226 433.781 393.076 433.109 392.776C432.437 392.476 431.951 391.984 431.651 391.3C431.351 390.616 431.201 389.71 431.201 388.582C431.201 387.43 431.351 386.512 431.651 385.828C431.951 385.144 432.437 384.652 433.109 384.352C433.781 384.04 434.669 383.884 435.773 383.884ZM435.773 385.81C435.317 385.81 434.957 385.888 434.693 386.044C434.429 386.2 434.243 386.476 434.135 386.872C434.027 387.268 433.973 387.838 433.973 388.582C433.973 389.302 434.027 389.86 434.135 390.256C434.243 390.652 434.429 390.928 434.693 391.084C434.957 391.228 435.317 391.3 435.773 391.3C436.241 391.3 436.607 391.228 436.871 391.084C437.135 390.928 437.315 390.652 437.411 390.256C437.519 389.86 437.573 389.302 437.573 388.582C437.573 387.838 437.519 387.268 437.411 386.872C437.315 386.476 437.135 386.2 436.871 386.044C436.607 385.888 436.241 385.81 435.773 385.81Z" fill="#003A69"/>
</g>
<g clip-path="url(#clip4_2967_9094)">
<rect width="234" height="21" transform="translate(552.75 375)" fill="#99B0C3"/>
<path d="M581.096 380.374C581.684 380.374 582.182 380.392 582.59 380.428C583.01 380.452 583.394 380.494 583.742 380.554C584.09 380.614 584.45 380.692 584.822 380.788L584.606 382.822C584.21 382.798 583.844 382.78 583.508 382.768C583.184 382.756 582.83 382.744 582.446 382.732C582.074 382.72 581.624 382.714 581.096 382.714C580.484 382.714 580.004 382.84 579.656 383.092C579.32 383.332 579.08 383.746 578.936 384.334C578.792 384.922 578.72 385.744 578.72 386.8C578.72 387.844 578.792 388.666 578.936 389.266C579.08 389.854 579.32 390.268 579.656 390.508C580.004 390.748 580.484 390.868 581.096 390.868C581.924 390.868 582.62 390.856 583.184 390.832C583.748 390.808 584.306 390.766 584.858 390.706L585.092 392.722C584.516 392.902 583.928 393.028 583.328 393.1C582.728 393.184 581.984 393.226 581.096 393.226C579.812 393.226 578.786 393.022 578.018 392.614C577.25 392.194 576.692 391.516 576.344 390.58C576.008 389.644 575.84 388.384 575.84 386.8C575.84 385.216 576.008 383.956 576.344 383.02C576.692 382.084 577.25 381.412 578.018 381.004C578.786 380.584 579.812 380.374 581.096 380.374ZM589.338 380.41L589.32 390.166C589.32 390.466 589.41 390.694 589.59 390.85C589.77 390.994 590.034 391.066 590.382 391.066H591.102L591.408 392.866C591.264 392.938 591.06 392.998 590.796 393.046C590.532 393.106 590.262 393.148 589.986 393.172C589.71 393.196 589.476 393.208 589.284 393.208C588.48 393.208 587.844 393.004 587.376 392.596C586.92 392.176 586.692 391.588 586.692 390.832V380.41H589.338ZM595.28 384.118V393.01H592.652V384.118H595.28ZM594.542 380.194C595.07 380.194 595.334 380.458 595.334 380.986V381.958C595.334 382.486 595.07 382.75 594.542 382.75H593.39C592.862 382.75 592.598 382.486 592.598 381.958V380.986C592.598 380.458 592.862 380.194 593.39 380.194H594.542ZM601.749 383.884C603.249 383.884 604.323 384.142 604.971 384.658C605.631 385.162 605.961 385.918 605.961 386.926C605.973 387.73 605.769 388.336 605.349 388.744C604.929 389.152 604.203 389.356 603.171 389.356H598.203V387.862H602.451C602.847 387.862 603.099 387.778 603.207 387.61C603.327 387.43 603.387 387.184 603.387 386.872C603.387 386.452 603.267 386.164 603.027 386.008C602.799 385.84 602.403 385.756 601.839 385.756C601.347 385.744 600.963 385.81 600.687 385.954C600.411 386.086 600.219 386.338 600.111 386.71C600.003 387.082 599.949 387.622 599.949 388.33C599.949 389.074 600.015 389.65 600.147 390.058C600.279 390.454 600.501 390.73 600.813 390.886C601.137 391.042 601.581 391.12 602.145 391.12C602.553 391.12 603.057 391.108 603.657 391.084C604.269 391.048 604.881 390.994 605.493 390.922L605.745 392.56C605.397 392.728 605.001 392.86 604.557 392.956C604.113 393.052 603.657 393.118 603.189 393.154C602.721 393.202 602.271 393.226 601.839 393.226C600.711 393.226 599.805 393.064 599.121 392.74C598.437 392.404 597.939 391.894 597.627 391.21C597.327 390.526 597.177 389.65 597.177 388.582C597.177 387.418 597.327 386.494 597.627 385.81C597.939 385.126 598.431 384.634 599.103 384.334C599.775 384.034 600.657 383.884 601.749 383.884ZM613.889 383.884C615.569 383.884 616.409 384.706 616.409 386.35V393.01H613.745V387.178C613.745 386.782 613.673 386.512 613.529 386.368C613.385 386.212 613.139 386.134 612.791 386.134C612.407 386.134 612.011 386.212 611.603 386.368C611.195 386.512 610.691 386.734 610.091 387.034L609.965 385.558C610.601 385.018 611.249 384.604 611.909 384.316C612.581 384.028 613.241 383.884 613.889 383.884ZM609.839 384.118L610.145 385.882L610.361 386.116V393.01H607.715V384.118H609.839ZM621.982 381.652V390.166C621.982 390.49 622.054 390.724 622.198 390.868C622.354 391 622.606 391.066 622.954 391.066H624.106L624.394 392.866C624.178 392.938 623.914 392.998 623.602 393.046C623.29 393.106 622.978 393.148 622.666 393.172C622.354 393.196 622.09 393.208 621.874 393.208C621.07 393.208 620.44 392.998 619.984 392.578C619.54 392.146 619.318 391.54 619.318 390.76V381.652H621.982ZM624.466 384.118V385.864H617.77V384.208L619.498 384.118H624.466ZM630.103 383.884C631.603 383.884 632.677 384.142 633.325 384.658C633.985 385.162 634.315 385.918 634.315 386.926C634.327 387.73 634.123 388.336 633.703 388.744C633.283 389.152 632.557 389.356 631.525 389.356H626.557V387.862H630.805C631.201 387.862 631.453 387.778 631.561 387.61C631.681 387.43 631.741 387.184 631.741 386.872C631.741 386.452 631.621 386.164 631.381 386.008C631.153 385.84 630.757 385.756 630.193 385.756C629.701 385.744 629.317 385.81 629.041 385.954C628.765 386.086 628.573 386.338 628.465 386.71C628.357 387.082 628.303 387.622 628.303 388.33C628.303 389.074 628.369 389.65 628.501 390.058C628.633 390.454 628.855 390.73 629.167 390.886C629.491 391.042 629.935 391.12 630.499 391.12C630.907 391.12 631.411 391.108 632.011 391.084C632.623 391.048 633.235 390.994 633.847 390.922L634.099 392.56C633.751 392.728 633.355 392.86 632.911 392.956C632.467 393.052 632.011 393.118 631.543 393.154C631.075 393.202 630.625 393.226 630.193 393.226C629.065 393.226 628.159 393.064 627.475 392.74C626.791 392.404 626.293 391.894 625.981 391.21C625.681 390.526 625.531 389.65 625.531 388.582C625.531 387.418 625.681 386.494 625.981 385.81C626.293 385.126 626.785 384.634 627.457 384.334C628.129 384.034 629.011 383.884 630.103 383.884ZM644.165 383.884C645.665 383.884 646.739 384.142 647.387 384.658C648.047 385.162 648.377 385.918 648.377 386.926C648.389 387.73 648.185 388.336 647.765 388.744C647.345 389.152 646.619 389.356 645.587 389.356H640.619V387.862H644.867C645.263 387.862 645.515 387.778 645.623 387.61C645.743 387.43 645.803 387.184 645.803 386.872C645.803 386.452 645.683 386.164 645.443 386.008C645.215 385.84 644.819 385.756 644.255 385.756C643.763 385.744 643.379 385.81 643.103 385.954C642.827 386.086 642.635 386.338 642.527 386.71C642.419 387.082 642.365 387.622 642.365 388.33C642.365 389.074 642.431 389.65 642.563 390.058C642.695 390.454 642.917 390.73 643.229 390.886C643.553 391.042 643.997 391.12 644.561 391.12C644.969 391.12 645.473 391.108 646.073 391.084C646.685 391.048 647.297 390.994 647.909 390.922L648.161 392.56C647.813 392.728 647.417 392.86 646.973 392.956C646.529 393.052 646.073 393.118 645.605 393.154C645.137 393.202 644.687 393.226 644.255 393.226C643.127 393.226 642.221 393.064 641.537 392.74C640.853 392.404 640.355 391.894 640.043 391.21C639.743 390.526 639.593 389.65 639.593 388.582C639.593 387.418 639.743 386.494 640.043 385.81C640.355 385.126 640.847 384.634 641.519 384.334C642.191 384.034 643.073 383.884 644.165 383.884ZM658.966 380.41C660.058 380.41 660.94 380.524 661.612 380.752C662.296 380.968 662.794 381.34 663.106 381.868C663.43 382.396 663.592 383.14 663.592 384.1C663.592 384.676 663.514 385.186 663.358 385.63C663.214 386.062 662.968 386.41 662.62 386.674C662.272 386.938 661.798 387.106 661.198 387.178V387.268C661.414 387.304 661.636 387.388 661.864 387.52C662.104 387.652 662.326 387.85 662.53 388.114C662.734 388.366 662.884 388.708 662.98 389.14L664.06 393.01H661.18L660.226 389.212C660.106 388.804 659.944 388.528 659.74 388.384C659.536 388.228 659.242 388.15 658.858 388.15C658.042 388.138 657.358 388.132 656.806 388.132C656.254 388.132 655.786 388.126 655.402 388.114C655.03 388.102 654.688 388.09 654.376 388.078L654.43 386.08H658.912C659.404 386.08 659.788 386.032 660.064 385.936C660.34 385.828 660.538 385.642 660.658 385.378C660.778 385.114 660.838 384.742 660.838 384.262C660.838 383.782 660.778 383.416 660.658 383.164C660.538 382.912 660.34 382.738 660.064 382.642C659.788 382.534 659.404 382.48 658.912 382.48C657.796 382.48 656.842 382.486 656.05 382.498C655.27 382.51 654.742 382.522 654.466 382.534L654.196 380.59C654.7 380.53 655.168 380.488 655.6 380.464C656.044 380.44 656.53 380.428 657.058 380.428C657.586 380.416 658.222 380.41 658.966 380.41ZM656.896 380.59V393.01H654.196V380.59H656.896ZM669.794 383.884C671.294 383.884 672.368 384.142 673.016 384.658C673.676 385.162 674.006 385.918 674.006 386.926C674.018 387.73 673.814 388.336 673.394 388.744C672.974 389.152 672.248 389.356 671.216 389.356H666.248V387.862H670.496C670.892 387.862 671.144 387.778 671.252 387.61C671.372 387.43 671.432 387.184 671.432 386.872C671.432 386.452 671.312 386.164 671.072 386.008C670.844 385.84 670.448 385.756 669.884 385.756C669.392 385.744 669.008 385.81 668.732 385.954C668.456 386.086 668.264 386.338 668.156 386.71C668.048 387.082 667.994 387.622 667.994 388.33C667.994 389.074 668.06 389.65 668.192 390.058C668.324 390.454 668.546 390.73 668.858 390.886C669.182 391.042 669.626 391.12 670.19 391.12C670.598 391.12 671.102 391.108 671.702 391.084C672.314 391.048 672.926 390.994 673.538 390.922L673.79 392.56C673.442 392.728 673.046 392.86 672.602 392.956C672.158 393.052 671.702 393.118 671.234 393.154C670.766 393.202 670.316 393.226 669.884 393.226C668.756 393.226 667.85 393.064 667.166 392.74C666.482 392.404 665.984 391.894 665.672 391.21C665.372 390.526 665.222 389.65 665.222 388.582C665.222 387.418 665.372 386.494 665.672 385.81C665.984 385.126 666.476 384.634 667.148 384.334C667.82 384.034 668.702 383.884 669.794 383.884ZM679.882 383.884C680.206 383.884 680.56 383.902 680.944 383.938C681.328 383.962 681.712 384.016 682.096 384.1C682.492 384.172 682.852 384.28 683.176 384.424L682.888 386.098C682.408 386.074 681.946 386.062 681.502 386.062C681.07 386.05 680.68 386.044 680.332 386.044C679.792 386.044 679.366 386.116 679.054 386.26C678.742 386.404 678.514 386.656 678.37 387.016C678.238 387.376 678.172 387.886 678.172 388.546C678.172 389.206 678.238 389.722 678.37 390.094C678.514 390.466 678.742 390.724 679.054 390.868C679.366 391.012 679.792 391.084 680.332 391.084C680.524 391.084 680.77 391.078 681.07 391.066C681.37 391.054 681.694 391.042 682.042 391.03C682.39 391.006 682.732 390.97 683.068 390.922L683.32 392.614C682.84 392.83 682.294 392.986 681.682 393.082C681.07 393.178 680.464 393.226 679.864 393.226C678.772 393.226 677.896 393.076 677.236 392.776C676.576 392.464 676.102 391.966 675.814 391.282C675.526 390.598 675.382 389.686 675.382 388.546C675.382 387.406 675.526 386.494 675.814 385.81C676.114 385.126 676.594 384.634 677.254 384.334C677.914 384.034 678.79 383.884 679.882 383.884ZM687.582 380.41L687.564 390.166C687.564 390.466 687.654 390.694 687.834 390.85C688.014 390.994 688.278 391.066 688.626 391.066H689.346L689.652 392.866C689.508 392.938 689.304 392.998 689.04 393.046C688.776 393.106 688.506 393.148 688.23 393.172C687.954 393.196 687.72 393.208 687.528 393.208C686.724 393.208 686.088 393.004 685.62 392.596C685.164 392.176 684.936 391.588 684.936 390.832V380.41H687.582ZM695.505 383.884C696.249 383.884 696.879 383.986 697.395 384.19C697.911 384.382 698.301 384.718 698.565 385.198C698.841 385.666 698.979 386.308 698.979 387.124V393.01H696.873L696.495 391.084L696.315 390.814V387.124C696.303 386.692 696.195 386.386 695.991 386.206C695.799 386.014 695.433 385.918 694.893 385.918C694.425 385.918 693.849 385.936 693.165 385.972C692.481 385.996 691.779 386.032 691.059 386.08L690.825 384.316C691.257 384.232 691.749 384.16 692.301 384.1C692.865 384.04 693.429 383.992 693.993 383.956C694.557 383.908 695.061 383.884 695.505 383.884ZM697.881 387.538L697.863 389.032H693.903C693.579 389.044 693.345 389.128 693.201 389.284C693.069 389.44 693.003 389.65 693.003 389.914V390.346C693.003 390.646 693.087 390.88 693.255 391.048C693.423 391.204 693.693 391.282 694.065 391.282C694.377 391.282 694.713 391.216 695.073 391.084C695.445 390.952 695.811 390.766 696.171 390.526C696.531 390.286 696.855 390.004 697.143 389.68V390.832C697.035 391.012 696.873 391.24 696.657 391.516C696.441 391.78 696.171 392.044 695.847 392.308C695.523 392.56 695.145 392.776 694.713 392.956C694.281 393.124 693.789 393.208 693.237 393.208C692.709 393.208 692.223 393.118 691.779 392.938C691.347 392.746 691.005 392.464 690.753 392.092C690.501 391.72 690.375 391.258 690.375 390.706V389.788C690.375 389.08 690.615 388.528 691.095 388.132C691.575 387.736 692.235 387.538 693.075 387.538H697.881ZM712.34 383.884C713.144 383.884 713.756 384.094 714.176 384.514C714.596 384.934 714.806 385.546 714.806 386.35V393.01H712.178V387.178C712.166 386.806 712.088 386.542 711.944 386.386C711.8 386.218 711.548 386.134 711.188 386.134C710.984 386.134 710.78 386.164 710.576 386.224C710.384 386.272 710.162 386.362 709.91 386.494C709.658 386.626 709.352 386.806 708.992 387.034L708.848 385.576C709.424 385.012 709.988 384.592 710.54 384.316C711.104 384.028 711.704 383.884 712.34 383.884ZM703.196 384.118L703.466 385.882L703.736 386.116V393.01H701.09V384.118H703.196ZM706.796 383.884C707.588 383.884 708.188 384.094 708.596 384.514C709.016 384.922 709.226 385.534 709.226 386.35V393.01H706.67V387.178C706.67 386.794 706.586 386.524 706.418 386.368C706.262 386.212 706.016 386.134 705.68 386.134C705.476 386.134 705.272 386.164 705.068 386.224C704.876 386.272 704.648 386.362 704.384 386.494C704.132 386.626 703.82 386.806 703.448 387.034L703.286 385.576C703.874 385.012 704.444 384.592 704.996 384.316C705.548 384.028 706.148 383.884 706.796 383.884ZM721.626 383.884C722.37 383.884 723 383.986 723.516 384.19C724.032 384.382 724.422 384.718 724.686 385.198C724.962 385.666 725.1 386.308 725.1 387.124V393.01H722.994L722.616 391.084L722.436 390.814V387.124C722.424 386.692 722.316 386.386 722.112 386.206C721.92 386.014 721.554 385.918 721.014 385.918C720.546 385.918 719.97 385.936 719.286 385.972C718.602 385.996 717.9 386.032 717.18 386.08L716.946 384.316C717.378 384.232 717.87 384.16 718.422 384.1C718.986 384.04 719.55 383.992 720.114 383.956C720.678 383.908 721.182 383.884 721.626 383.884ZM724.002 387.538L723.984 389.032H720.024C719.7 389.044 719.466 389.128 719.322 389.284C719.19 389.44 719.124 389.65 719.124 389.914V390.346C719.124 390.646 719.208 390.88 719.376 391.048C719.544 391.204 719.814 391.282 720.186 391.282C720.498 391.282 720.834 391.216 721.194 391.084C721.566 390.952 721.932 390.766 722.292 390.526C722.652 390.286 722.976 390.004 723.264 389.68V390.832C723.156 391.012 722.994 391.24 722.778 391.516C722.562 391.78 722.292 392.044 721.968 392.308C721.644 392.56 721.266 392.776 720.834 392.956C720.402 393.124 719.91 393.208 719.358 393.208C718.83 393.208 718.344 393.118 717.9 392.938C717.468 392.746 717.126 392.464 716.874 392.092C716.622 391.72 716.496 391.258 716.496 390.706V389.788C716.496 389.08 716.736 388.528 717.216 388.132C717.696 387.736 718.356 387.538 719.196 387.538H724.002ZM731.333 383.884C731.657 383.884 732.011 383.902 732.395 383.938C732.779 383.962 733.163 384.016 733.547 384.1C733.943 384.172 734.303 384.28 734.627 384.424L734.339 386.098C733.859 386.074 733.397 386.062 732.953 386.062C732.521 386.05 732.131 386.044 731.783 386.044C731.243 386.044 730.817 386.116 730.505 386.26C730.193 386.404 729.965 386.656 729.821 387.016C729.689 387.376 729.623 387.886 729.623 388.546C729.623 389.206 729.689 389.722 729.821 390.094C729.965 390.466 730.193 390.724 730.505 390.868C730.817 391.012 731.243 391.084 731.783 391.084C731.975 391.084 732.221 391.078 732.521 391.066C732.821 391.054 733.145 391.042 733.493 391.03C733.841 391.006 734.183 390.97 734.519 390.922L734.771 392.614C734.291 392.83 733.745 392.986 733.133 393.082C732.521 393.178 731.915 393.226 731.315 393.226C730.223 393.226 729.347 393.076 728.687 392.776C728.027 392.464 727.553 391.966 727.265 391.282C726.977 390.598 726.833 389.686 726.833 388.546C726.833 387.406 726.977 386.494 727.265 385.81C727.565 385.126 728.045 384.634 728.705 384.334C729.365 384.034 730.241 383.884 731.333 383.884ZM730.109 393.946C730.721 393.874 731.219 393.85 731.603 393.874C731.987 393.91 732.269 394.018 732.449 394.198C732.629 394.39 732.713 394.696 732.701 395.116C732.677 395.704 732.503 396.19 732.179 396.574C731.855 396.97 731.423 397.246 730.883 397.402C730.355 397.57 729.755 397.612 729.083 397.528L729.407 396.412C729.851 396.424 730.223 396.346 730.523 396.178C730.835 396.01 731.003 395.728 731.027 395.332C731.039 395.164 730.973 395.056 730.829 395.008C730.685 394.972 730.361 394.954 729.857 394.954L730.109 393.946ZM740.476 383.884C741.592 383.884 742.486 384.04 743.158 384.352C743.83 384.652 744.31 385.144 744.598 385.828C744.898 386.512 745.048 387.43 745.048 388.582C745.048 389.71 744.898 390.616 744.598 391.3C744.31 391.984 743.83 392.476 743.158 392.776C742.486 393.076 741.592 393.226 740.476 393.226C739.372 393.226 738.484 393.076 737.812 392.776C737.14 392.476 736.654 391.984 736.354 391.3C736.054 390.616 735.904 389.71 735.904 388.582C735.904 387.43 736.054 386.512 736.354 385.828C736.654 385.144 737.14 384.652 737.812 384.352C738.484 384.04 739.372 383.884 740.476 383.884ZM740.476 385.81C740.02 385.81 739.66 385.888 739.396 386.044C739.132 386.2 738.946 386.476 738.838 386.872C738.73 387.268 738.676 387.838 738.676 388.582C738.676 389.302 738.73 389.86 738.838 390.256C738.946 390.652 739.132 390.928 739.396 391.084C739.66 391.228 740.02 391.3 740.476 391.3C740.944 391.3 741.31 391.228 741.574 391.084C741.838 390.928 742.018 390.652 742.114 390.256C742.222 389.86 742.276 389.302 742.276 388.582C742.276 387.838 742.222 387.268 742.114 386.872C742.018 386.476 741.838 386.2 741.574 386.044C741.31 385.888 740.944 385.81 740.476 385.81ZM738.82 380.158C739.12 380.182 739.39 380.236 739.63 380.32C739.87 380.392 740.098 380.476 740.314 380.572C740.542 380.668 740.764 380.764 740.98 380.86C741.208 380.944 741.442 381.004 741.682 381.04C741.994 381.088 742.186 381.046 742.258 380.914C742.342 380.782 742.384 380.56 742.384 380.248H743.536C743.668 381.088 743.584 381.73 743.284 382.174C742.984 382.618 742.576 382.822 742.06 382.786C741.652 382.75 741.28 382.666 740.944 382.534C740.62 382.402 740.314 382.27 740.026 382.138C739.75 382.006 739.468 381.922 739.18 381.886C738.88 381.838 738.688 381.886 738.604 382.03C738.532 382.162 738.496 382.39 738.496 382.714H737.362C737.266 382.114 737.278 381.622 737.398 381.238C737.53 380.854 737.722 380.572 737.974 380.392C738.238 380.212 738.52 380.134 738.82 380.158ZM751.075 383.884C752.575 383.884 753.649 384.142 754.297 384.658C754.957 385.162 755.287 385.918 755.287 386.926C755.299 387.73 755.095 388.336 754.675 388.744C754.255 389.152 753.529 389.356 752.497 389.356H747.529V387.862H751.777C752.173 387.862 752.425 387.778 752.533 387.61C752.653 387.43 752.713 387.184 752.713 386.872C752.713 386.452 752.593 386.164 752.353 386.008C752.125 385.84 751.729 385.756 751.165 385.756C750.673 385.744 750.289 385.81 750.013 385.954C749.737 386.086 749.545 386.338 749.437 386.71C749.329 387.082 749.275 387.622 749.275 388.33C749.275 389.074 749.341 389.65 749.473 390.058C749.605 390.454 749.827 390.73 750.139 390.886C750.463 391.042 750.907 391.12 751.471 391.12C751.879 391.12 752.383 391.108 752.983 391.084C753.595 391.048 754.207 390.994 754.819 390.922L755.071 392.56C754.723 392.728 754.327 392.86 753.883 392.956C753.439 393.052 752.983 393.118 752.515 393.154C752.047 393.202 751.597 393.226 751.165 393.226C750.037 393.226 749.131 393.064 748.447 392.74C747.763 392.404 747.265 391.894 746.953 391.21C746.653 390.526 746.503 389.65 746.503 388.582C746.503 387.418 746.653 386.494 746.953 385.81C747.265 385.126 747.757 384.634 748.429 384.334C749.101 384.034 749.983 383.884 751.075 383.884ZM760.407 383.884C760.839 383.884 761.307 383.902 761.811 383.938C762.315 383.962 762.807 383.998 763.287 384.046C763.767 384.094 764.193 384.154 764.565 384.226L764.385 385.882C763.809 385.87 763.227 385.858 762.639 385.846C762.063 385.834 761.499 385.828 760.947 385.828C760.479 385.828 760.119 385.84 759.867 385.864C759.615 385.876 759.435 385.93 759.327 386.026C759.231 386.11 759.183 386.266 759.183 386.494C759.183 386.77 759.273 386.956 759.453 387.052C759.633 387.136 759.933 387.232 760.353 387.34L762.675 387.898C763.419 388.09 763.971 388.378 764.331 388.762C764.691 389.134 764.871 389.698 764.871 390.454C764.871 391.198 764.733 391.768 764.457 392.164C764.181 392.56 763.743 392.836 763.143 392.992C762.543 393.136 761.769 393.208 760.821 393.208C760.449 393.208 759.897 393.19 759.165 393.154C758.433 393.118 757.635 393.028 756.771 392.884L756.933 391.228C757.161 391.24 757.437 391.252 757.761 391.264C758.097 391.264 758.463 391.264 758.859 391.264C759.255 391.264 759.651 391.264 760.047 391.264C760.671 391.264 761.145 391.252 761.469 391.228C761.793 391.192 762.015 391.12 762.135 391.012C762.255 390.904 762.315 390.742 762.315 390.526C762.315 390.25 762.213 390.07 762.009 389.986C761.805 389.89 761.481 389.782 761.037 389.662L758.787 389.104C758.211 388.948 757.767 388.75 757.455 388.51C757.143 388.27 756.921 387.982 756.789 387.646C756.669 387.298 756.609 386.884 756.609 386.404C756.609 385.792 756.735 385.3 756.987 384.928C757.239 384.556 757.641 384.292 758.193 384.136C758.745 383.968 759.483 383.884 760.407 383.884Z" fill="#003A69"/>
</g>
<g clip-path="url(#clip5_2967_9094)">
<rect width="575" height="21" transform="translate(806.75 53.0498)" fill="#99B0C3"/>
<path d="M969.623 58.4596C970.787 58.4596 971.699 58.5796 972.359 58.8196C973.019 59.0596 973.487 59.4736 973.763 60.0616C974.051 60.6376 974.195 61.4596 974.195 62.5276C974.195 63.5836 974.057 64.4056 973.781 64.9936C973.517 65.5696 973.079 65.9776 972.467 66.2176C971.855 66.4456 971.027 66.5596 969.983 66.5596C969.431 66.5596 968.891 66.5416 968.363 66.5056C967.835 66.4576 967.343 66.3976 966.887 66.3256C966.431 66.2536 966.041 66.1756 965.717 66.0916C965.405 66.0076 965.183 65.9356 965.051 65.8756L965.105 64.5076C965.813 64.5076 966.545 64.5076 967.301 64.5076C968.069 64.5076 968.825 64.5076 969.569 64.5076C970.049 64.4956 970.427 64.4356 970.703 64.3276C970.979 64.2196 971.171 64.0216 971.279 63.7336C971.387 63.4456 971.441 63.0436 971.441 62.5276C971.441 61.9876 971.387 61.5736 971.279 61.2856C971.171 60.9976 970.979 60.7996 970.703 60.6916C970.427 60.5836 970.049 60.5296 969.569 60.5296C968.465 60.5296 967.517 60.5356 966.725 60.5476C965.945 60.5596 965.411 60.5776 965.123 60.6016L964.871 58.6396C965.375 58.5796 965.843 58.5376 966.275 58.5136C966.719 58.4896 967.199 58.4776 967.715 58.4776C968.243 58.4656 968.879 58.4596 969.623 58.4596ZM967.607 58.6396V71.0596H964.871V58.6396H967.607ZM977.906 62.1676L978.23 63.9316L978.482 64.1656V71.0596H975.836V62.1676H977.906ZM982.244 61.9336L981.992 64.3816H981.254C980.834 64.3816 980.396 64.4416 979.94 64.5616C979.484 64.6816 978.908 64.8676 978.212 65.1196L978.032 63.6256C978.656 63.0736 979.286 62.6536 979.922 62.3656C980.558 62.0776 981.176 61.9336 981.776 61.9336H982.244ZM987.589 61.9336C988.705 61.9336 989.599 62.0896 990.271 62.4016C990.943 62.7016 991.423 63.1936 991.711 63.8776C992.011 64.5616 992.161 65.4796 992.161 66.6316C992.161 67.7596 992.011 68.6656 991.711 69.3496C991.423 70.0336 990.943 70.5256 990.271 70.8256C989.599 71.1256 988.705 71.2756 987.589 71.2756C986.485 71.2756 985.597 71.1256 984.925 70.8256C984.253 70.5256 983.767 70.0336 983.467 69.3496C983.167 68.6656 983.017 67.7596 983.017 66.6316C983.017 65.4796 983.167 64.5616 983.467 63.8776C983.767 63.1936 984.253 62.7016 984.925 62.4016C985.597 62.0896 986.485 61.9336 987.589 61.9336ZM987.589 63.8596C987.133 63.8596 986.773 63.9376 986.509 64.0936C986.245 64.2496 986.059 64.5256 985.951 64.9216C985.843 65.3176 985.789 65.8876 985.789 66.6316C985.789 67.3516 985.843 67.9096 985.951 68.3056C986.059 68.7016 986.245 68.9776 986.509 69.1336C986.773 69.2776 987.133 69.3496 987.589 69.3496C988.057 69.3496 988.423 69.2776 988.687 69.1336C988.951 68.9776 989.131 68.7016 989.227 68.3056C989.335 67.9096 989.389 67.3516 989.389 66.6316C989.389 65.8876 989.335 65.3176 989.227 64.9216C989.131 64.5256 988.951 64.2496 988.687 64.0936C988.423 63.9376 988.057 63.8596 987.589 63.8596ZM997.018 61.9336C997.654 61.9336 998.26 62.0236 998.836 62.2036C999.412 62.3836 999.922 62.6776 1000.37 63.0856L1000.19 64.2916C999.79 64.1716 999.424 64.0696 999.088 63.9856C998.764 63.8896 998.386 63.8416 997.954 63.8416C997.582 63.8416 997.282 63.9076 997.054 64.0396C996.826 64.1716 996.658 64.4296 996.55 64.8136C996.442 65.1976 996.388 65.7676 996.388 66.5236C996.388 67.2316 996.436 67.7716 996.532 68.1436C996.64 68.5036 996.802 68.7556 997.018 68.8996C997.246 69.0316 997.534 69.0976 997.882 69.0976C998.194 69.0976 998.464 69.0676 998.692 69.0076C998.92 68.9356 999.148 68.8336 999.376 68.7016C999.604 68.5576 999.868 68.3836 1000.17 68.1796L1000.35 69.4936C999.988 69.9976 999.52 70.4236 998.944 70.7716C998.368 71.1076 997.66 71.2756 996.82 71.2756C995.68 71.2756 994.864 70.8676 994.372 70.0516C993.892 69.2356 993.652 68.0656 993.652 66.5416C993.652 65.3536 993.778 64.4296 994.03 63.7696C994.282 63.0976 994.654 62.6236 995.146 62.3476C995.65 62.0716 996.274 61.9336 997.018 61.9336ZM1002.54 58.4596V71.0596H1000.44L1000.17 69.4216L999.88 69.2236V63.3916L999.988 63.1396C999.952 62.7796 999.922 62.4136 999.898 62.0416C999.886 61.6576 999.88 61.2676 999.88 60.8716V58.4596H1002.54ZM1007.33 62.1676V68.0176C1007.33 68.3896 1007.4 68.6536 1007.56 68.8096C1007.73 68.9656 1007.99 69.0436 1008.35 69.0436C1008.72 69.0436 1009.09 68.9776 1009.45 68.8456C1009.82 68.7016 1010.28 68.4796 1010.84 68.1796L1011.03 69.6376C1010.39 70.1896 1009.75 70.6036 1009.13 70.8796C1008.51 71.1556 1007.87 71.2936 1007.2 71.2936C1005.52 71.2936 1004.68 70.4716 1004.68 68.8276V62.1676H1007.33ZM1013.21 62.1676V71.0596H1011.12L1010.82 69.3136L1010.55 69.0616V62.1676H1013.21ZM1018.86 59.7016V68.2156C1018.86 68.5396 1018.93 68.7736 1019.08 68.9176C1019.23 69.0496 1019.48 69.1156 1019.83 69.1156H1020.98L1021.27 70.9156C1021.06 70.9876 1020.79 71.0476 1020.48 71.0956C1020.17 71.1556 1019.86 71.1976 1019.54 71.2216C1019.23 71.2456 1018.97 71.2576 1018.75 71.2576C1017.95 71.2576 1017.32 71.0476 1016.86 70.6276C1016.42 70.1956 1016.2 69.5896 1016.2 68.8096V59.7016H1018.86ZM1021.34 62.1676V63.9136H1014.65V62.2576L1016.38 62.1676H1021.34ZM1027 61.9336C1028.12 61.9336 1029.01 62.0896 1029.68 62.4016C1030.35 62.7016 1030.83 63.1936 1031.12 63.8776C1031.42 64.5616 1031.57 65.4796 1031.57 66.6316C1031.57 67.7596 1031.42 68.6656 1031.12 69.3496C1030.83 70.0336 1030.35 70.5256 1029.68 70.8256C1029.01 71.1256 1028.12 71.2756 1027 71.2756C1025.9 71.2756 1025.01 71.1256 1024.34 70.8256C1023.66 70.5256 1023.18 70.0336 1022.88 69.3496C1022.58 68.6656 1022.43 67.7596 1022.43 66.6316C1022.43 65.4796 1022.58 64.5616 1022.88 63.8776C1023.18 63.1936 1023.66 62.7016 1024.34 62.4016C1025.01 62.0896 1025.9 61.9336 1027 61.9336ZM1027 63.8596C1026.54 63.8596 1026.18 63.9376 1025.92 64.0936C1025.66 64.2496 1025.47 64.5256 1025.36 64.9216C1025.25 65.3176 1025.2 65.8876 1025.2 66.6316C1025.2 67.3516 1025.25 67.9096 1025.36 68.3056C1025.47 68.7016 1025.66 68.9776 1025.92 69.1336C1026.18 69.2776 1026.54 69.3496 1027 69.3496C1027.47 69.3496 1027.83 69.2776 1028.1 69.1336C1028.36 68.9776 1028.54 68.7016 1028.64 68.3056C1028.75 67.9096 1028.8 67.3516 1028.8 66.6316C1028.8 65.8876 1028.75 65.3176 1028.64 64.9216C1028.54 64.5256 1028.36 64.2496 1028.1 64.0936C1027.83 63.9376 1027.47 63.8596 1027 63.8596ZM1034.77 68.3236C1035.12 68.3236 1035.36 68.3956 1035.49 68.5396C1035.62 68.6716 1035.7 68.9116 1035.71 69.2596V70.4116C1035.71 70.8796 1035.67 71.3056 1035.58 71.6896C1035.51 72.0736 1035.41 72.4276 1035.28 72.7516C1035.14 73.0756 1034.98 73.3936 1034.79 73.7056L1033.73 73.3636C1033.82 72.9796 1033.89 72.6016 1033.93 72.2296C1033.96 71.8696 1033.98 71.4796 1033.98 71.0596C1033.49 71.0596 1033.24 70.7836 1033.22 70.2316L1033.24 69.2596C1033.25 68.9116 1033.33 68.6716 1033.46 68.5396C1033.6 68.3956 1033.84 68.3236 1034.18 68.3236H1034.77ZM1046.76 58.3876C1047.74 58.3876 1048.58 58.4956 1049.26 58.7116C1049.95 58.9156 1050.5 59.2636 1050.92 59.7556C1051.34 60.2356 1051.64 60.8956 1051.82 61.7356C1052.01 62.5636 1052.11 63.6016 1052.11 64.8496C1052.11 66.0856 1052.01 67.1236 1051.82 67.9636C1051.64 68.7916 1051.34 69.4516 1050.92 69.9436C1050.5 70.4356 1049.95 70.7836 1049.26 70.9876C1048.58 71.1916 1047.74 71.2936 1046.76 71.2936C1045.78 71.2936 1044.94 71.1916 1044.26 70.9876C1043.59 70.7836 1043.04 70.4356 1042.62 69.9436C1042.2 69.4516 1041.89 68.7916 1041.7 67.9636C1041.51 67.1236 1041.41 66.0856 1041.41 64.8496C1041.41 63.6016 1041.51 62.5636 1041.7 61.7356C1041.89 60.8956 1042.2 60.2356 1042.62 59.7556C1043.04 59.2636 1043.59 58.9156 1044.26 58.7116C1044.94 58.4956 1045.78 58.3876 1046.76 58.3876ZM1045.86 71.6716C1046.66 71.9956 1047.5 72.2536 1048.38 72.4456C1049.26 72.6496 1050.2 72.8236 1051.21 72.9676L1050.49 75.3436C1049.41 75.0676 1048.43 74.7316 1047.55 74.3356C1046.68 73.9396 1045.9 73.5196 1045.23 73.0756L1045.86 71.6716ZM1046.76 60.5476C1046.14 60.5476 1045.64 60.6736 1045.28 60.9256C1044.92 61.1776 1044.67 61.6156 1044.53 62.2396C1044.38 62.8636 1044.31 63.7336 1044.31 64.8496C1044.31 65.9536 1044.38 66.8176 1044.53 67.4416C1044.67 68.0656 1044.92 68.5036 1045.28 68.7556C1045.64 69.0076 1046.14 69.1336 1046.76 69.1336C1047.4 69.1336 1047.89 69.0076 1048.24 68.7556C1048.6 68.5036 1048.85 68.0656 1048.99 67.4416C1049.15 66.8176 1049.23 65.9536 1049.23 64.8496C1049.23 63.7336 1049.15 62.8636 1048.99 62.2396C1048.85 61.6156 1048.6 61.1776 1048.24 60.9256C1047.89 60.6736 1047.4 60.5476 1046.76 60.5476ZM1056.65 62.1676V68.0176C1056.65 68.3896 1056.73 68.6536 1056.88 68.8096C1057.05 68.9656 1057.32 69.0436 1057.68 69.0436C1058.05 69.0436 1058.41 68.9776 1058.77 68.8456C1059.15 68.7016 1059.61 68.4796 1060.16 68.1796L1060.36 69.6376C1059.71 70.1896 1059.07 70.6036 1058.45 70.8796C1057.84 71.1556 1057.2 71.2936 1056.52 71.2936C1054.84 71.2936 1054 70.4716 1054 68.8276V62.1676H1056.65ZM1062.54 62.1676V71.0596H1060.45L1060.14 69.3136L1059.87 69.0616V62.1676H1062.54ZM1069.41 61.9336C1070.15 61.9336 1070.78 62.0356 1071.3 62.2396C1071.81 62.4316 1072.2 62.7676 1072.47 63.2476C1072.74 63.7156 1072.88 64.3576 1072.88 65.1736V71.0596H1070.78L1070.4 69.1336L1070.22 68.8636V65.1736C1070.21 64.7416 1070.1 64.4356 1069.89 64.2556C1069.7 64.0636 1069.34 63.9676 1068.8 63.9676C1068.33 63.9676 1067.75 63.9856 1067.07 64.0216C1066.38 64.0456 1065.68 64.0816 1064.96 64.1296L1064.73 62.3656C1065.16 62.2816 1065.65 62.2096 1066.2 62.1496C1066.77 62.0896 1067.33 62.0416 1067.9 62.0056C1068.46 61.9576 1068.96 61.9336 1069.41 61.9336ZM1071.78 65.5876L1071.77 67.0816H1067.81C1067.48 67.0936 1067.25 67.1776 1067.1 67.3336C1066.97 67.4896 1066.91 67.6996 1066.91 67.9636V68.3956C1066.91 68.6956 1066.99 68.9296 1067.16 69.0976C1067.33 69.2536 1067.6 69.3316 1067.97 69.3316C1068.28 69.3316 1068.62 69.2656 1068.98 69.1336C1069.35 69.0016 1069.71 68.8156 1070.07 68.5756C1070.43 68.3356 1070.76 68.0536 1071.05 67.7296V68.8816C1070.94 69.0616 1070.78 69.2896 1070.56 69.5656C1070.34 69.8296 1070.07 70.0936 1069.75 70.3576C1069.43 70.6096 1069.05 70.8256 1068.62 71.0056C1068.18 71.1736 1067.69 71.2576 1067.14 71.2576C1066.61 71.2576 1066.13 71.1676 1065.68 70.9876C1065.25 70.7956 1064.91 70.5136 1064.66 70.1416C1064.4 69.7696 1064.28 69.3076 1064.28 68.7556V67.8376C1064.28 67.1296 1064.52 66.5776 1065 66.1816C1065.48 65.7856 1066.14 65.5876 1066.98 65.5876H1071.78ZM1077.66 58.4596L1077.64 68.2156C1077.64 68.5156 1077.73 68.7436 1077.91 68.8996C1078.09 69.0436 1078.35 69.1156 1078.7 69.1156H1079.42L1079.73 70.9156C1079.58 70.9876 1079.38 71.0476 1079.12 71.0956C1078.85 71.1556 1078.58 71.1976 1078.31 71.2216C1078.03 71.2456 1077.8 71.2576 1077.6 71.2576C1076.8 71.2576 1076.16 71.0536 1075.7 70.6456C1075.24 70.2256 1075.01 69.6376 1075.01 68.8816V58.4596H1077.66ZM1083.6 62.1676V71.0596H1080.97V62.1676H1083.6ZM1082.86 58.2436C1083.39 58.2436 1083.65 58.5076 1083.65 59.0356V60.0076C1083.65 60.5356 1083.39 60.7996 1082.86 60.7996H1081.71C1081.18 60.7996 1080.92 60.5356 1080.92 60.0076V59.0356C1080.92 58.5076 1081.18 58.2436 1081.71 58.2436H1082.86ZM1088.9 61.9336C1089.54 61.9336 1090.14 62.0236 1090.72 62.2036C1091.29 62.3836 1091.8 62.6776 1092.25 63.0856L1092.07 64.2916C1091.67 64.1716 1091.31 64.0696 1090.97 63.9856C1090.65 63.8896 1090.27 63.8416 1089.84 63.8416C1089.46 63.8416 1089.16 63.9076 1088.94 64.0396C1088.71 64.1716 1088.54 64.4296 1088.43 64.8136C1088.32 65.1976 1088.27 65.7676 1088.27 66.5236C1088.27 67.2316 1088.32 67.7716 1088.41 68.1436C1088.52 68.5036 1088.68 68.7556 1088.9 68.8996C1089.13 69.0316 1089.42 69.0976 1089.76 69.0976C1090.08 69.0976 1090.35 69.0676 1090.57 69.0076C1090.8 68.9356 1091.03 68.8336 1091.26 68.7016C1091.49 68.5576 1091.75 68.3836 1092.05 68.1796L1092.23 69.4936C1091.87 69.9976 1091.4 70.4236 1090.83 70.7716C1090.25 71.1076 1089.54 71.2756 1088.7 71.2756C1087.56 71.2756 1086.75 70.8676 1086.25 70.0516C1085.77 69.2356 1085.53 68.0656 1085.53 66.5416C1085.53 65.3536 1085.66 64.4296 1085.91 63.7696C1086.16 63.0976 1086.54 62.6236 1087.03 62.3476C1087.53 62.0716 1088.16 61.9336 1088.9 61.9336ZM1094.43 58.4596V71.0596H1092.32L1092.05 69.4216L1091.76 69.2236V63.3916L1091.87 63.1396C1091.83 62.7796 1091.8 62.4136 1091.78 62.0416C1091.77 61.6576 1091.76 61.2676 1091.76 60.8716V58.4596H1094.43ZM1101.3 61.9336C1102.04 61.9336 1102.67 62.0356 1103.19 62.2396C1103.7 62.4316 1104.09 62.7676 1104.36 63.2476C1104.63 63.7156 1104.77 64.3576 1104.77 65.1736V71.0596H1102.66L1102.29 69.1336L1102.11 68.8636V65.1736C1102.09 64.7416 1101.99 64.4356 1101.78 64.2556C1101.59 64.0636 1101.22 63.9676 1100.68 63.9676C1100.22 63.9676 1099.64 63.9856 1098.96 64.0216C1098.27 64.0456 1097.57 64.0816 1096.85 64.1296L1096.62 62.3656C1097.05 62.2816 1097.54 62.2096 1098.09 62.1496C1098.66 62.0896 1099.22 62.0416 1099.78 62.0056C1100.35 61.9576 1100.85 61.9336 1101.3 61.9336ZM1103.67 65.5876L1103.65 67.0816H1099.69C1099.37 67.0936 1099.14 67.1776 1098.99 67.3336C1098.86 67.4896 1098.79 67.6996 1098.79 67.9636V68.3956C1098.79 68.6956 1098.88 68.9296 1099.05 69.0976C1099.21 69.2536 1099.48 69.3316 1099.86 69.3316C1100.17 69.3316 1100.5 69.2656 1100.86 69.1336C1101.24 69.0016 1101.6 68.8156 1101.96 68.5756C1102.32 68.3356 1102.65 68.0536 1102.93 67.7296V68.8816C1102.83 69.0616 1102.66 69.2896 1102.45 69.5656C1102.23 69.8296 1101.96 70.0936 1101.64 70.3576C1101.31 70.6096 1100.94 70.8256 1100.5 71.0056C1100.07 71.1736 1099.58 71.2576 1099.03 71.2576C1098.5 71.2576 1098.01 71.1676 1097.57 70.9876C1097.14 70.7956 1096.8 70.5136 1096.54 70.1416C1096.29 69.7696 1096.17 69.3076 1096.17 68.7556V67.8376C1096.17 67.1296 1096.41 66.5776 1096.89 66.1816C1097.37 65.7856 1098.03 65.5876 1098.87 65.5876H1103.67ZM1109.91 61.9336C1110.54 61.9336 1111.15 62.0236 1111.72 62.2036C1112.3 62.3836 1112.81 62.6776 1113.25 63.0856L1113.07 64.2916C1112.68 64.1716 1112.31 64.0696 1111.98 63.9856C1111.65 63.8896 1111.27 63.8416 1110.84 63.8416C1110.47 63.8416 1110.17 63.9076 1109.94 64.0396C1109.71 64.1716 1109.55 64.4296 1109.44 64.8136C1109.33 65.1976 1109.28 65.7676 1109.28 66.5236C1109.28 67.2316 1109.32 67.7716 1109.42 68.1436C1109.53 68.5036 1109.69 68.7556 1109.91 68.8996C1110.13 69.0316 1110.42 69.0976 1110.77 69.0976C1111.08 69.0976 1111.35 69.0676 1111.58 69.0076C1111.81 68.9356 1112.04 68.8336 1112.26 68.7016C1112.49 68.5576 1112.76 68.3836 1113.06 68.1796L1113.24 69.4936C1112.88 69.9976 1112.41 70.4236 1111.83 70.7716C1111.26 71.1076 1110.55 71.2756 1109.71 71.2756C1108.57 71.2756 1107.75 70.8676 1107.26 70.0516C1106.78 69.2356 1106.54 68.0656 1106.54 66.5416C1106.54 65.3536 1106.67 64.4296 1106.92 63.7696C1107.17 63.0976 1107.54 62.6236 1108.03 62.3476C1108.54 62.0716 1109.16 61.9336 1109.91 61.9336ZM1115.43 58.4596V71.0596H1113.33L1113.06 69.4216L1112.77 69.2236V63.3916L1112.88 63.1396C1112.84 62.7796 1112.81 62.4136 1112.79 62.0416C1112.77 61.6576 1112.77 61.2676 1112.77 60.8716V58.4596H1115.43ZM1121.82 61.9336C1123.32 61.9336 1124.39 62.1916 1125.04 62.7076C1125.7 63.2116 1126.03 63.9676 1126.03 64.9756C1126.04 65.7796 1125.84 66.3856 1125.42 66.7936C1125 67.2016 1124.27 67.4056 1123.24 67.4056H1118.27V65.9116H1122.52C1122.91 65.9116 1123.17 65.8276 1123.27 65.6596C1123.39 65.4796 1123.45 65.2336 1123.45 64.9216C1123.45 64.5016 1123.33 64.2136 1123.09 64.0576C1122.87 63.8896 1122.47 63.8056 1121.91 63.8056C1121.41 63.7936 1121.03 63.8596 1120.75 64.0036C1120.48 64.1356 1120.29 64.3876 1120.18 64.7596C1120.07 65.1316 1120.02 65.6716 1120.02 66.3796C1120.02 67.1236 1120.08 67.6996 1120.21 68.1076C1120.35 68.5036 1120.57 68.7796 1120.88 68.9356C1121.2 69.0916 1121.65 69.1696 1122.21 69.1696C1122.62 69.1696 1123.12 69.1576 1123.72 69.1336C1124.34 69.0976 1124.95 69.0436 1125.56 68.9716L1125.81 70.6096C1125.46 70.7776 1125.07 70.9096 1124.62 71.0056C1124.18 71.1016 1123.72 71.1676 1123.26 71.2036C1122.79 71.2516 1122.34 71.2756 1121.91 71.2756C1120.78 71.2756 1119.87 71.1136 1119.19 70.7896C1118.5 70.4536 1118.01 69.9436 1117.69 69.2596C1117.39 68.5756 1117.24 67.6996 1117.24 66.6316C1117.24 65.4676 1117.39 64.5436 1117.69 63.8596C1118.01 63.1756 1118.5 62.6836 1119.17 62.3836C1119.84 62.0836 1120.72 61.9336 1121.82 61.9336ZM1135.88 61.9336C1137.38 61.9336 1138.45 62.1916 1139.1 62.7076C1139.76 63.2116 1140.09 63.9676 1140.09 64.9756C1140.1 65.7796 1139.9 66.3856 1139.48 66.7936C1139.06 67.2016 1138.33 67.4056 1137.3 67.4056H1132.33V65.9116H1136.58C1136.98 65.9116 1137.23 65.8276 1137.34 65.6596C1137.46 65.4796 1137.52 65.2336 1137.52 64.9216C1137.52 64.5016 1137.4 64.2136 1137.16 64.0576C1136.93 63.8896 1136.53 63.8056 1135.97 63.8056C1135.48 63.7936 1135.09 63.8596 1134.82 64.0036C1134.54 64.1356 1134.35 64.3876 1134.24 64.7596C1134.13 65.1316 1134.08 65.6716 1134.08 66.3796C1134.08 67.1236 1134.14 67.6996 1134.28 68.1076C1134.41 68.5036 1134.63 68.7796 1134.94 68.9356C1135.27 69.0916 1135.71 69.1696 1136.27 69.1696C1136.68 69.1696 1137.19 69.1576 1137.79 69.1336C1138.4 69.0976 1139.01 69.0436 1139.62 68.9716L1139.87 70.6096C1139.53 70.7776 1139.13 70.9096 1138.69 71.0056C1138.24 71.1016 1137.79 71.1676 1137.32 71.2036C1136.85 71.2516 1136.4 71.2756 1135.97 71.2756C1134.84 71.2756 1133.93 71.1136 1133.25 70.7896C1132.57 70.4536 1132.07 69.9436 1131.76 69.2596C1131.46 68.5756 1131.31 67.6996 1131.31 66.6316C1131.31 65.4676 1131.46 64.5436 1131.76 63.8596C1132.07 63.1756 1132.56 62.6836 1133.23 62.3836C1133.9 62.0836 1134.79 61.9336 1135.88 61.9336ZM1150.66 58.4596C1151.82 58.4596 1152.74 58.5796 1153.4 58.8196C1154.06 59.0596 1154.52 59.4736 1154.8 60.0616C1155.09 60.6376 1155.23 61.4596 1155.23 62.5276C1155.23 63.5836 1155.09 64.4056 1154.82 64.9936C1154.55 65.5696 1154.12 65.9776 1153.5 66.2176C1152.89 66.4456 1152.06 66.5596 1151.02 66.5596C1150.47 66.5596 1149.93 66.5416 1149.4 66.5056C1148.87 66.4576 1148.38 66.3976 1147.92 66.3256C1147.47 66.2536 1147.08 66.1756 1146.75 66.0916C1146.44 66.0076 1146.22 65.9356 1146.09 65.8756L1146.14 64.5076C1146.85 64.5076 1147.58 64.5076 1148.34 64.5076C1149.11 64.5076 1149.86 64.5076 1150.61 64.5076C1151.09 64.4956 1151.46 64.4356 1151.74 64.3276C1152.02 64.2196 1152.21 64.0216 1152.32 63.7336C1152.42 63.4456 1152.48 63.0436 1152.48 62.5276C1152.48 61.9876 1152.42 61.5736 1152.32 61.2856C1152.21 60.9976 1152.02 60.7996 1151.74 60.6916C1151.46 60.5836 1151.09 60.5296 1150.61 60.5296C1149.5 60.5296 1148.55 60.5356 1147.76 60.5476C1146.98 60.5596 1146.45 60.5776 1146.16 60.6016L1145.91 58.6396C1146.41 58.5796 1146.88 58.5376 1147.31 58.5136C1147.76 58.4896 1148.24 58.4776 1148.75 58.4776C1149.28 58.4656 1149.92 58.4596 1150.66 58.4596ZM1148.64 58.6396V71.0596H1145.91V58.6396H1148.64ZM1158.94 62.1676L1159.27 63.9316L1159.52 64.1656V71.0596H1156.87V62.1676H1158.94ZM1163.28 61.9336L1163.03 64.3816H1162.29C1161.87 64.3816 1161.43 64.4416 1160.98 64.5616C1160.52 64.6816 1159.95 64.8676 1159.25 65.1196L1159.07 63.6256C1159.69 63.0736 1160.32 62.6536 1160.96 62.3656C1161.6 62.0776 1162.21 61.9336 1162.81 61.9336H1163.28ZM1168.63 61.9336C1169.74 61.9336 1170.64 62.0896 1171.31 62.4016C1171.98 62.7016 1172.46 63.1936 1172.75 63.8776C1173.05 64.5616 1173.2 65.4796 1173.2 66.6316C1173.2 67.7596 1173.05 68.6656 1172.75 69.3496C1172.46 70.0336 1171.98 70.5256 1171.31 70.8256C1170.64 71.1256 1169.74 71.2756 1168.63 71.2756C1167.52 71.2756 1166.63 71.1256 1165.96 70.8256C1165.29 70.5256 1164.8 70.0336 1164.5 69.3496C1164.2 68.6656 1164.05 67.7596 1164.05 66.6316C1164.05 65.4796 1164.2 64.5616 1164.5 63.8776C1164.8 63.1936 1165.29 62.7016 1165.96 62.4016C1166.63 62.0896 1167.52 61.9336 1168.63 61.9336ZM1168.63 63.8596C1168.17 63.8596 1167.81 63.9376 1167.55 64.0936C1167.28 64.2496 1167.1 64.5256 1166.99 64.9216C1166.88 65.3176 1166.83 65.8876 1166.83 66.6316C1166.83 67.3516 1166.88 67.9096 1166.99 68.3056C1167.1 68.7016 1167.28 68.9776 1167.55 69.1336C1167.81 69.2776 1168.17 69.3496 1168.63 69.3496C1169.09 69.3496 1169.46 69.2776 1169.72 69.1336C1169.99 68.9776 1170.17 68.7016 1170.26 68.3056C1170.37 67.9096 1170.43 67.3516 1170.43 66.6316C1170.43 65.8876 1170.37 65.3176 1170.26 64.9216C1170.17 64.5256 1169.99 64.2496 1169.72 64.0936C1169.46 63.9376 1169.09 63.8596 1168.63 63.8596ZM1179.15 61.9336C1179.48 61.9336 1179.83 61.9516 1180.22 61.9876C1180.6 62.0116 1180.98 62.0656 1181.37 62.1496C1181.76 62.2216 1182.12 62.3296 1182.45 62.4736L1182.16 64.1476C1181.68 64.1236 1181.22 64.1116 1180.77 64.1116C1180.34 64.0996 1179.95 64.0936 1179.6 64.0936C1179.06 64.0936 1178.64 64.1656 1178.33 64.3096C1178.01 64.4536 1177.79 64.7056 1177.64 65.0656C1177.51 65.4256 1177.44 65.9356 1177.44 66.5956C1177.44 67.2556 1177.51 67.7716 1177.64 68.1436C1177.79 68.5156 1178.01 68.7736 1178.33 68.9176C1178.64 69.0616 1179.06 69.1336 1179.6 69.1336C1179.8 69.1336 1180.04 69.1276 1180.34 69.1156C1180.64 69.1036 1180.97 69.0916 1181.31 69.0796C1181.66 69.0556 1182 69.0196 1182.34 68.9716L1182.59 70.6636C1182.11 70.8796 1181.57 71.0356 1180.95 71.1316C1180.34 71.2276 1179.74 71.2756 1179.14 71.2756C1178.04 71.2756 1177.17 71.1256 1176.51 70.8256C1175.85 70.5136 1175.37 70.0156 1175.09 69.3316C1174.8 68.6476 1174.65 67.7356 1174.65 66.5956C1174.65 65.4556 1174.8 64.5436 1175.09 63.8596C1175.39 63.1756 1175.87 62.6836 1176.53 62.3836C1177.19 62.0836 1178.06 61.9336 1179.15 61.9336ZM1188.28 61.9336C1189.78 61.9336 1190.85 62.1916 1191.5 62.7076C1192.16 63.2116 1192.49 63.9676 1192.49 64.9756C1192.5 65.7796 1192.3 66.3856 1191.88 66.7936C1191.46 67.2016 1190.73 67.4056 1189.7 67.4056H1184.73V65.9116H1188.98C1189.38 65.9116 1189.63 65.8276 1189.74 65.6596C1189.86 65.4796 1189.92 65.2336 1189.92 64.9216C1189.92 64.5016 1189.8 64.2136 1189.56 64.0576C1189.33 63.8896 1188.93 63.8056 1188.37 63.8056C1187.88 63.7936 1187.49 63.8596 1187.22 64.0036C1186.94 64.1356 1186.75 64.3876 1186.64 64.7596C1186.53 65.1316 1186.48 65.6716 1186.48 66.3796C1186.48 67.1236 1186.54 67.6996 1186.68 68.1076C1186.81 68.5036 1187.03 68.7796 1187.34 68.9356C1187.67 69.0916 1188.11 69.1696 1188.67 69.1696C1189.08 69.1696 1189.59 69.1576 1190.19 69.1336C1190.8 69.0976 1191.41 69.0436 1192.02 68.9716L1192.27 70.6096C1191.93 70.7776 1191.53 70.9096 1191.09 71.0056C1190.64 71.1016 1190.19 71.1676 1189.72 71.2036C1189.25 71.2516 1188.8 71.2756 1188.37 71.2756C1187.24 71.2756 1186.33 71.1136 1185.65 70.7896C1184.97 70.4536 1184.47 69.9436 1184.16 69.2596C1183.86 68.5756 1183.71 67.6996 1183.71 66.6316C1183.71 65.4676 1183.86 64.5436 1184.16 63.8596C1184.47 63.1756 1184.96 62.6836 1185.63 62.3836C1186.3 62.0836 1187.19 61.9336 1188.28 61.9336ZM1197.61 61.9336C1198.04 61.9336 1198.51 61.9516 1199.01 61.9876C1199.52 62.0116 1200.01 62.0476 1200.49 62.0956C1200.97 62.1436 1201.4 62.2036 1201.77 62.2756L1201.59 63.9316C1201.01 63.9196 1200.43 63.9076 1199.84 63.8956C1199.27 63.8836 1198.7 63.8776 1198.15 63.8776C1197.68 63.8776 1197.32 63.8896 1197.07 63.9136C1196.82 63.9256 1196.64 63.9796 1196.53 64.0756C1196.43 64.1596 1196.39 64.3156 1196.39 64.5436C1196.39 64.8196 1196.48 65.0056 1196.66 65.1016C1196.84 65.1856 1197.14 65.2816 1197.56 65.3896L1199.88 65.9476C1200.62 66.1396 1201.17 66.4276 1201.53 66.8116C1201.89 67.1836 1202.07 67.7476 1202.07 68.5036C1202.07 69.2476 1201.94 69.8176 1201.66 70.2136C1201.38 70.6096 1200.95 70.8856 1200.35 71.0416C1199.75 71.1856 1198.97 71.2576 1198.02 71.2576C1197.65 71.2576 1197.1 71.2396 1196.37 71.2036C1195.64 71.1676 1194.84 71.0776 1193.97 70.9336L1194.14 69.2776C1194.36 69.2896 1194.64 69.3016 1194.96 69.3136C1195.3 69.3136 1195.67 69.3136 1196.06 69.3136C1196.46 69.3136 1196.85 69.3136 1197.25 69.3136C1197.87 69.3136 1198.35 69.3016 1198.67 69.2776C1199 69.2416 1199.22 69.1696 1199.34 69.0616C1199.46 68.9536 1199.52 68.7916 1199.52 68.5756C1199.52 68.2996 1199.42 68.1196 1199.21 68.0356C1199.01 67.9396 1198.68 67.8316 1198.24 67.7116L1195.99 67.1536C1195.41 66.9976 1194.97 66.7996 1194.66 66.5596C1194.35 66.3196 1194.12 66.0316 1193.99 65.6956C1193.87 65.3476 1193.81 64.9336 1193.81 64.4536C1193.81 63.8416 1193.94 63.3496 1194.19 62.9776C1194.44 62.6056 1194.84 62.3416 1195.4 62.1856C1195.95 62.0176 1196.69 61.9336 1197.61 61.9336ZM1207.17 61.9336C1207.6 61.9336 1208.07 61.9516 1208.58 61.9876C1209.08 62.0116 1209.57 62.0476 1210.05 62.0956C1210.53 62.1436 1210.96 62.2036 1211.33 62.2756L1211.15 63.9316C1210.57 63.9196 1209.99 63.9076 1209.4 63.8956C1208.83 63.8836 1208.26 63.8776 1207.71 63.8776C1207.24 63.8776 1206.88 63.8896 1206.63 63.9136C1206.38 63.9256 1206.2 63.9796 1206.09 64.0756C1206 64.1596 1205.95 64.3156 1205.95 64.5436C1205.95 64.8196 1206.04 65.0056 1206.22 65.1016C1206.4 65.1856 1206.7 65.2816 1207.12 65.3896L1209.44 65.9476C1210.18 66.1396 1210.74 66.4276 1211.1 66.8116C1211.46 67.1836 1211.64 67.7476 1211.64 68.5036C1211.64 69.2476 1211.5 69.8176 1211.22 70.2136C1210.95 70.6096 1210.51 70.8856 1209.91 71.0416C1209.31 71.1856 1208.53 71.2576 1207.59 71.2576C1207.21 71.2576 1206.66 71.2396 1205.93 71.2036C1205.2 71.1676 1204.4 71.0776 1203.54 70.9336L1203.7 69.2776C1203.93 69.2896 1204.2 69.3016 1204.53 69.3136C1204.86 69.3136 1205.23 69.3136 1205.62 69.3136C1206.02 69.3136 1206.42 69.3136 1206.81 69.3136C1207.44 69.3136 1207.91 69.3016 1208.23 69.2776C1208.56 69.2416 1208.78 69.1696 1208.9 69.0616C1209.02 68.9536 1209.08 68.7916 1209.08 68.5756C1209.08 68.2996 1208.98 68.1196 1208.77 68.0356C1208.57 67.9396 1208.25 67.8316 1207.8 67.7116L1205.55 67.1536C1204.98 66.9976 1204.53 66.7996 1204.22 66.5596C1203.91 66.3196 1203.69 66.0316 1203.55 65.6956C1203.43 65.3476 1203.37 64.9336 1203.37 64.4536C1203.37 63.8416 1203.5 63.3496 1203.75 62.9776C1204 62.6056 1204.41 62.3416 1204.96 62.1856C1205.51 62.0176 1206.25 61.9336 1207.17 61.9336ZM1217.58 61.9336C1218.7 61.9336 1219.59 62.0896 1220.26 62.4016C1220.94 62.7016 1221.42 63.1936 1221.7 63.8776C1222 64.5616 1222.15 65.4796 1222.15 66.6316C1222.15 67.7596 1222 68.6656 1221.7 69.3496C1221.42 70.0336 1220.94 70.5256 1220.26 70.8256C1219.59 71.1256 1218.7 71.2756 1217.58 71.2756C1216.48 71.2756 1215.59 71.1256 1214.92 70.8256C1214.25 70.5256 1213.76 70.0336 1213.46 69.3496C1213.16 68.6656 1213.01 67.7596 1213.01 66.6316C1213.01 65.4796 1213.16 64.5616 1213.46 63.8776C1213.76 63.1936 1214.25 62.7016 1214.92 62.4016C1215.59 62.0896 1216.48 61.9336 1217.58 61.9336ZM1217.58 63.8596C1217.13 63.8596 1216.77 63.9376 1216.5 64.0936C1216.24 64.2496 1216.05 64.5256 1215.94 64.9216C1215.84 65.3176 1215.78 65.8876 1215.78 66.6316C1215.78 67.3516 1215.84 67.9096 1215.94 68.3056C1216.05 68.7016 1216.24 68.9776 1216.5 69.1336C1216.77 69.2776 1217.13 69.3496 1217.58 69.3496C1218.05 69.3496 1218.42 69.2776 1218.68 69.1336C1218.94 68.9776 1219.12 68.7016 1219.22 68.3056C1219.33 67.9096 1219.38 67.3516 1219.38 66.6316C1219.38 65.8876 1219.33 65.3176 1219.22 64.9216C1219.12 64.5256 1218.94 64.2496 1218.68 64.0936C1218.42 63.9376 1218.05 63.8596 1217.58 63.8596Z" fill="#003A69"/>
</g>
</g>
<defs>
<filter id="filter0_d_2967_9094" x="0.238095" y="0" width="1415.52" height="734.524" filterUnits="userSpaceOnUse" color-interpolation-filters="sRGB">
<feFlood flood-opacity="0" result="BackgroundImageFix"/>
<feColorMatrix in="SourceAlpha" type="matrix" values="0 0 0 0 0 0 0 0 0 0 0 0 0 0 0 0 0 0 127 0" result="hardAlpha"/>
<feOffset dy="5.7619"/>
<feGaussianBlur stdDeviation="2.88095"/>
<feComposite in2="hardAlpha" operator="out"/>
<feColorMatrix type="matrix" values="0 0 0 0 0 0 0 0 0 0 0 0 0 0 0 0 0 0 0.25 0"/>
<feBlend mode="normal" in2="BackgroundImageFix" result="effect1_dropShadow_2967_9094"/>
<feBlend mode="normal" in="SourceGraphic" in2="effect1_dropShadow_2967_9094" result="shape"/>
</filter>
<linearGradient id="paint0_linear_2967_9094" x1="708" y1="0" x2="708" y2="716" gradientUnits="userSpaceOnUse">
<stop stop-color="#032664"/>
<stop offset="1" stop-color="#0C55AE"/>
</linearGradient>
<clipPath id="clip0_2967_9094">
<rect width="407" height="21" fill="white" transform="translate(34.25 53.0498)"/>
</clipPath>
<clipPath id="clip1_2967_9094">
<rect width="328" height="21" fill="white" transform="translate(452.25 53.0498)"/>
</clipPath>
<clipPath id="clip2_2967_9094">
<rect width="234" height="21" fill="white" transform="translate(34.75 375)"/>
</clipPath>
<clipPath id="clip3_2967_9094">
<rect width="234" height="21" fill="white" transform="translate(293.75 375)"/>
</clipPath>
<clipPath id="clip4_2967_9094">
<rect width="234" height="21" fill="white" transform="translate(552.75 375)"/>
</clipPath>
<clipPath id="clip5_2967_9094">
<rect width="575" height="21" fill="white" transform="translate(806.75 53.0498)"/>
</clipPath>
</defs>
</svg>
