<svg width="1416" height="735" viewBox="0 0 1416 735" fill="none" xmlns="http://www.w3.org/2000/svg">
<g filter="url(#filter0_d_2286_8686)">
<mask id="path-1-inside-1_2286_8686" fill="white">
<path d="M6 14.4048C6 6.44926 12.4492 0 20.4048 0H1395.6C1403.55 0 1410 6.44923 1410 14.4048V701.595C1410 709.551 1403.55 716 1395.6 716H20.4048C12.4492 716 6 709.551 6 701.595V14.4048Z"/>
</mask>
<path d="M6 14.4048C6 6.44926 12.4492 0 20.4048 0H1395.6C1403.55 0 1410 6.44923 1410 14.4048V701.595C1410 709.551 1403.55 716 1395.6 716H20.4048C12.4492 716 6 709.551 6 701.595V14.4048Z" fill="white" shape-rendering="crispEdges"/>
<path d="M6 14.4048C6 4.06257 14.384 -4.32143 24.7262 -4.32143H1391.27C1401.62 -4.32143 1410 4.06257 1410 14.4048V14.4048C1410 8.83589 1403.55 4.32143 1395.6 4.32143H20.4048C12.4492 4.32143 6 8.83589 6 14.4048V14.4048ZM1410 716H6H1410ZM6 716V0V716ZM1410 0V716V0Z" fill="url(#paint0_linear_2286_8686)" mask="url(#path-1-inside-1_2286_8686)"/>
<path d="M20.9783 17.028C21.7926 17.028 22.6223 17.0357 23.4674 17.051C24.3279 17.051 25.1653 17.0741 25.9796 17.1202C26.8093 17.1509 27.5776 17.2047 28.2844 17.2815L28.1 19.8168H22.3381C21.9232 19.8168 21.6083 19.9166 21.3931 20.1164C21.178 20.3161 21.0705 20.6081 21.0705 20.9922V33H17.5442V20.2777C17.5442 19.2943 17.8592 18.5107 18.4891 17.9269C19.1191 17.3276 19.9488 17.028 20.9783 17.028ZM17.959 23.7579H27.2472V26.247H17.959V23.7579ZM33.6923 21.6145V33H30.3043V21.6145H33.6923ZM32.7473 16.5901C33.4234 16.5901 33.7614 16.9358 33.7614 17.6272V18.8488C33.7614 19.5402 33.4234 19.8859 32.7473 19.8859H31.2723C30.5962 19.8859 30.2582 19.5402 30.2582 18.8488V17.6272C30.2582 16.9358 30.5962 16.5901 31.2723 16.5901H32.7473ZM40.0158 16.8667L39.9928 29.3585C39.9928 29.7426 40.108 30.0345 40.3385 30.2343C40.5689 30.4187 40.907 30.5109 41.3526 30.5109H42.2745L42.6663 32.8156C42.4819 32.9078 42.2207 32.9846 41.8827 33.0461C41.5446 33.1229 41.1989 33.1767 40.8455 33.2074C40.4921 33.2535 40.1925 33.2766 39.9467 33.2766C38.9172 33.2766 38.1028 33.0077 37.5036 32.4699C36.9044 31.9321 36.6048 31.1792 36.6048 30.2112V16.8667H40.0158ZM48.2998 18.457V29.3585C48.2998 29.7733 48.392 30.073 48.5764 30.2573C48.7761 30.4263 49.0988 30.5109 49.5444 30.5109H51.0194L51.3882 32.8156C51.1116 32.9078 50.7736 32.9846 50.3741 33.0461C49.9746 33.1229 49.5751 33.1767 49.1756 33.2074C48.7761 33.2535 48.4381 33.2766 48.1615 33.2766C47.1321 33.2766 46.3254 33 45.7415 32.4469C45.173 31.8937 44.8888 31.1178 44.8888 30.119L44.8657 18.457H48.2998ZM51.4804 21.6145V23.8501H42.8836V21.7297L45.0962 21.6145H51.4804ZM58.6979 21.3149C60.6185 21.3149 61.9937 21.6452 62.8234 22.3059C63.6685 22.9512 64.091 23.9192 64.091 25.2099C64.1064 26.2547 63.8452 27.0383 63.3074 27.5608C62.7696 28.0678 61.84 28.3213 60.5186 28.3213H54.1575V26.4084H59.5737C60.0961 26.4084 60.4264 26.3008 60.5647 26.0857C60.7184 25.8552 60.7952 25.5403 60.7952 25.1408C60.7798 24.603 60.6185 24.2342 60.3112 24.0345C60.0193 23.8194 59.5199 23.7118 58.8131 23.7118C58.1831 23.7118 57.6915 23.7963 57.3381 23.9653C56.9847 24.1343 56.7388 24.457 56.6005 24.9333C56.4623 25.4097 56.3931 26.1011 56.3931 27.0076C56.3931 27.9603 56.4776 28.6978 56.6466 29.2202C56.8157 29.7272 57.0999 30.0806 57.4994 30.2804C57.9143 30.4801 58.4828 30.58 59.2049 30.58C59.7273 30.58 60.3727 30.5646 61.1409 30.5339C61.9245 30.4878 62.7082 30.4187 63.4918 30.3265L63.8144 32.4238C63.3689 32.6389 62.8618 32.8079 62.2933 32.9309C61.7248 33.0538 61.1409 33.1383 60.5417 33.1844C59.9424 33.2458 59.3663 33.2766 58.8131 33.2766C57.3688 33.2766 56.201 33.0691 55.3099 32.6543C54.4341 32.2241 53.7964 31.571 53.3969 30.6952C53.0128 29.8194 52.8207 28.6978 52.8207 27.3303C52.8207 25.8399 53.0205 24.6568 53.42 23.781C53.8195 22.9051 54.4494 22.2752 55.3099 21.891C56.1703 21.5069 57.2997 21.3149 58.6979 21.3149ZM68.9876 21.6145L69.4024 23.8731L69.7251 24.1728V33H66.314V21.6145H68.9876ZM74.542 21.3149L74.2194 24.4724H73.2744C72.7366 24.4724 72.1758 24.5492 71.5919 24.7029C71.0081 24.8565 70.2705 25.087 69.3794 25.3943L69.1489 23.4813C69.9479 22.7745 70.7545 22.2368 71.5689 21.868C72.3832 21.4992 73.1745 21.3149 73.9428 21.3149H74.542ZM80.4827 21.3149C81.0359 21.3149 81.6351 21.3379 82.2804 21.384C82.9258 21.4147 83.5558 21.4608 84.1704 21.5223C84.785 21.5837 85.3304 21.6606 85.8067 21.7528L85.5763 23.8731C84.8387 23.8578 84.0935 23.8501 83.3406 23.8501C82.6031 23.8347 81.881 23.827 81.1742 23.827C80.5749 23.8117 80.114 23.8194 79.7913 23.8501C79.4686 23.8808 79.2382 23.9577 79.0999 24.0806C78.977 24.1881 78.9155 24.3879 78.9155 24.6798C78.9155 25.0178 79.0307 25.2483 79.2612 25.3712C79.4917 25.4788 79.8758 25.6017 80.4136 25.74L83.3867 26.4545C84.3394 26.7003 85.0462 27.0691 85.5071 27.5608C85.9681 28.0371 86.1985 28.7592 86.1985 29.7272C86.1985 30.6799 86.0218 31.4097 85.6684 31.9168C85.3151 32.4238 84.7542 32.7772 83.986 32.977C83.2177 33.1613 82.2267 33.2535 81.0128 33.2535C80.5365 33.2535 79.8297 33.2305 78.8924 33.1844C77.9552 33.1383 76.9257 33.023 75.8041 32.8387L76.0345 30.7183C76.3111 30.7337 76.6645 30.749 77.0947 30.7644C77.525 30.7644 77.9936 30.7644 78.5006 30.7644C79.0077 30.7644 79.5147 30.7644 80.0218 30.7644C80.8054 30.7644 81.4046 30.749 81.8195 30.7183C82.2344 30.6722 82.5186 30.58 82.6723 30.4417C82.8259 30.3034 82.9027 30.096 82.9027 29.8194C82.9027 29.4814 82.7721 29.2509 82.5109 29.128C82.2497 29.0051 81.8349 28.8745 81.2664 28.7362L78.3854 28.0217C77.6632 27.822 77.1024 27.5684 76.7029 27.2611C76.3034 26.9538 76.0192 26.5774 75.8502 26.1318C75.6965 25.6862 75.6197 25.1561 75.6197 24.5415C75.6197 23.7579 75.7733 23.1356 76.0806 22.6747C76.4033 22.1983 76.918 21.8526 77.6248 21.6375C78.347 21.4224 79.2996 21.3149 80.4827 21.3149Z" fill="#023047"/>
<path d="M1385.99 17.1936C1386.12 17.0681 1386.27 16.9686 1386.43 16.9007C1386.59 16.8328 1386.77 16.7979 1386.95 16.7979C1387.12 16.7979 1387.3 16.8328 1387.46 16.9007C1387.63 16.9686 1387.77 17.0681 1387.9 17.1936L1392.8 22.0898L1397.7 17.1936C1397.82 17.0682 1397.97 16.9688 1398.13 16.901C1398.3 16.8332 1398.47 16.7982 1398.65 16.7982C1398.83 16.7982 1399 16.8332 1399.17 16.901C1399.33 16.9688 1399.48 17.0682 1399.61 17.1936C1399.73 17.3189 1399.83 17.4677 1399.9 17.6315C1399.97 17.7952 1400 17.9707 1400 18.148C1400 18.3252 1399.97 18.5007 1399.9 18.6645C1399.83 18.8283 1399.73 18.977 1399.61 19.1024L1394.71 24.0004L1399.61 28.8985C1399.86 29.1516 1400 29.4949 1400 29.8529C1400 30.2109 1399.86 30.5542 1399.61 30.8073C1399.35 31.0604 1399.01 31.2026 1398.65 31.2026C1398.29 31.2026 1397.95 31.0604 1397.7 30.8073L1392.8 25.911L1387.9 30.8073C1387.65 31.0604 1387.3 31.2026 1386.95 31.2026C1386.59 31.2026 1386.24 31.0604 1385.99 30.8073C1385.74 30.5542 1385.6 30.2109 1385.6 29.8529C1385.6 29.4949 1385.74 29.1516 1385.99 28.8985L1390.89 24.0004L1385.99 19.1024C1385.87 18.9771 1385.77 18.8283 1385.7 18.6646C1385.63 18.5008 1385.6 18.3253 1385.6 18.148C1385.6 17.9707 1385.63 17.7951 1385.7 17.6314C1385.77 17.4676 1385.87 17.3188 1385.99 17.1936Z" fill="#023047"/>
<g clip-path="url(#clip0_2286_8686)">
<rect width="407" height="21" transform="translate(34.25 53.0498)" fill="#99B0C3"/>
<path d="M217.868 58.58L214.484 70.244C214.424 70.46 214.304 70.64 214.124 70.784C213.956 70.928 213.752 71 213.512 71H210.992C210.752 71 210.542 70.928 210.362 70.784C210.194 70.64 210.08 70.46 210.02 70.244L206.636 58.58H209.462L211.73 67.544C211.778 67.772 211.826 68.006 211.874 68.246C211.934 68.474 211.982 68.702 212.018 68.93H212.486C212.522 68.702 212.564 68.468 212.612 68.228C212.672 67.988 212.732 67.754 212.792 67.526L215.042 58.58H217.868ZM221.804 62.108V71H219.176V62.108H221.804ZM221.066 58.184C221.594 58.184 221.858 58.448 221.858 58.976V59.948C221.858 60.476 221.594 60.74 221.066 60.74H219.914C219.386 60.74 219.122 60.476 219.122 59.948V58.976C219.122 58.448 219.386 58.184 219.914 58.184H221.066ZM227.444 61.874C227.876 61.874 228.344 61.892 228.848 61.928C229.352 61.952 229.844 61.988 230.324 62.036C230.804 62.084 231.23 62.144 231.602 62.216L231.422 63.872C230.846 63.86 230.264 63.848 229.676 63.836C229.1 63.824 228.536 63.818 227.984 63.818C227.516 63.818 227.156 63.83 226.904 63.854C226.652 63.866 226.472 63.92 226.364 64.016C226.268 64.1 226.22 64.256 226.22 64.484C226.22 64.76 226.31 64.946 226.49 65.042C226.67 65.126 226.97 65.222 227.39 65.33L229.712 65.888C230.456 66.08 231.008 66.368 231.368 66.752C231.728 67.124 231.908 67.688 231.908 68.444C231.908 69.188 231.77 69.758 231.494 70.154C231.218 70.55 230.78 70.826 230.18 70.982C229.58 71.126 228.806 71.198 227.858 71.198C227.486 71.198 226.934 71.18 226.202 71.144C225.47 71.108 224.672 71.018 223.808 70.874L223.97 69.218C224.198 69.23 224.474 69.242 224.798 69.254C225.134 69.254 225.5 69.254 225.896 69.254C226.292 69.254 226.688 69.254 227.084 69.254C227.708 69.254 228.182 69.242 228.506 69.218C228.83 69.182 229.052 69.11 229.172 69.002C229.292 68.894 229.352 68.732 229.352 68.516C229.352 68.24 229.25 68.06 229.046 67.976C228.842 67.88 228.518 67.772 228.074 67.652L225.824 67.094C225.248 66.938 224.804 66.74 224.492 66.5C224.18 66.26 223.958 65.972 223.826 65.636C223.706 65.288 223.646 64.874 223.646 64.394C223.646 63.782 223.772 63.29 224.024 62.918C224.276 62.546 224.678 62.282 225.23 62.126C225.782 61.958 226.52 61.874 227.444 61.874ZM236.341 62.108V71H233.713V62.108H236.341ZM235.603 58.184C236.131 58.184 236.395 58.448 236.395 58.976V59.948C236.395 60.476 236.131 60.74 235.603 60.74H234.451C233.923 60.74 233.659 60.476 233.659 59.948V58.976C233.659 58.448 233.923 58.184 234.451 58.184H235.603ZM242.828 61.874C243.944 61.874 244.838 62.03 245.51 62.342C246.182 62.642 246.662 63.134 246.95 63.818C247.25 64.502 247.4 65.42 247.4 66.572C247.4 67.7 247.25 68.606 246.95 69.29C246.662 69.974 246.182 70.466 245.51 70.766C244.838 71.066 243.944 71.216 242.828 71.216C241.724 71.216 240.836 71.066 240.164 70.766C239.492 70.466 239.006 69.974 238.706 69.29C238.406 68.606 238.256 67.7 238.256 66.572C238.256 65.42 238.406 64.502 238.706 63.818C239.006 63.134 239.492 62.642 240.164 62.342C240.836 62.03 241.724 61.874 242.828 61.874ZM242.828 63.8C242.372 63.8 242.012 63.878 241.748 64.034C241.484 64.19 241.298 64.466 241.19 64.862C241.082 65.258 241.028 65.828 241.028 66.572C241.028 67.292 241.082 67.85 241.19 68.246C241.298 68.642 241.484 68.918 241.748 69.074C242.012 69.218 242.372 69.29 242.828 69.29C243.296 69.29 243.662 69.218 243.926 69.074C244.19 68.918 244.37 68.642 244.466 68.246C244.574 67.85 244.628 67.292 244.628 66.572C244.628 65.828 244.574 65.258 244.466 64.862C244.37 64.466 244.19 64.19 243.926 64.034C243.662 63.878 243.296 63.8 242.828 63.8ZM255.407 61.874C257.087 61.874 257.927 62.696 257.927 64.34V71H255.263V65.168C255.263 64.772 255.191 64.502 255.047 64.358C254.903 64.202 254.657 64.124 254.309 64.124C253.925 64.124 253.529 64.202 253.121 64.358C252.713 64.502 252.209 64.724 251.609 65.024L251.483 63.548C252.119 63.008 252.767 62.594 253.427 62.306C254.099 62.018 254.759 61.874 255.407 61.874ZM251.357 62.108L251.663 63.872L251.879 64.106V71H249.233V62.108H251.357ZM263.409 61.874C263.841 61.874 264.309 61.892 264.813 61.928C265.317 61.952 265.809 61.988 266.289 62.036C266.769 62.084 267.195 62.144 267.567 62.216L267.387 63.872C266.811 63.86 266.229 63.848 265.641 63.836C265.065 63.824 264.501 63.818 263.949 63.818C263.481 63.818 263.121 63.83 262.869 63.854C262.617 63.866 262.437 63.92 262.329 64.016C262.233 64.1 262.185 64.256 262.185 64.484C262.185 64.76 262.275 64.946 262.455 65.042C262.635 65.126 262.935 65.222 263.355 65.33L265.677 65.888C266.421 66.08 266.973 66.368 267.333 66.752C267.693 67.124 267.873 67.688 267.873 68.444C267.873 69.188 267.735 69.758 267.459 70.154C267.183 70.55 266.745 70.826 266.145 70.982C265.545 71.126 264.771 71.198 263.823 71.198C263.451 71.198 262.899 71.18 262.167 71.144C261.435 71.108 260.637 71.018 259.773 70.874L259.935 69.218C260.163 69.23 260.439 69.242 260.763 69.254C261.099 69.254 261.465 69.254 261.861 69.254C262.257 69.254 262.653 69.254 263.049 69.254C263.673 69.254 264.147 69.242 264.471 69.218C264.795 69.182 265.017 69.11 265.137 69.002C265.257 68.894 265.317 68.732 265.317 68.516C265.317 68.24 265.215 68.06 265.011 67.976C264.807 67.88 264.483 67.772 264.039 67.652L261.789 67.094C261.213 66.938 260.769 66.74 260.457 66.5C260.145 66.26 259.923 65.972 259.791 65.636C259.671 65.288 259.611 64.874 259.611 64.394C259.611 63.782 259.737 63.29 259.989 62.918C260.241 62.546 260.643 62.282 261.195 62.126C261.747 61.958 262.485 61.874 263.409 61.874Z" fill="#003A69"/>
</g>
<g clip-path="url(#clip1_2286_8686)">
<rect width="328" height="21" transform="translate(452.25 53.0498)" fill="#99B0C3"/>
<path d="M602.322 58.4498C603.306 58.4498 604.134 58.5578 604.806 58.7738C605.49 58.9778 606.036 59.3198 606.444 59.7998C606.864 60.2798 607.17 60.9338 607.362 61.7618C607.554 62.5778 607.65 63.6038 607.65 64.8398C607.65 66.0638 607.554 67.0898 607.362 67.9178C607.17 68.7338 606.864 69.3878 606.444 69.8798C606.036 70.3598 605.49 70.7018 604.806 70.9058C604.134 71.1098 603.306 71.2118 602.322 71.2118C601.386 71.2118 600.516 71.1938 599.712 71.1578C598.92 71.1338 598.17 71.0978 597.462 71.0498L598.596 69.0158C599.052 69.0398 599.592 69.0638 600.216 69.0878C600.852 69.0998 601.554 69.1058 602.322 69.1058C602.946 69.1058 603.432 68.9858 603.78 68.7458C604.14 68.4938 604.392 68.0558 604.536 67.4318C604.68 66.8078 604.752 65.9438 604.752 64.8398C604.752 63.7238 604.68 62.8598 604.536 62.2478C604.392 61.6238 604.14 61.1858 603.78 60.9338C603.432 60.6818 602.946 60.5558 602.322 60.5558C601.59 60.5558 600.936 60.5618 600.36 60.5738C599.784 60.5738 599.22 60.5738 598.668 60.5738L597.462 58.6298C598.182 58.5818 598.932 58.5398 599.712 58.5038C600.504 58.4678 601.374 58.4498 602.322 58.4498ZM600.198 58.6298V71.0498H597.462V58.6298H600.198ZM614.267 61.9238C615.011 61.9238 615.641 62.0258 616.157 62.2298C616.673 62.4218 617.063 62.7578 617.327 63.2378C617.603 63.7058 617.741 64.3478 617.741 65.1638V71.0498H615.635L615.257 69.1238L615.077 68.8538V65.1638C615.065 64.7318 614.957 64.4258 614.753 64.2458C614.561 64.0538 614.195 63.9578 613.655 63.9578C613.187 63.9578 612.611 63.9758 611.927 64.0118C611.243 64.0358 610.541 64.0718 609.821 64.1198L609.587 62.3558C610.019 62.2718 610.511 62.1998 611.063 62.1398C611.627 62.0798 612.191 62.0318 612.755 61.9958C613.319 61.9478 613.823 61.9238 614.267 61.9238ZM616.643 65.5778L616.625 67.0718H612.665C612.341 67.0838 612.107 67.1678 611.963 67.3238C611.831 67.4798 611.765 67.6898 611.765 67.9538V68.3858C611.765 68.6858 611.849 68.9198 612.017 69.0878C612.185 69.2438 612.455 69.3218 612.827 69.3218C613.139 69.3218 613.475 69.2558 613.835 69.1238C614.207 68.9918 614.573 68.8058 614.933 68.5658C615.293 68.3258 615.617 68.0438 615.905 67.7198V68.8718C615.797 69.0518 615.635 69.2798 615.419 69.5558C615.203 69.8198 614.933 70.0838 614.609 70.3478C614.285 70.5998 613.907 70.8158 613.475 70.9958C613.043 71.1638 612.551 71.2478 611.999 71.2478C611.471 71.2478 610.985 71.1578 610.541 70.9778C610.109 70.7858 609.767 70.5038 609.515 70.1318C609.263 69.7598 609.137 69.2978 609.137 68.7458V67.8278C609.137 67.1198 609.377 66.5678 609.857 66.1718C610.337 65.7758 610.997 65.5778 611.837 65.5778H616.643ZM623.309 59.6918V68.2058C623.309 68.5298 623.381 68.7638 623.525 68.9078C623.681 69.0398 623.933 69.1058 624.281 69.1058H625.433L625.721 70.9058C625.505 70.9778 625.241 71.0378 624.929 71.0858C624.617 71.1458 624.305 71.1878 623.993 71.2118C623.681 71.2358 623.417 71.2478 623.201 71.2478C622.397 71.2478 621.767 71.0378 621.311 70.6178C620.867 70.1858 620.645 69.5798 620.645 68.7998V59.6918H623.309ZM625.793 62.1578V63.9038H619.097V62.2478L620.825 62.1578H625.793ZM631.43 61.9238C632.93 61.9238 634.004 62.1818 634.652 62.6978C635.312 63.2018 635.642 63.9578 635.642 64.9658C635.654 65.7698 635.45 66.3758 635.03 66.7838C634.61 67.1918 633.884 67.3958 632.852 67.3958H627.884V65.9018H632.132C632.528 65.9018 632.78 65.8178 632.888 65.6498C633.008 65.4698 633.068 65.2238 633.068 64.9118C633.068 64.4918 632.948 64.2038 632.708 64.0478C632.48 63.8798 632.084 63.7958 631.52 63.7958C631.028 63.7838 630.644 63.8498 630.368 63.9938C630.092 64.1258 629.9 64.3778 629.792 64.7498C629.684 65.1218 629.63 65.6618 629.63 66.3698C629.63 67.1138 629.696 67.6898 629.828 68.0978C629.96 68.4938 630.182 68.7698 630.494 68.9258C630.818 69.0818 631.262 69.1598 631.826 69.1598C632.234 69.1598 632.738 69.1478 633.338 69.1238C633.95 69.0878 634.562 69.0338 635.174 68.9618L635.426 70.5998C635.078 70.7678 634.682 70.8998 634.238 70.9958C633.794 71.0918 633.338 71.1578 632.87 71.1938C632.402 71.2418 631.952 71.2658 631.52 71.2658C630.392 71.2658 629.486 71.1038 628.802 70.7798C628.118 70.4438 627.62 69.9338 627.308 69.2498C627.008 68.5658 626.858 67.6898 626.858 66.6218C626.858 65.4578 627.008 64.5338 627.308 63.8498C627.62 63.1658 628.112 62.6738 628.784 62.3738C629.456 62.0738 630.338 61.9238 631.43 61.9238Z" fill="#003A69"/>
</g>
<g clip-path="url(#clip2_2286_8686)">
<rect width="234" height="21" transform="translate(34.75 375)" fill="#99B0C3"/>
<path d="M98.8606 380.59C99.5086 380.59 99.8446 380.926 99.8686 381.598L100.337 393.01H97.7986L97.3846 382.696H97.0606L95.0626 390.454C94.9546 391.03 94.5946 391.318 93.9826 391.318H92.2546C91.6426 391.318 91.2766 391.03 91.1566 390.454L89.1406 382.696H88.8346L88.4566 393.01H85.9186L86.3686 381.598C86.4046 380.926 86.7466 380.59 87.3946 380.59H89.9686C90.5566 380.59 90.9166 380.878 91.0486 381.454L92.6506 387.718C92.7226 388.006 92.7826 388.3 92.8306 388.6C92.8786 388.888 92.9326 389.182 92.9926 389.482H93.2266C93.2866 389.182 93.3406 388.888 93.3886 388.6C93.4486 388.3 93.5086 388 93.5686 387.7L95.1526 381.454C95.2726 380.878 95.6386 380.59 96.2506 380.59H98.8606ZM107.141 383.884C107.885 383.884 108.515 383.986 109.031 384.19C109.547 384.382 109.937 384.718 110.201 385.198C110.477 385.666 110.615 386.308 110.615 387.124V393.01H108.509L108.131 391.084L107.951 390.814V387.124C107.939 386.692 107.831 386.386 107.627 386.206C107.435 386.014 107.069 385.918 106.529 385.918C106.061 385.918 105.485 385.936 104.801 385.972C104.117 385.996 103.415 386.032 102.695 386.08L102.461 384.316C102.893 384.232 103.385 384.16 103.937 384.1C104.501 384.04 105.065 383.992 105.629 383.956C106.193 383.908 106.697 383.884 107.141 383.884ZM109.517 387.538L109.499 389.032H105.539C105.215 389.044 104.981 389.128 104.837 389.284C104.705 389.44 104.639 389.65 104.639 389.914V390.346C104.639 390.646 104.723 390.88 104.891 391.048C105.059 391.204 105.329 391.282 105.701 391.282C106.013 391.282 106.349 391.216 106.709 391.084C107.081 390.952 107.447 390.766 107.807 390.526C108.167 390.286 108.491 390.004 108.779 389.68V390.832C108.671 391.012 108.509 391.24 108.293 391.516C108.077 391.78 107.807 392.044 107.483 392.308C107.159 392.56 106.781 392.776 106.349 392.956C105.917 393.124 105.425 393.208 104.873 393.208C104.345 393.208 103.859 393.118 103.415 392.938C102.983 392.746 102.641 392.464 102.389 392.092C102.137 391.72 102.011 391.258 102.011 390.706V389.788C102.011 389.08 102.251 388.528 102.731 388.132C103.211 387.736 103.871 387.538 104.711 387.538H109.517ZM114.797 384.118L115.121 385.882L115.373 386.116V393.01H112.727V384.118H114.797ZM119.135 383.884L118.883 386.332H118.145C117.725 386.332 117.287 386.392 116.831 386.512C116.375 386.632 115.799 386.818 115.103 387.07L114.923 385.576C115.547 385.024 116.177 384.604 116.813 384.316C117.449 384.028 118.067 383.884 118.667 383.884H119.135ZM128.995 384.118L126.673 387.214C126.565 387.382 126.427 387.544 126.259 387.7C126.091 387.856 125.953 387.97 125.845 388.042V388.096C125.953 388.168 126.091 388.3 126.259 388.492C126.427 388.672 126.565 388.858 126.673 389.05L129.301 393.01H126.331L123.289 388.006L126.025 384.118H128.995ZM123.055 380.41L123.073 385.612C123.073 386.032 123.049 386.44 123.001 386.836C122.953 387.232 122.881 387.622 122.785 388.006C122.869 388.366 122.935 388.744 122.983 389.14C123.031 389.536 123.055 389.896 123.055 390.22V393.01H120.409V380.41H123.055ZM124.297 387.25V388.87H122.227V387.25H124.297ZM134.341 383.884C135.841 383.884 136.915 384.142 137.563 384.658C138.223 385.162 138.553 385.918 138.553 386.926C138.565 387.73 138.361 388.336 137.941 388.744C137.521 389.152 136.795 389.356 135.763 389.356H130.795V387.862H135.043C135.439 387.862 135.691 387.778 135.799 387.61C135.919 387.43 135.979 387.184 135.979 386.872C135.979 386.452 135.859 386.164 135.619 386.008C135.391 385.84 134.995 385.756 134.431 385.756C133.939 385.744 133.555 385.81 133.279 385.954C133.003 386.086 132.811 386.338 132.703 386.71C132.595 387.082 132.541 387.622 132.541 388.33C132.541 389.074 132.607 389.65 132.739 390.058C132.871 390.454 133.093 390.73 133.405 390.886C133.729 391.042 134.173 391.12 134.737 391.12C135.145 391.12 135.649 391.108 136.249 391.084C136.861 391.048 137.473 390.994 138.085 390.922L138.337 392.56C137.989 392.728 137.593 392.86 137.149 392.956C136.705 393.052 136.249 393.118 135.781 393.154C135.313 393.202 134.863 393.226 134.431 393.226C133.303 393.226 132.397 393.064 131.713 392.74C131.029 392.404 130.531 391.894 130.219 391.21C129.919 390.526 129.769 389.65 129.769 388.582C129.769 387.418 129.919 386.494 130.219 385.81C130.531 385.126 131.023 384.634 131.695 384.334C132.367 384.034 133.249 383.884 134.341 383.884ZM143.763 381.652V390.166C143.763 390.49 143.835 390.724 143.979 390.868C144.135 391 144.387 391.066 144.735 391.066H145.887L146.175 392.866C145.959 392.938 145.695 392.998 145.383 393.046C145.071 393.106 144.759 393.148 144.447 393.172C144.135 393.196 143.871 393.208 143.655 393.208C142.851 393.208 142.221 392.998 141.765 392.578C141.321 392.146 141.099 391.54 141.099 390.76V381.652H143.763ZM146.247 384.118V385.864H139.551V384.208L141.279 384.118H146.247ZM156.596 380.374C157.184 380.374 157.682 380.392 158.09 380.428C158.51 380.452 158.894 380.494 159.242 380.554C159.59 380.614 159.95 380.692 160.322 380.788L160.106 382.822C159.71 382.798 159.344 382.78 159.008 382.768C158.684 382.756 158.33 382.744 157.946 382.732C157.574 382.72 157.124 382.714 156.596 382.714C155.984 382.714 155.504 382.84 155.156 383.092C154.82 383.332 154.58 383.746 154.436 384.334C154.292 384.922 154.22 385.744 154.22 386.8C154.22 387.844 154.292 388.666 154.436 389.266C154.58 389.854 154.82 390.268 155.156 390.508C155.504 390.748 155.984 390.868 156.596 390.868C157.424 390.868 158.12 390.856 158.684 390.832C159.248 390.808 159.806 390.766 160.358 390.706L160.592 392.722C160.016 392.902 159.428 393.028 158.828 393.1C158.228 393.184 157.484 393.226 156.596 393.226C155.312 393.226 154.286 393.022 153.518 392.614C152.75 392.194 152.192 391.516 151.844 390.58C151.508 389.644 151.34 388.384 151.34 386.8C151.34 385.216 151.508 383.956 151.844 383.02C152.192 382.084 152.75 381.412 153.518 381.004C154.286 380.584 155.312 380.374 156.596 380.374ZM166.386 383.884C167.502 383.884 168.396 384.04 169.068 384.352C169.74 384.652 170.22 385.144 170.508 385.828C170.808 386.512 170.958 387.43 170.958 388.582C170.958 389.71 170.808 390.616 170.508 391.3C170.22 391.984 169.74 392.476 169.068 392.776C168.396 393.076 167.502 393.226 166.386 393.226C165.282 393.226 164.394 393.076 163.722 392.776C163.05 392.476 162.564 391.984 162.264 391.3C161.964 390.616 161.814 389.71 161.814 388.582C161.814 387.43 161.964 386.512 162.264 385.828C162.564 385.144 163.05 384.652 163.722 384.352C164.394 384.04 165.282 383.884 166.386 383.884ZM166.386 385.81C165.93 385.81 165.57 385.888 165.306 386.044C165.042 386.2 164.856 386.476 164.748 386.872C164.64 387.268 164.586 387.838 164.586 388.582C164.586 389.302 164.64 389.86 164.748 390.256C164.856 390.652 165.042 390.928 165.306 391.084C165.57 391.228 165.93 391.3 166.386 391.3C166.854 391.3 167.22 391.228 167.484 391.084C167.748 390.928 167.928 390.652 168.024 390.256C168.132 389.86 168.186 389.302 168.186 388.582C168.186 387.838 168.132 387.268 168.024 386.872C167.928 386.476 167.748 386.2 167.484 386.044C167.22 385.888 166.854 385.81 166.386 385.81ZM178.965 383.884C180.645 383.884 181.485 384.706 181.485 386.35V393.01H178.821V387.178C178.821 386.782 178.749 386.512 178.605 386.368C178.461 386.212 178.215 386.134 177.867 386.134C177.483 386.134 177.087 386.212 176.679 386.368C176.271 386.512 175.767 386.734 175.167 387.034L175.041 385.558C175.677 385.018 176.325 384.604 176.985 384.316C177.657 384.028 178.317 383.884 178.965 383.884ZM174.915 384.118L175.221 385.882L175.437 386.116V393.01H172.791V384.118H174.915ZM187.058 381.652V390.166C187.058 390.49 187.13 390.724 187.274 390.868C187.43 391 187.682 391.066 188.03 391.066H189.182L189.47 392.866C189.254 392.938 188.99 392.998 188.678 393.046C188.366 393.106 188.054 393.148 187.742 393.172C187.43 393.196 187.166 393.208 186.95 393.208C186.146 393.208 185.516 392.998 185.06 392.578C184.616 392.146 184.394 391.54 184.394 390.76V381.652H187.058ZM189.542 384.118V385.864H182.846V384.208L184.574 384.118H189.542ZM195.179 383.884C196.679 383.884 197.753 384.142 198.401 384.658C199.061 385.162 199.391 385.918 199.391 386.926C199.403 387.73 199.199 388.336 198.779 388.744C198.359 389.152 197.633 389.356 196.601 389.356H191.633V387.862H195.881C196.277 387.862 196.529 387.778 196.637 387.61C196.757 387.43 196.817 387.184 196.817 386.872C196.817 386.452 196.697 386.164 196.457 386.008C196.229 385.84 195.833 385.756 195.269 385.756C194.777 385.744 194.393 385.81 194.117 385.954C193.841 386.086 193.649 386.338 193.541 386.71C193.433 387.082 193.379 387.622 193.379 388.33C193.379 389.074 193.445 389.65 193.577 390.058C193.709 390.454 193.931 390.73 194.243 390.886C194.567 391.042 195.011 391.12 195.575 391.12C195.983 391.12 196.487 391.108 197.087 391.084C197.699 391.048 198.311 390.994 198.923 390.922L199.175 392.56C198.827 392.728 198.431 392.86 197.987 392.956C197.543 393.052 197.087 393.118 196.619 393.154C196.151 393.202 195.701 393.226 195.269 393.226C194.141 393.226 193.235 393.064 192.551 392.74C191.867 392.404 191.369 391.894 191.057 391.21C190.757 390.526 190.607 389.65 190.607 388.582C190.607 387.418 190.757 386.494 191.057 385.81C191.369 385.126 191.861 384.634 192.533 384.334C193.205 384.034 194.087 383.884 195.179 383.884ZM209.84 384.118L207.266 388.456L210.038 393.01H207.338L204.71 388.456L207.14 384.118H209.84ZM203.09 384.118L205.52 388.456L202.91 393.01H200.192L202.964 388.456L200.408 384.118H203.09ZM206.528 387.592V389.248H203.738V387.592H206.528ZM214.779 381.652V390.166C214.779 390.49 214.851 390.724 214.995 390.868C215.151 391 215.403 391.066 215.751 391.066H216.903L217.191 392.866C216.975 392.938 216.711 392.998 216.399 393.046C216.087 393.106 215.775 393.148 215.463 393.172C215.151 393.196 214.887 393.208 214.671 393.208C213.867 393.208 213.237 392.998 212.781 392.578C212.337 392.146 212.115 391.54 212.115 390.76V381.652H214.779ZM217.263 384.118V385.864H210.567V384.208L212.295 384.118H217.263Z" fill="#003A69"/>
</g>
<g clip-path="url(#clip3_2286_8686)">
<rect width="234" height="21" transform="translate(293.75 375)" fill="#99B0C3"/>
<path d="M368.942 380.59C369.59 380.59 369.926 380.926 369.95 381.598L370.418 393.01H367.88L367.466 382.696H367.142L365.144 390.454C365.036 391.03 364.676 391.318 364.064 391.318H362.336C361.724 391.318 361.358 391.03 361.238 390.454L359.222 382.696H358.916L358.538 393.01H356L356.45 381.598C356.486 380.926 356.828 380.59 357.476 380.59H360.05C360.638 380.59 360.998 380.878 361.13 381.454L362.732 387.718C362.804 388.006 362.864 388.3 362.912 388.6C362.96 388.888 363.014 389.182 363.074 389.482H363.308C363.368 389.182 363.422 388.888 363.47 388.6C363.53 388.3 363.59 388 363.65 387.7L365.234 381.454C365.354 380.878 365.72 380.59 366.332 380.59H368.942ZM377.222 383.884C377.966 383.884 378.596 383.986 379.112 384.19C379.628 384.382 380.018 384.718 380.282 385.198C380.558 385.666 380.696 386.308 380.696 387.124V393.01H378.59L378.212 391.084L378.032 390.814V387.124C378.02 386.692 377.912 386.386 377.708 386.206C377.516 386.014 377.15 385.918 376.61 385.918C376.142 385.918 375.566 385.936 374.882 385.972C374.198 385.996 373.496 386.032 372.776 386.08L372.542 384.316C372.974 384.232 373.466 384.16 374.018 384.1C374.582 384.04 375.146 383.992 375.71 383.956C376.274 383.908 376.778 383.884 377.222 383.884ZM379.598 387.538L379.58 389.032H375.62C375.296 389.044 375.062 389.128 374.918 389.284C374.786 389.44 374.72 389.65 374.72 389.914V390.346C374.72 390.646 374.804 390.88 374.972 391.048C375.14 391.204 375.41 391.282 375.782 391.282C376.094 391.282 376.43 391.216 376.79 391.084C377.162 390.952 377.528 390.766 377.888 390.526C378.248 390.286 378.572 390.004 378.86 389.68V390.832C378.752 391.012 378.59 391.24 378.374 391.516C378.158 391.78 377.888 392.044 377.564 392.308C377.24 392.56 376.862 392.776 376.43 392.956C375.998 393.124 375.506 393.208 374.954 393.208C374.426 393.208 373.94 393.118 373.496 392.938C373.064 392.746 372.722 392.464 372.47 392.092C372.218 391.72 372.092 391.258 372.092 390.706V389.788C372.092 389.08 372.332 388.528 372.812 388.132C373.292 387.736 373.952 387.538 374.792 387.538H379.598ZM388.982 383.884C390.662 383.884 391.502 384.706 391.502 386.35V393.01H388.838V387.178C388.838 386.782 388.766 386.512 388.622 386.368C388.478 386.212 388.232 386.134 387.884 386.134C387.5 386.134 387.104 386.212 386.696 386.368C386.288 386.512 385.784 386.734 385.184 387.034L385.058 385.558C385.694 385.018 386.342 384.604 387.002 384.316C387.674 384.028 388.334 383.884 388.982 383.884ZM384.932 384.118L385.238 385.882L385.454 386.116V393.01H382.808V384.118H384.932ZM398.299 383.884C399.043 383.884 399.673 383.986 400.189 384.19C400.705 384.382 401.095 384.718 401.359 385.198C401.635 385.666 401.773 386.308 401.773 387.124V393.01H399.667L399.289 391.084L399.109 390.814V387.124C399.097 386.692 398.989 386.386 398.785 386.206C398.593 386.014 398.227 385.918 397.687 385.918C397.219 385.918 396.643 385.936 395.959 385.972C395.275 385.996 394.573 386.032 393.853 386.08L393.619 384.316C394.051 384.232 394.543 384.16 395.095 384.1C395.659 384.04 396.223 383.992 396.787 383.956C397.351 383.908 397.855 383.884 398.299 383.884ZM400.675 387.538L400.657 389.032H396.697C396.373 389.044 396.139 389.128 395.995 389.284C395.863 389.44 395.797 389.65 395.797 389.914V390.346C395.797 390.646 395.881 390.88 396.049 391.048C396.217 391.204 396.487 391.282 396.859 391.282C397.171 391.282 397.507 391.216 397.867 391.084C398.239 390.952 398.605 390.766 398.965 390.526C399.325 390.286 399.649 390.004 399.937 389.68V390.832C399.829 391.012 399.667 391.24 399.451 391.516C399.235 391.78 398.965 392.044 398.641 392.308C398.317 392.56 397.939 392.776 397.507 392.956C397.075 393.124 396.583 393.208 396.031 393.208C395.503 393.208 395.017 393.118 394.573 392.938C394.141 392.746 393.799 392.464 393.547 392.092C393.295 391.72 393.169 391.258 393.169 390.706V389.788C393.169 389.08 393.409 388.528 393.889 388.132C394.369 387.736 395.029 387.538 395.869 387.538H400.675ZM407.826 383.884C408.858 383.884 409.674 383.98 410.274 384.172C410.886 384.364 411.324 384.664 411.588 385.072C411.864 385.48 412.002 386.026 412.002 386.71C412.002 387.37 411.87 387.91 411.606 388.33C411.342 388.738 410.898 389.038 410.274 389.23C409.662 389.422 408.84 389.518 407.808 389.518C406.776 389.518 405.948 389.422 405.324 389.23C404.712 389.038 404.274 388.738 404.01 388.33C403.746 387.922 403.614 387.382 403.614 386.71C403.614 386.038 403.746 385.498 404.01 385.09C404.286 384.67 404.73 384.364 405.342 384.172C405.966 383.98 406.794 383.884 407.826 383.884ZM407.808 385.504C407.148 385.504 406.692 385.594 406.44 385.774C406.188 385.942 406.062 386.254 406.062 386.71C406.062 387.154 406.188 387.466 406.44 387.646C406.692 387.826 407.148 387.916 407.808 387.916C408.468 387.916 408.918 387.826 409.158 387.646C409.41 387.466 409.536 387.154 409.536 386.71C409.536 386.254 409.41 385.942 409.158 385.774C408.918 385.594 408.468 385.504 407.808 385.504ZM413.028 384.118L412.884 385.234L410.508 385.54L409.86 384.118H413.028ZM405.144 388.978L406.458 389.194C406.29 389.302 406.17 389.458 406.098 389.662C406.038 389.866 406.056 390.058 406.152 390.238C406.248 390.418 406.458 390.526 406.782 390.562L410.058 390.94C410.994 391.036 411.654 391.3 412.038 391.732C412.422 392.152 412.614 392.77 412.614 393.586C412.614 394.354 412.458 394.942 412.146 395.35C411.834 395.77 411.336 396.058 410.652 396.214C409.968 396.37 409.056 396.448 407.916 396.448C406.98 396.448 406.206 396.4 405.594 396.304C404.994 396.22 404.52 396.076 404.172 395.872C403.824 395.668 403.578 395.398 403.434 395.062C403.29 394.738 403.218 394.33 403.218 393.838C403.218 393.466 403.284 393.148 403.416 392.884C403.548 392.608 403.776 392.362 404.1 392.146C404.424 391.93 404.868 391.732 405.432 391.552L406.746 391.084L407.7 391.444L406.98 391.93C406.68 392.146 406.434 392.332 406.242 392.488C406.062 392.632 405.93 392.776 405.846 392.92C405.774 393.064 405.738 393.256 405.738 393.496C405.738 393.772 405.798 393.982 405.918 394.126C406.038 394.282 406.254 394.384 406.566 394.432C406.89 394.492 407.328 394.522 407.88 394.522C408.468 394.522 408.918 394.492 409.23 394.432C409.554 394.384 409.776 394.288 409.896 394.144C410.028 394 410.094 393.796 410.094 393.532C410.094 393.304 410.052 393.136 409.968 393.028C409.884 392.92 409.734 392.836 409.518 392.776C409.302 392.716 409.008 392.668 408.636 392.632L405.846 392.326C405.39 392.278 405.024 392.152 404.748 391.948C404.484 391.732 404.304 391.48 404.208 391.192C404.112 390.904 404.082 390.61 404.118 390.31C404.166 390.01 404.28 389.74 404.46 389.5C404.64 389.26 404.868 389.086 405.144 388.978ZM418.449 383.884C419.949 383.884 421.023 384.142 421.671 384.658C422.331 385.162 422.661 385.918 422.661 386.926C422.673 387.73 422.469 388.336 422.049 388.744C421.629 389.152 420.903 389.356 419.871 389.356H414.903V387.862H419.151C419.547 387.862 419.799 387.778 419.907 387.61C420.027 387.43 420.087 387.184 420.087 386.872C420.087 386.452 419.967 386.164 419.727 386.008C419.499 385.84 419.103 385.756 418.539 385.756C418.047 385.744 417.663 385.81 417.387 385.954C417.111 386.086 416.919 386.338 416.811 386.71C416.703 387.082 416.649 387.622 416.649 388.33C416.649 389.074 416.715 389.65 416.847 390.058C416.979 390.454 417.201 390.73 417.513 390.886C417.837 391.042 418.281 391.12 418.845 391.12C419.253 391.12 419.757 391.108 420.357 391.084C420.969 391.048 421.581 390.994 422.193 390.922L422.445 392.56C422.097 392.728 421.701 392.86 421.257 392.956C420.813 393.052 420.357 393.118 419.889 393.154C419.421 393.202 418.971 393.226 418.539 393.226C417.411 393.226 416.505 393.064 415.821 392.74C415.137 392.404 414.639 391.894 414.327 391.21C414.027 390.526 413.877 389.65 413.877 388.582C413.877 387.418 414.027 386.494 414.327 385.81C414.639 385.126 415.131 384.634 415.803 384.334C416.475 384.034 417.357 383.884 418.449 383.884ZM435.665 383.884C436.469 383.884 437.081 384.094 437.501 384.514C437.921 384.934 438.131 385.546 438.131 386.35V393.01H435.503V387.178C435.491 386.806 435.413 386.542 435.269 386.386C435.125 386.218 434.873 386.134 434.513 386.134C434.309 386.134 434.105 386.164 433.901 386.224C433.709 386.272 433.487 386.362 433.235 386.494C432.983 386.626 432.677 386.806 432.317 387.034L432.173 385.576C432.749 385.012 433.313 384.592 433.865 384.316C434.429 384.028 435.029 383.884 435.665 383.884ZM426.521 384.118L426.791 385.882L427.061 386.116V393.01H424.415V384.118H426.521ZM430.121 383.884C430.913 383.884 431.513 384.094 431.921 384.514C432.341 384.922 432.551 385.534 432.551 386.35V393.01H429.995V387.178C429.995 386.794 429.911 386.524 429.743 386.368C429.587 386.212 429.341 386.134 429.005 386.134C428.801 386.134 428.597 386.164 428.393 386.224C428.201 386.272 427.973 386.362 427.709 386.494C427.457 386.626 427.145 386.806 426.773 387.034L426.611 385.576C427.199 385.012 427.769 384.592 428.321 384.316C428.873 384.028 429.473 383.884 430.121 383.884ZM444.465 383.884C445.965 383.884 447.039 384.142 447.687 384.658C448.347 385.162 448.677 385.918 448.677 386.926C448.689 387.73 448.485 388.336 448.065 388.744C447.645 389.152 446.919 389.356 445.887 389.356H440.919V387.862H445.167C445.563 387.862 445.815 387.778 445.923 387.61C446.043 387.43 446.103 387.184 446.103 386.872C446.103 386.452 445.983 386.164 445.743 386.008C445.515 385.84 445.119 385.756 444.555 385.756C444.063 385.744 443.679 385.81 443.403 385.954C443.127 386.086 442.935 386.338 442.827 386.71C442.719 387.082 442.665 387.622 442.665 388.33C442.665 389.074 442.731 389.65 442.863 390.058C442.995 390.454 443.217 390.73 443.529 390.886C443.853 391.042 444.297 391.12 444.861 391.12C445.269 391.12 445.773 391.108 446.373 391.084C446.985 391.048 447.597 390.994 448.209 390.922L448.461 392.56C448.113 392.728 447.717 392.86 447.273 392.956C446.829 393.052 446.373 393.118 445.905 393.154C445.437 393.202 444.987 393.226 444.555 393.226C443.427 393.226 442.521 393.064 441.837 392.74C441.153 392.404 440.655 391.894 440.343 391.21C440.043 390.526 439.893 389.65 439.893 388.582C439.893 387.418 440.043 386.494 440.343 385.81C440.655 385.126 441.147 384.634 441.819 384.334C442.491 384.034 443.373 383.884 444.465 383.884ZM456.605 383.884C458.285 383.884 459.125 384.706 459.125 386.35V393.01H456.461V387.178C456.461 386.782 456.389 386.512 456.245 386.368C456.101 386.212 455.855 386.134 455.507 386.134C455.123 386.134 454.727 386.212 454.319 386.368C453.911 386.512 453.407 386.734 452.807 387.034L452.681 385.558C453.317 385.018 453.965 384.604 454.625 384.316C455.297 384.028 455.957 383.884 456.605 383.884ZM452.555 384.118L452.861 385.882L453.077 386.116V393.01H450.431V384.118H452.555ZM464.698 381.652V390.166C464.698 390.49 464.77 390.724 464.914 390.868C465.07 391 465.322 391.066 465.67 391.066H466.822L467.11 392.866C466.894 392.938 466.63 392.998 466.318 393.046C466.006 393.106 465.694 393.148 465.382 393.172C465.07 393.196 464.806 393.208 464.59 393.208C463.786 393.208 463.156 392.998 462.7 392.578C462.256 392.146 462.034 391.54 462.034 390.76V381.652H464.698ZM467.182 384.118V385.864H460.486V384.208L462.214 384.118H467.182Z" fill="#003A69"/>
</g>
<g clip-path="url(#clip4_2286_8686)">
<rect width="234" height="21" transform="translate(552.75 375)" fill="#99B0C3"/>
<path d="M567.078 380.374C567.666 380.374 568.164 380.392 568.572 380.428C568.992 380.452 569.376 380.494 569.724 380.554C570.072 380.614 570.432 380.692 570.804 380.788L570.588 382.822C570.192 382.798 569.826 382.78 569.49 382.768C569.166 382.756 568.812 382.744 568.428 382.732C568.056 382.72 567.606 382.714 567.078 382.714C566.466 382.714 565.986 382.84 565.638 383.092C565.302 383.332 565.062 383.746 564.918 384.334C564.774 384.922 564.702 385.744 564.702 386.8C564.702 387.844 564.774 388.666 564.918 389.266C565.062 389.854 565.302 390.268 565.638 390.508C565.986 390.748 566.466 390.868 567.078 390.868C567.906 390.868 568.602 390.856 569.166 390.832C569.73 390.808 570.288 390.766 570.84 390.706L571.074 392.722C570.498 392.902 569.91 393.028 569.31 393.1C568.71 393.184 567.966 393.226 567.078 393.226C565.794 393.226 564.768 393.022 564 392.614C563.232 392.194 562.674 391.516 562.326 390.58C561.99 389.644 561.822 388.384 561.822 386.8C561.822 385.216 561.99 383.956 562.326 383.02C562.674 382.084 563.232 381.412 564 381.004C564.768 380.584 565.794 380.374 567.078 380.374ZM575.248 384.118V389.968C575.248 390.34 575.326 390.604 575.482 390.76C575.65 390.916 575.914 390.994 576.274 390.994C576.646 390.994 577.012 390.928 577.372 390.796C577.744 390.652 578.206 390.43 578.758 390.13L578.956 391.588C578.308 392.14 577.672 392.554 577.048 392.83C576.436 393.106 575.794 393.244 575.122 393.244C573.442 393.244 572.602 392.422 572.602 390.778V384.118H575.248ZM581.134 384.118V393.01H579.046L578.74 391.264L578.47 391.012V384.118H581.134ZM586.692 383.884C587.124 383.884 587.592 383.902 588.096 383.938C588.6 383.962 589.092 383.998 589.572 384.046C590.052 384.094 590.478 384.154 590.85 384.226L590.67 385.882C590.094 385.87 589.512 385.858 588.924 385.846C588.348 385.834 587.784 385.828 587.232 385.828C586.764 385.828 586.404 385.84 586.152 385.864C585.9 385.876 585.72 385.93 585.612 386.026C585.516 386.11 585.468 386.266 585.468 386.494C585.468 386.77 585.558 386.956 585.738 387.052C585.918 387.136 586.218 387.232 586.638 387.34L588.96 387.898C589.704 388.09 590.256 388.378 590.616 388.762C590.976 389.134 591.156 389.698 591.156 390.454C591.156 391.198 591.018 391.768 590.742 392.164C590.466 392.56 590.028 392.836 589.428 392.992C588.828 393.136 588.054 393.208 587.106 393.208C586.734 393.208 586.182 393.19 585.45 393.154C584.718 393.118 583.92 393.028 583.056 392.884L583.218 391.228C583.446 391.24 583.722 391.252 584.046 391.264C584.382 391.264 584.748 391.264 585.144 391.264C585.54 391.264 585.936 391.264 586.332 391.264C586.956 391.264 587.43 391.252 587.754 391.228C588.078 391.192 588.3 391.12 588.42 391.012C588.54 390.904 588.6 390.742 588.6 390.526C588.6 390.25 588.498 390.07 588.294 389.986C588.09 389.89 587.766 389.782 587.322 389.662L585.072 389.104C584.496 388.948 584.052 388.75 583.74 388.51C583.428 388.27 583.206 387.982 583.074 387.646C582.954 387.298 582.894 386.884 582.894 386.404C582.894 385.792 583.02 385.3 583.272 384.928C583.524 384.556 583.926 384.292 584.478 384.136C585.03 383.968 585.768 383.884 586.692 383.884ZM596.344 381.652V390.166C596.344 390.49 596.416 390.724 596.56 390.868C596.716 391 596.968 391.066 597.316 391.066H598.468L598.756 392.866C598.54 392.938 598.276 392.998 597.964 393.046C597.652 393.106 597.34 393.148 597.028 393.172C596.716 393.196 596.452 393.208 596.236 393.208C595.432 393.208 594.802 392.998 594.346 392.578C593.902 392.146 593.68 391.54 593.68 390.76V381.652H596.344ZM598.828 384.118V385.864H592.132V384.208L593.86 384.118H598.828ZM604.483 383.884C605.599 383.884 606.493 384.04 607.165 384.352C607.837 384.652 608.317 385.144 608.605 385.828C608.905 386.512 609.055 387.43 609.055 388.582C609.055 389.71 608.905 390.616 608.605 391.3C608.317 391.984 607.837 392.476 607.165 392.776C606.493 393.076 605.599 393.226 604.483 393.226C603.379 393.226 602.491 393.076 601.819 392.776C601.147 392.476 600.661 391.984 600.361 391.3C600.061 390.616 599.911 389.71 599.911 388.582C599.911 387.43 600.061 386.512 600.361 385.828C600.661 385.144 601.147 384.652 601.819 384.352C602.491 384.04 603.379 383.884 604.483 383.884ZM604.483 385.81C604.027 385.81 603.667 385.888 603.403 386.044C603.139 386.2 602.953 386.476 602.845 386.872C602.737 387.268 602.683 387.838 602.683 388.582C602.683 389.302 602.737 389.86 602.845 390.256C602.953 390.652 603.139 390.928 603.403 391.084C603.667 391.228 604.027 391.3 604.483 391.3C604.951 391.3 605.317 391.228 605.581 391.084C605.845 390.928 606.025 390.652 606.121 390.256C606.229 389.86 606.283 389.302 606.283 388.582C606.283 387.838 606.229 387.268 606.121 386.872C606.025 386.476 605.845 386.2 605.581 386.044C605.317 385.888 604.951 385.81 604.483 385.81ZM622.138 383.884C622.942 383.884 623.554 384.094 623.974 384.514C624.394 384.934 624.604 385.546 624.604 386.35V393.01H621.976V387.178C621.964 386.806 621.886 386.542 621.742 386.386C621.598 386.218 621.346 386.134 620.986 386.134C620.782 386.134 620.578 386.164 620.374 386.224C620.182 386.272 619.96 386.362 619.708 386.494C619.456 386.626 619.15 386.806 618.79 387.034L618.646 385.576C619.222 385.012 619.786 384.592 620.338 384.316C620.902 384.028 621.502 383.884 622.138 383.884ZM612.994 384.118L613.264 385.882L613.534 386.116V393.01H610.888V384.118H612.994ZM616.594 383.884C617.386 383.884 617.986 384.094 618.394 384.514C618.814 384.922 619.024 385.534 619.024 386.35V393.01H616.468V387.178C616.468 386.794 616.384 386.524 616.216 386.368C616.06 386.212 615.814 386.134 615.478 386.134C615.274 386.134 615.07 386.164 614.866 386.224C614.674 386.272 614.446 386.362 614.182 386.494C613.93 386.626 613.618 386.806 613.246 387.034L613.084 385.576C613.672 385.012 614.242 384.592 614.794 384.316C615.346 384.028 615.946 383.884 616.594 383.884ZM630.938 383.884C632.438 383.884 633.512 384.142 634.16 384.658C634.82 385.162 635.15 385.918 635.15 386.926C635.162 387.73 634.958 388.336 634.538 388.744C634.118 389.152 633.392 389.356 632.36 389.356H627.392V387.862H631.64C632.036 387.862 632.288 387.778 632.396 387.61C632.516 387.43 632.576 387.184 632.576 386.872C632.576 386.452 632.456 386.164 632.216 386.008C631.988 385.84 631.592 385.756 631.028 385.756C630.536 385.744 630.152 385.81 629.876 385.954C629.6 386.086 629.408 386.338 629.3 386.71C629.192 387.082 629.138 387.622 629.138 388.33C629.138 389.074 629.204 389.65 629.336 390.058C629.468 390.454 629.69 390.73 630.002 390.886C630.326 391.042 630.77 391.12 631.334 391.12C631.742 391.12 632.246 391.108 632.846 391.084C633.458 391.048 634.07 390.994 634.682 390.922L634.934 392.56C634.586 392.728 634.19 392.86 633.746 392.956C633.302 393.052 632.846 393.118 632.378 393.154C631.91 393.202 631.46 393.226 631.028 393.226C629.9 393.226 628.994 393.064 628.31 392.74C627.626 392.404 627.128 391.894 626.816 391.21C626.516 390.526 626.366 389.65 626.366 388.582C626.366 387.418 626.516 386.494 626.816 385.81C627.128 385.126 627.62 384.634 628.292 384.334C628.964 384.034 629.846 383.884 630.938 383.884ZM638.974 384.118L639.298 385.882L639.55 386.116V393.01H636.904V384.118H638.974ZM643.312 383.884L643.06 386.332H642.322C641.902 386.332 641.464 386.392 641.008 386.512C640.552 386.632 639.976 386.818 639.28 387.07L639.1 385.576C639.724 385.024 640.354 384.604 640.99 384.316C641.626 384.028 642.244 383.884 642.844 383.884H643.312ZM652.834 383.884C653.578 383.884 654.208 383.986 654.724 384.19C655.24 384.382 655.63 384.718 655.894 385.198C656.17 385.666 656.308 386.308 656.308 387.124V393.01H654.202L653.824 391.084L653.644 390.814V387.124C653.632 386.692 653.524 386.386 653.32 386.206C653.128 386.014 652.762 385.918 652.222 385.918C651.754 385.918 651.178 385.936 650.494 385.972C649.81 385.996 649.108 386.032 648.388 386.08L648.154 384.316C648.586 384.232 649.078 384.16 649.63 384.1C650.194 384.04 650.758 383.992 651.322 383.956C651.886 383.908 652.39 383.884 652.834 383.884ZM655.21 387.538L655.192 389.032H651.232C650.908 389.044 650.674 389.128 650.53 389.284C650.398 389.44 650.332 389.65 650.332 389.914V390.346C650.332 390.646 650.416 390.88 650.584 391.048C650.752 391.204 651.022 391.282 651.394 391.282C651.706 391.282 652.042 391.216 652.402 391.084C652.774 390.952 653.14 390.766 653.5 390.526C653.86 390.286 654.184 390.004 654.472 389.68V390.832C654.364 391.012 654.202 391.24 653.986 391.516C653.77 391.78 653.5 392.044 653.176 392.308C652.852 392.56 652.474 392.776 652.042 392.956C651.61 393.124 651.118 393.208 650.566 393.208C650.038 393.208 649.552 393.118 649.108 392.938C648.676 392.746 648.334 392.464 648.082 392.092C647.83 391.72 647.704 391.258 647.704 390.706V389.788C647.704 389.08 647.944 388.528 648.424 388.132C648.904 387.736 649.564 387.538 650.404 387.538H655.21ZM664.593 383.884C666.273 383.884 667.113 384.706 667.113 386.35V393.01H664.449V387.178C664.449 386.782 664.377 386.512 664.233 386.368C664.089 386.212 663.843 386.134 663.495 386.134C663.111 386.134 662.715 386.212 662.307 386.368C661.899 386.512 661.395 386.734 660.795 387.034L660.669 385.558C661.305 385.018 661.953 384.604 662.613 384.316C663.285 384.028 663.945 383.884 664.593 383.884ZM660.543 384.118L660.849 385.882L661.065 386.116V393.01H658.419V384.118H660.543ZM672.254 383.884C672.89 383.884 673.496 383.974 674.072 384.154C674.648 384.334 675.158 384.628 675.602 385.036L675.422 386.242C675.026 386.122 674.66 386.02 674.324 385.936C674 385.84 673.622 385.792 673.19 385.792C672.818 385.792 672.518 385.858 672.29 385.99C672.062 386.122 671.894 386.38 671.786 386.764C671.678 387.148 671.624 387.718 671.624 388.474C671.624 389.182 671.672 389.722 671.768 390.094C671.876 390.454 672.038 390.706 672.254 390.85C672.482 390.982 672.77 391.048 673.118 391.048C673.43 391.048 673.7 391.018 673.928 390.958C674.156 390.886 674.384 390.784 674.612 390.652C674.84 390.508 675.104 390.334 675.404 390.13L675.584 391.444C675.224 391.948 674.756 392.374 674.18 392.722C673.604 393.058 672.896 393.226 672.056 393.226C670.916 393.226 670.1 392.818 669.608 392.002C669.128 391.186 668.888 390.016 668.888 388.492C668.888 387.304 669.014 386.38 669.266 385.72C669.518 385.048 669.89 384.574 670.382 384.298C670.886 384.022 671.51 383.884 672.254 383.884ZM677.78 380.41V393.01H675.674L675.404 391.372L675.116 391.174V385.342L675.224 385.09C675.188 384.73 675.158 384.364 675.134 383.992C675.122 383.608 675.116 383.218 675.116 382.822V380.41H677.78ZM688.876 380.374C689.464 380.374 689.962 380.392 690.37 380.428C690.79 380.452 691.174 380.494 691.522 380.554C691.87 380.614 692.23 380.692 692.602 380.788L692.386 382.822C691.99 382.798 691.624 382.78 691.288 382.768C690.964 382.756 690.61 382.744 690.226 382.732C689.854 382.72 689.404 382.714 688.876 382.714C688.264 382.714 687.784 382.84 687.436 383.092C687.1 383.332 686.86 383.746 686.716 384.334C686.572 384.922 686.5 385.744 686.5 386.8C686.5 387.844 686.572 388.666 686.716 389.266C686.86 389.854 687.1 390.268 687.436 390.508C687.784 390.748 688.264 390.868 688.876 390.868C689.704 390.868 690.4 390.856 690.964 390.832C691.528 390.808 692.086 390.766 692.638 390.706L692.872 392.722C692.296 392.902 691.708 393.028 691.108 393.1C690.508 393.184 689.764 393.226 688.876 393.226C687.592 393.226 686.566 393.022 685.798 392.614C685.03 392.194 684.472 391.516 684.124 390.58C683.788 389.644 683.62 388.384 683.62 386.8C683.62 385.216 683.788 383.956 684.124 383.02C684.472 382.084 685.03 381.412 685.798 381.004C686.566 380.584 687.592 380.374 688.876 380.374ZM698.666 383.884C699.782 383.884 700.676 384.04 701.348 384.352C702.02 384.652 702.5 385.144 702.788 385.828C703.088 386.512 703.238 387.43 703.238 388.582C703.238 389.71 703.088 390.616 702.788 391.3C702.5 391.984 702.02 392.476 701.348 392.776C700.676 393.076 699.782 393.226 698.666 393.226C697.562 393.226 696.674 393.076 696.002 392.776C695.33 392.476 694.844 391.984 694.544 391.3C694.244 390.616 694.094 389.71 694.094 388.582C694.094 387.43 694.244 386.512 694.544 385.828C694.844 385.144 695.33 384.652 696.002 384.352C696.674 384.04 697.562 383.884 698.666 383.884ZM698.666 385.81C698.21 385.81 697.85 385.888 697.586 386.044C697.322 386.2 697.136 386.476 697.028 386.872C696.92 387.268 696.866 387.838 696.866 388.582C696.866 389.302 696.92 389.86 697.028 390.256C697.136 390.652 697.322 390.928 697.586 391.084C697.85 391.228 698.21 391.3 698.666 391.3C699.134 391.3 699.5 391.228 699.764 391.084C700.028 390.928 700.208 390.652 700.304 390.256C700.412 389.86 700.466 389.302 700.466 388.582C700.466 387.838 700.412 387.268 700.304 386.872C700.208 386.476 700.028 386.2 699.764 386.044C699.5 385.888 699.134 385.81 698.666 385.81ZM716.322 383.884C717.126 383.884 717.738 384.094 718.158 384.514C718.578 384.934 718.788 385.546 718.788 386.35V393.01H716.16V387.178C716.148 386.806 716.07 386.542 715.926 386.386C715.782 386.218 715.53 386.134 715.17 386.134C714.966 386.134 714.762 386.164 714.558 386.224C714.366 386.272 714.144 386.362 713.892 386.494C713.64 386.626 713.334 386.806 712.974 387.034L712.83 385.576C713.406 385.012 713.97 384.592 714.522 384.316C715.086 384.028 715.686 383.884 716.322 383.884ZM707.178 384.118L707.448 385.882L707.718 386.116V393.01H705.072V384.118H707.178ZM710.778 383.884C711.57 383.884 712.17 384.094 712.578 384.514C712.998 384.922 713.208 385.534 713.208 386.35V393.01H710.652V387.178C710.652 386.794 710.568 386.524 710.4 386.368C710.244 386.212 709.998 386.134 709.662 386.134C709.458 386.134 709.254 386.164 709.05 386.224C708.858 386.272 708.63 386.362 708.366 386.494C708.114 386.626 707.802 386.806 707.43 387.034L707.268 385.576C707.856 385.012 708.426 384.592 708.978 384.316C709.53 384.028 710.13 383.884 710.778 383.884ZM726.759 383.902C727.875 383.902 728.673 384.31 729.153 385.126C729.633 385.942 729.873 387.112 729.873 388.636C729.873 389.824 729.747 390.754 729.495 391.426C729.255 392.086 728.883 392.554 728.379 392.83C727.887 393.106 727.269 393.244 726.525 393.244C725.889 393.244 725.283 393.154 724.707 392.974C724.131 392.794 723.621 392.494 723.177 392.074L723.357 390.886C723.753 391.006 724.113 391.114 724.437 391.21C724.773 391.294 725.151 391.336 725.571 391.336C725.955 391.336 726.261 391.27 726.489 391.138C726.717 391.006 726.885 390.748 726.993 390.364C727.101 389.968 727.155 389.398 727.155 388.654C727.155 387.922 727.101 387.358 726.993 386.962C726.897 386.566 726.741 386.296 726.525 386.152C726.321 386.008 726.045 385.936 725.697 385.936C725.301 385.936 724.941 386.008 724.617 386.152C724.293 386.296 723.927 386.512 723.519 386.8L723.177 385.576C723.417 385.252 723.723 384.964 724.095 384.712C724.479 384.46 724.899 384.262 725.355 384.118C725.811 383.974 726.279 383.902 726.759 383.902ZM723.069 384.118L723.321 385.738L723.573 386.008V391.786L723.483 392.002C723.519 392.362 723.543 392.734 723.555 393.118C723.579 393.502 723.585 393.886 723.573 394.27V396.43H720.927V384.118H723.069ZM734.384 380.41L734.366 390.166C734.366 390.466 734.456 390.694 734.636 390.85C734.816 390.994 735.08 391.066 735.428 391.066H736.148L736.454 392.866C736.31 392.938 736.106 392.998 735.842 393.046C735.578 393.106 735.308 393.148 735.032 393.172C734.756 393.196 734.522 393.208 734.33 393.208C733.526 393.208 732.89 393.004 732.422 392.596C731.966 392.176 731.738 391.588 731.738 390.832V380.41H734.384ZM742.306 383.884C743.05 383.884 743.68 383.986 744.196 384.19C744.712 384.382 745.102 384.718 745.366 385.198C745.642 385.666 745.78 386.308 745.78 387.124V393.01H743.674L743.296 391.084L743.116 390.814V387.124C743.104 386.692 742.996 386.386 742.792 386.206C742.6 386.014 742.234 385.918 741.694 385.918C741.226 385.918 740.65 385.936 739.966 385.972C739.282 385.996 738.58 386.032 737.86 386.08L737.626 384.316C738.058 384.232 738.55 384.16 739.102 384.1C739.666 384.04 740.23 383.992 740.794 383.956C741.358 383.908 741.862 383.884 742.306 383.884ZM744.682 387.538L744.664 389.032H740.704C740.38 389.044 740.146 389.128 740.002 389.284C739.87 389.44 739.804 389.65 739.804 389.914V390.346C739.804 390.646 739.888 390.88 740.056 391.048C740.224 391.204 740.494 391.282 740.866 391.282C741.178 391.282 741.514 391.216 741.874 391.084C742.246 390.952 742.612 390.766 742.972 390.526C743.332 390.286 743.656 390.004 743.944 389.68V390.832C743.836 391.012 743.674 391.24 743.458 391.516C743.242 391.78 742.972 392.044 742.648 392.308C742.324 392.56 741.946 392.776 741.514 392.956C741.082 393.124 740.59 393.208 740.038 393.208C739.51 393.208 739.024 393.118 738.58 392.938C738.148 392.746 737.806 392.464 737.554 392.092C737.302 391.72 737.176 391.258 737.176 390.706V389.788C737.176 389.08 737.416 388.528 737.896 388.132C738.376 387.736 739.036 387.538 739.876 387.538H744.682ZM750.592 384.118V393.01H747.964V384.118H750.592ZM749.854 380.194C750.382 380.194 750.646 380.458 750.646 380.986V381.958C750.646 382.486 750.382 382.75 749.854 382.75H748.702C748.174 382.75 747.91 382.486 747.91 381.958V380.986C747.91 380.458 748.174 380.194 748.702 380.194H749.854ZM759.041 383.884C760.721 383.884 761.561 384.706 761.561 386.35V393.01H758.897V387.178C758.897 386.782 758.825 386.512 758.681 386.368C758.537 386.212 758.291 386.134 757.943 386.134C757.559 386.134 757.163 386.212 756.755 386.368C756.347 386.512 755.843 386.734 755.243 387.034L755.117 385.558C755.753 385.018 756.401 384.604 757.061 384.316C757.733 384.028 758.393 383.884 759.041 383.884ZM754.991 384.118L755.297 385.882L755.513 386.116V393.01H752.867V384.118H754.991ZM767.133 381.652V390.166C767.133 390.49 767.205 390.724 767.349 390.868C767.505 391 767.757 391.066 768.105 391.066H769.257L769.545 392.866C769.329 392.938 769.065 392.998 768.753 393.046C768.441 393.106 768.129 393.148 767.817 393.172C767.505 393.196 767.241 393.208 767.025 393.208C766.221 393.208 765.591 392.998 765.135 392.578C764.691 392.146 764.469 391.54 764.469 390.76V381.652H767.133ZM769.617 384.118V385.864H762.921V384.208L764.649 384.118H769.617ZM774.426 383.884C774.858 383.884 775.326 383.902 775.83 383.938C776.334 383.962 776.826 383.998 777.306 384.046C777.786 384.094 778.212 384.154 778.584 384.226L778.404 385.882C777.828 385.87 777.246 385.858 776.658 385.846C776.082 385.834 775.518 385.828 774.966 385.828C774.498 385.828 774.138 385.84 773.886 385.864C773.634 385.876 773.454 385.93 773.346 386.026C773.25 386.11 773.202 386.266 773.202 386.494C773.202 386.77 773.292 386.956 773.472 387.052C773.652 387.136 773.952 387.232 774.372 387.34L776.694 387.898C777.438 388.09 777.99 388.378 778.35 388.762C778.71 389.134 778.89 389.698 778.89 390.454C778.89 391.198 778.752 391.768 778.476 392.164C778.2 392.56 777.762 392.836 777.162 392.992C776.562 393.136 775.788 393.208 774.84 393.208C774.468 393.208 773.916 393.19 773.184 393.154C772.452 393.118 771.654 393.028 770.79 392.884L770.952 391.228C771.18 391.24 771.456 391.252 771.78 391.264C772.116 391.264 772.482 391.264 772.878 391.264C773.274 391.264 773.67 391.264 774.066 391.264C774.69 391.264 775.164 391.252 775.488 391.228C775.812 391.192 776.034 391.12 776.154 391.012C776.274 390.904 776.334 390.742 776.334 390.526C776.334 390.25 776.232 390.07 776.028 389.986C775.824 389.89 775.5 389.782 775.056 389.662L772.806 389.104C772.23 388.948 771.786 388.75 771.474 388.51C771.162 388.27 770.94 387.982 770.808 387.646C770.688 387.298 770.628 386.884 770.628 386.404C770.628 385.792 770.754 385.3 771.006 384.928C771.258 384.556 771.66 384.292 772.212 384.136C772.764 383.968 773.502 383.884 774.426 383.884Z" fill="#003A69"/>
</g>
<g clip-path="url(#clip5_2286_8686)">
<rect width="575" height="21" transform="translate(806.75 53.0498)" fill="#99B0C3"/>
<path d="M977.2 58.4596C978.364 58.4596 979.276 58.5796 979.936 58.8196C980.596 59.0596 981.064 59.4736 981.34 60.0616C981.628 60.6376 981.771 61.4596 981.771 62.5276C981.771 63.5836 981.633 64.4056 981.357 64.9936C981.094 65.5696 980.656 65.9776 980.044 66.2176C979.432 66.4456 978.604 66.5596 977.56 66.5596C977.008 66.5596 976.468 66.5416 975.939 66.5056C975.412 66.4576 974.92 66.3976 974.464 66.3256C974.008 66.2536 973.618 66.1756 973.294 66.0916C972.982 66.0076 972.76 65.9356 972.628 65.8756L972.682 64.5076C973.39 64.5076 974.122 64.5076 974.878 64.5076C975.646 64.5076 976.402 64.5076 977.146 64.5076C977.626 64.4956 978.004 64.4356 978.28 64.3276C978.556 64.2196 978.748 64.0216 978.856 63.7336C978.964 63.4456 979.018 63.0436 979.018 62.5276C979.018 61.9876 978.964 61.5736 978.856 61.2856C978.748 60.9976 978.556 60.7996 978.28 60.6916C978.004 60.5836 977.626 60.5296 977.146 60.5296C976.042 60.5296 975.094 60.5356 974.302 60.5476C973.522 60.5596 972.988 60.5776 972.7 60.6016L972.448 58.6396C972.952 58.5796 973.42 58.5376 973.852 58.5136C974.296 58.4896 974.776 58.4776 975.292 58.4776C975.82 58.4656 976.456 58.4596 977.2 58.4596ZM975.184 58.6396V71.0596H972.448V58.6396H975.184ZM985.482 62.1676L985.806 63.9316L986.058 64.1656V71.0596H983.412V62.1676H985.482ZM989.82 61.9336L989.568 64.3816H988.83C988.41 64.3816 987.972 64.4416 987.516 64.5616C987.06 64.6816 986.484 64.8676 985.788 65.1196L985.608 63.6256C986.232 63.0736 986.862 62.6536 987.498 62.3656C988.134 62.0776 988.752 61.9336 989.352 61.9336H989.82ZM995.165 61.9336C996.281 61.9336 997.175 62.0896 997.847 62.4016C998.519 62.7016 998.999 63.1936 999.287 63.8776C999.587 64.5616 999.737 65.4796 999.737 66.6316C999.737 67.7596 999.587 68.6656 999.287 69.3496C998.999 70.0336 998.519 70.5256 997.847 70.8256C997.175 71.1256 996.281 71.2756 995.165 71.2756C994.061 71.2756 993.173 71.1256 992.501 70.8256C991.829 70.5256 991.343 70.0336 991.043 69.3496C990.743 68.6656 990.593 67.7596 990.593 66.6316C990.593 65.4796 990.743 64.5616 991.043 63.8776C991.343 63.1936 991.829 62.7016 992.501 62.4016C993.173 62.0896 994.061 61.9336 995.165 61.9336ZM995.165 63.8596C994.709 63.8596 994.349 63.9376 994.085 64.0936C993.821 64.2496 993.635 64.5256 993.527 64.9216C993.419 65.3176 993.365 65.8876 993.365 66.6316C993.365 67.3516 993.419 67.9096 993.527 68.3056C993.635 68.7016 993.821 68.9776 994.085 69.1336C994.349 69.2776 994.709 69.3496 995.165 69.3496C995.633 69.3496 995.999 69.2776 996.263 69.1336C996.527 68.9776 996.707 68.7016 996.803 68.3056C996.911 67.9096 996.965 67.3516 996.965 66.6316C996.965 65.8876 996.911 65.3176 996.803 64.9216C996.707 64.5256 996.527 64.2496 996.263 64.0936C995.999 63.9376 995.633 63.8596 995.165 63.8596ZM1004.59 61.9336C1005.23 61.9336 1005.84 62.0236 1006.41 62.2036C1006.99 62.3836 1007.5 62.6776 1007.94 63.0856L1007.76 64.2916C1007.37 64.1716 1007 64.0696 1006.66 63.9856C1006.34 63.8896 1005.96 63.8416 1005.53 63.8416C1005.16 63.8416 1004.86 63.9076 1004.63 64.0396C1004.4 64.1716 1004.23 64.4296 1004.13 64.8136C1004.02 65.1976 1003.96 65.7676 1003.96 66.5236C1003.96 67.2316 1004.01 67.7716 1004.11 68.1436C1004.22 68.5036 1004.38 68.7556 1004.59 68.8996C1004.82 69.0316 1005.11 69.0976 1005.46 69.0976C1005.77 69.0976 1006.04 69.0676 1006.27 69.0076C1006.5 68.9356 1006.72 68.8336 1006.95 68.7016C1007.18 68.5576 1007.44 68.3836 1007.74 68.1796L1007.92 69.4936C1007.56 69.9976 1007.1 70.4236 1006.52 70.7716C1005.94 71.1076 1005.24 71.2756 1004.4 71.2756C1003.26 71.2756 1002.44 70.8676 1001.95 70.0516C1001.47 69.2356 1001.23 68.0656 1001.23 66.5416C1001.23 65.3536 1001.35 64.4296 1001.61 63.7696C1001.86 63.0976 1002.23 62.6236 1002.72 62.3476C1003.23 62.0716 1003.85 61.9336 1004.59 61.9336ZM1010.12 58.4596V71.0596H1008.01L1007.74 69.4216L1007.46 69.2236V63.3916L1007.56 63.1396C1007.53 62.7796 1007.5 62.4136 1007.47 62.0416C1007.46 61.6576 1007.46 61.2676 1007.46 60.8716V58.4596H1010.12ZM1014.9 62.1676V68.0176C1014.9 68.3896 1014.98 68.6536 1015.14 68.8096C1015.3 68.9656 1015.57 69.0436 1015.93 69.0436C1016.3 69.0436 1016.67 68.9776 1017.03 68.8456C1017.4 68.7016 1017.86 68.4796 1018.41 68.1796L1018.61 69.6376C1017.96 70.1896 1017.33 70.6036 1016.7 70.8796C1016.09 71.1556 1015.45 71.2936 1014.78 71.2936C1013.1 71.2936 1012.26 70.4716 1012.26 68.8276V62.1676H1014.9ZM1020.79 62.1676V71.0596H1018.7L1018.39 69.3136L1018.12 69.0616V62.1676H1020.79ZM1027.1 61.9336C1027.43 61.9336 1027.78 61.9516 1028.16 61.9876C1028.55 62.0116 1028.93 62.0656 1029.32 62.1496C1029.71 62.2216 1030.07 62.3296 1030.4 62.4736L1030.11 64.1476C1029.63 64.1236 1029.17 64.1116 1028.72 64.1116C1028.29 64.0996 1027.9 64.0936 1027.55 64.0936C1027.01 64.0936 1026.59 64.1656 1026.27 64.3096C1025.96 64.4536 1025.73 64.7056 1025.59 65.0656C1025.46 65.4256 1025.39 65.9356 1025.39 66.5956C1025.39 67.2556 1025.46 67.7716 1025.59 68.1436C1025.73 68.5156 1025.96 68.7736 1026.27 68.9176C1026.59 69.0616 1027.01 69.1336 1027.55 69.1336C1027.74 69.1336 1027.99 69.1276 1028.29 69.1156C1028.59 69.1036 1028.91 69.0916 1029.26 69.0796C1029.61 69.0556 1029.95 69.0196 1030.29 68.9716L1030.54 70.6636C1030.06 70.8796 1029.51 71.0356 1028.9 71.1316C1028.29 71.2276 1027.68 71.2756 1027.08 71.2756C1025.99 71.2756 1025.12 71.1256 1024.46 70.8256C1023.8 70.5136 1023.32 70.0156 1023.03 69.3316C1022.75 68.6476 1022.6 67.7356 1022.6 66.5956C1022.6 65.4556 1022.75 64.5436 1023.03 63.8596C1023.33 63.1756 1023.81 62.6836 1024.47 62.3836C1025.13 62.0836 1026.01 61.9336 1027.1 61.9336ZM1035.6 59.7016V68.2156C1035.6 68.5396 1035.67 68.7736 1035.81 68.9176C1035.97 69.0496 1036.22 69.1156 1036.57 69.1156H1037.72L1038.01 70.9156C1037.79 70.9876 1037.53 71.0476 1037.22 71.0956C1036.9 71.1556 1036.59 71.1976 1036.28 71.2216C1035.97 71.2456 1035.7 71.2576 1035.49 71.2576C1034.68 71.2576 1034.05 71.0476 1033.6 70.6276C1033.15 70.1956 1032.93 69.5896 1032.93 68.8096V59.7016H1035.6ZM1038.08 62.1676V63.9136H1031.38V62.2576L1033.11 62.1676H1038.08ZM1040.89 68.3236C1041.24 68.3236 1041.48 68.3956 1041.61 68.5396C1041.74 68.6716 1041.81 68.9116 1041.83 69.2596V70.4116C1041.83 70.8796 1041.78 71.3056 1041.7 71.6896C1041.63 72.0736 1041.53 72.4276 1041.39 72.7516C1041.26 73.0756 1041.1 73.3936 1040.91 73.7056L1039.85 73.3636C1039.94 72.9796 1040.01 72.6016 1040.04 72.2296C1040.08 71.8696 1040.1 71.4796 1040.1 71.0596C1039.61 71.0596 1039.35 70.7836 1039.34 70.2316L1039.36 69.2596C1039.37 68.9116 1039.44 68.6716 1039.58 68.5396C1039.72 68.3956 1039.96 68.3236 1040.3 68.3236H1040.89ZM1052.88 58.3876C1053.86 58.3876 1054.7 58.4956 1055.38 58.7116C1056.06 58.9156 1056.62 59.2636 1057.04 59.7556C1057.46 60.2356 1057.76 60.8956 1057.94 61.7356C1058.13 62.5636 1058.22 63.6016 1058.22 64.8496C1058.22 66.0856 1058.13 67.1236 1057.94 67.9636C1057.76 68.7916 1057.46 69.4516 1057.04 69.9436C1056.62 70.4356 1056.06 70.7836 1055.38 70.9876C1054.7 71.1916 1053.86 71.2936 1052.88 71.2936C1051.89 71.2936 1051.06 71.1916 1050.38 70.9876C1049.7 70.7836 1049.16 70.4356 1048.74 69.9436C1048.32 69.4516 1048.01 68.7916 1047.82 67.9636C1047.63 67.1236 1047.53 66.0856 1047.53 64.8496C1047.53 63.6016 1047.63 62.5636 1047.82 61.7356C1048.01 60.8956 1048.32 60.2356 1048.74 59.7556C1049.16 59.2636 1049.7 58.9156 1050.38 58.7116C1051.06 58.4956 1051.89 58.3876 1052.88 58.3876ZM1051.98 71.6716C1052.78 71.9956 1053.62 72.2536 1054.5 72.4456C1055.37 72.6496 1056.32 72.8236 1057.32 72.9676L1056.6 75.3436C1055.52 75.0676 1054.55 74.7316 1053.67 74.3356C1052.79 73.9396 1052.02 73.5196 1051.35 73.0756L1051.98 71.6716ZM1052.88 60.5476C1052.25 60.5476 1051.76 60.6736 1051.4 60.9256C1051.04 61.1776 1050.79 61.6156 1050.65 62.2396C1050.5 62.8636 1050.43 63.7336 1050.43 64.8496C1050.43 65.9536 1050.5 66.8176 1050.65 67.4416C1050.79 68.0656 1051.04 68.5036 1051.4 68.7556C1051.76 69.0076 1052.25 69.1336 1052.88 69.1336C1053.51 69.1336 1054.01 69.0076 1054.35 68.7556C1054.71 68.5036 1054.97 68.0656 1055.11 67.4416C1055.27 66.8176 1055.34 65.9536 1055.34 64.8496C1055.34 63.7336 1055.27 62.8636 1055.11 62.2396C1054.97 61.6156 1054.71 61.1776 1054.35 60.9256C1054.01 60.6736 1053.51 60.5476 1052.88 60.5476ZM1062.77 62.1676V68.0176C1062.77 68.3896 1062.85 68.6536 1063 68.8096C1063.17 68.9656 1063.43 69.0436 1063.79 69.0436C1064.17 69.0436 1064.53 68.9776 1064.89 68.8456C1065.26 68.7016 1065.73 68.4796 1066.28 68.1796L1066.48 69.6376C1065.83 70.1896 1065.19 70.6036 1064.57 70.8796C1063.96 71.1556 1063.31 71.2936 1062.64 71.2936C1060.96 71.2936 1060.12 70.4716 1060.12 68.8276V62.1676H1062.77ZM1068.65 62.1676V71.0596H1066.57L1066.26 69.3136L1065.99 69.0616V62.1676H1068.65ZM1075.53 61.9336C1076.27 61.9336 1076.9 62.0356 1077.42 62.2396C1077.93 62.4316 1078.32 62.7676 1078.59 63.2476C1078.86 63.7156 1079 64.3576 1079 65.1736V71.0596H1076.89L1076.52 69.1336L1076.34 68.8636V65.1736C1076.32 64.7416 1076.22 64.4356 1076.01 64.2556C1075.82 64.0636 1075.45 63.9676 1074.91 63.9676C1074.45 63.9676 1073.87 63.9856 1073.19 64.0216C1072.5 64.0456 1071.8 64.0816 1071.08 64.1296L1070.85 62.3656C1071.28 62.2816 1071.77 62.2096 1072.32 62.1496C1072.89 62.0896 1073.45 62.0416 1074.01 62.0056C1074.58 61.9576 1075.08 61.9336 1075.53 61.9336ZM1077.9 65.5876L1077.88 67.0816H1073.92C1073.6 67.0936 1073.37 67.1776 1073.22 67.3336C1073.09 67.4896 1073.02 67.6996 1073.02 67.9636V68.3956C1073.02 68.6956 1073.11 68.9296 1073.28 69.0976C1073.44 69.2536 1073.71 69.3316 1074.09 69.3316C1074.4 69.3316 1074.73 69.2656 1075.09 69.1336C1075.47 69.0016 1075.83 68.8156 1076.19 68.5756C1076.55 68.3356 1076.88 68.0536 1077.16 67.7296V68.8816C1077.06 69.0616 1076.89 69.2896 1076.68 69.5656C1076.46 69.8296 1076.19 70.0936 1075.87 70.3576C1075.54 70.6096 1075.17 70.8256 1074.73 71.0056C1074.3 71.1736 1073.81 71.2576 1073.26 71.2576C1072.73 71.2576 1072.24 71.1676 1071.8 70.9876C1071.37 70.7956 1071.03 70.5136 1070.77 70.1416C1070.52 69.7696 1070.4 69.3076 1070.4 68.7556V67.8376C1070.4 67.1296 1070.64 66.5776 1071.12 66.1816C1071.6 65.7856 1072.26 65.5876 1073.1 65.5876H1077.9ZM1083.78 58.4596L1083.76 68.2156C1083.76 68.5156 1083.85 68.7436 1084.03 68.8996C1084.21 69.0436 1084.47 69.1156 1084.82 69.1156H1085.54L1085.85 70.9156C1085.7 70.9876 1085.5 71.0476 1085.23 71.0956C1084.97 71.1556 1084.7 71.1976 1084.42 71.2216C1084.15 71.2456 1083.91 71.2576 1083.72 71.2576C1082.92 71.2576 1082.28 71.0536 1081.81 70.6456C1081.36 70.2256 1081.13 69.6376 1081.13 68.8816V58.4596H1083.78ZM1089.72 62.1676V71.0596H1087.09V62.1676H1089.72ZM1088.98 58.2436C1089.51 58.2436 1089.77 58.5076 1089.77 59.0356V60.0076C1089.77 60.5356 1089.51 60.7996 1088.98 60.7996H1087.83C1087.3 60.7996 1087.04 60.5356 1087.04 60.0076V59.0356C1087.04 58.5076 1087.3 58.2436 1087.83 58.2436H1088.98ZM1095.45 59.7016V68.2156C1095.45 68.5396 1095.52 68.7736 1095.66 68.9176C1095.82 69.0496 1096.07 69.1156 1096.42 69.1156H1097.57L1097.86 70.9156C1097.64 70.9876 1097.38 71.0476 1097.07 71.0956C1096.76 71.1556 1096.44 71.1976 1096.13 71.2216C1095.82 71.2456 1095.56 71.2576 1095.34 71.2576C1094.54 71.2576 1093.91 71.0476 1093.45 70.6276C1093.01 70.1956 1092.78 69.5896 1092.78 68.8096V59.7016H1095.45ZM1097.93 62.1676V63.9136H1091.24V62.2576L1092.96 62.1676H1097.93ZM1108.3 62.1676L1105.12 71.1676C1104.97 71.6116 1104.77 72.0556 1104.51 72.4996C1104.25 72.9556 1103.93 73.3636 1103.53 73.7236C1103.15 74.0836 1102.68 74.3536 1102.13 74.5336C1101.59 74.7136 1100.95 74.7616 1100.2 74.6776L1100.01 73.1656C1100.74 72.9736 1101.31 72.7156 1101.72 72.3916C1102.12 72.0676 1102.44 71.6416 1102.67 71.1136L1103.23 69.8716C1103.34 69.6076 1103.44 69.2896 1103.53 68.9176C1103.64 68.5336 1103.73 68.2036 1103.8 67.9276L1105.48 62.1676H1108.3ZM1101.25 62.1676L1102.94 67.9276C1102.99 68.1556 1103.04 68.3836 1103.08 68.6116C1103.13 68.8396 1103.17 69.0676 1103.21 69.2956H1103.7L1102.85 71.0596H1102.2C1102 71.0596 1101.82 70.9996 1101.66 70.8796C1101.51 70.7596 1101.4 70.6036 1101.34 70.4116L1098.42 62.1676H1101.25ZM1117.75 61.9336C1118.49 61.9336 1119.12 62.0356 1119.64 62.2396C1120.15 62.4316 1120.54 62.7676 1120.81 63.2476C1121.08 63.7156 1121.22 64.3576 1121.22 65.1736V71.0596H1119.12L1118.74 69.1336L1118.56 68.8636V65.1736C1118.55 64.7416 1118.44 64.4356 1118.23 64.2556C1118.04 64.0636 1117.68 63.9676 1117.14 63.9676C1116.67 63.9676 1116.09 63.9856 1115.41 64.0216C1114.72 64.0456 1114.02 64.0816 1113.3 64.1296L1113.07 62.3656C1113.5 62.2816 1113.99 62.2096 1114.54 62.1496C1115.11 62.0896 1115.67 62.0416 1116.24 62.0056C1116.8 61.9576 1117.3 61.9336 1117.75 61.9336ZM1120.12 65.5876L1120.11 67.0816H1116.15C1115.82 67.0936 1115.59 67.1776 1115.44 67.3336C1115.31 67.4896 1115.25 67.6996 1115.25 67.9636V68.3956C1115.25 68.6956 1115.33 68.9296 1115.5 69.0976C1115.67 69.2536 1115.94 69.3316 1116.31 69.3316C1116.62 69.3316 1116.96 69.2656 1117.32 69.1336C1117.69 69.0016 1118.05 68.8156 1118.41 68.5756C1118.77 68.3356 1119.1 68.0536 1119.39 67.7296V68.8816C1119.28 69.0616 1119.12 69.2896 1118.9 69.5656C1118.68 69.8296 1118.41 70.0936 1118.09 70.3576C1117.77 70.6096 1117.39 70.8256 1116.96 71.0056C1116.52 71.1736 1116.03 71.2576 1115.48 71.2576C1114.95 71.2576 1114.47 71.1676 1114.02 70.9876C1113.59 70.7956 1113.25 70.5136 1113 70.1416C1112.74 69.7696 1112.62 69.3076 1112.62 68.7556V67.8376C1112.62 67.1296 1112.86 66.5776 1113.34 66.1816C1113.82 65.7856 1114.48 65.5876 1115.32 65.5876H1120.12ZM1129.51 61.9336C1131.19 61.9336 1132.03 62.7556 1132.03 64.3996V71.0596H1129.36V65.2276C1129.36 64.8316 1129.29 64.5616 1129.15 64.4176C1129 64.2616 1128.76 64.1836 1128.41 64.1836C1128.03 64.1836 1127.63 64.2616 1127.22 64.4176C1126.81 64.5616 1126.31 64.7836 1125.71 65.0836L1125.58 63.6076C1126.22 63.0676 1126.87 62.6536 1127.53 62.3656C1128.2 62.0776 1128.86 61.9336 1129.51 61.9336ZM1125.46 62.1676L1125.76 63.9316L1125.98 64.1656V71.0596H1123.33V62.1676H1125.46ZM1137.17 61.9336C1137.8 61.9336 1138.41 62.0236 1138.99 62.2036C1139.56 62.3836 1140.07 62.6776 1140.52 63.0856L1140.34 64.2916C1139.94 64.1716 1139.57 64.0696 1139.24 63.9856C1138.91 63.8896 1138.54 63.8416 1138.1 63.8416C1137.73 63.8416 1137.43 63.9076 1137.2 64.0396C1136.98 64.1716 1136.81 64.4296 1136.7 64.8136C1136.59 65.1976 1136.54 65.7676 1136.54 66.5236C1136.54 67.2316 1136.59 67.7716 1136.68 68.1436C1136.79 68.5036 1136.95 68.7556 1137.17 68.8996C1137.4 69.0316 1137.68 69.0976 1138.03 69.0976C1138.34 69.0976 1138.61 69.0676 1138.84 69.0076C1139.07 68.9356 1139.3 68.8336 1139.53 68.7016C1139.75 68.5576 1140.02 68.3836 1140.32 68.1796L1140.5 69.4936C1140.14 69.9976 1139.67 70.4236 1139.09 70.7716C1138.52 71.1076 1137.81 71.2756 1136.97 71.2756C1135.83 71.2756 1135.01 70.8676 1134.52 70.0516C1134.04 69.2356 1133.8 68.0656 1133.8 66.5416C1133.8 65.3536 1133.93 64.4296 1134.18 63.7696C1134.43 63.0976 1134.8 62.6236 1135.3 62.3476C1135.8 62.0716 1136.42 61.9336 1137.17 61.9336ZM1142.69 58.4596V71.0596H1140.59L1140.32 69.4216L1140.03 69.2236V63.3916L1140.14 63.1396C1140.1 62.7796 1140.07 62.4136 1140.05 62.0416C1140.04 61.6576 1140.03 61.2676 1140.03 60.8716V58.4596H1142.69ZM1153.7 58.4596C1154.87 58.4596 1155.78 58.5796 1156.44 58.8196C1157.1 59.0596 1157.57 59.4736 1157.84 60.0616C1158.13 60.6376 1158.27 61.4596 1158.27 62.5276C1158.27 63.5836 1158.14 64.4056 1157.86 64.9936C1157.6 65.5696 1157.16 65.9776 1156.55 66.2176C1155.93 66.4456 1155.11 66.5596 1154.06 66.5596C1153.51 66.5596 1152.97 66.5416 1152.44 66.5056C1151.91 66.4576 1151.42 66.3976 1150.97 66.3256C1150.51 66.2536 1150.12 66.1756 1149.8 66.0916C1149.48 66.0076 1149.26 65.9356 1149.13 65.8756L1149.18 64.5076C1149.89 64.5076 1150.62 64.5076 1151.38 64.5076C1152.15 64.5076 1152.9 64.5076 1153.65 64.5076C1154.13 64.4956 1154.51 64.4356 1154.78 64.3276C1155.06 64.2196 1155.25 64.0216 1155.36 63.7336C1155.47 63.4456 1155.52 63.0436 1155.52 62.5276C1155.52 61.9876 1155.47 61.5736 1155.36 61.2856C1155.25 60.9976 1155.06 60.7996 1154.78 60.6916C1154.51 60.5836 1154.13 60.5296 1153.65 60.5296C1152.54 60.5296 1151.6 60.5356 1150.8 60.5476C1150.02 60.5596 1149.49 60.5776 1149.2 60.6016L1148.95 58.6396C1149.45 58.5796 1149.92 58.5376 1150.35 58.5136C1150.8 58.4896 1151.28 58.4776 1151.79 58.4776C1152.32 58.4656 1152.96 58.4596 1153.7 58.4596ZM1151.69 58.6396V71.0596H1148.95V58.6396H1151.69ZM1161.98 62.1676L1162.31 63.9316L1162.56 64.1656V71.0596H1159.91V62.1676H1161.98ZM1166.32 61.9336L1166.07 64.3816H1165.33C1164.91 64.3816 1164.47 64.4416 1164.02 64.5616C1163.56 64.6816 1162.99 64.8676 1162.29 65.1196L1162.11 63.6256C1162.73 63.0736 1163.36 62.6536 1164 62.3656C1164.64 62.0776 1165.25 61.9336 1165.85 61.9336H1166.32ZM1171.67 61.9336C1172.78 61.9336 1173.68 62.0896 1174.35 62.4016C1175.02 62.7016 1175.5 63.1936 1175.79 63.8776C1176.09 64.5616 1176.24 65.4796 1176.24 66.6316C1176.24 67.7596 1176.09 68.6656 1175.79 69.3496C1175.5 70.0336 1175.02 70.5256 1174.35 70.8256C1173.68 71.1256 1172.78 71.2756 1171.67 71.2756C1170.56 71.2756 1169.68 71.1256 1169 70.8256C1168.33 70.5256 1167.85 70.0336 1167.55 69.3496C1167.25 68.6656 1167.1 67.7596 1167.1 66.6316C1167.1 65.4796 1167.25 64.5616 1167.55 63.8776C1167.85 63.1936 1168.33 62.7016 1169 62.4016C1169.68 62.0896 1170.56 61.9336 1171.67 61.9336ZM1171.67 63.8596C1171.21 63.8596 1170.85 63.9376 1170.59 64.0936C1170.32 64.2496 1170.14 64.5256 1170.03 64.9216C1169.92 65.3176 1169.87 65.8876 1169.87 66.6316C1169.87 67.3516 1169.92 67.9096 1170.03 68.3056C1170.14 68.7016 1170.32 68.9776 1170.59 69.1336C1170.85 69.2776 1171.21 69.3496 1171.67 69.3496C1172.14 69.3496 1172.5 69.2776 1172.77 69.1336C1173.03 68.9776 1173.21 68.7016 1173.31 68.3056C1173.41 67.9096 1173.47 67.3516 1173.47 66.6316C1173.47 65.8876 1173.41 65.3176 1173.31 64.9216C1173.21 64.5256 1173.03 64.2496 1172.77 64.0936C1172.5 63.9376 1172.14 63.8596 1171.67 63.8596ZM1182.19 61.9336C1182.52 61.9336 1182.87 61.9516 1183.26 61.9876C1183.64 62.0116 1184.02 62.0656 1184.41 62.1496C1184.8 62.2216 1185.16 62.3296 1185.49 62.4736L1185.2 64.1476C1184.72 64.1236 1184.26 64.1116 1183.81 64.1116C1183.38 64.0996 1182.99 64.0936 1182.64 64.0936C1182.1 64.0936 1181.68 64.1656 1181.37 64.3096C1181.05 64.4536 1180.83 64.7056 1180.68 65.0656C1180.55 65.4256 1180.48 65.9356 1180.48 66.5956C1180.48 67.2556 1180.55 67.7716 1180.68 68.1436C1180.83 68.5156 1181.05 68.7736 1181.37 68.9176C1181.68 69.0616 1182.1 69.1336 1182.64 69.1336C1182.84 69.1336 1183.08 69.1276 1183.38 69.1156C1183.68 69.1036 1184.01 69.0916 1184.35 69.0796C1184.7 69.0556 1185.04 69.0196 1185.38 68.9716L1185.63 70.6636C1185.15 70.8796 1184.61 71.0356 1183.99 71.1316C1183.38 71.2276 1182.78 71.2756 1182.18 71.2756C1181.08 71.2756 1180.21 71.1256 1179.55 70.8256C1178.89 70.5136 1178.41 70.0156 1178.13 69.3316C1177.84 68.6476 1177.69 67.7356 1177.69 66.5956C1177.69 65.4556 1177.84 64.5436 1178.13 63.8596C1178.43 63.1756 1178.91 62.6836 1179.57 62.3836C1180.23 62.0836 1181.1 61.9336 1182.19 61.9336ZM1191.32 61.9336C1192.82 61.9336 1193.89 62.1916 1194.54 62.7076C1195.2 63.2116 1195.53 63.9676 1195.53 64.9756C1195.54 65.7796 1195.34 66.3856 1194.92 66.7936C1194.5 67.2016 1193.77 67.4056 1192.74 67.4056H1187.77V65.9116H1192.02C1192.42 65.9116 1192.67 65.8276 1192.78 65.6596C1192.9 65.4796 1192.96 65.2336 1192.96 64.9216C1192.96 64.5016 1192.84 64.2136 1192.6 64.0576C1192.37 63.8896 1191.97 63.8056 1191.41 63.8056C1190.92 63.7936 1190.53 63.8596 1190.26 64.0036C1189.98 64.1356 1189.79 64.3876 1189.68 64.7596C1189.57 65.1316 1189.52 65.6716 1189.52 66.3796C1189.52 67.1236 1189.59 67.6996 1189.72 68.1076C1189.85 68.5036 1190.07 68.7796 1190.38 68.9356C1190.71 69.0916 1191.15 69.1696 1191.72 69.1696C1192.12 69.1696 1192.63 69.1576 1193.23 69.1336C1193.84 69.0976 1194.45 69.0436 1195.06 68.9716L1195.32 70.6096C1194.97 70.7776 1194.57 70.9096 1194.13 71.0056C1193.68 71.1016 1193.23 71.1676 1192.76 71.2036C1192.29 71.2516 1191.84 71.2756 1191.41 71.2756C1190.28 71.2756 1189.38 71.1136 1188.69 70.7896C1188.01 70.4536 1187.51 69.9436 1187.2 69.2596C1186.9 68.5756 1186.75 67.6996 1186.75 66.6316C1186.75 65.4676 1186.9 64.5436 1187.2 63.8596C1187.51 63.1756 1188 62.6836 1188.67 62.3836C1189.35 62.0836 1190.23 61.9336 1191.32 61.9336ZM1200.65 61.9336C1201.08 61.9336 1201.55 61.9516 1202.06 61.9876C1202.56 62.0116 1203.05 62.0476 1203.53 62.0956C1204.01 62.1436 1204.44 62.2036 1204.81 62.2756L1204.63 63.9316C1204.05 63.9196 1203.47 63.9076 1202.88 63.8956C1202.31 63.8836 1201.74 63.8776 1201.19 63.8776C1200.72 63.8776 1200.36 63.8896 1200.11 63.9136C1199.86 63.9256 1199.68 63.9796 1199.57 64.0756C1199.48 64.1596 1199.43 64.3156 1199.43 64.5436C1199.43 64.8196 1199.52 65.0056 1199.7 65.1016C1199.88 65.1856 1200.18 65.2816 1200.6 65.3896L1202.92 65.9476C1203.66 66.1396 1204.22 66.4276 1204.58 66.8116C1204.94 67.1836 1205.12 67.7476 1205.12 68.5036C1205.12 69.2476 1204.98 69.8176 1204.7 70.2136C1204.43 70.6096 1203.99 70.8856 1203.39 71.0416C1202.79 71.1856 1202.01 71.2576 1201.07 71.2576C1200.69 71.2576 1200.14 71.2396 1199.41 71.2036C1198.68 71.1676 1197.88 71.0776 1197.02 70.9336L1197.18 69.2776C1197.41 69.2896 1197.68 69.3016 1198.01 69.3136C1198.34 69.3136 1198.71 69.3136 1199.1 69.3136C1199.5 69.3136 1199.9 69.3136 1200.29 69.3136C1200.92 69.3136 1201.39 69.3016 1201.71 69.2776C1202.04 69.2416 1202.26 69.1696 1202.38 69.0616C1202.5 68.9536 1202.56 68.7916 1202.56 68.5756C1202.56 68.2996 1202.46 68.1196 1202.25 68.0356C1202.05 67.9396 1201.73 67.8316 1201.28 67.7116L1199.03 67.1536C1198.46 66.9976 1198.01 66.7996 1197.7 66.5596C1197.39 66.3196 1197.17 66.0316 1197.03 65.6956C1196.91 65.3476 1196.85 64.9336 1196.85 64.4536C1196.85 63.8416 1196.98 63.3496 1197.23 62.9776C1197.48 62.6056 1197.89 62.3416 1198.44 62.1856C1198.99 62.0176 1199.73 61.9336 1200.65 61.9336ZM1210.21 61.9336C1210.65 61.9336 1211.11 61.9516 1211.62 61.9876C1212.12 62.0116 1212.61 62.0476 1213.09 62.0956C1213.57 62.1436 1214 62.2036 1214.37 62.2756L1214.19 63.9316C1213.62 63.9196 1213.03 63.9076 1212.45 63.8956C1211.87 63.8836 1211.31 63.8776 1210.75 63.8776C1210.29 63.8776 1209.93 63.8896 1209.67 63.9136C1209.42 63.9256 1209.24 63.9796 1209.13 64.0756C1209.04 64.1596 1208.99 64.3156 1208.99 64.5436C1208.99 64.8196 1209.08 65.0056 1209.26 65.1016C1209.44 65.1856 1209.74 65.2816 1210.16 65.3896L1212.48 65.9476C1213.23 66.1396 1213.78 66.4276 1214.14 66.8116C1214.5 67.1836 1214.68 67.7476 1214.68 68.5036C1214.68 69.2476 1214.54 69.8176 1214.26 70.2136C1213.99 70.6096 1213.55 70.8856 1212.95 71.0416C1212.35 71.1856 1211.58 71.2576 1210.63 71.2576C1210.26 71.2576 1209.7 71.2396 1208.97 71.2036C1208.24 71.1676 1207.44 71.0776 1206.58 70.9336L1206.74 69.2776C1206.97 69.2896 1207.24 69.3016 1207.57 69.3136C1207.9 69.3136 1208.27 69.3136 1208.67 69.3136C1209.06 69.3136 1209.46 69.3136 1209.85 69.3136C1210.48 69.3136 1210.95 69.3016 1211.28 69.2776C1211.6 69.2416 1211.82 69.1696 1211.94 69.0616C1212.06 68.9536 1212.12 68.7916 1212.12 68.5756C1212.12 68.2996 1212.02 68.1196 1211.82 68.0356C1211.61 67.9396 1211.29 67.8316 1210.84 67.7116L1208.59 67.1536C1208.02 66.9976 1207.57 66.7996 1207.26 66.5596C1206.95 66.3196 1206.73 66.0316 1206.6 65.6956C1206.48 65.3476 1206.42 64.9336 1206.42 64.4536C1206.42 63.8416 1206.54 63.3496 1206.79 62.9776C1207.05 62.6056 1207.45 62.3416 1208 62.1856C1208.55 62.0176 1209.29 61.9336 1210.21 61.9336Z" fill="#003A69"/>
</g>
</g>
<defs>
<filter id="filter0_d_2286_8686" x="0.238095" y="0" width="1415.52" height="734.524" filterUnits="userSpaceOnUse" color-interpolation-filters="sRGB">
<feFlood flood-opacity="0" result="BackgroundImageFix"/>
<feColorMatrix in="SourceAlpha" type="matrix" values="0 0 0 0 0 0 0 0 0 0 0 0 0 0 0 0 0 0 127 0" result="hardAlpha"/>
<feOffset dy="5.7619"/>
<feGaussianBlur stdDeviation="2.88095"/>
<feComposite in2="hardAlpha" operator="out"/>
<feColorMatrix type="matrix" values="0 0 0 0 0 0 0 0 0 0 0 0 0 0 0 0 0 0 0.25 0"/>
<feBlend mode="normal" in2="BackgroundImageFix" result="effect1_dropShadow_2286_8686"/>
<feBlend mode="normal" in="SourceGraphic" in2="effect1_dropShadow_2286_8686" result="shape"/>
</filter>
<linearGradient id="paint0_linear_2286_8686" x1="708" y1="0" x2="708" y2="716" gradientUnits="userSpaceOnUse">
<stop stop-color="#032664"/>
<stop offset="1" stop-color="#0C55AE"/>
</linearGradient>
<clipPath id="clip0_2286_8686">
<rect width="407" height="21" fill="white" transform="translate(34.25 53.0498)"/>
</clipPath>
<clipPath id="clip1_2286_8686">
<rect width="328" height="21" fill="white" transform="translate(452.25 53.0498)"/>
</clipPath>
<clipPath id="clip2_2286_8686">
<rect width="234" height="21" fill="white" transform="translate(34.75 375)"/>
</clipPath>
<clipPath id="clip3_2286_8686">
<rect width="234" height="21" fill="white" transform="translate(293.75 375)"/>
</clipPath>
<clipPath id="clip4_2286_8686">
<rect width="234" height="21" fill="white" transform="translate(552.75 375)"/>
</clipPath>
<clipPath id="clip5_2286_8686">
<rect width="575" height="21" fill="white" transform="translate(806.75 53.0498)"/>
</clipPath>
</defs>
</svg>
