<svg width="19" height="16" viewBox="0 0 19 16" fill="none" xmlns="http://www.w3.org/2000/svg">
<path d="M0 5.38791C0 4.25518 -1.19678e-07 3.68959 0.394544 3.35915C0.534177 3.2416 0.70405 3.14741 0.893497 3.0825C1.42759 2.90114 2.12933 3.08019 3.53283 3.4383C4.60402 3.71187 5.13911 3.84866 5.68124 3.83406C5.88011 3.82906 6.07785 3.80898 6.27155 3.77412C6.79861 3.67806 7.26845 3.4383 8.20813 2.95954L9.59556 2.25101C10.8003 1.63624 11.4016 1.32885 12.0923 1.25892C12.783 1.18745 13.4697 1.36266 14.8421 1.71308L16.0117 2.01125C17.0056 2.26485 17.5025 2.39164 17.7866 2.69365C18.0707 2.99566 18.0707 3.39757 18.0707 4.19832V10.4452C18.0707 11.5772 18.0707 12.1435 17.6762 12.474C17.5364 12.591 17.3665 12.6846 17.1772 12.7491C16.6431 12.9312 15.9414 12.7522 14.5379 12.3941C13.4667 12.1205 12.9316 11.9837 12.3895 11.9983C12.1906 12.0033 11.9929 12.0234 11.7992 12.0582C11.2721 12.1543 10.8023 12.3941 9.8626 12.8728L8.47517 13.5813C7.27046 14.1961 6.6691 14.5035 5.9784 14.5734C5.2877 14.6449 4.60101 14.4697 3.22864 14.1193L2.05906 13.8211C1.06517 13.5675 0.568224 13.4407 0.284112 13.1387C0 12.8367 0 12.4348 0 11.634V5.38791Z" stroke="#9B9081" stroke-width="1.5"/>
<path opacity="0.5" d="M6.02344 3.79646V14.4482M12.047 1V11.7586" stroke="#9B9081" stroke-width="1.5"/>
</svg>
