<svg width="20" height="16" viewBox="0 0 20 16" fill="none" xmlns="http://www.w3.org/2000/svg">
<path d="M1.07031 5.38791C1.07031 4.25518 1.07031 3.68959 1.46486 3.35915C1.60449 3.2416 1.77436 3.14741 1.96381 3.0825C2.4979 2.90114 3.19965 3.08019 4.60314 3.4383C5.67433 3.71187 6.20943 3.84866 6.75155 3.83406C6.95042 3.82906 7.14816 3.80898 7.34186 3.77412C7.86892 3.67806 8.33876 3.4383 9.27844 2.95954L10.6659 2.25101C11.8706 1.63624 12.4719 1.32885 13.1626 1.25892C13.8533 1.18745 14.54 1.36266 15.9124 1.71308L17.082 2.01125C18.0759 2.26485 18.5728 2.39164 18.8569 2.69365C19.141 2.99566 19.141 3.39757 19.141 4.19832V10.4452C19.141 11.5772 19.141 12.1435 18.7465 12.474C18.6067 12.591 18.4368 12.6846 18.2475 12.7491C17.7135 12.9312 17.0117 12.7522 15.6082 12.3941C14.537 12.1205 14.0019 11.9837 13.4598 11.9983C13.2609 12.0033 13.0632 12.0234 12.8695 12.0582C12.3424 12.1543 11.8726 12.3941 10.9329 12.8728L9.54548 13.5813C8.34077 14.1961 7.73942 14.5035 7.04871 14.5734C6.35801 14.6449 5.67132 14.4697 4.29895 14.1193L3.12937 13.8211C2.13548 13.5675 1.63854 13.4407 1.35442 13.1387C1.07031 12.8367 1.07031 12.4348 1.07031 11.634V5.38791Z" stroke="#003A69" stroke-width="1.5"/>
<path opacity="0.5" d="M7.09375 3.79646V14.4482M13.1173 1V11.7586" stroke="#003A69" stroke-width="1.5"/>
</svg>
