<svg width="23" height="19" viewBox="0 0 23 19" fill="none" xmlns="http://www.w3.org/2000/svg">
<path d="M2.52737 0.849609H20.2189C20.8892 0.849609 21.5321 1.07837 22.0061 1.48555C22.48 1.89274 22.7463 2.44501 22.7463 3.02086V16.0484C22.7463 16.6242 22.48 17.1765 22.0061 17.5837C21.5321 17.9909 20.8892 18.2196 20.2189 18.2196H2.52737C1.85707 18.2196 1.21422 17.9909 0.740249 17.5837C0.266275 17.1765 0 16.6242 0 16.0484V3.02086C0 2.44501 0.266275 1.89274 0.740249 1.48555C1.21422 1.07837 1.85707 0.849609 2.52737 0.849609ZM2.52737 5.19211V9.53461H10.1095V5.19211H2.52737ZM12.6368 5.19211V9.53461H20.2189V5.19211H12.6368ZM2.52737 11.7059V16.0484H10.1095V11.7059H2.52737ZM12.6368 11.7059V16.0484H20.2189V11.7059H12.6368Z" fill="#9B9081"/>
</svg>
