<svg width="24" height="19" viewBox="0 0 24 19" fill="none" xmlns="http://www.w3.org/2000/svg">
<path d="M3.27346 0.849609H20.965C21.6353 0.849609 22.2782 1.07837 22.7522 1.48555C23.2261 1.89274 23.4924 2.44501 23.4924 3.02086V16.0484C23.4924 16.6242 23.2261 17.1765 22.7522 17.5837C22.2782 17.9909 21.6353 18.2196 20.965 18.2196H3.27346C2.60316 18.2196 1.96032 17.9909 1.48634 17.5837C1.01237 17.1765 0.746094 16.6242 0.746094 16.0484V3.02086C0.746094 2.44501 1.01237 1.89274 1.48634 1.48555C1.96032 1.07837 2.60316 0.849609 3.27346 0.849609ZM3.27346 5.19211V9.53461H10.8556V5.19211H3.27346ZM13.3829 5.19211V9.53461H20.965V5.19211H13.3829ZM3.27346 11.7059V16.0484H10.8556V11.7059H3.27346ZM13.3829 11.7059V16.0484H20.965V11.7059H13.3829Z" fill="#003A69"/>
</svg>
