<svg width="34" height="34" viewBox="0 0 34 34" fill="none" xmlns="http://www.w3.org/2000/svg">
<path d="M19.7332 32.0411C20.046 31.8958 20.3096 31.6704 20.4942 31.3905C20.6788 31.1107 20.777 30.7874 20.7778 30.4574V20.9373C20.7778 20.4685 20.9761 20.0175 21.3312 19.6847L32.8931 8.85109C33.2433 8.52358 33.5214 8.13352 33.7114 7.70348C33.9014 7.27345 33.9995 6.81199 34 6.3458V1.77187C33.999 1.53798 33.9493 1.30657 33.8538 1.09088C33.7583 0.8752 33.6189 0.679479 33.4434 0.514924C33.268 0.350369 33.06 0.220211 32.8314 0.131901C32.6027 0.0435911 32.358 -0.00113708 32.1111 0.000276635H1.88889C0.844333 0.000276635 0 0.791231 0 1.77187V6.3458C0 7.28529 0.398555 8.18719 1.10689 8.85109L12.6688 19.6847C12.844 19.8484 12.9831 20.0434 13.0781 20.2584C13.1731 20.4734 13.2221 20.7042 13.2222 20.9373V32.229C13.2222 33.5442 14.6993 34.3996 15.9554 33.8109L19.7332 32.0411Z" fill="#003A69"/>
</svg>
