<svg width="81" height="14" viewBox="0 0 81 14" fill="none" xmlns="http://www.w3.org/2000/svg">
<path d="M8.51386 2.564C9.11386 2.564 9.62186 2.636 10.0379 2.78C10.4619 2.924 10.7979 3.164 11.0459 3.5C11.3019 3.828 11.4859 4.268 11.5979 4.82C11.7179 5.372 11.7779 6.052 11.7779 6.86C11.7779 7.668 11.7179 8.348 11.5979 8.9C11.4859 9.452 11.3019 9.896 11.0459 10.232C10.7979 10.56 10.4619 10.796 10.0379 10.94C9.62186 11.084 9.11386 11.156 8.51386 11.156C7.91386 11.156 7.40186 11.084 6.97786 10.94C6.56186 10.796 6.22586 10.56 5.96986 10.232C5.71386 9.896 5.52586 9.452 5.40586 8.9C5.29386 8.348 5.23786 7.668 5.23786 6.86C5.23786 6.052 5.29386 5.372 5.40586 4.82C5.52586 4.268 5.71386 3.828 5.96986 3.5C6.22586 3.164 6.56186 2.924 6.97786 2.78C7.40186 2.636 7.91386 2.564 8.51386 2.564ZM8.51386 3.512C7.96986 3.512 7.53786 3.616 7.21786 3.824C6.90586 4.032 6.68186 4.38 6.54586 4.868C6.41786 5.348 6.35386 6.012 6.35386 6.86C6.35386 7.7 6.41786 8.364 6.54586 8.852C6.68186 9.34 6.90586 9.688 7.21786 9.896C7.53786 10.104 7.96986 10.208 8.51386 10.208C9.05786 10.208 9.48586 10.104 9.79786 9.896C10.1179 9.688 10.3419 9.34 10.4699 8.852C10.6059 8.364 10.6739 7.7 10.6739 6.86C10.6739 6.012 10.6059 5.348 10.4699 4.868C10.3419 4.38 10.1179 4.032 9.79786 3.824C9.48586 3.616 9.05786 3.512 8.51386 3.512ZM17.0095 5.012C18.0655 5.012 18.5935 5.548 18.5935 6.62V11H17.5735V6.908C17.5735 6.516 17.5095 6.248 17.3815 6.104C17.2535 5.952 17.0375 5.876 16.7335 5.876C16.3735 5.876 16.0135 5.964 15.6535 6.14C15.2935 6.316 14.8655 6.556 14.3695 6.86L14.3215 6.128C14.7775 5.776 15.2295 5.504 15.6775 5.312C16.1255 5.112 16.5695 5.012 17.0095 5.012ZM14.3215 5.156L14.4055 6.272L14.4775 6.452V11H13.4575V5.156H14.3215Z" fill="#BABABA"/>
<path d="M42 12C43.3261 12 44.5979 11.4732 45.5355 10.5355C46.4732 9.59785 47 8.32608 47 7C47 5.67392 46.4732 4.40215 45.5355 3.46447C44.5979 2.52678 43.3261 2 42 2L34 2C32.6739 2 31.4021 2.52678 30.4645 3.46447C29.5268 4.40215 29 5.67392 29 7C29 8.32608 29.5268 9.59785 30.4645 10.5355C31.4021 11.4732 32.6739 12 34 12L42 12ZM42 14H34C33.0807 14 32.1705 13.8189 31.3212 13.4672C30.4719 13.1154 29.7003 12.5998 29.0503 11.9497C28.4002 11.2997 27.8846 10.5281 27.5328 9.67878C27.1811 8.82951 27 7.91925 27 7C27 6.08075 27.1811 5.1705 27.5328 4.32122C27.8846 3.47194 28.4002 2.70026 29.0503 2.05025C29.7003 1.40024 30.4719 0.884625 31.3212 0.532843C32.1705 0.18106 33.0807 0 34 0L42 0C42.9193 0 43.8295 0.18106 44.6788 0.532843C45.5281 0.884625 46.2997 1.40024 46.9497 2.05025C47.5998 2.70026 48.1154 3.47194 48.4672 4.32122C48.8189 5.1705 49 6.08075 49 7C49 7.91925 48.8189 8.82951 48.4672 9.67878C48.1154 10.5281 47.5998 11.2997 46.9497 11.9497C46.2997 12.5998 45.5281 13.1154 44.6788 13.4672C43.8295 13.8189 42.9193 14 42 14ZM42 4C42.7956 4 43.5587 4.31607 44.1213 4.87868C44.6839 5.44129 45 6.20435 45 7C45 7.79565 44.6839 8.55871 44.1213 9.12132C43.5587 9.68393 42.7956 10 42 10C41.2044 10 40.4413 9.68393 39.8787 9.12132C39.3161 8.55871 39 7.79565 39 7C39 6.20435 39.3161 5.44129 39.8787 4.87868C40.4413 4.31607 41.2044 4 42 4Z" fill="#003A69"/>
<path d="M57.5314 2.564C58.1314 2.564 58.6394 2.636 59.0554 2.78C59.4794 2.924 59.8154 3.164 60.0634 3.5C60.3194 3.828 60.5034 4.268 60.6154 4.82C60.7354 5.372 60.7954 6.052 60.7954 6.86C60.7954 7.668 60.7354 8.348 60.6154 8.9C60.5034 9.452 60.3194 9.896 60.0634 10.232C59.8154 10.56 59.4794 10.796 59.0554 10.94C58.6394 11.084 58.1314 11.156 57.5314 11.156C56.9314 11.156 56.4194 11.084 55.9954 10.94C55.5794 10.796 55.2434 10.56 54.9874 10.232C54.7314 9.896 54.5434 9.452 54.4234 8.9C54.3114 8.348 54.2554 7.668 54.2554 6.86C54.2554 6.052 54.3114 5.372 54.4234 4.82C54.5434 4.268 54.7314 3.828 54.9874 3.5C55.2434 3.164 55.5794 2.924 55.9954 2.78C56.4194 2.636 56.9314 2.564 57.5314 2.564ZM57.5314 3.512C56.9874 3.512 56.5554 3.616 56.2354 3.824C55.9234 4.032 55.6994 4.38 55.5634 4.868C55.4354 5.348 55.3714 6.012 55.3714 6.86C55.3714 7.7 55.4354 8.364 55.5634 8.852C55.6994 9.34 55.9234 9.688 56.2354 9.896C56.5554 10.104 56.9874 10.208 57.5314 10.208C58.0754 10.208 58.5034 10.104 58.8154 9.896C59.1354 9.688 59.3594 9.34 59.4874 8.852C59.6234 8.364 59.6914 7.7 59.6914 6.86C59.6914 6.012 59.6234 5.348 59.4874 4.868C59.3594 4.38 59.1354 4.032 58.8154 3.824C58.5034 3.616 58.0754 3.512 57.5314 3.512ZM64.1551 2.708C64.5391 2.708 64.9271 2.712 65.3191 2.72C65.7111 2.72 66.0991 2.724 66.4831 2.732C66.8671 2.74 67.2351 2.76 67.5871 2.792L67.5271 3.608H64.4191C64.1391 3.608 63.9351 3.672 63.8071 3.8C63.6791 3.92 63.6151 4.12 63.6151 4.4V11H62.5591V4.196C62.5591 3.724 62.7031 3.36 62.9911 3.104C63.2791 2.84 63.6671 2.708 64.1551 2.708ZM62.7631 6.32H67.0711V7.172H62.7631V6.32ZM70.6238 2.708C71.0078 2.708 71.3958 2.712 71.7878 2.72C72.1798 2.72 72.5678 2.724 72.9518 2.732C73.3358 2.74 73.7038 2.76 74.0558 2.792L73.9958 3.608H70.8878C70.6078 3.608 70.4038 3.672 70.2758 3.8C70.1478 3.92 70.0838 4.12 70.0838 4.4V11H69.0278V4.196C69.0278 3.724 69.1718 3.36 69.4598 3.104C69.7478 2.84 70.1358 2.708 70.6238 2.708ZM69.2318 6.32H73.5398V7.172H69.2318V6.32Z" fill="#003A69"/>
</svg>
