<svg width="36" height="36" viewBox="0 0 36 36" fill="none" xmlns="http://www.w3.org/2000/svg">
<path d="M17.7301 35C8.3301 35 0.730103 27.4 0.730103 18C0.730103 8.6 8.3301 1 17.7301 1C27.1301 1 34.7301 8.6 34.7301 18C34.7301 27.4 27.1301 35 17.7301 35ZM17.7301 3C9.4301 3 2.7301 9.7 2.7301 18C2.7301 26.3 9.4301 33 17.7301 33C26.0301 33 32.7301 26.3 32.7301 18C32.7301 9.7 26.0301 3 17.7301 3Z" fill="#003A69" stroke="#003A69"/>
<path d="M12.5302 12.6001C12.8302 11.8001 13.1302 11.2001 13.7302 10.7001C14.2302 10.2001 14.8302 9.8001 15.6302 9.5001C16.4302 9.2001 17.2302 9.1001 18.1302 9.1001C18.8302 9.1001 19.5302 9.2001 20.1302 9.4001C20.7302 9.6001 21.3302 9.9001 21.8302 10.3001C22.3302 10.7001 22.7303 11.2001 22.9303 11.8001C23.2303 12.4001 23.3302 13.1001 23.3302 13.8001C23.3302 14.8001 23.1302 15.6001 22.7302 16.3001C22.3302 17.0001 21.7302 17.6001 21.1302 18.3001L19.8302 19.6001C19.5302 19.9001 19.2302 20.2001 19.1302 20.5001C18.9302 20.8001 18.8302 21.2001 18.8302 21.6001C18.7302 22.0001 18.7302 22.3001 18.7302 23.1001H17.1302C17.1302 22.3001 17.1302 22.0001 17.2302 21.4001C17.3302 20.9001 17.5302 20.4001 17.7302 19.9001C17.9302 19.5001 18.2302 19.1001 18.6302 18.7001C19.0302 18.3001 19.5302 17.9001 20.0302 17.3001C20.5302 16.8001 20.9302 16.3001 21.2302 15.8001C21.6802 15.0501 21.7302 14.6001 21.7302 14.0001C21.7302 13.5001 21.6302 13.0001 21.4303 12.6001C21.2303 12.2001 20.9302 11.8001 20.6302 11.5001C20.3302 11.2001 19.9303 11.0001 19.4303 10.8001C18.9303 10.6001 18.5302 10.5001 18.0302 10.5001C17.3302 10.5001 16.7302 10.6001 16.2302 10.9001C15.7302 11.1001 15.2303 11.5001 14.9303 11.9001C14.6303 12.3001 14.3302 12.8001 14.1302 13.4001C13.9302 14.0001 13.7302 14.3001 13.7302 15.0001H12.1302C12.1302 14.1001 12.2302 13.4001 12.5302 12.6001ZM18.7302 25.0001V27.0001H16.7302V25.0001H18.7302Z" fill="#003A69" stroke="#003A69"/>
</svg>
