<svg width="34" height="34" viewBox="0 0 34 34" fill="none" xmlns="http://www.w3.org/2000/svg">
<path d="M32.1111 0H1.88889C1.38792 0 0.907478 0.188535 0.553243 0.524129C0.199008 0.859723 0 1.31489 0 1.78949V6.42426C0 7.36016 0.402334 8.27996 1.10122 8.94207L11.3333 18.6357V32.2108C11.3337 32.5157 11.4162 32.8154 11.573 33.0816C11.7299 33.3479 11.9558 33.5718 12.2295 33.7321C12.5032 33.8925 12.8156 33.9841 13.137 33.9981C13.4585 34.0121 13.7784 33.9482 14.0666 33.8124L21.6221 30.2334C22.2624 29.9292 22.6667 29.31 22.6667 28.6318V18.6357L32.8988 8.94207C33.5977 8.27996 34 7.36016 34 6.42426V1.78949C34 1.31489 33.801 0.859723 33.4468 0.524129C33.0925 0.188535 32.6121 0 32.1111 0ZM19.4423 16.6297C19.2666 16.7956 19.1272 16.9928 19.0322 17.2099C18.9372 17.4271 18.8885 17.6598 18.8889 17.8949V27.5259L15.1111 29.3154V17.8949C15.1115 17.6598 15.0628 17.4271 14.9678 17.2099C14.8728 16.9928 14.7334 16.7956 14.5577 16.6297L3.77778 6.42426V3.57898H30.2241L30.2279 6.41174L19.4423 16.6297Z" fill="#003A69"/>
</svg>
