<svg width="1920" height="1080" viewBox="0 0 1920 1080" fill="none" xmlns="http://www.w3.org/2000/svg">
<g clip-path="url(#clip0_3074_7742)">
<rect width="1920" height="1080" fill="#F5F5F5"/>
<mask id="path-1-inside-1_3074_7742" fill="white">
<path d="M24 1038H1896V1065H24V1038Z"/>
</mask>
<path d="M24 1039H1896V1037H24V1039Z" fill="#99B0C3" mask="url(#path-1-inside-1_3074_7742)"/>
<g clip-path="url(#clip1_3074_7742)">
<path d="M352.463 132.074V140.354H351.407V132.074H352.463ZM355.139 132.074V133.01H348.743V132.074H355.139ZM357.488 134.366C358.16 134.366 358.696 134.466 359.096 134.666C359.504 134.866 359.796 135.194 359.972 135.65C360.148 136.098 360.236 136.694 360.236 137.438C360.236 138.182 360.148 138.782 359.972 139.238C359.796 139.686 359.504 140.01 359.096 140.21C358.696 140.41 358.16 140.51 357.488 140.51C356.824 140.51 356.288 140.41 355.88 140.21C355.48 140.01 355.188 139.686 355.004 139.238C354.828 138.782 354.74 138.182 354.74 137.438C354.74 136.694 354.828 136.098 355.004 135.65C355.188 135.194 355.48 134.866 355.88 134.666C356.288 134.466 356.824 134.366 357.488 134.366ZM357.488 135.23C357.064 135.23 356.728 135.298 356.48 135.434C356.24 135.562 356.068 135.786 355.964 136.106C355.86 136.426 355.808 136.87 355.808 137.438C355.808 138.006 355.86 138.45 355.964 138.77C356.068 139.09 356.24 139.318 356.48 139.454C356.728 139.582 357.064 139.646 357.488 139.646C357.912 139.646 358.248 139.582 358.496 139.454C358.744 139.318 358.92 139.09 359.024 138.77C359.128 138.45 359.18 138.006 359.18 137.438C359.18 136.87 359.128 136.426 359.024 136.106C358.92 135.786 358.744 135.562 358.496 135.434C358.248 135.298 357.912 135.23 357.488 135.23ZM364.308 134.366C364.98 134.366 365.516 134.466 365.916 134.666C366.324 134.866 366.616 135.194 366.792 135.65C366.968 136.098 367.056 136.694 367.056 137.438C367.056 138.182 366.968 138.782 366.792 139.238C366.616 139.686 366.324 140.01 365.916 140.21C365.516 140.41 364.98 140.51 364.308 140.51C363.644 140.51 363.108 140.41 362.7 140.21C362.3 140.01 362.008 139.686 361.824 139.238C361.648 138.782 361.56 138.182 361.56 137.438C361.56 136.694 361.648 136.098 361.824 135.65C362.008 135.194 362.3 134.866 362.7 134.666C363.108 134.466 363.644 134.366 364.308 134.366ZM364.308 135.23C363.884 135.23 363.548 135.298 363.3 135.434C363.06 135.562 362.888 135.786 362.784 136.106C362.68 136.426 362.628 136.87 362.628 137.438C362.628 138.006 362.68 138.45 362.784 138.77C362.888 139.09 363.06 139.318 363.3 139.454C363.548 139.582 363.884 139.646 364.308 139.646C364.732 139.646 365.068 139.582 365.316 139.454C365.564 139.318 365.74 139.09 365.844 138.77C365.948 138.45 366 138.006 366 137.438C366 136.87 365.948 136.426 365.844 136.106C365.74 135.786 365.564 135.562 365.316 135.434C365.068 135.298 364.732 135.23 364.308 135.23ZM369.689 131.954L369.677 138.746C369.677 139.002 369.745 139.198 369.881 139.334C370.025 139.462 370.225 139.526 370.481 139.526H371.045L371.165 140.306C371.093 140.338 370.989 140.366 370.853 140.39C370.725 140.414 370.589 140.43 370.445 140.438C370.309 140.454 370.193 140.462 370.097 140.462C369.665 140.462 369.317 140.334 369.053 140.078C368.797 139.822 368.669 139.454 368.669 138.974V131.954H369.689ZM373.601 132.782V138.746C373.601 139.026 373.661 139.226 373.781 139.346C373.901 139.466 374.105 139.526 374.393 139.526H375.281L375.401 140.306C375.273 140.338 375.125 140.366 374.957 140.39C374.789 140.414 374.625 140.43 374.465 140.438C374.305 140.454 374.177 140.462 374.081 140.462C373.593 140.462 373.221 140.326 372.965 140.054C372.709 139.782 372.581 139.39 372.581 138.878V132.782H373.601ZM375.461 134.51V135.314H371.525V134.57L372.677 134.51H375.461ZM377.763 134.51V140.354H376.755V134.51H377.763ZM377.499 132.026C377.707 132.026 377.811 132.13 377.811 132.338V133.022C377.811 133.23 377.707 133.334 377.499 133.334H377.019C376.811 133.334 376.707 133.23 376.707 133.022V132.338C376.707 132.13 376.811 132.026 377.019 132.026H377.499ZM383.032 134.366C383.744 134.366 384.256 134.63 384.568 135.158C384.88 135.678 385.036 136.446 385.036 137.462C385.036 138.214 384.956 138.814 384.796 139.262C384.636 139.702 384.392 140.018 384.064 140.21C383.744 140.402 383.332 140.498 382.828 140.498C382.444 140.498 382.064 140.446 381.688 140.342C381.32 140.238 380.96 140.078 380.608 139.862L380.668 139.25C381.044 139.354 381.376 139.442 381.664 139.514C381.952 139.578 382.256 139.61 382.576 139.61C382.92 139.61 383.192 139.55 383.392 139.43C383.6 139.31 383.752 139.094 383.848 138.782C383.944 138.47 383.992 138.03 383.992 137.462C383.992 136.91 383.948 136.474 383.86 136.154C383.772 135.834 383.632 135.606 383.44 135.47C383.256 135.326 383.008 135.254 382.696 135.254C382.376 135.254 382.06 135.33 381.748 135.482C381.436 135.634 381.072 135.866 380.656 136.178L380.56 135.494C380.776 135.262 381.02 135.062 381.292 134.894C381.564 134.726 381.848 134.598 382.144 134.51C382.448 134.414 382.744 134.366 383.032 134.366ZM380.524 134.51L380.632 135.722L380.704 135.878V139.622L380.656 139.766C380.68 139.99 380.692 140.206 380.692 140.414C380.7 140.622 380.704 140.842 380.704 141.074V142.766H379.684V134.51H380.524ZM387.257 135.074C387.401 135.074 387.501 135.102 387.557 135.158C387.613 135.214 387.641 135.314 387.641 135.458V136.106C387.641 136.25 387.613 136.35 387.557 136.406C387.501 136.462 387.401 136.49 387.257 136.49H386.921C386.785 136.49 386.685 136.462 386.621 136.406C386.565 136.35 386.537 136.25 386.537 136.106V135.458C386.537 135.314 386.565 135.214 386.621 135.158C386.685 135.102 386.785 135.074 386.921 135.074H387.257ZM387.257 138.938C387.401 138.938 387.501 138.966 387.557 139.022C387.613 139.078 387.641 139.178 387.641 139.322V139.97C387.641 140.114 387.613 140.214 387.557 140.27C387.501 140.326 387.401 140.354 387.257 140.354H386.921C386.785 140.354 386.685 140.326 386.621 140.27C386.565 140.214 386.537 140.114 386.537 139.97V139.322C386.537 139.178 386.565 139.078 386.621 139.022C386.685 138.966 386.785 138.938 386.921 138.938H387.257Z" fill="black"/>
<path d="M31.664 94.736C32.144 94.736 32.5813 94.752 32.976 94.784C33.3707 94.816 33.744 94.8587 34.096 94.912C34.4587 94.9653 34.8107 95.0453 35.152 95.152L34.96 96.928C34.5867 96.9067 34.224 96.8907 33.872 96.88C33.52 96.8693 33.168 96.864 32.816 96.864C32.464 96.8533 32.096 96.848 31.712 96.848C31.2533 96.848 30.8693 96.896 30.56 96.992C30.2613 97.088 30.0213 97.2693 29.84 97.536C29.6587 97.792 29.5253 98.1653 29.44 98.656C29.3653 99.136 29.328 99.7547 29.328 100.512C29.328 101.429 29.3867 102.149 29.504 102.672C29.6213 103.195 29.8187 103.568 30.096 103.792C30.3733 104.005 30.7467 104.112 31.216 104.112C31.536 104.112 31.8293 104.08 32.096 104.016C32.3627 103.952 32.608 103.867 32.832 103.76C33.056 103.643 33.264 103.531 33.456 103.424L33.712 104.576C33.552 104.8 33.312 105.04 32.992 105.296C32.6827 105.552 32.304 105.771 31.856 105.952C31.408 106.133 30.896 106.224 30.32 106.224C29.488 106.224 28.8053 106.027 28.272 105.632C27.7493 105.237 27.3653 104.619 27.12 103.776C26.8747 102.923 26.752 101.819 26.752 100.464C26.752 99.024 26.9067 97.888 27.216 97.056C27.536 96.224 28.0533 95.632 28.768 95.28C29.4933 94.9173 30.4587 94.736 31.664 94.736ZM35.536 99.632V106H33.728L33.392 104.32L33.168 103.872V99.632H35.536ZM39.191 98.096L39.479 99.664L39.703 99.872V106H37.335V98.096H39.191ZM43.047 97.888L42.823 100.08H42.167C41.7937 100.08 41.4043 100.133 40.999 100.24C40.5937 100.347 40.0817 100.507 39.463 100.72L39.303 99.392C39.8577 98.9013 40.4177 98.528 40.983 98.272C41.5483 98.016 42.0977 97.888 42.631 97.888H43.047ZM47.7981 97.888C48.7901 97.888 49.5848 98.0267 50.1821 98.304C50.7795 98.5707 51.2061 99.008 51.4621 99.616C51.7288 100.224 51.8621 101.04 51.8621 102.064C51.8621 103.067 51.7288 103.872 51.4621 104.48C51.2061 105.088 50.7795 105.525 50.1821 105.792C49.5848 106.059 48.7901 106.192 47.7981 106.192C46.8168 106.192 46.0221 106.059 45.4141 105.792C44.8168 105.525 44.3848 105.088 44.1181 104.48C43.8515 103.872 43.7181 103.067 43.7181 102.064C43.7181 101.04 43.8515 100.224 44.1181 99.616C44.3848 99.008 44.8168 98.5707 45.4141 98.304C46.0221 98.0267 46.8168 97.888 47.7981 97.888ZM47.7981 99.616C47.3928 99.616 47.0728 99.6853 46.8381 99.824C46.6035 99.9627 46.4381 100.208 46.3421 100.56C46.2461 100.912 46.1981 101.413 46.1981 102.064C46.1981 102.704 46.2461 103.2 46.3421 103.552C46.4381 103.904 46.6035 104.149 46.8381 104.288C47.0728 104.416 47.3928 104.48 47.7981 104.48C48.2035 104.48 48.5235 104.416 48.7581 104.288C48.9928 104.149 49.1581 103.904 49.2541 103.552C49.3501 103.2 49.3981 102.704 49.3981 102.064C49.3981 101.413 49.3501 100.912 49.2541 100.56C49.1581 100.208 48.9928 99.9627 48.7581 99.824C48.5235 99.6853 48.2035 99.616 47.7981 99.616ZM56.4836 97.888C56.8676 97.888 57.2836 97.904 57.7316 97.936C58.1796 97.9573 58.617 97.9893 59.0436 98.032C59.4703 98.0747 59.849 98.128 60.1796 98.192L60.0196 99.664C59.5076 99.6533 58.9903 99.648 58.4676 99.648C57.9556 99.6373 57.4543 99.632 56.9636 99.632C56.5476 99.6213 56.2276 99.6267 56.0036 99.648C55.7796 99.6693 55.6196 99.7227 55.5236 99.808C55.4383 99.8827 55.3956 100.021 55.3956 100.224C55.3956 100.459 55.4756 100.619 55.6356 100.704C55.7956 100.779 56.0623 100.864 56.4356 100.96L58.4996 101.456C59.161 101.627 59.6516 101.883 59.9716 102.224C60.2916 102.555 60.4516 103.056 60.4516 103.728C60.4516 104.389 60.329 104.896 60.0836 105.248C59.8383 105.6 59.449 105.845 58.9156 105.984C58.3823 106.112 57.6943 106.176 56.8516 106.176C56.521 106.176 56.0303 106.16 55.3796 106.128C54.729 106.096 54.0143 106.016 53.2356 105.888L53.3956 104.416C53.5876 104.427 53.833 104.437 54.1316 104.448C54.4303 104.448 54.7556 104.448 55.1076 104.448C55.4596 104.448 55.8116 104.448 56.1636 104.448C56.7076 104.448 57.1236 104.437 57.4116 104.416C57.6996 104.384 57.897 104.32 58.0036 104.224C58.1103 104.128 58.1636 103.984 58.1636 103.792C58.1636 103.557 58.073 103.397 57.8916 103.312C57.7103 103.227 57.4223 103.136 57.0276 103.04L55.0276 102.544C54.5263 102.405 54.137 102.229 53.8596 102.016C53.5823 101.803 53.385 101.541 53.2676 101.232C53.161 100.923 53.1076 100.555 53.1076 100.128C53.1076 99.584 53.2143 99.152 53.4276 98.832C53.6516 98.5013 54.009 98.2613 54.4996 98.112C55.001 97.9627 55.6623 97.888 56.4836 97.888ZM64.9836 97.888C65.3676 97.888 65.7836 97.904 66.2316 97.936C66.6796 97.9573 67.117 97.9893 67.5436 98.032C67.9703 98.0747 68.349 98.128 68.6796 98.192L68.5196 99.664C68.0076 99.6533 67.4903 99.648 66.9676 99.648C66.4556 99.6373 65.9543 99.632 65.4636 99.632C65.0476 99.6213 64.7276 99.6267 64.5036 99.648C64.2796 99.6693 64.1196 99.7227 64.0236 99.808C63.9383 99.8827 63.8956 100.021 63.8956 100.224C63.8956 100.459 63.9756 100.619 64.1356 100.704C64.2956 100.779 64.5623 100.864 64.9356 100.96L66.9996 101.456C67.661 101.627 68.1516 101.883 68.4716 102.224C68.7916 102.555 68.9516 103.056 68.9516 103.728C68.9516 104.389 68.829 104.896 68.5836 105.248C68.3383 105.6 67.949 105.845 67.4156 105.984C66.8823 106.112 66.1943 106.176 65.3516 106.176C65.021 106.176 64.5303 106.16 63.8796 106.128C63.229 106.096 62.5143 106.016 61.7356 105.888L61.8956 104.416C62.0876 104.427 62.333 104.437 62.6316 104.448C62.9303 104.448 63.2556 104.448 63.6076 104.448C63.9596 104.448 64.3116 104.448 64.6636 104.448C65.2076 104.448 65.6236 104.437 65.9116 104.416C66.1996 104.384 66.397 104.32 66.5036 104.224C66.6103 104.128 66.6636 103.984 66.6636 103.792C66.6636 103.557 66.573 103.397 66.3916 103.312C66.2103 103.227 65.9223 103.136 65.5276 103.04L63.5276 102.544C63.0263 102.405 62.637 102.229 62.3596 102.016C62.0823 101.803 61.885 101.541 61.7676 101.232C61.661 100.923 61.6076 100.555 61.6076 100.128C61.6076 99.584 61.7143 99.152 61.9276 98.832C62.1516 98.5013 62.509 98.2613 62.9996 98.112C63.501 97.9627 64.1623 97.888 64.9836 97.888ZM79.1288 97.904C80.1208 97.904 80.8301 98.2667 81.2568 98.992C81.6834 99.7173 81.8968 100.757 81.8968 102.112C81.8968 103.168 81.7848 103.995 81.5608 104.592C81.3474 105.189 81.0168 105.611 80.5688 105.856C80.1314 106.091 79.5821 106.208 78.9208 106.208C78.3554 106.208 77.8168 106.128 77.3048 105.968C76.7928 105.808 76.3394 105.541 75.9448 105.168L76.1048 104.112C76.4568 104.219 76.7768 104.315 77.0648 104.4C77.3634 104.475 77.6994 104.512 78.0728 104.512C78.4141 104.512 78.6861 104.453 78.8888 104.336C79.0914 104.219 79.2354 103.989 79.3208 103.648C79.4168 103.296 79.4648 102.789 79.4648 102.128C79.4648 101.477 79.4221 100.981 79.3368 100.64C79.2514 100.288 79.1128 100.048 78.9208 99.92C78.7288 99.7813 78.4781 99.712 78.1688 99.712C77.8274 99.712 77.5128 99.7813 77.2248 99.92C76.9368 100.048 76.6114 100.235 76.2488 100.48L75.9448 99.392C76.1581 99.104 76.4301 98.848 76.7608 98.624C77.1021 98.4 77.4754 98.224 77.8808 98.096C78.2861 97.968 78.7021 97.904 79.1288 97.904ZM75.8488 98.096L76.0728 99.536L76.2968 99.776V104.912L76.2168 105.104C76.2488 105.424 76.2701 105.755 76.2808 106.096C76.3021 106.448 76.3074 106.795 76.2968 107.136V109.04H73.9288V98.096H75.8488ZM85.3785 98.096L85.6665 99.664L85.8905 99.872V106H83.5225V98.096H85.3785ZM89.2345 97.888L89.0105 100.08H88.3545C87.9812 100.08 87.5918 100.133 87.1865 100.24C86.7812 100.347 86.2692 100.507 85.6505 100.72L85.4905 99.392C86.0452 98.9013 86.6052 98.528 87.1705 98.272C87.7358 98.016 88.2852 97.888 88.8185 97.888H89.2345ZM93.9856 97.888C94.9776 97.888 95.7723 98.0267 96.3696 98.304C96.967 98.5707 97.3936 99.008 97.6496 99.616C97.9163 100.224 98.0496 101.04 98.0496 102.064C98.0496 103.067 97.9163 103.872 97.6496 104.48C97.3936 105.088 96.967 105.525 96.3696 105.792C95.7723 106.059 94.9776 106.192 93.9856 106.192C93.0043 106.192 92.2096 106.059 91.6016 105.792C91.0043 105.525 90.5723 105.088 90.3056 104.48C90.039 103.872 89.9056 103.067 89.9056 102.064C89.9056 101.04 90.039 100.224 90.3056 99.616C90.5723 99.008 91.0043 98.5707 91.6016 98.304C92.2096 98.0267 93.0043 97.888 93.9856 97.888ZM93.9856 99.616C93.5803 99.616 93.2603 99.6853 93.0256 99.824C92.791 99.9627 92.6256 100.208 92.5296 100.56C92.4336 100.912 92.3856 101.413 92.3856 102.064C92.3856 102.704 92.4336 103.2 92.5296 103.552C92.6256 103.904 92.791 104.149 93.0256 104.288C93.2603 104.416 93.5803 104.48 93.9856 104.48C94.391 104.48 94.711 104.416 94.9456 104.288C95.1803 104.149 95.3456 103.904 95.4416 103.552C95.5376 103.2 95.5856 102.704 95.5856 102.064C95.5856 101.413 95.5376 100.912 95.4416 100.56C95.3456 100.208 95.1803 99.9627 94.9456 99.824C94.711 99.6853 94.391 99.616 93.9856 99.616ZM102.912 94.464C103.179 94.464 103.52 94.48 103.936 94.512C104.352 94.5333 104.72 94.576 105.04 94.64V96.16H103.76C103.355 96.16 103.072 96.2453 102.912 96.416C102.763 96.5867 102.688 96.8853 102.688 97.312V106H100.304V97.008C100.304 96.496 100.39 96.048 100.56 95.664C100.731 95.28 101.003 94.9867 101.376 94.784C101.76 94.5707 102.272 94.464 102.912 94.464ZM106.016 98.096V99.648H98.9443V98.176L100.352 98.096H106.016ZM108.288 98.096V106H105.936V98.096H108.288ZM107.616 94.528C108.086 94.528 108.32 94.7627 108.32 95.232V96.096C108.32 96.576 108.086 96.816 107.616 96.816H106.608C106.139 96.816 105.904 96.576 105.904 96.096V95.232C105.904 94.7627 106.139 94.528 106.608 94.528H107.616ZM113.376 95.904V103.472C113.376 103.76 113.44 103.968 113.568 104.096C113.707 104.213 113.931 104.272 114.24 104.272H115.264L115.52 105.872C115.328 105.936 115.093 105.989 114.816 106.032C114.539 106.085 114.261 106.123 113.984 106.144C113.707 106.176 113.472 106.192 113.28 106.192C112.565 106.192 112.005 106 111.6 105.616C111.205 105.232 111.008 104.693 111.008 104L110.992 95.904H113.376ZM115.584 98.096V99.648H109.616V98.176L111.152 98.096H115.584ZM123.984 97.888C124.272 97.888 124.586 97.904 124.928 97.936C125.269 97.9573 125.61 98.0053 125.952 98.08C126.304 98.144 126.624 98.24 126.912 98.368L126.656 99.856C126.229 99.8453 125.818 99.8347 125.424 99.824C125.04 99.8133 124.693 99.808 124.384 99.808C123.904 99.808 123.525 99.872 123.248 100C122.97 100.128 122.768 100.357 122.64 100.688C122.522 101.008 122.464 101.456 122.464 102.032C122.464 102.619 122.522 103.077 122.64 103.408C122.768 103.739 122.97 103.968 123.248 104.096C123.525 104.224 123.904 104.288 124.384 104.288C124.554 104.288 124.773 104.283 125.04 104.272C125.306 104.261 125.594 104.251 125.904 104.24C126.213 104.219 126.517 104.187 126.816 104.144L127.04 105.648C126.613 105.84 126.128 105.979 125.584 106.064C125.04 106.149 124.501 106.192 123.968 106.192C122.986 106.192 122.202 106.059 121.616 105.792C121.04 105.515 120.624 105.072 120.368 104.464C120.112 103.856 119.984 103.045 119.984 102.032C119.984 101.019 120.112 100.208 120.368 99.6C120.634 98.992 121.061 98.5547 121.648 98.288C122.234 98.0213 123.013 97.888 123.984 97.888ZM132.111 97.888C133.103 97.888 133.897 98.0267 134.495 98.304C135.092 98.5707 135.519 99.008 135.775 99.616C136.041 100.224 136.175 101.04 136.175 102.064C136.175 103.067 136.041 103.872 135.775 104.48C135.519 105.088 135.092 105.525 134.495 105.792C133.897 106.059 133.103 106.192 132.111 106.192C131.129 106.192 130.335 106.059 129.727 105.792C129.129 105.525 128.697 105.088 128.431 104.48C128.164 103.872 128.031 103.067 128.031 102.064C128.031 101.04 128.164 100.224 128.431 99.616C128.697 99.008 129.129 98.5707 129.727 98.304C130.335 98.0267 131.129 97.888 132.111 97.888ZM132.111 99.616C131.705 99.616 131.385 99.6853 131.151 99.824C130.916 99.9627 130.751 100.208 130.655 100.56C130.559 100.912 130.511 101.413 130.511 102.064C130.511 102.704 130.559 103.2 130.655 103.552C130.751 103.904 130.916 104.149 131.151 104.288C131.385 104.416 131.705 104.48 132.111 104.48C132.516 104.48 132.836 104.416 133.071 104.288C133.305 104.149 133.471 103.904 133.567 103.552C133.663 103.2 133.711 102.704 133.711 102.064C133.711 101.413 133.663 100.912 133.567 100.56C133.471 100.208 133.305 99.9627 133.071 99.824C132.836 99.6853 132.516 99.616 132.111 99.616ZM143.292 97.888C144.785 97.888 145.532 98.6187 145.532 100.08V106H143.164V100.816C143.164 100.464 143.1 100.224 142.972 100.096C142.844 99.9573 142.625 99.888 142.316 99.888C141.975 99.888 141.623 99.9573 141.26 100.096C140.897 100.224 140.449 100.427 139.916 100.704L139.804 99.376C140.369 98.896 140.945 98.528 141.532 98.272C142.129 98.016 142.716 97.888 143.292 97.888ZM139.692 98.096L139.964 99.664L140.156 99.872V106H137.788V98.096H139.692ZM150.406 97.888C150.79 97.888 151.206 97.904 151.654 97.936C152.102 97.9573 152.539 97.9893 152.966 98.032C153.392 98.0747 153.771 98.128 154.102 98.192L153.942 99.664C153.43 99.6533 152.912 99.648 152.39 99.648C151.878 99.6373 151.376 99.632 150.886 99.632C150.47 99.6213 150.15 99.6267 149.926 99.648C149.702 99.6693 149.542 99.7227 149.446 99.808C149.36 99.8827 149.318 100.021 149.318 100.224C149.318 100.459 149.398 100.619 149.558 100.704C149.718 100.779 149.984 100.864 150.358 100.96L152.422 101.456C153.083 101.627 153.574 101.883 153.894 102.224C154.214 102.555 154.374 103.056 154.374 103.728C154.374 104.389 154.251 104.896 154.006 105.248C153.76 105.6 153.371 105.845 152.838 105.984C152.304 106.112 151.616 106.176 150.774 106.176C150.443 106.176 149.952 106.16 149.302 106.128C148.651 106.096 147.936 106.016 147.158 105.888L147.318 104.416C147.51 104.427 147.755 104.437 148.054 104.448C148.352 104.448 148.678 104.448 149.03 104.448C149.382 104.448 149.734 104.448 150.086 104.448C150.63 104.448 151.046 104.437 151.334 104.416C151.622 104.384 151.819 104.32 151.926 104.224C152.032 104.128 152.086 103.984 152.086 103.792C152.086 103.557 151.995 103.397 151.814 103.312C151.632 103.227 151.344 103.136 150.95 103.04L148.95 102.544C148.448 102.405 148.059 102.229 147.782 102.016C147.504 101.803 147.307 101.541 147.19 101.232C147.083 100.923 147.03 100.555 147.03 100.128C147.03 99.584 147.136 99.152 147.35 98.832C147.574 98.5013 147.931 98.2613 148.422 98.112C148.923 97.9627 149.584 97.888 150.406 97.888ZM158.314 98.096V106H155.962V98.096H158.314ZM157.658 94.608C158.127 94.608 158.362 94.848 158.362 95.328V96.176C158.362 96.656 158.127 96.896 157.658 96.896H156.634C156.164 96.896 155.93 96.656 155.93 96.176V95.328C155.93 94.848 156.164 94.608 156.634 94.608H157.658ZM163.023 97.888C163.578 97.888 164.111 97.968 164.623 98.128C165.146 98.288 165.605 98.5493 165.999 98.912L165.839 100C165.477 99.8933 165.151 99.7973 164.863 99.712C164.575 99.6267 164.239 99.584 163.855 99.584C163.525 99.584 163.258 99.6427 163.055 99.76C162.853 99.8773 162.703 100.107 162.607 100.448C162.511 100.789 162.463 101.296 162.463 101.968C162.463 102.597 162.506 103.077 162.591 103.408C162.687 103.728 162.831 103.952 163.023 104.08C163.226 104.197 163.482 104.256 163.791 104.256C164.069 104.256 164.309 104.229 164.511 104.176C164.714 104.112 164.917 104.021 165.119 103.904C165.322 103.776 165.551 103.621 165.807 103.44L165.983 104.608C165.663 105.056 165.247 105.435 164.735 105.744C164.223 106.043 163.594 106.192 162.847 106.192C161.834 106.192 161.109 105.829 160.671 105.104C160.245 104.379 160.031 103.339 160.031 101.984C160.031 100.928 160.138 100.107 160.351 99.52C160.575 98.9227 160.911 98.5013 161.359 98.256C161.807 98.0107 162.362 97.888 163.023 97.888ZM167.935 94.8V106H166.063L165.823 104.544L165.567 104.368V99.184L165.663 98.976C165.631 98.6453 165.605 98.3147 165.583 97.984C165.573 97.6427 165.567 97.296 165.567 96.944V94.8H167.935ZM173.61 97.888C174.944 97.888 175.898 98.1173 176.474 98.576C177.061 99.024 177.354 99.696 177.354 100.592C177.365 101.317 177.184 101.861 176.81 102.224C176.437 102.576 175.792 102.752 174.874 102.752H170.458V101.424H174.218C174.581 101.424 174.81 101.349 174.906 101.2C175.013 101.04 175.066 100.821 175.066 100.544C175.056 100.171 174.944 99.9147 174.73 99.776C174.528 99.6267 174.181 99.552 173.69 99.552C173.253 99.552 172.912 99.6107 172.666 99.728C172.421 99.8453 172.25 100.069 172.154 100.4C172.058 100.731 172.01 101.211 172.01 101.84C172.01 102.501 172.069 103.013 172.186 103.376C172.304 103.728 172.501 103.973 172.778 104.112C173.066 104.251 173.461 104.32 173.962 104.32C174.325 104.32 174.773 104.309 175.306 104.288C175.85 104.256 176.394 104.208 176.938 104.144L177.162 105.6C176.853 105.749 176.501 105.867 176.106 105.952C175.712 106.037 175.306 106.096 174.89 106.128C174.474 106.171 174.074 106.192 173.69 106.192C172.688 106.192 171.877 106.048 171.258 105.76C170.65 105.461 170.208 105.008 169.93 104.4C169.664 103.792 169.53 103.013 169.53 102.064C169.53 101.029 169.669 100.208 169.946 99.6C170.224 98.992 170.661 98.5547 171.258 98.288C171.856 98.0213 172.64 97.888 173.61 97.888ZM180.754 98.096L181.042 99.664L181.266 99.872V106H178.898V98.096H180.754ZM184.61 97.888L184.386 100.08H183.73C183.356 100.08 182.967 100.133 182.562 100.24C182.156 100.347 181.644 100.507 181.026 100.72L180.866 99.392C181.42 98.9013 181.98 98.528 182.546 98.272C183.111 98.016 183.66 97.888 184.194 97.888H184.61ZM188.142 98.096V106H185.79V98.096H188.142ZM187.486 94.608C187.955 94.608 188.19 94.848 188.19 95.328V96.176C188.19 96.656 187.955 96.896 187.486 96.896H186.462C185.992 96.896 185.758 96.656 185.758 96.176V95.328C185.758 94.848 185.992 94.608 186.462 94.608H187.486ZM195.652 97.888C197.145 97.888 197.892 98.6187 197.892 100.08V106H195.524V100.816C195.524 100.464 195.46 100.224 195.332 100.096C195.204 99.9573 194.985 99.888 194.676 99.888C194.334 99.888 193.982 99.9573 193.62 100.096C193.257 100.224 192.809 100.427 192.276 100.704L192.164 99.376C192.729 98.896 193.305 98.528 193.891 98.272C194.489 98.016 195.076 97.888 195.652 97.888ZM192.052 98.096L192.324 99.664L192.516 99.872V106H190.148V98.096H192.052ZM203.277 97.888C204.194 97.888 204.92 97.9733 205.453 98.144C205.997 98.3147 206.386 98.5813 206.621 98.944C206.866 99.3067 206.989 99.792 206.989 100.4C206.989 100.987 206.872 101.467 206.637 101.84C206.402 102.203 206.008 102.469 205.453 102.64C204.909 102.811 204.178 102.896 203.261 102.896C202.344 102.896 201.608 102.811 201.053 102.64C200.509 102.469 200.114 102.203 199.869 101.84C199.634 101.477 199.517 100.997 199.517 100.4C199.517 99.8027 199.634 99.3227 199.869 98.96C200.114 98.5867 200.514 98.3147 201.069 98.144C201.624 97.9733 202.36 97.888 203.277 97.888ZM203.261 99.344C202.674 99.344 202.269 99.424 202.045 99.584C201.821 99.7333 201.709 100.005 201.709 100.4C201.709 100.795 201.821 101.072 202.045 101.232C202.269 101.392 202.674 101.472 203.261 101.472C203.848 101.472 204.248 101.392 204.461 101.232C204.674 101.072 204.781 100.795 204.781 100.4C204.781 100.005 204.674 99.7333 204.461 99.584C204.248 99.424 203.848 99.344 203.261 99.344ZM207.901 98.096L207.773 99.104L205.661 99.376L205.085 98.096H207.901ZM200.877 102.416L202.061 102.624C201.912 102.709 201.805 102.843 201.741 103.024C201.688 103.205 201.704 103.376 201.789 103.536C201.874 103.696 202.061 103.792 202.349 103.824L205.261 104.16C206.093 104.245 206.68 104.48 207.021 104.864C207.362 105.237 207.533 105.787 207.533 106.512C207.533 107.195 207.394 107.717 207.117 108.08C206.84 108.453 206.397 108.709 205.789 108.848C205.181 108.987 204.37 109.056 203.357 109.056C202.525 109.056 201.837 109.013 201.293 108.928C200.76 108.853 200.333 108.725 200.013 108.544C199.704 108.363 199.485 108.123 199.357 107.824C199.24 107.536 199.181 107.173 199.181 106.736C199.181 106.405 199.24 106.123 199.357 105.888C199.474 105.643 199.672 105.424 199.949 105.232C200.237 105.04 200.637 104.864 201.149 104.704L202.317 104.288L203.165 104.624L202.525 105.04C202.258 105.232 202.04 105.397 201.869 105.536C201.709 105.664 201.592 105.792 201.517 105.92C201.453 106.048 201.421 106.219 201.421 106.432C201.421 106.677 201.474 106.864 201.581 106.992C201.688 107.131 201.88 107.221 202.157 107.264C202.445 107.317 202.834 107.344 203.325 107.344C203.837 107.344 204.237 107.317 204.525 107.264C204.813 107.221 205.01 107.136 205.117 107.008C205.234 106.88 205.293 106.699 205.293 106.464C205.293 106.261 205.25 106.112 205.165 106.016C205.09 105.92 204.957 105.851 204.765 105.808C204.584 105.755 204.328 105.707 203.997 105.664L201.517 105.392C201.101 105.349 200.776 105.237 200.541 105.056C200.306 104.875 200.141 104.656 200.045 104.4C199.96 104.133 199.938 103.867 199.981 103.6C200.024 103.333 200.12 103.093 200.269 102.88C200.429 102.667 200.632 102.512 200.877 102.416ZM216.267 97.888C217.259 97.888 218.054 98.0267 218.651 98.304C219.248 98.5707 219.675 99.008 219.931 99.616C220.198 100.224 220.331 101.04 220.331 102.064C220.331 103.067 220.198 103.872 219.931 104.48C219.675 105.088 219.248 105.525 218.651 105.792C218.054 106.059 217.259 106.192 216.267 106.192C215.286 106.192 214.491 106.059 213.883 105.792C213.286 105.525 212.854 105.088 212.587 104.48C212.32 103.872 212.187 103.067 212.187 102.064C212.187 101.04 212.32 100.224 212.587 99.616C212.854 99.008 213.286 98.5707 213.883 98.304C214.491 98.0267 215.286 97.888 216.267 97.888ZM216.267 99.616C215.862 99.616 215.542 99.6853 215.307 99.824C215.072 99.9627 214.907 100.208 214.811 100.56C214.715 100.912 214.667 101.413 214.667 102.064C214.667 102.704 214.715 103.2 214.811 103.552C214.907 103.904 215.072 104.149 215.307 104.288C215.542 104.416 215.862 104.48 216.267 104.48C216.672 104.48 216.992 104.416 217.227 104.288C217.462 104.149 217.627 103.904 217.723 103.552C217.819 103.2 217.867 102.704 217.867 102.064C217.867 101.413 217.819 100.912 217.723 100.56C217.627 100.208 217.462 99.9627 217.227 99.824C216.992 99.6853 216.672 99.616 216.267 99.616ZM227.448 97.888C228.942 97.888 229.688 98.6187 229.688 100.08V106H227.32V100.816C227.32 100.464 227.256 100.224 227.128 100.096C227 99.9573 226.782 99.888 226.472 99.888C226.131 99.888 225.779 99.9573 225.416 100.096C225.054 100.224 224.606 100.427 224.072 100.704L223.96 99.376C224.526 98.896 225.102 98.528 225.688 98.272C226.286 98.016 226.872 97.888 227.448 97.888ZM223.848 98.096L224.12 99.664L224.312 99.872V106H221.944V98.096H223.848ZM233.938 94.8L233.922 103.472C233.922 103.739 234.002 103.941 234.162 104.08C234.322 104.208 234.556 104.272 234.866 104.272H235.506L235.778 105.872C235.65 105.936 235.468 105.989 235.234 106.032C234.999 106.085 234.759 106.123 234.514 106.144C234.268 106.176 234.06 106.192 233.89 106.192C233.175 106.192 232.61 106.005 232.194 105.632C231.778 105.259 231.57 104.736 231.57 104.064V94.8H233.938ZM244.35 98.096L241.518 106.096C241.39 106.491 241.208 106.885 240.974 107.28C240.75 107.685 240.462 108.048 240.11 108.368C239.768 108.688 239.352 108.928 238.862 109.088C238.382 109.259 237.811 109.301 237.15 109.216L236.974 107.872C237.624 107.701 238.131 107.472 238.494 107.184C238.856 106.896 239.139 106.517 239.342 106.048L239.838 104.944C239.934 104.709 240.024 104.427 240.11 104.096C240.206 103.755 240.286 103.461 240.35 103.216L241.822 98.096H244.35ZM238.078 98.096L239.582 103.216C239.624 103.419 239.667 103.621 239.71 103.824C239.752 104.027 239.79 104.229 239.822 104.432H240.254L239.502 106H238.926C238.744 106 238.584 105.947 238.446 105.84C238.307 105.733 238.211 105.595 238.158 105.424L235.55 98.096H238.078ZM252.234 97.888C252.522 97.888 252.836 97.904 253.178 97.936C253.519 97.9573 253.86 98.0053 254.202 98.08C254.554 98.144 254.874 98.24 255.162 98.368L254.906 99.856C254.479 99.8453 254.068 99.8347 253.674 99.824C253.29 99.8133 252.943 99.808 252.634 99.808C252.154 99.808 251.775 99.872 251.498 100C251.22 100.128 251.018 100.357 250.89 100.688C250.772 101.008 250.714 101.456 250.714 102.032C250.714 102.619 250.772 103.077 250.89 103.408C251.018 103.739 251.22 103.968 251.498 104.096C251.775 104.224 252.154 104.288 252.634 104.288C252.804 104.288 253.023 104.283 253.29 104.272C253.556 104.261 253.844 104.251 254.154 104.24C254.463 104.219 254.767 104.187 255.066 104.144L255.29 105.648C254.863 105.84 254.378 105.979 253.834 106.064C253.29 106.149 252.751 106.192 252.218 106.192C251.236 106.192 250.452 106.059 249.866 105.792C249.29 105.515 248.874 105.072 248.618 104.464C248.362 103.856 248.234 103.045 248.234 102.032C248.234 101.019 248.362 100.208 248.618 99.6C248.884 98.992 249.311 98.5547 249.898 98.288C250.484 98.0213 251.263 97.888 252.234 97.888ZM260.361 97.888C261.353 97.888 262.147 98.0267 262.745 98.304C263.342 98.5707 263.769 99.008 264.025 99.616C264.291 100.224 264.425 101.04 264.425 102.064C264.425 103.067 264.291 103.872 264.025 104.48C263.769 105.088 263.342 105.525 262.745 105.792C262.147 106.059 261.353 106.192 260.361 106.192C259.379 106.192 258.585 106.059 257.977 105.792C257.379 105.525 256.947 105.088 256.681 104.48C256.414 103.872 256.281 103.067 256.281 102.064C256.281 101.04 256.414 100.224 256.681 99.616C256.947 99.008 257.379 98.5707 257.977 98.304C258.585 98.0267 259.379 97.888 260.361 97.888ZM260.361 99.616C259.955 99.616 259.635 99.6853 259.401 99.824C259.166 99.9627 259.001 100.208 258.905 100.56C258.809 100.912 258.761 101.413 258.761 102.064C258.761 102.704 258.809 103.2 258.905 103.552C259.001 103.904 259.166 104.149 259.401 104.288C259.635 104.416 259.955 104.48 260.361 104.48C260.766 104.48 261.086 104.416 261.321 104.288C261.555 104.149 261.721 103.904 261.817 103.552C261.913 103.2 261.961 102.704 261.961 102.064C261.961 101.413 261.913 100.912 261.817 100.56C261.721 100.208 261.555 99.9627 261.321 99.824C261.086 99.6853 260.766 99.616 260.361 99.616ZM267.894 98.096L268.182 99.664L268.406 99.872V106H266.038V98.096H267.894ZM271.75 97.888L271.526 100.08H270.87C270.497 100.08 270.107 100.133 269.702 100.24C269.297 100.347 268.785 100.507 268.166 100.72L268.006 99.392C268.561 98.9013 269.121 98.528 269.686 98.272C270.251 98.016 270.801 97.888 271.334 97.888H271.75ZM278.066 97.904C279.058 97.904 279.768 98.2667 280.194 98.992C280.621 99.7173 280.834 100.757 280.834 102.112C280.834 103.168 280.722 103.995 280.498 104.592C280.285 105.189 279.954 105.611 279.506 105.856C279.069 106.091 278.52 106.208 277.858 106.208C277.293 106.208 276.754 106.128 276.242 105.968C275.73 105.808 275.277 105.541 274.882 105.168L275.042 104.112C275.394 104.219 275.714 104.315 276.002 104.4C276.301 104.475 276.637 104.512 277.01 104.512C277.352 104.512 277.624 104.453 277.826 104.336C278.029 104.219 278.173 103.989 278.258 103.648C278.354 103.296 278.402 102.789 278.402 102.128C278.402 101.477 278.36 100.981 278.274 100.64C278.189 100.288 278.05 100.048 277.858 99.92C277.666 99.7813 277.416 99.712 277.106 99.712C276.765 99.712 276.45 99.7813 276.162 99.92C275.874 100.048 275.549 100.235 275.186 100.48L274.882 99.392C275.096 99.104 275.368 98.848 275.698 98.624C276.04 98.4 276.413 98.224 276.818 98.096C277.224 97.968 277.64 97.904 278.066 97.904ZM274.786 98.096L275.01 99.536L275.234 99.776V104.912L275.154 105.104C275.186 105.424 275.208 105.755 275.218 106.096C275.24 106.448 275.245 106.795 275.234 107.136V109.04H272.866V98.096H274.786ZM286.22 97.888C287.212 97.888 288.007 98.0267 288.604 98.304C289.201 98.5707 289.628 99.008 289.884 99.616C290.151 100.224 290.284 101.04 290.284 102.064C290.284 103.067 290.151 103.872 289.884 104.48C289.628 105.088 289.201 105.525 288.604 105.792C288.007 106.059 287.212 106.192 286.22 106.192C285.239 106.192 284.444 106.059 283.836 105.792C283.239 105.525 282.807 105.088 282.54 104.48C282.273 103.872 282.14 103.067 282.14 102.064C282.14 101.04 282.273 100.224 282.54 99.616C282.807 99.008 283.239 98.5707 283.836 98.304C284.444 98.0267 285.239 97.888 286.22 97.888ZM286.22 99.616C285.815 99.616 285.495 99.6853 285.26 99.824C285.025 99.9627 284.86 100.208 284.764 100.56C284.668 100.912 284.62 101.413 284.62 102.064C284.62 102.704 284.668 103.2 284.764 103.552C284.86 103.904 285.025 104.149 285.26 104.288C285.495 104.416 285.815 104.48 286.22 104.48C286.625 104.48 286.945 104.416 287.18 104.288C287.415 104.149 287.58 103.904 287.676 103.552C287.772 103.2 287.82 102.704 287.82 102.064C287.82 101.413 287.772 100.912 287.676 100.56C287.58 100.208 287.415 99.9627 287.18 99.824C286.945 99.6853 286.625 99.616 286.22 99.616ZM293.754 98.096L294.042 99.664L294.266 99.872V106H291.898V98.096H293.754ZM297.61 97.888L297.386 100.08H296.73C296.356 100.08 295.967 100.133 295.562 100.24C295.156 100.347 294.644 100.507 294.026 100.72L293.866 99.392C294.42 98.9013 294.98 98.528 295.546 98.272C296.111 98.016 296.66 97.888 297.194 97.888H297.61ZM302.855 97.888C303.516 97.888 304.076 97.9787 304.535 98.16C304.993 98.3307 305.34 98.6293 305.575 99.056C305.82 99.472 305.943 100.048 305.943 100.784V106H304.055L303.719 104.288L303.559 104.048V100.768C303.559 100.395 303.468 100.123 303.287 99.952C303.116 99.7813 302.785 99.696 302.295 99.696C301.889 99.696 301.383 99.712 300.775 99.744C300.167 99.7653 299.543 99.7973 298.903 99.84L298.679 98.272C299.063 98.1973 299.505 98.1333 300.007 98.08C300.508 98.0267 301.009 97.984 301.511 97.952C302.012 97.9093 302.46 97.888 302.855 97.888ZM304.967 101.136L304.951 102.464L301.431 102.48C301.143 102.48 300.935 102.549 300.807 102.688C300.689 102.827 300.631 103.013 300.631 103.248V103.632C300.631 103.899 300.705 104.107 300.855 104.256C301.004 104.395 301.244 104.464 301.575 104.464C301.852 104.464 302.151 104.405 302.471 104.288C302.801 104.171 303.127 104.005 303.447 103.792C303.767 103.579 304.049 103.328 304.295 103.04V104.064C304.199 104.224 304.055 104.427 303.863 104.672C303.681 104.907 303.447 105.141 303.159 105.376C302.871 105.6 302.535 105.792 302.151 105.952C301.767 106.112 301.329 106.192 300.839 106.192C300.359 106.192 299.927 106.107 299.543 105.936C299.159 105.765 298.855 105.515 298.631 105.184C298.407 104.853 298.295 104.443 298.295 103.952V103.136C298.295 102.507 298.508 102.016 298.935 101.664C299.361 101.312 299.948 101.136 300.695 101.136H304.967ZM310.892 95.904V103.472C310.892 103.76 310.956 103.968 311.084 104.096C311.222 104.213 311.446 104.272 311.756 104.272H312.78L313.036 105.872C312.844 105.936 312.609 105.989 312.332 106.032C312.054 106.085 311.777 106.123 311.5 106.144C311.222 106.176 310.988 106.192 310.796 106.192C310.081 106.192 309.521 106 309.116 105.616C308.721 105.232 308.524 104.693 308.524 104L308.508 95.904H310.892ZM313.1 98.096V99.648H307.132V98.176L308.668 98.096H313.1ZM318.11 97.888C319.444 97.888 320.398 98.1173 320.974 98.576C321.561 99.024 321.854 99.696 321.854 100.592C321.865 101.317 321.684 101.861 321.31 102.224C320.937 102.576 320.292 102.752 319.374 102.752H314.958V101.424H318.718C319.081 101.424 319.31 101.349 319.406 101.2C319.513 101.04 319.566 100.821 319.566 100.544C319.556 100.171 319.444 99.9147 319.23 99.776C319.028 99.6267 318.681 99.552 318.19 99.552C317.753 99.552 317.412 99.6107 317.166 99.728C316.921 99.8453 316.75 100.069 316.654 100.4C316.558 100.731 316.51 101.211 316.51 101.84C316.51 102.501 316.569 103.013 316.686 103.376C316.804 103.728 317.001 103.973 317.278 104.112C317.566 104.251 317.961 104.32 318.462 104.32C318.825 104.32 319.273 104.309 319.806 104.288C320.35 104.256 320.894 104.208 321.438 104.144L321.662 105.6C321.353 105.749 321.001 105.867 320.606 105.952C320.212 106.037 319.806 106.096 319.39 106.128C318.974 106.171 318.574 106.192 318.19 106.192C317.188 106.192 316.377 106.048 315.758 105.76C315.15 105.461 314.708 105.008 314.43 104.4C314.164 103.792 314.03 103.013 314.03 102.064C314.03 101.029 314.169 100.208 314.446 99.6C314.724 98.992 315.161 98.5547 315.758 98.288C316.356 98.0213 317.14 97.888 318.11 97.888ZM329.267 98.096V106H326.915V98.096H329.267ZM328.611 94.608C329.08 94.608 329.315 94.848 329.315 95.328V96.176C329.315 96.656 329.08 96.896 328.611 96.896H327.587C327.117 96.896 326.883 96.656 326.883 96.176V95.328C326.883 94.848 327.117 94.608 327.587 94.608H328.611ZM336.777 97.888C338.27 97.888 339.017 98.6187 339.017 100.08V106H336.649V100.816C336.649 100.464 336.585 100.224 336.457 100.096C336.329 99.9573 336.11 99.888 335.801 99.888C335.459 99.888 335.107 99.9573 334.745 100.096C334.382 100.224 333.934 100.427 333.401 100.704L333.289 99.376C333.854 98.896 334.43 98.528 335.016 98.272C335.614 98.016 336.201 97.888 336.777 97.888ZM333.177 98.096L333.449 99.664L333.641 99.872V106H331.273V98.096H333.177ZM344.194 94.464C344.386 94.464 344.637 94.4693 344.946 94.48C345.266 94.4907 345.586 94.512 345.906 94.544C346.237 94.5653 346.519 94.5973 346.754 94.64L346.546 96.16H345.042C344.637 96.16 344.354 96.24 344.194 96.4C344.034 96.56 343.954 96.8373 343.954 97.232V106H341.586V96.928C341.586 96.4267 341.666 95.9947 341.826 95.632C341.997 95.2693 342.274 94.9867 342.658 94.784C343.042 94.5707 343.554 94.464 344.194 94.464ZM346.162 98.096V99.648H340.21V98.176L341.634 98.096H346.162ZM351.017 97.888C352.009 97.888 352.804 98.0267 353.401 98.304C353.998 98.5707 354.425 99.008 354.681 99.616C354.948 100.224 355.081 101.04 355.081 102.064C355.081 103.067 354.948 103.872 354.681 104.48C354.425 105.088 353.998 105.525 353.401 105.792C352.804 106.059 352.009 106.192 351.017 106.192C350.036 106.192 349.241 106.059 348.633 105.792C348.036 105.525 347.604 105.088 347.337 104.48C347.07 103.872 346.937 103.067 346.937 102.064C346.937 101.04 347.07 100.224 347.337 99.616C347.604 99.008 348.036 98.5707 348.633 98.304C349.241 98.0267 350.036 97.888 351.017 97.888ZM351.017 99.616C350.612 99.616 350.292 99.6853 350.057 99.824C349.822 99.9627 349.657 100.208 349.561 100.56C349.465 100.912 349.417 101.413 349.417 102.064C349.417 102.704 349.465 103.2 349.561 103.552C349.657 103.904 349.822 104.149 350.057 104.288C350.292 104.416 350.612 104.48 351.017 104.48C351.422 104.48 351.742 104.416 351.977 104.288C352.212 104.149 352.377 103.904 352.473 103.552C352.569 103.2 352.617 102.704 352.617 102.064C352.617 101.413 352.569 100.912 352.473 100.56C352.377 100.208 352.212 99.9627 351.977 99.824C351.742 99.6853 351.422 99.616 351.017 99.616ZM358.55 98.096L358.838 99.664L359.062 99.872V106H356.694V98.096H358.55ZM362.406 97.888L362.182 100.08H361.526C361.153 100.08 360.764 100.133 360.358 100.24C359.953 100.347 359.441 100.507 358.822 100.72L358.662 99.392C359.217 98.9013 359.777 98.528 360.342 98.272C360.908 98.016 361.457 97.888 361.99 97.888H362.406ZM373.539 97.888C374.253 97.888 374.797 98.0747 375.171 98.448C375.544 98.8213 375.731 99.3653 375.731 100.08V106H373.379V100.816C373.379 100.485 373.315 100.251 373.187 100.112C373.059 99.9627 372.835 99.888 372.515 99.888C372.323 99.888 372.141 99.9147 371.97 99.968C371.8 100.021 371.603 100.107 371.378 100.224C371.155 100.341 370.883 100.501 370.562 100.704L370.435 99.392C370.947 98.8907 371.448 98.5173 371.939 98.272C372.44 98.016 372.973 97.888 373.539 97.888ZM365.411 98.096L365.651 99.664L365.891 99.872V106H363.523V98.096H365.411ZM368.611 97.888C369.315 97.888 369.848 98.0747 370.211 98.448C370.584 98.8107 370.771 99.3547 370.771 100.08V106H368.499V100.816C368.499 100.475 368.424 100.235 368.275 100.096C368.136 99.9573 367.917 99.888 367.619 99.888C367.437 99.888 367.256 99.9147 367.075 99.968C366.904 100.011 366.701 100.091 366.467 100.208C366.243 100.325 365.965 100.491 365.635 100.704L365.491 99.392C366.013 98.8907 366.52 98.5173 367.011 98.272C367.501 98.016 368.035 97.888 368.611 97.888ZM381.792 97.888C382.454 97.888 383.014 97.9787 383.472 98.16C383.931 98.3307 384.278 98.6293 384.512 99.056C384.758 99.472 384.88 100.048 384.88 100.784V106H382.992L382.656 104.288L382.496 104.048V100.768C382.496 100.395 382.406 100.123 382.224 99.952C382.054 99.7813 381.723 99.696 381.232 99.696C380.827 99.696 380.32 99.712 379.712 99.744C379.104 99.7653 378.48 99.7973 377.84 99.84L377.616 98.272C378 98.1973 378.443 98.1333 378.944 98.08C379.446 98.0267 379.947 97.984 380.448 97.952C380.95 97.9093 381.398 97.888 381.792 97.888ZM383.904 101.136L383.888 102.464L380.368 102.48C380.08 102.48 379.872 102.549 379.744 102.688C379.627 102.827 379.568 103.013 379.568 103.248V103.632C379.568 103.899 379.643 104.107 379.792 104.256C379.942 104.395 380.182 104.464 380.512 104.464C380.79 104.464 381.088 104.405 381.408 104.288C381.739 104.171 382.064 104.005 382.384 103.792C382.704 103.579 382.987 103.328 383.232 103.04V104.064C383.136 104.224 382.992 104.427 382.8 104.672C382.619 104.907 382.384 105.141 382.096 105.376C381.808 105.6 381.472 105.792 381.088 105.952C380.704 106.112 380.267 106.192 379.776 106.192C379.296 106.192 378.864 106.107 378.48 105.936C378.096 105.765 377.792 105.515 377.568 105.184C377.344 104.853 377.232 104.443 377.232 103.952V103.136C377.232 102.507 377.446 102.016 377.872 101.664C378.299 101.312 378.886 101.136 379.632 101.136H383.904ZM389.829 95.904V103.472C389.829 103.76 389.893 103.968 390.021 104.096C390.16 104.213 390.384 104.272 390.693 104.272H391.717L391.973 105.872C391.781 105.936 391.547 105.989 391.269 106.032C390.992 106.085 390.715 106.123 390.437 106.144C390.16 106.176 389.925 106.192 389.733 106.192C389.019 106.192 388.459 106 388.053 105.616C387.659 105.232 387.461 104.693 387.461 104L387.445 95.904H389.829ZM392.037 98.096V99.648H386.069V98.176L387.605 98.096H392.037ZM395.72 98.096V106H393.368V98.096H395.72ZM395.064 94.608C395.533 94.608 395.768 94.848 395.768 95.328V96.176C395.768 96.656 395.533 96.896 395.064 96.896H394.04C393.57 96.896 393.336 96.656 393.336 96.176V95.328C393.336 94.848 393.57 94.608 394.04 94.608H395.064ZM401.486 97.888C402.478 97.888 403.272 98.0267 403.87 98.304C404.467 98.5707 404.894 99.008 405.15 99.616C405.416 100.224 405.55 101.04 405.55 102.064C405.55 103.067 405.416 103.872 405.15 104.48C404.894 105.088 404.467 105.525 403.87 105.792C403.272 106.059 402.478 106.192 401.486 106.192C400.504 106.192 399.71 106.059 399.102 105.792C398.504 105.525 398.072 105.088 397.806 104.48C397.539 103.872 397.406 103.067 397.406 102.064C397.406 101.04 397.539 100.224 397.806 99.616C398.072 99.008 398.504 98.5707 399.102 98.304C399.71 98.0267 400.504 97.888 401.486 97.888ZM401.486 99.616C401.08 99.616 400.76 99.6853 400.526 99.824C400.291 99.9627 400.126 100.208 400.03 100.56C399.934 100.912 399.886 101.413 399.886 102.064C399.886 102.704 399.934 103.2 400.03 103.552C400.126 103.904 400.291 104.149 400.526 104.288C400.76 104.416 401.08 104.48 401.486 104.48C401.891 104.48 402.211 104.416 402.446 104.288C402.68 104.149 402.846 103.904 402.942 103.552C403.038 103.2 403.086 102.704 403.086 102.064C403.086 101.413 403.038 100.912 402.942 100.56C402.846 100.208 402.68 99.9627 402.446 99.824C402.211 99.6853 401.891 99.616 401.486 99.616ZM412.667 97.888C414.16 97.888 414.907 98.6187 414.907 100.08V106H412.539V100.816C412.539 100.464 412.475 100.224 412.347 100.096C412.219 99.9573 412 99.888 411.691 99.888C411.35 99.888 410.998 99.9573 410.635 100.096C410.272 100.224 409.824 100.427 409.291 100.704L409.179 99.376C409.744 98.896 410.32 98.528 410.907 98.272C411.504 98.016 412.091 97.888 412.667 97.888ZM409.067 98.096L409.339 99.664L409.531 99.872V106H407.163V98.096H409.067Z" fill="#023047" fill-opacity="0.72"/>
</g>
<rect width="1920" height="89" fill="white"/>
<path d="M0 -9.65086e-05V89.0332H271.028L307 -9.65086e-05H0Z" fill="#003A69"/>
<path d="M175.01 54.2131H177.169V64.2302H182.027V66.0376H175.01V54.2131ZM169.877 61.055L168.949 58.143C168.72 57.4244 168.528 56.6162 168.353 55.9323H168.315C168.14 56.6162 167.965 57.4403 167.754 58.143L166.842 61.055H169.877ZM166.491 62.686L165.474 66.0376H163.246L167.034 54.2131H169.792L173.632 66.0376H171.316L170.246 62.686H166.491ZM158.71 56.0205H155.341V54.2131H164.271V56.0205H160.868V66.0376H158.71V56.0205ZM153.773 60.7919H149.315V64.2664H154.298V66.0376H147.158V54.2131H154.034V55.9843H149.315V59.038H153.773V60.7919ZM142.903 61.2127C142.832 59.6872 142.745 57.8452 142.762 56.2475H142.709C142.323 57.6861 141.833 59.2838 141.305 60.7745L139.587 65.8973H137.92L136.341 60.8454C135.884 59.3359 135.463 57.7223 135.148 56.2475H135.114C135.06 57.7917 134.989 59.6684 134.902 61.2849L134.639 66.0376H132.622L133.412 54.2131H136.253L137.797 58.9672C138.218 60.3538 138.587 61.7577 138.884 63.0721H138.936C139.253 61.7924 139.657 60.335 140.113 58.9498L141.744 54.2131H144.551L145.236 66.0376H143.131L142.903 61.2127ZM124.005 63.6866C124.708 64.09 125.76 64.4413 126.865 64.4413C128.25 64.4413 129.022 63.7921 129.022 62.8277C129.022 61.9327 128.425 61.4064 126.917 60.8627C124.969 60.16 123.724 59.1248 123.724 57.4244C123.724 55.4942 125.338 54.0208 127.9 54.0208C129.18 54.0208 130.128 54.3013 130.741 54.6165L130.215 56.353C129.794 56.126 128.97 55.7935 127.864 55.7935C126.496 55.7935 125.899 56.5294 125.899 57.2119C125.899 58.1257 126.583 58.5464 128.162 59.1609C130.215 59.933 131.214 60.9669 131.214 62.6701C131.214 64.5642 129.777 66.214 126.725 66.214C125.478 66.214 124.18 65.8626 123.532 65.4766L124.005 63.6866ZM118.574 61.055L117.644 58.143C117.417 57.4244 117.224 56.6162 117.049 55.9323H117.013C116.838 56.6162 116.663 57.4403 116.452 58.143L115.539 61.055H118.574ZM115.189 62.686L114.171 66.0376H111.942L115.732 54.2131H118.487L122.328 66.0376H120.013L118.943 62.686H115.189ZM104.776 59.599H106.057C107.513 59.599 108.425 58.8269 108.425 57.6514C108.425 56.353 107.513 55.7573 106.109 55.7573C105.425 55.7573 104.987 55.8094 104.776 55.8629V59.599ZM102.636 54.3707C103.443 54.2305 104.653 54.1249 105.898 54.1249C107.6 54.1249 108.758 54.4069 109.549 55.0734C110.198 55.6171 110.565 56.4412 110.565 57.4403C110.565 58.9672 109.53 60.0024 108.425 60.4073V60.4579C109.267 60.7745 109.776 61.5987 110.074 62.7381C110.442 64.2143 110.759 65.5807 111.003 66.0376H108.777C108.6 65.6877 108.32 64.7218 107.987 63.247C107.653 61.7057 107.092 61.2127 105.865 61.1779H104.776V66.0376H102.636V54.3707ZM94.9426 64.4775C95.2231 64.5107 95.5918 64.5295 96.0834 64.5295C97.4685 64.5295 98.6976 64.0018 98.6976 62.5472C98.6976 61.1779 97.5047 60.6169 96.0125 60.6169H94.9426V64.4775ZM94.9426 59.038H96.0472C97.538 59.038 98.3809 58.3368 98.3809 57.3362C98.3809 56.2316 97.538 55.7212 96.1701 55.7212C95.5383 55.7212 95.171 55.7573 94.9426 55.8094V59.038ZM92.8027 54.3707C93.4866 54.2305 94.7329 54.1249 95.9417 54.1249C97.538 54.1249 98.5212 54.3187 99.328 54.8797C100.065 55.3192 100.557 56.0899 100.557 57.0904C100.557 58.1777 99.8731 59.1783 98.5906 59.6525V59.6872C99.8369 60.0024 100.978 60.9856 100.978 62.6166C100.978 63.6692 100.521 64.4934 99.8369 65.0558C98.9954 65.7932 97.6088 66.1619 95.4515 66.1619C94.2572 66.1619 93.3463 66.0737 92.8027 66.0014V54.3707ZM79.1405 44.1368C79.1405 56.7449 68.9196 66.9658 56.3115 66.9658C43.7034 66.9658 33.4824 56.7449 33.4824 44.1368C33.4824 31.5301 43.7034 21.3077 56.3115 21.3077C68.9196 21.3077 79.1405 31.5301 79.1405 44.1368ZM216.695 48.0276V33.1799H212.549V51.4414H222.762V48.0276H216.695ZM150.45 48.0276V47.9741V33.1799H146.305V51.4414H156.516V48.0276H150.45ZM163.519 48.0291V47.9178L172.027 35.5641V33.1799H158.777V36.5936H166.664V36.702L158.687 48.1795V51.4414H172.164V48.0291H163.519ZM229.767 48.0291V47.9178L238.274 35.5641V33.1799H225.026V36.5936H232.91V36.702L224.933 48.1795V51.4414H238.41V48.0291H229.767ZM196.918 42.3656C196.918 45.9412 198.598 48.46 201.361 48.46C204.153 48.46 205.752 45.8082 205.752 42.2571C205.752 38.9793 204.182 36.1598 201.335 36.1598C198.544 36.1598 196.918 38.8159 196.918 42.3656ZM210.113 42.1212C210.113 48.1072 206.481 51.7392 201.144 51.7392C195.725 51.7392 192.556 47.6488 192.556 42.448C192.556 36.9739 196.05 32.8806 201.443 32.8806C207.051 32.8806 210.113 37.0809 210.113 42.1212ZM179.148 33.1799V40.1967H185.946V33.1799H190.067V51.4414H185.946V43.8013H179.148V51.4414H175.003V33.1799H179.148ZM142.064 43.7204H135.743V48.0537H143.25V51.4414H131.597V33.1799H142.869V36.5676H135.743V40.3587H142.064V43.7204ZM123.327 43.6654L122.189 39.7904C121.863 38.7075 121.538 37.3527 121.266 36.2683H121.214C120.942 37.3527 120.671 38.7335 120.373 39.7904L119.29 43.6654H123.327ZM118.694 46.7538L117.393 51.4414H113.112L118.694 33.1799H124.112L129.775 51.4414H125.334L123.922 46.7538H118.694ZM95.3474 51.4414L91.0127 33.1799H95.4299L96.8107 40.7129C97.2184 42.8803 97.5987 45.2371 97.8965 47.0791H97.9486C98.2479 45.1012 98.6816 42.9049 99.1429 40.658L100.687 33.1799H105.075L106.539 40.8734C106.946 43.0162 107.243 44.9667 107.516 46.9982H107.568C107.84 44.9667 108.246 42.8268 108.625 40.658L110.114 33.1799H114.315L109.6 51.4414H105.13L103.588 43.5844C103.233 41.7409 102.935 40.0348 102.719 37.9484H102.664C102.34 40.0073 102.042 41.7409 101.607 43.5844L99.8731 51.4414H95.3474Z" fill="white"/>
<path d="M73.6626 33.1797H70.9212L63.6224 50.9106L56.3221 33.1797H49.0161L61.3393 63.111L73.6626 33.1797ZM54.9413 54.2506L46.2675 33.1797H38.96L51.289 63.1211L54.9413 54.2506ZM59.5739 35.9182C59.5739 37.5825 59.7807 38.7637 61.4362 38.7637C63.0151 38.7637 63.1293 37.6056 63.1293 36.8089H62.0276C62.0276 37.6056 61.8656 37.9512 61.3668 37.9512C60.8174 37.9512 60.6815 37.409 60.6786 35.9182C60.6815 34.4275 60.8174 33.8868 61.3668 33.8868C61.8656 33.8868 62.0276 34.2323 62.0276 35.029H63.1293C63.1293 34.2323 63.0151 33.0742 61.4362 33.0742C59.7807 33.0742 59.5739 34.2555 59.5739 35.9182ZM64.1068 38.6553H65.8462C67.3108 38.6553 67.7258 37.7805 67.7258 35.8416C67.7258 34.2323 67.4496 33.1812 65.9156 33.1812H64.1068V38.6553ZM65.7016 37.8413H65.2114V33.9952H65.6784C66.5214 33.9952 66.6212 34.63 66.6212 35.872C66.6212 37.3583 66.4679 37.8413 65.7016 37.8413Z" fill="#003A69"/>
</g>
<defs>
<clipPath id="clip0_3074_7742">
<rect width="1920" height="1080" fill="white"/>
</clipPath>
<clipPath id="clip1_3074_7742">
<rect width="1896" height="947" fill="white" transform="translate(0 90)"/>
</clipPath>
</defs>
</svg>
