<svg width="1920" height="1080" viewBox="0 0 1920 1080" fill="none" xmlns="http://www.w3.org/2000/svg">
<g clip-path="url(#clip0_2286_8490)">
<rect width="1920" height="1080" fill="#F5F5F5"/>
<mask id="path-1-inside-1_2286_8490" fill="white">
<path d="M24 1038H1896V1065H24V1038Z"/>
</mask>
<path d="M24 1039H1896V1037H24V1039Z" fill="#99B0C3" mask="url(#path-1-inside-1_2286_8490)"/>
<path d="M46.832 584.92C47.984 584.92 48.5813 585.517 48.624 586.712L49.456 607H44.944L44.208 588.664H43.632L40.08 602.456C39.888 603.48 39.248 603.992 38.16 603.992H35.088C34 603.992 33.3493 603.48 33.136 602.456L29.552 588.664H29.008L28.336 607H23.824L24.624 586.712C24.688 585.517 25.296 584.92 26.448 584.92H31.024C32.0693 584.92 32.7093 585.432 32.944 586.456L35.792 597.592C35.92 598.104 36.0267 598.627 36.112 599.16C36.1973 599.672 36.2933 600.195 36.4 600.728H36.816C36.9227 600.195 37.0187 599.672 37.104 599.16C37.2107 598.627 37.3173 598.093 37.424 597.56L40.24 586.456C40.4533 585.432 41.104 584.92 42.192 584.92H46.832ZM60.6892 590.776C63.3559 590.776 65.2653 591.235 66.4173 592.152C67.5906 593.048 68.1772 594.392 68.1772 596.184C68.1986 597.613 67.8359 598.691 67.0893 599.416C66.3426 600.141 65.0519 600.504 63.2173 600.504H54.3853V597.848H61.9373C62.6413 597.848 63.0893 597.699 63.2813 597.4C63.4946 597.08 63.6013 596.643 63.6013 596.088C63.6013 595.341 63.3879 594.829 62.9613 594.552C62.5559 594.253 61.8519 594.104 60.8493 594.104C59.9746 594.083 59.2919 594.2 58.8013 594.456C58.3106 594.691 57.9693 595.139 57.7773 595.8C57.5853 596.461 57.4893 597.421 57.4893 598.68C57.4893 600.003 57.6066 601.027 57.8413 601.752C58.0759 602.456 58.4706 602.947 59.0253 603.224C59.6013 603.501 60.3906 603.64 61.3933 603.64C62.1186 603.64 63.0146 603.619 64.0813 603.576C65.1693 603.512 66.2573 603.416 67.3453 603.288L67.7933 606.2C67.1746 606.499 66.4706 606.733 65.6813 606.904C64.8919 607.075 64.0813 607.192 63.2493 607.256C62.4173 607.341 61.6173 607.384 60.8493 607.384C58.8439 607.384 57.2333 607.096 56.0173 606.52C54.8013 605.923 53.9159 605.016 53.3613 603.8C52.8279 602.584 52.5613 601.027 52.5613 599.128C52.5613 597.059 52.8279 595.416 53.3613 594.2C53.9159 592.984 54.7906 592.109 55.9852 591.576C57.1799 591.043 58.7479 590.776 60.6892 590.776ZM77.4398 586.808V601.944C77.4398 602.52 77.5678 602.936 77.8238 603.192C78.1011 603.427 78.5491 603.544 79.1678 603.544H81.2158L81.7278 606.744C81.3438 606.872 80.8744 606.979 80.3198 607.064C79.7651 607.171 79.2104 607.245 78.6558 607.288C78.1011 607.331 77.6318 607.352 77.2478 607.352C75.8184 607.352 74.6984 606.979 73.8878 606.232C73.0984 605.464 72.7038 604.387 72.7038 603V586.808H77.4398ZM81.8558 591.192V594.296H69.9518V591.352L73.0238 591.192H81.8558ZM88.1008 591.192L88.6768 594.328L89.1248 594.744V607H84.4208V591.192H88.1008ZM95.8128 590.776L95.3648 595.128H94.0528C93.3061 595.128 92.5274 595.235 91.7168 595.448C90.9061 595.661 89.8821 595.992 88.6448 596.44L88.3248 593.784C89.4341 592.803 90.5541 592.056 91.6848 591.544C92.8154 591.032 93.9141 590.776 94.9808 590.776H95.8128ZM102.877 591.192V607H98.205V591.192H102.877ZM101.565 584.216C102.504 584.216 102.973 584.685 102.973 585.624V587.352C102.973 588.291 102.504 588.76 101.565 588.76H99.517C98.5783 588.76 98.109 588.291 98.109 587.352V585.624C98.109 584.685 98.5783 584.216 99.517 584.216H101.565ZM114.249 590.776C114.825 590.776 115.454 590.808 116.137 590.872C116.819 590.915 117.502 591.011 118.185 591.16C118.889 591.288 119.529 591.48 120.105 591.736L119.593 594.712C118.739 594.669 117.918 594.648 117.129 594.648C116.361 594.627 115.667 594.616 115.049 594.616C114.089 594.616 113.331 594.744 112.777 595C112.222 595.256 111.817 595.704 111.561 596.344C111.326 596.984 111.209 597.891 111.209 599.064C111.209 600.237 111.326 601.155 111.561 601.816C111.817 602.477 112.222 602.936 112.777 603.192C113.331 603.448 114.089 603.576 115.049 603.576C115.39 603.576 115.827 603.565 116.361 603.544C116.894 603.523 117.47 603.501 118.089 603.48C118.707 603.437 119.315 603.373 119.913 603.288L120.361 606.296C119.507 606.68 118.537 606.957 117.449 607.128C116.361 607.299 115.283 607.384 114.217 607.384C112.275 607.384 110.718 607.117 109.545 606.584C108.371 606.029 107.529 605.144 107.017 603.928C106.505 602.712 106.249 601.091 106.249 599.064C106.249 597.037 106.505 595.416 107.017 594.2C107.55 592.984 108.403 592.109 109.577 591.576C110.75 591.043 112.307 590.776 114.249 590.776ZM129.186 590.776C129.954 590.776 130.786 590.808 131.682 590.872C132.578 590.915 133.453 590.979 134.306 591.064C135.159 591.149 135.917 591.256 136.578 591.384L136.258 594.328C135.234 594.307 134.199 594.285 133.154 594.264C132.13 594.243 131.127 594.232 130.146 594.232C129.314 594.232 128.674 594.253 128.226 594.296C127.778 594.317 127.458 594.413 127.266 594.584C127.095 594.733 127.01 595.011 127.01 595.416C127.01 595.907 127.17 596.237 127.49 596.408C127.81 596.557 128.343 596.728 129.09 596.92L133.218 597.912C134.541 598.253 135.522 598.765 136.162 599.448C136.802 600.109 137.122 601.112 137.122 602.456C137.122 603.779 136.877 604.792 136.386 605.496C135.895 606.2 135.117 606.691 134.05 606.968C132.983 607.224 131.607 607.352 129.922 607.352C129.261 607.352 128.279 607.32 126.978 607.256C125.677 607.192 124.258 607.032 122.722 606.776L123.01 603.832C123.415 603.853 123.906 603.875 124.482 603.896C125.079 603.896 125.73 603.896 126.434 603.896C127.138 603.896 127.842 603.896 128.546 603.896C129.655 603.896 130.498 603.875 131.074 603.832C131.65 603.768 132.045 603.64 132.258 603.448C132.471 603.256 132.578 602.968 132.578 602.584C132.578 602.093 132.397 601.773 132.034 601.624C131.671 601.453 131.095 601.261 130.306 601.048L126.306 600.056C125.282 599.779 124.493 599.427 123.938 599C123.383 598.573 122.989 598.061 122.754 597.464C122.541 596.845 122.434 596.109 122.434 595.256C122.434 594.168 122.658 593.293 123.106 592.632C123.554 591.971 124.269 591.501 125.25 591.224C126.231 590.925 127.543 590.776 129.186 590.776Z" fill="#003A69"/>
<path d="M24.7481 171.932C25.8361 171.932 27.0201 171.996 28.3001 172.124C29.5801 172.23 30.8281 172.454 32.0441 172.796L31.7241 176.06C30.7855 176.017 29.6868 175.985 28.4281 175.964C27.1695 175.942 25.9321 175.932 24.7161 175.932C24.1188 175.932 23.6068 175.953 23.1801 175.996C22.7748 176.038 22.4441 176.124 22.1881 176.252C21.9321 176.38 21.7508 176.593 21.6441 176.892C21.5375 177.169 21.4841 177.553 21.4841 178.044C21.4841 178.79 21.6548 179.334 21.9961 179.676C22.3588 180.017 22.9668 180.326 23.8201 180.604L28.0761 181.98C29.8468 182.577 31.0735 183.388 31.7561 184.412C32.4388 185.436 32.7801 186.78 32.7801 188.444C32.7801 189.702 32.6308 190.748 32.3321 191.58C32.0335 192.412 31.5641 193.062 30.9241 193.532C30.2841 194.001 29.4415 194.332 28.3961 194.524C27.3508 194.737 26.0708 194.844 24.5561 194.844C23.8308 194.844 22.7961 194.79 21.4521 194.684C20.1081 194.598 18.5828 194.364 16.8761 193.98L17.1641 190.524C18.4441 190.545 19.5428 190.577 20.4601 190.62C21.3775 190.641 22.1668 190.662 22.8281 190.684C23.4895 190.684 24.0655 190.684 24.5561 190.684C25.4308 190.684 26.1028 190.63 26.5721 190.524C27.0628 190.417 27.4041 190.204 27.5961 189.884C27.7881 189.564 27.8841 189.105 27.8841 188.508C27.8841 187.974 27.8095 187.558 27.6601 187.26C27.5321 186.961 27.3081 186.716 26.9881 186.524C26.6681 186.332 26.2521 186.161 25.7401 186.012L21.2601 184.476C19.5535 183.878 18.3481 183.078 17.6441 182.076C16.9615 181.073 16.6201 179.74 16.6201 178.076C16.6201 176.817 16.7695 175.782 17.0681 174.972C17.3881 174.161 17.8681 173.542 18.5081 173.116C19.1481 172.668 19.9801 172.358 21.0041 172.188C22.0495 172.017 23.2975 171.932 24.7481 171.932ZM43.2741 178.204C43.8501 178.204 44.4795 178.236 45.1621 178.3C45.8448 178.342 46.5275 178.438 47.2101 178.588C47.9141 178.716 48.5541 178.908 49.1301 179.164L48.6181 182.14C47.7648 182.097 46.9435 182.076 46.1541 182.076C45.3861 182.054 44.6928 182.044 44.0741 182.044C43.1141 182.044 42.3568 182.172 41.8021 182.428C41.2475 182.684 40.8421 183.132 40.5861 183.772C40.3515 184.412 40.2341 185.318 40.2341 186.492C40.2341 187.665 40.3515 188.582 40.5861 189.244C40.8421 189.905 41.2475 190.364 41.8021 190.62C42.3568 190.876 43.1141 191.004 44.0741 191.004C44.4155 191.004 44.8528 190.993 45.3861 190.972C45.9195 190.95 46.4955 190.929 47.1141 190.908C47.7328 190.865 48.3408 190.801 48.9381 190.716L49.3861 193.724C48.5328 194.108 47.5621 194.385 46.4741 194.556C45.3861 194.726 44.3088 194.812 43.2421 194.812C41.3008 194.812 39.7435 194.545 38.5701 194.012C37.3968 193.457 36.5541 192.572 36.0421 191.356C35.5301 190.14 35.2741 188.518 35.2741 186.492C35.2741 184.465 35.5301 182.844 36.0421 181.628C36.5755 180.412 37.4288 179.537 38.6021 179.004C39.7755 178.47 41.3328 178.204 43.2741 178.204ZM59.5279 178.204C61.5119 178.204 63.1012 178.481 64.2959 179.036C65.4906 179.569 66.3439 180.444 66.8559 181.66C67.3892 182.876 67.6559 184.508 67.6559 186.556C67.6559 188.561 67.3892 190.172 66.8559 191.388C66.3439 192.604 65.4906 193.478 64.2959 194.012C63.1012 194.545 61.5119 194.812 59.5279 194.812C57.5652 194.812 55.9866 194.545 54.7919 194.012C53.5972 193.478 52.7332 192.604 52.1999 191.388C51.6666 190.172 51.3999 188.561 51.3999 186.556C51.3999 184.508 51.6666 182.876 52.1999 181.66C52.7332 180.444 53.5972 179.569 54.7919 179.036C55.9866 178.481 57.5652 178.204 59.5279 178.204ZM59.5279 181.628C58.7172 181.628 58.0772 181.766 57.6079 182.044C57.1386 182.321 56.8079 182.812 56.6159 183.516C56.4239 184.22 56.3279 185.233 56.3279 186.556C56.3279 187.836 56.4239 188.828 56.6159 189.532C56.8079 190.236 57.1386 190.726 57.6079 191.004C58.0772 191.26 58.7172 191.388 59.5279 191.388C60.3599 191.388 61.0106 191.26 61.4799 191.004C61.9492 190.726 62.2692 190.236 62.4399 189.532C62.6319 188.828 62.7279 187.836 62.7279 186.556C62.7279 185.233 62.6319 184.22 62.4399 183.516C62.2692 182.812 61.9492 182.321 61.4799 182.044C61.0106 181.766 60.3599 181.628 59.5279 181.628ZM74.5949 178.62L75.1709 181.756L75.6189 182.172V194.428H70.9149V178.62H74.5949ZM82.3069 178.204L81.8589 182.556H80.5469C79.8002 182.556 79.0216 182.662 78.2109 182.876C77.4002 183.089 76.3762 183.42 75.1389 183.868L74.8189 181.212C75.9282 180.23 77.0482 179.484 78.1789 178.972C79.3096 178.46 80.4082 178.204 81.4749 178.204H82.3069ZM91.7771 178.204C94.4438 178.204 96.3531 178.662 97.5051 179.58C98.6785 180.476 99.2651 181.82 99.2651 183.612C99.2865 185.041 98.9238 186.118 98.1771 186.844C97.4305 187.569 96.1398 187.932 94.3051 187.932H85.4731V185.276H93.0251C93.7291 185.276 94.1771 185.126 94.3691 184.828C94.5825 184.508 94.6891 184.07 94.6891 183.516C94.6891 182.769 94.4758 182.257 94.0491 181.98C93.6438 181.681 92.9398 181.532 91.9371 181.532C91.0625 181.51 90.3798 181.628 89.8891 181.884C89.3985 182.118 89.0571 182.566 88.8651 183.228C88.6731 183.889 88.5771 184.849 88.5771 186.108C88.5771 187.43 88.6945 188.454 88.9291 189.18C89.1638 189.884 89.5585 190.374 90.1131 190.652C90.6891 190.929 91.4785 191.068 92.4811 191.068C93.2065 191.068 94.1025 191.046 95.1691 191.004C96.2571 190.94 97.3451 190.844 98.4331 190.716L98.8811 193.628C98.2625 193.926 97.5585 194.161 96.7691 194.332C95.9798 194.502 95.1691 194.62 94.3371 194.684C93.5051 194.769 92.7051 194.812 91.9371 194.812C89.9318 194.812 88.3211 194.524 87.1051 193.948C85.8891 193.35 85.0038 192.444 84.4491 191.228C83.9158 190.012 83.6491 188.454 83.6491 186.556C83.6491 184.486 83.9158 182.844 84.4491 181.628C85.0038 180.412 85.8785 179.537 87.0731 179.004C88.2678 178.47 89.8358 178.204 91.7771 178.204ZM109.712 178.204C110.288 178.204 110.917 178.236 111.6 178.3C112.282 178.342 112.965 178.438 113.648 178.588C114.352 178.716 114.992 178.908 115.568 179.164L115.056 182.14C114.202 182.097 113.381 182.076 112.592 182.076C111.824 182.054 111.13 182.044 110.512 182.044C109.552 182.044 108.794 182.172 108.24 182.428C107.685 182.684 107.28 183.132 107.024 183.772C106.789 184.412 106.672 185.318 106.672 186.492C106.672 187.665 106.789 188.582 107.024 189.244C107.28 189.905 107.685 190.364 108.24 190.62C108.794 190.876 109.552 191.004 110.512 191.004C110.853 191.004 111.29 190.993 111.824 190.972C112.357 190.95 112.933 190.929 113.552 190.908C114.17 190.865 114.778 190.801 115.376 190.716L115.824 193.724C114.97 194.108 114 194.385 112.912 194.556C111.824 194.726 110.746 194.812 109.68 194.812C107.738 194.812 106.181 194.545 105.008 194.012C103.834 193.457 102.992 192.572 102.48 191.356C101.968 190.14 101.712 188.518 101.712 186.492C101.712 184.465 101.968 182.844 102.48 181.628C103.013 180.412 103.866 179.537 105.04 179.004C106.213 178.47 107.77 178.204 109.712 178.204ZM126.985 178.204C128.308 178.204 129.428 178.385 130.345 178.748C131.262 179.089 131.956 179.686 132.425 180.54C132.916 181.372 133.161 182.513 133.161 183.964V194.428H129.417L128.745 191.004L128.425 190.524V183.964C128.404 183.196 128.212 182.652 127.849 182.332C127.508 181.99 126.857 181.82 125.897 181.82C125.065 181.82 124.041 181.852 122.825 181.916C121.609 181.958 120.361 182.022 119.081 182.108L118.665 178.972C119.433 178.822 120.308 178.694 121.289 178.588C122.292 178.481 123.294 178.396 124.297 178.332C125.3 178.246 126.196 178.204 126.985 178.204ZM131.209 184.7L131.177 187.356H124.137C123.561 187.377 123.145 187.526 122.889 187.804C122.654 188.081 122.537 188.454 122.537 188.924V189.692C122.537 190.225 122.686 190.641 122.985 190.94C123.284 191.217 123.764 191.356 124.425 191.356C124.98 191.356 125.577 191.238 126.217 191.004C126.878 190.769 127.529 190.438 128.169 190.012C128.809 189.585 129.385 189.084 129.897 188.508V190.556C129.705 190.876 129.417 191.281 129.033 191.772C128.649 192.241 128.169 192.71 127.593 193.18C127.017 193.628 126.345 194.012 125.577 194.332C124.809 194.63 123.934 194.78 122.953 194.78C122.014 194.78 121.15 194.62 120.361 194.3C119.593 193.958 118.985 193.457 118.537 192.796C118.089 192.134 117.865 191.313 117.865 190.332V188.7C117.865 187.441 118.292 186.46 119.145 185.756C119.998 185.052 121.172 184.7 122.665 184.7H131.209ZM140.595 178.62L141.171 181.756L141.619 182.172V194.428H136.915V178.62H140.595ZM148.307 178.204L147.859 182.556H146.547C145.8 182.556 145.022 182.662 144.211 182.876C143.4 183.089 142.376 183.42 141.139 183.868L140.819 181.212C141.928 180.23 143.048 179.484 144.179 178.972C145.31 178.46 146.408 178.204 147.475 178.204H148.307ZM155.791 178.204C156.922 178.204 157.999 178.364 159.023 178.684C160.047 179.004 160.954 179.526 161.743 180.252L161.423 182.396C160.719 182.182 160.068 182.001 159.471 181.852C158.895 181.681 158.223 181.596 157.455 181.596C156.794 181.596 156.26 181.713 155.855 181.948C155.45 182.182 155.151 182.641 154.959 183.324C154.767 184.006 154.671 185.02 154.671 186.364C154.671 187.622 154.756 188.582 154.927 189.244C155.119 189.884 155.407 190.332 155.791 190.588C156.196 190.822 156.708 190.94 157.327 190.94C157.882 190.94 158.362 190.886 158.767 190.78C159.172 190.652 159.578 190.47 159.983 190.236C160.388 189.98 160.858 189.67 161.391 189.308L161.711 191.644C161.071 192.54 160.239 193.297 159.215 193.916C158.191 194.513 156.932 194.812 155.439 194.812C153.412 194.812 151.962 194.086 151.087 192.636C150.234 191.185 149.807 189.105 149.807 186.396C149.807 184.284 150.031 182.641 150.479 181.468C150.927 180.273 151.588 179.43 152.463 178.94C153.359 178.449 154.468 178.204 155.791 178.204ZM165.615 172.028V194.428H161.871L161.391 191.516L160.879 191.164V180.796L161.071 180.348C161.007 179.708 160.954 179.057 160.911 178.396C160.89 177.713 160.879 177.02 160.879 176.316V172.028H165.615ZM175.493 178.204C176.261 178.204 177.093 178.236 177.989 178.3C178.885 178.342 179.759 178.406 180.613 178.492C181.466 178.577 182.223 178.684 182.885 178.812L182.565 181.756C181.541 181.734 180.506 181.713 179.461 181.692C178.437 181.67 177.434 181.66 176.453 181.66C175.621 181.66 174.981 181.681 174.533 181.724C174.085 181.745 173.765 181.841 173.573 182.012C173.402 182.161 173.317 182.438 173.317 182.844C173.317 183.334 173.477 183.665 173.797 183.836C174.117 183.985 174.65 184.156 175.397 184.348L179.525 185.34C180.847 185.681 181.829 186.193 182.469 186.876C183.109 187.537 183.429 188.54 183.429 189.884C183.429 191.206 183.183 192.22 182.693 192.924C182.202 193.628 181.423 194.118 180.357 194.396C179.29 194.652 177.914 194.78 176.229 194.78C175.567 194.78 174.586 194.748 173.285 194.684C171.983 194.62 170.565 194.46 169.029 194.204L169.317 191.26C169.722 191.281 170.213 191.302 170.789 191.324C171.386 191.324 172.037 191.324 172.741 191.324C173.445 191.324 174.149 191.324 174.853 191.324C175.962 191.324 176.805 191.302 177.381 191.26C177.957 191.196 178.351 191.068 178.565 190.876C178.778 190.684 178.885 190.396 178.885 190.012C178.885 189.521 178.703 189.201 178.341 189.052C177.978 188.881 177.402 188.689 176.613 188.476L172.613 187.484C171.589 187.206 170.799 186.854 170.245 186.428C169.69 186.001 169.295 185.489 169.061 184.892C168.847 184.273 168.741 183.537 168.741 182.684C168.741 181.596 168.965 180.721 169.413 180.06C169.861 179.398 170.575 178.929 171.557 178.652C172.538 178.353 173.85 178.204 175.493 178.204Z" fill="#003A69"/>
<path d="M20.664 96.736C21.144 96.736 21.5813 96.752 21.976 96.784C22.3707 96.816 22.744 96.8587 23.096 96.912C23.4587 96.9653 23.8107 97.0453 24.152 97.152L23.96 98.928C23.5867 98.9067 23.224 98.8907 22.872 98.88C22.52 98.8693 22.168 98.864 21.816 98.864C21.464 98.8533 21.096 98.848 20.712 98.848C20.2533 98.848 19.8693 98.896 19.56 98.992C19.2613 99.088 19.0213 99.2693 18.84 99.536C18.6587 99.792 18.5253 100.165 18.44 100.656C18.3653 101.136 18.328 101.755 18.328 102.512C18.328 103.429 18.3867 104.149 18.504 104.672C18.6213 105.195 18.8187 105.568 19.096 105.792C19.3733 106.005 19.7467 106.112 20.216 106.112C20.536 106.112 20.8293 106.08 21.096 106.016C21.3627 105.952 21.608 105.867 21.832 105.76C22.056 105.643 22.264 105.531 22.456 105.424L22.712 106.576C22.552 106.8 22.312 107.04 21.992 107.296C21.6827 107.552 21.304 107.771 20.856 107.952C20.408 108.133 19.896 108.224 19.32 108.224C18.488 108.224 17.8053 108.027 17.272 107.632C16.7493 107.237 16.3653 106.619 16.12 105.776C15.8747 104.923 15.752 103.819 15.752 102.464C15.752 101.024 15.9067 99.888 16.216 99.056C16.536 98.224 17.0533 97.632 17.768 97.28C18.4933 96.9173 19.4587 96.736 20.664 96.736ZM24.536 101.632V108H22.728L22.392 106.32L22.168 105.872V101.632H24.536ZM28.191 100.096L28.479 101.664L28.703 101.872V108H26.335V100.096H28.191ZM32.047 99.888L31.823 102.08H31.167C30.7937 102.08 30.4043 102.133 29.999 102.24C29.5937 102.347 29.0817 102.507 28.463 102.72L28.303 101.392C28.8577 100.901 29.4177 100.528 29.983 100.272C30.5483 100.016 31.0977 99.888 31.631 99.888H32.047ZM36.7981 99.888C37.7901 99.888 38.5848 100.027 39.1821 100.304C39.7795 100.571 40.2061 101.008 40.4621 101.616C40.7288 102.224 40.8621 103.04 40.8621 104.064C40.8621 105.067 40.7288 105.872 40.4621 106.48C40.2061 107.088 39.7795 107.525 39.1821 107.792C38.5848 108.059 37.7901 108.192 36.7981 108.192C35.8168 108.192 35.0221 108.059 34.4141 107.792C33.8168 107.525 33.3848 107.088 33.1181 106.48C32.8515 105.872 32.7181 105.067 32.7181 104.064C32.7181 103.04 32.8515 102.224 33.1181 101.616C33.3848 101.008 33.8168 100.571 34.4141 100.304C35.0221 100.027 35.8168 99.888 36.7981 99.888ZM36.7981 101.616C36.3928 101.616 36.0728 101.685 35.8381 101.824C35.6035 101.963 35.4381 102.208 35.3421 102.56C35.2461 102.912 35.1981 103.413 35.1981 104.064C35.1981 104.704 35.2461 105.2 35.3421 105.552C35.4381 105.904 35.6035 106.149 35.8381 106.288C36.0728 106.416 36.3928 106.48 36.7981 106.48C37.2035 106.48 37.5235 106.416 37.7581 106.288C37.9928 106.149 38.1581 105.904 38.2541 105.552C38.3501 105.2 38.3981 104.704 38.3981 104.064C38.3981 103.413 38.3501 102.912 38.2541 102.56C38.1581 102.208 37.9928 101.963 37.7581 101.824C37.5235 101.685 37.2035 101.616 36.7981 101.616ZM45.4836 99.888C45.8676 99.888 46.2836 99.904 46.7316 99.936C47.1796 99.9573 47.617 99.9893 48.0436 100.032C48.4703 100.075 48.849 100.128 49.1796 100.192L49.0196 101.664C48.5076 101.653 47.9903 101.648 47.4676 101.648C46.9556 101.637 46.4543 101.632 45.9636 101.632C45.5476 101.621 45.2276 101.627 45.0036 101.648C44.7796 101.669 44.6196 101.723 44.5236 101.808C44.4383 101.883 44.3956 102.021 44.3956 102.224C44.3956 102.459 44.4756 102.619 44.6356 102.704C44.7956 102.779 45.0623 102.864 45.4356 102.96L47.4996 103.456C48.161 103.627 48.6516 103.883 48.9716 104.224C49.2916 104.555 49.4516 105.056 49.4516 105.728C49.4516 106.389 49.329 106.896 49.0836 107.248C48.8383 107.6 48.449 107.845 47.9156 107.984C47.3823 108.112 46.6943 108.176 45.8516 108.176C45.521 108.176 45.0303 108.16 44.3796 108.128C43.729 108.096 43.0143 108.016 42.2356 107.888L42.3956 106.416C42.5876 106.427 42.833 106.437 43.1316 106.448C43.4303 106.448 43.7556 106.448 44.1076 106.448C44.4596 106.448 44.8116 106.448 45.1636 106.448C45.7076 106.448 46.1236 106.437 46.4116 106.416C46.6996 106.384 46.897 106.32 47.0036 106.224C47.1103 106.128 47.1636 105.984 47.1636 105.792C47.1636 105.557 47.073 105.397 46.8916 105.312C46.7103 105.227 46.4223 105.136 46.0276 105.04L44.0276 104.544C43.5263 104.405 43.137 104.229 42.8596 104.016C42.5823 103.803 42.385 103.541 42.2676 103.232C42.161 102.923 42.1076 102.555 42.1076 102.128C42.1076 101.584 42.2143 101.152 42.4276 100.832C42.6516 100.501 43.009 100.261 43.4996 100.112C44.001 99.9627 44.6623 99.888 45.4836 99.888ZM53.9836 99.888C54.3676 99.888 54.7836 99.904 55.2316 99.936C55.6796 99.9573 56.117 99.9893 56.5436 100.032C56.9703 100.075 57.349 100.128 57.6796 100.192L57.5196 101.664C57.0076 101.653 56.4903 101.648 55.9676 101.648C55.4556 101.637 54.9543 101.632 54.4636 101.632C54.0476 101.621 53.7276 101.627 53.5036 101.648C53.2796 101.669 53.1196 101.723 53.0236 101.808C52.9383 101.883 52.8956 102.021 52.8956 102.224C52.8956 102.459 52.9756 102.619 53.1356 102.704C53.2956 102.779 53.5623 102.864 53.9356 102.96L55.9996 103.456C56.661 103.627 57.1516 103.883 57.4716 104.224C57.7916 104.555 57.9516 105.056 57.9516 105.728C57.9516 106.389 57.829 106.896 57.5836 107.248C57.3383 107.6 56.949 107.845 56.4156 107.984C55.8823 108.112 55.1943 108.176 54.3516 108.176C54.021 108.176 53.5303 108.16 52.8796 108.128C52.229 108.096 51.5143 108.016 50.7356 107.888L50.8956 106.416C51.0876 106.427 51.333 106.437 51.6316 106.448C51.9303 106.448 52.2556 106.448 52.6076 106.448C52.9596 106.448 53.3116 106.448 53.6636 106.448C54.2076 106.448 54.6236 106.437 54.9116 106.416C55.1996 106.384 55.397 106.32 55.5036 106.224C55.6103 106.128 55.6636 105.984 55.6636 105.792C55.6636 105.557 55.573 105.397 55.3916 105.312C55.2103 105.227 54.9223 105.136 54.5276 105.04L52.5276 104.544C52.0263 104.405 51.637 104.229 51.3596 104.016C51.0823 103.803 50.885 103.541 50.7676 103.232C50.661 102.923 50.6076 102.555 50.6076 102.128C50.6076 101.584 50.7143 101.152 50.9276 100.832C51.1516 100.501 51.509 100.261 51.9996 100.112C52.501 99.9627 53.1623 99.888 53.9836 99.888ZM68.1288 99.904C69.1208 99.904 69.8301 100.267 70.2568 100.992C70.6834 101.717 70.8968 102.757 70.8968 104.112C70.8968 105.168 70.7848 105.995 70.5608 106.592C70.3474 107.189 70.0168 107.611 69.5688 107.856C69.1314 108.091 68.5821 108.208 67.9208 108.208C67.3554 108.208 66.8168 108.128 66.3048 107.968C65.7928 107.808 65.3394 107.541 64.9448 107.168L65.1048 106.112C65.4568 106.219 65.7768 106.315 66.0648 106.4C66.3634 106.475 66.6994 106.512 67.0728 106.512C67.4141 106.512 67.6861 106.453 67.8888 106.336C68.0914 106.219 68.2354 105.989 68.3208 105.648C68.4168 105.296 68.4648 104.789 68.4648 104.128C68.4648 103.477 68.4221 102.981 68.3368 102.64C68.2514 102.288 68.1128 102.048 67.9208 101.92C67.7288 101.781 67.4781 101.712 67.1688 101.712C66.8274 101.712 66.5128 101.781 66.2248 101.92C65.9368 102.048 65.6114 102.235 65.2488 102.48L64.9448 101.392C65.1581 101.104 65.4301 100.848 65.7608 100.624C66.1021 100.4 66.4754 100.224 66.8808 100.096C67.2861 99.968 67.7021 99.904 68.1288 99.904ZM64.8488 100.096L65.0728 101.536L65.2968 101.776V106.912L65.2168 107.104C65.2488 107.424 65.2701 107.755 65.2808 108.096C65.3021 108.448 65.3074 108.795 65.2968 109.136V111.04H62.9288V100.096H64.8488ZM74.3785 100.096L74.6665 101.664L74.8905 101.872V108H72.5225V100.096H74.3785ZM78.2345 99.888L78.0105 102.08H77.3545C76.9812 102.08 76.5918 102.133 76.1865 102.24C75.7812 102.347 75.2692 102.507 74.6505 102.72L74.4905 101.392C75.0452 100.901 75.6052 100.528 76.1705 100.272C76.7358 100.016 77.2852 99.888 77.8185 99.888H78.2345ZM82.9856 99.888C83.9776 99.888 84.7723 100.027 85.3696 100.304C85.967 100.571 86.3936 101.008 86.6496 101.616C86.9163 102.224 87.0496 103.04 87.0496 104.064C87.0496 105.067 86.9163 105.872 86.6496 106.48C86.3936 107.088 85.967 107.525 85.3696 107.792C84.7723 108.059 83.9776 108.192 82.9856 108.192C82.0043 108.192 81.2096 108.059 80.6016 107.792C80.0043 107.525 79.5723 107.088 79.3056 106.48C79.039 105.872 78.9056 105.067 78.9056 104.064C78.9056 103.04 79.039 102.224 79.3056 101.616C79.5723 101.008 80.0043 100.571 80.6016 100.304C81.2096 100.027 82.0043 99.888 82.9856 99.888ZM82.9856 101.616C82.5803 101.616 82.2603 101.685 82.0256 101.824C81.791 101.963 81.6256 102.208 81.5296 102.56C81.4336 102.912 81.3856 103.413 81.3856 104.064C81.3856 104.704 81.4336 105.2 81.5296 105.552C81.6256 105.904 81.791 106.149 82.0256 106.288C82.2603 106.416 82.5803 106.48 82.9856 106.48C83.391 106.48 83.711 106.416 83.9456 106.288C84.1803 106.149 84.3456 105.904 84.4416 105.552C84.5376 105.2 84.5856 104.704 84.5856 104.064C84.5856 103.413 84.5376 102.912 84.4416 102.56C84.3456 102.208 84.1803 101.963 83.9456 101.824C83.711 101.685 83.391 101.616 82.9856 101.616ZM91.9123 96.464C92.1789 96.464 92.5203 96.48 92.9363 96.512C93.3523 96.5333 93.7203 96.576 94.0403 96.64V98.16H92.7603C92.3549 98.16 92.0723 98.2453 91.9123 98.416C91.7629 98.5867 91.6883 98.8853 91.6883 99.312V108H89.3043V99.008C89.3043 98.496 89.3896 98.048 89.5603 97.664C89.7309 97.28 90.0029 96.9867 90.3763 96.784C90.7603 96.5707 91.2723 96.464 91.9123 96.464ZM95.0163 100.096V101.648H87.9443V100.176L89.3523 100.096H95.0163ZM97.2883 100.096V108H94.9363V100.096H97.2883ZM96.6163 96.528C97.0856 96.528 97.3203 96.7627 97.3203 97.232V98.096C97.3203 98.576 97.0856 98.816 96.6163 98.816H95.6083C95.1389 98.816 94.9043 98.576 94.9043 98.096V97.232C94.9043 96.7627 95.1389 96.528 95.6083 96.528H96.6163ZM102.376 97.904V105.472C102.376 105.76 102.44 105.968 102.568 106.096C102.707 106.213 102.931 106.272 103.24 106.272H104.264L104.52 107.872C104.328 107.936 104.093 107.989 103.816 108.032C103.539 108.085 103.261 108.123 102.984 108.144C102.707 108.176 102.472 108.192 102.28 108.192C101.565 108.192 101.005 108 100.6 107.616C100.205 107.232 100.008 106.693 100.008 106L99.9921 97.904H102.376ZM104.584 100.096V101.648H98.6161V100.176L100.152 100.096H104.584ZM112.984 99.888C113.272 99.888 113.586 99.904 113.928 99.936C114.269 99.9573 114.61 100.005 114.952 100.08C115.304 100.144 115.624 100.24 115.912 100.368L115.656 101.856C115.229 101.845 114.818 101.835 114.424 101.824C114.04 101.813 113.693 101.808 113.384 101.808C112.904 101.808 112.525 101.872 112.248 102C111.97 102.128 111.768 102.357 111.64 102.688C111.522 103.008 111.464 103.456 111.464 104.032C111.464 104.619 111.522 105.077 111.64 105.408C111.768 105.739 111.97 105.968 112.248 106.096C112.525 106.224 112.904 106.288 113.384 106.288C113.554 106.288 113.773 106.283 114.04 106.272C114.306 106.261 114.594 106.251 114.904 106.24C115.213 106.219 115.517 106.187 115.816 106.144L116.04 107.648C115.613 107.84 115.128 107.979 114.584 108.064C114.04 108.149 113.501 108.192 112.968 108.192C111.986 108.192 111.202 108.059 110.616 107.792C110.04 107.515 109.624 107.072 109.368 106.464C109.112 105.856 108.984 105.045 108.984 104.032C108.984 103.019 109.112 102.208 109.368 101.6C109.634 100.992 110.061 100.555 110.648 100.288C111.234 100.021 112.013 99.888 112.984 99.888ZM121.111 99.888C122.103 99.888 122.897 100.027 123.495 100.304C124.092 100.571 124.519 101.008 124.775 101.616C125.041 102.224 125.175 103.04 125.175 104.064C125.175 105.067 125.041 105.872 124.775 106.48C124.519 107.088 124.092 107.525 123.495 107.792C122.897 108.059 122.103 108.192 121.111 108.192C120.129 108.192 119.335 108.059 118.727 107.792C118.129 107.525 117.697 107.088 117.431 106.48C117.164 105.872 117.031 105.067 117.031 104.064C117.031 103.04 117.164 102.224 117.431 101.616C117.697 101.008 118.129 100.571 118.727 100.304C119.335 100.027 120.129 99.888 121.111 99.888ZM121.111 101.616C120.705 101.616 120.385 101.685 120.151 101.824C119.916 101.963 119.751 102.208 119.655 102.56C119.559 102.912 119.511 103.413 119.511 104.064C119.511 104.704 119.559 105.2 119.655 105.552C119.751 105.904 119.916 106.149 120.151 106.288C120.385 106.416 120.705 106.48 121.111 106.48C121.516 106.48 121.836 106.416 122.071 106.288C122.305 106.149 122.471 105.904 122.567 105.552C122.663 105.2 122.711 104.704 122.711 104.064C122.711 103.413 122.663 102.912 122.567 102.56C122.471 102.208 122.305 101.963 122.071 101.824C121.836 101.685 121.516 101.616 121.111 101.616ZM132.292 99.888C133.785 99.888 134.532 100.619 134.532 102.08V108H132.164V102.816C132.164 102.464 132.1 102.224 131.972 102.096C131.844 101.957 131.625 101.888 131.316 101.888C130.975 101.888 130.623 101.957 130.26 102.096C129.897 102.224 129.449 102.427 128.916 102.704L128.804 101.376C129.369 100.896 129.945 100.528 130.532 100.272C131.129 100.016 131.716 99.888 132.292 99.888ZM128.692 100.096L128.964 101.664L129.156 101.872V108H126.788V100.096H128.692ZM139.406 99.888C139.79 99.888 140.206 99.904 140.654 99.936C141.102 99.9573 141.539 99.9893 141.966 100.032C142.392 100.075 142.771 100.128 143.102 100.192L142.942 101.664C142.43 101.653 141.912 101.648 141.39 101.648C140.878 101.637 140.376 101.632 139.886 101.632C139.47 101.621 139.15 101.627 138.926 101.648C138.702 101.669 138.542 101.723 138.446 101.808C138.36 101.883 138.318 102.021 138.318 102.224C138.318 102.459 138.398 102.619 138.558 102.704C138.718 102.779 138.984 102.864 139.358 102.96L141.422 103.456C142.083 103.627 142.574 103.883 142.894 104.224C143.214 104.555 143.374 105.056 143.374 105.728C143.374 106.389 143.251 106.896 143.006 107.248C142.76 107.6 142.371 107.845 141.838 107.984C141.304 108.112 140.616 108.176 139.774 108.176C139.443 108.176 138.952 108.16 138.302 108.128C137.651 108.096 136.936 108.016 136.158 107.888L136.318 106.416C136.51 106.427 136.755 106.437 137.054 106.448C137.352 106.448 137.678 106.448 138.03 106.448C138.382 106.448 138.734 106.448 139.086 106.448C139.63 106.448 140.046 106.437 140.334 106.416C140.622 106.384 140.819 106.32 140.926 106.224C141.032 106.128 141.086 105.984 141.086 105.792C141.086 105.557 140.995 105.397 140.814 105.312C140.632 105.227 140.344 105.136 139.95 105.04L137.95 104.544C137.448 104.405 137.059 104.229 136.782 104.016C136.504 103.803 136.307 103.541 136.19 103.232C136.083 102.923 136.03 102.555 136.03 102.128C136.03 101.584 136.136 101.152 136.35 100.832C136.574 100.501 136.931 100.261 137.422 100.112C137.923 99.9627 138.584 99.888 139.406 99.888ZM147.314 100.096V108H144.962V100.096H147.314ZM146.658 96.608C147.127 96.608 147.362 96.848 147.362 97.328V98.176C147.362 98.656 147.127 98.896 146.658 98.896H145.634C145.164 98.896 144.93 98.656 144.93 98.176V97.328C144.93 96.848 145.164 96.608 145.634 96.608H146.658ZM152.023 99.888C152.578 99.888 153.111 99.968 153.623 100.128C154.146 100.288 154.605 100.549 154.999 100.912L154.839 102C154.477 101.893 154.151 101.797 153.863 101.712C153.575 101.627 153.239 101.584 152.855 101.584C152.525 101.584 152.258 101.643 152.055 101.76C151.853 101.877 151.703 102.107 151.607 102.448C151.511 102.789 151.463 103.296 151.463 103.968C151.463 104.597 151.506 105.077 151.591 105.408C151.687 105.728 151.831 105.952 152.023 106.08C152.226 106.197 152.482 106.256 152.791 106.256C153.069 106.256 153.309 106.229 153.511 106.176C153.714 106.112 153.917 106.021 154.119 105.904C154.322 105.776 154.551 105.621 154.807 105.44L154.983 106.608C154.663 107.056 154.247 107.435 153.735 107.744C153.223 108.043 152.594 108.192 151.847 108.192C150.834 108.192 150.109 107.829 149.671 107.104C149.245 106.379 149.031 105.339 149.031 103.984C149.031 102.928 149.138 102.107 149.351 101.52C149.575 100.923 149.911 100.501 150.359 100.256C150.807 100.011 151.362 99.888 152.023 99.888ZM156.935 96.8V108H155.063L154.823 106.544L154.567 106.368V101.184L154.663 100.976C154.631 100.645 154.605 100.315 154.583 99.984C154.573 99.6427 154.567 99.296 154.567 98.944V96.8H156.935ZM162.61 99.888C163.944 99.888 164.898 100.117 165.474 100.576C166.061 101.024 166.354 101.696 166.354 102.592C166.365 103.317 166.184 103.861 165.81 104.224C165.437 104.576 164.792 104.752 163.874 104.752H159.458V103.424H163.218C163.581 103.424 163.81 103.349 163.906 103.2C164.013 103.04 164.066 102.821 164.066 102.544C164.056 102.171 163.944 101.915 163.73 101.776C163.528 101.627 163.181 101.552 162.69 101.552C162.253 101.552 161.912 101.611 161.666 101.728C161.421 101.845 161.25 102.069 161.154 102.4C161.058 102.731 161.01 103.211 161.01 103.84C161.01 104.501 161.069 105.013 161.186 105.376C161.304 105.728 161.501 105.973 161.778 106.112C162.066 106.251 162.461 106.32 162.962 106.32C163.325 106.32 163.773 106.309 164.306 106.288C164.85 106.256 165.394 106.208 165.938 106.144L166.162 107.6C165.853 107.749 165.501 107.867 165.106 107.952C164.712 108.037 164.306 108.096 163.89 108.128C163.474 108.171 163.074 108.192 162.69 108.192C161.688 108.192 160.877 108.048 160.258 107.76C159.65 107.461 159.208 107.008 158.93 106.4C158.664 105.792 158.53 105.013 158.53 104.064C158.53 103.029 158.669 102.208 158.946 101.6C159.224 100.992 159.661 100.555 160.258 100.288C160.856 100.021 161.64 99.888 162.61 99.888ZM169.754 100.096L170.042 101.664L170.266 101.872V108H167.898V100.096H169.754ZM173.61 99.888L173.386 102.08H172.73C172.356 102.08 171.967 102.133 171.562 102.24C171.156 102.347 170.644 102.507 170.026 102.72L169.866 101.392C170.42 100.901 170.98 100.528 171.546 100.272C172.111 100.016 172.66 99.888 173.194 99.888H173.61ZM177.142 100.096V108H174.79V100.096H177.142ZM176.486 96.608C176.955 96.608 177.19 96.848 177.19 97.328V98.176C177.19 98.656 176.955 98.896 176.486 98.896H175.462C174.992 98.896 174.758 98.656 174.758 98.176V97.328C174.758 96.848 174.992 96.608 175.462 96.608H176.486ZM184.652 99.888C186.145 99.888 186.892 100.619 186.892 102.08V108H184.524V102.816C184.524 102.464 184.46 102.224 184.332 102.096C184.204 101.957 183.985 101.888 183.676 101.888C183.334 101.888 182.982 101.957 182.62 102.096C182.257 102.224 181.809 102.427 181.276 102.704L181.164 101.376C181.729 100.896 182.305 100.528 182.891 100.272C183.489 100.016 184.076 99.888 184.652 99.888ZM181.052 100.096L181.324 101.664L181.516 101.872V108H179.148V100.096H181.052ZM192.277 99.888C193.194 99.888 193.92 99.9733 194.453 100.144C194.997 100.315 195.386 100.581 195.621 100.944C195.866 101.307 195.989 101.792 195.989 102.4C195.989 102.987 195.872 103.467 195.637 103.84C195.402 104.203 195.008 104.469 194.453 104.64C193.909 104.811 193.178 104.896 192.261 104.896C191.344 104.896 190.608 104.811 190.053 104.64C189.509 104.469 189.114 104.203 188.869 103.84C188.634 103.477 188.517 102.997 188.517 102.4C188.517 101.803 188.634 101.323 188.869 100.96C189.114 100.587 189.514 100.315 190.069 100.144C190.624 99.9733 191.36 99.888 192.277 99.888ZM192.261 101.344C191.674 101.344 191.269 101.424 191.045 101.584C190.821 101.733 190.709 102.005 190.709 102.4C190.709 102.795 190.821 103.072 191.045 103.232C191.269 103.392 191.674 103.472 192.261 103.472C192.848 103.472 193.248 103.392 193.461 103.232C193.674 103.072 193.781 102.795 193.781 102.4C193.781 102.005 193.674 101.733 193.461 101.584C193.248 101.424 192.848 101.344 192.261 101.344ZM196.901 100.096L196.773 101.104L194.661 101.376L194.085 100.096H196.901ZM189.877 104.416L191.061 104.624C190.912 104.709 190.805 104.843 190.741 105.024C190.688 105.205 190.704 105.376 190.789 105.536C190.874 105.696 191.061 105.792 191.349 105.824L194.261 106.16C195.093 106.245 195.68 106.48 196.021 106.864C196.362 107.237 196.533 107.787 196.533 108.512C196.533 109.195 196.394 109.717 196.117 110.08C195.84 110.453 195.397 110.709 194.789 110.848C194.181 110.987 193.37 111.056 192.357 111.056C191.525 111.056 190.837 111.013 190.293 110.928C189.76 110.853 189.333 110.725 189.013 110.544C188.704 110.363 188.485 110.123 188.357 109.824C188.24 109.536 188.181 109.173 188.181 108.736C188.181 108.405 188.24 108.123 188.357 107.888C188.474 107.643 188.672 107.424 188.949 107.232C189.237 107.04 189.637 106.864 190.149 106.704L191.317 106.288L192.165 106.624L191.525 107.04C191.258 107.232 191.04 107.397 190.869 107.536C190.709 107.664 190.592 107.792 190.517 107.92C190.453 108.048 190.421 108.219 190.421 108.432C190.421 108.677 190.474 108.864 190.581 108.992C190.688 109.131 190.88 109.221 191.157 109.264C191.445 109.317 191.834 109.344 192.325 109.344C192.837 109.344 193.237 109.317 193.525 109.264C193.813 109.221 194.01 109.136 194.117 109.008C194.234 108.88 194.293 108.699 194.293 108.464C194.293 108.261 194.25 108.112 194.165 108.016C194.09 107.92 193.957 107.851 193.765 107.808C193.584 107.755 193.328 107.707 192.997 107.664L190.517 107.392C190.101 107.349 189.776 107.237 189.541 107.056C189.306 106.875 189.141 106.656 189.045 106.4C188.96 106.133 188.938 105.867 188.981 105.6C189.024 105.333 189.12 105.093 189.269 104.88C189.429 104.667 189.632 104.512 189.877 104.416ZM205.267 99.888C206.259 99.888 207.054 100.027 207.651 100.304C208.248 100.571 208.675 101.008 208.931 101.616C209.198 102.224 209.331 103.04 209.331 104.064C209.331 105.067 209.198 105.872 208.931 106.48C208.675 107.088 208.248 107.525 207.651 107.792C207.054 108.059 206.259 108.192 205.267 108.192C204.286 108.192 203.491 108.059 202.883 107.792C202.286 107.525 201.854 107.088 201.587 106.48C201.32 105.872 201.187 105.067 201.187 104.064C201.187 103.04 201.32 102.224 201.587 101.616C201.854 101.008 202.286 100.571 202.883 100.304C203.491 100.027 204.286 99.888 205.267 99.888ZM205.267 101.616C204.862 101.616 204.542 101.685 204.307 101.824C204.072 101.963 203.907 102.208 203.811 102.56C203.715 102.912 203.667 103.413 203.667 104.064C203.667 104.704 203.715 105.2 203.811 105.552C203.907 105.904 204.072 106.149 204.307 106.288C204.542 106.416 204.862 106.48 205.267 106.48C205.672 106.48 205.992 106.416 206.227 106.288C206.462 106.149 206.627 105.904 206.723 105.552C206.819 105.2 206.867 104.704 206.867 104.064C206.867 103.413 206.819 102.912 206.723 102.56C206.627 102.208 206.462 101.963 206.227 101.824C205.992 101.685 205.672 101.616 205.267 101.616ZM216.448 99.888C217.942 99.888 218.688 100.619 218.688 102.08V108H216.32V102.816C216.32 102.464 216.256 102.224 216.128 102.096C216 101.957 215.782 101.888 215.472 101.888C215.131 101.888 214.779 101.957 214.416 102.096C214.054 102.224 213.606 102.427 213.072 102.704L212.96 101.376C213.526 100.896 214.102 100.528 214.688 100.272C215.286 100.016 215.872 99.888 216.448 99.888ZM212.848 100.096L213.12 101.664L213.312 101.872V108H210.944V100.096H212.848ZM222.938 96.8L222.922 105.472C222.922 105.739 223.002 105.941 223.162 106.08C223.322 106.208 223.556 106.272 223.866 106.272H224.506L224.778 107.872C224.65 107.936 224.468 107.989 224.234 108.032C223.999 108.085 223.759 108.123 223.514 108.144C223.268 108.176 223.06 108.192 222.89 108.192C222.175 108.192 221.61 108.005 221.194 107.632C220.778 107.259 220.57 106.736 220.57 106.064V96.8H222.938ZM233.35 100.096L230.518 108.096C230.39 108.491 230.208 108.885 229.974 109.28C229.75 109.685 229.462 110.048 229.11 110.368C228.768 110.688 228.352 110.928 227.862 111.088C227.382 111.259 226.811 111.301 226.15 111.216L225.974 109.872C226.624 109.701 227.131 109.472 227.494 109.184C227.856 108.896 228.139 108.517 228.342 108.048L228.838 106.944C228.934 106.709 229.024 106.427 229.11 106.096C229.206 105.755 229.286 105.461 229.35 105.216L230.822 100.096H233.35ZM227.078 100.096L228.582 105.216C228.624 105.419 228.667 105.621 228.71 105.824C228.752 106.027 228.79 106.229 228.822 106.432H229.254L228.502 108H227.926C227.744 108 227.584 107.947 227.446 107.84C227.307 107.733 227.211 107.595 227.158 107.424L224.55 100.096H227.078ZM241.234 99.888C241.522 99.888 241.836 99.904 242.178 99.936C242.519 99.9573 242.86 100.005 243.202 100.08C243.554 100.144 243.874 100.24 244.162 100.368L243.906 101.856C243.479 101.845 243.068 101.835 242.674 101.824C242.29 101.813 241.943 101.808 241.634 101.808C241.154 101.808 240.775 101.872 240.498 102C240.22 102.128 240.018 102.357 239.89 102.688C239.772 103.008 239.714 103.456 239.714 104.032C239.714 104.619 239.772 105.077 239.89 105.408C240.018 105.739 240.22 105.968 240.498 106.096C240.775 106.224 241.154 106.288 241.634 106.288C241.804 106.288 242.023 106.283 242.29 106.272C242.556 106.261 242.844 106.251 243.154 106.24C243.463 106.219 243.767 106.187 244.066 106.144L244.29 107.648C243.863 107.84 243.378 107.979 242.834 108.064C242.29 108.149 241.751 108.192 241.218 108.192C240.236 108.192 239.452 108.059 238.866 107.792C238.29 107.515 237.874 107.072 237.618 106.464C237.362 105.856 237.234 105.045 237.234 104.032C237.234 103.019 237.362 102.208 237.618 101.6C237.884 100.992 238.311 100.555 238.898 100.288C239.484 100.021 240.263 99.888 241.234 99.888ZM249.361 99.888C250.353 99.888 251.147 100.027 251.745 100.304C252.342 100.571 252.769 101.008 253.025 101.616C253.291 102.224 253.425 103.04 253.425 104.064C253.425 105.067 253.291 105.872 253.025 106.48C252.769 107.088 252.342 107.525 251.745 107.792C251.147 108.059 250.353 108.192 249.361 108.192C248.379 108.192 247.585 108.059 246.977 107.792C246.379 107.525 245.947 107.088 245.681 106.48C245.414 105.872 245.281 105.067 245.281 104.064C245.281 103.04 245.414 102.224 245.681 101.616C245.947 101.008 246.379 100.571 246.977 100.304C247.585 100.027 248.379 99.888 249.361 99.888ZM249.361 101.616C248.955 101.616 248.635 101.685 248.401 101.824C248.166 101.963 248.001 102.208 247.905 102.56C247.809 102.912 247.761 103.413 247.761 104.064C247.761 104.704 247.809 105.2 247.905 105.552C248.001 105.904 248.166 106.149 248.401 106.288C248.635 106.416 248.955 106.48 249.361 106.48C249.766 106.48 250.086 106.416 250.321 106.288C250.555 106.149 250.721 105.904 250.817 105.552C250.913 105.2 250.961 104.704 250.961 104.064C250.961 103.413 250.913 102.912 250.817 102.56C250.721 102.208 250.555 101.963 250.321 101.824C250.086 101.685 249.766 101.616 249.361 101.616ZM256.894 100.096L257.182 101.664L257.406 101.872V108H255.038V100.096H256.894ZM260.75 99.888L260.526 102.08H259.87C259.497 102.08 259.107 102.133 258.702 102.24C258.297 102.347 257.785 102.507 257.166 102.72L257.006 101.392C257.561 100.901 258.121 100.528 258.686 100.272C259.251 100.016 259.801 99.888 260.334 99.888H260.75ZM267.066 99.904C268.058 99.904 268.768 100.267 269.194 100.992C269.621 101.717 269.834 102.757 269.834 104.112C269.834 105.168 269.722 105.995 269.498 106.592C269.285 107.189 268.954 107.611 268.506 107.856C268.069 108.091 267.52 108.208 266.858 108.208C266.293 108.208 265.754 108.128 265.242 107.968C264.73 107.808 264.277 107.541 263.882 107.168L264.042 106.112C264.394 106.219 264.714 106.315 265.002 106.4C265.301 106.475 265.637 106.512 266.01 106.512C266.352 106.512 266.624 106.453 266.826 106.336C267.029 106.219 267.173 105.989 267.258 105.648C267.354 105.296 267.402 104.789 267.402 104.128C267.402 103.477 267.36 102.981 267.274 102.64C267.189 102.288 267.05 102.048 266.858 101.92C266.666 101.781 266.416 101.712 266.106 101.712C265.765 101.712 265.45 101.781 265.162 101.92C264.874 102.048 264.549 102.235 264.186 102.48L263.882 101.392C264.096 101.104 264.368 100.848 264.698 100.624C265.04 100.4 265.413 100.224 265.818 100.096C266.224 99.968 266.64 99.904 267.066 99.904ZM263.786 100.096L264.01 101.536L264.234 101.776V106.912L264.154 107.104C264.186 107.424 264.208 107.755 264.218 108.096C264.24 108.448 264.245 108.795 264.234 109.136V111.04H261.866V100.096H263.786ZM275.22 99.888C276.212 99.888 277.007 100.027 277.604 100.304C278.201 100.571 278.628 101.008 278.884 101.616C279.151 102.224 279.284 103.04 279.284 104.064C279.284 105.067 279.151 105.872 278.884 106.48C278.628 107.088 278.201 107.525 277.604 107.792C277.007 108.059 276.212 108.192 275.22 108.192C274.239 108.192 273.444 108.059 272.836 107.792C272.239 107.525 271.807 107.088 271.54 106.48C271.273 105.872 271.14 105.067 271.14 104.064C271.14 103.04 271.273 102.224 271.54 101.616C271.807 101.008 272.239 100.571 272.836 100.304C273.444 100.027 274.239 99.888 275.22 99.888ZM275.22 101.616C274.815 101.616 274.495 101.685 274.26 101.824C274.025 101.963 273.86 102.208 273.764 102.56C273.668 102.912 273.62 103.413 273.62 104.064C273.62 104.704 273.668 105.2 273.764 105.552C273.86 105.904 274.025 106.149 274.26 106.288C274.495 106.416 274.815 106.48 275.22 106.48C275.625 106.48 275.945 106.416 276.18 106.288C276.415 106.149 276.58 105.904 276.676 105.552C276.772 105.2 276.82 104.704 276.82 104.064C276.82 103.413 276.772 102.912 276.676 102.56C276.58 102.208 276.415 101.963 276.18 101.824C275.945 101.685 275.625 101.616 275.22 101.616ZM282.754 100.096L283.042 101.664L283.266 101.872V108H280.898V100.096H282.754ZM286.61 99.888L286.386 102.08H285.73C285.356 102.08 284.967 102.133 284.562 102.24C284.156 102.347 283.644 102.507 283.026 102.72L282.866 101.392C283.42 100.901 283.98 100.528 284.546 100.272C285.111 100.016 285.66 99.888 286.194 99.888H286.61ZM291.855 99.888C292.516 99.888 293.076 99.9787 293.535 100.16C293.993 100.331 294.34 100.629 294.575 101.056C294.82 101.472 294.943 102.048 294.943 102.784V108H293.055L292.719 106.288L292.559 106.048V102.768C292.559 102.395 292.468 102.123 292.287 101.952C292.116 101.781 291.785 101.696 291.295 101.696C290.889 101.696 290.383 101.712 289.775 101.744C289.167 101.765 288.543 101.797 287.903 101.84L287.679 100.272C288.063 100.197 288.505 100.133 289.007 100.08C289.508 100.027 290.009 99.984 290.511 99.952C291.012 99.9093 291.46 99.888 291.855 99.888ZM293.967 103.136L293.951 104.464L290.431 104.48C290.143 104.48 289.935 104.549 289.807 104.688C289.689 104.827 289.631 105.013 289.631 105.248V105.632C289.631 105.899 289.705 106.107 289.855 106.256C290.004 106.395 290.244 106.464 290.575 106.464C290.852 106.464 291.151 106.405 291.471 106.288C291.801 106.171 292.127 106.005 292.447 105.792C292.767 105.579 293.049 105.328 293.295 105.04V106.064C293.199 106.224 293.055 106.427 292.863 106.672C292.681 106.907 292.447 107.141 292.159 107.376C291.871 107.6 291.535 107.792 291.151 107.952C290.767 108.112 290.329 108.192 289.839 108.192C289.359 108.192 288.927 108.107 288.543 107.936C288.159 107.765 287.855 107.515 287.631 107.184C287.407 106.853 287.295 106.443 287.295 105.952V105.136C287.295 104.507 287.508 104.016 287.935 103.664C288.361 103.312 288.948 103.136 289.695 103.136H293.967ZM299.892 97.904V105.472C299.892 105.76 299.956 105.968 300.084 106.096C300.222 106.213 300.446 106.272 300.756 106.272H301.78L302.036 107.872C301.844 107.936 301.609 107.989 301.332 108.032C301.054 108.085 300.777 108.123 300.5 108.144C300.222 108.176 299.988 108.192 299.796 108.192C299.081 108.192 298.521 108 298.116 107.616C297.721 107.232 297.524 106.693 297.524 106L297.508 97.904H299.892ZM302.1 100.096V101.648H296.132V100.176L297.668 100.096H302.1ZM307.11 99.888C308.444 99.888 309.398 100.117 309.974 100.576C310.561 101.024 310.854 101.696 310.854 102.592C310.865 103.317 310.684 103.861 310.31 104.224C309.937 104.576 309.292 104.752 308.374 104.752H303.958V103.424H307.718C308.081 103.424 308.31 103.349 308.406 103.2C308.513 103.04 308.566 102.821 308.566 102.544C308.556 102.171 308.444 101.915 308.23 101.776C308.028 101.627 307.681 101.552 307.19 101.552C306.753 101.552 306.412 101.611 306.166 101.728C305.921 101.845 305.75 102.069 305.654 102.4C305.558 102.731 305.51 103.211 305.51 103.84C305.51 104.501 305.569 105.013 305.686 105.376C305.804 105.728 306.001 105.973 306.278 106.112C306.566 106.251 306.961 106.32 307.462 106.32C307.825 106.32 308.273 106.309 308.806 106.288C309.35 106.256 309.894 106.208 310.438 106.144L310.662 107.6C310.353 107.749 310.001 107.867 309.606 107.952C309.212 108.037 308.806 108.096 308.39 108.128C307.974 108.171 307.574 108.192 307.19 108.192C306.188 108.192 305.377 108.048 304.758 107.76C304.15 107.461 303.708 107.008 303.43 106.4C303.164 105.792 303.03 105.013 303.03 104.064C303.03 103.029 303.169 102.208 303.446 101.6C303.724 100.992 304.161 100.555 304.758 100.288C305.356 100.021 306.14 99.888 307.11 99.888ZM318.267 100.096V108H315.915V100.096H318.267ZM317.611 96.608C318.08 96.608 318.315 96.848 318.315 97.328V98.176C318.315 98.656 318.08 98.896 317.611 98.896H316.587C316.117 98.896 315.883 98.656 315.883 98.176V97.328C315.883 96.848 316.117 96.608 316.587 96.608H317.611ZM325.777 99.888C327.27 99.888 328.017 100.619 328.017 102.08V108H325.649V102.816C325.649 102.464 325.585 102.224 325.457 102.096C325.329 101.957 325.11 101.888 324.801 101.888C324.459 101.888 324.107 101.957 323.745 102.096C323.382 102.224 322.934 102.427 322.401 102.704L322.289 101.376C322.854 100.896 323.43 100.528 324.016 100.272C324.614 100.016 325.201 99.888 325.777 99.888ZM322.177 100.096L322.449 101.664L322.641 101.872V108H320.273V100.096H322.177ZM333.194 96.464C333.386 96.464 333.637 96.4693 333.946 96.48C334.266 96.4907 334.586 96.512 334.906 96.544C335.237 96.5653 335.519 96.5973 335.754 96.64L335.546 98.16H334.042C333.637 98.16 333.354 98.24 333.194 98.4C333.034 98.56 332.954 98.8373 332.954 99.232V108H330.586V98.928C330.586 98.4267 330.666 97.9947 330.826 97.632C330.997 97.2693 331.274 96.9867 331.658 96.784C332.042 96.5707 332.554 96.464 333.194 96.464ZM335.162 100.096V101.648H329.21V100.176L330.634 100.096H335.162ZM340.017 99.888C341.009 99.888 341.804 100.027 342.401 100.304C342.998 100.571 343.425 101.008 343.681 101.616C343.948 102.224 344.081 103.04 344.081 104.064C344.081 105.067 343.948 105.872 343.681 106.48C343.425 107.088 342.998 107.525 342.401 107.792C341.804 108.059 341.009 108.192 340.017 108.192C339.036 108.192 338.241 108.059 337.633 107.792C337.036 107.525 336.604 107.088 336.337 106.48C336.07 105.872 335.937 105.067 335.937 104.064C335.937 103.04 336.07 102.224 336.337 101.616C336.604 101.008 337.036 100.571 337.633 100.304C338.241 100.027 339.036 99.888 340.017 99.888ZM340.017 101.616C339.612 101.616 339.292 101.685 339.057 101.824C338.822 101.963 338.657 102.208 338.561 102.56C338.465 102.912 338.417 103.413 338.417 104.064C338.417 104.704 338.465 105.2 338.561 105.552C338.657 105.904 338.822 106.149 339.057 106.288C339.292 106.416 339.612 106.48 340.017 106.48C340.422 106.48 340.742 106.416 340.977 106.288C341.212 106.149 341.377 105.904 341.473 105.552C341.569 105.2 341.617 104.704 341.617 104.064C341.617 103.413 341.569 102.912 341.473 102.56C341.377 102.208 341.212 101.963 340.977 101.824C340.742 101.685 340.422 101.616 340.017 101.616ZM347.55 100.096L347.838 101.664L348.062 101.872V108H345.694V100.096H347.55ZM351.406 99.888L351.182 102.08H350.526C350.153 102.08 349.764 102.133 349.358 102.24C348.953 102.347 348.441 102.507 347.822 102.72L347.662 101.392C348.217 100.901 348.777 100.528 349.342 100.272C349.908 100.016 350.457 99.888 350.99 99.888H351.406ZM362.539 99.888C363.253 99.888 363.797 100.075 364.171 100.448C364.544 100.821 364.731 101.365 364.731 102.08V108H362.379V102.816C362.379 102.485 362.315 102.251 362.187 102.112C362.059 101.963 361.835 101.888 361.515 101.888C361.323 101.888 361.141 101.915 360.97 101.968C360.8 102.021 360.603 102.107 360.378 102.224C360.155 102.341 359.883 102.501 359.562 102.704L359.435 101.392C359.947 100.891 360.448 100.517 360.939 100.272C361.44 100.016 361.973 99.888 362.539 99.888ZM354.411 100.096L354.651 101.664L354.891 101.872V108H352.523V100.096H354.411ZM357.611 99.888C358.315 99.888 358.848 100.075 359.211 100.448C359.584 100.811 359.771 101.355 359.771 102.08V108H357.499V102.816C357.499 102.475 357.424 102.235 357.275 102.096C357.136 101.957 356.917 101.888 356.619 101.888C356.437 101.888 356.256 101.915 356.075 101.968C355.904 102.011 355.701 102.091 355.467 102.208C355.243 102.325 354.965 102.491 354.635 102.704L354.491 101.392C355.013 100.891 355.52 100.517 356.011 100.272C356.501 100.016 357.035 99.888 357.611 99.888ZM370.792 99.888C371.454 99.888 372.014 99.9787 372.472 100.16C372.931 100.331 373.278 100.629 373.512 101.056C373.758 101.472 373.88 102.048 373.88 102.784V108H371.992L371.656 106.288L371.496 106.048V102.768C371.496 102.395 371.406 102.123 371.224 101.952C371.054 101.781 370.723 101.696 370.232 101.696C369.827 101.696 369.32 101.712 368.712 101.744C368.104 101.765 367.48 101.797 366.84 101.84L366.616 100.272C367 100.197 367.443 100.133 367.944 100.08C368.446 100.027 368.947 99.984 369.448 99.952C369.95 99.9093 370.398 99.888 370.792 99.888ZM372.904 103.136L372.888 104.464L369.368 104.48C369.08 104.48 368.872 104.549 368.744 104.688C368.627 104.827 368.568 105.013 368.568 105.248V105.632C368.568 105.899 368.643 106.107 368.792 106.256C368.942 106.395 369.182 106.464 369.512 106.464C369.79 106.464 370.088 106.405 370.408 106.288C370.739 106.171 371.064 106.005 371.384 105.792C371.704 105.579 371.987 105.328 372.232 105.04V106.064C372.136 106.224 371.992 106.427 371.8 106.672C371.619 106.907 371.384 107.141 371.096 107.376C370.808 107.6 370.472 107.792 370.088 107.952C369.704 108.112 369.267 108.192 368.776 108.192C368.296 108.192 367.864 108.107 367.48 107.936C367.096 107.765 366.792 107.515 366.568 107.184C366.344 106.853 366.232 106.443 366.232 105.952V105.136C366.232 104.507 366.446 104.016 366.872 103.664C367.299 103.312 367.886 103.136 368.632 103.136H372.904ZM378.829 97.904V105.472C378.829 105.76 378.893 105.968 379.021 106.096C379.16 106.213 379.384 106.272 379.693 106.272H380.717L380.973 107.872C380.781 107.936 380.547 107.989 380.269 108.032C379.992 108.085 379.715 108.123 379.437 108.144C379.16 108.176 378.925 108.192 378.733 108.192C378.019 108.192 377.459 108 377.053 107.616C376.659 107.232 376.461 106.693 376.461 106L376.445 97.904H378.829ZM381.037 100.096V101.648H375.069V100.176L376.605 100.096H381.037ZM384.72 100.096V108H382.368V100.096H384.72ZM384.064 96.608C384.533 96.608 384.768 96.848 384.768 97.328V98.176C384.768 98.656 384.533 98.896 384.064 98.896H383.04C382.57 98.896 382.336 98.656 382.336 98.176V97.328C382.336 96.848 382.57 96.608 383.04 96.608H384.064ZM390.486 99.888C391.478 99.888 392.272 100.027 392.87 100.304C393.467 100.571 393.894 101.008 394.15 101.616C394.416 102.224 394.55 103.04 394.55 104.064C394.55 105.067 394.416 105.872 394.15 106.48C393.894 107.088 393.467 107.525 392.87 107.792C392.272 108.059 391.478 108.192 390.486 108.192C389.504 108.192 388.71 108.059 388.102 107.792C387.504 107.525 387.072 107.088 386.806 106.48C386.539 105.872 386.406 105.067 386.406 104.064C386.406 103.04 386.539 102.224 386.806 101.616C387.072 101.008 387.504 100.571 388.102 100.304C388.71 100.027 389.504 99.888 390.486 99.888ZM390.486 101.616C390.08 101.616 389.76 101.685 389.526 101.824C389.291 101.963 389.126 102.208 389.03 102.56C388.934 102.912 388.886 103.413 388.886 104.064C388.886 104.704 388.934 105.2 389.03 105.552C389.126 105.904 389.291 106.149 389.526 106.288C389.76 106.416 390.08 106.48 390.486 106.48C390.891 106.48 391.211 106.416 391.446 106.288C391.68 106.149 391.846 105.904 391.942 105.552C392.038 105.2 392.086 104.704 392.086 104.064C392.086 103.413 392.038 102.912 391.942 102.56C391.846 102.208 391.68 101.963 391.446 101.824C391.211 101.685 390.891 101.616 390.486 101.616ZM401.667 99.888C403.16 99.888 403.907 100.619 403.907 102.08V108H401.539V102.816C401.539 102.464 401.475 102.224 401.347 102.096C401.219 101.957 401 101.888 400.691 101.888C400.35 101.888 399.998 101.957 399.635 102.096C399.272 102.224 398.824 102.427 398.291 102.704L398.179 101.376C398.744 100.896 399.32 100.528 399.907 100.272C400.504 100.016 401.091 99.888 401.667 99.888ZM398.067 100.096L398.339 101.664L398.531 101.872V108H396.163V100.096H398.067Z" fill="#023047" fill-opacity="0.72"/>
<rect width="1920" height="89" fill="white"/>
<path d="M0 -9.91821e-05V89.0332H271.028L307 -9.91821e-05H0Z" fill="#003A69"/>
<path d="M175.01 54.2131H177.169V64.2302H182.027V66.0376H175.01V54.2131ZM169.877 61.055L168.949 58.143C168.72 57.4244 168.528 56.6162 168.353 55.9323H168.315C168.14 56.6162 167.965 57.4403 167.754 58.143L166.842 61.055H169.877ZM166.491 62.686L165.474 66.0376H163.246L167.034 54.2131H169.792L173.632 66.0376H171.316L170.246 62.686H166.491ZM158.71 56.0205H155.341V54.2131H164.271V56.0205H160.868V66.0376H158.71V56.0205ZM153.773 60.7919H149.315V64.2664H154.298V66.0376H147.158V54.2131H154.034V55.9843H149.315V59.038H153.773V60.7919ZM142.903 61.2127C142.832 59.6872 142.745 57.8452 142.762 56.2475H142.709C142.323 57.6861 141.833 59.2838 141.305 60.7745L139.587 65.8973H137.92L136.341 60.8454C135.884 59.3359 135.463 57.7223 135.148 56.2475H135.114C135.06 57.7917 134.989 59.6684 134.902 61.2849L134.639 66.0376H132.622L133.412 54.2131H136.253L137.797 58.9672C138.218 60.3538 138.587 61.7577 138.884 63.0721H138.936C139.253 61.7924 139.657 60.335 140.113 58.9498L141.744 54.2131H144.551L145.236 66.0376H143.131L142.903 61.2127ZM124.005 63.6866C124.708 64.09 125.76 64.4413 126.865 64.4413C128.25 64.4413 129.022 63.7921 129.022 62.8277C129.022 61.9327 128.425 61.4064 126.917 60.8627C124.969 60.16 123.724 59.1248 123.724 57.4244C123.724 55.4942 125.338 54.0208 127.9 54.0208C129.18 54.0208 130.128 54.3013 130.741 54.6165L130.215 56.353C129.794 56.126 128.97 55.7935 127.864 55.7935C126.496 55.7935 125.899 56.5294 125.899 57.2119C125.899 58.1257 126.583 58.5464 128.162 59.1609C130.215 59.933 131.214 60.9669 131.214 62.6701C131.214 64.5642 129.777 66.214 126.725 66.214C125.478 66.214 124.18 65.8626 123.532 65.4766L124.005 63.6866ZM118.574 61.055L117.644 58.143C117.417 57.4244 117.224 56.6162 117.049 55.9323H117.013C116.838 56.6162 116.663 57.4403 116.452 58.143L115.539 61.055H118.574ZM115.189 62.686L114.171 66.0376H111.942L115.731 54.2131H118.487L122.328 66.0376H120.013L118.943 62.686H115.189ZM104.776 59.599H106.057C107.513 59.599 108.425 58.8269 108.425 57.6514C108.425 56.353 107.513 55.7573 106.109 55.7573C105.425 55.7573 104.987 55.8094 104.776 55.8629V59.599ZM102.636 54.3707C103.443 54.2305 104.653 54.1249 105.898 54.1249C107.6 54.1249 108.758 54.4069 109.549 55.0734C110.198 55.6171 110.565 56.4412 110.565 57.4403C110.565 58.9672 109.53 60.0024 108.425 60.4073V60.4579C109.267 60.7745 109.776 61.5987 110.074 62.7381C110.442 64.2143 110.759 65.5807 111.003 66.0376H108.777C108.6 65.6877 108.32 64.7218 107.987 63.247C107.653 61.7057 107.092 61.2127 105.865 61.1779H104.776V66.0376H102.636V54.3707ZM94.9426 64.4775C95.2231 64.5107 95.5918 64.5295 96.0834 64.5295C97.4685 64.5295 98.6976 64.0018 98.6976 62.5472C98.6976 61.1779 97.5047 60.6169 96.0125 60.6169H94.9426V64.4775ZM94.9426 59.038H96.0472C97.538 59.038 98.3809 58.3368 98.3809 57.3362C98.3809 56.2316 97.5379 55.7212 96.1701 55.7212C95.5383 55.7212 95.171 55.7573 94.9426 55.8094V59.038ZM92.8027 54.3707C93.4866 54.2305 94.7329 54.1249 95.9417 54.1249C97.5379 54.1249 98.5212 54.3187 99.328 54.8797C100.065 55.3192 100.557 56.0899 100.557 57.0904C100.557 58.1777 99.8731 59.1783 98.5906 59.6525V59.6872C99.8369 60.0024 100.978 60.9856 100.978 62.6166C100.978 63.6692 100.521 64.4934 99.8369 65.0558C98.9954 65.7932 97.6088 66.1619 95.4515 66.1619C94.2572 66.1619 93.3463 66.0737 92.8027 66.0014V54.3707ZM79.1405 44.1368C79.1405 56.7449 68.9196 66.9658 56.3115 66.9658C43.7034 66.9658 33.4824 56.7449 33.4824 44.1368C33.4824 31.5301 43.7034 21.3077 56.3115 21.3077C68.9196 21.3077 79.1405 31.5301 79.1405 44.1368ZM216.695 48.0276V33.1799H212.549V51.4414H222.762V48.0276H216.695ZM150.45 48.0276V47.9741V33.1799H146.305V51.4414H156.516V48.0276H150.45ZM163.519 48.0291V47.9178L172.027 35.5641V33.1799H158.777V36.5936H166.664V36.702L158.687 48.1795V51.4414H172.164V48.0291H163.519ZM229.767 48.0291V47.9178L238.274 35.5641V33.1799H225.026V36.5936H232.91V36.702L224.933 48.1795V51.4414H238.41V48.0291H229.767ZM196.918 42.3656C196.918 45.9412 198.598 48.46 201.361 48.46C204.153 48.46 205.752 45.8082 205.752 42.2571C205.752 38.9793 204.182 36.1598 201.335 36.1598C198.544 36.1598 196.918 38.8159 196.918 42.3656ZM210.113 42.1212C210.113 48.1072 206.481 51.7392 201.144 51.7392C195.725 51.7392 192.556 47.6488 192.556 42.448C192.556 36.9739 196.05 32.8806 201.443 32.8806C207.051 32.8806 210.113 37.0809 210.113 42.1212ZM179.148 33.1799V40.1967H185.947V33.1799H190.067V51.4414H185.947V43.8013H179.148V51.4414H175.003V33.1799H179.148ZM142.064 43.7204H135.743V48.0537H143.25V51.4414H131.597V33.1799H142.869V36.5676H135.743V40.3587H142.064V43.7204ZM123.327 43.6654L122.189 39.7904C121.863 38.7075 121.538 37.3527 121.266 36.2683H121.214C120.942 37.3527 120.671 38.7335 120.373 39.7904L119.29 43.6654H123.327ZM118.694 46.7538L117.393 51.4414H113.112L118.694 33.1799H124.112L129.775 51.4414H125.334L123.922 46.7538H118.694ZM95.3474 51.4414L91.0127 33.1799H95.4299L96.8107 40.7129C97.2184 42.8803 97.5987 45.2371 97.8965 47.0791H97.9486C98.2479 45.1012 98.6816 42.9049 99.1429 40.658L100.687 33.1799H105.075L106.539 40.8734C106.946 43.0162 107.243 44.9667 107.516 46.9982H107.568C107.84 44.9667 108.246 42.8268 108.625 40.658L110.114 33.1799H114.315L109.6 51.4414H105.13L103.588 43.5844C103.233 41.7409 102.935 40.0348 102.719 37.9484H102.664C102.34 40.0073 102.042 41.7409 101.607 43.5844L99.8731 51.4414H95.3474Z" fill="white"/>
<path d="M73.6626 33.1797H70.9212L63.6224 50.9106L56.3221 33.1797H49.0161L61.3393 63.111L73.6626 33.1797ZM54.9413 54.2506L46.2675 33.1797H38.96L51.289 63.1211L54.9413 54.2506ZM59.5739 35.9182C59.5739 37.5825 59.7807 38.7637 61.4362 38.7637C63.0151 38.7637 63.1293 37.6056 63.1293 36.8089H62.0276C62.0276 37.6056 61.8656 37.9512 61.3668 37.9512C60.8174 37.9512 60.6815 37.409 60.6786 35.9182C60.6815 34.4275 60.8174 33.8868 61.3668 33.8868C61.8656 33.8868 62.0276 34.2323 62.0276 35.029H63.1293C63.1293 34.2323 63.0151 33.0742 61.4362 33.0742C59.7807 33.0742 59.5739 34.2555 59.5739 35.9182ZM64.1068 38.6553H65.8462C67.3108 38.6553 67.7258 37.7805 67.7258 35.8416C67.7258 34.2323 67.4496 33.1812 65.9156 33.1812H64.1068V38.6553ZM65.7016 37.8413H65.2114V33.9952H65.6784C66.5214 33.9952 66.6212 34.63 66.6212 35.872C66.6212 37.3583 66.4679 37.8413 65.7016 37.8413Z" fill="#003A69"/>
</g>
<defs>
<clipPath id="clip0_2286_8490">
<rect width="1920" height="1080" fill="white"/>
</clipPath>
</defs>
</svg>
