<svg width="1920" height="1080" viewBox="0 0 1920 1080" fill="none" xmlns="http://www.w3.org/2000/svg">
<g clip-path="url(#clip0_2967_8766)">
<rect width="1920" height="1080" fill="#F5F5F5"/>
<mask id="path-1-inside-1_2967_8766" fill="white">
<path d="M24 1038H1896V1065H24V1038Z"/>
</mask>
<path d="M24 1039H1896V1037H24V1039Z" fill="#99B0C3" mask="url(#path-1-inside-1_2967_8766)"/>
<path d="M46.832 584.92C47.984 584.92 48.5813 585.517 48.624 586.712L49.456 607H44.944L44.208 588.664H43.632L40.08 602.456C39.888 603.48 39.248 603.992 38.16 603.992H35.088C34 603.992 33.3493 603.48 33.136 602.456L29.552 588.664H29.008L28.336 607H23.824L24.624 586.712C24.688 585.517 25.296 584.92 26.448 584.92H31.024C32.0693 584.92 32.7093 585.432 32.944 586.456L35.792 597.592C35.92 598.104 36.0267 598.627 36.112 599.16C36.1973 599.672 36.2933 600.195 36.4 600.728H36.816C36.9227 600.195 37.0187 599.672 37.104 599.16C37.2107 598.627 37.3173 598.093 37.424 597.56L40.24 586.456C40.4533 585.432 41.104 584.92 42.192 584.92H46.832ZM60.6892 590.776C63.3559 590.776 65.2653 591.235 66.4173 592.152C67.5906 593.048 68.1772 594.392 68.1772 596.184C68.1986 597.613 67.8359 598.691 67.0893 599.416C66.3426 600.141 65.0519 600.504 63.2173 600.504H54.3853V597.848H61.9373C62.6413 597.848 63.0893 597.699 63.2813 597.4C63.4946 597.08 63.6013 596.643 63.6013 596.088C63.6013 595.341 63.3879 594.829 62.9613 594.552C62.5559 594.253 61.8519 594.104 60.8493 594.104C59.9746 594.083 59.2919 594.2 58.8013 594.456C58.3106 594.691 57.9693 595.139 57.7773 595.8C57.5853 596.461 57.4893 597.421 57.4893 598.68C57.4893 600.003 57.6066 601.027 57.8413 601.752C58.0759 602.456 58.4706 602.947 59.0253 603.224C59.6013 603.501 60.3906 603.64 61.3933 603.64C62.1186 603.64 63.0146 603.619 64.0813 603.576C65.1693 603.512 66.2573 603.416 67.3453 603.288L67.7933 606.2C67.1746 606.499 66.4706 606.733 65.6813 606.904C64.8919 607.075 64.0813 607.192 63.2493 607.256C62.4173 607.341 61.6173 607.384 60.8493 607.384C58.8439 607.384 57.2333 607.096 56.0173 606.52C54.8013 605.923 53.9159 605.016 53.3613 603.8C52.8279 602.584 52.5613 601.027 52.5613 599.128C52.5613 597.059 52.8279 595.416 53.3613 594.2C53.9159 592.984 54.7906 592.109 55.9852 591.576C57.1799 591.043 58.7479 590.776 60.6892 590.776ZM64.4973 582.68L66.5453 585.848L59.4093 589.432L58.0333 587.416L64.4973 582.68ZM77.4398 586.808V601.944C77.4398 602.52 77.5678 602.936 77.8238 603.192C78.1011 603.427 78.5491 603.544 79.1678 603.544H81.2158L81.7278 606.744C81.3438 606.872 80.8744 606.979 80.3198 607.064C79.7651 607.171 79.2104 607.245 78.6558 607.288C78.1011 607.331 77.6318 607.352 77.2478 607.352C75.8184 607.352 74.6984 606.979 73.8878 606.232C73.0984 605.464 72.7038 604.387 72.7038 603V586.808H77.4398ZM81.8558 591.192V594.296H69.9518V591.352L73.0238 591.192H81.8558ZM88.1008 591.192L88.6768 594.328L89.1248 594.744V607H84.4208V591.192H88.1008ZM95.8128 590.776L95.3648 595.128H94.0528C93.3061 595.128 92.5274 595.235 91.7168 595.448C90.9061 595.661 89.8821 595.992 88.6448 596.44L88.3248 593.784C89.4341 592.803 90.5541 592.056 91.6848 591.544C92.8154 591.032 93.9141 590.776 94.9808 590.776H95.8128ZM102.877 591.192V607H98.205V591.192H102.877ZM101.565 584.216C102.504 584.216 102.973 584.685 102.973 585.624V587.352C102.973 588.291 102.504 588.76 101.565 588.76H99.517C98.5783 588.76 98.109 588.291 98.109 587.352V585.624C98.109 584.685 98.5783 584.216 99.517 584.216H101.565ZM114.249 590.776C114.825 590.776 115.454 590.808 116.137 590.872C116.819 590.915 117.502 591.011 118.185 591.16C118.889 591.288 119.529 591.48 120.105 591.736L119.593 594.712C118.739 594.669 117.918 594.648 117.129 594.648C116.361 594.627 115.667 594.616 115.049 594.616C114.089 594.616 113.331 594.744 112.777 595C112.222 595.256 111.817 595.704 111.561 596.344C111.326 596.984 111.209 597.891 111.209 599.064C111.209 600.237 111.326 601.155 111.561 601.816C111.817 602.477 112.222 602.936 112.777 603.192C113.331 603.448 114.089 603.576 115.049 603.576C115.39 603.576 115.827 603.565 116.361 603.544C116.894 603.523 117.47 603.501 118.089 603.48C118.707 603.437 119.315 603.373 119.913 603.288L120.361 606.296C119.507 606.68 118.537 606.957 117.449 607.128C116.361 607.299 115.283 607.384 114.217 607.384C112.275 607.384 110.718 607.117 109.545 606.584C108.371 606.029 107.529 605.144 107.017 603.928C106.505 602.712 106.249 601.091 106.249 599.064C106.249 597.037 106.505 595.416 107.017 594.2C107.55 592.984 108.403 592.109 109.577 591.576C110.75 591.043 112.307 590.776 114.249 590.776ZM131.522 590.776C132.845 590.776 133.965 590.957 134.882 591.32C135.799 591.661 136.493 592.259 136.962 593.112C137.453 593.944 137.698 595.085 137.698 596.536V607H133.954L133.282 603.576L132.962 603.096V596.536C132.941 595.768 132.749 595.224 132.386 594.904C132.045 594.563 131.394 594.392 130.434 594.392C129.602 594.392 128.578 594.424 127.362 594.488C126.146 594.531 124.898 594.595 123.618 594.68L123.202 591.544C123.97 591.395 124.845 591.267 125.826 591.16C126.829 591.053 127.831 590.968 128.834 590.904C129.837 590.819 130.733 590.776 131.522 590.776ZM135.746 597.272L135.714 599.928H128.674C128.098 599.949 127.682 600.099 127.426 600.376C127.191 600.653 127.074 601.027 127.074 601.496V602.264C127.074 602.797 127.223 603.213 127.522 603.512C127.821 603.789 128.301 603.928 128.962 603.928C129.517 603.928 130.114 603.811 130.754 603.576C131.415 603.341 132.066 603.011 132.706 602.584C133.346 602.157 133.922 601.656 134.434 601.08V603.128C134.242 603.448 133.954 603.853 133.57 604.344C133.186 604.813 132.706 605.283 132.13 605.752C131.554 606.2 130.882 606.584 130.114 606.904C129.346 607.203 128.471 607.352 127.49 607.352C126.551 607.352 125.687 607.192 124.898 606.872C124.13 606.531 123.522 606.029 123.074 605.368C122.626 604.707 122.402 603.885 122.402 602.904V601.272C122.402 600.013 122.829 599.032 123.682 598.328C124.535 597.624 125.709 597.272 127.202 597.272H135.746ZM147.436 590.776C148.204 590.776 149.036 590.808 149.932 590.872C150.828 590.915 151.703 590.979 152.556 591.064C153.409 591.149 154.167 591.256 154.828 591.384L154.508 594.328C153.484 594.307 152.449 594.285 151.404 594.264C150.38 594.243 149.377 594.232 148.396 594.232C147.564 594.232 146.924 594.253 146.476 594.296C146.028 594.317 145.708 594.413 145.516 594.584C145.345 594.733 145.26 595.011 145.26 595.416C145.26 595.907 145.42 596.237 145.74 596.408C146.06 596.557 146.593 596.728 147.34 596.92L151.468 597.912C152.791 598.253 153.772 598.765 154.412 599.448C155.052 600.109 155.372 601.112 155.372 602.456C155.372 603.779 155.127 604.792 154.636 605.496C154.145 606.2 153.367 606.691 152.3 606.968C151.233 607.224 149.857 607.352 148.172 607.352C147.511 607.352 146.529 607.32 145.228 607.256C143.927 607.192 142.508 607.032 140.972 606.776L141.26 603.832C141.665 603.853 142.156 603.875 142.732 603.896C143.329 603.896 143.98 603.896 144.684 603.896C145.388 603.896 146.092 603.896 146.796 603.896C147.905 603.896 148.748 603.875 149.324 603.832C149.9 603.768 150.295 603.64 150.508 603.448C150.721 603.256 150.828 602.968 150.828 602.584C150.828 602.093 150.647 601.773 150.284 601.624C149.921 601.453 149.345 601.261 148.556 601.048L144.556 600.056C143.532 599.779 142.743 599.427 142.188 599C141.633 598.573 141.239 598.061 141.004 597.464C140.791 596.845 140.684 596.109 140.684 595.256C140.684 594.168 140.908 593.293 141.356 592.632C141.804 591.971 142.519 591.501 143.5 591.224C144.481 590.925 145.793 590.776 147.436 590.776Z" fill="#003A69"/>
<path d="M25.9321 172.028C28.0015 172.028 29.6228 172.241 30.7961 172.668C31.9695 173.094 32.8015 173.83 33.2921 174.876C33.8041 175.9 34.0601 177.361 34.0601 179.26C34.0601 181.137 33.8148 182.598 33.3241 183.644C32.8548 184.668 32.0761 185.393 30.9881 185.82C29.9001 186.225 28.4281 186.428 26.5721 186.428C25.5908 186.428 24.6308 186.396 23.6921 186.332C22.7535 186.246 21.8788 186.14 21.0681 186.012C20.2575 185.884 19.5641 185.745 18.9881 185.596C18.4335 185.446 18.0388 185.318 17.8041 185.212L17.9001 182.78C19.1588 182.78 20.4601 182.78 21.8041 182.78C23.1695 182.78 24.5135 182.78 25.8361 182.78C26.6895 182.758 27.3615 182.652 27.8521 182.46C28.3428 182.268 28.6841 181.916 28.8761 181.404C29.0681 180.892 29.1641 180.177 29.1641 179.26C29.1641 178.3 29.0681 177.564 28.8761 177.052C28.6841 176.54 28.3428 176.188 27.8521 175.996C27.3615 175.804 26.6895 175.708 25.8361 175.708C23.8735 175.708 22.1881 175.718 20.7801 175.74C19.3935 175.761 18.4441 175.793 17.9321 175.836L17.4841 172.348C18.3801 172.241 19.2121 172.166 19.9801 172.124C20.7695 172.081 21.6228 172.06 22.5401 172.06C23.4788 172.038 24.6095 172.028 25.9321 172.028ZM22.3481 172.348V194.428H17.4841V172.348H22.3481ZM45.1724 178.204C46.4951 178.204 47.6151 178.385 48.5324 178.748C49.4497 179.089 50.1431 179.686 50.6124 180.54C51.1031 181.372 51.3484 182.513 51.3484 183.964V194.428H47.6044L46.9324 191.004L46.6124 190.524V183.964C46.5911 183.196 46.3991 182.652 46.0364 182.332C45.6951 181.99 45.0444 181.82 44.0844 181.82C43.2524 181.82 42.2284 181.852 41.0124 181.916C39.7964 181.958 38.5484 182.022 37.2684 182.108L36.8524 178.972C37.6204 178.822 38.4951 178.694 39.4764 178.588C40.4791 178.481 41.4817 178.396 42.4844 178.332C43.4871 178.246 44.3831 178.204 45.1724 178.204ZM49.3964 184.7L49.3644 187.356H42.3244C41.7484 187.377 41.3324 187.526 41.0764 187.804C40.8417 188.081 40.7244 188.454 40.7244 188.924V189.692C40.7244 190.225 40.8737 190.641 41.1724 190.94C41.4711 191.217 41.9511 191.356 42.6124 191.356C43.1671 191.356 43.7644 191.238 44.4044 191.004C45.0657 190.769 45.7164 190.438 46.3564 190.012C46.9964 189.585 47.5724 189.084 48.0844 188.508V190.556C47.8924 190.876 47.6044 191.281 47.2204 191.772C46.8364 192.241 46.3564 192.71 45.7804 193.18C45.2044 193.628 44.5324 194.012 43.7644 194.332C42.9964 194.63 42.1217 194.78 41.1404 194.78C40.2017 194.78 39.3377 194.62 38.5484 194.3C37.7804 193.958 37.1724 193.457 36.7244 192.796C36.2764 192.134 36.0524 191.313 36.0524 190.332V188.7C36.0524 187.441 36.4791 186.46 37.3324 185.756C38.1857 185.052 39.3591 184.7 40.8524 184.7H49.3964ZM59.9024 178.62V194.428H55.2304V178.62H59.9024ZM58.5904 171.644C59.5291 171.644 59.9984 172.113 59.9984 173.052V174.78C59.9984 175.718 59.5291 176.188 58.5904 176.188H56.5424C55.6037 176.188 55.1344 175.718 55.1344 174.78V173.052C55.1344 172.113 55.6037 171.644 56.5424 171.644H58.5904ZM74.9221 178.204C77.9088 178.204 79.4021 179.665 79.4021 182.588V194.428H74.6661V184.06C74.6661 183.356 74.5381 182.876 74.2821 182.62C74.0261 182.342 73.5888 182.204 72.9701 182.204C72.2875 182.204 71.5835 182.342 70.8581 182.62C70.1328 182.876 69.2368 183.27 68.1701 183.804L67.9461 181.18C69.0768 180.22 70.2288 179.484 71.4021 178.972C72.5968 178.46 73.7701 178.204 74.9221 178.204ZM67.7221 178.62L68.2661 181.756L68.6501 182.172V194.428H63.9461V178.62H67.7221ZM90.6209 178.204C93.2876 178.204 95.1969 178.662 96.3489 179.58C97.5222 180.476 98.1089 181.82 98.1089 183.612C98.1302 185.041 97.7676 186.118 97.0209 186.844C96.2742 187.569 94.9836 187.932 93.1489 187.932H84.3169V185.276H91.8689C92.5729 185.276 93.0209 185.126 93.2129 184.828C93.4262 184.508 93.5329 184.07 93.5329 183.516C93.5329 182.769 93.3196 182.257 92.8929 181.98C92.4876 181.681 91.7836 181.532 90.7809 181.532C89.9062 181.51 89.2236 181.628 88.7329 181.884C88.2422 182.118 87.9009 182.566 87.7089 183.228C87.5169 183.889 87.4209 184.849 87.4209 186.108C87.4209 187.43 87.5382 188.454 87.7729 189.18C88.0076 189.884 88.4022 190.374 88.9569 190.652C89.5329 190.929 90.3222 191.068 91.3249 191.068C92.0502 191.068 92.9462 191.046 94.0129 191.004C95.1009 190.94 96.1889 190.844 97.2769 190.716L97.7249 193.628C97.1062 193.926 96.4022 194.161 95.6129 194.332C94.8236 194.502 94.0129 194.62 93.1809 194.684C92.3489 194.769 91.5489 194.812 90.7809 194.812C88.7756 194.812 87.1649 194.524 85.9489 193.948C84.7329 193.35 83.8476 192.444 83.2929 191.228C82.7596 190.012 82.4929 188.454 82.4929 186.556C82.4929 184.486 82.7596 182.844 83.2929 181.628C83.8476 180.412 84.7222 179.537 85.9169 179.004C87.1116 178.47 88.6796 178.204 90.6209 178.204ZM105.963 172.028L105.931 189.372C105.931 189.905 106.091 190.31 106.411 190.588C106.731 190.844 107.201 190.972 107.819 190.972H109.099L109.643 194.172C109.387 194.3 109.025 194.406 108.555 194.492C108.086 194.598 107.606 194.673 107.115 194.716C106.625 194.758 106.209 194.78 105.867 194.78C104.438 194.78 103.307 194.417 102.475 193.692C101.665 192.945 101.259 191.9 101.259 190.556V172.028H105.963ZM123.322 178.204C124.453 178.204 125.53 178.364 126.554 178.684C127.578 179.004 128.485 179.526 129.274 180.252L128.954 182.396C128.25 182.182 127.599 182.001 127.002 181.852C126.426 181.681 125.754 181.596 124.986 181.596C124.325 181.596 123.791 181.713 123.386 181.948C122.981 182.182 122.682 182.641 122.49 183.324C122.298 184.006 122.202 185.02 122.202 186.364C122.202 187.622 122.287 188.582 122.458 189.244C122.65 189.884 122.938 190.332 123.322 190.588C123.727 190.822 124.239 190.94 124.858 190.94C125.413 190.94 125.893 190.886 126.298 190.78C126.703 190.652 127.109 190.47 127.514 190.236C127.919 189.98 128.389 189.67 128.922 189.308L129.242 191.644C128.602 192.54 127.77 193.297 126.746 193.916C125.722 194.513 124.463 194.812 122.97 194.812C120.943 194.812 119.493 194.086 118.618 192.636C117.765 191.185 117.338 189.105 117.338 186.396C117.338 184.284 117.562 182.641 118.01 181.468C118.458 180.273 119.119 179.43 119.994 178.94C120.89 178.449 121.999 178.204 123.322 178.204ZM133.146 172.028V194.428H129.402L128.922 191.516L128.41 191.164V180.796L128.602 180.348C128.538 179.708 128.485 179.057 128.442 178.396C128.421 177.713 128.41 177.02 128.41 176.316V172.028H133.146ZM144.496 178.204C147.163 178.204 149.072 178.662 150.224 179.58C151.397 180.476 151.984 181.82 151.984 183.612C152.005 185.041 151.643 186.118 150.896 186.844C150.149 187.569 148.859 187.932 147.024 187.932H138.192V185.276H145.744C146.448 185.276 146.896 185.126 147.088 184.828C147.301 184.508 147.408 184.07 147.408 183.516C147.408 182.769 147.195 182.257 146.768 181.98C146.363 181.681 145.659 181.532 144.656 181.532C143.781 181.51 143.099 181.628 142.608 181.884C142.117 182.118 141.776 182.566 141.584 183.228C141.392 183.889 141.296 184.849 141.296 186.108C141.296 187.43 141.413 188.454 141.648 189.18C141.883 189.884 142.277 190.374 142.832 190.652C143.408 190.929 144.197 191.068 145.2 191.068C145.925 191.068 146.821 191.046 147.888 191.004C148.976 190.94 150.064 190.844 151.152 190.716L151.6 193.628C150.981 193.926 150.277 194.161 149.488 194.332C148.699 194.502 147.888 194.62 147.056 194.684C146.224 194.769 145.424 194.812 144.656 194.812C142.651 194.812 141.04 194.524 139.824 193.948C138.608 193.35 137.723 192.444 137.168 191.228C136.635 190.012 136.368 188.454 136.368 186.556C136.368 184.486 136.635 182.844 137.168 181.628C137.723 180.412 138.597 179.537 139.792 179.004C140.987 178.47 142.555 178.204 144.496 178.204ZM167.192 172.348V194.428H162.328V172.348H167.192ZM182.36 178.204C185.346 178.204 186.84 179.665 186.84 182.588V194.428H182.104V184.06C182.104 183.356 181.976 182.876 181.72 182.62C181.464 182.342 181.026 182.204 180.408 182.204C179.725 182.204 179.021 182.342 178.296 182.62C177.57 182.876 176.674 183.27 175.608 183.804L175.384 181.18C176.514 180.22 177.666 179.484 178.84 178.972C180.034 178.46 181.208 178.204 182.36 178.204ZM175.16 178.62L175.704 181.756L176.088 182.172V194.428H171.384V178.62H175.16ZM195.978 178.204C197.109 178.204 198.186 178.364 199.21 178.684C200.234 179.004 201.141 179.526 201.93 180.252L201.61 182.396C200.906 182.182 200.256 182.001 199.658 181.852C199.082 181.681 198.41 181.596 197.642 181.596C196.981 181.596 196.448 181.713 196.042 181.948C195.637 182.182 195.338 182.641 195.146 183.324C194.954 184.006 194.858 185.02 194.858 186.364C194.858 187.622 194.944 188.582 195.114 189.244C195.306 189.884 195.594 190.332 195.978 190.588C196.384 190.822 196.896 190.94 197.514 190.94C198.069 190.94 198.549 190.886 198.954 190.78C199.36 190.652 199.765 190.47 200.17 190.236C200.576 189.98 201.045 189.67 201.578 189.308L201.898 191.644C201.258 192.54 200.426 193.297 199.402 193.916C198.378 194.513 197.12 194.812 195.626 194.812C193.6 194.812 192.149 194.086 191.274 192.636C190.421 191.185 189.994 189.105 189.994 186.396C189.994 184.284 190.218 182.641 190.666 181.468C191.114 180.273 191.776 179.43 192.65 178.94C193.546 178.449 194.656 178.204 195.978 178.204ZM205.802 172.028V194.428H202.058L201.578 191.516L201.066 191.164V180.796L201.258 180.348C201.194 179.708 201.141 179.057 201.098 178.396C201.077 177.713 201.066 177.02 201.066 176.316V172.028H205.802ZM214.496 178.62V194.428H209.824V178.62H214.496ZM213.184 171.644C214.123 171.644 214.592 172.113 214.592 173.052V174.78C214.592 175.718 214.123 176.188 213.184 176.188H211.136C210.197 176.188 209.728 175.718 209.728 174.78V173.052C209.728 172.113 210.197 171.644 211.136 171.644H213.184ZM225.868 178.204C226.444 178.204 227.073 178.236 227.756 178.3C228.439 178.342 229.121 178.438 229.804 178.588C230.508 178.716 231.148 178.908 231.724 179.164L231.212 182.14C230.359 182.097 229.537 182.076 228.748 182.076C227.98 182.054 227.287 182.044 226.668 182.044C225.708 182.044 224.951 182.172 224.396 182.428C223.841 182.684 223.436 183.132 223.18 183.772C222.945 184.412 222.828 185.318 222.828 186.492C222.828 187.665 222.945 188.582 223.18 189.244C223.436 189.905 223.841 190.364 224.396 190.62C224.951 190.876 225.708 191.004 226.668 191.004C227.009 191.004 227.447 190.993 227.98 190.972C228.513 190.95 229.089 190.929 229.708 190.908C230.327 190.865 230.935 190.801 231.532 190.716L231.98 193.724C231.127 194.108 230.156 194.385 229.068 194.556C227.98 194.726 226.903 194.812 225.836 194.812C223.895 194.812 222.337 194.545 221.164 194.012C219.991 193.457 219.148 192.572 218.636 191.356C218.124 190.14 217.868 188.518 217.868 186.492C217.868 184.465 218.124 182.844 218.636 181.628C219.169 180.412 220.023 179.537 221.196 179.004C222.369 178.47 223.927 178.204 225.868 178.204ZM243.141 178.204C244.464 178.204 245.584 178.385 246.501 178.748C247.418 179.089 248.112 179.686 248.581 180.54C249.072 181.372 249.317 182.513 249.317 183.964V194.428H245.573L244.901 191.004L244.581 190.524V183.964C244.56 183.196 244.368 182.652 244.005 182.332C243.664 181.99 243.013 181.82 242.053 181.82C241.221 181.82 240.197 181.852 238.981 181.916C237.765 181.958 236.517 182.022 235.237 182.108L234.821 178.972C235.589 178.822 236.464 178.694 237.445 178.588C238.448 178.481 239.45 178.396 240.453 178.332C241.456 178.246 242.352 178.204 243.141 178.204ZM247.365 184.7L247.333 187.356H240.293C239.717 187.377 239.301 187.526 239.045 187.804C238.81 188.081 238.693 188.454 238.693 188.924V189.692C238.693 190.225 238.842 190.641 239.141 190.94C239.44 191.217 239.92 191.356 240.581 191.356C241.136 191.356 241.733 191.238 242.373 191.004C243.034 190.769 243.685 190.438 244.325 190.012C244.965 189.585 245.541 189.084 246.053 188.508V190.556C245.861 190.876 245.573 191.281 245.189 191.772C244.805 192.241 244.325 192.71 243.749 193.18C243.173 193.628 242.501 194.012 241.733 194.332C240.965 194.63 240.09 194.78 239.109 194.78C238.17 194.78 237.306 194.62 236.517 194.3C235.749 193.958 235.141 193.457 234.693 192.796C234.245 192.134 234.021 191.313 234.021 190.332V188.7C234.021 187.441 234.448 186.46 235.301 185.756C236.154 185.052 237.328 184.7 238.821 184.7H247.365ZM258.447 178.204C259.578 178.204 260.655 178.364 261.679 178.684C262.703 179.004 263.61 179.526 264.399 180.252L264.079 182.396C263.375 182.182 262.724 182.001 262.127 181.852C261.551 181.681 260.879 181.596 260.111 181.596C259.45 181.596 258.916 181.713 258.511 181.948C258.106 182.182 257.807 182.641 257.615 183.324C257.423 184.006 257.327 185.02 257.327 186.364C257.327 187.622 257.412 188.582 257.583 189.244C257.775 189.884 258.063 190.332 258.447 190.588C258.852 190.822 259.364 190.94 259.983 190.94C260.538 190.94 261.018 190.886 261.423 190.78C261.828 190.652 262.234 190.47 262.639 190.236C263.044 189.98 263.514 189.67 264.047 189.308L264.367 191.644C263.727 192.54 262.895 193.297 261.871 193.916C260.847 194.513 259.588 194.812 258.095 194.812C256.068 194.812 254.618 194.086 253.743 192.636C252.89 191.185 252.463 189.105 252.463 186.396C252.463 184.284 252.687 182.641 253.135 181.468C253.583 180.273 254.244 179.43 255.119 178.94C256.015 178.449 257.124 178.204 258.447 178.204ZM268.271 172.028V194.428H264.527L264.047 191.516L263.535 191.164V180.796L263.727 180.348C263.663 179.708 263.61 179.057 263.567 178.396C263.546 177.713 263.535 177.02 263.535 176.316V172.028H268.271ZM279.653 178.204C281.637 178.204 283.226 178.481 284.421 179.036C285.616 179.569 286.469 180.444 286.981 181.66C287.514 182.876 287.781 184.508 287.781 186.556C287.781 188.561 287.514 190.172 286.981 191.388C286.469 192.604 285.616 193.478 284.421 194.012C283.226 194.545 281.637 194.812 279.653 194.812C277.69 194.812 276.112 194.545 274.917 194.012C273.722 193.478 272.858 192.604 272.325 191.388C271.792 190.172 271.525 188.561 271.525 186.556C271.525 184.508 271.792 182.876 272.325 181.66C272.858 180.444 273.722 179.569 274.917 179.036C276.112 178.481 277.69 178.204 279.653 178.204ZM279.653 181.628C278.842 181.628 278.202 181.766 277.733 182.044C277.264 182.321 276.933 182.812 276.741 183.516C276.549 184.22 276.453 185.233 276.453 186.556C276.453 187.836 276.549 188.828 276.741 189.532C276.933 190.236 277.264 190.726 277.733 191.004C278.202 191.26 278.842 191.388 279.653 191.388C280.485 191.388 281.136 191.26 281.605 191.004C282.074 190.726 282.394 190.236 282.565 189.532C282.757 188.828 282.853 187.836 282.853 186.556C282.853 185.233 282.757 184.22 282.565 183.516C282.394 182.812 282.074 182.321 281.605 182.044C281.136 181.766 280.485 181.628 279.653 181.628ZM294.72 178.62L295.296 181.756L295.744 182.172V194.428H291.04V178.62H294.72ZM302.432 178.204L301.984 182.556H300.672C299.925 182.556 299.147 182.662 298.336 182.876C297.525 183.089 296.501 183.42 295.264 183.868L294.944 181.212C296.053 180.23 297.173 179.484 298.304 178.972C299.435 178.46 300.533 178.204 301.6 178.204H302.432ZM311.902 178.204C314.569 178.204 316.478 178.662 317.63 179.58C318.803 180.476 319.39 181.82 319.39 183.612C319.411 185.041 319.049 186.118 318.302 186.844C317.555 187.569 316.265 187.932 314.43 187.932H305.598V185.276H313.15C313.854 185.276 314.302 185.126 314.494 184.828C314.707 184.508 314.814 184.07 314.814 183.516C314.814 182.769 314.601 182.257 314.174 181.98C313.769 181.681 313.065 181.532 312.062 181.532C311.187 181.51 310.505 181.628 310.014 181.884C309.523 182.118 309.182 182.566 308.99 183.228C308.798 183.889 308.702 184.849 308.702 186.108C308.702 187.43 308.819 188.454 309.054 189.18C309.289 189.884 309.683 190.374 310.238 190.652C310.814 190.929 311.603 191.068 312.606 191.068C313.331 191.068 314.227 191.046 315.294 191.004C316.382 190.94 317.47 190.844 318.558 190.716L319.006 193.628C318.387 193.926 317.683 194.161 316.894 194.332C316.105 194.502 315.294 194.62 314.462 194.684C313.63 194.769 312.83 194.812 312.062 194.812C310.057 194.812 308.446 194.524 307.23 193.948C306.014 193.35 305.129 192.444 304.574 191.228C304.041 190.012 303.774 188.454 303.774 186.556C303.774 184.486 304.041 182.844 304.574 181.628C305.129 180.412 306.003 179.537 307.198 179.004C308.393 178.47 309.961 178.204 311.902 178.204ZM328.493 178.204C329.261 178.204 330.093 178.236 330.989 178.3C331.885 178.342 332.759 178.406 333.613 178.492C334.466 178.577 335.223 178.684 335.885 178.812L335.565 181.756C334.541 181.734 333.506 181.713 332.461 181.692C331.437 181.67 330.434 181.66 329.453 181.66C328.621 181.66 327.981 181.681 327.533 181.724C327.085 181.745 326.765 181.841 326.573 182.012C326.402 182.161 326.317 182.438 326.317 182.844C326.317 183.334 326.477 183.665 326.797 183.836C327.117 183.985 327.65 184.156 328.397 184.348L332.525 185.34C333.847 185.681 334.829 186.193 335.469 186.876C336.109 187.537 336.429 188.54 336.429 189.884C336.429 191.206 336.183 192.22 335.693 192.924C335.202 193.628 334.423 194.118 333.357 194.396C332.29 194.652 330.914 194.78 329.229 194.78C328.567 194.78 327.586 194.748 326.285 194.684C324.983 194.62 323.565 194.46 322.029 194.204L322.317 191.26C322.722 191.281 323.213 191.302 323.789 191.324C324.386 191.324 325.037 191.324 325.741 191.324C326.445 191.324 327.149 191.324 327.853 191.324C328.962 191.324 329.805 191.302 330.381 191.26C330.957 191.196 331.351 191.068 331.565 190.876C331.778 190.684 331.885 190.396 331.885 190.012C331.885 189.521 331.703 189.201 331.341 189.052C330.978 188.881 330.402 188.689 329.613 188.476L325.613 187.484C324.589 187.206 323.799 186.854 323.245 186.428C322.69 186.001 322.295 185.489 322.061 184.892C321.847 184.273 321.741 183.537 321.741 182.684C321.741 181.596 321.965 180.721 322.413 180.06C322.861 179.398 323.575 178.929 324.557 178.652C325.538 178.353 326.85 178.204 328.493 178.204Z" fill="#003A69"/>
<path d="M18.52 96.96V105.216C18.52 105.483 18.5947 105.685 18.744 105.824C18.8933 105.963 19.1067 106.032 19.384 106.032H23.24L23.352 107.872C22.5947 107.957 21.8 108.005 20.968 108.016C20.1467 108.037 19.3253 108.048 18.504 108.048C17.704 108.048 17.096 107.835 16.68 107.408C16.2747 106.971 16.072 106.416 16.072 105.744V96.96H18.52ZM26.8581 100.096V105.296C26.8581 105.627 26.9275 105.861 27.0661 106C27.2155 106.139 27.4501 106.208 27.7701 106.208C28.1008 106.208 28.4261 106.149 28.7461 106.032C29.0768 105.904 29.4821 105.707 29.9621 105.44L30.1541 106.736C29.5781 107.237 29.0128 107.611 28.4581 107.856C27.9035 108.101 27.3328 108.224 26.7461 108.224C25.2421 108.224 24.4901 107.488 24.4901 106.016V100.096H26.8581ZM32.0901 100.096V108H30.2181L29.9461 106.448L29.7221 106.224V100.096H32.0901ZM37.7025 99.888C37.9905 99.888 38.3052 99.904 38.6465 99.936C38.9878 99.9573 39.3292 100.005 39.6705 100.08C40.0225 100.144 40.3425 100.24 40.6305 100.368L40.3745 101.856C39.9478 101.845 39.5372 101.835 39.1425 101.824C38.7585 101.813 38.4118 101.808 38.1025 101.808C37.6225 101.808 37.2438 101.872 36.9665 102C36.6892 102.128 36.4865 102.357 36.3585 102.688C36.2412 103.008 36.1825 103.456 36.1825 104.032C36.1825 104.619 36.2412 105.077 36.3585 105.408C36.4865 105.739 36.6892 105.968 36.9665 106.096C37.2438 106.224 37.6225 106.288 38.1025 106.288C38.2732 106.288 38.4918 106.283 38.7585 106.272C39.0252 106.261 39.3132 106.251 39.6225 106.24C39.9318 106.219 40.2358 106.187 40.5345 106.144L40.7585 107.648C40.3318 107.84 39.8465 107.979 39.3025 108.064C38.7585 108.149 38.2198 108.192 37.6865 108.192C36.7052 108.192 35.9212 108.059 35.3345 107.792C34.7585 107.515 34.3425 107.072 34.0865 106.464C33.8305 105.856 33.7025 105.045 33.7025 104.032C33.7025 103.019 33.8305 102.208 34.0865 101.6C34.3532 100.992 34.7798 100.555 35.3665 100.288C35.9532 100.021 36.7318 99.888 37.7025 99.888ZM44.0191 100.096L44.3071 101.664L44.5311 101.872V108H42.1631V100.096H44.0191ZM47.8751 99.888L47.6511 102.08H46.9951C46.6218 102.08 46.2325 102.133 45.8271 102.24C45.4218 102.347 44.9098 102.507 44.2911 102.72L44.1311 101.392C44.6858 100.901 45.2458 100.528 45.8111 100.272C46.3765 100.016 46.9258 99.888 47.4591 99.888H47.8751ZM52.6263 99.888C53.6183 99.888 54.4129 100.027 55.0103 100.304C55.6076 100.571 56.0343 101.008 56.2903 101.616C56.5569 102.224 56.6903 103.04 56.6903 104.064C56.6903 105.067 56.5569 105.872 56.2903 106.48C56.0343 107.088 55.6076 107.525 55.0103 107.792C54.4129 108.059 53.6183 108.192 52.6263 108.192C51.6449 108.192 50.8503 108.059 50.2423 107.792C49.6449 107.525 49.2129 107.088 48.9463 106.48C48.6796 105.872 48.5463 105.067 48.5463 104.064C48.5463 103.04 48.6796 102.224 48.9463 101.616C49.2129 101.008 49.6449 100.571 50.2423 100.304C50.8503 100.027 51.6449 99.888 52.6263 99.888ZM52.6263 101.616C52.2209 101.616 51.9009 101.685 51.6663 101.824C51.4316 101.963 51.2663 102.208 51.1703 102.56C51.0743 102.912 51.0263 103.413 51.0263 104.064C51.0263 104.704 51.0743 105.2 51.1703 105.552C51.2663 105.904 51.4316 106.149 51.6663 106.288C51.9009 106.416 52.2209 106.48 52.6263 106.48C53.0316 106.48 53.3516 106.416 53.5863 106.288C53.8209 106.149 53.9863 105.904 54.0823 105.552C54.1783 105.2 54.2263 104.704 54.2263 104.064C54.2263 103.413 54.1783 102.912 54.0823 102.56C53.9863 102.208 53.8209 101.963 53.5863 101.824C53.3516 101.685 53.0316 101.616 52.6263 101.616ZM66.7329 99.888C67.7782 99.888 68.5249 100.208 68.9729 100.848C69.4315 101.477 69.6609 102.523 69.6609 103.984C69.6609 104.592 69.6022 105.152 69.4849 105.664C69.3782 106.176 69.1809 106.624 68.8929 107.008C68.6155 107.381 68.2262 107.675 67.7249 107.888C67.2235 108.091 66.5729 108.192 65.7729 108.192C65.4955 108.192 65.1755 108.176 64.8129 108.144C64.4502 108.123 64.0769 108.085 63.6929 108.032C63.3195 107.989 62.9622 107.931 62.6209 107.856C62.2795 107.771 61.9862 107.675 61.7409 107.568L63.6289 106.208C63.8315 106.272 64.0555 106.331 64.3009 106.384C64.5462 106.427 64.7969 106.459 65.0529 106.48C65.3089 106.491 65.5329 106.491 65.7249 106.48C66.0875 106.469 66.3755 106.395 66.5889 106.256C66.8129 106.107 66.9729 105.856 67.0689 105.504C67.1649 105.141 67.2129 104.64 67.2129 104C67.2129 103.413 67.1702 102.96 67.0849 102.64C67.0102 102.309 66.8662 102.08 66.6529 101.952C66.4502 101.813 66.1622 101.744 65.7889 101.744C65.4369 101.744 65.1169 101.819 64.8289 101.968C64.5409 102.117 64.2209 102.315 63.8689 102.56L63.6929 101.44C63.9702 101.141 64.2689 100.875 64.5889 100.64C64.9089 100.405 65.2502 100.224 65.6129 100.096C65.9755 99.9573 66.3489 99.888 66.7329 99.888ZM64.1089 96.8L64.1249 99.36C64.1249 99.7227 64.1035 100.075 64.0609 100.416C64.0289 100.747 63.9649 101.072 63.8689 101.392L64.0929 101.6L64.1089 107.68L61.7409 107.568V96.8H64.1089ZM73.1129 100.096L73.4009 101.664L73.6249 101.872V108H71.2569V100.096H73.1129ZM76.9689 99.888L76.7449 102.08H76.0889C75.7155 102.08 75.3262 102.133 74.9209 102.24C74.5155 102.347 74.0035 102.507 73.3849 102.72L73.2249 101.392C73.7795 100.901 74.3395 100.528 74.9049 100.272C75.4702 100.016 76.0195 99.888 76.5529 99.888H76.9689ZM80.405 100.096V105.296C80.405 105.627 80.4743 105.861 80.613 106C80.7623 106.139 80.997 106.208 81.317 106.208C81.6477 106.208 81.973 106.149 82.293 106.032C82.6237 105.904 83.029 105.707 83.509 105.44L83.701 106.736C83.125 107.237 82.5597 107.611 82.005 107.856C81.4503 108.101 80.8797 108.224 80.293 108.224C78.789 108.224 78.037 107.488 78.037 106.016V100.096H80.405ZM85.637 100.096V108H83.765L83.493 106.448L83.269 106.224V100.096H85.637ZM90.6574 97.904V105.472C90.6574 105.76 90.7214 105.968 90.8494 106.096C90.988 106.213 91.212 106.272 91.5214 106.272H92.5454L92.8014 107.872C92.6094 107.936 92.3747 107.989 92.0974 108.032C91.82 108.085 91.5427 108.123 91.2654 108.144C90.988 108.176 90.7534 108.192 90.5614 108.192C89.8467 108.192 89.2867 108 88.8814 107.616C88.4867 107.232 88.2894 106.693 88.2894 106L88.2734 97.904H90.6574ZM92.8654 100.096V101.648H86.8974V100.176L88.4334 100.096H92.8654ZM97.8919 99.888C98.8839 99.888 99.6785 100.027 100.276 100.304C100.873 100.571 101.3 101.008 101.556 101.616C101.823 102.224 101.956 103.04 101.956 104.064C101.956 105.067 101.823 105.872 101.556 106.48C101.3 107.088 100.873 107.525 100.276 107.792C99.6785 108.059 98.8839 108.192 97.8919 108.192C96.9105 108.192 96.1159 108.059 95.5079 107.792C94.9105 107.525 94.4785 107.088 94.2119 106.48C93.9452 105.872 93.8119 105.067 93.8119 104.064C93.8119 103.04 93.9452 102.224 94.2119 101.616C94.4785 101.008 94.9105 100.571 95.5079 100.304C96.1159 100.027 96.9105 99.888 97.8919 99.888ZM97.8919 101.616C97.4865 101.616 97.1665 101.685 96.9319 101.824C96.6972 101.963 96.5319 102.208 96.4359 102.56C96.3399 102.912 96.2919 103.413 96.2919 104.064C96.2919 104.704 96.3399 105.2 96.4359 105.552C96.5319 105.904 96.6972 106.149 96.9319 106.288C97.1665 106.416 97.4865 106.48 97.8919 106.48C98.2972 106.48 98.6172 106.416 98.8519 106.288C99.0865 106.149 99.2519 105.904 99.3479 105.552C99.4439 105.2 99.4919 104.704 99.4919 104.064C99.4919 103.413 99.4439 102.912 99.3479 102.56C99.2519 102.208 99.0865 101.963 98.8519 101.824C98.6172 101.685 98.2972 101.616 97.8919 101.616ZM110.703 99.888C110.991 99.888 111.305 99.904 111.647 99.936C111.988 99.9573 112.329 100.005 112.671 100.08C113.023 100.144 113.343 100.24 113.631 100.368L113.375 101.856C112.948 101.845 112.537 101.835 112.143 101.824C111.759 101.813 111.412 101.808 111.103 101.808C110.623 101.808 110.244 101.872 109.967 102C109.689 102.128 109.487 102.357 109.359 102.688C109.241 103.008 109.183 103.456 109.183 104.032C109.183 104.619 109.241 105.077 109.359 105.408C109.487 105.739 109.689 105.968 109.967 106.096C110.244 106.224 110.623 106.288 111.103 106.288C111.273 106.288 111.492 106.283 111.759 106.272C112.025 106.261 112.313 106.251 112.623 106.24C112.932 106.219 113.236 106.187 113.535 106.144L113.759 107.648C113.332 107.84 112.847 107.979 112.303 108.064C111.759 108.149 111.22 108.192 110.687 108.192C109.705 108.192 108.921 108.059 108.335 107.792C107.759 107.515 107.343 107.072 107.087 106.464C106.831 105.856 106.703 105.045 106.703 104.032C106.703 103.019 106.831 102.208 107.087 101.6C107.353 100.992 107.78 100.555 108.367 100.288C108.953 100.021 109.732 99.888 110.703 99.888ZM118.829 99.888C119.821 99.888 120.616 100.027 121.213 100.304C121.811 100.571 122.237 101.008 122.493 101.616C122.76 102.224 122.893 103.04 122.893 104.064C122.893 105.067 122.76 105.872 122.493 106.48C122.237 107.088 121.811 107.525 121.213 107.792C120.616 108.059 119.821 108.192 118.829 108.192C117.848 108.192 117.053 108.059 116.445 107.792C115.848 107.525 115.416 107.088 115.149 106.48C114.883 105.872 114.749 105.067 114.749 104.064C114.749 103.04 114.883 102.224 115.149 101.616C115.416 101.008 115.848 100.571 116.445 100.304C117.053 100.027 117.848 99.888 118.829 99.888ZM118.829 101.616C118.424 101.616 118.104 101.685 117.869 101.824C117.635 101.963 117.469 102.208 117.373 102.56C117.277 102.912 117.229 103.413 117.229 104.064C117.229 104.704 117.277 105.2 117.373 105.552C117.469 105.904 117.635 106.149 117.869 106.288C118.104 106.416 118.424 106.48 118.829 106.48C119.235 106.48 119.555 106.416 119.789 106.288C120.024 106.149 120.189 105.904 120.285 105.552C120.381 105.2 120.429 104.704 120.429 104.064C120.429 103.413 120.381 102.912 120.285 102.56C120.189 102.208 120.024 101.963 119.789 101.824C119.555 101.685 119.235 101.616 118.829 101.616ZM130.011 99.888C131.504 99.888 132.251 100.619 132.251 102.08V108H129.883V102.816C129.883 102.464 129.819 102.224 129.691 102.096C129.563 101.957 129.344 101.888 129.035 101.888C128.694 101.888 128.342 101.957 127.979 102.096C127.616 102.224 127.168 102.427 126.635 102.704L126.523 101.376C127.088 100.896 127.664 100.528 128.251 100.272C128.848 100.016 129.435 99.888 130.011 99.888ZM126.411 100.096L126.683 101.664L126.875 101.872V108H124.507V100.096H126.411ZM137.124 99.888C137.508 99.888 137.924 99.904 138.372 99.936C138.82 99.9573 139.258 99.9893 139.684 100.032C140.111 100.075 140.49 100.128 140.82 100.192L140.66 101.664C140.148 101.653 139.631 101.648 139.108 101.648C138.596 101.637 138.095 101.632 137.604 101.632C137.188 101.621 136.868 101.627 136.644 101.648C136.42 101.669 136.26 101.723 136.164 101.808C136.079 101.883 136.036 102.021 136.036 102.224C136.036 102.459 136.116 102.619 136.276 102.704C136.436 102.779 136.703 102.864 137.076 102.96L139.14 103.456C139.802 103.627 140.292 103.883 140.612 104.224C140.932 104.555 141.092 105.056 141.092 105.728C141.092 106.389 140.97 106.896 140.724 107.248C140.479 107.6 140.09 107.845 139.556 107.984C139.023 108.112 138.335 108.176 137.492 108.176C137.162 108.176 136.671 108.16 136.02 108.128C135.37 108.096 134.655 108.016 133.876 107.888L134.036 106.416C134.228 106.427 134.474 106.437 134.772 106.448C135.071 106.448 135.396 106.448 135.748 106.448C136.1 106.448 136.452 106.448 136.804 106.448C137.348 106.448 137.764 106.437 138.052 106.416C138.34 106.384 138.538 106.32 138.644 106.224C138.751 106.128 138.804 105.984 138.804 105.792C138.804 105.557 138.714 105.397 138.532 105.312C138.351 105.227 138.063 105.136 137.668 105.04L135.668 104.544C135.167 104.405 134.778 104.229 134.5 104.016C134.223 103.803 134.026 103.541 133.908 103.232C133.802 102.923 133.748 102.555 133.748 102.128C133.748 101.584 133.855 101.152 134.068 100.832C134.292 100.501 134.65 100.261 135.14 100.112C135.642 99.9627 136.303 99.888 137.124 99.888ZM145.032 100.096V108H142.68V100.096H145.032ZM144.376 96.608C144.846 96.608 145.08 96.848 145.08 97.328V98.176C145.08 98.656 144.846 98.896 144.376 98.896H143.352C142.883 98.896 142.648 98.656 142.648 98.176V97.328C142.648 96.848 142.883 96.608 143.352 96.608H144.376ZM149.742 99.888C150.297 99.888 150.83 99.968 151.342 100.128C151.865 100.288 152.323 100.549 152.718 100.912L152.558 102C152.195 101.893 151.87 101.797 151.582 101.712C151.294 101.627 150.958 101.584 150.574 101.584C150.243 101.584 149.977 101.643 149.774 101.76C149.571 101.877 149.422 102.107 149.326 102.448C149.23 102.789 149.182 103.296 149.182 103.968C149.182 104.597 149.225 105.077 149.31 105.408C149.406 105.728 149.55 105.952 149.742 106.08C149.945 106.197 150.201 106.256 150.51 106.256C150.787 106.256 151.027 106.229 151.23 106.176C151.433 106.112 151.635 106.021 151.838 105.904C152.041 105.776 152.27 105.621 152.526 105.44L152.702 106.608C152.382 107.056 151.966 107.435 151.454 107.744C150.942 108.043 150.313 108.192 149.566 108.192C148.553 108.192 147.827 107.829 147.39 107.104C146.963 106.379 146.75 105.339 146.75 103.984C146.75 102.928 146.857 102.107 147.07 101.52C147.294 100.923 147.63 100.501 148.078 100.256C148.526 100.011 149.081 99.888 149.742 99.888ZM154.654 96.8V108H152.782L152.542 106.544L152.286 106.368V101.184L152.382 100.976C152.35 100.645 152.323 100.315 152.302 99.984C152.291 99.6427 152.286 99.296 152.286 98.944V96.8H154.654ZM160.329 99.888C161.662 99.888 162.617 100.117 163.193 100.576C163.78 101.024 164.073 101.696 164.073 102.592C164.084 103.317 163.902 103.861 163.529 104.224C163.156 104.576 162.51 104.752 161.593 104.752H157.177V103.424H160.937C161.3 103.424 161.529 103.349 161.625 103.2C161.732 103.04 161.785 102.821 161.785 102.544C161.774 102.171 161.662 101.915 161.449 101.776C161.246 101.627 160.9 101.552 160.409 101.552C159.972 101.552 159.63 101.611 159.385 101.728C159.14 101.845 158.969 102.069 158.873 102.4C158.777 102.731 158.729 103.211 158.729 103.84C158.729 104.501 158.788 105.013 158.905 105.376C159.022 105.728 159.22 105.973 159.497 106.112C159.785 106.251 160.18 106.32 160.681 106.32C161.044 106.32 161.492 106.309 162.025 106.288C162.569 106.256 163.113 106.208 163.657 106.144L163.881 107.6C163.572 107.749 163.22 107.867 162.825 107.952C162.43 108.037 162.025 108.096 161.609 108.128C161.193 108.171 160.793 108.192 160.409 108.192C159.406 108.192 158.596 108.048 157.977 107.76C157.369 107.461 156.926 107.008 156.649 106.4C156.382 105.792 156.249 105.013 156.249 104.064C156.249 103.029 156.388 102.208 156.665 101.6C156.942 100.992 157.38 100.555 157.977 100.288C158.574 100.021 159.358 99.888 160.329 99.888ZM167.472 100.096L167.76 101.664L167.984 101.872V108H165.616V100.096H167.472ZM171.328 99.888L171.104 102.08H170.448C170.075 102.08 169.686 102.133 169.28 102.24C168.875 102.347 168.363 102.507 167.744 102.72L167.584 101.392C168.139 100.901 168.699 100.528 169.264 100.272C169.83 100.016 170.379 99.888 170.912 99.888H171.328ZM176.574 99.888C177.235 99.888 177.795 99.9787 178.254 100.16C178.712 100.331 179.059 100.629 179.294 101.056C179.539 101.472 179.661 102.048 179.661 102.784V108H177.774L177.438 106.288L177.278 106.048V102.768C177.278 102.395 177.187 102.123 177.006 101.952C176.835 101.781 176.504 101.696 176.014 101.696C175.608 101.696 175.102 101.712 174.494 101.744C173.886 101.765 173.262 101.797 172.622 101.84L172.398 100.272C172.782 100.197 173.224 100.133 173.726 100.08C174.227 100.027 174.728 99.984 175.23 99.952C175.731 99.9093 176.179 99.888 176.574 99.888ZM178.686 103.136L178.67 104.464L175.15 104.48C174.862 104.48 174.654 104.549 174.526 104.688C174.408 104.827 174.35 105.013 174.35 105.248V105.632C174.35 105.899 174.424 106.107 174.574 106.256C174.723 106.395 174.963 106.464 175.294 106.464C175.571 106.464 175.87 106.405 176.19 106.288C176.52 106.171 176.846 106.005 177.166 105.792C177.486 105.579 177.768 105.328 178.014 105.04V106.064C177.918 106.224 177.774 106.427 177.582 106.672C177.4 106.907 177.166 107.141 176.878 107.376C176.59 107.6 176.254 107.792 175.87 107.952C175.486 108.112 175.048 108.192 174.558 108.192C174.078 108.192 173.646 108.107 173.262 107.936C172.878 107.765 172.574 107.515 172.35 107.184C172.126 106.853 172.014 106.443 172.014 105.952V105.136C172.014 104.507 172.227 104.016 172.654 103.664C173.08 103.312 173.667 103.136 174.414 103.136H178.686ZM187.027 99.888C188.52 99.888 189.267 100.619 189.267 102.08V108H186.899V102.816C186.899 102.464 186.835 102.224 186.707 102.096C186.579 101.957 186.36 101.888 186.051 101.888C185.709 101.888 185.357 101.957 184.995 102.096C184.632 102.224 184.184 102.427 183.651 102.704L183.539 101.376C184.104 100.896 184.68 100.528 185.266 100.272C185.864 100.016 186.451 99.888 187.027 99.888ZM183.427 100.096L183.699 101.664L183.891 101.872V108H181.523V100.096H183.427ZM193.836 99.888C194.391 99.888 194.924 99.968 195.436 100.128C195.959 100.288 196.417 100.549 196.812 100.912L196.652 102C196.289 101.893 195.964 101.797 195.676 101.712C195.388 101.627 195.052 101.584 194.668 101.584C194.337 101.584 194.071 101.643 193.868 101.76C193.665 101.877 193.516 102.107 193.42 102.448C193.324 102.789 193.276 103.296 193.276 103.968C193.276 104.597 193.319 105.077 193.404 105.408C193.5 105.728 193.644 105.952 193.836 106.08C194.039 106.197 194.295 106.256 194.604 106.256C194.881 106.256 195.121 106.229 195.324 106.176C195.527 106.112 195.729 106.021 195.932 105.904C196.135 105.776 196.364 105.621 196.62 105.44L196.796 106.608C196.476 107.056 196.06 107.435 195.548 107.744C195.036 108.043 194.407 108.192 193.66 108.192C192.647 108.192 191.921 107.829 191.484 107.104C191.057 106.379 190.844 105.339 190.844 103.984C190.844 102.928 190.951 102.107 191.164 101.52C191.388 100.923 191.724 100.501 192.172 100.256C192.62 100.011 193.175 99.888 193.836 99.888ZM198.748 96.8V108H196.876L196.636 106.544L196.38 106.368V101.184L196.476 100.976C196.444 100.645 196.417 100.315 196.396 99.984C196.385 99.6427 196.38 99.296 196.38 98.944V96.8H198.748ZM204.439 99.888C205.431 99.888 206.225 100.027 206.823 100.304C207.42 100.571 207.847 101.008 208.103 101.616C208.369 102.224 208.503 103.04 208.503 104.064C208.503 105.067 208.369 105.872 208.103 106.48C207.847 107.088 207.42 107.525 206.823 107.792C206.225 108.059 205.431 108.192 204.439 108.192C203.457 108.192 202.663 108.059 202.055 107.792C201.457 107.525 201.025 107.088 200.759 106.48C200.492 105.872 200.359 105.067 200.359 104.064C200.359 103.04 200.492 102.224 200.759 101.616C201.025 101.008 201.457 100.571 202.055 100.304C202.663 100.027 203.457 99.888 204.439 99.888ZM204.439 101.616C204.033 101.616 203.713 101.685 203.479 101.824C203.244 101.963 203.079 102.208 202.983 102.56C202.887 102.912 202.839 103.413 202.839 104.064C202.839 104.704 202.887 105.2 202.983 105.552C203.079 105.904 203.244 106.149 203.479 106.288C203.713 106.416 204.033 106.48 204.439 106.48C204.844 106.48 205.164 106.416 205.399 106.288C205.633 106.149 205.799 105.904 205.895 105.552C205.991 105.2 206.039 104.704 206.039 104.064C206.039 103.413 205.991 102.912 205.895 102.56C205.799 102.208 205.633 101.963 205.399 101.824C205.164 101.685 204.844 101.616 204.439 101.616ZM217.745 99.888C218.407 99.888 218.967 99.9787 219.425 100.16C219.884 100.331 220.231 100.629 220.465 101.056C220.711 101.472 220.833 102.048 220.833 102.784V108H218.945L218.609 106.288L218.449 106.048V102.768C218.449 102.395 218.359 102.123 218.177 101.952C218.007 101.781 217.676 101.696 217.185 101.696C216.78 101.696 216.273 101.712 215.665 101.744C215.057 101.765 214.433 101.797 213.793 101.84L213.569 100.272C213.953 100.197 214.396 100.133 214.897 100.08C215.399 100.027 215.9 99.984 216.401 99.952C216.903 99.9093 217.351 99.888 217.745 99.888ZM219.857 103.136L219.841 104.464L216.321 104.48C216.033 104.48 215.825 104.549 215.697 104.688C215.58 104.827 215.521 105.013 215.521 105.248V105.632C215.521 105.899 215.596 106.107 215.745 106.256C215.895 106.395 216.135 106.464 216.465 106.464C216.743 106.464 217.041 106.405 217.361 106.288C217.692 106.171 218.017 106.005 218.337 105.792C218.657 105.579 218.94 105.328 219.185 105.04V106.064C219.089 106.224 218.945 106.427 218.753 106.672C218.572 106.907 218.337 107.141 218.049 107.376C217.761 107.6 217.425 107.792 217.041 107.952C216.657 108.112 216.22 108.192 215.729 108.192C215.249 108.192 214.817 108.107 214.433 107.936C214.049 107.765 213.745 107.515 213.521 107.184C213.297 106.853 213.185 106.443 213.185 105.952V105.136C213.185 104.507 213.399 104.016 213.825 103.664C214.252 103.312 214.839 103.136 215.585 103.136H219.857ZM227.894 99.904C228.886 99.904 229.596 100.267 230.022 100.992C230.449 101.717 230.662 102.757 230.662 104.112C230.662 105.168 230.55 105.995 230.326 106.592C230.113 107.189 229.782 107.611 229.334 107.856C228.897 108.091 228.348 108.208 227.686 108.208C227.121 108.208 226.582 108.128 226.07 107.968C225.558 107.808 225.105 107.541 224.71 107.168L224.87 106.112C225.222 106.219 225.542 106.315 225.83 106.4C226.129 106.475 226.465 106.512 226.838 106.512C227.18 106.512 227.452 106.453 227.654 106.336C227.857 106.219 228.001 105.989 228.086 105.648C228.182 105.296 228.23 104.789 228.23 104.128C228.23 103.477 228.188 102.981 228.102 102.64C228.017 102.288 227.878 102.048 227.686 101.92C227.494 101.781 227.244 101.712 226.934 101.712C226.593 101.712 226.278 101.781 225.99 101.92C225.702 102.048 225.377 102.235 225.014 102.48L224.71 101.392C224.924 101.104 225.196 100.848 225.526 100.624C225.868 100.4 226.241 100.224 226.646 100.096C227.052 99.968 227.468 99.904 227.894 99.904ZM224.614 100.096L224.838 101.536L225.062 101.776V106.912L224.982 107.104C225.014 107.424 225.036 107.755 225.046 108.096C225.068 108.448 225.073 108.795 225.062 109.136V111.04H222.694V100.096H224.614ZM236.032 99.888C237.365 99.888 238.32 100.117 238.896 100.576C239.483 101.024 239.776 101.696 239.776 102.592C239.787 103.317 239.605 103.861 239.232 104.224C238.859 104.576 238.213 104.752 237.296 104.752H232.88V103.424H236.64C237.003 103.424 237.232 103.349 237.328 103.2C237.435 103.04 237.488 102.821 237.488 102.544C237.477 102.171 237.365 101.915 237.152 101.776C236.949 101.627 236.603 101.552 236.112 101.552C235.675 101.552 235.333 101.611 235.088 101.728C234.843 101.845 234.672 102.069 234.576 102.4C234.48 102.731 234.432 103.211 234.432 103.84C234.432 104.501 234.491 105.013 234.608 105.376C234.725 105.728 234.923 105.973 235.2 106.112C235.488 106.251 235.883 106.32 236.384 106.32C236.747 106.32 237.195 106.309 237.728 106.288C238.272 106.256 238.816 106.208 239.36 106.144L239.584 107.6C239.275 107.749 238.923 107.867 238.528 107.952C238.133 108.037 237.728 108.096 237.312 108.128C236.896 108.171 236.496 108.192 236.112 108.192C235.109 108.192 234.299 108.048 233.68 107.76C233.072 107.461 232.629 107.008 232.352 106.4C232.085 105.792 231.952 105.013 231.952 104.064C231.952 103.029 232.091 102.208 232.368 101.6C232.645 100.992 233.083 100.555 233.68 100.288C234.277 100.021 235.061 99.888 236.032 99.888ZM246.823 99.888C248.317 99.888 249.063 100.619 249.063 102.08V108H246.695V102.816C246.695 102.464 246.631 102.224 246.503 102.096C246.375 101.957 246.157 101.888 245.847 101.888C245.506 101.888 245.154 101.957 244.791 102.096C244.429 102.224 243.981 102.427 243.447 102.704L243.335 101.376C243.901 100.896 244.477 100.528 245.063 100.272C245.661 100.016 246.247 99.888 246.823 99.888ZM243.223 100.096L243.495 101.664L243.687 101.872V108H241.319V100.096H243.223ZM255.105 99.888C255.766 99.888 256.326 99.9787 256.785 100.16C257.243 100.331 257.59 100.629 257.825 101.056C258.07 101.472 258.193 102.048 258.193 102.784V108H256.305L255.969 106.288L255.809 106.048V102.768C255.809 102.395 255.718 102.123 255.537 101.952C255.366 101.781 255.035 101.696 254.545 101.696C254.139 101.696 253.633 101.712 253.025 101.744C252.417 101.765 251.793 101.797 251.153 101.84L250.929 100.272C251.313 100.197 251.755 100.133 252.257 100.08C252.758 100.027 253.259 99.984 253.761 99.952C254.262 99.9093 254.71 99.888 255.105 99.888ZM257.217 103.136L257.201 104.464L253.681 104.48C253.393 104.48 253.185 104.549 253.057 104.688C252.939 104.827 252.881 105.013 252.881 105.248V105.632C252.881 105.899 252.955 106.107 253.105 106.256C253.254 106.395 253.494 106.464 253.825 106.464C254.102 106.464 254.401 106.405 254.721 106.288C255.051 106.171 255.377 106.005 255.697 105.792C256.017 105.579 256.299 105.328 256.545 105.04V106.064C256.449 106.224 256.305 106.427 256.113 106.672C255.931 106.907 255.697 107.141 255.409 107.376C255.121 107.6 254.785 107.792 254.401 107.952C254.017 108.112 253.579 108.192 253.089 108.192C252.609 108.192 252.177 108.107 251.793 107.936C251.409 107.765 251.105 107.515 250.881 107.184C250.657 106.853 250.545 106.443 250.545 105.952V105.136C250.545 104.507 250.758 104.016 251.185 103.664C251.611 103.312 252.198 103.136 252.945 103.136H257.217ZM263.062 99.888C263.446 99.888 263.862 99.904 264.31 99.936C264.758 99.9573 265.195 99.9893 265.622 100.032C266.048 100.075 266.427 100.128 266.758 100.192L266.598 101.664C266.086 101.653 265.568 101.648 265.046 101.648C264.534 101.637 264.032 101.632 263.542 101.632C263.126 101.621 262.806 101.627 262.582 101.648C262.358 101.669 262.198 101.723 262.102 101.808C262.016 101.883 261.974 102.021 261.974 102.224C261.974 102.459 262.054 102.619 262.214 102.704C262.374 102.779 262.64 102.864 263.014 102.96L265.078 103.456C265.739 103.627 266.23 103.883 266.55 104.224C266.87 104.555 267.03 105.056 267.03 105.728C267.03 106.389 266.907 106.896 266.662 107.248C266.416 107.6 266.027 107.845 265.494 107.984C264.96 108.112 264.272 108.176 263.43 108.176C263.099 108.176 262.608 108.16 261.958 108.128C261.307 108.096 260.592 108.016 259.814 107.888L259.974 106.416C260.166 106.427 260.411 106.437 260.71 106.448C261.008 106.448 261.334 106.448 261.686 106.448C262.038 106.448 262.39 106.448 262.742 106.448C263.286 106.448 263.702 106.437 263.99 106.416C264.278 106.384 264.475 106.32 264.582 106.224C264.688 106.128 264.742 105.984 264.742 105.792C264.742 105.557 264.651 105.397 264.47 105.312C264.288 105.227 264 105.136 263.606 105.04L261.606 104.544C261.104 104.405 260.715 104.229 260.438 104.016C260.16 103.803 259.963 103.541 259.846 103.232C259.739 102.923 259.686 102.555 259.686 102.128C259.686 101.584 259.792 101.152 260.006 100.832C260.23 100.501 260.587 100.261 261.078 100.112C261.579 99.9627 262.24 99.888 263.062 99.888ZM274.423 100.096V108H272.071V100.096H274.423ZM273.767 96.608C274.236 96.608 274.471 96.848 274.471 97.328V98.176C274.471 98.656 274.236 98.896 273.767 98.896H272.743C272.274 98.896 272.039 98.656 272.039 98.176V97.328C272.039 96.848 272.274 96.608 272.743 96.608H273.767ZM281.933 99.888C283.426 99.888 284.173 100.619 284.173 102.08V108H281.805V102.816C281.805 102.464 281.741 102.224 281.613 102.096C281.485 101.957 281.266 101.888 280.957 101.888C280.615 101.888 280.263 101.957 279.901 102.096C279.538 102.224 279.09 102.427 278.557 102.704L278.445 101.376C279.01 100.896 279.586 100.528 280.173 100.272C280.77 100.016 281.357 99.888 281.933 99.888ZM278.333 100.096L278.605 101.664L278.797 101.872V108H276.429V100.096H278.333ZM289.35 96.464C289.542 96.464 289.793 96.4693 290.102 96.48C290.422 96.4907 290.742 96.512 291.062 96.544C291.393 96.5653 291.675 96.5973 291.91 96.64L291.702 98.16H290.198C289.793 98.16 289.51 98.24 289.35 98.4C289.19 98.56 289.11 98.8373 289.11 99.232V108H286.742V98.928C286.742 98.4267 286.822 97.9947 286.982 97.632C287.153 97.2693 287.43 96.9867 287.814 96.784C288.198 96.5707 288.71 96.464 289.35 96.464ZM291.318 100.096V101.648H285.366V100.176L286.79 100.096H291.318ZM296.173 99.888C297.165 99.888 297.96 100.027 298.557 100.304C299.154 100.571 299.581 101.008 299.837 101.616C300.104 102.224 300.237 103.04 300.237 104.064C300.237 105.067 300.104 105.872 299.837 106.48C299.581 107.088 299.154 107.525 298.557 107.792C297.96 108.059 297.165 108.192 296.173 108.192C295.192 108.192 294.397 108.059 293.789 107.792C293.192 107.525 292.76 107.088 292.493 106.48C292.226 105.872 292.093 105.067 292.093 104.064C292.093 103.04 292.226 102.224 292.493 101.616C292.76 101.008 293.192 100.571 293.789 100.304C294.397 100.027 295.192 99.888 296.173 99.888ZM296.173 101.616C295.768 101.616 295.448 101.685 295.213 101.824C294.978 101.963 294.813 102.208 294.717 102.56C294.621 102.912 294.573 103.413 294.573 104.064C294.573 104.704 294.621 105.2 294.717 105.552C294.813 105.904 294.978 106.149 295.213 106.288C295.448 106.416 295.768 106.48 296.173 106.48C296.578 106.48 296.898 106.416 297.133 106.288C297.368 106.149 297.533 105.904 297.629 105.552C297.725 105.2 297.773 104.704 297.773 104.064C297.773 103.413 297.725 102.912 297.629 102.56C297.533 102.208 297.368 101.963 297.133 101.824C296.898 101.685 296.578 101.616 296.173 101.616ZM303.707 100.096L303.995 101.664L304.219 101.872V108H301.851V100.096H303.707ZM307.563 99.888L307.339 102.08H306.683C306.309 102.08 305.92 102.133 305.515 102.24C305.109 102.347 304.597 102.507 303.979 102.72L303.819 101.392C304.373 100.901 304.933 100.528 305.499 100.272C306.064 100.016 306.613 99.888 307.147 99.888H307.563ZM318.695 99.888C319.409 99.888 319.953 100.075 320.327 100.448C320.7 100.821 320.887 101.365 320.887 102.08V108H318.535V102.816C318.535 102.485 318.471 102.251 318.343 102.112C318.215 101.963 317.991 101.888 317.671 101.888C317.479 101.888 317.297 101.915 317.127 101.968C316.956 102.021 316.759 102.107 316.535 102.224C316.311 102.341 316.039 102.501 315.719 102.704L315.591 101.392C316.103 100.891 316.604 100.517 317.095 100.272C317.596 100.016 318.129 99.888 318.695 99.888ZM310.567 100.096L310.807 101.664L311.047 101.872V108H308.679V100.096H310.567ZM313.767 99.888C314.471 99.888 315.004 100.075 315.367 100.448C315.74 100.811 315.927 101.355 315.927 102.08V108H313.655V102.816C313.655 102.475 313.58 102.235 313.431 102.096C313.292 101.957 313.073 101.888 312.775 101.888C312.593 101.888 312.412 101.915 312.231 101.968C312.06 102.011 311.857 102.091 311.623 102.208C311.399 102.325 311.121 102.491 310.791 102.704L310.647 101.392C311.169 100.891 311.676 100.517 312.167 100.272C312.657 100.016 313.191 99.888 313.767 99.888ZM326.949 99.888C327.61 99.888 328.17 99.9787 328.629 100.16C329.087 100.331 329.434 100.629 329.669 101.056C329.914 101.472 330.036 102.048 330.036 102.784V108H328.149L327.813 106.288L327.653 106.048V102.768C327.653 102.395 327.562 102.123 327.381 101.952C327.21 101.781 326.879 101.696 326.389 101.696C325.983 101.696 325.477 101.712 324.869 101.744C324.261 101.765 323.637 101.797 322.997 101.84L322.773 100.272C323.157 100.197 323.599 100.133 324.101 100.08C324.602 100.027 325.103 99.984 325.605 99.952C326.106 99.9093 326.554 99.888 326.949 99.888ZM329.061 103.136L329.045 104.464L325.525 104.48C325.237 104.48 325.029 104.549 324.901 104.688C324.783 104.827 324.725 105.013 324.725 105.248V105.632C324.725 105.899 324.799 106.107 324.949 106.256C325.098 106.395 325.338 106.464 325.669 106.464C325.946 106.464 326.245 106.405 326.565 106.288C326.895 106.171 327.221 106.005 327.541 105.792C327.861 105.579 328.143 105.328 328.389 105.04V106.064C328.293 106.224 328.149 106.427 327.957 106.672C327.775 106.907 327.541 107.141 327.253 107.376C326.965 107.6 326.629 107.792 326.245 107.952C325.861 108.112 325.423 108.192 324.933 108.192C324.453 108.192 324.021 108.107 323.637 107.936C323.253 107.765 322.949 107.515 322.725 107.184C322.501 106.853 322.389 106.443 322.389 105.952V105.136C322.389 104.507 322.602 104.016 323.029 103.664C323.455 103.312 324.042 103.136 324.789 103.136H329.061ZM335.578 99.888C335.866 99.888 336.18 99.904 336.522 99.936C336.863 99.9573 337.204 100.005 337.546 100.08C337.898 100.144 338.218 100.24 338.506 100.368L338.25 101.856C337.823 101.845 337.412 101.835 337.018 101.824C336.634 101.813 336.287 101.808 335.978 101.808C335.498 101.808 335.119 101.872 334.842 102C334.564 102.128 334.362 102.357 334.234 102.688C334.116 103.008 334.058 103.456 334.058 104.032C334.058 104.619 334.116 105.077 334.234 105.408C334.362 105.739 334.564 105.968 334.842 106.096C335.119 106.224 335.498 106.288 335.978 106.288C336.148 106.288 336.367 106.283 336.634 106.272C336.9 106.261 337.188 106.251 337.498 106.24C337.807 106.219 338.111 106.187 338.41 106.144L338.634 107.648C338.207 107.84 337.722 107.979 337.178 108.064C336.634 108.149 336.095 108.192 335.562 108.192C334.58 108.192 333.796 108.059 333.21 107.792C332.634 107.515 332.218 107.072 331.962 106.464C331.706 105.856 331.578 105.045 331.578 104.032C331.578 103.019 331.706 102.208 331.962 101.6C332.228 100.992 332.655 100.555 333.242 100.288C333.828 100.021 334.607 99.888 335.578 99.888ZM334.474 108.848C335.018 108.784 335.46 108.763 335.802 108.784C336.143 108.816 336.394 108.912 336.554 109.072C336.714 109.243 336.788 109.515 336.778 109.888C336.756 110.421 336.602 110.859 336.314 111.2C336.026 111.552 335.642 111.797 335.161 111.936C334.682 112.075 334.148 112.107 333.562 112.032L333.834 111.04C334.228 111.051 334.559 110.981 334.826 110.832C335.103 110.693 335.252 110.448 335.274 110.096C335.295 109.936 335.236 109.84 335.098 109.808C334.97 109.776 334.687 109.755 334.25 109.744L334.474 108.848ZM343.704 99.888C344.696 99.888 345.491 100.027 346.088 100.304C346.686 100.571 347.112 101.008 347.368 101.616C347.635 102.224 347.768 103.04 347.768 104.064C347.768 105.067 347.635 105.872 347.368 106.48C347.112 107.088 346.686 107.525 346.088 107.792C345.491 108.059 344.696 108.192 343.704 108.192C342.723 108.192 341.928 108.059 341.32 107.792C340.723 107.525 340.291 107.088 340.024 106.48C339.758 105.872 339.624 105.067 339.624 104.064C339.624 103.04 339.758 102.224 340.024 101.616C340.291 101.008 340.723 100.571 341.32 100.304C341.928 100.027 342.723 99.888 343.704 99.888ZM343.704 101.616C343.299 101.616 342.979 101.685 342.744 101.824C342.51 101.963 342.344 102.208 342.248 102.56C342.152 102.912 342.104 103.413 342.104 104.064C342.104 104.704 342.152 105.2 342.248 105.552C342.344 105.904 342.51 106.149 342.744 106.288C342.979 106.416 343.299 106.48 343.704 106.48C344.11 106.48 344.43 106.416 344.664 106.288C344.899 106.149 345.064 105.904 345.16 105.552C345.256 105.2 345.304 104.704 345.304 104.064C345.304 103.413 345.256 102.912 345.16 102.56C345.064 102.208 344.899 101.963 344.664 101.824C344.43 101.685 344.11 101.616 343.704 101.616ZM342.216 96.576C342.483 96.5973 342.723 96.6453 342.936 96.72C343.15 96.784 343.352 96.8587 343.544 96.944C343.747 97.0293 343.944 97.1147 344.136 97.2C344.339 97.2747 344.547 97.328 344.76 97.36C345.038 97.4027 345.208 97.3653 345.272 97.248C345.347 97.1307 345.384 96.9333 345.384 96.656H346.408C346.526 97.4133 346.451 97.9893 346.184 98.384C345.918 98.768 345.555 98.944 345.096 98.912C344.734 98.88 344.403 98.8107 344.104 98.704C343.816 98.5867 343.544 98.4693 343.288 98.352C343.043 98.224 342.792 98.144 342.536 98.112C342.27 98.08 342.099 98.1227 342.024 98.24C341.96 98.3573 341.928 98.56 341.928 98.848H340.904C340.83 98.3147 340.846 97.8773 340.952 97.536C341.059 97.1947 341.23 96.944 341.464 96.784C341.699 96.624 341.95 96.5547 342.216 96.576ZM353.126 99.888C354.459 99.888 355.414 100.117 355.99 100.576C356.577 101.024 356.87 101.696 356.87 102.592C356.881 103.317 356.699 103.861 356.326 104.224C355.953 104.576 355.307 104.752 354.39 104.752H349.974V103.424H353.734C354.097 103.424 354.326 103.349 354.422 103.2C354.529 103.04 354.582 102.821 354.582 102.544C354.571 102.171 354.459 101.915 354.246 101.776C354.043 101.627 353.697 101.552 353.206 101.552C352.769 101.552 352.427 101.611 352.182 101.728C351.937 101.845 351.766 102.069 351.67 102.4C351.574 102.731 351.526 103.211 351.526 103.84C351.526 104.501 351.585 105.013 351.702 105.376C351.819 105.728 352.017 105.973 352.294 106.112C352.582 106.251 352.977 106.32 353.478 106.32C353.841 106.32 354.289 106.309 354.822 106.288C355.366 106.256 355.91 106.208 356.454 106.144L356.678 107.6C356.369 107.749 356.017 107.867 355.622 107.952C355.227 108.037 354.822 108.096 354.406 108.128C353.99 108.171 353.59 108.192 353.206 108.192C352.203 108.192 351.393 108.048 350.774 107.76C350.166 107.461 349.723 107.008 349.446 106.4C349.179 105.792 349.046 105.013 349.046 104.064C349.046 103.029 349.185 102.208 349.462 101.6C349.739 100.992 350.177 100.555 350.774 100.288C351.371 100.021 352.155 99.888 353.126 99.888ZM361.421 99.888C361.805 99.888 362.221 99.904 362.669 99.936C363.117 99.9573 363.554 99.9893 363.981 100.032C364.408 100.075 364.786 100.128 365.117 100.192L364.957 101.664C364.445 101.653 363.928 101.648 363.405 101.648C362.893 101.637 362.392 101.632 361.901 101.632C361.485 101.621 361.165 101.627 360.941 101.648C360.717 101.669 360.557 101.723 360.461 101.808C360.376 101.883 360.333 102.021 360.333 102.224C360.333 102.459 360.413 102.619 360.573 102.704C360.733 102.779 361 102.864 361.373 102.96L363.437 103.456C364.098 103.627 364.589 103.883 364.909 104.224C365.229 104.555 365.389 105.056 365.389 105.728C365.389 106.389 365.266 106.896 365.021 107.248C364.776 107.6 364.386 107.845 363.853 107.984C363.32 108.112 362.632 108.176 361.789 108.176C361.458 108.176 360.968 108.16 360.317 108.128C359.666 108.096 358.952 108.016 358.173 107.888L358.333 106.416C358.525 106.427 358.77 106.437 359.069 106.448C359.368 106.448 359.693 106.448 360.045 106.448C360.397 106.448 360.749 106.448 361.101 106.448C361.645 106.448 362.061 106.437 362.349 106.416C362.637 106.384 362.834 106.32 362.941 106.224C363.048 106.128 363.101 105.984 363.101 105.792C363.101 105.557 363.01 105.397 362.829 105.312C362.648 105.227 362.36 105.136 361.965 105.04L359.965 104.544C359.464 104.405 359.074 104.229 358.797 104.016C358.52 103.803 358.322 103.541 358.205 103.232C358.098 102.923 358.045 102.555 358.045 102.128C358.045 101.584 358.152 101.152 358.365 100.832C358.589 100.501 358.946 100.261 359.437 100.112C359.938 99.9627 360.6 99.888 361.421 99.888ZM373.374 99.888C373.758 99.888 374.174 99.904 374.622 99.936C375.07 99.9573 375.508 99.9893 375.934 100.032C376.361 100.075 376.74 100.128 377.07 100.192L376.91 101.664C376.398 101.653 375.881 101.648 375.358 101.648C374.846 101.637 374.345 101.632 373.854 101.632C373.438 101.621 373.118 101.627 372.894 101.648C372.67 101.669 372.51 101.723 372.414 101.808C372.329 101.883 372.286 102.021 372.286 102.224C372.286 102.459 372.366 102.619 372.526 102.704C372.686 102.779 372.953 102.864 373.326 102.96L375.39 103.456C376.052 103.627 376.542 103.883 376.862 104.224C377.182 104.555 377.342 105.056 377.342 105.728C377.342 106.389 377.22 106.896 376.974 107.248C376.729 107.6 376.34 107.845 375.806 107.984C375.273 108.112 374.585 108.176 373.742 108.176C373.412 108.176 372.921 108.16 372.27 108.128C371.62 108.096 370.905 108.016 370.126 107.888L370.286 106.416C370.478 106.427 370.724 106.437 371.022 106.448C371.321 106.448 371.646 106.448 371.998 106.448C372.35 106.448 372.702 106.448 373.054 106.448C373.598 106.448 374.014 106.437 374.302 106.416C374.59 106.384 374.788 106.32 374.894 106.224C375.001 106.128 375.054 105.984 375.054 105.792C375.054 105.557 374.964 105.397 374.782 105.312C374.601 105.227 374.313 105.136 373.918 105.04L371.918 104.544C371.417 104.405 371.028 104.229 370.75 104.016C370.473 103.803 370.276 103.541 370.158 103.232C370.052 102.923 369.998 102.555 369.998 102.128C369.998 101.584 370.105 101.152 370.318 100.832C370.542 100.501 370.9 100.261 371.39 100.112C371.892 99.9627 372.553 99.888 373.374 99.888ZM382.626 99.888C383.618 99.888 384.413 100.027 385.01 100.304C385.608 100.571 386.034 101.008 386.29 101.616C386.557 102.224 386.69 103.04 386.69 104.064C386.69 105.067 386.557 105.872 386.29 106.48C386.034 107.088 385.608 107.525 385.01 107.792C384.413 108.059 383.618 108.192 382.626 108.192C381.645 108.192 380.85 108.059 380.242 107.792C379.645 107.525 379.213 107.088 378.946 106.48C378.68 105.872 378.546 105.067 378.546 104.064C378.546 103.04 378.68 102.224 378.946 101.616C379.213 101.008 379.645 100.571 380.242 100.304C380.85 100.027 381.645 99.888 382.626 99.888ZM382.626 101.616C382.221 101.616 381.901 101.685 381.666 101.824C381.432 101.963 381.266 102.208 381.17 102.56C381.074 102.912 381.026 103.413 381.026 104.064C381.026 104.704 381.074 105.2 381.17 105.552C381.266 105.904 381.432 106.149 381.666 106.288C381.901 106.416 382.221 106.48 382.626 106.48C383.032 106.48 383.352 106.416 383.586 106.288C383.821 106.149 383.986 105.904 384.082 105.552C384.178 105.2 384.226 104.704 384.226 104.064C384.226 103.413 384.178 102.912 384.082 102.56C383.986 102.208 383.821 101.963 383.586 101.824C383.352 101.685 383.032 101.616 382.626 101.616ZM391.984 99.888C392.272 99.888 392.586 99.904 392.928 99.936C393.269 99.9573 393.61 100.005 393.952 100.08C394.304 100.144 394.624 100.24 394.912 100.368L394.656 101.856C394.229 101.845 393.818 101.835 393.424 101.824C393.04 101.813 392.693 101.808 392.384 101.808C391.904 101.808 391.525 101.872 391.248 102C390.97 102.128 390.768 102.357 390.64 102.688C390.522 103.008 390.464 103.456 390.464 104.032C390.464 104.619 390.522 105.077 390.64 105.408C390.768 105.739 390.97 105.968 391.248 106.096C391.525 106.224 391.904 106.288 392.384 106.288C392.554 106.288 392.773 106.283 393.04 106.272C393.306 106.261 393.594 106.251 393.904 106.24C394.213 106.219 394.517 106.187 394.816 106.144L395.04 107.648C394.613 107.84 394.128 107.979 393.584 108.064C393.04 108.149 392.501 108.192 391.968 108.192C390.986 108.192 390.202 108.059 389.616 107.792C389.04 107.515 388.624 107.072 388.368 106.464C388.112 105.856 387.984 105.045 387.984 104.032C387.984 103.019 388.112 102.208 388.368 101.6C388.634 100.992 389.061 100.555 389.648 100.288C390.234 100.021 391.013 99.888 391.984 99.888ZM398.86 100.096V108H396.508V100.096H398.86ZM398.204 96.608C398.674 96.608 398.908 96.848 398.908 97.328V98.176C398.908 98.656 398.674 98.896 398.204 98.896H397.18C396.711 98.896 396.476 98.656 396.476 98.176V97.328C396.476 96.848 396.711 96.608 397.18 96.608H398.204ZM404.61 99.888C405.944 99.888 406.898 100.117 407.474 100.576C408.061 101.024 408.354 101.696 408.354 102.592C408.365 103.317 408.184 103.861 407.81 104.224C407.437 104.576 406.792 104.752 405.874 104.752H401.458V103.424H405.218C405.581 103.424 405.81 103.349 405.906 103.2C406.013 103.04 406.066 102.821 406.066 102.544C406.056 102.171 405.944 101.915 405.73 101.776C405.528 101.627 405.181 101.552 404.69 101.552C404.253 101.552 403.912 101.611 403.666 101.728C403.421 101.845 403.25 102.069 403.154 102.4C403.058 102.731 403.01 103.211 403.01 103.84C403.01 104.501 403.069 105.013 403.186 105.376C403.304 105.728 403.501 105.973 403.778 106.112C404.066 106.251 404.461 106.32 404.962 106.32C405.325 106.32 405.773 106.309 406.306 106.288C406.85 106.256 407.394 106.208 407.938 106.144L408.162 107.6C407.853 107.749 407.501 107.867 407.106 107.952C406.712 108.037 406.306 108.096 405.89 108.128C405.474 108.171 405.074 108.192 404.69 108.192C403.688 108.192 402.877 108.048 402.258 107.76C401.65 107.461 401.208 107.008 400.93 106.4C400.664 105.792 400.53 105.013 400.53 104.064C400.53 103.029 400.669 102.208 400.946 101.6C401.224 100.992 401.661 100.555 402.258 100.288C402.856 100.021 403.64 99.888 404.61 99.888ZM412.986 97.904V105.472C412.986 105.76 413.05 105.968 413.178 106.096C413.316 106.213 413.54 106.272 413.85 106.272H414.874L415.13 107.872C414.938 107.936 414.703 107.989 414.426 108.032C414.148 108.085 413.871 108.123 413.594 108.144C413.316 108.176 413.082 108.192 412.89 108.192C412.175 108.192 411.615 108 411.21 107.616C410.815 107.232 410.618 106.693 410.618 106L410.602 97.904H412.986ZM415.194 100.096V101.648H409.226V100.176L410.762 100.096H415.194ZM420.636 99.888C421.297 99.888 421.857 99.9787 422.316 100.16C422.775 100.331 423.121 100.629 423.356 101.056C423.601 101.472 423.724 102.048 423.724 102.784V108H421.836L421.5 106.288L421.34 106.048V102.768C421.34 102.395 421.249 102.123 421.068 101.952C420.897 101.781 420.567 101.696 420.076 101.696C419.671 101.696 419.164 101.712 418.556 101.744C417.948 101.765 417.324 101.797 416.684 101.84L416.46 100.272C416.844 100.197 417.287 100.133 417.788 100.08C418.289 100.027 418.791 99.984 419.292 99.952C419.793 99.9093 420.241 99.888 420.636 99.888ZM422.748 103.136L422.732 104.464L419.212 104.48C418.924 104.48 418.716 104.549 418.588 104.688C418.471 104.827 418.412 105.013 418.412 105.248V105.632C418.412 105.899 418.487 106.107 418.636 106.256C418.785 106.395 419.025 106.464 419.356 106.464C419.633 106.464 419.932 106.405 420.252 106.288C420.583 106.171 420.908 106.005 421.228 105.792C421.548 105.579 421.831 105.328 422.076 105.04V106.064C421.98 106.224 421.836 106.427 421.644 106.672C421.463 106.907 421.228 107.141 420.94 107.376C420.652 107.6 420.316 107.792 419.932 107.952C419.548 108.112 419.111 108.192 418.62 108.192C418.14 108.192 417.708 108.107 417.324 107.936C416.94 107.765 416.636 107.515 416.412 107.184C416.188 106.853 416.076 106.443 416.076 105.952V105.136C416.076 104.507 416.289 104.016 416.716 103.664C417.143 103.312 417.729 103.136 418.476 103.136H422.748ZM421.964 95.776L422.988 97.376L419.42 99.152L418.716 98.144L421.964 95.776ZM427.441 100.096L427.729 101.664L427.953 101.872V108H425.585V100.096H427.441ZM431.297 99.888L431.073 102.08H430.417C430.044 102.08 429.654 102.133 429.249 102.24C428.844 102.347 428.332 102.507 427.713 102.72L427.553 101.392C428.108 100.901 428.668 100.528 429.233 100.272C429.798 100.016 430.348 99.888 430.881 99.888H431.297ZM434.829 100.096V108H432.477V100.096H434.829ZM434.173 96.608C434.642 96.608 434.877 96.848 434.877 97.328V98.176C434.877 98.656 434.642 98.896 434.173 98.896H433.149C432.68 98.896 432.445 98.656 432.445 98.176V97.328C432.445 96.848 432.68 96.608 433.149 96.608H434.173ZM441.011 99.888C441.672 99.888 442.232 99.9787 442.691 100.16C443.15 100.331 443.496 100.629 443.731 101.056C443.976 101.472 444.099 102.048 444.099 102.784V108H442.211L441.875 106.288L441.715 106.048V102.768C441.715 102.395 441.624 102.123 441.443 101.952C441.272 101.781 440.942 101.696 440.451 101.696C440.046 101.696 439.539 101.712 438.931 101.744C438.323 101.765 437.699 101.797 437.059 101.84L436.835 100.272C437.219 100.197 437.662 100.133 438.163 100.08C438.664 100.027 439.166 99.984 439.667 99.952C440.168 99.9093 440.616 99.888 441.011 99.888ZM443.123 103.136L443.107 104.464L439.587 104.48C439.299 104.48 439.091 104.549 438.963 104.688C438.846 104.827 438.787 105.013 438.787 105.248V105.632C438.787 105.899 438.862 106.107 439.011 106.256C439.16 106.395 439.4 106.464 439.731 106.464C440.008 106.464 440.307 106.405 440.627 106.288C440.958 106.171 441.283 106.005 441.603 105.792C441.923 105.579 442.206 105.328 442.451 105.04V106.064C442.355 106.224 442.211 106.427 442.019 106.672C441.838 106.907 441.603 107.141 441.315 107.376C441.027 107.6 440.691 107.792 440.307 107.952C439.923 108.112 439.486 108.192 438.995 108.192C438.515 108.192 438.083 108.107 437.699 107.936C437.315 107.765 437.011 107.515 436.787 107.184C436.563 106.853 436.451 106.443 436.451 105.952V105.136C436.451 104.507 436.664 104.016 437.091 103.664C437.518 103.312 438.104 103.136 438.851 103.136H443.123ZM448.968 99.888C449.352 99.888 449.768 99.904 450.216 99.936C450.664 99.9573 451.101 99.9893 451.528 100.032C451.955 100.075 452.333 100.128 452.664 100.192L452.504 101.664C451.992 101.653 451.475 101.648 450.952 101.648C450.44 101.637 449.939 101.632 449.448 101.632C449.032 101.621 448.712 101.627 448.488 101.648C448.264 101.669 448.104 101.723 448.008 101.808C447.923 101.883 447.88 102.021 447.88 102.224C447.88 102.459 447.96 102.619 448.12 102.704C448.28 102.779 448.547 102.864 448.92 102.96L450.984 103.456C451.645 103.627 452.136 103.883 452.456 104.224C452.776 104.555 452.936 105.056 452.936 105.728C452.936 106.389 452.813 106.896 452.568 107.248C452.323 107.6 451.933 107.845 451.4 107.984C450.867 108.112 450.179 108.176 449.336 108.176C449.005 108.176 448.515 108.16 447.864 108.128C447.213 108.096 446.499 108.016 445.72 107.888L445.88 106.416C446.072 106.427 446.317 106.437 446.616 106.448C446.915 106.448 447.24 106.448 447.592 106.448C447.944 106.448 448.296 106.448 448.648 106.448C449.192 106.448 449.608 106.437 449.896 106.416C450.184 106.384 450.381 106.32 450.488 106.224C450.595 106.128 450.648 105.984 450.648 105.792C450.648 105.557 450.557 105.397 450.376 105.312C450.195 105.227 449.907 105.136 449.512 105.04L447.512 104.544C447.011 104.405 446.621 104.229 446.344 104.016C446.067 103.803 445.869 103.541 445.752 103.232C445.645 102.923 445.592 102.555 445.592 102.128C445.592 101.584 445.699 101.152 445.912 100.832C446.136 100.501 446.493 100.261 446.984 100.112C447.485 99.9627 448.147 99.888 448.968 99.888ZM455.756 105.568C456.065 105.568 456.279 105.632 456.396 105.76C456.524 105.877 456.588 106.091 456.588 106.4V107.168C456.588 107.477 456.524 107.696 456.396 107.824C456.279 107.941 456.065 108 455.756 108H455.148C454.839 108 454.62 107.941 454.492 107.824C454.375 107.696 454.316 107.477 454.316 107.168V106.4C454.316 106.091 454.375 105.877 454.492 105.76C454.62 105.632 454.839 105.568 455.148 105.568H455.756Z" fill="#023047" fill-opacity="0.72"/>
<rect width="1920" height="89" fill="white"/>
<path d="M0 -9.91821e-05V89.0332H271.028L307 -9.91821e-05H0Z" fill="#003A69"/>
<path d="M175.01 54.2131H177.169V64.2302H182.027V66.0376H175.01V54.2131ZM169.877 61.055L168.949 58.143C168.72 57.4244 168.528 56.6162 168.353 55.9323H168.315C168.14 56.6162 167.965 57.4403 167.754 58.143L166.842 61.055H169.877ZM166.491 62.686L165.474 66.0376H163.246L167.034 54.2131H169.792L173.632 66.0376H171.316L170.246 62.686H166.491ZM158.71 56.0205H155.341V54.2131H164.271V56.0205H160.868V66.0376H158.71V56.0205ZM153.773 60.7919H149.315V64.2664H154.298V66.0376H147.158V54.2131H154.034V55.9843H149.315V59.038H153.773V60.7919ZM142.903 61.2127C142.832 59.6872 142.745 57.8452 142.762 56.2475H142.709C142.323 57.6861 141.833 59.2838 141.305 60.7745L139.587 65.8973H137.92L136.341 60.8454C135.884 59.3359 135.463 57.7223 135.148 56.2475H135.114C135.06 57.7917 134.989 59.6684 134.902 61.2849L134.639 66.0376H132.622L133.412 54.2131H136.253L137.797 58.9672C138.218 60.3538 138.587 61.7577 138.884 63.0721H138.936C139.253 61.7924 139.657 60.335 140.113 58.9498L141.744 54.2131H144.551L145.236 66.0376H143.131L142.903 61.2127ZM124.005 63.6866C124.708 64.09 125.76 64.4413 126.865 64.4413C128.25 64.4413 129.022 63.7921 129.022 62.8277C129.022 61.9327 128.425 61.4064 126.917 60.8627C124.969 60.16 123.724 59.1248 123.724 57.4244C123.724 55.4942 125.338 54.0208 127.9 54.0208C129.18 54.0208 130.128 54.3013 130.741 54.6165L130.215 56.353C129.794 56.126 128.97 55.7935 127.864 55.7935C126.496 55.7935 125.899 56.5294 125.899 57.2119C125.899 58.1257 126.583 58.5464 128.162 59.1609C130.215 59.933 131.214 60.9669 131.214 62.6701C131.214 64.5642 129.777 66.214 126.725 66.214C125.478 66.214 124.18 65.8626 123.532 65.4766L124.005 63.6866ZM118.574 61.055L117.644 58.143C117.417 57.4244 117.224 56.6162 117.049 55.9323H117.013C116.838 56.6162 116.663 57.4403 116.452 58.143L115.539 61.055H118.574ZM115.189 62.686L114.171 66.0376H111.942L115.731 54.2131H118.487L122.328 66.0376H120.013L118.943 62.686H115.189ZM104.776 59.599H106.057C107.513 59.599 108.425 58.8269 108.425 57.6514C108.425 56.353 107.513 55.7573 106.109 55.7573C105.425 55.7573 104.987 55.8094 104.776 55.8629V59.599ZM102.636 54.3707C103.443 54.2305 104.653 54.1249 105.898 54.1249C107.6 54.1249 108.758 54.4069 109.549 55.0734C110.198 55.6171 110.565 56.4412 110.565 57.4403C110.565 58.9672 109.53 60.0024 108.425 60.4073V60.4579C109.267 60.7745 109.776 61.5987 110.074 62.7381C110.442 64.2143 110.759 65.5807 111.003 66.0376H108.777C108.6 65.6877 108.32 64.7218 107.987 63.247C107.653 61.7057 107.092 61.2127 105.865 61.1779H104.776V66.0376H102.636V54.3707ZM94.9426 64.4775C95.2231 64.5107 95.5918 64.5295 96.0834 64.5295C97.4685 64.5295 98.6976 64.0018 98.6976 62.5472C98.6976 61.1779 97.5047 60.6169 96.0125 60.6169H94.9426V64.4775ZM94.9426 59.038H96.0472C97.538 59.038 98.3809 58.3368 98.3809 57.3362C98.3809 56.2316 97.5379 55.7212 96.1701 55.7212C95.5383 55.7212 95.171 55.7573 94.9426 55.8094V59.038ZM92.8027 54.3707C93.4866 54.2305 94.7329 54.1249 95.9417 54.1249C97.5379 54.1249 98.5212 54.3187 99.328 54.8797C100.065 55.3192 100.557 56.0899 100.557 57.0904C100.557 58.1777 99.8731 59.1783 98.5906 59.6525V59.6872C99.8369 60.0024 100.978 60.9856 100.978 62.6166C100.978 63.6692 100.521 64.4934 99.8369 65.0558C98.9954 65.7932 97.6088 66.1619 95.4515 66.1619C94.2572 66.1619 93.3463 66.0737 92.8027 66.0014V54.3707ZM79.1405 44.1368C79.1405 56.7449 68.9196 66.9658 56.3115 66.9658C43.7034 66.9658 33.4824 56.7449 33.4824 44.1368C33.4824 31.5301 43.7034 21.3077 56.3115 21.3077C68.9196 21.3077 79.1405 31.5301 79.1405 44.1368ZM216.695 48.0276V33.1799H212.549V51.4414H222.762V48.0276H216.695ZM150.45 48.0276V47.9741V33.1799H146.305V51.4414H156.516V48.0276H150.45ZM163.519 48.0291V47.9178L172.027 35.5641V33.1799H158.777V36.5936H166.664V36.702L158.687 48.1795V51.4414H172.164V48.0291H163.519ZM229.767 48.0291V47.9178L238.274 35.5641V33.1799H225.026V36.5936H232.91V36.702L224.933 48.1795V51.4414H238.41V48.0291H229.767ZM196.918 42.3656C196.918 45.9412 198.598 48.46 201.361 48.46C204.153 48.46 205.752 45.8082 205.752 42.2571C205.752 38.9793 204.182 36.1598 201.335 36.1598C198.544 36.1598 196.918 38.8159 196.918 42.3656ZM210.113 42.1212C210.113 48.1072 206.481 51.7392 201.144 51.7392C195.725 51.7392 192.556 47.6488 192.556 42.448C192.556 36.9739 196.05 32.8806 201.443 32.8806C207.051 32.8806 210.113 37.0809 210.113 42.1212ZM179.148 33.1799V40.1967H185.947V33.1799H190.067V51.4414H185.947V43.8013H179.148V51.4414H175.003V33.1799H179.148ZM142.064 43.7204H135.743V48.0537H143.25V51.4414H131.597V33.1799H142.869V36.5676H135.743V40.3587H142.064V43.7204ZM123.327 43.6654L122.189 39.7904C121.863 38.7075 121.538 37.3527 121.266 36.2683H121.214C120.942 37.3527 120.671 38.7335 120.373 39.7904L119.29 43.6654H123.327ZM118.694 46.7538L117.393 51.4414H113.112L118.694 33.1799H124.112L129.775 51.4414H125.334L123.922 46.7538H118.694ZM95.3474 51.4414L91.0127 33.1799H95.4299L96.8107 40.7129C97.2184 42.8803 97.5987 45.2371 97.8965 47.0791H97.9486C98.2479 45.1012 98.6816 42.9049 99.1429 40.658L100.687 33.1799H105.075L106.539 40.8734C106.946 43.0162 107.243 44.9667 107.516 46.9982H107.568C107.84 44.9667 108.246 42.8268 108.625 40.658L110.114 33.1799H114.315L109.6 51.4414H105.13L103.588 43.5844C103.233 41.7409 102.935 40.0348 102.719 37.9484H102.664C102.34 40.0073 102.042 41.7409 101.607 43.5844L99.8731 51.4414H95.3474Z" fill="white"/>
<path d="M73.6626 33.1797H70.9212L63.6224 50.9106L56.3221 33.1797H49.0161L61.3393 63.111L73.6626 33.1797ZM54.9413 54.2506L46.2675 33.1797H38.96L51.289 63.1211L54.9413 54.2506ZM59.5739 35.9182C59.5739 37.5825 59.7807 38.7637 61.4362 38.7637C63.0151 38.7637 63.1293 37.6056 63.1293 36.8089H62.0276C62.0276 37.6056 61.8656 37.9512 61.3668 37.9512C60.8174 37.9512 60.6815 37.409 60.6786 35.9182C60.6815 34.4275 60.8174 33.8868 61.3668 33.8868C61.8656 33.8868 62.0276 34.2323 62.0276 35.029H63.1293C63.1293 34.2323 63.0151 33.0742 61.4362 33.0742C59.7807 33.0742 59.5739 34.2555 59.5739 35.9182ZM64.1068 38.6553H65.8462C67.3108 38.6553 67.7258 37.7805 67.7258 35.8416C67.7258 34.2323 67.4496 33.1812 65.9156 33.1812H64.1068V38.6553ZM65.7016 37.8413H65.2114V33.9952H65.6784C66.5214 33.9952 66.6212 34.63 66.6212 35.872C66.6212 37.3583 66.4679 37.8413 65.7016 37.8413Z" fill="#003A69"/>
</g>
<defs>
<clipPath id="clip0_2967_8766">
<rect width="1920" height="1080" fill="white"/>
</clipPath>
</defs>
</svg>
