<svg width="1920" height="1080" viewBox="0 0 1920 1080" fill="none" xmlns="http://www.w3.org/2000/svg">
<g clip-path="url(#clip0_3074_7767)">
<rect width="1920" height="1080" fill="#F5F5F5"/>
<mask id="path-1-inside-1_3074_7767" fill="white">
<path d="M24 1038H1896V1065H24V1038Z"/>
</mask>
<path d="M24 1039H1896V1037H24V1039Z" fill="#99B0C3" mask="url(#path-1-inside-1_3074_7767)"/>
<g clip-path="url(#clip1_3074_7767)">
<path d="M352.463 132.074V140.354H351.407V132.074H352.463ZM355.139 132.074V133.01H348.743V132.074H355.139ZM357.488 134.366C358.16 134.366 358.696 134.466 359.096 134.666C359.504 134.866 359.796 135.194 359.972 135.65C360.148 136.098 360.236 136.694 360.236 137.438C360.236 138.182 360.148 138.782 359.972 139.238C359.796 139.686 359.504 140.01 359.096 140.21C358.696 140.41 358.16 140.51 357.488 140.51C356.824 140.51 356.288 140.41 355.88 140.21C355.48 140.01 355.188 139.686 355.004 139.238C354.828 138.782 354.74 138.182 354.74 137.438C354.74 136.694 354.828 136.098 355.004 135.65C355.188 135.194 355.48 134.866 355.88 134.666C356.288 134.466 356.824 134.366 357.488 134.366ZM357.488 135.23C357.064 135.23 356.728 135.298 356.48 135.434C356.24 135.562 356.068 135.786 355.964 136.106C355.86 136.426 355.808 136.87 355.808 137.438C355.808 138.006 355.86 138.45 355.964 138.77C356.068 139.09 356.24 139.318 356.48 139.454C356.728 139.582 357.064 139.646 357.488 139.646C357.912 139.646 358.248 139.582 358.496 139.454C358.744 139.318 358.92 139.09 359.024 138.77C359.128 138.45 359.18 138.006 359.18 137.438C359.18 136.87 359.128 136.426 359.024 136.106C358.92 135.786 358.744 135.562 358.496 135.434C358.248 135.298 357.912 135.23 357.488 135.23ZM364.308 134.366C364.98 134.366 365.516 134.466 365.916 134.666C366.324 134.866 366.616 135.194 366.792 135.65C366.968 136.098 367.056 136.694 367.056 137.438C367.056 138.182 366.968 138.782 366.792 139.238C366.616 139.686 366.324 140.01 365.916 140.21C365.516 140.41 364.98 140.51 364.308 140.51C363.644 140.51 363.108 140.41 362.7 140.21C362.3 140.01 362.008 139.686 361.824 139.238C361.648 138.782 361.56 138.182 361.56 137.438C361.56 136.694 361.648 136.098 361.824 135.65C362.008 135.194 362.3 134.866 362.7 134.666C363.108 134.466 363.644 134.366 364.308 134.366ZM364.308 135.23C363.884 135.23 363.548 135.298 363.3 135.434C363.06 135.562 362.888 135.786 362.784 136.106C362.68 136.426 362.628 136.87 362.628 137.438C362.628 138.006 362.68 138.45 362.784 138.77C362.888 139.09 363.06 139.318 363.3 139.454C363.548 139.582 363.884 139.646 364.308 139.646C364.732 139.646 365.068 139.582 365.316 139.454C365.564 139.318 365.74 139.09 365.844 138.77C365.948 138.45 366 138.006 366 137.438C366 136.87 365.948 136.426 365.844 136.106C365.74 135.786 365.564 135.562 365.316 135.434C365.068 135.298 364.732 135.23 364.308 135.23ZM369.689 131.954L369.677 138.746C369.677 139.002 369.745 139.198 369.881 139.334C370.025 139.462 370.225 139.526 370.481 139.526H371.045L371.165 140.306C371.093 140.338 370.989 140.366 370.853 140.39C370.725 140.414 370.589 140.43 370.445 140.438C370.309 140.454 370.193 140.462 370.097 140.462C369.665 140.462 369.317 140.334 369.053 140.078C368.797 139.822 368.669 139.454 368.669 138.974V131.954H369.689ZM373.601 132.782V138.746C373.601 139.026 373.661 139.226 373.781 139.346C373.901 139.466 374.105 139.526 374.393 139.526H375.281L375.401 140.306C375.273 140.338 375.125 140.366 374.957 140.39C374.789 140.414 374.625 140.43 374.465 140.438C374.305 140.454 374.177 140.462 374.081 140.462C373.593 140.462 373.221 140.326 372.965 140.054C372.709 139.782 372.581 139.39 372.581 138.878V132.782H373.601ZM375.461 134.51V135.314H371.525V134.57L372.677 134.51H375.461ZM377.763 134.51V140.354H376.755V134.51H377.763ZM377.499 132.026C377.707 132.026 377.811 132.13 377.811 132.338V133.022C377.811 133.23 377.707 133.334 377.499 133.334H377.019C376.811 133.334 376.707 133.23 376.707 133.022V132.338C376.707 132.13 376.811 132.026 377.019 132.026H377.499ZM383.032 134.366C383.744 134.366 384.256 134.63 384.568 135.158C384.88 135.678 385.036 136.446 385.036 137.462C385.036 138.214 384.956 138.814 384.796 139.262C384.636 139.702 384.392 140.018 384.064 140.21C383.744 140.402 383.332 140.498 382.828 140.498C382.444 140.498 382.064 140.446 381.688 140.342C381.32 140.238 380.96 140.078 380.608 139.862L380.668 139.25C381.044 139.354 381.376 139.442 381.664 139.514C381.952 139.578 382.256 139.61 382.576 139.61C382.92 139.61 383.192 139.55 383.392 139.43C383.6 139.31 383.752 139.094 383.848 138.782C383.944 138.47 383.992 138.03 383.992 137.462C383.992 136.91 383.948 136.474 383.86 136.154C383.772 135.834 383.632 135.606 383.44 135.47C383.256 135.326 383.008 135.254 382.696 135.254C382.376 135.254 382.06 135.33 381.748 135.482C381.436 135.634 381.072 135.866 380.656 136.178L380.56 135.494C380.776 135.262 381.02 135.062 381.292 134.894C381.564 134.726 381.848 134.598 382.144 134.51C382.448 134.414 382.744 134.366 383.032 134.366ZM380.524 134.51L380.632 135.722L380.704 135.878V139.622L380.656 139.766C380.68 139.99 380.692 140.206 380.692 140.414C380.7 140.622 380.704 140.842 380.704 141.074V142.766H379.684V134.51H380.524ZM387.257 135.074C387.401 135.074 387.501 135.102 387.557 135.158C387.613 135.214 387.641 135.314 387.641 135.458V136.106C387.641 136.25 387.613 136.35 387.557 136.406C387.501 136.462 387.401 136.49 387.257 136.49H386.921C386.785 136.49 386.685 136.462 386.621 136.406C386.565 136.35 386.537 136.25 386.537 136.106V135.458C386.537 135.314 386.565 135.214 386.621 135.158C386.685 135.102 386.785 135.074 386.921 135.074H387.257ZM387.257 138.938C387.401 138.938 387.501 138.966 387.557 139.022C387.613 139.078 387.641 139.178 387.641 139.322V139.97C387.641 140.114 387.613 140.214 387.557 140.27C387.501 140.326 387.401 140.354 387.257 140.354H386.921C386.785 140.354 386.685 140.326 386.621 140.27C386.565 140.214 386.537 140.114 386.537 139.97V139.322C386.537 139.178 386.565 139.078 386.621 139.022C386.685 138.966 386.785 138.938 386.921 138.938H387.257Z" fill="black"/>
<path d="M31.296 94.832C32.256 94.832 33.0187 94.9173 33.584 95.088C34.16 95.248 34.576 95.536 34.832 95.952C35.088 96.368 35.216 96.9547 35.216 97.712C35.216 98.5013 35.0613 99.104 34.752 99.52C34.4533 99.9253 33.9573 100.16 33.264 100.224V100.32C34.1173 100.395 34.7147 100.683 35.056 101.184C35.3973 101.675 35.568 102.363 35.568 103.248C35.568 104.005 35.4347 104.592 35.168 105.008C34.912 105.424 34.5067 105.717 33.952 105.888C33.408 106.048 32.6933 106.128 31.808 106.128C31.0933 106.128 30.4693 106.123 29.936 106.112C29.4133 106.112 28.928 106.101 28.48 106.08C28.032 106.059 27.5733 106.032 27.104 106L27.344 104.304C27.6 104.315 28.0907 104.325 28.816 104.336C29.552 104.347 30.4053 104.352 31.376 104.352C31.824 104.352 32.176 104.309 32.432 104.224C32.688 104.139 32.864 103.984 32.96 103.76C33.0667 103.525 33.12 103.195 33.12 102.768C33.12 102.309 33.0667 101.963 32.96 101.728C32.8533 101.483 32.6667 101.312 32.4 101.216C32.144 101.12 31.7867 101.067 31.328 101.056H27.328V99.504H31.296C31.6907 99.4933 32 99.4507 32.224 99.376C32.4587 99.3013 32.624 99.1573 32.72 98.944C32.816 98.7307 32.864 98.432 32.864 98.048C32.864 97.6533 32.8107 97.3547 32.704 97.152C32.608 96.9387 32.4373 96.7947 32.192 96.72C31.9467 96.6453 31.6053 96.608 31.168 96.608C30.5707 96.608 30.0427 96.608 29.584 96.608C29.1253 96.608 28.7147 96.6133 28.352 96.624C27.9893 96.624 27.6533 96.6347 27.344 96.656L27.104 94.96C27.5307 94.9173 27.9413 94.8907 28.336 94.88C28.7413 94.8587 29.1787 94.848 29.648 94.848C30.1173 94.8373 30.6667 94.832 31.296 94.832ZM29.504 94.96V106H27.104V94.96H29.504ZM39.0504 98.096L39.3384 99.664L39.5624 99.872V106H37.1944V98.096H39.0504ZM42.9064 97.888L42.6824 100.08H42.0264C41.653 100.08 41.2637 100.133 40.8584 100.24C40.453 100.347 39.941 100.507 39.3224 100.72L39.1624 99.392C39.717 98.9013 40.277 98.528 40.8424 98.272C41.4077 98.016 41.957 97.888 42.4904 97.888H42.9064ZM46.3425 98.096V103.296C46.3425 103.627 46.4118 103.861 46.5505 104C46.6998 104.139 46.9345 104.208 47.2545 104.208C47.5852 104.208 47.9105 104.149 48.2305 104.032C48.5612 103.904 48.9665 103.707 49.4465 103.44L49.6385 104.736C49.0625 105.237 48.4972 105.611 47.9425 105.856C47.3878 106.101 46.8172 106.224 46.2305 106.224C44.7265 106.224 43.9745 105.488 43.9745 104.016V98.096H46.3425ZM51.5745 98.096V106H49.7025L49.4305 104.448L49.2065 104.224V98.096H51.5745ZM56.5949 95.904V103.472C56.5949 103.76 56.6589 103.968 56.7869 104.096C56.9255 104.213 57.1495 104.272 57.4589 104.272H58.4829L58.7389 105.872C58.5469 105.936 58.3122 105.989 58.0349 106.032C57.7575 106.085 57.4802 106.123 57.2029 106.144C56.9255 106.176 56.6909 106.192 56.4989 106.192C55.7842 106.192 55.2242 106 54.8189 105.616C54.4242 105.232 54.2269 104.693 54.2269 104L54.2109 95.904H56.5949ZM58.8029 98.096V99.648H52.8349V98.176L54.3709 98.096H58.8029ZM63.1574 95.904V103.472C63.1574 103.76 63.2214 103.968 63.3494 104.096C63.488 104.213 63.712 104.272 64.0214 104.272H65.0454L65.3014 105.872C65.1094 105.936 64.8747 105.989 64.5974 106.032C64.32 106.085 64.0427 106.123 63.7654 106.144C63.488 106.176 63.2534 106.192 63.0614 106.192C62.3467 106.192 61.7867 106 61.3814 105.616C60.9867 105.232 60.7894 104.693 60.7894 104L60.7734 95.904H63.1574ZM65.3654 98.096V99.648H59.3974V98.176L60.9334 98.096H65.3654ZM70.3919 97.888C71.3839 97.888 72.1785 98.0267 72.7759 98.304C73.3732 98.5707 73.7999 99.008 74.0559 99.616C74.3225 100.224 74.4559 101.04 74.4559 102.064C74.4559 103.067 74.3225 103.872 74.0559 104.48C73.7999 105.088 73.3732 105.525 72.7759 105.792C72.1785 106.059 71.3839 106.192 70.3919 106.192C69.4105 106.192 68.6159 106.059 68.0079 105.792C67.4105 105.525 66.9785 105.088 66.7119 104.48C66.4452 103.872 66.3119 103.067 66.3119 102.064C66.3119 101.04 66.4452 100.224 66.7119 99.616C66.9785 99.008 67.4105 98.5707 68.0079 98.304C68.6159 98.0267 69.4105 97.888 70.3919 97.888ZM70.3919 99.616C69.9865 99.616 69.6665 99.6853 69.4319 99.824C69.1972 99.9627 69.0319 100.208 68.9359 100.56C68.8399 100.912 68.7919 101.413 68.7919 102.064C68.7919 102.704 68.8399 103.2 68.9359 103.552C69.0319 103.904 69.1972 104.149 69.4319 104.288C69.6665 104.416 69.9865 104.48 70.3919 104.48C70.7972 104.48 71.1172 104.416 71.3519 104.288C71.5865 104.149 71.7519 103.904 71.8479 103.552C71.9439 103.2 71.9919 102.704 71.9919 102.064C71.9919 101.413 71.9439 100.912 71.8479 100.56C71.7519 100.208 71.5865 99.9627 71.3519 99.824C71.1172 99.6853 70.7972 99.616 70.3919 99.616ZM79.5894 97.888C80.5067 97.888 81.232 97.9733 81.7654 98.144C82.3094 98.3147 82.6987 98.5813 82.9334 98.944C83.1787 99.3067 83.3014 99.792 83.3014 100.4C83.3014 100.987 83.184 101.467 82.9494 101.84C82.7147 102.203 82.32 102.469 81.7654 102.64C81.2214 102.811 80.4907 102.896 79.5734 102.896C78.656 102.896 77.92 102.811 77.3654 102.64C76.8214 102.469 76.4267 102.203 76.1814 101.84C75.9467 101.477 75.8294 100.997 75.8294 100.4C75.8294 99.8027 75.9467 99.3227 76.1814 98.96C76.4267 98.5867 76.8267 98.3147 77.3814 98.144C77.936 97.9733 78.672 97.888 79.5894 97.888ZM79.5734 99.344C78.9867 99.344 78.5814 99.424 78.3574 99.584C78.1334 99.7333 78.0214 100.005 78.0214 100.4C78.0214 100.795 78.1334 101.072 78.3574 101.232C78.5814 101.392 78.9867 101.472 79.5734 101.472C80.16 101.472 80.56 101.392 80.7734 101.232C80.9867 101.072 81.0934 100.795 81.0934 100.4C81.0934 100.005 80.9867 99.7333 80.7734 99.584C80.56 99.424 80.16 99.344 79.5734 99.344ZM84.2134 98.096L84.0854 99.104L81.9734 99.376L81.3974 98.096H84.2134ZM77.1894 102.416L78.3734 102.624C78.224 102.709 78.1174 102.843 78.0534 103.024C78 103.205 78.016 103.376 78.1014 103.536C78.1867 103.696 78.3734 103.792 78.6614 103.824L81.5734 104.16C82.4054 104.245 82.992 104.48 83.3334 104.864C83.6747 105.237 83.8454 105.787 83.8454 106.512C83.8454 107.195 83.7067 107.717 83.4294 108.08C83.152 108.453 82.7094 108.709 82.1014 108.848C81.4934 108.987 80.6827 109.056 79.6694 109.056C78.8374 109.056 78.1494 109.013 77.6054 108.928C77.072 108.853 76.6454 108.725 76.3254 108.544C76.016 108.363 75.7974 108.123 75.6694 107.824C75.552 107.536 75.4934 107.173 75.4934 106.736C75.4934 106.405 75.552 106.123 75.6694 105.888C75.7867 105.643 75.984 105.424 76.2614 105.232C76.5494 105.04 76.9494 104.864 77.4614 104.704L78.6294 104.288L79.4774 104.624L78.8374 105.04C78.5707 105.232 78.352 105.397 78.1814 105.536C78.0214 105.664 77.904 105.792 77.8294 105.92C77.7654 106.048 77.7334 106.219 77.7334 106.432C77.7334 106.677 77.7867 106.864 77.8934 106.992C78 107.131 78.192 107.221 78.4694 107.264C78.7574 107.317 79.1467 107.344 79.6374 107.344C80.1494 107.344 80.5494 107.317 80.8374 107.264C81.1254 107.221 81.3227 107.136 81.4294 107.008C81.5467 106.88 81.6054 106.699 81.6054 106.464C81.6054 106.261 81.5627 106.112 81.4774 106.016C81.4027 105.92 81.2694 105.851 81.0774 105.808C80.896 105.755 80.64 105.707 80.3094 105.664L77.8294 105.392C77.4134 105.349 77.088 105.237 76.8534 105.056C76.6187 104.875 76.4534 104.656 76.3574 104.4C76.272 104.133 76.2507 103.867 76.2934 103.6C76.336 103.333 76.432 103.093 76.5814 102.88C76.7414 102.667 76.944 102.512 77.1894 102.416ZM89.0165 97.888C90.3498 97.888 91.3045 98.1173 91.8805 98.576C92.4672 99.024 92.7605 99.696 92.7605 100.592C92.7712 101.317 92.5898 101.861 92.2165 102.224C91.8432 102.576 91.1978 102.752 90.2805 102.752H85.8645V101.424H89.6245C89.9872 101.424 90.2165 101.349 90.3125 101.2C90.4192 101.04 90.4725 100.821 90.4725 100.544C90.4618 100.171 90.3498 99.9147 90.1365 99.776C89.9338 99.6267 89.5872 99.552 89.0965 99.552C88.6592 99.552 88.3178 99.6107 88.0725 99.728C87.8272 99.8453 87.6565 100.069 87.5605 100.4C87.4645 100.731 87.4165 101.211 87.4165 101.84C87.4165 102.501 87.4752 103.013 87.5925 103.376C87.7098 103.728 87.9072 103.973 88.1845 104.112C88.4725 104.251 88.8672 104.32 89.3685 104.32C89.7312 104.32 90.1792 104.309 90.7125 104.288C91.2565 104.256 91.8005 104.208 92.3445 104.144L92.5685 105.6C92.2592 105.749 91.9072 105.867 91.5125 105.952C91.1178 106.037 90.7125 106.096 90.2965 106.128C89.8805 106.171 89.4805 106.192 89.0965 106.192C88.0938 106.192 87.2832 106.048 86.6645 105.76C86.0565 105.461 85.6138 105.008 85.3365 104.4C85.0698 103.792 84.9365 103.013 84.9365 102.064C84.9365 101.029 85.0752 100.208 85.3525 99.6C85.6298 98.992 86.0672 98.5547 86.6645 98.288C87.2618 98.0213 88.0458 97.888 89.0165 97.888ZM106.657 98.096L104.705 105.376C104.662 105.568 104.566 105.723 104.417 105.84C104.267 105.947 104.091 106 103.889 106H102.097C101.883 106 101.697 105.936 101.536 105.808C101.377 105.669 101.281 105.493 101.249 105.28L100.385 100.832C100.353 100.608 100.326 100.389 100.305 100.176C100.283 99.952 100.251 99.728 100.209 99.504H100.017C99.9845 99.728 99.9525 99.952 99.9205 100.176C99.8885 100.389 99.8565 100.608 99.8245 100.832L98.9605 105.28C98.9285 105.493 98.8325 105.669 98.6725 105.808C98.5125 105.936 98.3258 106 98.1125 106H96.3365C96.1338 106 95.9578 105.947 95.8085 105.84C95.6592 105.723 95.5632 105.568 95.5205 105.376L93.5685 98.096H95.9525L97.0405 103.216C97.0832 103.429 97.1205 103.648 97.1525 103.872C97.1845 104.085 97.2112 104.299 97.2325 104.512H97.4405C97.4725 104.299 97.5045 104.085 97.5365 103.872C97.5792 103.648 97.6165 103.429 97.6485 103.216L98.5125 98.816C98.5445 98.6027 98.6352 98.432 98.7845 98.304C98.9338 98.1653 99.1205 98.096 99.3445 98.096H100.881C101.094 98.096 101.275 98.1653 101.425 98.304C101.585 98.432 101.681 98.608 101.713 98.832L102.561 103.216C102.593 103.429 102.63 103.643 102.673 103.856C102.715 104.069 102.753 104.288 102.785 104.512H102.977C103.019 104.288 103.051 104.075 103.073 103.872C103.105 103.659 103.142 103.44 103.185 103.216L104.273 98.096H106.657ZM110.282 98.096V106H107.93V98.096H110.282ZM109.626 94.608C110.096 94.608 110.33 94.848 110.33 95.328V96.176C110.33 96.656 110.096 96.896 109.626 96.896H108.602C108.133 96.896 107.898 96.656 107.898 96.176V95.328C107.898 94.848 108.133 94.608 108.602 94.608H109.626ZM117.792 97.888C119.285 97.888 120.032 98.6187 120.032 100.08V106H117.664V100.816C117.664 100.464 117.6 100.224 117.472 100.096C117.344 99.9573 117.125 99.888 116.816 99.888C116.475 99.888 116.123 99.9573 115.76 100.096C115.397 100.224 114.949 100.427 114.416 100.704L114.304 99.376C114.869 98.896 115.445 98.528 116.032 98.272C116.629 98.016 117.216 97.888 117.792 97.888ZM114.192 98.096L114.464 99.664L114.656 99.872V106H112.288V98.096H114.192ZM127.402 97.888C128.895 97.888 129.642 98.6187 129.642 100.08V106H127.274V100.816C127.274 100.464 127.21 100.224 127.082 100.096C126.954 99.9573 126.735 99.888 126.426 99.888C126.084 99.888 125.732 99.9573 125.37 100.096C125.007 100.224 124.559 100.427 124.026 100.704L123.914 99.376C124.479 98.896 125.055 98.528 125.641 98.272C126.239 98.016 126.826 97.888 127.402 97.888ZM123.802 98.096L124.074 99.664L124.266 99.872V106H121.898V98.096H123.802ZM137.28 98.096V103.296C137.28 103.627 137.349 103.861 137.488 104C137.637 104.139 137.872 104.208 138.192 104.208C138.523 104.208 138.848 104.149 139.168 104.032C139.499 103.904 139.904 103.707 140.384 103.44L140.576 104.736C140 105.237 139.435 105.611 138.88 105.856C138.325 106.101 137.755 106.224 137.168 106.224C135.664 106.224 134.912 105.488 134.912 104.016V98.096H137.28ZM142.512 98.096V106H140.64L140.368 104.448L140.144 104.224V98.096H142.512ZM149.948 97.888C151.442 97.888 152.188 98.6187 152.188 100.08V106H149.82V100.816C149.82 100.464 149.756 100.224 149.628 100.096C149.5 99.9573 149.282 99.888 148.972 99.888C148.631 99.888 148.279 99.9573 147.916 100.096C147.554 100.224 147.106 100.427 146.572 100.704L146.46 99.376C147.026 98.896 147.602 98.528 148.188 98.272C148.786 98.016 149.372 97.888 149.948 97.888ZM146.348 98.096L146.62 99.664L146.812 99.872V106H144.444V98.096H146.348ZM157.142 95.904V103.472C157.142 103.76 157.206 103.968 157.334 104.096C157.472 104.213 157.696 104.272 158.006 104.272H159.03L159.286 105.872C159.094 105.936 158.859 105.989 158.582 106.032C158.304 106.085 158.027 106.123 157.75 106.144C157.472 106.176 157.238 106.192 157.046 106.192C156.331 106.192 155.771 106 155.366 105.616C154.971 105.232 154.774 104.693 154.774 104L154.758 95.904H157.142ZM159.35 98.096V99.648H153.382V98.176L154.918 98.096H159.35ZM164.36 97.888C165.694 97.888 166.648 98.1173 167.224 98.576C167.811 99.024 168.104 99.696 168.104 100.592C168.115 101.317 167.934 101.861 167.56 102.224C167.187 102.576 166.542 102.752 165.624 102.752H161.208V101.424H164.968C165.331 101.424 165.56 101.349 165.656 101.2C165.763 101.04 165.816 100.821 165.816 100.544C165.806 100.171 165.694 99.9147 165.48 99.776C165.278 99.6267 164.931 99.552 164.44 99.552C164.003 99.552 163.662 99.6107 163.416 99.728C163.171 99.8453 163 100.069 162.904 100.4C162.808 100.731 162.76 101.211 162.76 101.84C162.76 102.501 162.819 103.013 162.936 103.376C163.054 103.728 163.251 103.973 163.528 104.112C163.816 104.251 164.211 104.32 164.712 104.32C165.075 104.32 165.523 104.309 166.056 104.288C166.6 104.256 167.144 104.208 167.688 104.144L167.912 105.6C167.603 105.749 167.251 105.867 166.856 105.952C166.462 106.037 166.056 106.096 165.64 106.128C165.224 106.171 164.824 106.192 164.44 106.192C163.438 106.192 162.627 106.048 162.008 105.76C161.4 105.461 160.958 105.008 160.68 104.4C160.414 103.792 160.28 103.013 160.28 102.064C160.28 101.029 160.419 100.208 160.696 99.6C160.974 98.992 161.411 98.5547 162.008 98.288C162.606 98.0213 163.39 97.888 164.36 97.888ZM171.504 98.096L171.792 99.664L172.016 99.872V106H169.648V98.096H171.504ZM175.36 97.888L175.136 100.08H174.48C174.106 100.08 173.717 100.133 173.312 100.24C172.906 100.347 172.394 100.507 171.776 100.72L171.616 99.392C172.17 98.9013 172.73 98.528 173.296 98.272C173.861 98.016 174.41 97.888 174.944 97.888H175.36ZM183.952 94.832C184.912 94.832 185.675 94.9173 186.24 95.088C186.816 95.248 187.232 95.536 187.488 95.952C187.744 96.368 187.872 96.9547 187.872 97.712C187.872 98.5013 187.718 99.104 187.408 99.52C187.11 99.9253 186.614 100.16 185.92 100.224V100.32C186.774 100.395 187.371 100.683 187.712 101.184C188.054 101.675 188.224 102.363 188.224 103.248C188.224 104.005 188.091 104.592 187.824 105.008C187.568 105.424 187.163 105.717 186.608 105.888C186.064 106.048 185.35 106.128 184.464 106.128C183.75 106.128 183.126 106.123 182.592 106.112C182.07 106.112 181.584 106.101 181.136 106.08C180.688 106.059 180.23 106.032 179.76 106L180 104.304C180.256 104.315 180.747 104.325 181.472 104.336C182.208 104.347 183.062 104.352 184.032 104.352C184.48 104.352 184.832 104.309 185.088 104.224C185.344 104.139 185.52 103.984 185.616 103.76C185.723 103.525 185.776 103.195 185.776 102.768C185.776 102.309 185.723 101.963 185.616 101.728C185.51 101.483 185.323 101.312 185.056 101.216C184.8 101.12 184.443 101.067 183.984 101.056H179.984V99.504H183.952C184.347 99.4933 184.656 99.4507 184.88 99.376C185.115 99.3013 185.28 99.1573 185.376 98.944C185.472 98.7307 185.52 98.432 185.52 98.048C185.52 97.6533 185.467 97.3547 185.36 97.152C185.264 96.9387 185.094 96.7947 184.848 96.72C184.603 96.6453 184.262 96.608 183.824 96.608C183.227 96.608 182.699 96.608 182.24 96.608C181.782 96.608 181.371 96.6133 181.008 96.624C180.646 96.624 180.31 96.6347 180 96.656L179.76 94.96C180.187 94.9173 180.598 94.8907 180.992 94.88C181.398 94.8587 181.835 94.848 182.304 94.848C182.774 94.8373 183.323 94.832 183.952 94.832ZM182.16 94.96V106H179.76V94.96H182.16ZM193.595 97.888C194.928 97.888 195.883 98.1173 196.459 98.576C197.045 99.024 197.339 99.696 197.339 100.592C197.349 101.317 197.168 101.861 196.795 102.224C196.421 102.576 195.776 102.752 194.859 102.752H190.443V101.424H194.203C194.565 101.424 194.795 101.349 194.891 101.2C194.997 101.04 195.051 100.821 195.051 100.544C195.04 100.171 194.928 99.9147 194.715 99.776C194.512 99.6267 194.165 99.552 193.675 99.552C193.237 99.552 192.896 99.6107 192.651 99.728C192.405 99.8453 192.235 100.069 192.139 100.4C192.043 100.731 191.995 101.211 191.995 101.84C191.995 102.501 192.053 103.013 192.171 103.376C192.288 103.728 192.485 103.973 192.763 104.112C193.051 104.251 193.445 104.32 193.947 104.32C194.309 104.32 194.757 104.309 195.291 104.288C195.835 104.256 196.379 104.208 196.923 104.144L197.147 105.6C196.837 105.749 196.485 105.867 196.091 105.952C195.696 106.037 195.291 106.096 194.875 106.128C194.459 106.171 194.059 106.192 193.675 106.192C192.672 106.192 191.861 106.048 191.243 105.76C190.635 105.461 190.192 105.008 189.915 104.4C189.648 103.792 189.515 103.013 189.515 102.064C189.515 101.029 189.653 100.208 189.931 99.6C190.208 98.992 190.645 98.5547 191.243 98.288C191.84 98.0213 192.624 97.888 193.595 97.888ZM200.738 98.096L201.026 99.664L201.25 99.872V106H198.882V98.096H200.738ZM204.594 97.888L204.37 100.08H203.714C203.341 100.08 202.951 100.133 202.546 100.24C202.141 100.347 201.629 100.507 201.01 100.72L200.85 99.392C201.405 98.9013 201.965 98.528 202.53 98.272C203.095 98.016 203.645 97.888 204.178 97.888H204.594ZM208.03 98.096V103.296C208.03 103.627 208.099 103.861 208.238 104C208.387 104.139 208.622 104.208 208.942 104.208C209.273 104.208 209.598 104.149 209.918 104.032C210.249 103.904 210.654 103.707 211.134 103.44L211.326 104.736C210.75 105.237 210.185 105.611 209.63 105.856C209.075 106.101 208.505 106.224 207.918 106.224C206.414 106.224 205.662 105.488 205.662 104.016V98.096H208.03ZM213.262 98.096V106H211.39L211.118 104.448L210.894 104.224V98.096H213.262ZM211.326 94.64C211.667 94.64 211.838 94.8107 211.838 95.152V96.096C211.838 96.4373 211.667 96.608 211.326 96.608H210.542C210.211 96.608 210.046 96.4373 210.046 96.096V95.152C210.046 94.8107 210.211 94.64 210.542 94.64H211.326ZM208.398 94.64C208.729 94.64 208.894 94.8107 208.894 95.152V96.096C208.894 96.4373 208.729 96.608 208.398 96.608H207.614C207.283 96.608 207.118 96.4373 207.118 96.096V95.152C207.118 94.8107 207.283 94.64 207.614 94.64H208.398ZM218.874 97.888C219.162 97.888 219.477 97.904 219.818 97.936C220.16 97.9573 220.501 98.0053 220.842 98.08C221.194 98.144 221.514 98.24 221.802 98.368L221.546 99.856C221.12 99.8453 220.709 99.8347 220.314 99.824C219.93 99.8133 219.584 99.808 219.274 99.808C218.794 99.808 218.416 99.872 218.138 100C217.861 100.128 217.658 100.357 217.53 100.688C217.413 101.008 217.354 101.456 217.354 102.032C217.354 102.619 217.413 103.077 217.53 103.408C217.658 103.739 217.861 103.968 218.138 104.096C218.416 104.224 218.794 104.288 219.274 104.288C219.445 104.288 219.664 104.283 219.93 104.272C220.197 104.261 220.485 104.251 220.794 104.24C221.104 104.219 221.408 104.187 221.706 104.144L221.93 105.648C221.504 105.84 221.018 105.979 220.474 106.064C219.93 106.149 219.392 106.192 218.858 106.192C217.877 106.192 217.093 106.059 216.506 105.792C215.93 105.515 215.514 105.072 215.258 104.464C215.002 103.856 214.874 103.045 214.874 102.032C214.874 101.019 215.002 100.208 215.258 99.6C215.525 98.992 215.952 98.5547 216.538 98.288C217.125 98.0213 217.904 97.888 218.874 97.888ZM230.983 98.096L228.919 100.848C228.823 100.997 228.7 101.141 228.551 101.28C228.402 101.419 228.279 101.52 228.183 101.584V101.648C228.279 101.701 228.402 101.813 228.551 101.984C228.7 102.155 228.823 102.325 228.919 102.496L231.255 106H228.615L225.911 101.552L228.343 98.096H230.983ZM225.703 94.8L225.719 99.424C225.719 99.7973 225.698 100.16 225.655 100.512C225.612 100.864 225.548 101.211 225.463 101.552C225.538 101.883 225.596 102.224 225.639 102.576C225.682 102.917 225.703 103.237 225.703 103.536V106H223.335V94.8H225.703ZM226.807 100.88V102.32H224.967V100.88H226.807ZM235.281 97.888C235.665 97.888 236.081 97.904 236.529 97.936C236.977 97.9573 237.414 97.9893 237.841 98.032C238.267 98.0747 238.646 98.128 238.977 98.192L238.817 99.664C238.305 99.6533 237.787 99.648 237.265 99.648C236.753 99.6373 236.251 99.632 235.761 99.632C235.345 99.6213 235.025 99.6267 234.801 99.648C234.577 99.6693 234.417 99.7227 234.321 99.808C234.235 99.8827 234.193 100.021 234.193 100.224C234.193 100.459 234.273 100.619 234.433 100.704C234.593 100.779 234.859 100.864 235.233 100.96L237.297 101.456C237.958 101.627 238.449 101.883 238.769 102.224C239.089 102.555 239.249 103.056 239.249 103.728C239.249 104.389 239.126 104.896 238.881 105.248C238.635 105.6 238.246 105.845 237.713 105.984C237.179 106.112 236.491 106.176 235.649 106.176C235.318 106.176 234.827 106.16 234.177 106.128C233.526 106.096 232.811 106.016 232.033 105.888L232.193 104.416C232.385 104.427 232.63 104.437 232.929 104.448C233.227 104.448 233.553 104.448 233.905 104.448C234.257 104.448 234.609 104.448 234.961 104.448C235.505 104.448 235.921 104.437 236.209 104.416C236.497 104.384 236.694 104.32 236.801 104.224C236.907 104.128 236.961 103.984 236.961 103.792C236.961 103.557 236.87 103.397 236.689 103.312C236.507 103.227 236.219 103.136 235.825 103.04L233.825 102.544C233.323 102.405 232.934 102.229 232.657 102.016C232.379 101.803 232.182 101.541 232.065 101.232C231.958 100.923 231.905 100.555 231.905 100.128C231.905 99.584 232.011 99.152 232.225 98.832C232.449 98.5013 232.806 98.2613 233.297 98.112C233.798 97.9627 234.459 97.888 235.281 97.888ZM243.189 98.096V106H240.837V98.096H243.189ZM242.533 94.608C243.002 94.608 243.237 94.848 243.237 95.328V96.176C243.237 96.656 243.002 96.896 242.533 96.896H241.509C241.039 96.896 240.805 96.656 240.805 96.176V95.328C240.805 94.848 241.039 94.608 241.509 94.608H242.533ZM248.874 97.888C249.162 97.888 249.477 97.904 249.818 97.936C250.16 97.9573 250.501 98.0053 250.842 98.08C251.194 98.144 251.514 98.24 251.802 98.368L251.546 99.856C251.12 99.8453 250.709 99.8347 250.314 99.824C249.93 99.8133 249.584 99.808 249.274 99.808C248.794 99.808 248.416 99.872 248.138 100C247.861 100.128 247.658 100.357 247.53 100.688C247.413 101.008 247.354 101.456 247.354 102.032C247.354 102.619 247.413 103.077 247.53 103.408C247.658 103.739 247.861 103.968 248.138 104.096C248.416 104.224 248.794 104.288 249.274 104.288C249.445 104.288 249.664 104.283 249.93 104.272C250.197 104.261 250.485 104.251 250.794 104.24C251.104 104.219 251.408 104.187 251.706 104.144L251.93 105.648C251.504 105.84 251.018 105.979 250.474 106.064C249.93 106.149 249.392 106.192 248.858 106.192C247.877 106.192 247.093 106.059 246.506 105.792C245.93 105.515 245.514 105.072 245.258 104.464C245.002 103.856 244.874 103.045 244.874 102.032C244.874 101.019 245.002 100.208 245.258 99.6C245.525 98.992 245.952 98.5547 246.538 98.288C247.125 98.0213 247.904 97.888 248.874 97.888ZM258.839 97.888C260.332 97.888 261.079 98.6187 261.079 100.08V106H258.695V100.816C258.695 100.464 258.631 100.224 258.503 100.096C258.386 99.9573 258.172 99.888 257.863 99.888C257.522 99.888 257.17 99.952 256.807 100.08C256.444 100.208 255.996 100.416 255.463 100.704L255.255 99.472C255.842 98.96 256.439 98.5707 257.047 98.304C257.655 98.0267 258.252 97.888 258.839 97.888ZM255.703 94.8L255.719 97.536C255.719 97.952 255.692 98.3467 255.639 98.72C255.596 99.0933 255.543 99.408 255.479 99.664L255.703 99.872V106H253.335V94.8H255.703ZM266.032 95.904V103.472C266.032 103.76 266.096 103.968 266.224 104.096C266.363 104.213 266.587 104.272 266.896 104.272H267.92L268.176 105.872C267.984 105.936 267.75 105.989 267.472 106.032C267.195 106.085 266.918 106.123 266.64 106.144C266.363 106.176 266.128 106.192 265.936 106.192C265.222 106.192 264.662 106 264.256 105.616C263.862 105.232 263.664 104.693 263.664 104L263.648 95.904H266.032ZM268.24 98.096V99.648H262.272V98.176L263.808 98.096H268.24ZM271.923 98.096V106H269.571V98.096H271.923ZM271.267 94.608C271.736 94.608 271.971 94.848 271.971 95.328V96.176C271.971 96.656 271.736 96.896 271.267 96.896H270.243C269.774 96.896 269.539 96.656 269.539 96.176V95.328C269.539 94.848 269.774 94.608 270.243 94.608H271.267ZM277.449 97.888C278.366 97.888 279.091 97.9733 279.625 98.144C280.169 98.3147 280.558 98.5813 280.793 98.944C281.038 99.3067 281.161 99.792 281.161 100.4C281.161 100.987 281.043 101.467 280.809 101.84C280.574 102.203 280.179 102.469 279.625 102.64C279.081 102.811 278.35 102.896 277.433 102.896C276.515 102.896 275.779 102.811 275.225 102.64C274.681 102.469 274.286 102.203 274.041 101.84C273.806 101.477 273.689 100.997 273.689 100.4C273.689 99.8027 273.806 99.3227 274.041 98.96C274.286 98.5867 274.686 98.3147 275.241 98.144C275.795 97.9733 276.531 97.888 277.449 97.888ZM277.433 99.344C276.846 99.344 276.441 99.424 276.217 99.584C275.993 99.7333 275.881 100.005 275.881 100.4C275.881 100.795 275.993 101.072 276.217 101.232C276.441 101.392 276.846 101.472 277.433 101.472C278.019 101.472 278.419 101.392 278.633 101.232C278.846 101.072 278.953 100.795 278.953 100.4C278.953 100.005 278.846 99.7333 278.633 99.584C278.419 99.424 278.019 99.344 277.433 99.344ZM282.073 98.096L281.945 99.104L279.833 99.376L279.257 98.096H282.073ZM275.049 102.416L276.233 102.624C276.083 102.709 275.977 102.843 275.913 103.024C275.859 103.205 275.875 103.376 275.961 103.536C276.046 103.696 276.233 103.792 276.521 103.824L279.433 104.16C280.265 104.245 280.851 104.48 281.193 104.864C281.534 105.237 281.705 105.787 281.705 106.512C281.705 107.195 281.566 107.717 281.289 108.08C281.011 108.453 280.569 108.709 279.961 108.848C279.353 108.987 278.542 109.056 277.529 109.056C276.697 109.056 276.009 109.013 275.465 108.928C274.931 108.853 274.505 108.725 274.185 108.544C273.875 108.363 273.657 108.123 273.529 107.824C273.411 107.536 273.353 107.173 273.353 106.736C273.353 106.405 273.411 106.123 273.529 105.888C273.646 105.643 273.843 105.424 274.121 105.232C274.409 105.04 274.809 104.864 275.321 104.704L276.489 104.288L277.337 104.624L276.697 105.04C276.43 105.232 276.211 105.397 276.041 105.536C275.881 105.664 275.763 105.792 275.689 105.92C275.625 106.048 275.593 106.219 275.593 106.432C275.593 106.677 275.646 106.864 275.753 106.992C275.859 107.131 276.051 107.221 276.329 107.264C276.617 107.317 277.006 107.344 277.497 107.344C278.009 107.344 278.409 107.317 278.697 107.264C278.985 107.221 279.182 107.136 279.289 107.008C279.406 106.88 279.465 106.699 279.465 106.464C279.465 106.261 279.422 106.112 279.337 106.016C279.262 105.92 279.129 105.851 278.937 105.808C278.755 105.755 278.499 105.707 278.169 105.664L275.689 105.392C275.273 105.349 274.947 105.237 274.713 105.056C274.478 104.875 274.313 104.656 274.217 104.4C274.131 104.133 274.11 103.867 274.153 103.6C274.195 103.333 274.291 103.093 274.441 102.88C274.601 102.667 274.803 102.512 275.049 102.416ZM285.546 98.096V103.296C285.546 103.627 285.615 103.861 285.754 104C285.903 104.139 286.138 104.208 286.458 104.208C286.788 104.208 287.114 104.149 287.434 104.032C287.764 103.904 288.17 103.707 288.65 103.44L288.842 104.736C288.266 105.237 287.7 105.611 287.146 105.856C286.591 106.101 286.02 106.224 285.434 106.224C283.93 106.224 283.178 105.488 283.178 104.016V98.096H285.546ZM290.778 98.096V106H288.906L288.634 104.448L288.41 104.224V98.096H290.778ZM298.214 97.888C299.707 97.888 300.454 98.6187 300.454 100.08V106H298.086V100.816C298.086 100.464 298.022 100.224 297.894 100.096C297.766 99.9573 297.547 99.888 297.238 99.888C296.897 99.888 296.545 99.9573 296.182 100.096C295.819 100.224 295.371 100.427 294.838 100.704L294.726 99.376C295.291 98.896 295.867 98.528 296.454 98.272C297.051 98.016 297.638 97.888 298.214 97.888ZM294.614 98.096L294.886 99.664L295.078 99.872V106H292.71V98.096H294.614ZM305.839 97.888C306.757 97.888 307.482 97.9733 308.015 98.144C308.559 98.3147 308.949 98.5813 309.183 98.944C309.429 99.3067 309.551 99.792 309.551 100.4C309.551 100.987 309.434 101.467 309.199 101.84C308.965 102.203 308.57 102.469 308.015 102.64C307.471 102.811 306.741 102.896 305.823 102.896C304.906 102.896 304.17 102.811 303.615 102.64C303.071 102.469 302.677 102.203 302.431 101.84C302.197 101.477 302.079 100.997 302.079 100.4C302.079 99.8027 302.197 99.3227 302.431 98.96C302.677 98.5867 303.077 98.3147 303.631 98.144C304.186 97.9733 304.922 97.888 305.839 97.888ZM305.823 99.344C305.237 99.344 304.831 99.424 304.607 99.584C304.383 99.7333 304.271 100.005 304.271 100.4C304.271 100.795 304.383 101.072 304.607 101.232C304.831 101.392 305.237 101.472 305.823 101.472C306.41 101.472 306.81 101.392 307.023 101.232C307.237 101.072 307.343 100.795 307.343 100.4C307.343 100.005 307.237 99.7333 307.023 99.584C306.81 99.424 306.41 99.344 305.823 99.344ZM310.463 98.096L310.335 99.104L308.223 99.376L307.647 98.096H310.463ZM303.439 102.416L304.623 102.624C304.474 102.709 304.367 102.843 304.303 103.024C304.25 103.205 304.266 103.376 304.351 103.536C304.437 103.696 304.623 103.792 304.911 103.824L307.823 104.16C308.655 104.245 309.242 104.48 309.583 104.864C309.925 105.237 310.095 105.787 310.095 106.512C310.095 107.195 309.957 107.717 309.679 108.08C309.402 108.453 308.959 108.709 308.351 108.848C307.743 108.987 306.933 109.056 305.919 109.056C305.087 109.056 304.399 109.013 303.855 108.928C303.322 108.853 302.895 108.725 302.575 108.544C302.266 108.363 302.047 108.123 301.919 107.824C301.802 107.536 301.743 107.173 301.743 106.736C301.743 106.405 301.802 106.123 301.919 105.888C302.037 105.643 302.234 105.424 302.511 105.232C302.799 105.04 303.199 104.864 303.711 104.704L304.879 104.288L305.727 104.624L305.087 105.04C304.821 105.232 304.602 105.397 304.431 105.536C304.271 105.664 304.154 105.792 304.079 105.92C304.015 106.048 303.983 106.219 303.983 106.432C303.983 106.677 304.037 106.864 304.143 106.992C304.25 107.131 304.442 107.221 304.719 107.264C305.007 107.317 305.397 107.344 305.887 107.344C306.399 107.344 306.799 107.317 307.087 107.264C307.375 107.221 307.573 107.136 307.679 107.008C307.797 106.88 307.855 106.699 307.855 106.464C307.855 106.261 307.813 106.112 307.727 106.016C307.653 105.92 307.519 105.851 307.327 105.808C307.146 105.755 306.89 105.707 306.559 105.664L304.079 105.392C303.663 105.349 303.338 105.237 303.103 105.056C302.869 104.875 302.703 104.656 302.607 104.4C302.522 104.133 302.501 103.867 302.543 103.6C302.586 103.333 302.682 103.093 302.831 102.88C302.991 102.667 303.194 102.512 303.439 102.416ZM320.573 97.888C322.067 97.888 322.813 98.6187 322.813 100.08V106H320.445V100.816C320.445 100.464 320.381 100.224 320.253 100.096C320.125 99.9573 319.907 99.888 319.597 99.888C319.256 99.888 318.904 99.9573 318.541 100.096C318.179 100.224 317.731 100.427 317.197 100.704L317.085 99.376C317.651 98.896 318.227 98.528 318.813 98.272C319.411 98.016 319.997 97.888 320.573 97.888ZM316.973 98.096L317.245 99.664L317.437 99.872V106H315.069V98.096H316.973ZM326.999 98.096V103.296C326.999 103.627 327.068 103.861 327.207 104C327.356 104.139 327.591 104.208 327.911 104.208C328.241 104.208 328.567 104.149 328.887 104.032C329.217 103.904 329.623 103.707 330.103 103.44L330.295 104.736C329.719 105.237 329.153 105.611 328.599 105.856C328.044 106.101 327.473 106.224 326.887 106.224C325.383 106.224 324.631 105.488 324.631 104.016V98.096H326.999ZM332.231 98.096V106H330.359L330.087 104.448L329.863 104.224V98.096H332.231ZM336.019 98.096L336.307 99.664L336.531 99.872V106H334.163V98.096H336.019ZM339.875 97.888L339.651 100.08H338.995C338.622 100.08 338.232 100.133 337.827 100.24C337.422 100.347 336.91 100.507 336.291 100.72L336.131 99.392C336.686 98.9013 337.246 98.528 337.811 98.272C338.376 98.016 338.926 97.888 339.459 97.888H339.875ZM347.652 97.888C348.569 97.888 349.295 97.9733 349.828 98.144C350.372 98.3147 350.761 98.5813 350.996 98.944C351.241 99.3067 351.364 99.792 351.364 100.4C351.364 100.987 351.247 101.467 351.012 101.84C350.777 102.203 350.383 102.469 349.828 102.64C349.284 102.811 348.553 102.896 347.636 102.896C346.719 102.896 345.983 102.811 345.428 102.64C344.884 102.469 344.489 102.203 344.244 101.84C344.009 101.477 343.892 100.997 343.892 100.4C343.892 99.8027 344.009 99.3227 344.244 98.96C344.489 98.5867 344.889 98.3147 345.444 98.144C345.999 97.9733 346.735 97.888 347.652 97.888ZM347.636 99.344C347.049 99.344 346.644 99.424 346.42 99.584C346.196 99.7333 346.084 100.005 346.084 100.4C346.084 100.795 346.196 101.072 346.42 101.232C346.644 101.392 347.049 101.472 347.636 101.472C348.223 101.472 348.623 101.392 348.836 101.232C349.049 101.072 349.156 100.795 349.156 100.4C349.156 100.005 349.049 99.7333 348.836 99.584C348.623 99.424 348.223 99.344 347.636 99.344ZM352.276 98.096L352.148 99.104L350.036 99.376L349.46 98.096H352.276ZM345.252 102.416L346.436 102.624C346.287 102.709 346.18 102.843 346.116 103.024C346.063 103.205 346.079 103.376 346.164 103.536C346.249 103.696 346.436 103.792 346.724 103.824L349.636 104.16C350.468 104.245 351.055 104.48 351.396 104.864C351.737 105.237 351.908 105.787 351.908 106.512C351.908 107.195 351.769 107.717 351.492 108.08C351.215 108.453 350.772 108.709 350.164 108.848C349.556 108.987 348.745 109.056 347.732 109.056C346.9 109.056 346.212 109.013 345.668 108.928C345.135 108.853 344.708 108.725 344.388 108.544C344.079 108.363 343.86 108.123 343.732 107.824C343.615 107.536 343.556 107.173 343.556 106.736C343.556 106.405 343.615 106.123 343.732 105.888C343.849 105.643 344.047 105.424 344.324 105.232C344.612 105.04 345.012 104.864 345.524 104.704L346.692 104.288L347.54 104.624L346.9 105.04C346.633 105.232 346.415 105.397 346.244 105.536C346.084 105.664 345.967 105.792 345.892 105.92C345.828 106.048 345.796 106.219 345.796 106.432C345.796 106.677 345.849 106.864 345.956 106.992C346.063 107.131 346.255 107.221 346.532 107.264C346.82 107.317 347.209 107.344 347.7 107.344C348.212 107.344 348.612 107.317 348.9 107.264C349.188 107.221 349.385 107.136 349.492 107.008C349.609 106.88 349.668 106.699 349.668 106.464C349.668 106.261 349.625 106.112 349.54 106.016C349.465 105.92 349.332 105.851 349.14 105.808C348.959 105.755 348.703 105.707 348.372 105.664L345.892 105.392C345.476 105.349 345.151 105.237 344.916 105.056C344.681 104.875 344.516 104.656 344.42 104.4C344.335 104.133 344.313 103.867 344.356 103.6C344.399 103.333 344.495 103.093 344.644 102.88C344.804 102.667 345.007 102.512 345.252 102.416ZM357.079 97.888C358.412 97.888 359.367 98.1173 359.943 98.576C360.53 99.024 360.823 99.696 360.823 100.592C360.834 101.317 360.652 101.861 360.279 102.224C359.906 102.576 359.26 102.752 358.343 102.752H353.927V101.424H357.687C358.05 101.424 358.279 101.349 358.375 101.2C358.482 101.04 358.535 100.821 358.535 100.544C358.524 100.171 358.412 99.9147 358.199 99.776C357.996 99.6267 357.65 99.552 357.159 99.552C356.722 99.552 356.38 99.6107 356.135 99.728C355.89 99.8453 355.719 100.069 355.623 100.4C355.527 100.731 355.479 101.211 355.479 101.84C355.479 102.501 355.538 103.013 355.655 103.376C355.772 103.728 355.97 103.973 356.247 104.112C356.535 104.251 356.93 104.32 357.431 104.32C357.794 104.32 358.242 104.309 358.775 104.288C359.319 104.256 359.863 104.208 360.407 104.144L360.631 105.6C360.322 105.749 359.97 105.867 359.575 105.952C359.18 106.037 358.775 106.096 358.359 106.128C357.943 106.171 357.543 106.192 357.159 106.192C356.156 106.192 355.346 106.048 354.727 105.76C354.119 105.461 353.676 105.008 353.399 104.4C353.132 103.792 352.999 103.013 352.999 102.064C352.999 101.029 353.138 100.208 353.415 99.6C353.692 98.992 354.13 98.5547 354.727 98.288C355.324 98.0213 356.108 97.888 357.079 97.888ZM365.374 97.888C365.758 97.888 366.174 97.904 366.622 97.936C367.07 97.9573 367.508 97.9893 367.934 98.032C368.361 98.0747 368.74 98.128 369.07 98.192L368.91 99.664C368.398 99.6533 367.881 99.648 367.358 99.648C366.846 99.6373 366.345 99.632 365.854 99.632C365.438 99.6213 365.118 99.6267 364.894 99.648C364.67 99.6693 364.51 99.7227 364.414 99.808C364.329 99.8827 364.286 100.021 364.286 100.224C364.286 100.459 364.366 100.619 364.526 100.704C364.686 100.779 364.953 100.864 365.326 100.96L367.39 101.456C368.052 101.627 368.542 101.883 368.862 102.224C369.182 102.555 369.342 103.056 369.342 103.728C369.342 104.389 369.22 104.896 368.974 105.248C368.729 105.6 368.34 105.845 367.806 105.984C367.273 106.112 366.585 106.176 365.742 106.176C365.412 106.176 364.921 106.16 364.27 106.128C363.62 106.096 362.905 106.016 362.126 105.888L362.286 104.416C362.478 104.427 362.724 104.437 363.022 104.448C363.321 104.448 363.646 104.448 363.998 104.448C364.35 104.448 364.702 104.448 365.054 104.448C365.598 104.448 366.014 104.437 366.302 104.416C366.59 104.384 366.788 104.32 366.894 104.224C367.001 104.128 367.054 103.984 367.054 103.792C367.054 103.557 366.964 103.397 366.782 103.312C366.601 103.227 366.313 103.136 365.918 103.04L363.918 102.544C363.417 102.405 363.028 102.229 362.75 102.016C362.473 101.803 362.276 101.541 362.158 101.232C362.052 100.923 361.998 100.555 361.998 100.128C361.998 99.584 362.105 99.152 362.318 98.832C362.542 98.5013 362.9 98.2613 363.39 98.112C363.892 97.9627 364.553 97.888 365.374 97.888ZM374.61 97.888C375.944 97.888 376.898 98.1173 377.474 98.576C378.061 99.024 378.354 99.696 378.354 100.592C378.365 101.317 378.184 101.861 377.81 102.224C377.437 102.576 376.792 102.752 375.874 102.752H371.458V101.424H375.218C375.581 101.424 375.81 101.349 375.906 101.2C376.013 101.04 376.066 100.821 376.066 100.544C376.056 100.171 375.944 99.9147 375.73 99.776C375.528 99.6267 375.181 99.552 374.69 99.552C374.253 99.552 373.912 99.6107 373.666 99.728C373.421 99.8453 373.25 100.069 373.154 100.4C373.058 100.731 373.01 101.211 373.01 101.84C373.01 102.501 373.069 103.013 373.186 103.376C373.304 103.728 373.501 103.973 373.778 104.112C374.066 104.251 374.461 104.32 374.962 104.32C375.325 104.32 375.773 104.309 376.306 104.288C376.85 104.256 377.394 104.208 377.938 104.144L378.162 105.6C377.853 105.749 377.501 105.867 377.106 105.952C376.712 106.037 376.306 106.096 375.89 106.128C375.474 106.171 375.074 106.192 374.69 106.192C373.688 106.192 372.877 106.048 372.258 105.76C371.65 105.461 371.208 105.008 370.93 104.4C370.664 103.792 370.53 103.013 370.53 102.064C370.53 101.029 370.669 100.208 370.946 99.6C371.224 98.992 371.661 98.5547 372.258 98.288C372.856 98.0213 373.64 97.888 374.61 97.888ZM382.282 94.8L382.266 103.472C382.266 103.739 382.346 103.941 382.506 104.08C382.666 104.208 382.9 104.272 383.21 104.272H383.85L384.122 105.872C383.994 105.936 383.812 105.989 383.578 106.032C383.343 106.085 383.103 106.123 382.858 106.144C382.612 106.176 382.404 106.192 382.234 106.192C381.519 106.192 380.954 106.005 380.538 105.632C380.122 105.259 379.914 104.736 379.914 104.064V94.8H382.282ZM387.532 94.8L387.516 103.472C387.516 103.739 387.596 103.941 387.756 104.08C387.916 104.208 388.15 104.272 388.46 104.272H389.1L389.372 105.872C389.244 105.936 389.062 105.989 388.828 106.032C388.593 106.085 388.353 106.123 388.108 106.144C387.862 106.176 387.654 106.192 387.484 106.192C386.769 106.192 386.204 106.005 385.788 105.632C385.372 105.259 385.164 104.736 385.164 104.064V94.8H387.532ZM393.406 97.888C393.79 97.888 394.206 97.904 394.654 97.936C395.102 97.9573 395.539 97.9893 395.966 98.032C396.392 98.0747 396.771 98.128 397.102 98.192L396.942 99.664C396.43 99.6533 395.912 99.648 395.39 99.648C394.878 99.6373 394.376 99.632 393.886 99.632C393.47 99.6213 393.15 99.6267 392.926 99.648C392.702 99.6693 392.542 99.7227 392.446 99.808C392.36 99.8827 392.318 100.021 392.318 100.224C392.318 100.459 392.398 100.619 392.558 100.704C392.718 100.779 392.984 100.864 393.358 100.96L395.422 101.456C396.083 101.627 396.574 101.883 396.894 102.224C397.214 102.555 397.374 103.056 397.374 103.728C397.374 104.389 397.251 104.896 397.006 105.248C396.76 105.6 396.371 105.845 395.838 105.984C395.304 106.112 394.616 106.176 393.774 106.176C393.443 106.176 392.952 106.16 392.302 106.128C391.651 106.096 390.936 106.016 390.158 105.888L390.318 104.416C390.51 104.427 390.755 104.437 391.054 104.448C391.352 104.448 391.678 104.448 392.03 104.448C392.382 104.448 392.734 104.448 393.086 104.448C393.63 104.448 394.046 104.437 394.334 104.416C394.622 104.384 394.819 104.32 394.926 104.224C395.032 104.128 395.086 103.984 395.086 103.792C395.086 103.557 394.995 103.397 394.814 103.312C394.632 103.227 394.344 103.136 393.95 103.04L391.95 102.544C391.448 102.405 391.059 102.229 390.782 102.016C390.504 101.803 390.307 101.541 390.19 101.232C390.083 100.923 390.03 100.555 390.03 100.128C390.03 99.584 390.136 99.152 390.35 98.832C390.574 98.5013 390.931 98.2613 391.422 98.112C391.923 97.9627 392.584 97.888 393.406 97.888ZM402.578 97.888C402.866 97.888 403.18 97.904 403.522 97.936C403.863 97.9573 404.204 98.0053 404.546 98.08C404.898 98.144 405.218 98.24 405.506 98.368L405.25 99.856C404.823 99.8453 404.412 99.8347 404.018 99.824C403.634 99.8133 403.287 99.808 402.978 99.808C402.498 99.808 402.119 99.872 401.842 100C401.564 100.128 401.362 100.357 401.234 100.688C401.116 101.008 401.058 101.456 401.058 102.032C401.058 102.619 401.116 103.077 401.234 103.408C401.362 103.739 401.564 103.968 401.842 104.096C402.119 104.224 402.498 104.288 402.978 104.288C403.148 104.288 403.367 104.283 403.634 104.272C403.9 104.261 404.188 104.251 404.498 104.24C404.807 104.219 405.111 104.187 405.41 104.144L405.634 105.648C405.207 105.84 404.722 105.979 404.178 106.064C403.634 106.149 403.095 106.192 402.562 106.192C401.58 106.192 400.796 106.059 400.21 105.792C399.634 105.515 399.218 105.072 398.962 104.464C398.706 103.856 398.578 103.045 398.578 102.032C398.578 101.019 398.706 100.208 398.962 99.6C399.228 98.992 399.655 98.5547 400.242 98.288C400.828 98.0213 401.607 97.888 402.578 97.888ZM412.542 97.888C414.035 97.888 414.782 98.6187 414.782 100.08V106H412.398V100.816C412.398 100.464 412.334 100.224 412.206 100.096C412.089 99.9573 411.875 99.888 411.566 99.888C411.225 99.888 410.873 99.952 410.51 100.08C410.147 100.208 409.699 100.416 409.166 100.704L408.958 99.472C409.545 98.96 410.142 98.5707 410.75 98.304C411.358 98.0267 411.955 97.888 412.542 97.888ZM409.406 94.8L409.422 97.536C409.422 97.952 409.395 98.3467 409.342 98.72C409.299 99.0933 409.246 99.408 409.182 99.664L409.406 99.872V106H407.038V94.8H409.406ZM420.824 97.888C421.485 97.888 422.045 97.9787 422.504 98.16C422.962 98.3307 423.309 98.6293 423.544 99.056C423.789 99.472 423.911 100.048 423.911 100.784V106H422.024L421.688 104.288L421.528 104.048V100.768C421.528 100.395 421.437 100.123 421.256 99.952C421.085 99.7813 420.754 99.696 420.264 99.696C419.858 99.696 419.352 99.712 418.744 99.744C418.136 99.7653 417.512 99.7973 416.872 99.84L416.648 98.272C417.032 98.1973 417.474 98.1333 417.976 98.08C418.477 98.0267 418.978 97.984 419.48 97.952C419.981 97.9093 420.429 97.888 420.824 97.888ZM422.936 101.136L422.92 102.464L419.4 102.48C419.112 102.48 418.904 102.549 418.776 102.688C418.658 102.827 418.6 103.013 418.6 103.248V103.632C418.6 103.899 418.674 104.107 418.824 104.256C418.973 104.395 419.213 104.464 419.544 104.464C419.821 104.464 420.12 104.405 420.44 104.288C420.77 104.171 421.096 104.005 421.416 103.792C421.736 103.579 422.018 103.328 422.264 103.04V104.064C422.168 104.224 422.024 104.427 421.832 104.672C421.65 104.907 421.416 105.141 421.128 105.376C420.84 105.6 420.504 105.792 420.12 105.952C419.736 106.112 419.298 106.192 418.808 106.192C418.328 106.192 417.896 106.107 417.512 105.936C417.128 105.765 416.824 105.515 416.6 105.184C416.376 104.853 416.264 104.443 416.264 103.952V103.136C416.264 102.507 416.477 102.016 416.904 101.664C417.33 101.312 417.917 101.136 418.664 101.136H422.936ZM429.085 94.464C429.277 94.464 429.527 94.4693 429.837 94.48C430.157 94.4907 430.477 94.512 430.797 94.544C431.127 94.5653 431.41 94.5973 431.645 94.64L431.437 96.16H429.933C429.527 96.16 429.245 96.24 429.085 96.4C428.925 96.56 428.845 96.8373 428.845 97.232V106H426.477V96.928C426.477 96.4267 426.557 95.9947 426.717 95.632C426.887 95.2693 427.165 94.9867 427.549 94.784C427.933 94.5707 428.445 94.464 429.085 94.464ZM431.053 98.096V99.648H425.101V98.176L426.525 98.096H431.053ZM435.329 95.904V103.472C435.329 103.76 435.393 103.968 435.521 104.096C435.66 104.213 435.884 104.272 436.193 104.272H437.217L437.473 105.872C437.281 105.936 437.047 105.989 436.769 106.032C436.492 106.085 436.215 106.123 435.937 106.144C435.66 106.176 435.425 106.192 435.233 106.192C434.519 106.192 433.959 106 433.553 105.616C433.159 105.232 432.961 104.693 432.961 104L432.945 95.904H435.329ZM437.537 98.096V99.648H431.569V98.176L433.105 98.096H437.537ZM441.812 97.888C442.196 97.888 442.612 97.904 443.06 97.936C443.508 97.9573 443.945 97.9893 444.372 98.032C444.798 98.0747 445.177 98.128 445.508 98.192L445.348 99.664C444.836 99.6533 444.318 99.648 443.796 99.648C443.284 99.6373 442.782 99.632 442.292 99.632C441.876 99.6213 441.556 99.6267 441.332 99.648C441.108 99.6693 440.948 99.7227 440.852 99.808C440.766 99.8827 440.724 100.021 440.724 100.224C440.724 100.459 440.804 100.619 440.964 100.704C441.124 100.779 441.39 100.864 441.764 100.96L443.828 101.456C444.489 101.627 444.98 101.883 445.3 102.224C445.62 102.555 445.78 103.056 445.78 103.728C445.78 104.389 445.657 104.896 445.412 105.248C445.166 105.6 444.777 105.845 444.244 105.984C443.71 106.112 443.022 106.176 442.18 106.176C441.849 106.176 441.358 106.16 440.708 106.128C440.057 106.096 439.342 106.016 438.564 105.888L438.724 104.416C438.916 104.427 439.161 104.437 439.46 104.448C439.758 104.448 440.084 104.448 440.436 104.448C440.788 104.448 441.14 104.448 441.492 104.448C442.036 104.448 442.452 104.437 442.74 104.416C443.028 104.384 443.225 104.32 443.332 104.224C443.438 104.128 443.492 103.984 443.492 103.792C443.492 103.557 443.401 103.397 443.22 103.312C443.038 103.227 442.75 103.136 442.356 103.04L440.356 102.544C439.854 102.405 439.465 102.229 439.188 102.016C438.91 101.803 438.713 101.541 438.596 101.232C438.489 100.923 438.436 100.555 438.436 100.128C438.436 99.584 438.542 99.152 438.756 98.832C438.98 98.5013 439.337 98.2613 439.828 98.112C440.329 97.9627 440.99 97.888 441.812 97.888ZM449.16 98.096L449.448 99.664L449.672 99.872V106H447.304V98.096H449.16ZM453.016 97.888L452.792 100.08H452.136C451.762 100.08 451.373 100.133 450.968 100.24C450.562 100.347 450.05 100.507 449.432 100.72L449.272 99.392C449.826 98.9013 450.386 98.528 450.952 98.272C451.517 98.016 452.066 97.888 452.6 97.888H453.016ZM457.751 97.888C459.084 97.888 460.039 98.1173 460.615 98.576C461.202 99.024 461.495 99.696 461.495 100.592C461.506 101.317 461.324 101.861 460.951 102.224C460.578 102.576 459.932 102.752 459.015 102.752H454.599V101.424H458.359C458.722 101.424 458.951 101.349 459.047 101.2C459.154 101.04 459.207 100.821 459.207 100.544C459.196 100.171 459.084 99.9147 458.871 99.776C458.668 99.6267 458.322 99.552 457.831 99.552C457.394 99.552 457.052 99.6107 456.807 99.728C456.562 99.8453 456.391 100.069 456.295 100.4C456.199 100.731 456.151 101.211 456.151 101.84C456.151 102.501 456.21 103.013 456.327 103.376C456.444 103.728 456.642 103.973 456.919 104.112C457.207 104.251 457.602 104.32 458.103 104.32C458.466 104.32 458.914 104.309 459.447 104.288C459.991 104.256 460.535 104.208 461.079 104.144L461.303 105.6C460.994 105.749 460.642 105.867 460.247 105.952C459.852 106.037 459.447 106.096 459.031 106.128C458.615 106.171 458.215 106.192 457.831 106.192C456.828 106.192 456.018 106.048 455.399 105.76C454.791 105.461 454.348 105.008 454.071 104.4C453.804 103.792 453.671 103.013 453.671 102.064C453.671 101.029 453.81 100.208 454.087 99.6C454.364 98.992 454.802 98.5547 455.399 98.288C455.996 98.0213 456.78 97.888 457.751 97.888ZM466.718 97.888C467.006 97.888 467.321 97.904 467.662 97.936C468.003 97.9573 468.345 98.0053 468.686 98.08C469.038 98.144 469.358 98.24 469.646 98.368L469.39 99.856C468.963 99.8453 468.553 99.8347 468.158 99.824C467.774 99.8133 467.427 99.808 467.118 99.808C466.638 99.808 466.259 99.872 465.982 100C465.705 100.128 465.502 100.357 465.374 100.688C465.257 101.008 465.198 101.456 465.198 102.032C465.198 102.619 465.257 103.077 465.374 103.408C465.502 103.739 465.705 103.968 465.982 104.096C466.259 104.224 466.638 104.288 467.118 104.288C467.289 104.288 467.507 104.283 467.774 104.272C468.041 104.261 468.329 104.251 468.638 104.24C468.947 104.219 469.251 104.187 469.55 104.144L469.774 105.648C469.347 105.84 468.862 105.979 468.318 106.064C467.774 106.149 467.235 106.192 466.702 106.192C465.721 106.192 464.937 106.059 464.35 105.792C463.774 105.515 463.358 105.072 463.102 104.464C462.846 103.856 462.718 103.045 462.718 102.032C462.718 101.019 462.846 100.208 463.102 99.6C463.369 98.992 463.795 98.5547 464.382 98.288C464.969 98.0213 465.747 97.888 466.718 97.888ZM476.683 97.888C478.176 97.888 478.923 98.6187 478.923 100.08V106H476.539V100.816C476.539 100.464 476.475 100.224 476.347 100.096C476.229 99.9573 476.016 99.888 475.707 99.888C475.365 99.888 475.013 99.952 474.651 100.08C474.288 100.208 473.84 100.416 473.307 100.704L473.099 99.472C473.685 98.96 474.283 98.5707 474.891 98.304C475.499 98.0267 476.096 97.888 476.683 97.888ZM473.547 94.8L473.563 97.536C473.563 97.952 473.536 98.3467 473.483 98.72C473.44 99.0933 473.387 99.408 473.323 99.664L473.547 99.872V106H471.179V94.8H473.547ZM483.876 95.904V103.472C483.876 103.76 483.94 103.968 484.068 104.096C484.207 104.213 484.431 104.272 484.74 104.272H485.764L486.02 105.872C485.828 105.936 485.593 105.989 485.316 106.032C485.039 106.085 484.761 106.123 484.484 106.144C484.207 106.176 483.972 106.192 483.78 106.192C483.065 106.192 482.505 106 482.1 105.616C481.705 105.232 481.508 104.693 481.508 104L481.492 95.904H483.876ZM486.084 98.096V99.648H480.116V98.176L481.652 98.096H486.084ZM489.735 94.8L489.719 103.472C489.719 103.739 489.799 103.941 489.959 104.08C490.119 104.208 490.353 104.272 490.663 104.272H491.303L491.575 105.872C491.447 105.936 491.265 105.989 491.031 106.032C490.796 106.085 490.556 106.123 490.311 106.144C490.065 106.176 489.857 106.192 489.687 106.192C488.972 106.192 488.407 106.005 487.991 105.632C487.575 105.259 487.367 104.736 487.367 104.064V94.8H489.735ZM495.017 98.096V106H492.665V98.096H495.017ZM494.361 94.608C494.83 94.608 495.065 94.848 495.065 95.328V96.176C495.065 96.656 494.83 96.896 494.361 96.896H493.337C492.867 96.896 492.633 96.656 492.633 96.176V95.328C492.633 94.848 492.867 94.608 493.337 94.608H494.361ZM500.703 97.888C500.991 97.888 501.305 97.904 501.647 97.936C501.988 97.9573 502.329 98.0053 502.671 98.08C503.023 98.144 503.343 98.24 503.631 98.368L503.375 99.856C502.948 99.8453 502.537 99.8347 502.143 99.824C501.759 99.8133 501.412 99.808 501.103 99.808C500.623 99.808 500.244 99.872 499.967 100C499.689 100.128 499.487 100.357 499.359 100.688C499.241 101.008 499.183 101.456 499.183 102.032C499.183 102.619 499.241 103.077 499.359 103.408C499.487 103.739 499.689 103.968 499.967 104.096C500.244 104.224 500.623 104.288 501.103 104.288C501.273 104.288 501.492 104.283 501.759 104.272C502.025 104.261 502.313 104.251 502.623 104.24C502.932 104.219 503.236 104.187 503.535 104.144L503.759 105.648C503.332 105.84 502.847 105.979 502.303 106.064C501.759 106.149 501.22 106.192 500.687 106.192C499.705 106.192 498.921 106.059 498.335 105.792C497.759 105.515 497.343 105.072 497.087 104.464C496.831 103.856 496.703 103.045 496.703 102.032C496.703 101.019 496.831 100.208 497.087 99.6C497.353 98.992 497.78 98.5547 498.367 98.288C498.953 98.0213 499.732 97.888 500.703 97.888ZM510.667 97.888C512.16 97.888 512.907 98.6187 512.907 100.08V106H510.523V100.816C510.523 100.464 510.459 100.224 510.331 100.096C510.214 99.9573 510 99.888 509.691 99.888C509.35 99.888 508.998 99.952 508.635 100.08C508.272 100.208 507.824 100.416 507.291 100.704L507.083 99.472C507.67 98.96 508.267 98.5707 508.875 98.304C509.483 98.0267 510.08 97.888 510.667 97.888ZM507.531 94.8L507.547 97.536C507.547 97.952 507.52 98.3467 507.467 98.72C507.424 99.0933 507.371 99.408 507.307 99.664L507.531 99.872V106H505.163V94.8H507.531ZM518.516 97.888C519.85 97.888 520.805 98.1173 521.381 98.576C521.967 99.024 522.26 99.696 522.26 100.592C522.271 101.317 522.09 101.861 521.717 102.224C521.343 102.576 520.698 102.752 519.781 102.752H515.365V101.424H519.125C519.487 101.424 519.717 101.349 519.813 101.2C519.919 101.04 519.973 100.821 519.973 100.544C519.962 100.171 519.85 99.9147 519.637 99.776C519.434 99.6267 519.087 99.552 518.597 99.552C518.159 99.552 517.818 99.6107 517.573 99.728C517.327 99.8453 517.157 100.069 517.061 100.4C516.965 100.731 516.917 101.211 516.917 101.84C516.917 102.501 516.975 103.013 517.093 103.376C517.21 103.728 517.407 103.973 517.685 104.112C517.973 104.251 518.367 104.32 518.869 104.32C519.231 104.32 519.679 104.309 520.213 104.288C520.757 104.256 521.301 104.208 521.845 104.144L522.069 105.6C521.759 105.749 521.407 105.867 521.013 105.952C520.618 106.037 520.213 106.096 519.797 106.128C519.381 106.171 518.981 106.192 518.597 106.192C517.594 106.192 516.783 106.048 516.164 105.76C515.557 105.461 515.114 105.008 514.837 104.4C514.57 103.792 514.437 103.013 514.437 102.064C514.437 101.029 514.575 100.208 514.853 99.6C515.13 98.992 515.567 98.5547 516.164 98.288C516.762 98.0213 517.546 97.888 518.516 97.888ZM525.66 98.096L525.948 99.664L526.172 99.872V106H523.804V98.096H525.66ZM529.516 97.888L529.292 100.08H528.636C528.262 100.08 527.873 100.133 527.468 100.24C527.062 100.347 526.55 100.507 525.932 100.72L525.772 99.392C526.326 98.9013 526.886 98.528 527.452 98.272C528.017 98.016 528.566 97.888 529.1 97.888H529.516ZM536.365 94.96V106H533.933V94.96H536.365ZM543.948 97.888C545.442 97.888 546.188 98.6187 546.188 100.08V106H543.82V100.816C543.82 100.464 543.756 100.224 543.628 100.096C543.5 99.9573 543.282 99.888 542.972 99.888C542.631 99.888 542.279 99.9573 541.916 100.096C541.554 100.224 541.106 100.427 540.572 100.704L540.46 99.376C541.026 98.896 541.602 98.528 542.188 98.272C542.786 98.016 543.372 97.888 543.948 97.888ZM540.348 98.096L540.62 99.664L540.812 99.872V106H538.444V98.096H540.348ZM551.366 94.464C551.558 94.464 551.808 94.4693 552.118 94.48C552.438 94.4907 552.758 94.512 553.078 94.544C553.408 94.5653 553.691 94.5973 553.926 94.64L553.718 96.16H552.214C551.808 96.16 551.526 96.24 551.366 96.4C551.206 96.56 551.126 96.8373 551.126 97.232V106H548.758V96.928C548.758 96.4267 548.838 95.9947 548.998 95.632C549.168 95.2693 549.446 94.9867 549.83 94.784C550.214 94.5707 550.726 94.464 551.366 94.464ZM553.334 98.096V99.648H547.382V98.176L548.806 98.096H553.334ZM558.189 97.888C559.181 97.888 559.975 98.0267 560.573 98.304C561.17 98.5707 561.597 99.008 561.853 99.616C562.119 100.224 562.253 101.04 562.253 102.064C562.253 103.067 562.119 103.872 561.853 104.48C561.597 105.088 561.17 105.525 560.573 105.792C559.975 106.059 559.181 106.192 558.189 106.192C557.207 106.192 556.413 106.059 555.805 105.792C555.207 105.525 554.775 105.088 554.509 104.48C554.242 103.872 554.109 103.067 554.109 102.064C554.109 101.04 554.242 100.224 554.509 99.616C554.775 99.008 555.207 98.5707 555.805 98.304C556.413 98.0267 557.207 97.888 558.189 97.888ZM558.189 99.616C557.783 99.616 557.463 99.6853 557.229 99.824C556.994 99.9627 556.829 100.208 556.733 100.56C556.637 100.912 556.589 101.413 556.589 102.064C556.589 102.704 556.637 103.2 556.733 103.552C556.829 103.904 556.994 104.149 557.229 104.288C557.463 104.416 557.783 104.48 558.189 104.48C558.594 104.48 558.914 104.416 559.149 104.288C559.383 104.149 559.549 103.904 559.645 103.552C559.741 103.2 559.789 102.704 559.789 102.064C559.789 101.413 559.741 100.912 559.645 100.56C559.549 100.208 559.383 99.9627 559.149 99.824C558.914 99.6853 558.594 99.616 558.189 99.616ZM565.722 98.096L566.01 99.664L566.234 99.872V106H563.866V98.096H565.722ZM569.578 97.888L569.354 100.08H568.698C568.325 100.08 567.936 100.133 567.53 100.24C567.125 100.347 566.613 100.507 565.994 100.72L565.834 99.392C566.389 98.9013 566.949 98.528 567.514 98.272C568.08 98.016 568.629 97.888 569.162 97.888H569.578ZM580.71 97.888C581.425 97.888 581.969 98.0747 582.342 98.448C582.716 98.8213 582.902 99.3653 582.902 100.08V106H580.55V100.816C580.55 100.485 580.486 100.251 580.358 100.112C580.23 99.9627 580.006 99.888 579.686 99.888C579.494 99.888 579.313 99.9147 579.142 99.968C578.972 100.021 578.774 100.107 578.55 100.224C578.326 100.341 578.054 100.501 577.734 100.704L577.606 99.392C578.118 98.8907 578.62 98.5173 579.11 98.272C579.612 98.016 580.145 97.888 580.71 97.888ZM572.582 98.096L572.822 99.664L573.062 99.872V106H570.694V98.096H572.582ZM575.782 97.888C576.486 97.888 577.02 98.0747 577.382 98.448C577.756 98.8107 577.942 99.3547 577.942 100.08V106H575.67V100.816C575.67 100.475 575.596 100.235 575.446 100.096C575.308 99.9573 575.089 99.888 574.79 99.888C574.609 99.888 574.428 99.9147 574.246 99.968C574.076 100.011 573.873 100.091 573.638 100.208C573.414 100.325 573.137 100.491 572.806 100.704L572.662 99.392C573.185 98.8907 573.692 98.5173 574.182 98.272C574.673 98.016 575.206 97.888 575.782 97.888ZM588.964 97.888C589.625 97.888 590.185 97.9787 590.644 98.16C591.103 98.3307 591.449 98.6293 591.684 99.056C591.929 99.472 592.052 100.048 592.052 100.784V106H590.164L589.828 104.288L589.668 104.048V100.768C589.668 100.395 589.577 100.123 589.396 99.952C589.225 99.7813 588.895 99.696 588.404 99.696C587.999 99.696 587.492 99.712 586.884 99.744C586.276 99.7653 585.652 99.7973 585.012 99.84L584.788 98.272C585.172 98.1973 585.615 98.1333 586.116 98.08C586.617 98.0267 587.119 97.984 587.62 97.952C588.121 97.9093 588.569 97.888 588.964 97.888ZM591.076 101.136L591.06 102.464L587.54 102.48C587.252 102.48 587.044 102.549 586.916 102.688C586.799 102.827 586.74 103.013 586.74 103.248V103.632C586.74 103.899 586.815 104.107 586.964 104.256C587.113 104.395 587.353 104.464 587.684 104.464C587.961 104.464 588.26 104.405 588.58 104.288C588.911 104.171 589.236 104.005 589.556 103.792C589.876 103.579 590.159 103.328 590.404 103.04V104.064C590.308 104.224 590.164 104.427 589.972 104.672C589.791 104.907 589.556 105.141 589.268 105.376C588.98 105.6 588.644 105.792 588.26 105.952C587.876 106.112 587.439 106.192 586.948 106.192C586.468 106.192 586.036 106.107 585.652 105.936C585.268 105.765 584.964 105.515 584.74 105.184C584.516 104.853 584.404 104.443 584.404 103.952V103.136C584.404 102.507 584.617 102.016 585.044 101.664C585.471 101.312 586.057 101.136 586.804 101.136H591.076ZM597.001 95.904V103.472C597.001 103.76 597.065 103.968 597.193 104.096C597.332 104.213 597.556 104.272 597.865 104.272H598.889L599.145 105.872C598.953 105.936 598.718 105.989 598.441 106.032C598.164 106.085 597.886 106.123 597.609 106.144C597.332 106.176 597.097 106.192 596.905 106.192C596.19 106.192 595.63 106 595.225 105.616C594.83 105.232 594.633 104.693 594.633 104L594.617 95.904H597.001ZM599.209 98.096V99.648H593.241V98.176L594.777 98.096H599.209ZM602.892 98.096V106H600.54V98.096H602.892ZM602.236 94.608C602.705 94.608 602.94 94.848 602.94 95.328V96.176C602.94 96.656 602.705 96.896 602.236 96.896H601.212C600.742 96.896 600.508 96.656 600.508 96.176V95.328C600.508 94.848 600.742 94.608 601.212 94.608H602.236ZM608.658 97.888C609.65 97.888 610.444 98.0267 611.042 98.304C611.639 98.5707 612.066 99.008 612.322 99.616C612.588 100.224 612.722 101.04 612.722 102.064C612.722 103.067 612.588 103.872 612.322 104.48C612.066 105.088 611.639 105.525 611.042 105.792C610.444 106.059 609.65 106.192 608.658 106.192C607.676 106.192 606.882 106.059 606.274 105.792C605.676 105.525 605.244 105.088 604.978 104.48C604.711 103.872 604.578 103.067 604.578 102.064C604.578 101.04 604.711 100.224 604.978 99.616C605.244 99.008 605.676 98.5707 606.274 98.304C606.882 98.0267 607.676 97.888 608.658 97.888ZM608.658 99.616C608.252 99.616 607.932 99.6853 607.698 99.824C607.463 99.9627 607.298 100.208 607.202 100.56C607.106 100.912 607.058 101.413 607.058 102.064C607.058 102.704 607.106 103.2 607.202 103.552C607.298 103.904 607.463 104.149 607.698 104.288C607.932 104.416 608.252 104.48 608.658 104.48C609.063 104.48 609.383 104.416 609.618 104.288C609.852 104.149 610.018 103.904 610.114 103.552C610.21 103.2 610.258 102.704 610.258 102.064C610.258 101.413 610.21 100.912 610.114 100.56C610.018 100.208 609.852 99.9627 609.618 99.824C609.383 99.6853 609.063 99.616 608.658 99.616ZM619.839 97.888C621.332 97.888 622.079 98.6187 622.079 100.08V106H619.711V100.816C619.711 100.464 619.647 100.224 619.519 100.096C619.391 99.9573 619.172 99.888 618.863 99.888C618.522 99.888 618.17 99.9573 617.807 100.096C617.444 100.224 616.996 100.427 616.463 100.704L616.351 99.376C616.916 98.896 617.492 98.528 618.079 98.272C618.676 98.016 619.263 97.888 619.839 97.888ZM616.239 98.096L616.511 99.664L616.703 99.872V106H614.335V98.096H616.239ZM627.688 97.888C629.022 97.888 629.976 98.1173 630.552 98.576C631.139 99.024 631.432 99.696 631.432 100.592C631.443 101.317 631.262 101.861 630.888 102.224C630.515 102.576 629.87 102.752 628.952 102.752H624.536V101.424H628.296C628.659 101.424 628.888 101.349 628.984 101.2C629.091 101.04 629.144 100.821 629.144 100.544C629.134 100.171 629.022 99.9147 628.808 99.776C628.606 99.6267 628.259 99.552 627.768 99.552C627.331 99.552 626.99 99.6107 626.744 99.728C626.499 99.8453 626.328 100.069 626.232 100.4C626.136 100.731 626.088 101.211 626.088 101.84C626.088 102.501 626.147 103.013 626.264 103.376C626.382 103.728 626.579 103.973 626.856 104.112C627.144 104.251 627.539 104.32 628.04 104.32C628.403 104.32 628.851 104.309 629.384 104.288C629.928 104.256 630.472 104.208 631.016 104.144L631.24 105.6C630.931 105.749 630.579 105.867 630.184 105.952C629.79 106.037 629.384 106.096 628.968 106.128C628.552 106.171 628.152 106.192 627.768 106.192C626.766 106.192 625.955 106.048 625.336 105.76C624.728 105.461 624.286 105.008 624.008 104.4C623.742 103.792 623.608 103.013 623.608 102.064C623.608 101.029 623.747 100.208 624.024 99.6C624.302 98.992 624.739 98.5547 625.336 98.288C625.934 98.0213 626.718 97.888 627.688 97.888ZM638.48 97.888C639.973 97.888 640.72 98.6187 640.72 100.08V106H638.352V100.816C638.352 100.464 638.288 100.224 638.16 100.096C638.032 99.9573 637.813 99.888 637.504 99.888C637.162 99.888 636.81 99.9573 636.448 100.096C636.085 100.224 635.637 100.427 635.104 100.704L634.992 99.376C635.557 98.896 636.133 98.528 636.72 98.272C637.317 98.016 637.904 97.888 638.48 97.888ZM634.88 98.096L635.152 99.664L635.344 99.872V106H632.976V98.096H634.88Z" fill="#023047" fill-opacity="0.72"/>
</g>
<rect width="1920" height="89" fill="white"/>
<path d="M0 -9.65086e-05V89.0332H271.028L307 -9.65086e-05H0Z" fill="#003A69"/>
<path d="M175.01 54.2131H177.169V64.2302H182.027V66.0376H175.01V54.2131ZM169.877 61.055L168.949 58.143C168.72 57.4244 168.528 56.6162 168.353 55.9323H168.315C168.14 56.6162 167.965 57.4403 167.754 58.143L166.842 61.055H169.877ZM166.491 62.686L165.474 66.0376H163.246L167.034 54.2131H169.792L173.632 66.0376H171.316L170.246 62.686H166.491ZM158.71 56.0205H155.341V54.2131H164.271V56.0205H160.868V66.0376H158.71V56.0205ZM153.773 60.7919H149.315V64.2664H154.298V66.0376H147.158V54.2131H154.034V55.9843H149.315V59.038H153.773V60.7919ZM142.903 61.2127C142.832 59.6872 142.745 57.8452 142.762 56.2475H142.709C142.323 57.6861 141.833 59.2838 141.305 60.7745L139.587 65.8973H137.92L136.341 60.8454C135.884 59.3359 135.463 57.7223 135.148 56.2475H135.114C135.06 57.7917 134.989 59.6684 134.902 61.2849L134.639 66.0376H132.622L133.412 54.2131H136.253L137.797 58.9672C138.218 60.3538 138.587 61.7577 138.884 63.0721H138.936C139.253 61.7924 139.657 60.335 140.113 58.9498L141.744 54.2131H144.551L145.236 66.0376H143.131L142.903 61.2127ZM124.005 63.6866C124.708 64.09 125.76 64.4413 126.865 64.4413C128.25 64.4413 129.022 63.7921 129.022 62.8277C129.022 61.9327 128.425 61.4064 126.917 60.8627C124.969 60.16 123.724 59.1248 123.724 57.4244C123.724 55.4942 125.338 54.0208 127.9 54.0208C129.18 54.0208 130.128 54.3013 130.741 54.6165L130.215 56.353C129.794 56.126 128.97 55.7935 127.864 55.7935C126.496 55.7935 125.899 56.5294 125.899 57.2119C125.899 58.1257 126.583 58.5464 128.162 59.1609C130.215 59.933 131.214 60.9669 131.214 62.6701C131.214 64.5642 129.777 66.214 126.725 66.214C125.478 66.214 124.18 65.8626 123.532 65.4766L124.005 63.6866ZM118.574 61.055L117.644 58.143C117.417 57.4244 117.224 56.6162 117.049 55.9323H117.013C116.838 56.6162 116.663 57.4403 116.452 58.143L115.539 61.055H118.574ZM115.189 62.686L114.171 66.0376H111.942L115.732 54.2131H118.487L122.328 66.0376H120.013L118.943 62.686H115.189ZM104.776 59.599H106.057C107.513 59.599 108.425 58.8269 108.425 57.6514C108.425 56.353 107.513 55.7573 106.109 55.7573C105.425 55.7573 104.987 55.8094 104.776 55.8629V59.599ZM102.636 54.3707C103.443 54.2305 104.653 54.1249 105.898 54.1249C107.6 54.1249 108.758 54.4069 109.549 55.0734C110.198 55.6171 110.565 56.4412 110.565 57.4403C110.565 58.9672 109.53 60.0024 108.425 60.4073V60.4579C109.267 60.7745 109.776 61.5987 110.074 62.7381C110.442 64.2143 110.759 65.5807 111.003 66.0376H108.777C108.6 65.6877 108.32 64.7218 107.987 63.247C107.653 61.7057 107.092 61.2127 105.865 61.1779H104.776V66.0376H102.636V54.3707ZM94.9426 64.4775C95.2231 64.5107 95.5918 64.5295 96.0834 64.5295C97.4685 64.5295 98.6976 64.0018 98.6976 62.5472C98.6976 61.1779 97.5047 60.6169 96.0125 60.6169H94.9426V64.4775ZM94.9426 59.038H96.0472C97.538 59.038 98.3809 58.3368 98.3809 57.3362C98.3809 56.2316 97.538 55.7212 96.1701 55.7212C95.5383 55.7212 95.171 55.7573 94.9426 55.8094V59.038ZM92.8027 54.3707C93.4866 54.2305 94.7329 54.1249 95.9417 54.1249C97.538 54.1249 98.5212 54.3187 99.328 54.8797C100.065 55.3192 100.557 56.0899 100.557 57.0904C100.557 58.1777 99.8731 59.1783 98.5906 59.6525V59.6872C99.8369 60.0024 100.978 60.9856 100.978 62.6166C100.978 63.6692 100.521 64.4934 99.8369 65.0558C98.9954 65.7932 97.6088 66.1619 95.4515 66.1619C94.2572 66.1619 93.3463 66.0737 92.8027 66.0014V54.3707ZM79.1405 44.1368C79.1405 56.7449 68.9196 66.9658 56.3115 66.9658C43.7034 66.9658 33.4824 56.7449 33.4824 44.1368C33.4824 31.5301 43.7034 21.3077 56.3115 21.3077C68.9196 21.3077 79.1405 31.5301 79.1405 44.1368ZM216.695 48.0276V33.1799H212.549V51.4414H222.762V48.0276H216.695ZM150.45 48.0276V47.9741V33.1799H146.305V51.4414H156.516V48.0276H150.45ZM163.519 48.0291V47.9178L172.027 35.5641V33.1799H158.777V36.5936H166.664V36.702L158.687 48.1795V51.4414H172.164V48.0291H163.519ZM229.767 48.0291V47.9178L238.274 35.5641V33.1799H225.026V36.5936H232.91V36.702L224.933 48.1795V51.4414H238.41V48.0291H229.767ZM196.918 42.3656C196.918 45.9412 198.598 48.46 201.361 48.46C204.153 48.46 205.752 45.8082 205.752 42.2571C205.752 38.9793 204.182 36.1598 201.335 36.1598C198.544 36.1598 196.918 38.8159 196.918 42.3656ZM210.113 42.1212C210.113 48.1072 206.481 51.7392 201.144 51.7392C195.725 51.7392 192.556 47.6488 192.556 42.448C192.556 36.9739 196.05 32.8806 201.443 32.8806C207.051 32.8806 210.113 37.0809 210.113 42.1212ZM179.148 33.1799V40.1967H185.946V33.1799H190.067V51.4414H185.946V43.8013H179.148V51.4414H175.003V33.1799H179.148ZM142.064 43.7204H135.743V48.0537H143.25V51.4414H131.597V33.1799H142.869V36.5676H135.743V40.3587H142.064V43.7204ZM123.327 43.6654L122.189 39.7904C121.863 38.7075 121.538 37.3527 121.266 36.2683H121.214C120.942 37.3527 120.671 38.7335 120.373 39.7904L119.29 43.6654H123.327ZM118.694 46.7538L117.393 51.4414H113.112L118.694 33.1799H124.112L129.775 51.4414H125.334L123.922 46.7538H118.694ZM95.3474 51.4414L91.0127 33.1799H95.4299L96.8107 40.7129C97.2184 42.8803 97.5987 45.2371 97.8965 47.0791H97.9486C98.2479 45.1012 98.6816 42.9049 99.1429 40.658L100.687 33.1799H105.075L106.539 40.8734C106.946 43.0162 107.243 44.9667 107.516 46.9982H107.568C107.84 44.9667 108.246 42.8268 108.625 40.658L110.114 33.1799H114.315L109.6 51.4414H105.13L103.588 43.5844C103.233 41.7409 102.935 40.0348 102.719 37.9484H102.664C102.34 40.0073 102.042 41.7409 101.607 43.5844L99.8731 51.4414H95.3474Z" fill="white"/>
<path d="M73.6626 33.1797H70.9212L63.6224 50.9106L56.3221 33.1797H49.0161L61.3393 63.111L73.6626 33.1797ZM54.9413 54.2506L46.2675 33.1797H38.96L51.289 63.1211L54.9413 54.2506ZM59.5739 35.9182C59.5739 37.5825 59.7807 38.7637 61.4362 38.7637C63.0151 38.7637 63.1293 37.6056 63.1293 36.8089H62.0276C62.0276 37.6056 61.8656 37.9512 61.3668 37.9512C60.8174 37.9512 60.6815 37.409 60.6786 35.9182C60.6815 34.4275 60.8174 33.8868 61.3668 33.8868C61.8656 33.8868 62.0276 34.2323 62.0276 35.029H63.1293C63.1293 34.2323 63.0151 33.0742 61.4362 33.0742C59.7807 33.0742 59.5739 34.2555 59.5739 35.9182ZM64.1068 38.6553H65.8462C67.3108 38.6553 67.7258 37.7805 67.7258 35.8416C67.7258 34.2323 67.4496 33.1812 65.9156 33.1812H64.1068V38.6553ZM65.7016 37.8413H65.2114V33.9952H65.6784C66.5214 33.9952 66.6212 34.63 66.6212 35.872C66.6212 37.3583 66.4679 37.8413 65.7016 37.8413Z" fill="#003A69"/>
</g>
<defs>
<clipPath id="clip0_3074_7767">
<rect width="1920" height="1080" fill="white"/>
</clipPath>
<clipPath id="clip1_3074_7767">
<rect width="1896" height="947" fill="white" transform="translate(0 90)"/>
</clipPath>
</defs>
</svg>
