<svg width="1920" height="1080" viewBox="0 0 1920 1080" fill="none" xmlns="http://www.w3.org/2000/svg">
<g clip-path="url(#clip0_3079_8098)">
<rect width="1920" height="1080" fill="#F5F5F5"/>
<mask id="path-1-inside-1_3079_8098" fill="white">
<path d="M24 1038H1896V1065H24V1038Z"/>
</mask>
<path d="M24 1039H1896V1037H24V1039Z" fill="#99B0C3" mask="url(#path-1-inside-1_3079_8098)"/>
<path d="M46.832 584.92C47.984 584.92 48.5813 585.517 48.624 586.712L49.456 607H44.944L44.208 588.696H43.632L40.08 602.456C39.888 603.48 39.248 603.992 38.16 603.992H35.088C34 603.992 33.3387 603.48 33.104 602.456L29.552 588.696H29.008L28.336 607H23.792L24.624 586.712C24.6667 585.517 25.2747 584.92 26.448 584.92H31.024C32.0693 584.92 32.7093 585.443 32.944 586.488L35.792 597.592C35.92 598.104 36.0267 598.627 36.112 599.16C36.1973 599.672 36.2933 600.195 36.4 600.728H36.816C36.9227 600.195 37.0187 599.672 37.104 599.16C37.2107 598.627 37.3173 598.093 37.424 597.56L40.24 586.488C40.4533 585.443 41.0933 584.92 42.16 584.92H46.832ZM60.6892 590.776C63.3559 590.776 65.2653 591.235 66.4173 592.152C67.5906 593.048 68.1772 594.392 68.1772 596.184C68.1986 597.635 67.8359 598.723 67.0893 599.448C66.3426 600.152 65.0519 600.504 63.2173 600.504H54.3853V597.848H61.9053C62.6306 597.848 63.0893 597.699 63.2813 597.4C63.4946 597.08 63.6013 596.643 63.6013 596.088C63.5799 595.341 63.3559 594.829 62.9293 594.552C62.5239 594.253 61.8306 594.104 60.8493 594.104C59.9746 594.104 59.2919 594.221 58.8013 594.456C58.3106 594.691 57.9693 595.139 57.7773 595.8C57.5853 596.461 57.4893 597.421 57.4893 598.68C57.4893 600.003 57.6066 601.027 57.8413 601.752C58.0759 602.456 58.4706 602.947 59.0253 603.224C59.6013 603.501 60.3906 603.64 61.3933 603.64C62.1186 603.64 63.0146 603.619 64.0813 603.576C65.1693 603.512 66.2573 603.416 67.3453 603.288L67.7933 606.2C67.1746 606.499 66.4706 606.733 65.6813 606.904C64.8919 607.075 64.0813 607.192 63.2493 607.256C62.4173 607.341 61.6173 607.384 60.8493 607.384C58.8439 607.384 57.2226 607.096 55.9852 606.52C54.7693 605.923 53.8839 605.016 53.3293 603.8C52.7959 602.584 52.5293 601.027 52.5293 599.128C52.5293 597.059 52.8066 595.416 53.3613 594.2C53.9159 592.984 54.7906 592.109 55.9852 591.576C57.1799 591.043 58.7479 590.776 60.6892 590.776ZM77.4398 586.808V601.944C77.4398 602.52 77.5678 602.936 77.8238 603.192C78.1011 603.427 78.5491 603.544 79.1678 603.544H81.2158L81.7278 606.744C81.3438 606.872 80.8744 606.979 80.3198 607.064C79.7651 607.171 79.2104 607.245 78.6558 607.288C78.1011 607.352 77.6318 607.384 77.2478 607.384C75.8184 607.384 74.6984 607 73.8878 606.232C73.0984 605.464 72.7038 604.387 72.7038 603L72.6718 586.808H77.4398ZM81.8558 591.192V594.296H69.9198V591.352L72.9918 591.192H81.8558ZM88.1008 591.192L88.6768 594.328L89.1248 594.744V607H84.3888V591.192H88.1008ZM95.8128 590.776L95.3648 595.16H94.0528C93.3061 595.16 92.5274 595.267 91.7168 595.48C90.9061 595.693 89.8821 596.013 88.6448 596.44L88.3248 593.784C89.4341 592.803 90.5541 592.056 91.6848 591.544C92.8154 591.032 93.9141 590.776 94.9808 590.776H95.8128ZM102.877 591.192V607H98.173V591.192H102.877ZM101.565 584.216C102.504 584.216 102.973 584.696 102.973 585.656V587.352C102.973 588.312 102.504 588.792 101.565 588.792H99.517C98.5783 588.792 98.109 588.312 98.109 587.352V585.656C98.109 584.696 98.5783 584.216 99.517 584.216H101.565ZM122.185 591.192L118.057 596.696C117.865 596.995 117.619 597.283 117.321 597.56C117.022 597.837 116.777 598.04 116.585 598.168V598.296C116.777 598.403 117.022 598.627 117.321 598.968C117.619 599.309 117.865 599.651 118.057 599.992L122.729 607H117.449L112.041 598.104L116.905 591.192H122.185ZM111.625 584.6L111.657 593.848C111.657 594.595 111.614 595.32 111.529 596.024C111.443 596.728 111.315 597.421 111.145 598.104C111.294 598.765 111.411 599.448 111.497 600.152C111.582 600.835 111.625 601.475 111.625 602.072V607H106.889V584.6H111.625ZM113.833 596.76V599.64H110.153V596.76H113.833Z" fill="#003A69"/>
<path d="M22.3481 172.348V194.428H17.4841V172.348H22.3481ZM37.5159 178.204C40.5026 178.204 41.9959 179.665 41.9959 182.588V194.428H37.2599V184.06C37.2599 183.356 37.1319 182.876 36.8759 182.62C36.6199 182.342 36.1826 182.204 35.5639 182.204C34.8812 182.204 34.1772 182.342 33.4519 182.62C32.7266 182.876 31.8306 183.281 30.7639 183.836L30.5399 181.18C31.6706 180.22 32.8226 179.484 33.9959 178.972C35.1906 178.46 36.3639 178.204 37.5159 178.204ZM30.3159 178.62L30.8599 181.756L31.2439 182.172V194.428H26.5079V178.62H30.3159ZM51.1346 178.204C52.244 178.204 53.3106 178.364 54.3346 178.684C55.38 179.004 56.2973 179.526 57.0866 180.252L56.7666 182.428C56.0413 182.214 55.3906 182.022 54.8146 181.852C54.2386 181.681 53.5666 181.596 52.7986 181.596C52.1373 181.596 51.604 181.713 51.1986 181.948C50.7933 182.182 50.4946 182.641 50.3026 183.324C50.1106 184.006 50.0146 185.02 50.0146 186.364C50.0146 187.622 50.1 188.582 50.2706 189.244C50.4626 189.884 50.7506 190.332 51.1346 190.588C51.54 190.822 52.052 190.94 52.6706 190.94C53.2253 190.94 53.7053 190.886 54.1106 190.78C54.516 190.652 54.9213 190.47 55.3266 190.236C55.732 189.98 56.1906 189.67 56.7026 189.308L57.0546 191.644C56.4146 192.54 55.5826 193.297 54.5586 193.916C53.5346 194.513 52.276 194.812 50.7826 194.812C48.756 194.812 47.3053 194.086 46.4306 192.636C45.5773 191.185 45.1506 189.105 45.1506 186.396C45.1506 184.284 45.364 182.641 45.7906 181.468C46.2386 180.273 46.9106 179.43 47.8066 178.94C48.7026 178.449 49.812 178.204 51.1346 178.204ZM60.9586 172.028V194.428H57.2146L56.7346 191.516L56.2226 191.164V180.796L56.4146 180.38C56.3506 179.718 56.2973 179.057 56.2546 178.396C56.2333 177.713 56.2226 177.02 56.2226 176.316V172.028H60.9586ZM69.6524 178.62V194.428H64.9484V178.62H69.6524ZM68.3404 171.644C69.2791 171.644 69.7484 172.124 69.7484 173.084V174.78C69.7484 175.74 69.2791 176.22 68.3404 176.22H66.2924C65.3537 176.22 64.8844 175.74 64.8844 174.78V173.084C64.8844 172.124 65.3537 171.644 66.2924 171.644H68.3404ZM88.9601 178.62L84.8321 184.124C84.6401 184.422 84.3948 184.71 84.0961 184.988C83.7975 185.265 83.5521 185.468 83.3601 185.596V185.724C83.5521 185.83 83.7975 186.054 84.0961 186.396C84.3948 186.737 84.6401 187.078 84.8321 187.42L89.5041 194.428H84.2241L78.8161 185.532L83.6801 178.62H88.9601ZM78.4001 172.028L78.4321 181.276C78.4321 182.022 78.3895 182.748 78.3041 183.452C78.2188 184.156 78.0908 184.849 77.9201 185.532C78.0695 186.193 78.1868 186.876 78.2721 187.58C78.3575 188.262 78.4001 188.902 78.4001 189.5V194.428H73.6641V172.028H78.4001ZM80.6081 184.188V187.068H76.9281V184.188H80.6081ZM99.8911 178.204C101.214 178.204 102.334 178.385 103.251 178.748C104.168 179.089 104.862 179.686 105.331 180.54C105.822 181.372 106.067 182.524 106.067 183.996V194.428H102.291L101.619 191.004L101.299 190.524V183.964C101.299 183.217 101.118 182.673 100.755 182.332C100.414 181.99 99.7525 181.82 98.7711 181.82C97.9605 181.82 96.9471 181.852 95.7311 181.916C94.5151 181.958 93.2671 182.022 91.9871 182.108L91.5391 178.972C92.3071 178.822 93.1925 178.694 94.1951 178.588C95.1978 178.481 96.2005 178.396 97.2031 178.332C98.2058 178.246 99.1018 178.204 99.8911 178.204ZM104.115 184.7L104.083 187.356L97.0431 187.388C96.4671 187.388 96.0511 187.526 95.7951 187.804C95.5605 188.081 95.4431 188.454 95.4431 188.924V189.692C95.4431 190.225 95.5925 190.641 95.8911 190.94C96.1898 191.217 96.6698 191.356 97.3311 191.356C97.8858 191.356 98.4831 191.238 99.1231 191.004C99.7845 190.769 100.435 190.438 101.075 190.012C101.715 189.585 102.28 189.084 102.771 188.508V190.556C102.579 190.876 102.291 191.281 101.907 191.772C101.544 192.241 101.075 192.71 100.499 193.18C99.9231 193.628 99.2511 194.012 98.4831 194.332C97.7151 194.652 96.8405 194.812 95.8591 194.812C94.8991 194.812 94.0351 194.641 93.2671 194.3C92.4991 193.958 91.8911 193.457 91.4431 192.796C90.9951 192.134 90.7711 191.313 90.7711 190.332V188.7C90.7711 187.441 91.1978 186.46 92.0511 185.756C92.9045 185.052 94.0778 184.7 95.5711 184.7H104.115ZM115.965 174.236V189.372C115.965 189.948 116.093 190.364 116.349 190.62C116.626 190.854 117.074 190.972 117.693 190.972H119.741L120.253 194.172C119.869 194.3 119.4 194.406 118.845 194.492C118.29 194.598 117.736 194.673 117.181 194.716C116.626 194.78 116.157 194.812 115.773 194.812C114.344 194.812 113.224 194.428 112.413 193.66C111.624 192.892 111.229 191.814 111.229 190.428L111.197 174.236H115.965ZM120.381 178.62V181.724H108.445V178.78L111.517 178.62H120.381ZM130.434 178.204C132.418 178.204 134.007 178.481 135.202 179.036C136.397 179.569 137.25 180.444 137.762 181.66C138.295 182.876 138.562 184.508 138.562 186.556C138.562 188.561 138.295 190.172 137.762 191.388C137.25 192.604 136.397 193.478 135.202 194.012C134.007 194.545 132.418 194.812 130.434 194.812C128.471 194.812 126.882 194.545 125.666 194.012C124.471 193.478 123.607 192.604 123.074 191.388C122.541 190.172 122.274 188.561 122.274 186.556C122.274 184.508 122.541 182.876 123.074 181.66C123.607 180.444 124.471 179.569 125.666 179.036C126.882 178.481 128.471 178.204 130.434 178.204ZM130.434 181.66C129.623 181.66 128.983 181.798 128.514 182.076C128.045 182.353 127.714 182.844 127.522 183.548C127.33 184.252 127.234 185.254 127.234 186.556C127.234 187.836 127.33 188.828 127.522 189.532C127.714 190.236 128.045 190.726 128.514 191.004C128.983 191.26 129.623 191.388 130.434 191.388C131.245 191.388 131.885 191.26 132.354 191.004C132.823 190.726 133.154 190.236 133.346 189.532C133.538 188.828 133.634 187.836 133.634 186.556C133.634 185.254 133.538 184.252 133.346 183.548C133.154 182.844 132.823 182.353 132.354 182.076C131.885 181.798 131.245 181.66 130.434 181.66ZM145.501 178.62L146.077 181.756L146.525 182.172V194.428H141.789V178.62H145.501ZM153.213 178.204L152.765 182.588H151.453C150.706 182.588 149.928 182.694 149.117 182.908C148.306 183.121 147.282 183.441 146.045 183.868L145.725 181.212C146.834 180.23 147.954 179.484 149.085 178.972C150.216 178.46 151.314 178.204 152.381 178.204H153.213ZM162.683 178.204C165.35 178.204 167.259 178.662 168.411 179.58C169.585 180.476 170.171 181.82 170.171 183.612C170.193 185.062 169.83 186.15 169.083 186.876C168.337 187.58 167.046 187.932 165.211 187.932H156.379V185.276H163.899C164.625 185.276 165.083 185.126 165.275 184.828C165.489 184.508 165.595 184.07 165.595 183.516C165.574 182.769 165.35 182.257 164.923 181.98C164.518 181.681 163.825 181.532 162.843 181.532C161.969 181.532 161.286 181.649 160.795 181.884C160.305 182.118 159.963 182.566 159.771 183.228C159.579 183.889 159.483 184.849 159.483 186.108C159.483 187.43 159.601 188.454 159.835 189.18C160.07 189.884 160.465 190.374 161.019 190.652C161.595 190.929 162.385 191.068 163.387 191.068C164.113 191.068 165.009 191.046 166.075 191.004C167.163 190.94 168.251 190.844 169.339 190.716L169.787 193.628C169.169 193.926 168.465 194.161 167.675 194.332C166.886 194.502 166.075 194.62 165.243 194.684C164.411 194.769 163.611 194.812 162.843 194.812C160.838 194.812 159.217 194.524 157.979 193.948C156.763 193.35 155.878 192.444 155.323 191.228C154.79 190.012 154.523 188.454 154.523 186.556C154.523 184.486 154.801 182.844 155.355 181.628C155.91 180.412 156.785 179.537 157.979 179.004C159.174 178.47 160.742 178.204 162.683 178.204ZM184.266 178.204C187.253 178.204 188.746 179.665 188.746 182.588V194.428H184.01V184.06C184.01 183.356 183.882 182.876 183.626 182.62C183.37 182.342 182.933 182.204 182.314 182.204C181.631 182.204 180.927 182.342 180.202 182.62C179.477 182.876 178.581 183.281 177.514 183.836L177.29 181.18C178.421 180.22 179.573 179.484 180.746 178.972C181.941 178.46 183.114 178.204 184.266 178.204ZM177.066 178.62L177.61 181.756L177.994 182.172V194.428H173.258V178.62H177.066Z" fill="#003A69"/>
<path d="M20.296 96.832C21.256 96.832 22.0187 96.9173 22.584 97.088C23.16 97.248 23.576 97.536 23.832 97.952C24.088 98.368 24.216 98.9547 24.216 99.712C24.216 100.501 24.0613 101.104 23.752 101.52C23.4533 101.925 22.9573 102.16 22.264 102.224V102.32C23.1173 102.395 23.7147 102.683 24.056 103.184C24.3973 103.675 24.568 104.363 24.568 105.248C24.568 106.005 24.4347 106.592 24.168 107.008C23.912 107.424 23.5067 107.717 22.952 107.888C22.408 108.048 21.6933 108.128 20.808 108.128C20.0933 108.128 19.4693 108.123 18.936 108.112C18.4133 108.112 17.928 108.101 17.48 108.08C17.032 108.059 16.5733 108.032 16.104 108L16.344 106.304C16.6 106.315 17.0907 106.325 17.816 106.336C18.552 106.347 19.4053 106.352 20.376 106.352C20.824 106.352 21.176 106.309 21.432 106.224C21.688 106.139 21.864 105.984 21.96 105.76C22.0667 105.525 22.12 105.195 22.12 104.768C22.12 104.309 22.0667 103.963 21.96 103.728C21.8533 103.483 21.6667 103.312 21.4 103.216C21.144 103.12 20.7867 103.067 20.328 103.056H16.328V101.504H20.296C20.6907 101.493 21 101.451 21.224 101.376C21.4587 101.301 21.624 101.157 21.72 100.944C21.816 100.731 21.864 100.432 21.864 100.048C21.864 99.6533 21.8107 99.3547 21.704 99.152C21.608 98.9387 21.4373 98.7947 21.192 98.72C20.9467 98.6453 20.6053 98.608 20.168 98.608C19.5707 98.608 19.0427 98.608 18.584 98.608C18.1253 98.608 17.7147 98.6133 17.352 98.624C16.9893 98.624 16.6533 98.6347 16.344 98.656L16.104 96.96C16.5307 96.9173 16.9413 96.8907 17.336 96.88C17.7413 96.8587 18.1787 96.848 18.648 96.848C19.1173 96.8373 19.6667 96.832 20.296 96.832ZM18.504 96.96V108H16.104V96.96H18.504ZM28.0504 100.096L28.3384 101.664L28.5624 101.872V108H26.1944V100.096H28.0504ZM31.9064 99.888L31.6824 102.08H31.0264C30.653 102.08 30.2637 102.133 29.8584 102.24C29.453 102.347 28.941 102.507 28.3224 102.72L28.1624 101.392C28.717 100.901 29.277 100.528 29.8424 100.272C30.4077 100.016 30.957 99.888 31.4904 99.888H31.9064ZM35.3425 100.096V105.296C35.3425 105.627 35.4118 105.861 35.5505 106C35.6998 106.139 35.9345 106.208 36.2545 106.208C36.5852 106.208 36.9105 106.149 37.2305 106.032C37.5612 105.904 37.9665 105.707 38.4465 105.44L38.6385 106.736C38.0625 107.237 37.4972 107.611 36.9425 107.856C36.3878 108.101 35.8172 108.224 35.2305 108.224C33.7265 108.224 32.9745 107.488 32.9745 106.016V100.096H35.3425ZM40.5745 100.096V108H38.7025L38.4305 106.448L38.2065 106.224V100.096H40.5745ZM45.5949 97.904V105.472C45.5949 105.76 45.6589 105.968 45.7869 106.096C45.9255 106.213 46.1495 106.272 46.4589 106.272H47.4829L47.7389 107.872C47.5469 107.936 47.3122 107.989 47.0349 108.032C46.7575 108.085 46.4802 108.123 46.2029 108.144C45.9255 108.176 45.6909 108.192 45.4989 108.192C44.7842 108.192 44.2242 108 43.8189 107.616C43.4242 107.232 43.2269 106.693 43.2269 106L43.2109 97.904H45.5949ZM47.8029 100.096V101.648H41.8349V100.176L43.3709 100.096H47.8029ZM52.1574 97.904V105.472C52.1574 105.76 52.2214 105.968 52.3494 106.096C52.488 106.213 52.712 106.272 53.0214 106.272H54.0454L54.3014 107.872C54.1094 107.936 53.8747 107.989 53.5974 108.032C53.32 108.085 53.0427 108.123 52.7654 108.144C52.488 108.176 52.2534 108.192 52.0614 108.192C51.3467 108.192 50.7867 108 50.3814 107.616C49.9867 107.232 49.7894 106.693 49.7894 106L49.7734 97.904H52.1574ZM54.3654 100.096V101.648H48.3974V100.176L49.9334 100.096H54.3654ZM59.3919 99.888C60.3839 99.888 61.1785 100.027 61.7759 100.304C62.3732 100.571 62.7999 101.008 63.0559 101.616C63.3225 102.224 63.4559 103.04 63.4559 104.064C63.4559 105.067 63.3225 105.872 63.0559 106.48C62.7999 107.088 62.3732 107.525 61.7759 107.792C61.1785 108.059 60.3839 108.192 59.3919 108.192C58.4105 108.192 57.6159 108.059 57.0079 107.792C56.4105 107.525 55.9785 107.088 55.7119 106.48C55.4452 105.872 55.3119 105.067 55.3119 104.064C55.3119 103.04 55.4452 102.224 55.7119 101.616C55.9785 101.008 56.4105 100.571 57.0079 100.304C57.6159 100.027 58.4105 99.888 59.3919 99.888ZM59.3919 101.616C58.9865 101.616 58.6665 101.685 58.4319 101.824C58.1972 101.963 58.0319 102.208 57.9359 102.56C57.8399 102.912 57.7919 103.413 57.7919 104.064C57.7919 104.704 57.8399 105.2 57.9359 105.552C58.0319 105.904 58.1972 106.149 58.4319 106.288C58.6665 106.416 58.9865 106.48 59.3919 106.48C59.7972 106.48 60.1172 106.416 60.3519 106.288C60.5865 106.149 60.7519 105.904 60.8479 105.552C60.9439 105.2 60.9919 104.704 60.9919 104.064C60.9919 103.413 60.9439 102.912 60.8479 102.56C60.7519 102.208 60.5865 101.963 60.3519 101.824C60.1172 101.685 59.7972 101.616 59.3919 101.616ZM68.5894 99.888C69.5067 99.888 70.232 99.9733 70.7654 100.144C71.3094 100.315 71.6987 100.581 71.9334 100.944C72.1787 101.307 72.3014 101.792 72.3014 102.4C72.3014 102.987 72.184 103.467 71.9494 103.84C71.7147 104.203 71.32 104.469 70.7654 104.64C70.2214 104.811 69.4907 104.896 68.5734 104.896C67.656 104.896 66.92 104.811 66.3654 104.64C65.8214 104.469 65.4267 104.203 65.1814 103.84C64.9467 103.477 64.8294 102.997 64.8294 102.4C64.8294 101.803 64.9467 101.323 65.1814 100.96C65.4267 100.587 65.8267 100.315 66.3814 100.144C66.936 99.9733 67.672 99.888 68.5894 99.888ZM68.5734 101.344C67.9867 101.344 67.5814 101.424 67.3574 101.584C67.1334 101.733 67.0214 102.005 67.0214 102.4C67.0214 102.795 67.1334 103.072 67.3574 103.232C67.5814 103.392 67.9867 103.472 68.5734 103.472C69.16 103.472 69.56 103.392 69.7734 103.232C69.9867 103.072 70.0934 102.795 70.0934 102.4C70.0934 102.005 69.9867 101.733 69.7734 101.584C69.56 101.424 69.16 101.344 68.5734 101.344ZM73.2134 100.096L73.0854 101.104L70.9734 101.376L70.3974 100.096H73.2134ZM66.1894 104.416L67.3734 104.624C67.224 104.709 67.1174 104.843 67.0534 105.024C67 105.205 67.016 105.376 67.1014 105.536C67.1867 105.696 67.3734 105.792 67.6614 105.824L70.5734 106.16C71.4054 106.245 71.992 106.48 72.3334 106.864C72.6747 107.237 72.8454 107.787 72.8454 108.512C72.8454 109.195 72.7067 109.717 72.4294 110.08C72.152 110.453 71.7094 110.709 71.1014 110.848C70.4934 110.987 69.6827 111.056 68.6694 111.056C67.8374 111.056 67.1494 111.013 66.6054 110.928C66.072 110.853 65.6454 110.725 65.3254 110.544C65.016 110.363 64.7974 110.123 64.6694 109.824C64.552 109.536 64.4934 109.173 64.4934 108.736C64.4934 108.405 64.552 108.123 64.6694 107.888C64.7867 107.643 64.984 107.424 65.2614 107.232C65.5494 107.04 65.9494 106.864 66.4614 106.704L67.6294 106.288L68.4774 106.624L67.8374 107.04C67.5707 107.232 67.352 107.397 67.1814 107.536C67.0214 107.664 66.904 107.792 66.8294 107.92C66.7654 108.048 66.7334 108.219 66.7334 108.432C66.7334 108.677 66.7867 108.864 66.8934 108.992C67 109.131 67.192 109.221 67.4694 109.264C67.7574 109.317 68.1467 109.344 68.6374 109.344C69.1494 109.344 69.5494 109.317 69.8374 109.264C70.1254 109.221 70.3227 109.136 70.4294 109.008C70.5467 108.88 70.6054 108.699 70.6054 108.464C70.6054 108.261 70.5627 108.112 70.4774 108.016C70.4027 107.92 70.2694 107.851 70.0774 107.808C69.896 107.755 69.64 107.707 69.3094 107.664L66.8294 107.392C66.4134 107.349 66.088 107.237 65.8534 107.056C65.6187 106.875 65.4534 106.656 65.3574 106.4C65.272 106.133 65.2507 105.867 65.2934 105.6C65.336 105.333 65.432 105.093 65.5814 104.88C65.7414 104.667 65.944 104.512 66.1894 104.416ZM78.0165 99.888C79.3498 99.888 80.3045 100.117 80.8805 100.576C81.4672 101.024 81.7605 101.696 81.7605 102.592C81.7712 103.317 81.5898 103.861 81.2165 104.224C80.8432 104.576 80.1978 104.752 79.2805 104.752H74.8645V103.424H78.6245C78.9872 103.424 79.2165 103.349 79.3125 103.2C79.4192 103.04 79.4725 102.821 79.4725 102.544C79.4618 102.171 79.3498 101.915 79.1365 101.776C78.9338 101.627 78.5872 101.552 78.0965 101.552C77.6592 101.552 77.3178 101.611 77.0725 101.728C76.8272 101.845 76.6565 102.069 76.5605 102.4C76.4645 102.731 76.4165 103.211 76.4165 103.84C76.4165 104.501 76.4752 105.013 76.5925 105.376C76.7098 105.728 76.9072 105.973 77.1845 106.112C77.4725 106.251 77.8672 106.32 78.3685 106.32C78.7312 106.32 79.1792 106.309 79.7125 106.288C80.2565 106.256 80.8005 106.208 81.3445 106.144L81.5685 107.6C81.2592 107.749 80.9072 107.867 80.5125 107.952C80.1178 108.037 79.7125 108.096 79.2965 108.128C78.8805 108.171 78.4805 108.192 78.0965 108.192C77.0938 108.192 76.2832 108.048 75.6645 107.76C75.0565 107.461 74.6138 107.008 74.3365 106.4C74.0698 105.792 73.9365 105.013 73.9365 104.064C73.9365 103.029 74.0752 102.208 74.3525 101.6C74.6298 100.992 75.0672 100.555 75.6645 100.288C76.2618 100.021 77.0458 99.888 78.0165 99.888ZM95.6565 100.096L93.7045 107.376C93.6618 107.568 93.5658 107.723 93.4165 107.84C93.2672 107.947 93.0912 108 92.8885 108H91.0965C90.8832 108 90.6965 107.936 90.5365 107.808C90.3765 107.669 90.2805 107.493 90.2485 107.28L89.3845 102.832C89.3525 102.608 89.3258 102.389 89.3045 102.176C89.2832 101.952 89.2512 101.728 89.2085 101.504H89.0165C88.9845 101.728 88.9525 101.952 88.9205 102.176C88.8885 102.389 88.8565 102.608 88.8245 102.832L87.9605 107.28C87.9285 107.493 87.8325 107.669 87.6725 107.808C87.5125 107.936 87.3258 108 87.1125 108H85.3365C85.1338 108 84.9578 107.947 84.8085 107.84C84.6592 107.723 84.5632 107.568 84.5205 107.376L82.5685 100.096H84.9525L86.0405 105.216C86.0832 105.429 86.1205 105.648 86.1525 105.872C86.1845 106.085 86.2112 106.299 86.2325 106.512H86.4405C86.4725 106.299 86.5045 106.085 86.5365 105.872C86.5792 105.648 86.6165 105.429 86.6485 105.216L87.5125 100.816C87.5445 100.603 87.6352 100.432 87.7845 100.304C87.9338 100.165 88.1205 100.096 88.3445 100.096H89.8805C90.0938 100.096 90.2752 100.165 90.4245 100.304C90.5845 100.432 90.6805 100.608 90.7125 100.832L91.5605 105.216C91.5925 105.429 91.6298 105.643 91.6725 105.856C91.7152 106.069 91.7525 106.288 91.7845 106.512H91.9765C92.0192 106.288 92.0512 106.075 92.0725 105.872C92.1045 105.659 92.1418 105.44 92.1845 105.216L93.2725 100.096H95.6565ZM99.2823 100.096V108H96.9303V100.096H99.2823ZM98.6263 96.608C99.0956 96.608 99.3303 96.848 99.3303 97.328V98.176C99.3303 98.656 99.0956 98.896 98.6263 98.896H97.6023C97.1329 98.896 96.8983 98.656 96.8983 98.176V97.328C96.8983 96.848 97.1329 96.608 97.6023 96.608H98.6263ZM106.792 99.888C108.285 99.888 109.032 100.619 109.032 102.08V108H106.664V102.816C106.664 102.464 106.6 102.224 106.472 102.096C106.344 101.957 106.125 101.888 105.816 101.888C105.475 101.888 105.123 101.957 104.76 102.096C104.397 102.224 103.949 102.427 103.416 102.704L103.304 101.376C103.869 100.896 104.445 100.528 105.032 100.272C105.629 100.016 106.216 99.888 106.792 99.888ZM103.192 100.096L103.464 101.664L103.656 101.872V108H101.288V100.096H103.192ZM116.402 99.888C117.895 99.888 118.642 100.619 118.642 102.08V108H116.274V102.816C116.274 102.464 116.21 102.224 116.082 102.096C115.954 101.957 115.735 101.888 115.426 101.888C115.084 101.888 114.732 101.957 114.37 102.096C114.007 102.224 113.559 102.427 113.026 102.704L112.914 101.376C113.479 100.896 114.055 100.528 114.641 100.272C115.239 100.016 115.826 99.888 116.402 99.888ZM112.802 100.096L113.074 101.664L113.266 101.872V108H110.898V100.096H112.802ZM126.28 100.096V105.296C126.28 105.627 126.349 105.861 126.488 106C126.637 106.139 126.872 106.208 127.192 106.208C127.523 106.208 127.848 106.149 128.168 106.032C128.499 105.904 128.904 105.707 129.384 105.44L129.576 106.736C129 107.237 128.435 107.611 127.88 107.856C127.325 108.101 126.755 108.224 126.168 108.224C124.664 108.224 123.912 107.488 123.912 106.016V100.096H126.28ZM131.512 100.096V108H129.64L129.368 106.448L129.144 106.224V100.096H131.512ZM138.948 99.888C140.442 99.888 141.188 100.619 141.188 102.08V108H138.82V102.816C138.82 102.464 138.756 102.224 138.628 102.096C138.5 101.957 138.282 101.888 137.972 101.888C137.631 101.888 137.279 101.957 136.916 102.096C136.554 102.224 136.106 102.427 135.572 102.704L135.46 101.376C136.026 100.896 136.602 100.528 137.188 100.272C137.786 100.016 138.372 99.888 138.948 99.888ZM135.348 100.096L135.62 101.664L135.812 101.872V108H133.444V100.096H135.348ZM146.142 97.904V105.472C146.142 105.76 146.206 105.968 146.334 106.096C146.472 106.213 146.696 106.272 147.006 106.272H148.03L148.286 107.872C148.094 107.936 147.859 107.989 147.582 108.032C147.304 108.085 147.027 108.123 146.75 108.144C146.472 108.176 146.238 108.192 146.046 108.192C145.331 108.192 144.771 108 144.366 107.616C143.971 107.232 143.774 106.693 143.774 106L143.758 97.904H146.142ZM148.35 100.096V101.648H142.382V100.176L143.918 100.096H148.35ZM153.36 99.888C154.694 99.888 155.648 100.117 156.224 100.576C156.811 101.024 157.104 101.696 157.104 102.592C157.115 103.317 156.934 103.861 156.56 104.224C156.187 104.576 155.542 104.752 154.624 104.752H150.208V103.424H153.968C154.331 103.424 154.56 103.349 154.656 103.2C154.763 103.04 154.816 102.821 154.816 102.544C154.806 102.171 154.694 101.915 154.48 101.776C154.278 101.627 153.931 101.552 153.44 101.552C153.003 101.552 152.662 101.611 152.416 101.728C152.171 101.845 152 102.069 151.904 102.4C151.808 102.731 151.76 103.211 151.76 103.84C151.76 104.501 151.819 105.013 151.936 105.376C152.054 105.728 152.251 105.973 152.528 106.112C152.816 106.251 153.211 106.32 153.712 106.32C154.075 106.32 154.523 106.309 155.056 106.288C155.6 106.256 156.144 106.208 156.688 106.144L156.912 107.6C156.603 107.749 156.251 107.867 155.856 107.952C155.462 108.037 155.056 108.096 154.64 108.128C154.224 108.171 153.824 108.192 153.44 108.192C152.438 108.192 151.627 108.048 151.008 107.76C150.4 107.461 149.958 107.008 149.68 106.4C149.414 105.792 149.28 105.013 149.28 104.064C149.28 103.029 149.419 102.208 149.696 101.6C149.974 100.992 150.411 100.555 151.008 100.288C151.606 100.021 152.39 99.888 153.36 99.888ZM160.504 100.096L160.792 101.664L161.016 101.872V108H158.648V100.096H160.504ZM164.36 99.888L164.136 102.08H163.48C163.106 102.08 162.717 102.133 162.312 102.24C161.906 102.347 161.394 102.507 160.776 102.72L160.616 101.392C161.17 100.901 161.73 100.528 162.296 100.272C162.861 100.016 163.41 99.888 163.944 99.888H164.36ZM172.952 96.832C173.912 96.832 174.675 96.9173 175.24 97.088C175.816 97.248 176.232 97.536 176.488 97.952C176.744 98.368 176.872 98.9547 176.872 99.712C176.872 100.501 176.718 101.104 176.408 101.52C176.11 101.925 175.614 102.16 174.92 102.224V102.32C175.774 102.395 176.371 102.683 176.712 103.184C177.054 103.675 177.224 104.363 177.224 105.248C177.224 106.005 177.091 106.592 176.824 107.008C176.568 107.424 176.163 107.717 175.608 107.888C175.064 108.048 174.35 108.128 173.464 108.128C172.75 108.128 172.126 108.123 171.592 108.112C171.07 108.112 170.584 108.101 170.136 108.08C169.688 108.059 169.23 108.032 168.76 108L169 106.304C169.256 106.315 169.747 106.325 170.472 106.336C171.208 106.347 172.062 106.352 173.032 106.352C173.48 106.352 173.832 106.309 174.088 106.224C174.344 106.139 174.52 105.984 174.616 105.76C174.723 105.525 174.776 105.195 174.776 104.768C174.776 104.309 174.723 103.963 174.616 103.728C174.51 103.483 174.323 103.312 174.056 103.216C173.8 103.12 173.443 103.067 172.984 103.056H168.984V101.504H172.952C173.347 101.493 173.656 101.451 173.88 101.376C174.115 101.301 174.28 101.157 174.376 100.944C174.472 100.731 174.52 100.432 174.52 100.048C174.52 99.6533 174.467 99.3547 174.36 99.152C174.264 98.9387 174.094 98.7947 173.848 98.72C173.603 98.6453 173.262 98.608 172.824 98.608C172.227 98.608 171.699 98.608 171.24 98.608C170.782 98.608 170.371 98.6133 170.008 98.624C169.646 98.624 169.31 98.6347 169 98.656L168.76 96.96C169.187 96.9173 169.598 96.8907 169.992 96.88C170.398 96.8587 170.835 96.848 171.304 96.848C171.774 96.8373 172.323 96.832 172.952 96.832ZM171.16 96.96V108H168.76V96.96H171.16ZM182.595 99.888C183.928 99.888 184.883 100.117 185.459 100.576C186.045 101.024 186.339 101.696 186.339 102.592C186.349 103.317 186.168 103.861 185.795 104.224C185.421 104.576 184.776 104.752 183.859 104.752H179.443V103.424H183.203C183.565 103.424 183.795 103.349 183.891 103.2C183.997 103.04 184.051 102.821 184.051 102.544C184.04 102.171 183.928 101.915 183.715 101.776C183.512 101.627 183.165 101.552 182.675 101.552C182.237 101.552 181.896 101.611 181.651 101.728C181.405 101.845 181.235 102.069 181.139 102.4C181.043 102.731 180.995 103.211 180.995 103.84C180.995 104.501 181.053 105.013 181.171 105.376C181.288 105.728 181.485 105.973 181.763 106.112C182.051 106.251 182.445 106.32 182.947 106.32C183.309 106.32 183.757 106.309 184.291 106.288C184.835 106.256 185.379 106.208 185.923 106.144L186.147 107.6C185.837 107.749 185.485 107.867 185.091 107.952C184.696 108.037 184.291 108.096 183.875 108.128C183.459 108.171 183.059 108.192 182.675 108.192C181.672 108.192 180.861 108.048 180.243 107.76C179.635 107.461 179.192 107.008 178.915 106.4C178.648 105.792 178.515 105.013 178.515 104.064C178.515 103.029 178.653 102.208 178.931 101.6C179.208 100.992 179.645 100.555 180.243 100.288C180.84 100.021 181.624 99.888 182.595 99.888ZM189.738 100.096L190.026 101.664L190.25 101.872V108H187.882V100.096H189.738ZM193.594 99.888L193.37 102.08H192.714C192.341 102.08 191.951 102.133 191.546 102.24C191.141 102.347 190.629 102.507 190.01 102.72L189.85 101.392C190.405 100.901 190.965 100.528 191.53 100.272C192.095 100.016 192.645 99.888 193.178 99.888H193.594ZM197.03 100.096V105.296C197.03 105.627 197.099 105.861 197.238 106C197.387 106.139 197.622 106.208 197.942 106.208C198.273 106.208 198.598 106.149 198.918 106.032C199.249 105.904 199.654 105.707 200.134 105.44L200.326 106.736C199.75 107.237 199.185 107.611 198.63 107.856C198.075 108.101 197.505 108.224 196.918 108.224C195.414 108.224 194.662 107.488 194.662 106.016V100.096H197.03ZM202.262 100.096V108H200.39L200.118 106.448L199.894 106.224V100.096H202.262ZM200.326 96.64C200.667 96.64 200.838 96.8107 200.838 97.152V98.096C200.838 98.4373 200.667 98.608 200.326 98.608H199.542C199.211 98.608 199.046 98.4373 199.046 98.096V97.152C199.046 96.8107 199.211 96.64 199.542 96.64H200.326ZM197.398 96.64C197.729 96.64 197.894 96.8107 197.894 97.152V98.096C197.894 98.4373 197.729 98.608 197.398 98.608H196.614C196.283 98.608 196.118 98.4373 196.118 98.096V97.152C196.118 96.8107 196.283 96.64 196.614 96.64H197.398ZM207.874 99.888C208.162 99.888 208.477 99.904 208.818 99.936C209.16 99.9573 209.501 100.005 209.842 100.08C210.194 100.144 210.514 100.24 210.802 100.368L210.546 101.856C210.12 101.845 209.709 101.835 209.314 101.824C208.93 101.813 208.584 101.808 208.274 101.808C207.794 101.808 207.416 101.872 207.138 102C206.861 102.128 206.658 102.357 206.53 102.688C206.413 103.008 206.354 103.456 206.354 104.032C206.354 104.619 206.413 105.077 206.53 105.408C206.658 105.739 206.861 105.968 207.138 106.096C207.416 106.224 207.794 106.288 208.274 106.288C208.445 106.288 208.664 106.283 208.93 106.272C209.197 106.261 209.485 106.251 209.794 106.24C210.104 106.219 210.408 106.187 210.706 106.144L210.93 107.648C210.504 107.84 210.018 107.979 209.474 108.064C208.93 108.149 208.392 108.192 207.858 108.192C206.877 108.192 206.093 108.059 205.506 107.792C204.93 107.515 204.514 107.072 204.258 106.464C204.002 105.856 203.874 105.045 203.874 104.032C203.874 103.019 204.002 102.208 204.258 101.6C204.525 100.992 204.952 100.555 205.538 100.288C206.125 100.021 206.904 99.888 207.874 99.888ZM219.983 100.096L217.919 102.848C217.823 102.997 217.7 103.141 217.551 103.28C217.402 103.419 217.279 103.52 217.183 103.584V103.648C217.279 103.701 217.402 103.813 217.551 103.984C217.7 104.155 217.823 104.325 217.919 104.496L220.255 108H217.615L214.911 103.552L217.343 100.096H219.983ZM214.703 96.8L214.719 101.424C214.719 101.797 214.698 102.16 214.655 102.512C214.612 102.864 214.548 103.211 214.463 103.552C214.538 103.883 214.596 104.224 214.639 104.576C214.682 104.917 214.703 105.237 214.703 105.536V108H212.335V96.8H214.703ZM215.807 102.88V104.32H213.967V102.88H215.807ZM224.281 99.888C224.665 99.888 225.081 99.904 225.529 99.936C225.977 99.9573 226.414 99.9893 226.841 100.032C227.267 100.075 227.646 100.128 227.977 100.192L227.817 101.664C227.305 101.653 226.787 101.648 226.265 101.648C225.753 101.637 225.251 101.632 224.761 101.632C224.345 101.621 224.025 101.627 223.801 101.648C223.577 101.669 223.417 101.723 223.321 101.808C223.235 101.883 223.193 102.021 223.193 102.224C223.193 102.459 223.273 102.619 223.433 102.704C223.593 102.779 223.859 102.864 224.233 102.96L226.297 103.456C226.958 103.627 227.449 103.883 227.769 104.224C228.089 104.555 228.249 105.056 228.249 105.728C228.249 106.389 228.126 106.896 227.881 107.248C227.635 107.6 227.246 107.845 226.713 107.984C226.179 108.112 225.491 108.176 224.649 108.176C224.318 108.176 223.827 108.16 223.177 108.128C222.526 108.096 221.811 108.016 221.033 107.888L221.193 106.416C221.385 106.427 221.63 106.437 221.929 106.448C222.227 106.448 222.553 106.448 222.905 106.448C223.257 106.448 223.609 106.448 223.961 106.448C224.505 106.448 224.921 106.437 225.209 106.416C225.497 106.384 225.694 106.32 225.801 106.224C225.907 106.128 225.961 105.984 225.961 105.792C225.961 105.557 225.87 105.397 225.689 105.312C225.507 105.227 225.219 105.136 224.825 105.04L222.825 104.544C222.323 104.405 221.934 104.229 221.657 104.016C221.379 103.803 221.182 103.541 221.065 103.232C220.958 102.923 220.905 102.555 220.905 102.128C220.905 101.584 221.011 101.152 221.225 100.832C221.449 100.501 221.806 100.261 222.297 100.112C222.798 99.9627 223.459 99.888 224.281 99.888ZM232.189 100.096V108H229.837V100.096H232.189ZM231.533 96.608C232.002 96.608 232.237 96.848 232.237 97.328V98.176C232.237 98.656 232.002 98.896 231.533 98.896H230.509C230.039 98.896 229.805 98.656 229.805 98.176V97.328C229.805 96.848 230.039 96.608 230.509 96.608H231.533ZM237.874 99.888C238.162 99.888 238.477 99.904 238.818 99.936C239.16 99.9573 239.501 100.005 239.842 100.08C240.194 100.144 240.514 100.24 240.802 100.368L240.546 101.856C240.12 101.845 239.709 101.835 239.314 101.824C238.93 101.813 238.584 101.808 238.274 101.808C237.794 101.808 237.416 101.872 237.138 102C236.861 102.128 236.658 102.357 236.53 102.688C236.413 103.008 236.354 103.456 236.354 104.032C236.354 104.619 236.413 105.077 236.53 105.408C236.658 105.739 236.861 105.968 237.138 106.096C237.416 106.224 237.794 106.288 238.274 106.288C238.445 106.288 238.664 106.283 238.93 106.272C239.197 106.261 239.485 106.251 239.794 106.24C240.104 106.219 240.408 106.187 240.706 106.144L240.93 107.648C240.504 107.84 240.018 107.979 239.474 108.064C238.93 108.149 238.392 108.192 237.858 108.192C236.877 108.192 236.093 108.059 235.506 107.792C234.93 107.515 234.514 107.072 234.258 106.464C234.002 105.856 233.874 105.045 233.874 104.032C233.874 103.019 234.002 102.208 234.258 101.6C234.525 100.992 234.952 100.555 235.538 100.288C236.125 100.021 236.904 99.888 237.874 99.888ZM247.839 99.888C249.332 99.888 250.079 100.619 250.079 102.08V108H247.695V102.816C247.695 102.464 247.631 102.224 247.503 102.096C247.386 101.957 247.172 101.888 246.863 101.888C246.522 101.888 246.17 101.952 245.807 102.08C245.444 102.208 244.996 102.416 244.463 102.704L244.255 101.472C244.842 100.96 245.439 100.571 246.047 100.304C246.655 100.027 247.252 99.888 247.839 99.888ZM244.703 96.8L244.719 99.536C244.719 99.952 244.692 100.347 244.639 100.72C244.596 101.093 244.543 101.408 244.479 101.664L244.703 101.872V108H242.335V96.8H244.703ZM255.032 97.904V105.472C255.032 105.76 255.096 105.968 255.224 106.096C255.363 106.213 255.587 106.272 255.896 106.272H256.92L257.176 107.872C256.984 107.936 256.75 107.989 256.472 108.032C256.195 108.085 255.918 108.123 255.64 108.144C255.363 108.176 255.128 108.192 254.936 108.192C254.222 108.192 253.662 108 253.256 107.616C252.862 107.232 252.664 106.693 252.664 106L252.648 97.904H255.032ZM257.24 100.096V101.648H251.272V100.176L252.808 100.096H257.24ZM260.923 100.096V108H258.571V100.096H260.923ZM260.267 96.608C260.736 96.608 260.971 96.848 260.971 97.328V98.176C260.971 98.656 260.736 98.896 260.267 98.896H259.243C258.774 98.896 258.539 98.656 258.539 98.176V97.328C258.539 96.848 258.774 96.608 259.243 96.608H260.267ZM266.449 99.888C267.366 99.888 268.091 99.9733 268.625 100.144C269.169 100.315 269.558 100.581 269.793 100.944C270.038 101.307 270.161 101.792 270.161 102.4C270.161 102.987 270.043 103.467 269.809 103.84C269.574 104.203 269.179 104.469 268.625 104.64C268.081 104.811 267.35 104.896 266.433 104.896C265.515 104.896 264.779 104.811 264.225 104.64C263.681 104.469 263.286 104.203 263.041 103.84C262.806 103.477 262.689 102.997 262.689 102.4C262.689 101.803 262.806 101.323 263.041 100.96C263.286 100.587 263.686 100.315 264.241 100.144C264.795 99.9733 265.531 99.888 266.449 99.888ZM266.433 101.344C265.846 101.344 265.441 101.424 265.217 101.584C264.993 101.733 264.881 102.005 264.881 102.4C264.881 102.795 264.993 103.072 265.217 103.232C265.441 103.392 265.846 103.472 266.433 103.472C267.019 103.472 267.419 103.392 267.633 103.232C267.846 103.072 267.953 102.795 267.953 102.4C267.953 102.005 267.846 101.733 267.633 101.584C267.419 101.424 267.019 101.344 266.433 101.344ZM271.073 100.096L270.945 101.104L268.833 101.376L268.257 100.096H271.073ZM264.049 104.416L265.233 104.624C265.083 104.709 264.977 104.843 264.913 105.024C264.859 105.205 264.875 105.376 264.961 105.536C265.046 105.696 265.233 105.792 265.521 105.824L268.433 106.16C269.265 106.245 269.851 106.48 270.193 106.864C270.534 107.237 270.705 107.787 270.705 108.512C270.705 109.195 270.566 109.717 270.289 110.08C270.011 110.453 269.569 110.709 268.961 110.848C268.353 110.987 267.542 111.056 266.529 111.056C265.697 111.056 265.009 111.013 264.465 110.928C263.931 110.853 263.505 110.725 263.185 110.544C262.875 110.363 262.657 110.123 262.529 109.824C262.411 109.536 262.353 109.173 262.353 108.736C262.353 108.405 262.411 108.123 262.529 107.888C262.646 107.643 262.843 107.424 263.121 107.232C263.409 107.04 263.809 106.864 264.321 106.704L265.489 106.288L266.337 106.624L265.697 107.04C265.43 107.232 265.211 107.397 265.041 107.536C264.881 107.664 264.763 107.792 264.689 107.92C264.625 108.048 264.593 108.219 264.593 108.432C264.593 108.677 264.646 108.864 264.753 108.992C264.859 109.131 265.051 109.221 265.329 109.264C265.617 109.317 266.006 109.344 266.497 109.344C267.009 109.344 267.409 109.317 267.697 109.264C267.985 109.221 268.182 109.136 268.289 109.008C268.406 108.88 268.465 108.699 268.465 108.464C268.465 108.261 268.422 108.112 268.337 108.016C268.262 107.92 268.129 107.851 267.937 107.808C267.755 107.755 267.499 107.707 267.169 107.664L264.689 107.392C264.273 107.349 263.947 107.237 263.713 107.056C263.478 106.875 263.313 106.656 263.217 106.4C263.131 106.133 263.11 105.867 263.153 105.6C263.195 105.333 263.291 105.093 263.441 104.88C263.601 104.667 263.803 104.512 264.049 104.416ZM274.546 100.096V105.296C274.546 105.627 274.615 105.861 274.754 106C274.903 106.139 275.138 106.208 275.458 106.208C275.788 106.208 276.114 106.149 276.434 106.032C276.764 105.904 277.17 105.707 277.65 105.44L277.842 106.736C277.266 107.237 276.7 107.611 276.146 107.856C275.591 108.101 275.02 108.224 274.434 108.224C272.93 108.224 272.178 107.488 272.178 106.016V100.096H274.546ZM279.778 100.096V108H277.906L277.634 106.448L277.41 106.224V100.096H279.778ZM287.214 99.888C288.707 99.888 289.454 100.619 289.454 102.08V108H287.086V102.816C287.086 102.464 287.022 102.224 286.894 102.096C286.766 101.957 286.547 101.888 286.238 101.888C285.897 101.888 285.545 101.957 285.182 102.096C284.819 102.224 284.371 102.427 283.838 102.704L283.726 101.376C284.291 100.896 284.867 100.528 285.454 100.272C286.051 100.016 286.638 99.888 287.214 99.888ZM283.614 100.096L283.886 101.664L284.078 101.872V108H281.71V100.096H283.614ZM294.839 99.888C295.757 99.888 296.482 99.9733 297.015 100.144C297.559 100.315 297.949 100.581 298.183 100.944C298.429 101.307 298.551 101.792 298.551 102.4C298.551 102.987 298.434 103.467 298.199 103.84C297.965 104.203 297.57 104.469 297.015 104.64C296.471 104.811 295.741 104.896 294.823 104.896C293.906 104.896 293.17 104.811 292.615 104.64C292.071 104.469 291.677 104.203 291.431 103.84C291.197 103.477 291.079 102.997 291.079 102.4C291.079 101.803 291.197 101.323 291.431 100.96C291.677 100.587 292.077 100.315 292.631 100.144C293.186 99.9733 293.922 99.888 294.839 99.888ZM294.823 101.344C294.237 101.344 293.831 101.424 293.607 101.584C293.383 101.733 293.271 102.005 293.271 102.4C293.271 102.795 293.383 103.072 293.607 103.232C293.831 103.392 294.237 103.472 294.823 103.472C295.41 103.472 295.81 103.392 296.023 103.232C296.237 103.072 296.343 102.795 296.343 102.4C296.343 102.005 296.237 101.733 296.023 101.584C295.81 101.424 295.41 101.344 294.823 101.344ZM299.463 100.096L299.335 101.104L297.223 101.376L296.647 100.096H299.463ZM292.439 104.416L293.623 104.624C293.474 104.709 293.367 104.843 293.303 105.024C293.25 105.205 293.266 105.376 293.351 105.536C293.437 105.696 293.623 105.792 293.911 105.824L296.823 106.16C297.655 106.245 298.242 106.48 298.583 106.864C298.925 107.237 299.095 107.787 299.095 108.512C299.095 109.195 298.957 109.717 298.679 110.08C298.402 110.453 297.959 110.709 297.351 110.848C296.743 110.987 295.933 111.056 294.919 111.056C294.087 111.056 293.399 111.013 292.855 110.928C292.322 110.853 291.895 110.725 291.575 110.544C291.266 110.363 291.047 110.123 290.919 109.824C290.802 109.536 290.743 109.173 290.743 108.736C290.743 108.405 290.802 108.123 290.919 107.888C291.037 107.643 291.234 107.424 291.511 107.232C291.799 107.04 292.199 106.864 292.711 106.704L293.879 106.288L294.727 106.624L294.087 107.04C293.821 107.232 293.602 107.397 293.431 107.536C293.271 107.664 293.154 107.792 293.079 107.92C293.015 108.048 292.983 108.219 292.983 108.432C292.983 108.677 293.037 108.864 293.143 108.992C293.25 109.131 293.442 109.221 293.719 109.264C294.007 109.317 294.397 109.344 294.887 109.344C295.399 109.344 295.799 109.317 296.087 109.264C296.375 109.221 296.573 109.136 296.679 109.008C296.797 108.88 296.855 108.699 296.855 108.464C296.855 108.261 296.813 108.112 296.727 108.016C296.653 107.92 296.519 107.851 296.327 107.808C296.146 107.755 295.89 107.707 295.559 107.664L293.079 107.392C292.663 107.349 292.338 107.237 292.103 107.056C291.869 106.875 291.703 106.656 291.607 106.4C291.522 106.133 291.501 105.867 291.543 105.6C291.586 105.333 291.682 105.093 291.831 104.88C291.991 104.667 292.194 104.512 292.439 104.416ZM309.573 99.888C311.067 99.888 311.813 100.619 311.813 102.08V108H309.445V102.816C309.445 102.464 309.381 102.224 309.253 102.096C309.125 101.957 308.907 101.888 308.597 101.888C308.256 101.888 307.904 101.957 307.541 102.096C307.179 102.224 306.731 102.427 306.197 102.704L306.085 101.376C306.651 100.896 307.227 100.528 307.813 100.272C308.411 100.016 308.997 99.888 309.573 99.888ZM305.973 100.096L306.245 101.664L306.437 101.872V108H304.069V100.096H305.973ZM315.999 100.096V105.296C315.999 105.627 316.068 105.861 316.207 106C316.356 106.139 316.591 106.208 316.911 106.208C317.241 106.208 317.567 106.149 317.887 106.032C318.217 105.904 318.623 105.707 319.103 105.44L319.295 106.736C318.719 107.237 318.153 107.611 317.599 107.856C317.044 108.101 316.473 108.224 315.887 108.224C314.383 108.224 313.631 107.488 313.631 106.016V100.096H315.999ZM321.231 100.096V108H319.359L319.087 106.448L318.863 106.224V100.096H321.231ZM325.019 100.096L325.307 101.664L325.531 101.872V108H323.163V100.096H325.019ZM328.875 99.888L328.651 102.08H327.995C327.622 102.08 327.232 102.133 326.827 102.24C326.422 102.347 325.91 102.507 325.291 102.72L325.131 101.392C325.686 100.901 326.246 100.528 326.811 100.272C327.376 100.016 327.926 99.888 328.459 99.888H328.875ZM336.652 99.888C337.569 99.888 338.295 99.9733 338.828 100.144C339.372 100.315 339.761 100.581 339.996 100.944C340.241 101.307 340.364 101.792 340.364 102.4C340.364 102.987 340.247 103.467 340.012 103.84C339.777 104.203 339.383 104.469 338.828 104.64C338.284 104.811 337.553 104.896 336.636 104.896C335.719 104.896 334.983 104.811 334.428 104.64C333.884 104.469 333.489 104.203 333.244 103.84C333.009 103.477 332.892 102.997 332.892 102.4C332.892 101.803 333.009 101.323 333.244 100.96C333.489 100.587 333.889 100.315 334.444 100.144C334.999 99.9733 335.735 99.888 336.652 99.888ZM336.636 101.344C336.049 101.344 335.644 101.424 335.42 101.584C335.196 101.733 335.084 102.005 335.084 102.4C335.084 102.795 335.196 103.072 335.42 103.232C335.644 103.392 336.049 103.472 336.636 103.472C337.223 103.472 337.623 103.392 337.836 103.232C338.049 103.072 338.156 102.795 338.156 102.4C338.156 102.005 338.049 101.733 337.836 101.584C337.623 101.424 337.223 101.344 336.636 101.344ZM341.276 100.096L341.148 101.104L339.036 101.376L338.46 100.096H341.276ZM334.252 104.416L335.436 104.624C335.287 104.709 335.18 104.843 335.116 105.024C335.063 105.205 335.079 105.376 335.164 105.536C335.249 105.696 335.436 105.792 335.724 105.824L338.636 106.16C339.468 106.245 340.055 106.48 340.396 106.864C340.737 107.237 340.908 107.787 340.908 108.512C340.908 109.195 340.769 109.717 340.492 110.08C340.215 110.453 339.772 110.709 339.164 110.848C338.556 110.987 337.745 111.056 336.732 111.056C335.9 111.056 335.212 111.013 334.668 110.928C334.135 110.853 333.708 110.725 333.388 110.544C333.079 110.363 332.86 110.123 332.732 109.824C332.615 109.536 332.556 109.173 332.556 108.736C332.556 108.405 332.615 108.123 332.732 107.888C332.849 107.643 333.047 107.424 333.324 107.232C333.612 107.04 334.012 106.864 334.524 106.704L335.692 106.288L336.54 106.624L335.9 107.04C335.633 107.232 335.415 107.397 335.244 107.536C335.084 107.664 334.967 107.792 334.892 107.92C334.828 108.048 334.796 108.219 334.796 108.432C334.796 108.677 334.849 108.864 334.956 108.992C335.063 109.131 335.255 109.221 335.532 109.264C335.82 109.317 336.209 109.344 336.7 109.344C337.212 109.344 337.612 109.317 337.9 109.264C338.188 109.221 338.385 109.136 338.492 109.008C338.609 108.88 338.668 108.699 338.668 108.464C338.668 108.261 338.625 108.112 338.54 108.016C338.465 107.92 338.332 107.851 338.14 107.808C337.959 107.755 337.703 107.707 337.372 107.664L334.892 107.392C334.476 107.349 334.151 107.237 333.916 107.056C333.681 106.875 333.516 106.656 333.42 106.4C333.335 106.133 333.313 105.867 333.356 105.6C333.399 105.333 333.495 105.093 333.644 104.88C333.804 104.667 334.007 104.512 334.252 104.416ZM346.079 99.888C347.412 99.888 348.367 100.117 348.943 100.576C349.53 101.024 349.823 101.696 349.823 102.592C349.834 103.317 349.652 103.861 349.279 104.224C348.906 104.576 348.26 104.752 347.343 104.752H342.927V103.424H346.687C347.05 103.424 347.279 103.349 347.375 103.2C347.482 103.04 347.535 102.821 347.535 102.544C347.524 102.171 347.412 101.915 347.199 101.776C346.996 101.627 346.65 101.552 346.159 101.552C345.722 101.552 345.38 101.611 345.135 101.728C344.89 101.845 344.719 102.069 344.623 102.4C344.527 102.731 344.479 103.211 344.479 103.84C344.479 104.501 344.538 105.013 344.655 105.376C344.772 105.728 344.97 105.973 345.247 106.112C345.535 106.251 345.93 106.32 346.431 106.32C346.794 106.32 347.242 106.309 347.775 106.288C348.319 106.256 348.863 106.208 349.407 106.144L349.631 107.6C349.322 107.749 348.97 107.867 348.575 107.952C348.18 108.037 347.775 108.096 347.359 108.128C346.943 108.171 346.543 108.192 346.159 108.192C345.156 108.192 344.346 108.048 343.727 107.76C343.119 107.461 342.676 107.008 342.399 106.4C342.132 105.792 341.999 105.013 341.999 104.064C341.999 103.029 342.138 102.208 342.415 101.6C342.692 100.992 343.13 100.555 343.727 100.288C344.324 100.021 345.108 99.888 346.079 99.888ZM354.374 99.888C354.758 99.888 355.174 99.904 355.622 99.936C356.07 99.9573 356.508 99.9893 356.934 100.032C357.361 100.075 357.74 100.128 358.07 100.192L357.91 101.664C357.398 101.653 356.881 101.648 356.358 101.648C355.846 101.637 355.345 101.632 354.854 101.632C354.438 101.621 354.118 101.627 353.894 101.648C353.67 101.669 353.51 101.723 353.414 101.808C353.329 101.883 353.286 102.021 353.286 102.224C353.286 102.459 353.366 102.619 353.526 102.704C353.686 102.779 353.953 102.864 354.326 102.96L356.39 103.456C357.052 103.627 357.542 103.883 357.862 104.224C358.182 104.555 358.342 105.056 358.342 105.728C358.342 106.389 358.22 106.896 357.974 107.248C357.729 107.6 357.34 107.845 356.806 107.984C356.273 108.112 355.585 108.176 354.742 108.176C354.412 108.176 353.921 108.16 353.27 108.128C352.62 108.096 351.905 108.016 351.126 107.888L351.286 106.416C351.478 106.427 351.724 106.437 352.022 106.448C352.321 106.448 352.646 106.448 352.998 106.448C353.35 106.448 353.702 106.448 354.054 106.448C354.598 106.448 355.014 106.437 355.302 106.416C355.59 106.384 355.788 106.32 355.894 106.224C356.001 106.128 356.054 105.984 356.054 105.792C356.054 105.557 355.964 105.397 355.782 105.312C355.601 105.227 355.313 105.136 354.918 105.04L352.918 104.544C352.417 104.405 352.028 104.229 351.75 104.016C351.473 103.803 351.276 103.541 351.158 103.232C351.052 102.923 350.998 102.555 350.998 102.128C350.998 101.584 351.105 101.152 351.318 100.832C351.542 100.501 351.9 100.261 352.39 100.112C352.892 99.9627 353.553 99.888 354.374 99.888ZM363.61 99.888C364.944 99.888 365.898 100.117 366.474 100.576C367.061 101.024 367.354 101.696 367.354 102.592C367.365 103.317 367.184 103.861 366.81 104.224C366.437 104.576 365.792 104.752 364.874 104.752H360.458V103.424H364.218C364.581 103.424 364.81 103.349 364.906 103.2C365.013 103.04 365.066 102.821 365.066 102.544C365.056 102.171 364.944 101.915 364.73 101.776C364.528 101.627 364.181 101.552 363.69 101.552C363.253 101.552 362.912 101.611 362.666 101.728C362.421 101.845 362.25 102.069 362.154 102.4C362.058 102.731 362.01 103.211 362.01 103.84C362.01 104.501 362.069 105.013 362.186 105.376C362.304 105.728 362.501 105.973 362.778 106.112C363.066 106.251 363.461 106.32 363.962 106.32C364.325 106.32 364.773 106.309 365.306 106.288C365.85 106.256 366.394 106.208 366.938 106.144L367.162 107.6C366.853 107.749 366.501 107.867 366.106 107.952C365.712 108.037 365.306 108.096 364.89 108.128C364.474 108.171 364.074 108.192 363.69 108.192C362.688 108.192 361.877 108.048 361.258 107.76C360.65 107.461 360.208 107.008 359.93 106.4C359.664 105.792 359.53 105.013 359.53 104.064C359.53 103.029 359.669 102.208 359.946 101.6C360.224 100.992 360.661 100.555 361.258 100.288C361.856 100.021 362.64 99.888 363.61 99.888ZM371.282 96.8L371.266 105.472C371.266 105.739 371.346 105.941 371.506 106.08C371.666 106.208 371.9 106.272 372.21 106.272H372.85L373.122 107.872C372.994 107.936 372.812 107.989 372.578 108.032C372.343 108.085 372.103 108.123 371.858 108.144C371.612 108.176 371.404 108.192 371.234 108.192C370.519 108.192 369.954 108.005 369.538 107.632C369.122 107.259 368.914 106.736 368.914 106.064V96.8H371.282ZM376.532 96.8L376.516 105.472C376.516 105.739 376.596 105.941 376.756 106.08C376.916 106.208 377.15 106.272 377.46 106.272H378.1L378.372 107.872C378.244 107.936 378.062 107.989 377.828 108.032C377.593 108.085 377.353 108.123 377.108 108.144C376.862 108.176 376.654 108.192 376.484 108.192C375.769 108.192 375.204 108.005 374.788 107.632C374.372 107.259 374.164 106.736 374.164 106.064V96.8H376.532ZM382.406 99.888C382.79 99.888 383.206 99.904 383.654 99.936C384.102 99.9573 384.539 99.9893 384.966 100.032C385.392 100.075 385.771 100.128 386.102 100.192L385.942 101.664C385.43 101.653 384.912 101.648 384.39 101.648C383.878 101.637 383.376 101.632 382.886 101.632C382.47 101.621 382.15 101.627 381.926 101.648C381.702 101.669 381.542 101.723 381.446 101.808C381.36 101.883 381.318 102.021 381.318 102.224C381.318 102.459 381.398 102.619 381.558 102.704C381.718 102.779 381.984 102.864 382.358 102.96L384.422 103.456C385.083 103.627 385.574 103.883 385.894 104.224C386.214 104.555 386.374 105.056 386.374 105.728C386.374 106.389 386.251 106.896 386.006 107.248C385.76 107.6 385.371 107.845 384.838 107.984C384.304 108.112 383.616 108.176 382.774 108.176C382.443 108.176 381.952 108.16 381.302 108.128C380.651 108.096 379.936 108.016 379.158 107.888L379.318 106.416C379.51 106.427 379.755 106.437 380.054 106.448C380.352 106.448 380.678 106.448 381.03 106.448C381.382 106.448 381.734 106.448 382.086 106.448C382.63 106.448 383.046 106.437 383.334 106.416C383.622 106.384 383.819 106.32 383.926 106.224C384.032 106.128 384.086 105.984 384.086 105.792C384.086 105.557 383.995 105.397 383.814 105.312C383.632 105.227 383.344 105.136 382.95 105.04L380.95 104.544C380.448 104.405 380.059 104.229 379.782 104.016C379.504 103.803 379.307 103.541 379.19 103.232C379.083 102.923 379.03 102.555 379.03 102.128C379.03 101.584 379.136 101.152 379.35 100.832C379.574 100.501 379.931 100.261 380.422 100.112C380.923 99.9627 381.584 99.888 382.406 99.888ZM391.578 99.888C391.866 99.888 392.18 99.904 392.522 99.936C392.863 99.9573 393.204 100.005 393.546 100.08C393.898 100.144 394.218 100.24 394.506 100.368L394.25 101.856C393.823 101.845 393.412 101.835 393.018 101.824C392.634 101.813 392.287 101.808 391.978 101.808C391.498 101.808 391.119 101.872 390.842 102C390.564 102.128 390.362 102.357 390.234 102.688C390.116 103.008 390.058 103.456 390.058 104.032C390.058 104.619 390.116 105.077 390.234 105.408C390.362 105.739 390.564 105.968 390.842 106.096C391.119 106.224 391.498 106.288 391.978 106.288C392.148 106.288 392.367 106.283 392.634 106.272C392.9 106.261 393.188 106.251 393.498 106.24C393.807 106.219 394.111 106.187 394.41 106.144L394.634 107.648C394.207 107.84 393.722 107.979 393.178 108.064C392.634 108.149 392.095 108.192 391.562 108.192C390.58 108.192 389.796 108.059 389.21 107.792C388.634 107.515 388.218 107.072 387.962 106.464C387.706 105.856 387.578 105.045 387.578 104.032C387.578 103.019 387.706 102.208 387.962 101.6C388.228 100.992 388.655 100.555 389.242 100.288C389.828 100.021 390.607 99.888 391.578 99.888ZM401.542 99.888C403.035 99.888 403.782 100.619 403.782 102.08V108H401.398V102.816C401.398 102.464 401.334 102.224 401.206 102.096C401.089 101.957 400.875 101.888 400.566 101.888C400.225 101.888 399.873 101.952 399.51 102.08C399.147 102.208 398.699 102.416 398.166 102.704L397.958 101.472C398.545 100.96 399.142 100.571 399.75 100.304C400.358 100.027 400.955 99.888 401.542 99.888ZM398.406 96.8L398.422 99.536C398.422 99.952 398.395 100.347 398.342 100.72C398.299 101.093 398.246 101.408 398.182 101.664L398.406 101.872V108H396.038V96.8H398.406ZM409.824 99.888C410.485 99.888 411.045 99.9787 411.504 100.16C411.962 100.331 412.309 100.629 412.544 101.056C412.789 101.472 412.911 102.048 412.911 102.784V108H411.024L410.688 106.288L410.528 106.048V102.768C410.528 102.395 410.437 102.123 410.256 101.952C410.085 101.781 409.754 101.696 409.264 101.696C408.858 101.696 408.352 101.712 407.744 101.744C407.136 101.765 406.512 101.797 405.872 101.84L405.648 100.272C406.032 100.197 406.474 100.133 406.976 100.08C407.477 100.027 407.978 99.984 408.48 99.952C408.981 99.9093 409.429 99.888 409.824 99.888ZM411.936 103.136L411.92 104.464L408.4 104.48C408.112 104.48 407.904 104.549 407.776 104.688C407.658 104.827 407.6 105.013 407.6 105.248V105.632C407.6 105.899 407.674 106.107 407.824 106.256C407.973 106.395 408.213 106.464 408.544 106.464C408.821 106.464 409.12 106.405 409.44 106.288C409.77 106.171 410.096 106.005 410.416 105.792C410.736 105.579 411.018 105.328 411.264 105.04V106.064C411.168 106.224 411.024 106.427 410.832 106.672C410.65 106.907 410.416 107.141 410.128 107.376C409.84 107.6 409.504 107.792 409.12 107.952C408.736 108.112 408.298 108.192 407.808 108.192C407.328 108.192 406.896 108.107 406.512 107.936C406.128 107.765 405.824 107.515 405.6 107.184C405.376 106.853 405.264 106.443 405.264 105.952V105.136C405.264 104.507 405.477 104.016 405.904 103.664C406.33 103.312 406.917 103.136 407.664 103.136H411.936ZM418.085 96.464C418.277 96.464 418.527 96.4693 418.837 96.48C419.157 96.4907 419.477 96.512 419.797 96.544C420.127 96.5653 420.41 96.5973 420.645 96.64L420.437 98.16H418.933C418.527 98.16 418.245 98.24 418.085 98.4C417.925 98.56 417.845 98.8373 417.845 99.232V108H415.477V98.928C415.477 98.4267 415.557 97.9947 415.717 97.632C415.887 97.2693 416.165 96.9867 416.549 96.784C416.933 96.5707 417.445 96.464 418.085 96.464ZM420.053 100.096V101.648H414.101V100.176L415.525 100.096H420.053ZM424.329 97.904V105.472C424.329 105.76 424.393 105.968 424.521 106.096C424.66 106.213 424.884 106.272 425.193 106.272H426.217L426.473 107.872C426.281 107.936 426.047 107.989 425.769 108.032C425.492 108.085 425.215 108.123 424.937 108.144C424.66 108.176 424.425 108.192 424.233 108.192C423.519 108.192 422.959 108 422.553 107.616C422.159 107.232 421.961 106.693 421.961 106L421.945 97.904H424.329ZM426.537 100.096V101.648H420.569V100.176L422.105 100.096H426.537ZM430.812 99.888C431.196 99.888 431.612 99.904 432.06 99.936C432.508 99.9573 432.945 99.9893 433.372 100.032C433.798 100.075 434.177 100.128 434.508 100.192L434.348 101.664C433.836 101.653 433.318 101.648 432.796 101.648C432.284 101.637 431.782 101.632 431.292 101.632C430.876 101.621 430.556 101.627 430.332 101.648C430.108 101.669 429.948 101.723 429.852 101.808C429.766 101.883 429.724 102.021 429.724 102.224C429.724 102.459 429.804 102.619 429.964 102.704C430.124 102.779 430.39 102.864 430.764 102.96L432.828 103.456C433.489 103.627 433.98 103.883 434.3 104.224C434.62 104.555 434.78 105.056 434.78 105.728C434.78 106.389 434.657 106.896 434.412 107.248C434.166 107.6 433.777 107.845 433.244 107.984C432.71 108.112 432.022 108.176 431.18 108.176C430.849 108.176 430.358 108.16 429.708 108.128C429.057 108.096 428.342 108.016 427.564 107.888L427.724 106.416C427.916 106.427 428.161 106.437 428.46 106.448C428.758 106.448 429.084 106.448 429.436 106.448C429.788 106.448 430.14 106.448 430.492 106.448C431.036 106.448 431.452 106.437 431.74 106.416C432.028 106.384 432.225 106.32 432.332 106.224C432.438 106.128 432.492 105.984 432.492 105.792C432.492 105.557 432.401 105.397 432.22 105.312C432.038 105.227 431.75 105.136 431.356 105.04L429.356 104.544C428.854 104.405 428.465 104.229 428.188 104.016C427.91 103.803 427.713 103.541 427.596 103.232C427.489 102.923 427.436 102.555 427.436 102.128C427.436 101.584 427.542 101.152 427.756 100.832C427.98 100.501 428.337 100.261 428.828 100.112C429.329 99.9627 429.99 99.888 430.812 99.888ZM438.16 100.096L438.448 101.664L438.672 101.872V108H436.304V100.096H438.16ZM442.016 99.888L441.792 102.08H441.136C440.762 102.08 440.373 102.133 439.968 102.24C439.562 102.347 439.05 102.507 438.432 102.72L438.272 101.392C438.826 100.901 439.386 100.528 439.952 100.272C440.517 100.016 441.066 99.888 441.6 99.888H442.016ZM446.751 99.888C448.084 99.888 449.039 100.117 449.615 100.576C450.202 101.024 450.495 101.696 450.495 102.592C450.506 103.317 450.324 103.861 449.951 104.224C449.578 104.576 448.932 104.752 448.015 104.752H443.599V103.424H447.359C447.722 103.424 447.951 103.349 448.047 103.2C448.154 103.04 448.207 102.821 448.207 102.544C448.196 102.171 448.084 101.915 447.871 101.776C447.668 101.627 447.322 101.552 446.831 101.552C446.394 101.552 446.052 101.611 445.807 101.728C445.562 101.845 445.391 102.069 445.295 102.4C445.199 102.731 445.151 103.211 445.151 103.84C445.151 104.501 445.21 105.013 445.327 105.376C445.444 105.728 445.642 105.973 445.919 106.112C446.207 106.251 446.602 106.32 447.103 106.32C447.466 106.32 447.914 106.309 448.447 106.288C448.991 106.256 449.535 106.208 450.079 106.144L450.303 107.6C449.994 107.749 449.642 107.867 449.247 107.952C448.852 108.037 448.447 108.096 448.031 108.128C447.615 108.171 447.215 108.192 446.831 108.192C445.828 108.192 445.018 108.048 444.399 107.76C443.791 107.461 443.348 107.008 443.071 106.4C442.804 105.792 442.671 105.013 442.671 104.064C442.671 103.029 442.81 102.208 443.087 101.6C443.364 100.992 443.802 100.555 444.399 100.288C444.996 100.021 445.78 99.888 446.751 99.888ZM455.718 99.888C456.006 99.888 456.321 99.904 456.662 99.936C457.003 99.9573 457.345 100.005 457.686 100.08C458.038 100.144 458.358 100.24 458.646 100.368L458.39 101.856C457.963 101.845 457.553 101.835 457.158 101.824C456.774 101.813 456.427 101.808 456.118 101.808C455.638 101.808 455.259 101.872 454.982 102C454.705 102.128 454.502 102.357 454.374 102.688C454.257 103.008 454.198 103.456 454.198 104.032C454.198 104.619 454.257 105.077 454.374 105.408C454.502 105.739 454.705 105.968 454.982 106.096C455.259 106.224 455.638 106.288 456.118 106.288C456.289 106.288 456.507 106.283 456.774 106.272C457.041 106.261 457.329 106.251 457.638 106.24C457.947 106.219 458.251 106.187 458.55 106.144L458.774 107.648C458.347 107.84 457.862 107.979 457.318 108.064C456.774 108.149 456.235 108.192 455.702 108.192C454.721 108.192 453.937 108.059 453.35 107.792C452.774 107.515 452.358 107.072 452.102 106.464C451.846 105.856 451.718 105.045 451.718 104.032C451.718 103.019 451.846 102.208 452.102 101.6C452.369 100.992 452.795 100.555 453.382 100.288C453.969 100.021 454.747 99.888 455.718 99.888ZM465.683 99.888C467.176 99.888 467.923 100.619 467.923 102.08V108H465.539V102.816C465.539 102.464 465.475 102.224 465.347 102.096C465.229 101.957 465.016 101.888 464.707 101.888C464.365 101.888 464.013 101.952 463.651 102.08C463.288 102.208 462.84 102.416 462.307 102.704L462.099 101.472C462.685 100.96 463.283 100.571 463.891 100.304C464.499 100.027 465.096 99.888 465.683 99.888ZM462.547 96.8L462.563 99.536C462.563 99.952 462.536 100.347 462.483 100.72C462.44 101.093 462.387 101.408 462.323 101.664L462.547 101.872V108H460.179V96.8H462.547ZM472.876 97.904V105.472C472.876 105.76 472.94 105.968 473.068 106.096C473.207 106.213 473.431 106.272 473.74 106.272H474.764L475.02 107.872C474.828 107.936 474.593 107.989 474.316 108.032C474.039 108.085 473.761 108.123 473.484 108.144C473.207 108.176 472.972 108.192 472.78 108.192C472.065 108.192 471.505 108 471.1 107.616C470.705 107.232 470.508 106.693 470.508 106L470.492 97.904H472.876ZM475.084 100.096V101.648H469.116V100.176L470.652 100.096H475.084ZM478.735 96.8L478.719 105.472C478.719 105.739 478.799 105.941 478.959 106.08C479.119 106.208 479.353 106.272 479.663 106.272H480.303L480.575 107.872C480.447 107.936 480.265 107.989 480.031 108.032C479.796 108.085 479.556 108.123 479.311 108.144C479.065 108.176 478.857 108.192 478.687 108.192C477.972 108.192 477.407 108.005 476.991 107.632C476.575 107.259 476.367 106.736 476.367 106.064V96.8H478.735ZM484.017 100.096V108H481.665V100.096H484.017ZM483.361 96.608C483.83 96.608 484.065 96.848 484.065 97.328V98.176C484.065 98.656 483.83 98.896 483.361 98.896H482.337C481.867 98.896 481.633 98.656 481.633 98.176V97.328C481.633 96.848 481.867 96.608 482.337 96.608H483.361ZM489.703 99.888C489.991 99.888 490.305 99.904 490.647 99.936C490.988 99.9573 491.329 100.005 491.671 100.08C492.023 100.144 492.343 100.24 492.631 100.368L492.375 101.856C491.948 101.845 491.537 101.835 491.143 101.824C490.759 101.813 490.412 101.808 490.103 101.808C489.623 101.808 489.244 101.872 488.967 102C488.689 102.128 488.487 102.357 488.359 102.688C488.241 103.008 488.183 103.456 488.183 104.032C488.183 104.619 488.241 105.077 488.359 105.408C488.487 105.739 488.689 105.968 488.967 106.096C489.244 106.224 489.623 106.288 490.103 106.288C490.273 106.288 490.492 106.283 490.759 106.272C491.025 106.261 491.313 106.251 491.623 106.24C491.932 106.219 492.236 106.187 492.535 106.144L492.759 107.648C492.332 107.84 491.847 107.979 491.303 108.064C490.759 108.149 490.22 108.192 489.687 108.192C488.705 108.192 487.921 108.059 487.335 107.792C486.759 107.515 486.343 107.072 486.087 106.464C485.831 105.856 485.703 105.045 485.703 104.032C485.703 103.019 485.831 102.208 486.087 101.6C486.353 100.992 486.78 100.555 487.367 100.288C487.953 100.021 488.732 99.888 489.703 99.888ZM499.667 99.888C501.16 99.888 501.907 100.619 501.907 102.08V108H499.523V102.816C499.523 102.464 499.459 102.224 499.331 102.096C499.214 101.957 499 101.888 498.691 101.888C498.35 101.888 497.998 101.952 497.635 102.08C497.272 102.208 496.824 102.416 496.291 102.704L496.083 101.472C496.67 100.96 497.267 100.571 497.875 100.304C498.483 100.027 499.08 99.888 499.667 99.888ZM496.531 96.8L496.547 99.536C496.547 99.952 496.52 100.347 496.467 100.72C496.424 101.093 496.371 101.408 496.307 101.664L496.531 101.872V108H494.163V96.8H496.531ZM507.516 99.888C508.85 99.888 509.805 100.117 510.381 100.576C510.967 101.024 511.26 101.696 511.26 102.592C511.271 103.317 511.09 103.861 510.717 104.224C510.343 104.576 509.698 104.752 508.781 104.752H504.365V103.424H508.125C508.487 103.424 508.717 103.349 508.813 103.2C508.919 103.04 508.973 102.821 508.973 102.544C508.962 102.171 508.85 101.915 508.637 101.776C508.434 101.627 508.087 101.552 507.597 101.552C507.159 101.552 506.818 101.611 506.573 101.728C506.327 101.845 506.157 102.069 506.061 102.4C505.965 102.731 505.917 103.211 505.917 103.84C505.917 104.501 505.975 105.013 506.093 105.376C506.21 105.728 506.407 105.973 506.685 106.112C506.973 106.251 507.367 106.32 507.869 106.32C508.231 106.32 508.679 106.309 509.213 106.288C509.757 106.256 510.301 106.208 510.845 106.144L511.069 107.6C510.759 107.749 510.407 107.867 510.013 107.952C509.618 108.037 509.213 108.096 508.797 108.128C508.381 108.171 507.981 108.192 507.597 108.192C506.594 108.192 505.783 108.048 505.164 107.76C504.557 107.461 504.114 107.008 503.837 106.4C503.57 105.792 503.437 105.013 503.437 104.064C503.437 103.029 503.575 102.208 503.853 101.6C504.13 100.992 504.567 100.555 505.164 100.288C505.762 100.021 506.546 99.888 507.516 99.888ZM514.66 100.096L514.948 101.664L515.172 101.872V108H512.804V100.096H514.66ZM518.516 99.888L518.292 102.08H517.636C517.262 102.08 516.873 102.133 516.468 102.24C516.062 102.347 515.55 102.507 514.932 102.72L514.772 101.392C515.326 100.901 515.886 100.528 516.452 100.272C517.017 100.016 517.566 99.888 518.1 99.888H518.516ZM525.365 96.96V108H522.933V96.96H525.365ZM532.948 99.888C534.442 99.888 535.188 100.619 535.188 102.08V108H532.82V102.816C532.82 102.464 532.756 102.224 532.628 102.096C532.5 101.957 532.282 101.888 531.972 101.888C531.631 101.888 531.279 101.957 530.916 102.096C530.554 102.224 530.106 102.427 529.572 102.704L529.46 101.376C530.026 100.896 530.602 100.528 531.188 100.272C531.786 100.016 532.372 99.888 532.948 99.888ZM529.348 100.096L529.62 101.664L529.812 101.872V108H527.444V100.096H529.348ZM540.366 96.464C540.558 96.464 540.808 96.4693 541.118 96.48C541.438 96.4907 541.758 96.512 542.078 96.544C542.408 96.5653 542.691 96.5973 542.926 96.64L542.718 98.16H541.214C540.808 98.16 540.526 98.24 540.366 98.4C540.206 98.56 540.126 98.8373 540.126 99.232V108H537.758V98.928C537.758 98.4267 537.838 97.9947 537.998 97.632C538.168 97.2693 538.446 96.9867 538.83 96.784C539.214 96.5707 539.726 96.464 540.366 96.464ZM542.334 100.096V101.648H536.382V100.176L537.806 100.096H542.334ZM547.189 99.888C548.181 99.888 548.975 100.027 549.573 100.304C550.17 100.571 550.597 101.008 550.853 101.616C551.119 102.224 551.253 103.04 551.253 104.064C551.253 105.067 551.119 105.872 550.853 106.48C550.597 107.088 550.17 107.525 549.573 107.792C548.975 108.059 548.181 108.192 547.189 108.192C546.207 108.192 545.413 108.059 544.805 107.792C544.207 107.525 543.775 107.088 543.509 106.48C543.242 105.872 543.109 105.067 543.109 104.064C543.109 103.04 543.242 102.224 543.509 101.616C543.775 101.008 544.207 100.571 544.805 100.304C545.413 100.027 546.207 99.888 547.189 99.888ZM547.189 101.616C546.783 101.616 546.463 101.685 546.229 101.824C545.994 101.963 545.829 102.208 545.733 102.56C545.637 102.912 545.589 103.413 545.589 104.064C545.589 104.704 545.637 105.2 545.733 105.552C545.829 105.904 545.994 106.149 546.229 106.288C546.463 106.416 546.783 106.48 547.189 106.48C547.594 106.48 547.914 106.416 548.149 106.288C548.383 106.149 548.549 105.904 548.645 105.552C548.741 105.2 548.789 104.704 548.789 104.064C548.789 103.413 548.741 102.912 548.645 102.56C548.549 102.208 548.383 101.963 548.149 101.824C547.914 101.685 547.594 101.616 547.189 101.616ZM554.722 100.096L555.01 101.664L555.234 101.872V108H552.866V100.096H554.722ZM558.578 99.888L558.354 102.08H557.698C557.325 102.08 556.936 102.133 556.53 102.24C556.125 102.347 555.613 102.507 554.994 102.72L554.834 101.392C555.389 100.901 555.949 100.528 556.514 100.272C557.08 100.016 557.629 99.888 558.162 99.888H558.578ZM569.71 99.888C570.425 99.888 570.969 100.075 571.342 100.448C571.716 100.821 571.902 101.365 571.902 102.08V108H569.55V102.816C569.55 102.485 569.486 102.251 569.358 102.112C569.23 101.963 569.006 101.888 568.686 101.888C568.494 101.888 568.313 101.915 568.142 101.968C567.972 102.021 567.774 102.107 567.55 102.224C567.326 102.341 567.054 102.501 566.734 102.704L566.606 101.392C567.118 100.891 567.62 100.517 568.11 100.272C568.612 100.016 569.145 99.888 569.71 99.888ZM561.582 100.096L561.822 101.664L562.062 101.872V108H559.694V100.096H561.582ZM564.782 99.888C565.486 99.888 566.02 100.075 566.382 100.448C566.756 100.811 566.942 101.355 566.942 102.08V108H564.67V102.816C564.67 102.475 564.596 102.235 564.446 102.096C564.308 101.957 564.089 101.888 563.79 101.888C563.609 101.888 563.428 101.915 563.246 101.968C563.076 102.011 562.873 102.091 562.638 102.208C562.414 102.325 562.137 102.491 561.806 102.704L561.662 101.392C562.185 100.891 562.692 100.517 563.182 100.272C563.673 100.016 564.206 99.888 564.782 99.888ZM577.964 99.888C578.625 99.888 579.185 99.9787 579.644 100.16C580.103 100.331 580.449 100.629 580.684 101.056C580.929 101.472 581.052 102.048 581.052 102.784V108H579.164L578.828 106.288L578.668 106.048V102.768C578.668 102.395 578.577 102.123 578.396 101.952C578.225 101.781 577.895 101.696 577.404 101.696C576.999 101.696 576.492 101.712 575.884 101.744C575.276 101.765 574.652 101.797 574.012 101.84L573.788 100.272C574.172 100.197 574.615 100.133 575.116 100.08C575.617 100.027 576.119 99.984 576.62 99.952C577.121 99.9093 577.569 99.888 577.964 99.888ZM580.076 103.136L580.06 104.464L576.54 104.48C576.252 104.48 576.044 104.549 575.916 104.688C575.799 104.827 575.74 105.013 575.74 105.248V105.632C575.74 105.899 575.815 106.107 575.964 106.256C576.113 106.395 576.353 106.464 576.684 106.464C576.961 106.464 577.26 106.405 577.58 106.288C577.911 106.171 578.236 106.005 578.556 105.792C578.876 105.579 579.159 105.328 579.404 105.04V106.064C579.308 106.224 579.164 106.427 578.972 106.672C578.791 106.907 578.556 107.141 578.268 107.376C577.98 107.6 577.644 107.792 577.26 107.952C576.876 108.112 576.439 108.192 575.948 108.192C575.468 108.192 575.036 108.107 574.652 107.936C574.268 107.765 573.964 107.515 573.74 107.184C573.516 106.853 573.404 106.443 573.404 105.952V105.136C573.404 104.507 573.617 104.016 574.044 103.664C574.471 103.312 575.057 103.136 575.804 103.136H580.076ZM586.001 97.904V105.472C586.001 105.76 586.065 105.968 586.193 106.096C586.332 106.213 586.556 106.272 586.865 106.272H587.889L588.145 107.872C587.953 107.936 587.718 107.989 587.441 108.032C587.164 108.085 586.886 108.123 586.609 108.144C586.332 108.176 586.097 108.192 585.905 108.192C585.19 108.192 584.63 108 584.225 107.616C583.83 107.232 583.633 106.693 583.633 106L583.617 97.904H586.001ZM588.209 100.096V101.648H582.241V100.176L583.777 100.096H588.209ZM591.892 100.096V108H589.54V100.096H591.892ZM591.236 96.608C591.705 96.608 591.94 96.848 591.94 97.328V98.176C591.94 98.656 591.705 98.896 591.236 98.896H590.212C589.742 98.896 589.508 98.656 589.508 98.176V97.328C589.508 96.848 589.742 96.608 590.212 96.608H591.236ZM597.658 99.888C598.65 99.888 599.444 100.027 600.042 100.304C600.639 100.571 601.066 101.008 601.322 101.616C601.588 102.224 601.722 103.04 601.722 104.064C601.722 105.067 601.588 105.872 601.322 106.48C601.066 107.088 600.639 107.525 600.042 107.792C599.444 108.059 598.65 108.192 597.658 108.192C596.676 108.192 595.882 108.059 595.274 107.792C594.676 107.525 594.244 107.088 593.978 106.48C593.711 105.872 593.578 105.067 593.578 104.064C593.578 103.04 593.711 102.224 593.978 101.616C594.244 101.008 594.676 100.571 595.274 100.304C595.882 100.027 596.676 99.888 597.658 99.888ZM597.658 101.616C597.252 101.616 596.932 101.685 596.698 101.824C596.463 101.963 596.298 102.208 596.202 102.56C596.106 102.912 596.058 103.413 596.058 104.064C596.058 104.704 596.106 105.2 596.202 105.552C596.298 105.904 596.463 106.149 596.698 106.288C596.932 106.416 597.252 106.48 597.658 106.48C598.063 106.48 598.383 106.416 598.618 106.288C598.852 106.149 599.018 105.904 599.114 105.552C599.21 105.2 599.258 104.704 599.258 104.064C599.258 103.413 599.21 102.912 599.114 102.56C599.018 102.208 598.852 101.963 598.618 101.824C598.383 101.685 598.063 101.616 597.658 101.616ZM608.839 99.888C610.332 99.888 611.079 100.619 611.079 102.08V108H608.711V102.816C608.711 102.464 608.647 102.224 608.519 102.096C608.391 101.957 608.172 101.888 607.863 101.888C607.522 101.888 607.17 101.957 606.807 102.096C606.444 102.224 605.996 102.427 605.463 102.704L605.351 101.376C605.916 100.896 606.492 100.528 607.079 100.272C607.676 100.016 608.263 99.888 608.839 99.888ZM605.239 100.096L605.511 101.664L605.703 101.872V108H603.335V100.096H605.239ZM616.688 99.888C618.022 99.888 618.976 100.117 619.552 100.576C620.139 101.024 620.432 101.696 620.432 102.592C620.443 103.317 620.262 103.861 619.888 104.224C619.515 104.576 618.87 104.752 617.952 104.752H613.536V103.424H617.296C617.659 103.424 617.888 103.349 617.984 103.2C618.091 103.04 618.144 102.821 618.144 102.544C618.134 102.171 618.022 101.915 617.808 101.776C617.606 101.627 617.259 101.552 616.768 101.552C616.331 101.552 615.99 101.611 615.744 101.728C615.499 101.845 615.328 102.069 615.232 102.4C615.136 102.731 615.088 103.211 615.088 103.84C615.088 104.501 615.147 105.013 615.264 105.376C615.382 105.728 615.579 105.973 615.856 106.112C616.144 106.251 616.539 106.32 617.04 106.32C617.403 106.32 617.851 106.309 618.384 106.288C618.928 106.256 619.472 106.208 620.016 106.144L620.24 107.6C619.931 107.749 619.579 107.867 619.184 107.952C618.79 108.037 618.384 108.096 617.968 108.128C617.552 108.171 617.152 108.192 616.768 108.192C615.766 108.192 614.955 108.048 614.336 107.76C613.728 107.461 613.286 107.008 613.008 106.4C612.742 105.792 612.608 105.013 612.608 104.064C612.608 103.029 612.747 102.208 613.024 101.6C613.302 100.992 613.739 100.555 614.336 100.288C614.934 100.021 615.718 99.888 616.688 99.888ZM627.48 99.888C628.973 99.888 629.72 100.619 629.72 102.08V108H627.352V102.816C627.352 102.464 627.288 102.224 627.16 102.096C627.032 101.957 626.813 101.888 626.504 101.888C626.162 101.888 625.81 101.957 625.448 102.096C625.085 102.224 624.637 102.427 624.104 102.704L623.992 101.376C624.557 100.896 625.133 100.528 625.72 100.272C626.317 100.016 626.904 99.888 627.48 99.888ZM623.88 100.096L624.152 101.664L624.344 101.872V108H621.976V100.096H623.88Z" fill="#023047" fill-opacity="0.72"/>
<rect width="1920" height="89" fill="white"/>
<path d="M0 -9.65086e-05V89.0332H271.028L307 -9.65086e-05H0Z" fill="#003A69"/>
<path d="M175.01 54.2131H177.169V64.2302H182.027V66.0376H175.01V54.2131ZM169.877 61.055L168.949 58.143C168.72 57.4244 168.528 56.6162 168.353 55.9323H168.315C168.14 56.6162 167.965 57.4403 167.754 58.143L166.842 61.055H169.877ZM166.491 62.686L165.474 66.0376H163.246L167.034 54.2131H169.792L173.632 66.0376H171.316L170.246 62.686H166.491ZM158.71 56.0205H155.341V54.2131H164.271V56.0205H160.868V66.0376H158.71V56.0205ZM153.773 60.7919H149.315V64.2664H154.298V66.0376H147.158V54.2131H154.034V55.9843H149.315V59.038H153.773V60.7919ZM142.903 61.2127C142.832 59.6872 142.745 57.8452 142.762 56.2475H142.709C142.323 57.6861 141.833 59.2838 141.305 60.7745L139.587 65.8973H137.92L136.341 60.8454C135.884 59.3359 135.463 57.7223 135.148 56.2475H135.114C135.06 57.7917 134.989 59.6684 134.902 61.2849L134.639 66.0376H132.622L133.412 54.2131H136.253L137.797 58.9672C138.218 60.3538 138.587 61.7577 138.884 63.0721H138.936C139.253 61.7924 139.657 60.335 140.113 58.9498L141.744 54.2131H144.551L145.236 66.0376H143.131L142.903 61.2127ZM124.005 63.6866C124.708 64.09 125.76 64.4413 126.865 64.4413C128.25 64.4413 129.022 63.7921 129.022 62.8277C129.022 61.9327 128.425 61.4064 126.917 60.8627C124.969 60.16 123.724 59.1248 123.724 57.4244C123.724 55.4942 125.338 54.0208 127.9 54.0208C129.18 54.0208 130.128 54.3013 130.741 54.6165L130.215 56.353C129.794 56.126 128.97 55.7935 127.864 55.7935C126.496 55.7935 125.899 56.5294 125.899 57.2119C125.899 58.1257 126.583 58.5464 128.162 59.1609C130.215 59.933 131.214 60.9669 131.214 62.6701C131.214 64.5642 129.777 66.214 126.725 66.214C125.478 66.214 124.18 65.8626 123.532 65.4766L124.005 63.6866ZM118.574 61.055L117.644 58.143C117.417 57.4244 117.224 56.6162 117.049 55.9323H117.013C116.838 56.6162 116.663 57.4403 116.452 58.143L115.539 61.055H118.574ZM115.189 62.686L114.171 66.0376H111.942L115.732 54.2131H118.487L122.328 66.0376H120.013L118.943 62.686H115.189ZM104.776 59.599H106.057C107.513 59.599 108.425 58.8269 108.425 57.6514C108.425 56.353 107.513 55.7573 106.109 55.7573C105.425 55.7573 104.987 55.8094 104.776 55.8629V59.599ZM102.636 54.3707C103.443 54.2305 104.653 54.1249 105.898 54.1249C107.6 54.1249 108.758 54.4069 109.549 55.0734C110.198 55.6171 110.565 56.4412 110.565 57.4403C110.565 58.9672 109.53 60.0024 108.425 60.4073V60.4579C109.267 60.7745 109.776 61.5987 110.074 62.7381C110.442 64.2143 110.759 65.5807 111.003 66.0376H108.777C108.6 65.6877 108.32 64.7218 107.987 63.247C107.653 61.7057 107.092 61.2127 105.865 61.1779H104.776V66.0376H102.636V54.3707ZM94.9426 64.4775C95.2231 64.5107 95.5918 64.5295 96.0834 64.5295C97.4685 64.5295 98.6976 64.0018 98.6976 62.5472C98.6976 61.1779 97.5047 60.6169 96.0125 60.6169H94.9426V64.4775ZM94.9426 59.038H96.0472C97.538 59.038 98.3809 58.3368 98.3809 57.3362C98.3809 56.2316 97.538 55.7212 96.1701 55.7212C95.5383 55.7212 95.171 55.7573 94.9426 55.8094V59.038ZM92.8027 54.3707C93.4866 54.2305 94.7329 54.1249 95.9417 54.1249C97.538 54.1249 98.5212 54.3187 99.328 54.8797C100.065 55.3192 100.557 56.0899 100.557 57.0904C100.557 58.1777 99.8731 59.1783 98.5906 59.6525V59.6872C99.8369 60.0024 100.978 60.9856 100.978 62.6166C100.978 63.6692 100.521 64.4934 99.8369 65.0558C98.9954 65.7932 97.6088 66.1619 95.4515 66.1619C94.2572 66.1619 93.3463 66.0737 92.8027 66.0014V54.3707ZM79.1405 44.1368C79.1405 56.7449 68.9196 66.9658 56.3115 66.9658C43.7034 66.9658 33.4824 56.7449 33.4824 44.1368C33.4824 31.5301 43.7034 21.3077 56.3115 21.3077C68.9196 21.3077 79.1405 31.5301 79.1405 44.1368ZM216.695 48.0276V33.1799H212.549V51.4414H222.762V48.0276H216.695ZM150.45 48.0276V47.9741V33.1799H146.305V51.4414H156.516V48.0276H150.45ZM163.519 48.0291V47.9178L172.027 35.5641V33.1799H158.777V36.5936H166.664V36.702L158.687 48.1795V51.4414H172.164V48.0291H163.519ZM229.767 48.0291V47.9178L238.274 35.5641V33.1799H225.026V36.5936H232.91V36.702L224.933 48.1795V51.4414H238.41V48.0291H229.767ZM196.918 42.3656C196.918 45.9412 198.598 48.46 201.361 48.46C204.153 48.46 205.752 45.8082 205.752 42.2571C205.752 38.9793 204.182 36.1598 201.335 36.1598C198.544 36.1598 196.918 38.8159 196.918 42.3656ZM210.113 42.1212C210.113 48.1072 206.481 51.7392 201.144 51.7392C195.725 51.7392 192.556 47.6488 192.556 42.448C192.556 36.9739 196.05 32.8806 201.443 32.8806C207.051 32.8806 210.113 37.0809 210.113 42.1212ZM179.148 33.1799V40.1967H185.946V33.1799H190.067V51.4414H185.946V43.8013H179.148V51.4414H175.003V33.1799H179.148ZM142.064 43.7204H135.743V48.0537H143.25V51.4414H131.597V33.1799H142.869V36.5676H135.743V40.3587H142.064V43.7204ZM123.327 43.6654L122.189 39.7904C121.863 38.7075 121.538 37.3527 121.266 36.2683H121.214C120.942 37.3527 120.671 38.7335 120.373 39.7904L119.29 43.6654H123.327ZM118.694 46.7538L117.393 51.4414H113.112L118.694 33.1799H124.112L129.775 51.4414H125.334L123.922 46.7538H118.694ZM95.3474 51.4414L91.0127 33.1799H95.4299L96.8107 40.7129C97.2184 42.8803 97.5987 45.2371 97.8965 47.0791H97.9486C98.2479 45.1012 98.6816 42.9049 99.1429 40.658L100.687 33.1799H105.075L106.539 40.8734C106.946 43.0162 107.243 44.9667 107.516 46.9982H107.568C107.84 44.9667 108.246 42.8268 108.625 40.658L110.114 33.1799H114.315L109.6 51.4414H105.13L103.588 43.5844C103.233 41.7409 102.935 40.0348 102.719 37.9484H102.664C102.34 40.0073 102.042 41.7409 101.607 43.5844L99.8731 51.4414H95.3474Z" fill="white"/>
<path d="M73.6626 33.1797H70.9212L63.6224 50.9106L56.3221 33.1797H49.0161L61.3393 63.111L73.6626 33.1797ZM54.9413 54.2506L46.2675 33.1797H38.96L51.289 63.1211L54.9413 54.2506ZM59.5739 35.9182C59.5739 37.5825 59.7807 38.7637 61.4362 38.7637C63.0151 38.7637 63.1293 37.6056 63.1293 36.8089H62.0276C62.0276 37.6056 61.8656 37.9512 61.3668 37.9512C60.8174 37.9512 60.6815 37.409 60.6786 35.9182C60.6815 34.4275 60.8174 33.8868 61.3668 33.8868C61.8656 33.8868 62.0276 34.2323 62.0276 35.029H63.1293C63.1293 34.2323 63.0151 33.0742 61.4362 33.0742C59.7807 33.0742 59.5739 34.2555 59.5739 35.9182ZM64.1068 38.6553H65.8462C67.3108 38.6553 67.7258 37.7805 67.7258 35.8416C67.7258 34.2323 67.4496 33.1812 65.9156 33.1812H64.1068V38.6553ZM65.7016 37.8413H65.2114V33.9952H65.6784C66.5214 33.9952 66.6212 34.63 66.6212 35.872C66.6212 37.3583 66.4679 37.8413 65.7016 37.8413Z" fill="#003A69"/>
</g>
<defs>
<clipPath id="clip0_3079_8098">
<rect width="1920" height="1080" fill="white"/>
</clipPath>
</defs>
</svg>
