<svg width="1920" height="1080" viewBox="0 0 1920 1080" fill="none" xmlns="http://www.w3.org/2000/svg">
<g clip-path="url(#clip0_3079_7792)">
<rect width="1920" height="1080" fill="#F5F5F5"/>
<mask id="path-1-inside-1_3079_7792" fill="white">
<path d="M24 1038H1896V1065H24V1038Z"/>
</mask>
<path d="M24 1039H1896V1037H24V1039Z" fill="#99B0C3" mask="url(#path-1-inside-1_3079_7792)"/>
<g clip-path="url(#clip1_3079_7792)">
<path d="M29.52 94.96V103.216C29.52 103.483 29.5947 103.685 29.744 103.824C29.8933 103.963 30.1067 104.032 30.384 104.032H34.24L34.352 105.872C33.5947 105.957 32.8 106.005 31.968 106.016C31.1467 106.037 30.3253 106.048 29.504 106.048C28.704 106.048 28.096 105.835 27.68 105.408C27.2747 104.971 27.072 104.416 27.072 103.744V94.96H29.52ZM37.8581 98.096V103.296C37.8581 103.627 37.9275 103.861 38.0661 104C38.2155 104.139 38.4501 104.208 38.7701 104.208C39.1008 104.208 39.4261 104.149 39.7461 104.032C40.0768 103.904 40.4821 103.707 40.9621 103.44L41.1541 104.736C40.5781 105.237 40.0128 105.611 39.4581 105.856C38.9035 106.101 38.3328 106.224 37.7461 106.224C36.2421 106.224 35.4901 105.488 35.4901 104.016V98.096H37.8581ZM43.0901 98.096V106H41.2181L40.9461 104.448L40.7221 104.224V98.096H43.0901ZM48.7025 97.888C48.9905 97.888 49.3052 97.904 49.6465 97.936C49.9878 97.9573 50.3292 98.0053 50.6705 98.08C51.0225 98.144 51.3425 98.24 51.6305 98.368L51.3745 99.856C50.9478 99.8453 50.5372 99.8347 50.1425 99.824C49.7585 99.8133 49.4118 99.808 49.1025 99.808C48.6225 99.808 48.2438 99.872 47.9665 100C47.6892 100.128 47.4865 100.357 47.3585 100.688C47.2412 101.008 47.1825 101.456 47.1825 102.032C47.1825 102.619 47.2412 103.077 47.3585 103.408C47.4865 103.739 47.6892 103.968 47.9665 104.096C48.2438 104.224 48.6225 104.288 49.1025 104.288C49.2732 104.288 49.4918 104.283 49.7585 104.272C50.0252 104.261 50.3132 104.251 50.6225 104.24C50.9318 104.219 51.2358 104.187 51.5345 104.144L51.7585 105.648C51.3318 105.84 50.8465 105.979 50.3025 106.064C49.7585 106.149 49.2198 106.192 48.6865 106.192C47.7052 106.192 46.9212 106.059 46.3345 105.792C45.7585 105.515 45.3425 105.072 45.0865 104.464C44.8305 103.856 44.7025 103.045 44.7025 102.032C44.7025 101.019 44.8305 100.208 45.0865 99.6C45.3532 98.992 45.7798 98.5547 46.3665 98.288C46.9532 98.0213 47.7318 97.888 48.7025 97.888ZM55.0191 98.096L55.3071 99.664L55.5311 99.872V106H53.1631V98.096H55.0191ZM58.8751 97.888L58.6511 100.08H57.9951C57.6218 100.08 57.2325 100.133 56.8271 100.24C56.4218 100.347 55.9098 100.507 55.2911 100.72L55.1311 99.392C55.6858 98.9013 56.2458 98.528 56.8111 98.272C57.3765 98.016 57.9258 97.888 58.4591 97.888H58.8751ZM63.6263 97.888C64.6183 97.888 65.4129 98.0267 66.0103 98.304C66.6076 98.5707 67.0343 99.008 67.2903 99.616C67.5569 100.224 67.6903 101.04 67.6903 102.064C67.6903 103.067 67.5569 103.872 67.2903 104.48C67.0343 105.088 66.6076 105.525 66.0103 105.792C65.4129 106.059 64.6183 106.192 63.6263 106.192C62.6449 106.192 61.8503 106.059 61.2423 105.792C60.6449 105.525 60.2129 105.088 59.9463 104.48C59.6796 103.872 59.5463 103.067 59.5463 102.064C59.5463 101.04 59.6796 100.224 59.9463 99.616C60.2129 99.008 60.6449 98.5707 61.2423 98.304C61.8503 98.0267 62.6449 97.888 63.6263 97.888ZM63.6263 99.616C63.2209 99.616 62.9009 99.6853 62.6663 99.824C62.4316 99.9627 62.2663 100.208 62.1703 100.56C62.0743 100.912 62.0263 101.413 62.0263 102.064C62.0263 102.704 62.0743 103.2 62.1703 103.552C62.2663 103.904 62.4316 104.149 62.6663 104.288C62.9009 104.416 63.2209 104.48 63.6263 104.48C64.0316 104.48 64.3516 104.416 64.5863 104.288C64.8209 104.149 64.9863 103.904 65.0823 103.552C65.1783 103.2 65.2263 102.704 65.2263 102.064C65.2263 101.413 65.1783 100.912 65.0823 100.56C64.9863 100.208 64.8209 99.9627 64.5863 99.824C64.3516 99.6853 64.0316 99.616 63.6263 99.616ZM77.7329 97.888C78.7782 97.888 79.5249 98.208 79.9729 98.848C80.4315 99.4773 80.6609 100.523 80.6609 101.984C80.6609 102.592 80.6022 103.152 80.4849 103.664C80.3782 104.176 80.1809 104.624 79.8929 105.008C79.6155 105.381 79.2262 105.675 78.7249 105.888C78.2235 106.091 77.5729 106.192 76.7729 106.192C76.4955 106.192 76.1755 106.176 75.8129 106.144C75.4502 106.123 75.0769 106.085 74.6929 106.032C74.3195 105.989 73.9622 105.931 73.6209 105.856C73.2795 105.771 72.9862 105.675 72.7409 105.568L74.6289 104.208C74.8315 104.272 75.0555 104.331 75.3009 104.384C75.5462 104.427 75.7969 104.459 76.0529 104.48C76.3089 104.491 76.5329 104.491 76.7249 104.48C77.0875 104.469 77.3755 104.395 77.5889 104.256C77.8129 104.107 77.9729 103.856 78.0689 103.504C78.1649 103.141 78.2129 102.64 78.2129 102C78.2129 101.413 78.1702 100.96 78.0849 100.64C78.0102 100.309 77.8662 100.08 77.6529 99.952C77.4502 99.8133 77.1622 99.744 76.7889 99.744C76.4369 99.744 76.1169 99.8187 75.8289 99.968C75.5409 100.117 75.2209 100.315 74.8689 100.56L74.6929 99.44C74.9702 99.1413 75.2689 98.8747 75.5889 98.64C75.9089 98.4053 76.2502 98.224 76.6129 98.096C76.9755 97.9573 77.3489 97.888 77.7329 97.888ZM75.1089 94.8L75.1249 97.36C75.1249 97.7227 75.1035 98.0747 75.0609 98.416C75.0289 98.7467 74.9649 99.072 74.8689 99.392L75.0929 99.6L75.1089 105.68L72.7409 105.568V94.8H75.1089ZM84.1129 98.096L84.4009 99.664L84.6249 99.872V106H82.2569V98.096H84.1129ZM87.9689 97.888L87.7449 100.08H87.0889C86.7155 100.08 86.3262 100.133 85.9209 100.24C85.5155 100.347 85.0035 100.507 84.3849 100.72L84.2249 99.392C84.7795 98.9013 85.3395 98.528 85.9049 98.272C86.4702 98.016 87.0195 97.888 87.5529 97.888H87.9689ZM91.405 98.096V103.296C91.405 103.627 91.4743 103.861 91.613 104C91.7623 104.139 91.997 104.208 92.317 104.208C92.6477 104.208 92.973 104.149 93.293 104.032C93.6237 103.904 94.029 103.707 94.509 103.44L94.701 104.736C94.125 105.237 93.5597 105.611 93.005 105.856C92.4503 106.101 91.8797 106.224 91.293 106.224C89.789 106.224 89.037 105.488 89.037 104.016V98.096H91.405ZM96.637 98.096V106H94.765L94.493 104.448L94.269 104.224V98.096H96.637ZM101.657 95.904V103.472C101.657 103.76 101.721 103.968 101.849 104.096C101.988 104.213 102.212 104.272 102.521 104.272H103.545L103.801 105.872C103.609 105.936 103.375 105.989 103.097 106.032C102.82 106.085 102.543 106.123 102.265 106.144C101.988 106.176 101.753 106.192 101.561 106.192C100.847 106.192 100.287 106 99.8814 105.616C99.4867 105.232 99.2894 104.693 99.2894 104L99.2734 95.904H101.657ZM103.865 98.096V99.648H97.8974V98.176L99.4334 98.096H103.865ZM108.892 97.888C109.884 97.888 110.679 98.0267 111.276 98.304C111.873 98.5707 112.3 99.008 112.556 99.616C112.823 100.224 112.956 101.04 112.956 102.064C112.956 103.067 112.823 103.872 112.556 104.48C112.3 105.088 111.873 105.525 111.276 105.792C110.679 106.059 109.884 106.192 108.892 106.192C107.911 106.192 107.116 106.059 106.508 105.792C105.911 105.525 105.479 105.088 105.212 104.48C104.945 103.872 104.812 103.067 104.812 102.064C104.812 101.04 104.945 100.224 105.212 99.616C105.479 99.008 105.911 98.5707 106.508 98.304C107.116 98.0267 107.911 97.888 108.892 97.888ZM108.892 99.616C108.487 99.616 108.167 99.6853 107.932 99.824C107.697 99.9627 107.532 100.208 107.436 100.56C107.34 100.912 107.292 101.413 107.292 102.064C107.292 102.704 107.34 103.2 107.436 103.552C107.532 103.904 107.697 104.149 107.932 104.288C108.167 104.416 108.487 104.48 108.892 104.48C109.297 104.48 109.617 104.416 109.852 104.288C110.087 104.149 110.252 103.904 110.348 103.552C110.444 103.2 110.492 102.704 110.492 102.064C110.492 101.413 110.444 100.912 110.348 100.56C110.252 100.208 110.087 99.9627 109.852 99.824C109.617 99.6853 109.297 99.616 108.892 99.616ZM121.703 97.888C121.991 97.888 122.305 97.904 122.647 97.936C122.988 97.9573 123.329 98.0053 123.671 98.08C124.023 98.144 124.343 98.24 124.631 98.368L124.375 99.856C123.948 99.8453 123.537 99.8347 123.143 99.824C122.759 99.8133 122.412 99.808 122.103 99.808C121.623 99.808 121.244 99.872 120.967 100C120.689 100.128 120.487 100.357 120.359 100.688C120.241 101.008 120.183 101.456 120.183 102.032C120.183 102.619 120.241 103.077 120.359 103.408C120.487 103.739 120.689 103.968 120.967 104.096C121.244 104.224 121.623 104.288 122.103 104.288C122.273 104.288 122.492 104.283 122.759 104.272C123.025 104.261 123.313 104.251 123.623 104.24C123.932 104.219 124.236 104.187 124.535 104.144L124.759 105.648C124.332 105.84 123.847 105.979 123.303 106.064C122.759 106.149 122.22 106.192 121.687 106.192C120.705 106.192 119.921 106.059 119.335 105.792C118.759 105.515 118.343 105.072 118.087 104.464C117.831 103.856 117.703 103.045 117.703 102.032C117.703 101.019 117.831 100.208 118.087 99.6C118.353 98.992 118.78 98.5547 119.367 98.288C119.953 98.0213 120.732 97.888 121.703 97.888ZM129.829 97.888C130.821 97.888 131.616 98.0267 132.213 98.304C132.811 98.5707 133.237 99.008 133.493 99.616C133.76 100.224 133.893 101.04 133.893 102.064C133.893 103.067 133.76 103.872 133.493 104.48C133.237 105.088 132.811 105.525 132.213 105.792C131.616 106.059 130.821 106.192 129.829 106.192C128.848 106.192 128.053 106.059 127.445 105.792C126.848 105.525 126.416 105.088 126.149 104.48C125.883 103.872 125.749 103.067 125.749 102.064C125.749 101.04 125.883 100.224 126.149 99.616C126.416 99.008 126.848 98.5707 127.445 98.304C128.053 98.0267 128.848 97.888 129.829 97.888ZM129.829 99.616C129.424 99.616 129.104 99.6853 128.869 99.824C128.635 99.9627 128.469 100.208 128.373 100.56C128.277 100.912 128.229 101.413 128.229 102.064C128.229 102.704 128.277 103.2 128.373 103.552C128.469 103.904 128.635 104.149 128.869 104.288C129.104 104.416 129.424 104.48 129.829 104.48C130.235 104.48 130.555 104.416 130.789 104.288C131.024 104.149 131.189 103.904 131.285 103.552C131.381 103.2 131.429 102.704 131.429 102.064C131.429 101.413 131.381 100.912 131.285 100.56C131.189 100.208 131.024 99.9627 130.789 99.824C130.555 99.6853 130.235 99.616 129.829 99.616ZM141.011 97.888C142.504 97.888 143.251 98.6187 143.251 100.08V106H140.883V100.816C140.883 100.464 140.819 100.224 140.691 100.096C140.563 99.9573 140.344 99.888 140.035 99.888C139.694 99.888 139.342 99.9573 138.979 100.096C138.616 100.224 138.168 100.427 137.635 100.704L137.523 99.376C138.088 98.896 138.664 98.528 139.251 98.272C139.848 98.016 140.435 97.888 141.011 97.888ZM137.411 98.096L137.683 99.664L137.875 99.872V106H135.507V98.096H137.411ZM148.124 97.888C148.508 97.888 148.924 97.904 149.372 97.936C149.82 97.9573 150.258 97.9893 150.684 98.032C151.111 98.0747 151.49 98.128 151.82 98.192L151.66 99.664C151.148 99.6533 150.631 99.648 150.108 99.648C149.596 99.6373 149.095 99.632 148.604 99.632C148.188 99.6213 147.868 99.6267 147.644 99.648C147.42 99.6693 147.26 99.7227 147.164 99.808C147.079 99.8827 147.036 100.021 147.036 100.224C147.036 100.459 147.116 100.619 147.276 100.704C147.436 100.779 147.703 100.864 148.076 100.96L150.14 101.456C150.802 101.627 151.292 101.883 151.612 102.224C151.932 102.555 152.092 103.056 152.092 103.728C152.092 104.389 151.97 104.896 151.724 105.248C151.479 105.6 151.09 105.845 150.556 105.984C150.023 106.112 149.335 106.176 148.492 106.176C148.162 106.176 147.671 106.16 147.02 106.128C146.37 106.096 145.655 106.016 144.876 105.888L145.036 104.416C145.228 104.427 145.474 104.437 145.772 104.448C146.071 104.448 146.396 104.448 146.748 104.448C147.1 104.448 147.452 104.448 147.804 104.448C148.348 104.448 148.764 104.437 149.052 104.416C149.34 104.384 149.538 104.32 149.644 104.224C149.751 104.128 149.804 103.984 149.804 103.792C149.804 103.557 149.714 103.397 149.532 103.312C149.351 103.227 149.063 103.136 148.668 103.04L146.668 102.544C146.167 102.405 145.778 102.229 145.5 102.016C145.223 101.803 145.026 101.541 144.908 101.232C144.802 100.923 144.748 100.555 144.748 100.128C144.748 99.584 144.855 99.152 145.068 98.832C145.292 98.5013 145.65 98.2613 146.14 98.112C146.642 97.9627 147.303 97.888 148.124 97.888ZM156.032 98.096V106H153.68V98.096H156.032ZM155.376 94.608C155.846 94.608 156.08 94.848 156.08 95.328V96.176C156.08 96.656 155.846 96.896 155.376 96.896H154.352C153.883 96.896 153.648 96.656 153.648 96.176V95.328C153.648 94.848 153.883 94.608 154.352 94.608H155.376ZM160.742 97.888C161.297 97.888 161.83 97.968 162.342 98.128C162.865 98.288 163.323 98.5493 163.718 98.912L163.558 100C163.195 99.8933 162.87 99.7973 162.582 99.712C162.294 99.6267 161.958 99.584 161.574 99.584C161.243 99.584 160.977 99.6427 160.774 99.76C160.571 99.8773 160.422 100.107 160.326 100.448C160.23 100.789 160.182 101.296 160.182 101.968C160.182 102.597 160.225 103.077 160.31 103.408C160.406 103.728 160.55 103.952 160.742 104.08C160.945 104.197 161.201 104.256 161.51 104.256C161.787 104.256 162.027 104.229 162.23 104.176C162.433 104.112 162.635 104.021 162.838 103.904C163.041 103.776 163.27 103.621 163.526 103.44L163.702 104.608C163.382 105.056 162.966 105.435 162.454 105.744C161.942 106.043 161.313 106.192 160.566 106.192C159.553 106.192 158.827 105.829 158.39 105.104C157.963 104.379 157.75 103.339 157.75 101.984C157.75 100.928 157.857 100.107 158.07 99.52C158.294 98.9227 158.63 98.5013 159.078 98.256C159.526 98.0107 160.081 97.888 160.742 97.888ZM165.654 94.8V106H163.782L163.542 104.544L163.286 104.368V99.184L163.382 98.976C163.35 98.6453 163.323 98.3147 163.302 97.984C163.291 97.6427 163.286 97.296 163.286 96.944V94.8H165.654ZM171.329 97.888C172.662 97.888 173.617 98.1173 174.193 98.576C174.78 99.024 175.073 99.696 175.073 100.592C175.084 101.317 174.902 101.861 174.529 102.224C174.156 102.576 173.51 102.752 172.593 102.752H168.177V101.424H171.937C172.3 101.424 172.529 101.349 172.625 101.2C172.732 101.04 172.785 100.821 172.785 100.544C172.774 100.171 172.662 99.9147 172.449 99.776C172.246 99.6267 171.9 99.552 171.409 99.552C170.972 99.552 170.63 99.6107 170.385 99.728C170.14 99.8453 169.969 100.069 169.873 100.4C169.777 100.731 169.729 101.211 169.729 101.84C169.729 102.501 169.788 103.013 169.905 103.376C170.022 103.728 170.22 103.973 170.497 104.112C170.785 104.251 171.18 104.32 171.681 104.32C172.044 104.32 172.492 104.309 173.025 104.288C173.569 104.256 174.113 104.208 174.657 104.144L174.881 105.6C174.572 105.749 174.22 105.867 173.825 105.952C173.43 106.037 173.025 106.096 172.609 106.128C172.193 106.171 171.793 106.192 171.409 106.192C170.406 106.192 169.596 106.048 168.977 105.76C168.369 105.461 167.926 105.008 167.649 104.4C167.382 103.792 167.249 103.013 167.249 102.064C167.249 101.029 167.388 100.208 167.665 99.6C167.942 98.992 168.38 98.5547 168.977 98.288C169.574 98.0213 170.358 97.888 171.329 97.888ZM178.472 98.096L178.76 99.664L178.984 99.872V106H176.616V98.096H178.472ZM182.328 97.888L182.104 100.08H181.448C181.075 100.08 180.686 100.133 180.28 100.24C179.875 100.347 179.363 100.507 178.744 100.72L178.584 99.392C179.139 98.9013 179.699 98.528 180.264 98.272C180.83 98.016 181.379 97.888 181.912 97.888H182.328ZM187.574 97.888C188.235 97.888 188.795 97.9787 189.254 98.16C189.712 98.3307 190.059 98.6293 190.294 99.056C190.539 99.472 190.661 100.048 190.661 100.784V106H188.774L188.438 104.288L188.278 104.048V100.768C188.278 100.395 188.187 100.123 188.006 99.952C187.835 99.7813 187.504 99.696 187.014 99.696C186.608 99.696 186.102 99.712 185.494 99.744C184.886 99.7653 184.262 99.7973 183.622 99.84L183.398 98.272C183.782 98.1973 184.224 98.1333 184.726 98.08C185.227 98.0267 185.728 97.984 186.23 97.952C186.731 97.9093 187.179 97.888 187.574 97.888ZM189.686 101.136L189.67 102.464L186.15 102.48C185.862 102.48 185.654 102.549 185.526 102.688C185.408 102.827 185.35 103.013 185.35 103.248V103.632C185.35 103.899 185.424 104.107 185.574 104.256C185.723 104.395 185.963 104.464 186.294 104.464C186.571 104.464 186.87 104.405 187.19 104.288C187.52 104.171 187.846 104.005 188.166 103.792C188.486 103.579 188.768 103.328 189.014 103.04V104.064C188.918 104.224 188.774 104.427 188.582 104.672C188.4 104.907 188.166 105.141 187.878 105.376C187.59 105.6 187.254 105.792 186.87 105.952C186.486 106.112 186.048 106.192 185.558 106.192C185.078 106.192 184.646 106.107 184.262 105.936C183.878 105.765 183.574 105.515 183.35 105.184C183.126 104.853 183.014 104.443 183.014 103.952V103.136C183.014 102.507 183.227 102.016 183.654 101.664C184.08 101.312 184.667 101.136 185.414 101.136H189.686ZM198.027 97.888C199.52 97.888 200.267 98.6187 200.267 100.08V106H197.899V100.816C197.899 100.464 197.835 100.224 197.707 100.096C197.579 99.9573 197.36 99.888 197.051 99.888C196.709 99.888 196.357 99.9573 195.995 100.096C195.632 100.224 195.184 100.427 194.651 100.704L194.539 99.376C195.104 98.896 195.68 98.528 196.266 98.272C196.864 98.016 197.451 97.888 198.027 97.888ZM194.427 98.096L194.699 99.664L194.891 99.872V106H192.523V98.096H194.427ZM204.836 97.888C205.391 97.888 205.924 97.968 206.436 98.128C206.959 98.288 207.417 98.5493 207.812 98.912L207.652 100C207.289 99.8933 206.964 99.7973 206.676 99.712C206.388 99.6267 206.052 99.584 205.668 99.584C205.337 99.584 205.071 99.6427 204.868 99.76C204.665 99.8773 204.516 100.107 204.42 100.448C204.324 100.789 204.276 101.296 204.276 101.968C204.276 102.597 204.319 103.077 204.404 103.408C204.5 103.728 204.644 103.952 204.836 104.08C205.039 104.197 205.295 104.256 205.604 104.256C205.881 104.256 206.121 104.229 206.324 104.176C206.527 104.112 206.729 104.021 206.932 103.904C207.135 103.776 207.364 103.621 207.62 103.44L207.796 104.608C207.476 105.056 207.06 105.435 206.548 105.744C206.036 106.043 205.407 106.192 204.66 106.192C203.647 106.192 202.921 105.829 202.484 105.104C202.057 104.379 201.844 103.339 201.844 101.984C201.844 100.928 201.951 100.107 202.164 99.52C202.388 98.9227 202.724 98.5013 203.172 98.256C203.62 98.0107 204.175 97.888 204.836 97.888ZM209.748 94.8V106H207.876L207.636 104.544L207.38 104.368V99.184L207.476 98.976C207.444 98.6453 207.417 98.3147 207.396 97.984C207.385 97.6427 207.38 97.296 207.38 96.944V94.8H209.748ZM215.439 97.888C216.431 97.888 217.225 98.0267 217.823 98.304C218.42 98.5707 218.847 99.008 219.103 99.616C219.369 100.224 219.503 101.04 219.503 102.064C219.503 103.067 219.369 103.872 219.103 104.48C218.847 105.088 218.42 105.525 217.823 105.792C217.225 106.059 216.431 106.192 215.439 106.192C214.457 106.192 213.663 106.059 213.055 105.792C212.457 105.525 212.025 105.088 211.759 104.48C211.492 103.872 211.359 103.067 211.359 102.064C211.359 101.04 211.492 100.224 211.759 99.616C212.025 99.008 212.457 98.5707 213.055 98.304C213.663 98.0267 214.457 97.888 215.439 97.888ZM215.439 99.616C215.033 99.616 214.713 99.6853 214.479 99.824C214.244 99.9627 214.079 100.208 213.983 100.56C213.887 100.912 213.839 101.413 213.839 102.064C213.839 102.704 213.887 103.2 213.983 103.552C214.079 103.904 214.244 104.149 214.479 104.288C214.713 104.416 215.033 104.48 215.439 104.48C215.844 104.48 216.164 104.416 216.399 104.288C216.633 104.149 216.799 103.904 216.895 103.552C216.991 103.2 217.039 102.704 217.039 102.064C217.039 101.413 216.991 100.912 216.895 100.56C216.799 100.208 216.633 99.9627 216.399 99.824C216.164 99.6853 215.844 99.616 215.439 99.616ZM228.745 97.888C229.407 97.888 229.967 97.9787 230.425 98.16C230.884 98.3307 231.231 98.6293 231.465 99.056C231.711 99.472 231.833 100.048 231.833 100.784V106H229.945L229.609 104.288L229.449 104.048V100.768C229.449 100.395 229.359 100.123 229.177 99.952C229.007 99.7813 228.676 99.696 228.185 99.696C227.78 99.696 227.273 99.712 226.665 99.744C226.057 99.7653 225.433 99.7973 224.793 99.84L224.569 98.272C224.953 98.1973 225.396 98.1333 225.897 98.08C226.399 98.0267 226.9 97.984 227.401 97.952C227.903 97.9093 228.351 97.888 228.745 97.888ZM230.857 101.136L230.841 102.464L227.321 102.48C227.033 102.48 226.825 102.549 226.697 102.688C226.58 102.827 226.521 103.013 226.521 103.248V103.632C226.521 103.899 226.596 104.107 226.745 104.256C226.895 104.395 227.135 104.464 227.465 104.464C227.743 104.464 228.041 104.405 228.361 104.288C228.692 104.171 229.017 104.005 229.337 103.792C229.657 103.579 229.94 103.328 230.185 103.04V104.064C230.089 104.224 229.945 104.427 229.753 104.672C229.572 104.907 229.337 105.141 229.049 105.376C228.761 105.6 228.425 105.792 228.041 105.952C227.657 106.112 227.22 106.192 226.729 106.192C226.249 106.192 225.817 106.107 225.433 105.936C225.049 105.765 224.745 105.515 224.521 105.184C224.297 104.853 224.185 104.443 224.185 103.952V103.136C224.185 102.507 224.399 102.016 224.825 101.664C225.252 101.312 225.839 101.136 226.585 101.136H230.857ZM238.894 97.904C239.886 97.904 240.596 98.2667 241.022 98.992C241.449 99.7173 241.662 100.757 241.662 102.112C241.662 103.168 241.55 103.995 241.326 104.592C241.113 105.189 240.782 105.611 240.334 105.856C239.897 106.091 239.348 106.208 238.686 106.208C238.121 106.208 237.582 106.128 237.07 105.968C236.558 105.808 236.105 105.541 235.71 105.168L235.87 104.112C236.222 104.219 236.542 104.315 236.83 104.4C237.129 104.475 237.465 104.512 237.838 104.512C238.18 104.512 238.452 104.453 238.654 104.336C238.857 104.219 239.001 103.989 239.086 103.648C239.182 103.296 239.23 102.789 239.23 102.128C239.23 101.477 239.188 100.981 239.102 100.64C239.017 100.288 238.878 100.048 238.686 99.92C238.494 99.7813 238.244 99.712 237.934 99.712C237.593 99.712 237.278 99.7813 236.99 99.92C236.702 100.048 236.377 100.235 236.014 100.48L235.71 99.392C235.924 99.104 236.196 98.848 236.526 98.624C236.868 98.4 237.241 98.224 237.646 98.096C238.052 97.968 238.468 97.904 238.894 97.904ZM235.614 98.096L235.838 99.536L236.062 99.776V104.912L235.982 105.104C236.014 105.424 236.036 105.755 236.046 106.096C236.068 106.448 236.073 106.795 236.062 107.136V109.04H233.694V98.096H235.614ZM247.032 97.888C248.365 97.888 249.32 98.1173 249.896 98.576C250.483 99.024 250.776 99.696 250.776 100.592C250.787 101.317 250.605 101.861 250.232 102.224C249.859 102.576 249.213 102.752 248.296 102.752H243.88V101.424H247.64C248.003 101.424 248.232 101.349 248.328 101.2C248.435 101.04 248.488 100.821 248.488 100.544C248.477 100.171 248.365 99.9147 248.152 99.776C247.949 99.6267 247.603 99.552 247.112 99.552C246.675 99.552 246.333 99.6107 246.088 99.728C245.843 99.8453 245.672 100.069 245.576 100.4C245.48 100.731 245.432 101.211 245.432 101.84C245.432 102.501 245.491 103.013 245.608 103.376C245.725 103.728 245.923 103.973 246.2 104.112C246.488 104.251 246.883 104.32 247.384 104.32C247.747 104.32 248.195 104.309 248.728 104.288C249.272 104.256 249.816 104.208 250.36 104.144L250.584 105.6C250.275 105.749 249.923 105.867 249.528 105.952C249.133 106.037 248.728 106.096 248.312 106.128C247.896 106.171 247.496 106.192 247.112 106.192C246.109 106.192 245.299 106.048 244.68 105.76C244.072 105.461 243.629 105.008 243.352 104.4C243.085 103.792 242.952 103.013 242.952 102.064C242.952 101.029 243.091 100.208 243.368 99.6C243.645 98.992 244.083 98.5547 244.68 98.288C245.277 98.0213 246.061 97.888 247.032 97.888ZM257.823 97.888C259.317 97.888 260.063 98.6187 260.063 100.08V106H257.695V100.816C257.695 100.464 257.631 100.224 257.503 100.096C257.375 99.9573 257.157 99.888 256.847 99.888C256.506 99.888 256.154 99.9573 255.791 100.096C255.429 100.224 254.981 100.427 254.447 100.704L254.335 99.376C254.901 98.896 255.477 98.528 256.063 98.272C256.661 98.016 257.247 97.888 257.823 97.888ZM254.223 98.096L254.495 99.664L254.687 99.872V106H252.319V98.096H254.223ZM266.105 97.888C266.766 97.888 267.326 97.9787 267.785 98.16C268.243 98.3307 268.59 98.6293 268.825 99.056C269.07 99.472 269.193 100.048 269.193 100.784V106H267.305L266.969 104.288L266.809 104.048V100.768C266.809 100.395 266.718 100.123 266.537 99.952C266.366 99.7813 266.035 99.696 265.545 99.696C265.139 99.696 264.633 99.712 264.025 99.744C263.417 99.7653 262.793 99.7973 262.153 99.84L261.929 98.272C262.313 98.1973 262.755 98.1333 263.257 98.08C263.758 98.0267 264.259 97.984 264.761 97.952C265.262 97.9093 265.71 97.888 266.105 97.888ZM268.217 101.136L268.201 102.464L264.681 102.48C264.393 102.48 264.185 102.549 264.057 102.688C263.939 102.827 263.881 103.013 263.881 103.248V103.632C263.881 103.899 263.955 104.107 264.105 104.256C264.254 104.395 264.494 104.464 264.825 104.464C265.102 104.464 265.401 104.405 265.721 104.288C266.051 104.171 266.377 104.005 266.697 103.792C267.017 103.579 267.299 103.328 267.545 103.04V104.064C267.449 104.224 267.305 104.427 267.113 104.672C266.931 104.907 266.697 105.141 266.409 105.376C266.121 105.6 265.785 105.792 265.401 105.952C265.017 106.112 264.579 106.192 264.089 106.192C263.609 106.192 263.177 106.107 262.793 105.936C262.409 105.765 262.105 105.515 261.881 105.184C261.657 104.853 261.545 104.443 261.545 103.952V103.136C261.545 102.507 261.758 102.016 262.185 101.664C262.611 101.312 263.198 101.136 263.945 101.136H268.217ZM274.062 97.888C274.446 97.888 274.862 97.904 275.31 97.936C275.758 97.9573 276.195 97.9893 276.622 98.032C277.048 98.0747 277.427 98.128 277.758 98.192L277.598 99.664C277.086 99.6533 276.568 99.648 276.046 99.648C275.534 99.6373 275.032 99.632 274.542 99.632C274.126 99.6213 273.806 99.6267 273.582 99.648C273.358 99.6693 273.198 99.7227 273.102 99.808C273.016 99.8827 272.974 100.021 272.974 100.224C272.974 100.459 273.054 100.619 273.214 100.704C273.374 100.779 273.64 100.864 274.014 100.96L276.078 101.456C276.739 101.627 277.23 101.883 277.55 102.224C277.87 102.555 278.03 103.056 278.03 103.728C278.03 104.389 277.907 104.896 277.662 105.248C277.416 105.6 277.027 105.845 276.494 105.984C275.96 106.112 275.272 106.176 274.43 106.176C274.099 106.176 273.608 106.16 272.958 106.128C272.307 106.096 271.592 106.016 270.814 105.888L270.974 104.416C271.166 104.427 271.411 104.437 271.71 104.448C272.008 104.448 272.334 104.448 272.686 104.448C273.038 104.448 273.39 104.448 273.742 104.448C274.286 104.448 274.702 104.437 274.99 104.416C275.278 104.384 275.475 104.32 275.582 104.224C275.688 104.128 275.742 103.984 275.742 103.792C275.742 103.557 275.651 103.397 275.47 103.312C275.288 103.227 275 103.136 274.606 103.04L272.606 102.544C272.104 102.405 271.715 102.229 271.438 102.016C271.16 101.803 270.963 101.541 270.846 101.232C270.739 100.923 270.686 100.555 270.686 100.128C270.686 99.584 270.792 99.152 271.006 98.832C271.23 98.5013 271.587 98.2613 272.078 98.112C272.579 97.9627 273.24 97.888 274.062 97.888ZM285.423 98.096V106H283.071V98.096H285.423ZM284.767 94.608C285.236 94.608 285.471 94.848 285.471 95.328V96.176C285.471 96.656 285.236 96.896 284.767 96.896H283.743C283.274 96.896 283.039 96.656 283.039 96.176V95.328C283.039 94.848 283.274 94.608 283.743 94.608H284.767ZM292.933 97.888C294.426 97.888 295.173 98.6187 295.173 100.08V106H292.805V100.816C292.805 100.464 292.741 100.224 292.613 100.096C292.485 99.9573 292.266 99.888 291.957 99.888C291.615 99.888 291.263 99.9573 290.901 100.096C290.538 100.224 290.09 100.427 289.557 100.704L289.445 99.376C290.01 98.896 290.586 98.528 291.173 98.272C291.77 98.016 292.357 97.888 292.933 97.888ZM289.333 98.096L289.605 99.664L289.797 99.872V106H287.429V98.096H289.333ZM300.35 94.464C300.542 94.464 300.793 94.4693 301.102 94.48C301.422 94.4907 301.742 94.512 302.062 94.544C302.393 94.5653 302.675 94.5973 302.91 94.64L302.702 96.16H301.198C300.793 96.16 300.51 96.24 300.35 96.4C300.19 96.56 300.11 96.8373 300.11 97.232V106H297.742V96.928C297.742 96.4267 297.822 95.9947 297.982 95.632C298.153 95.2693 298.43 94.9867 298.814 94.784C299.198 94.5707 299.71 94.464 300.35 94.464ZM302.318 98.096V99.648H296.366V98.176L297.79 98.096H302.318ZM307.173 97.888C308.165 97.888 308.96 98.0267 309.557 98.304C310.154 98.5707 310.581 99.008 310.837 99.616C311.104 100.224 311.237 101.04 311.237 102.064C311.237 103.067 311.104 103.872 310.837 104.48C310.581 105.088 310.154 105.525 309.557 105.792C308.96 106.059 308.165 106.192 307.173 106.192C306.192 106.192 305.397 106.059 304.789 105.792C304.192 105.525 303.76 105.088 303.493 104.48C303.226 103.872 303.093 103.067 303.093 102.064C303.093 101.04 303.226 100.224 303.493 99.616C303.76 99.008 304.192 98.5707 304.789 98.304C305.397 98.0267 306.192 97.888 307.173 97.888ZM307.173 99.616C306.768 99.616 306.448 99.6853 306.213 99.824C305.978 99.9627 305.813 100.208 305.717 100.56C305.621 100.912 305.573 101.413 305.573 102.064C305.573 102.704 305.621 103.2 305.717 103.552C305.813 103.904 305.978 104.149 306.213 104.288C306.448 104.416 306.768 104.48 307.173 104.48C307.578 104.48 307.898 104.416 308.133 104.288C308.368 104.149 308.533 103.904 308.629 103.552C308.725 103.2 308.773 102.704 308.773 102.064C308.773 101.413 308.725 100.912 308.629 100.56C308.533 100.208 308.368 99.9627 308.133 99.824C307.898 99.6853 307.578 99.616 307.173 99.616ZM314.707 98.096L314.995 99.664L315.219 99.872V106H312.851V98.096H314.707ZM318.563 97.888L318.339 100.08H317.683C317.309 100.08 316.92 100.133 316.515 100.24C316.109 100.347 315.597 100.507 314.979 100.72L314.819 99.392C315.373 98.9013 315.933 98.528 316.499 98.272C317.064 98.016 317.613 97.888 318.147 97.888H318.563ZM329.695 97.888C330.409 97.888 330.953 98.0747 331.327 98.448C331.7 98.8213 331.887 99.3653 331.887 100.08V106H329.535V100.816C329.535 100.485 329.471 100.251 329.343 100.112C329.215 99.9627 328.991 99.888 328.671 99.888C328.479 99.888 328.297 99.9147 328.127 99.968C327.956 100.021 327.759 100.107 327.535 100.224C327.311 100.341 327.039 100.501 326.719 100.704L326.591 99.392C327.103 98.8907 327.604 98.5173 328.095 98.272C328.596 98.016 329.129 97.888 329.695 97.888ZM321.567 98.096L321.807 99.664L322.047 99.872V106H319.679V98.096H321.567ZM324.767 97.888C325.471 97.888 326.004 98.0747 326.367 98.448C326.74 98.8107 326.927 99.3547 326.927 100.08V106H324.655V100.816C324.655 100.475 324.58 100.235 324.431 100.096C324.292 99.9573 324.073 99.888 323.775 99.888C323.593 99.888 323.412 99.9147 323.231 99.968C323.06 100.011 322.857 100.091 322.623 100.208C322.399 100.325 322.121 100.491 321.791 100.704L321.647 99.392C322.169 98.8907 322.676 98.5173 323.167 98.272C323.657 98.016 324.191 97.888 324.767 97.888ZM337.949 97.888C338.61 97.888 339.17 97.9787 339.629 98.16C340.087 98.3307 340.434 98.6293 340.669 99.056C340.914 99.472 341.036 100.048 341.036 100.784V106H339.149L338.813 104.288L338.653 104.048V100.768C338.653 100.395 338.562 100.123 338.381 99.952C338.21 99.7813 337.879 99.696 337.389 99.696C336.983 99.696 336.477 99.712 335.869 99.744C335.261 99.7653 334.637 99.7973 333.997 99.84L333.773 98.272C334.157 98.1973 334.599 98.1333 335.101 98.08C335.602 98.0267 336.103 97.984 336.605 97.952C337.106 97.9093 337.554 97.888 337.949 97.888ZM340.061 101.136L340.045 102.464L336.525 102.48C336.237 102.48 336.029 102.549 335.901 102.688C335.783 102.827 335.725 103.013 335.725 103.248V103.632C335.725 103.899 335.799 104.107 335.949 104.256C336.098 104.395 336.338 104.464 336.669 104.464C336.946 104.464 337.245 104.405 337.565 104.288C337.895 104.171 338.221 104.005 338.541 103.792C338.861 103.579 339.143 103.328 339.389 103.04V104.064C339.293 104.224 339.149 104.427 338.957 104.672C338.775 104.907 338.541 105.141 338.253 105.376C337.965 105.6 337.629 105.792 337.245 105.952C336.861 106.112 336.423 106.192 335.933 106.192C335.453 106.192 335.021 106.107 334.637 105.936C334.253 105.765 333.949 105.515 333.725 105.184C333.501 104.853 333.389 104.443 333.389 103.952V103.136C333.389 102.507 333.602 102.016 334.029 101.664C334.455 101.312 335.042 101.136 335.789 101.136H340.061ZM346.578 97.888C346.866 97.888 347.18 97.904 347.522 97.936C347.863 97.9573 348.204 98.0053 348.546 98.08C348.898 98.144 349.218 98.24 349.506 98.368L349.25 99.856C348.823 99.8453 348.412 99.8347 348.018 99.824C347.634 99.8133 347.287 99.808 346.978 99.808C346.498 99.808 346.119 99.872 345.842 100C345.564 100.128 345.362 100.357 345.234 100.688C345.116 101.008 345.058 101.456 345.058 102.032C345.058 102.619 345.116 103.077 345.234 103.408C345.362 103.739 345.564 103.968 345.842 104.096C346.119 104.224 346.498 104.288 346.978 104.288C347.148 104.288 347.367 104.283 347.634 104.272C347.9 104.261 348.188 104.251 348.498 104.24C348.807 104.219 349.111 104.187 349.41 104.144L349.634 105.648C349.207 105.84 348.722 105.979 348.178 106.064C347.634 106.149 347.095 106.192 346.562 106.192C345.58 106.192 344.796 106.059 344.21 105.792C343.634 105.515 343.218 105.072 342.962 104.464C342.706 103.856 342.578 103.045 342.578 102.032C342.578 101.019 342.706 100.208 342.962 99.6C343.228 98.992 343.655 98.5547 344.242 98.288C344.828 98.0213 345.607 97.888 346.578 97.888ZM345.474 106.848C346.018 106.784 346.46 106.763 346.802 106.784C347.143 106.816 347.394 106.912 347.554 107.072C347.714 107.243 347.788 107.515 347.778 107.888C347.756 108.421 347.602 108.859 347.314 109.2C347.026 109.552 346.642 109.797 346.161 109.936C345.682 110.075 345.148 110.107 344.562 110.032L344.834 109.04C345.228 109.051 345.559 108.981 345.826 108.832C346.103 108.693 346.252 108.448 346.274 108.096C346.295 107.936 346.236 107.84 346.098 107.808C345.97 107.776 345.687 107.755 345.25 107.744L345.474 106.848ZM354.704 97.888C355.696 97.888 356.491 98.0267 357.088 98.304C357.686 98.5707 358.112 99.008 358.368 99.616C358.635 100.224 358.768 101.04 358.768 102.064C358.768 103.067 358.635 103.872 358.368 104.48C358.112 105.088 357.686 105.525 357.088 105.792C356.491 106.059 355.696 106.192 354.704 106.192C353.723 106.192 352.928 106.059 352.32 105.792C351.723 105.525 351.291 105.088 351.024 104.48C350.758 103.872 350.624 103.067 350.624 102.064C350.624 101.04 350.758 100.224 351.024 99.616C351.291 99.008 351.723 98.5707 352.32 98.304C352.928 98.0267 353.723 97.888 354.704 97.888ZM354.704 99.616C354.299 99.616 353.979 99.6853 353.744 99.824C353.51 99.9627 353.344 100.208 353.248 100.56C353.152 100.912 353.104 101.413 353.104 102.064C353.104 102.704 353.152 103.2 353.248 103.552C353.344 103.904 353.51 104.149 353.744 104.288C353.979 104.416 354.299 104.48 354.704 104.48C355.11 104.48 355.43 104.416 355.664 104.288C355.899 104.149 356.064 103.904 356.16 103.552C356.256 103.2 356.304 102.704 356.304 102.064C356.304 101.413 356.256 100.912 356.16 100.56C356.064 100.208 355.899 99.9627 355.664 99.824C355.43 99.6853 355.11 99.616 354.704 99.616ZM353.216 94.576C353.483 94.5973 353.723 94.6453 353.936 94.72C354.15 94.784 354.352 94.8587 354.544 94.944C354.747 95.0293 354.944 95.1147 355.136 95.2C355.339 95.2747 355.547 95.328 355.76 95.36C356.038 95.4027 356.208 95.3653 356.272 95.248C356.347 95.1307 356.384 94.9333 356.384 94.656H357.408C357.526 95.4133 357.451 95.9893 357.184 96.384C356.918 96.768 356.555 96.944 356.096 96.912C355.734 96.88 355.403 96.8107 355.104 96.704C354.816 96.5867 354.544 96.4693 354.288 96.352C354.043 96.224 353.792 96.144 353.536 96.112C353.27 96.08 353.099 96.1227 353.024 96.24C352.96 96.3573 352.928 96.56 352.928 96.848H351.904C351.83 96.3147 351.846 95.8773 351.952 95.536C352.059 95.1947 352.23 94.944 352.464 94.784C352.699 94.624 352.95 94.5547 353.216 94.576ZM364.126 97.888C365.459 97.888 366.414 98.1173 366.99 98.576C367.577 99.024 367.87 99.696 367.87 100.592C367.881 101.317 367.699 101.861 367.326 102.224C366.953 102.576 366.307 102.752 365.39 102.752H360.974V101.424H364.734C365.097 101.424 365.326 101.349 365.422 101.2C365.529 101.04 365.582 100.821 365.582 100.544C365.571 100.171 365.459 99.9147 365.246 99.776C365.043 99.6267 364.697 99.552 364.206 99.552C363.769 99.552 363.427 99.6107 363.182 99.728C362.937 99.8453 362.766 100.069 362.67 100.4C362.574 100.731 362.526 101.211 362.526 101.84C362.526 102.501 362.585 103.013 362.702 103.376C362.819 103.728 363.017 103.973 363.294 104.112C363.582 104.251 363.977 104.32 364.478 104.32C364.841 104.32 365.289 104.309 365.822 104.288C366.366 104.256 366.91 104.208 367.454 104.144L367.678 105.6C367.369 105.749 367.017 105.867 366.622 105.952C366.227 106.037 365.822 106.096 365.406 106.128C364.99 106.171 364.59 106.192 364.206 106.192C363.203 106.192 362.393 106.048 361.774 105.76C361.166 105.461 360.723 105.008 360.446 104.4C360.179 103.792 360.046 103.013 360.046 102.064C360.046 101.029 360.185 100.208 360.462 99.6C360.739 98.992 361.177 98.5547 361.774 98.288C362.371 98.0213 363.155 97.888 364.126 97.888ZM372.421 97.888C372.805 97.888 373.221 97.904 373.669 97.936C374.117 97.9573 374.554 97.9893 374.981 98.032C375.408 98.0747 375.786 98.128 376.117 98.192L375.957 99.664C375.445 99.6533 374.928 99.648 374.405 99.648C373.893 99.6373 373.392 99.632 372.901 99.632C372.485 99.6213 372.165 99.6267 371.941 99.648C371.717 99.6693 371.557 99.7227 371.461 99.808C371.376 99.8827 371.333 100.021 371.333 100.224C371.333 100.459 371.413 100.619 371.573 100.704C371.733 100.779 372 100.864 372.373 100.96L374.437 101.456C375.098 101.627 375.589 101.883 375.909 102.224C376.229 102.555 376.389 103.056 376.389 103.728C376.389 104.389 376.266 104.896 376.021 105.248C375.776 105.6 375.386 105.845 374.853 105.984C374.32 106.112 373.632 106.176 372.789 106.176C372.458 106.176 371.968 106.16 371.317 106.128C370.666 106.096 369.952 106.016 369.173 105.888L369.333 104.416C369.525 104.427 369.77 104.437 370.069 104.448C370.368 104.448 370.693 104.448 371.045 104.448C371.397 104.448 371.749 104.448 372.101 104.448C372.645 104.448 373.061 104.437 373.349 104.416C373.637 104.384 373.834 104.32 373.941 104.224C374.048 104.128 374.101 103.984 374.101 103.792C374.101 103.557 374.01 103.397 373.829 103.312C373.648 103.227 373.36 103.136 372.965 103.04L370.965 102.544C370.464 102.405 370.074 102.229 369.797 102.016C369.52 101.803 369.322 101.541 369.205 101.232C369.098 100.923 369.045 100.555 369.045 100.128C369.045 99.584 369.152 99.152 369.365 98.832C369.589 98.5013 369.946 98.2613 370.437 98.112C370.938 97.9627 371.6 97.888 372.421 97.888ZM384.374 97.888C384.758 97.888 385.174 97.904 385.622 97.936C386.07 97.9573 386.508 97.9893 386.934 98.032C387.361 98.0747 387.74 98.128 388.07 98.192L387.91 99.664C387.398 99.6533 386.881 99.648 386.358 99.648C385.846 99.6373 385.345 99.632 384.854 99.632C384.438 99.6213 384.118 99.6267 383.894 99.648C383.67 99.6693 383.51 99.7227 383.414 99.808C383.329 99.8827 383.286 100.021 383.286 100.224C383.286 100.459 383.366 100.619 383.526 100.704C383.686 100.779 383.953 100.864 384.326 100.96L386.39 101.456C387.052 101.627 387.542 101.883 387.862 102.224C388.182 102.555 388.342 103.056 388.342 103.728C388.342 104.389 388.22 104.896 387.974 105.248C387.729 105.6 387.34 105.845 386.806 105.984C386.273 106.112 385.585 106.176 384.742 106.176C384.412 106.176 383.921 106.16 383.27 106.128C382.62 106.096 381.905 106.016 381.126 105.888L381.286 104.416C381.478 104.427 381.724 104.437 382.022 104.448C382.321 104.448 382.646 104.448 382.998 104.448C383.35 104.448 383.702 104.448 384.054 104.448C384.598 104.448 385.014 104.437 385.302 104.416C385.59 104.384 385.788 104.32 385.894 104.224C386.001 104.128 386.054 103.984 386.054 103.792C386.054 103.557 385.964 103.397 385.782 103.312C385.601 103.227 385.313 103.136 384.918 103.04L382.918 102.544C382.417 102.405 382.028 102.229 381.75 102.016C381.473 101.803 381.276 101.541 381.158 101.232C381.052 100.923 380.998 100.555 380.998 100.128C380.998 99.584 381.105 99.152 381.318 98.832C381.542 98.5013 381.9 98.2613 382.39 98.112C382.892 97.9627 383.553 97.888 384.374 97.888ZM393.626 97.888C394.618 97.888 395.413 98.0267 396.01 98.304C396.608 98.5707 397.034 99.008 397.29 99.616C397.557 100.224 397.69 101.04 397.69 102.064C397.69 103.067 397.557 103.872 397.29 104.48C397.034 105.088 396.608 105.525 396.01 105.792C395.413 106.059 394.618 106.192 393.626 106.192C392.645 106.192 391.85 106.059 391.242 105.792C390.645 105.525 390.213 105.088 389.946 104.48C389.68 103.872 389.546 103.067 389.546 102.064C389.546 101.04 389.68 100.224 389.946 99.616C390.213 99.008 390.645 98.5707 391.242 98.304C391.85 98.0267 392.645 97.888 393.626 97.888ZM393.626 99.616C393.221 99.616 392.901 99.6853 392.666 99.824C392.432 99.9627 392.266 100.208 392.17 100.56C392.074 100.912 392.026 101.413 392.026 102.064C392.026 102.704 392.074 103.2 392.17 103.552C392.266 103.904 392.432 104.149 392.666 104.288C392.901 104.416 393.221 104.48 393.626 104.48C394.032 104.48 394.352 104.416 394.586 104.288C394.821 104.149 394.986 103.904 395.082 103.552C395.178 103.2 395.226 102.704 395.226 102.064C395.226 101.413 395.178 100.912 395.082 100.56C394.986 100.208 394.821 99.9627 394.586 99.824C394.352 99.6853 394.032 99.616 393.626 99.616ZM402.984 97.888C403.272 97.888 403.586 97.904 403.928 97.936C404.269 97.9573 404.61 98.0053 404.952 98.08C405.304 98.144 405.624 98.24 405.912 98.368L405.656 99.856C405.229 99.8453 404.818 99.8347 404.424 99.824C404.04 99.8133 403.693 99.808 403.384 99.808C402.904 99.808 402.525 99.872 402.248 100C401.97 100.128 401.768 100.357 401.64 100.688C401.522 101.008 401.464 101.456 401.464 102.032C401.464 102.619 401.522 103.077 401.64 103.408C401.768 103.739 401.97 103.968 402.248 104.096C402.525 104.224 402.904 104.288 403.384 104.288C403.554 104.288 403.773 104.283 404.04 104.272C404.306 104.261 404.594 104.251 404.904 104.24C405.213 104.219 405.517 104.187 405.816 104.144L406.04 105.648C405.613 105.84 405.128 105.979 404.584 106.064C404.04 106.149 403.501 106.192 402.968 106.192C401.986 106.192 401.202 106.059 400.616 105.792C400.04 105.515 399.624 105.072 399.368 104.464C399.112 103.856 398.984 103.045 398.984 102.032C398.984 101.019 399.112 100.208 399.368 99.6C399.634 98.992 400.061 98.5547 400.648 98.288C401.234 98.0213 402.013 97.888 402.984 97.888ZM409.86 98.096V106H407.508V98.096H409.86ZM409.204 94.608C409.674 94.608 409.908 94.848 409.908 95.328V96.176C409.908 96.656 409.674 96.896 409.204 96.896H408.18C407.711 96.896 407.476 96.656 407.476 96.176V95.328C407.476 94.848 407.711 94.608 408.18 94.608H409.204ZM415.61 97.888C416.944 97.888 417.898 98.1173 418.474 98.576C419.061 99.024 419.354 99.696 419.354 100.592C419.365 101.317 419.184 101.861 418.81 102.224C418.437 102.576 417.792 102.752 416.874 102.752H412.458V101.424H416.218C416.581 101.424 416.81 101.349 416.906 101.2C417.013 101.04 417.066 100.821 417.066 100.544C417.056 100.171 416.944 99.9147 416.73 99.776C416.528 99.6267 416.181 99.552 415.69 99.552C415.253 99.552 414.912 99.6107 414.666 99.728C414.421 99.8453 414.25 100.069 414.154 100.4C414.058 100.731 414.01 101.211 414.01 101.84C414.01 102.501 414.069 103.013 414.186 103.376C414.304 103.728 414.501 103.973 414.778 104.112C415.066 104.251 415.461 104.32 415.962 104.32C416.325 104.32 416.773 104.309 417.306 104.288C417.85 104.256 418.394 104.208 418.938 104.144L419.162 105.6C418.853 105.749 418.501 105.867 418.106 105.952C417.712 106.037 417.306 106.096 416.89 106.128C416.474 106.171 416.074 106.192 415.69 106.192C414.688 106.192 413.877 106.048 413.258 105.76C412.65 105.461 412.208 105.008 411.93 104.4C411.664 103.792 411.53 103.013 411.53 102.064C411.53 101.029 411.669 100.208 411.946 99.6C412.224 98.992 412.661 98.5547 413.258 98.288C413.856 98.0213 414.64 97.888 415.61 97.888ZM423.986 95.904V103.472C423.986 103.76 424.05 103.968 424.178 104.096C424.316 104.213 424.54 104.272 424.85 104.272H425.874L426.13 105.872C425.938 105.936 425.703 105.989 425.426 106.032C425.148 106.085 424.871 106.123 424.594 106.144C424.316 106.176 424.082 106.192 423.89 106.192C423.175 106.192 422.615 106 422.21 105.616C421.815 105.232 421.618 104.693 421.618 104L421.602 95.904H423.986ZM426.194 98.096V99.648H420.226V98.176L421.762 98.096H426.194ZM431.636 97.888C432.297 97.888 432.857 97.9787 433.316 98.16C433.775 98.3307 434.121 98.6293 434.356 99.056C434.601 99.472 434.724 100.048 434.724 100.784V106H432.836L432.5 104.288L432.34 104.048V100.768C432.34 100.395 432.249 100.123 432.068 99.952C431.897 99.7813 431.567 99.696 431.076 99.696C430.671 99.696 430.164 99.712 429.556 99.744C428.948 99.7653 428.324 99.7973 427.684 99.84L427.46 98.272C427.844 98.1973 428.287 98.1333 428.788 98.08C429.289 98.0267 429.791 97.984 430.292 97.952C430.793 97.9093 431.241 97.888 431.636 97.888ZM433.748 101.136L433.732 102.464L430.212 102.48C429.924 102.48 429.716 102.549 429.588 102.688C429.471 102.827 429.412 103.013 429.412 103.248V103.632C429.412 103.899 429.487 104.107 429.636 104.256C429.785 104.395 430.025 104.464 430.356 104.464C430.633 104.464 430.932 104.405 431.252 104.288C431.583 104.171 431.908 104.005 432.228 103.792C432.548 103.579 432.831 103.328 433.076 103.04V104.064C432.98 104.224 432.836 104.427 432.644 104.672C432.463 104.907 432.228 105.141 431.94 105.376C431.652 105.6 431.316 105.792 430.932 105.952C430.548 106.112 430.111 106.192 429.62 106.192C429.14 106.192 428.708 106.107 428.324 105.936C427.94 105.765 427.636 105.515 427.412 105.184C427.188 104.853 427.076 104.443 427.076 103.952V103.136C427.076 102.507 427.289 102.016 427.716 101.664C428.143 101.312 428.729 101.136 429.476 101.136H433.748ZM432.964 93.776L433.988 95.376L430.42 97.152L429.716 96.144L432.964 93.776ZM438.441 98.096L438.729 99.664L438.953 99.872V106H436.585V98.096H438.441ZM442.297 97.888L442.073 100.08H441.417C441.044 100.08 440.654 100.133 440.249 100.24C439.844 100.347 439.332 100.507 438.713 100.72L438.553 99.392C439.108 98.9013 439.668 98.528 440.233 98.272C440.798 98.016 441.348 97.888 441.881 97.888H442.297ZM445.829 98.096V106H443.477V98.096H445.829ZM445.173 94.608C445.642 94.608 445.877 94.848 445.877 95.328V96.176C445.877 96.656 445.642 96.896 445.173 96.896H444.149C443.68 96.896 443.445 96.656 443.445 96.176V95.328C443.445 94.848 443.68 94.608 444.149 94.608H445.173ZM452.011 97.888C452.672 97.888 453.232 97.9787 453.691 98.16C454.15 98.3307 454.496 98.6293 454.731 99.056C454.976 99.472 455.099 100.048 455.099 100.784V106H453.211L452.875 104.288L452.715 104.048V100.768C452.715 100.395 452.624 100.123 452.443 99.952C452.272 99.7813 451.942 99.696 451.451 99.696C451.046 99.696 450.539 99.712 449.931 99.744C449.323 99.7653 448.699 99.7973 448.059 99.84L447.835 98.272C448.219 98.1973 448.662 98.1333 449.163 98.08C449.664 98.0267 450.166 97.984 450.667 97.952C451.168 97.9093 451.616 97.888 452.011 97.888ZM454.123 101.136L454.107 102.464L450.587 102.48C450.299 102.48 450.091 102.549 449.963 102.688C449.846 102.827 449.787 103.013 449.787 103.248V103.632C449.787 103.899 449.862 104.107 450.011 104.256C450.16 104.395 450.4 104.464 450.731 104.464C451.008 104.464 451.307 104.405 451.627 104.288C451.958 104.171 452.283 104.005 452.603 103.792C452.923 103.579 453.206 103.328 453.451 103.04V104.064C453.355 104.224 453.211 104.427 453.019 104.672C452.838 104.907 452.603 105.141 452.315 105.376C452.027 105.6 451.691 105.792 451.307 105.952C450.923 106.112 450.486 106.192 449.995 106.192C449.515 106.192 449.083 106.107 448.699 105.936C448.315 105.765 448.011 105.515 447.787 105.184C447.563 104.853 447.451 104.443 447.451 103.952V103.136C447.451 102.507 447.664 102.016 448.091 101.664C448.518 101.312 449.104 101.136 449.851 101.136H454.123ZM459.968 97.888C460.352 97.888 460.768 97.904 461.216 97.936C461.664 97.9573 462.101 97.9893 462.528 98.032C462.955 98.0747 463.333 98.128 463.664 98.192L463.504 99.664C462.992 99.6533 462.475 99.648 461.952 99.648C461.44 99.6373 460.939 99.632 460.448 99.632C460.032 99.6213 459.712 99.6267 459.488 99.648C459.264 99.6693 459.104 99.7227 459.008 99.808C458.923 99.8827 458.88 100.021 458.88 100.224C458.88 100.459 458.96 100.619 459.12 100.704C459.28 100.779 459.547 100.864 459.92 100.96L461.984 101.456C462.645 101.627 463.136 101.883 463.456 102.224C463.776 102.555 463.936 103.056 463.936 103.728C463.936 104.389 463.813 104.896 463.568 105.248C463.323 105.6 462.933 105.845 462.4 105.984C461.867 106.112 461.179 106.176 460.336 106.176C460.005 106.176 459.515 106.16 458.864 106.128C458.213 106.096 457.499 106.016 456.72 105.888L456.88 104.416C457.072 104.427 457.317 104.437 457.616 104.448C457.915 104.448 458.24 104.448 458.592 104.448C458.944 104.448 459.296 104.448 459.648 104.448C460.192 104.448 460.608 104.437 460.896 104.416C461.184 104.384 461.381 104.32 461.488 104.224C461.595 104.128 461.648 103.984 461.648 103.792C461.648 103.557 461.557 103.397 461.376 103.312C461.195 103.227 460.907 103.136 460.512 103.04L458.512 102.544C458.011 102.405 457.621 102.229 457.344 102.016C457.067 101.803 456.869 101.541 456.752 101.232C456.645 100.923 456.592 100.555 456.592 100.128C456.592 99.584 456.699 99.152 456.912 98.832C457.136 98.5013 457.493 98.2613 457.984 98.112C458.485 97.9627 459.147 97.888 459.968 97.888ZM466.756 103.568C467.065 103.568 467.279 103.632 467.396 103.76C467.524 103.877 467.588 104.091 467.588 104.4V105.168C467.588 105.477 467.524 105.696 467.396 105.824C467.279 105.941 467.065 106 466.756 106H466.148C465.839 106 465.62 105.941 465.492 105.824C465.375 105.696 465.316 105.477 465.316 105.168V104.4C465.316 104.091 465.375 103.877 465.492 103.76C465.62 103.632 465.839 103.568 466.148 103.568H466.756Z" fill="#023047" fill-opacity="0.72"/>
</g>
<rect width="1920" height="89" fill="white"/>
<path d="M0 -9.65086e-05V89.0332H271.028L307 -9.65086e-05H0Z" fill="#003A69"/>
<path d="M175.01 54.2131H177.169V64.2302H182.027V66.0376H175.01V54.2131ZM169.877 61.055L168.949 58.143C168.72 57.4244 168.528 56.6162 168.353 55.9323H168.315C168.14 56.6162 167.965 57.4403 167.754 58.143L166.842 61.055H169.877ZM166.491 62.686L165.474 66.0376H163.246L167.034 54.2131H169.792L173.632 66.0376H171.316L170.246 62.686H166.491ZM158.71 56.0205H155.341V54.2131H164.271V56.0205H160.868V66.0376H158.71V56.0205ZM153.773 60.7919H149.315V64.2664H154.298V66.0376H147.158V54.2131H154.034V55.9843H149.315V59.038H153.773V60.7919ZM142.903 61.2127C142.832 59.6872 142.745 57.8452 142.762 56.2475H142.709C142.323 57.6861 141.833 59.2838 141.305 60.7745L139.587 65.8973H137.92L136.341 60.8454C135.884 59.3359 135.463 57.7223 135.148 56.2475H135.114C135.06 57.7917 134.989 59.6684 134.902 61.2849L134.639 66.0376H132.622L133.412 54.2131H136.253L137.797 58.9672C138.218 60.3538 138.587 61.7577 138.884 63.0721H138.936C139.253 61.7924 139.657 60.335 140.113 58.9498L141.744 54.2131H144.551L145.236 66.0376H143.131L142.903 61.2127ZM124.005 63.6866C124.708 64.09 125.76 64.4413 126.865 64.4413C128.25 64.4413 129.022 63.7921 129.022 62.8277C129.022 61.9327 128.425 61.4064 126.917 60.8627C124.969 60.16 123.724 59.1248 123.724 57.4244C123.724 55.4942 125.338 54.0208 127.9 54.0208C129.18 54.0208 130.128 54.3013 130.741 54.6165L130.215 56.353C129.794 56.126 128.97 55.7935 127.864 55.7935C126.496 55.7935 125.899 56.5294 125.899 57.2119C125.899 58.1257 126.583 58.5464 128.162 59.1609C130.215 59.933 131.214 60.9669 131.214 62.6701C131.214 64.5642 129.777 66.214 126.725 66.214C125.478 66.214 124.18 65.8626 123.532 65.4766L124.005 63.6866ZM118.574 61.055L117.644 58.143C117.417 57.4244 117.224 56.6162 117.049 55.9323H117.013C116.838 56.6162 116.663 57.4403 116.452 58.143L115.539 61.055H118.574ZM115.189 62.686L114.171 66.0376H111.942L115.732 54.2131H118.487L122.328 66.0376H120.013L118.943 62.686H115.189ZM104.776 59.599H106.057C107.513 59.599 108.425 58.8269 108.425 57.6514C108.425 56.353 107.513 55.7573 106.109 55.7573C105.425 55.7573 104.987 55.8094 104.776 55.8629V59.599ZM102.636 54.3707C103.443 54.2305 104.653 54.1249 105.898 54.1249C107.6 54.1249 108.758 54.4069 109.549 55.0734C110.198 55.6171 110.565 56.4412 110.565 57.4403C110.565 58.9672 109.53 60.0024 108.425 60.4073V60.4579C109.267 60.7745 109.776 61.5987 110.074 62.7381C110.442 64.2143 110.759 65.5807 111.003 66.0376H108.777C108.6 65.6877 108.32 64.7218 107.987 63.247C107.653 61.7057 107.092 61.2127 105.865 61.1779H104.776V66.0376H102.636V54.3707ZM94.9426 64.4775C95.2231 64.5107 95.5918 64.5295 96.0834 64.5295C97.4685 64.5295 98.6976 64.0018 98.6976 62.5472C98.6976 61.1779 97.5047 60.6169 96.0125 60.6169H94.9426V64.4775ZM94.9426 59.038H96.0472C97.538 59.038 98.3809 58.3368 98.3809 57.3362C98.3809 56.2316 97.538 55.7212 96.1701 55.7212C95.5383 55.7212 95.171 55.7573 94.9426 55.8094V59.038ZM92.8027 54.3707C93.4866 54.2305 94.7329 54.1249 95.9417 54.1249C97.538 54.1249 98.5212 54.3187 99.328 54.8797C100.065 55.3192 100.557 56.0899 100.557 57.0904C100.557 58.1777 99.8731 59.1783 98.5906 59.6525V59.6872C99.8369 60.0024 100.978 60.9856 100.978 62.6166C100.978 63.6692 100.521 64.4934 99.8369 65.0558C98.9954 65.7932 97.6088 66.1619 95.4515 66.1619C94.2572 66.1619 93.3463 66.0737 92.8027 66.0014V54.3707ZM79.1405 44.1368C79.1405 56.7449 68.9196 66.9658 56.3115 66.9658C43.7034 66.9658 33.4824 56.7449 33.4824 44.1368C33.4824 31.5301 43.7034 21.3077 56.3115 21.3077C68.9196 21.3077 79.1405 31.5301 79.1405 44.1368ZM216.695 48.0276V33.1799H212.549V51.4414H222.762V48.0276H216.695ZM150.45 48.0276V47.9741V33.1799H146.305V51.4414H156.516V48.0276H150.45ZM163.519 48.0291V47.9178L172.027 35.5641V33.1799H158.777V36.5936H166.664V36.702L158.687 48.1795V51.4414H172.164V48.0291H163.519ZM229.767 48.0291V47.9178L238.274 35.5641V33.1799H225.026V36.5936H232.91V36.702L224.933 48.1795V51.4414H238.41V48.0291H229.767ZM196.918 42.3656C196.918 45.9412 198.598 48.46 201.361 48.46C204.153 48.46 205.752 45.8082 205.752 42.2571C205.752 38.9793 204.182 36.1598 201.335 36.1598C198.544 36.1598 196.918 38.8159 196.918 42.3656ZM210.113 42.1212C210.113 48.1072 206.481 51.7392 201.144 51.7392C195.725 51.7392 192.556 47.6488 192.556 42.448C192.556 36.9739 196.05 32.8806 201.443 32.8806C207.051 32.8806 210.113 37.0809 210.113 42.1212ZM179.148 33.1799V40.1967H185.946V33.1799H190.067V51.4414H185.946V43.8013H179.148V51.4414H175.003V33.1799H179.148ZM142.064 43.7204H135.743V48.0537H143.25V51.4414H131.597V33.1799H142.869V36.5676H135.743V40.3587H142.064V43.7204ZM123.327 43.6654L122.189 39.7904C121.863 38.7075 121.538 37.3527 121.266 36.2683H121.214C120.942 37.3527 120.671 38.7335 120.373 39.7904L119.29 43.6654H123.327ZM118.694 46.7538L117.393 51.4414H113.112L118.694 33.1799H124.112L129.775 51.4414H125.334L123.922 46.7538H118.694ZM95.3474 51.4414L91.0127 33.1799H95.4299L96.8107 40.7129C97.2184 42.8803 97.5987 45.2371 97.8965 47.0791H97.9486C98.2479 45.1012 98.6816 42.9049 99.1429 40.658L100.687 33.1799H105.075L106.539 40.8734C106.946 43.0162 107.243 44.9667 107.516 46.9982H107.568C107.84 44.9667 108.246 42.8268 108.625 40.658L110.114 33.1799H114.315L109.6 51.4414H105.13L103.588 43.5844C103.233 41.7409 102.935 40.0348 102.719 37.9484H102.664C102.34 40.0073 102.042 41.7409 101.607 43.5844L99.8731 51.4414H95.3474Z" fill="white"/>
<path d="M73.6626 33.1793H70.9212L63.6224 50.9101L56.3221 33.1793H49.0161L61.3393 63.1105L73.6626 33.1793ZM54.9413 54.2501L46.2675 33.1793H38.96L51.289 63.1206L54.9413 54.2501ZM59.5739 35.9178C59.5739 37.582 59.7807 38.7633 61.4362 38.7633C63.0151 38.7633 63.1293 37.6051 63.1293 36.8084H62.0276C62.0276 37.6051 61.8656 37.9507 61.3668 37.9507C60.8174 37.9507 60.6815 37.4085 60.6786 35.9178C60.6815 34.4271 60.8174 33.8863 61.3668 33.8863C61.8656 33.8863 62.0276 34.2319 62.0276 35.0285H63.1293C63.1293 34.2319 63.0151 33.0737 61.4362 33.0737C59.7807 33.0737 59.5739 34.255 59.5739 35.9178ZM64.1068 38.6548H65.8462C67.3108 38.6548 67.7258 37.7801 67.7258 35.8411C67.7258 34.2319 67.4496 33.1807 65.9156 33.1807H64.1068V38.6548ZM65.7016 37.8408H65.2114V33.9947H65.6784C66.5214 33.9947 66.6212 34.6295 66.6212 35.8715C66.6212 37.3579 66.4679 37.8408 65.7016 37.8408Z" fill="#003A69"/>
</g>
<defs>
<clipPath id="clip0_3079_7792">
<rect width="1920" height="1080" fill="white"/>
</clipPath>
<clipPath id="clip1_3079_7792">
<rect width="1896" height="947" fill="white" transform="translate(0 90)"/>
</clipPath>
</defs>
</svg>
